<?xml version="1.0" encoding="utf-8" standalone="no"?>
<!DOCTYPE svg PUBLIC "-//W3C//DTD SVG 1.1//EN"
  "http://www.w3.org/Graphics/SVG/1.1/DTD/svg11.dtd">
<svg xmlns:xlink="http://www.w3.org/1999/xlink" width="159.895234pt" height="166.539219pt" viewBox="0 0 159.895234 166.539219" xmlns="http://www.w3.org/2000/svg" version="1.1">
 <metadata>
  <rdf:RDF xmlns:dc="http://purl.org/dc/elements/1.1/" xmlns:cc="http://creativecommons.org/ns#" xmlns:rdf="http://www.w3.org/1999/02/22-rdf-syntax-ns#">
   <cc:Work>
    <dc:type rdf:resource="http://purl.org/dc/dcmitype/StillImage"/>
    <dc:date>2024-05-27T10:09:36.752303</dc:date>
    <dc:format>image/svg+xml</dc:format>
    <dc:creator>
     <cc:Agent>
      <dc:title>Matplotlib v3.8.4, https://matplotlib.org/</dc:title>
     </cc:Agent>
    </dc:creator>
   </cc:Work>
  </rdf:RDF>
 </metadata>
 <defs>
  <style type="text/css">*{stroke-linejoin: round; stroke-linecap: butt}</style>
 </defs>
 <g id="figure_1">
  <g id="patch_1">
   <path d="M 0 166.539219 
L 159.895234 166.539219 
L 159.895234 0 
L 0 0 
z
" style="fill: #ffffff"/>
  </g>
  <g id="axes_1">
   <g id="patch_2">
    <path d="M 28.512812 130.918594 
L 140.112812 130.918594 
L 140.112812 20.038594 
L 28.512812 20.038594 
z
" style="fill: #ffffff"/>
   </g>
   <g id="matplotlib.axis_1">
    <g id="xtick_1">
     <g id="line2d_1">
      <defs>
       <path id="m6e131c4c22" d="M 0 0 
L 0 3.5 
" style="stroke: #000000; stroke-width: 1.5"/>
      </defs>
      <g>
       <use xlink:href="#m6e131c4c22" x="33.58554" y="130.918594" style="stroke: #000000; stroke-width: 1.5"/>
      </g>
     </g>
     <g id="text_1">
      <text style="font: 9px 'Arial', sans-serif; text-anchor: middle" x="33.58554" y="144.757187" transform="rotate(-0 33.58554 144.757187)">0.0</text>
     </g>
    </g>
    <g id="xtick_2">
     <g id="line2d_2">
      <g>
       <use xlink:href="#m6e131c4c22" x="84.312812" y="130.918594" style="stroke: #000000; stroke-width: 1.5"/>
      </g>
     </g>
     <g id="text_2">
      <text style="font: 9px 'Arial', sans-serif; text-anchor: middle" x="84.312812" y="144.757187" transform="rotate(-0 84.312812 144.757187)">0.5</text>
     </g>
    </g>
    <g id="xtick_3">
     <g id="line2d_3">
      <g>
       <use xlink:href="#m6e131c4c22" x="135.040085" y="130.918594" style="stroke: #000000; stroke-width: 1.5"/>
      </g>
     </g>
     <g id="text_3">
      <text style="font: 9px 'Arial', sans-serif; text-anchor: middle" x="135.040085" y="144.757187" transform="rotate(-0 135.040085 144.757187)">1.0</text>
     </g>
    </g>
    <g id="text_4">
     <text style="font: 9px 'Arial', sans-serif; text-anchor: middle" x="84.312812" y="157.4675" transform="rotate(-0 84.312812 157.4675)">Credibility level</text>
    </g>
   </g>
   <g id="matplotlib.axis_2">
    <g id="ytick_1">
     <g id="line2d_4">
      <defs>
       <path id="m3a4aa1c71c" d="M 0 0 
L -3.5 0 
" style="stroke: #000000; stroke-width: 1.5"/>
      </defs>
      <g>
       <use xlink:href="#m3a4aa1c71c" x="28.512812" y="125.878594" style="stroke: #000000; stroke-width: 1.5"/>
      </g>
     </g>
     <g id="text_5">
      <text style="font: 9px 'Arial', sans-serif; text-anchor: end" x="21.512812" y="129.297891" transform="rotate(-0 21.512812 129.297891)">0.0</text>
     </g>
    </g>
    <g id="ytick_2">
     <g id="line2d_5">
      <g>
       <use xlink:href="#m3a4aa1c71c" x="28.512812" y="75.478594" style="stroke: #000000; stroke-width: 1.5"/>
      </g>
     </g>
     <g id="text_6">
      <text style="font: 9px 'Arial', sans-serif; text-anchor: end" x="21.512812" y="78.897891" transform="rotate(-0 21.512812 78.897891)">0.5</text>
     </g>
    </g>
    <g id="ytick_3">
     <g id="line2d_6">
      <g>
       <use xlink:href="#m3a4aa1c71c" x="28.512812" y="25.078594" style="stroke: #000000; stroke-width: 1.5"/>
      </g>
     </g>
     <g id="text_7">
      <text style="font: 9px 'Arial', sans-serif; text-anchor: end" x="21.512812" y="28.497891" transform="rotate(-0 21.512812 28.497891)">1.0</text>
     </g>
    </g>
   </g>
   <g id="line2d_7">
    <path d="M 33.58554 125.795131 
L 35.656041 124.476264 
L 37.726542 122.666703 
L 39.797043 119.586255 
L 41.867543 117.959342 
L 43.938044 115.990114 
L 46.008545 113.978952 
L 48.079045 112.046818 
L 50.149547 110.641666 
L 52.220048 108.657922 
L 54.290548 106.595151 
L 56.36105 103.796136 
L 58.431551 101.847067 
L 60.502051 100.609647 
L 62.572551 99.29441 
L 64.643054 97.534037 
L 66.713554 96.03252 
L 68.784054 94.159657 
L 70.854557 92.385979 
L 72.925057 89.244649 
L 74.995557 87.642736 
L 77.06606 85.936794 
L 79.13656 84.05506 
L 81.20706 82.8378 
L 83.277563 80.10491 
L 85.348062 78.977968 
L 87.418562 77.366375 
L 89.489062 76.468854 
L 91.559562 73.941193 
L 93.630068 72.040509 
L 95.700568 69.410034 
L 97.771068 66.169515 
L 99.841568 64.613158 
L 101.912068 61.770601 
L 103.982568 59.113107 
L 106.053068 57.210813 
L 108.123574 54.658558 
L 110.194074 51.999454 
L 112.264574 49.858865 
L 114.335074 47.221131 
L 116.405574 46.01556 
L 118.476074 44.5717 
L 120.54658 41.328766 
L 122.61708 38.574102 
L 124.687579 36.381903 
L 126.758079 35.508973 
L 128.828579 33.869969 
L 130.899079 30.861689 
L 132.969585 28.017521 
L 135.040085 26.014825 
" clip-path="url(#pa1b2efaf39)" style="fill: none; stroke: #1f77b4; stroke-opacity: 0.8; stroke-width: 2; stroke-linecap: square"/>
   </g>
   <g id="line2d_8">
    <path d="M 33.58554 125.878594 
L 35.656041 123.821451 
L 37.726542 121.764308 
L 39.797043 119.707165 
L 41.867543 117.650022 
L 43.938044 115.59288 
L 46.008545 113.535736 
L 48.079045 111.478595 
L 50.149547 109.421451 
L 52.220048 107.364308 
L 54.290548 105.307166 
L 56.36105 103.250023 
L 58.431551 101.192879 
L 60.502051 99.135737 
L 62.572551 97.078595 
L 64.643054 95.021451 
L 66.713554 92.964309 
L 68.784054 90.907167 
L 70.854557 88.850022 
L 72.925057 86.79288 
L 74.995557 84.735738 
L 77.06606 82.678593 
L 79.13656 80.621451 
L 81.20706 78.56431 
L 83.277563 76.507165 
L 85.348062 74.450023 
L 87.418562 72.392881 
L 89.489062 70.335739 
L 91.559562 68.278597 
L 93.630068 66.221449 
L 95.700568 64.164307 
L 97.771068 62.107166 
L 99.841568 60.050024 
L 101.912068 57.992882 
L 103.982568 55.93574 
L 106.053068 53.878598 
L 108.123574 51.82145 
L 110.194074 49.764308 
L 112.264574 47.707166 
L 114.335074 45.650025 
L 116.405574 43.592883 
L 118.476074 41.535741 
L 120.54658 39.478593 
L 122.61708 37.421451 
L 124.687579 35.364309 
L 126.758079 33.307167 
L 128.828579 31.250025 
L 130.899079 29.192884 
L 132.969585 27.135736 
L 135.040085 25.078594 
" clip-path="url(#pa1b2efaf39)" style="fill: none; stroke-dasharray: 1.85,0.8; stroke-dashoffset: 0; stroke: #000000; stroke-width: 0.5"/>
   </g>
   <g id="patch_3">
    <path d="M 28.512812 130.918594 
L 28.512812 20.038594 
" style="fill: none; stroke: #000000; stroke-width: 1.5; stroke-linejoin: miter; stroke-linecap: square"/>
   </g>
   <g id="patch_4">
    <path d="M 28.512813 130.918594 
L 140.112812 130.918594 
" style="fill: none; stroke: #000000; stroke-width: 1.5; stroke-linejoin: miter; stroke-linecap: square"/>
   </g>
   <g id="text_8">
    <text style="font: 9px 'Arial', sans-serif; text-anchor: middle" x="84.312812" y="14.038594" transform="rotate(-0 84.312812 14.038594)">Expected coverage (detect. 1)</text>
   </g>
  </g>
 </g>
 <defs>
  <clipPath id="pa1b2efaf39">
   <rect x="28.512812" y="20.038594" width="111.6" height="110.88"/>
  </clipPath>
 </defs>
</svg>
