<?xml version="1.0" encoding="utf-8" standalone="no"?>
<!DOCTYPE svg PUBLIC "-//W3C//DTD SVG 1.1//EN"
  "http://www.w3.org/Graphics/SVG/1.1/DTD/svg11.dtd">
<svg xmlns:xlink="http://www.w3.org/1999/xlink" width="129.346313pt" height="107.287922pt" viewBox="0 0 129.346313 107.287922" xmlns="http://www.w3.org/2000/svg" version="1.1">
 <metadata>
  <rdf:RDF xmlns:dc="http://purl.org/dc/elements/1.1/" xmlns:cc="http://creativecommons.org/ns#" xmlns:rdf="http://www.w3.org/1999/02/22-rdf-syntax-ns#">
   <cc:Work>
    <dc:type rdf:resource="http://purl.org/dc/dcmitype/StillImage"/>
    <dc:date>2024-05-12T11:03:59.345845</dc:date>
    <dc:format>image/svg+xml</dc:format>
    <dc:creator>
     <cc:Agent>
      <dc:title>Matplotlib v3.8.4, https://matplotlib.org/</dc:title>
     </cc:Agent>
    </dc:creator>
   </cc:Work>
  </rdf:RDF>
 </metadata>
 <defs>
  <style type="text/css">*{stroke-linejoin: round; stroke-linecap: butt}</style>
 </defs>
 <g id="figure_1">
  <g id="patch_1">
   <path d="M 0 107.287922 
L 129.346313 107.287922 
L 129.346313 0 
L 0 0 
z
" style="fill: #ffffff"/>
  </g>
  <g id="axes_1">
   <g id="patch_2">
    <path d="M 40.426313 71.667297 
L 122.146312 71.667297 
L 122.146312 10.619297 
L 40.426313 10.619297 
z
" style="fill: #ffffff"/>
   </g>
   <g id="matplotlib.axis_1">
    <g id="xtick_1">
     <g id="line2d_1">
      <defs>
       <path id="mc51a0c3bb5" d="M 0 0 
L 0 3.5 
" style="stroke: #000000; stroke-width: 1.5"/>
      </defs>
      <g>
       <use xlink:href="#mc51a0c3bb5" x="54.046312" y="71.667297" style="stroke: #000000; stroke-width: 1.5"/>
      </g>
     </g>
     <g id="text_1">
      <!-- $10^3$ -->
      <g transform="translate(46.126312 85.505891)">
       <text>
        <tspan style="font: 9px 'DejaVu Sans'" x="0 5.726074" y="-0.8734375000000014">10</tspan>
        <tspan style="font: 6.3px 'DejaVu Sans'" x="11.538281" y="-4.318750000000001">3</tspan>
       </text>
      </g>
     </g>
    </g>
    <g id="xtick_2">
     <g id="line2d_2">
      <g>
       <use xlink:href="#mc51a0c3bb5" x="81.286312" y="71.667297" style="stroke: #000000; stroke-width: 1.5"/>
      </g>
     </g>
     <g id="text_2">
      <!-- $10^4$ -->
      <g transform="translate(73.366312 85.505891)">
       <text>
        <tspan style="font: 9px 'DejaVu Sans'" x="0 5.726074" y="-0.9609375">10</tspan>
        <tspan style="font: 6.3px 'DejaVu Sans'" x="11.538281" y="-4.40625">4</tspan>
       </text>
      </g>
     </g>
    </g>
    <g id="xtick_3">
     <g id="line2d_3">
      <g>
       <use xlink:href="#mc51a0c3bb5" x="108.526312" y="71.667297" style="stroke: #000000; stroke-width: 1.5"/>
      </g>
     </g>
     <g id="text_3">
      <!-- $10^5$ -->
      <g transform="translate(100.606312 85.505891)">
       <text>
        <tspan style="font: 9px 'DejaVu Sans'" x="0 5.726074" y="-0.9609375">10</tspan>
        <tspan style="font: 6.3px 'DejaVu Sans'" x="11.538281" y="-4.40625">5</tspan>
       </text>
      </g>
     </g>
    </g>
    <g id="text_4">
     <text style="font: 9px 'Arial', sans-serif; text-anchor: middle" x="81.286313" y="98.216203" transform="rotate(-0 81.286313 98.216203)">Number of simulations</text>
    </g>
   </g>
   <g id="matplotlib.axis_2">
    <g id="ytick_1">
     <g id="line2d_4">
      <defs>
       <path id="me7db3f11bf" d="M 0 0 
L -3.5 0 
" style="stroke: #000000; stroke-width: 1.5"/>
      </defs>
      <g>
       <use xlink:href="#me7db3f11bf" x="40.426313" y="71.667297" style="stroke: #000000; stroke-width: 1.5"/>
      </g>
     </g>
     <g id="text_5">
      <text style="font: 9px 'Arial', sans-serif; text-anchor: end" x="33.426313" y="75.086594" transform="rotate(-0 33.426313 75.086594)">0.5</text>
     </g>
    </g>
    <g id="ytick_2">
     <g id="line2d_5">
      <g>
       <use xlink:href="#me7db3f11bf" x="40.426313" y="10.619297" style="stroke: #000000; stroke-width: 1.5"/>
      </g>
     </g>
     <g id="text_6">
      <text style="font: 9px 'Arial', sans-serif; text-anchor: end" x="33.426313" y="14.038594" transform="rotate(-0 33.426313 14.038594)">1.0</text>
     </g>
    </g>
    <g id="text_7">
     <text style="font: 9px 'Arial', sans-serif; text-anchor: middle" x="14.038594" y="41.143297" transform="rotate(-90 14.038594 41.143297)">C2ST posterior</text>
    </g>
   </g>
   <g id="line2d_6">
    <path d="M 54.046312 15.76076 
L 81.286312 40.545027 
L 108.526312 55.51888 
" clip-path="url(#p9e64e904d4)" style="fill: none; stroke: #f25d1d; stroke-opacity: 0.8; stroke-width: 2.7; stroke-linecap: square"/>
    <defs>
     <path id="mddd7f64abd" d="M 0 1.691974 
C 0.448717 1.691974 0.879116 1.513697 1.196406 1.196406 
C 1.513697 0.879116 1.691974 0.448717 1.691974 0 
C 1.691974 -0.448717 1.513697 -0.879116 1.196406 -1.196406 
C 0.879116 -1.513697 0.448717 -1.691974 0 -1.691974 
C -0.448717 -1.691974 -0.879116 -1.513697 -1.196406 -1.196406 
C -1.513697 -0.879116 -1.691974 -0.448717 -1.691974 0 
C -1.691974 0.448717 -1.513697 0.879116 -1.196406 1.196406 
C -0.879116 1.513697 -0.448717 1.691974 0 1.691974 
z
" style="stroke: #f25d1d; stroke-opacity: 0.8; stroke-width: 2.025"/>
    </defs>
    <g clip-path="url(#p9e64e904d4)">
     <use xlink:href="#mddd7f64abd" x="54.046312" y="15.76076" style="fill: #f25d1d; fill-opacity: 0.8; stroke: #f25d1d; stroke-opacity: 0.8; stroke-width: 2.025"/>
     <use xlink:href="#mddd7f64abd" x="81.286312" y="40.545027" style="fill: #f25d1d; fill-opacity: 0.8; stroke: #f25d1d; stroke-opacity: 0.8; stroke-width: 2.025"/>
     <use xlink:href="#mddd7f64abd" x="108.526312" y="55.51888" style="fill: #f25d1d; fill-opacity: 0.8; stroke: #f25d1d; stroke-opacity: 0.8; stroke-width: 2.025"/>
    </g>
   </g>
   <g id="line2d_7">
    <path clip-path="url(#p9e64e904d4)" style="fill: none; stroke: #f25d1d; stroke-opacity: 0.8; stroke-width: 2.7; stroke-linecap: square"/>
   </g>
   <g id="line2d_8">
    <path clip-path="url(#p9e64e904d4)" style="fill: none; stroke: #f25d1d; stroke-opacity: 0.8; stroke-width: 2.7; stroke-linecap: square"/>
   </g>
   <g id="line2d_9">
    <path clip-path="url(#p9e64e904d4)" style="fill: none; stroke: #f25d1d; stroke-opacity: 0.8; stroke-width: 2.7; stroke-linecap: square"/>
   </g>
   <g id="line2d_10">
    <path d="M 54.046312 20.603087 
L 81.286312 49.788915 
L 108.526312 60.855086 
" clip-path="url(#p9e64e904d4)" style="fill: none; stroke: #911c1c; stroke-opacity: 0.8; stroke-width: 2.7; stroke-linecap: square"/>
    <defs>
     <path id="m7bc0c9d74e" d="M 0 1.691974 
C 0.448717 1.691974 0.879116 1.513697 1.196406 1.196406 
C 1.513697 0.879116 1.691974 0.448717 1.691974 0 
C 1.691974 -0.448717 1.513697 -0.879116 1.196406 -1.196406 
C 0.879116 -1.513697 0.448717 -1.691974 0 -1.691974 
C -0.448717 -1.691974 -0.879116 -1.513697 -1.196406 -1.196406 
C -1.513697 -0.879116 -1.691974 -0.448717 -1.691974 0 
C -1.691974 0.448717 -1.513697 0.879116 -1.196406 1.196406 
C -0.879116 1.513697 -0.448717 1.691974 0 1.691974 
z
" style="stroke: #911c1c; stroke-opacity: 0.8; stroke-width: 2.025"/>
    </defs>
    <g clip-path="url(#p9e64e904d4)">
     <use xlink:href="#m7bc0c9d74e" x="54.046312" y="20.603087" style="fill: #911c1c; fill-opacity: 0.8; stroke: #911c1c; stroke-opacity: 0.8; stroke-width: 2.025"/>
     <use xlink:href="#m7bc0c9d74e" x="81.286312" y="49.788915" style="fill: #911c1c; fill-opacity: 0.8; stroke: #911c1c; stroke-opacity: 0.8; stroke-width: 2.025"/>
     <use xlink:href="#m7bc0c9d74e" x="108.526312" y="60.855086" style="fill: #911c1c; fill-opacity: 0.8; stroke: #911c1c; stroke-opacity: 0.8; stroke-width: 2.025"/>
    </g>
   </g>
   <g id="line2d_11">
    <path clip-path="url(#p9e64e904d4)" style="fill: none; stroke: #911c1c; stroke-opacity: 0.8; stroke-width: 2.7; stroke-linecap: square"/>
   </g>
   <g id="line2d_12">
    <path clip-path="url(#p9e64e904d4)" style="fill: none; stroke: #911c1c; stroke-opacity: 0.8; stroke-width: 2.7; stroke-linecap: square"/>
   </g>
   <g id="line2d_13">
    <path clip-path="url(#p9e64e904d4)" style="fill: none; stroke: #911c1c; stroke-opacity: 0.8; stroke-width: 2.7; stroke-linecap: square"/>
   </g>
   <g id="line2d_14">
    <path d="M 54.046312 21.451653 
L 81.286312 53.956662 
L 108.526312 63.378199 
" clip-path="url(#p9e64e904d4)" style="fill: none; stroke: #d73027; stroke-opacity: 0.8; stroke-width: 2.7; stroke-linecap: square"/>
    <defs>
     <path id="m49e5fce8a4" d="M 0 1.691974 
C 0.448717 1.691974 0.879116 1.513697 1.196406 1.196406 
C 1.513697 0.879116 1.691974 0.448717 1.691974 0 
C 1.691974 -0.448717 1.513697 -0.879116 1.196406 -1.196406 
C 0.879116 -1.513697 0.448717 -1.691974 0 -1.691974 
C -0.448717 -1.691974 -0.879116 -1.513697 -1.196406 -1.196406 
C -1.513697 -0.879116 -1.691974 -0.448717 -1.691974 0 
C -1.691974 0.448717 -1.513697 0.879116 -1.196406 1.196406 
C -0.879116 1.513697 -0.448717 1.691974 0 1.691974 
z
" style="stroke: #d73027; stroke-opacity: 0.8; stroke-width: 2.025"/>
    </defs>
    <g clip-path="url(#p9e64e904d4)">
     <use xlink:href="#m49e5fce8a4" x="54.046312" y="21.451653" style="fill: #d73027; fill-opacity: 0.8; stroke: #d73027; stroke-opacity: 0.8; stroke-width: 2.025"/>
     <use xlink:href="#m49e5fce8a4" x="81.286312" y="53.956662" style="fill: #d73027; fill-opacity: 0.8; stroke: #d73027; stroke-opacity: 0.8; stroke-width: 2.025"/>
     <use xlink:href="#m49e5fce8a4" x="108.526312" y="63.378199" style="fill: #d73027; fill-opacity: 0.8; stroke: #d73027; stroke-opacity: 0.8; stroke-width: 2.025"/>
    </g>
   </g>
   <g id="line2d_15">
    <path clip-path="url(#p9e64e904d4)" style="fill: none; stroke: #d73027; stroke-opacity: 0.8; stroke-width: 2.7; stroke-linecap: square"/>
   </g>
   <g id="line2d_16">
    <path clip-path="url(#p9e64e904d4)" style="fill: none; stroke: #d73027; stroke-opacity: 0.8; stroke-width: 2.7; stroke-linecap: square"/>
   </g>
   <g id="line2d_17">
    <path clip-path="url(#p9e64e904d4)" style="fill: none; stroke: #d73027; stroke-opacity: 0.8; stroke-width: 2.7; stroke-linecap: square"/>
   </g>
   <g id="line2d_18"/>
   <g id="line2d_19"/>
   <g id="line2d_20"/>
   <g id="patch_3">
    <path d="M 40.426313 71.667297 
L 40.426313 10.619297 
" style="fill: none; stroke: #000000; stroke-width: 1.5; stroke-linejoin: miter; stroke-linecap: square"/>
   </g>
   <g id="patch_4">
    <path d="M 40.426313 71.667297 
L 122.146312 71.667297 
" style="fill: none; stroke: #000000; stroke-width: 1.5; stroke-linejoin: miter; stroke-linecap: square"/>
   </g>
  </g>
 </g>
 <defs>
  <clipPath id="p9e64e904d4">
   <rect x="40.426313" y="10.619297" width="81.72" height="61.048"/>
  </clipPath>
 </defs>
</svg>
