<?xml version="1.0" encoding="utf-8" standalone="no"?>
<!DOCTYPE svg PUBLIC "-//W3C//DTD SVG 1.1//EN"
  "http://www.w3.org/Graphics/SVG/1.1/DTD/svg11.dtd">
<svg xmlns:xlink="http://www.w3.org/1999/xlink" width="129.802781pt" height="107.665359pt" viewBox="0 0 129.802781 107.665359" xmlns="http://www.w3.org/2000/svg" version="1.1">
 <metadata>
  <rdf:RDF xmlns:dc="http://purl.org/dc/elements/1.1/" xmlns:cc="http://creativecommons.org/ns#" xmlns:rdf="http://www.w3.org/1999/02/22-rdf-syntax-ns#">
   <cc:Work>
    <dc:type rdf:resource="http://purl.org/dc/dcmitype/StillImage"/>
    <dc:date>2024-01-27T14:55:18.907171</dc:date>
    <dc:format>image/svg+xml</dc:format>
    <dc:creator>
     <cc:Agent>
      <dc:title>Matplotlib v3.8.2, https://matplotlib.org/</dc:title>
     </cc:Agent>
    </dc:creator>
   </cc:Work>
  </rdf:RDF>
 </metadata>
 <defs>
  <style type="text/css">*{stroke-linejoin: round; stroke-linecap: butt}</style>
 </defs>
 <g id="figure_1">
  <g id="patch_1">
   <path d="M 0 107.665359 
L 129.802781 107.665359 
L 129.802781 0 
L 0 0 
z
" style="fill: #ffffff"/>
  </g>
  <g id="axes_1">
   <g id="patch_2">
    <path d="M 40.162781 70.164578 
L 122.602781 70.164578 
L 122.602781 10.421016 
L 40.162781 10.421016 
z
" style="fill: #ffffff"/>
   </g>
   <g id="matplotlib.axis_1">
    <g id="xtick_1">
     <g id="line2d_1">
      <defs>
       <path id="mfe520d5674" d="M 0 0 
L 0 3.5 
" style="stroke: #000000; stroke-width: 1.5"/>
      </defs>
      <g>
       <use xlink:href="#mfe520d5674" x="53.902781" y="70.164578" style="stroke: #000000; stroke-width: 1.5"/>
      </g>
     </g>
     <g id="text_1">
      <!-- $10^3$ -->
      <g transform="translate(46.837781 86.445828)">
       <text>
        <tspan style="font: 9px 'Arial'" x="0 5.005371" y="-0.19943750000000193">10</tspan>
        <tspan style="font: 6.3px 'Arial'" x="10.167553" y="-6.471875000000002">3</tspan>
       </text>
      </g>
     </g>
    </g>
    <g id="xtick_2">
     <g id="line2d_2">
      <g>
       <use xlink:href="#mfe520d5674" x="81.382781" y="70.164578" style="stroke: #000000; stroke-width: 1.5"/>
      </g>
     </g>
     <g id="text_2">
      <!-- $10^4$ -->
      <g transform="translate(74.317781 86.355828)">
       <text>
        <tspan style="font: 9px 'Arial'" x="0 5.005371" y="-0.2213124999999998">10</tspan>
        <tspan style="font: 6.3px 'Arial'" x="10.167553" y="-6.4937499999999995">4</tspan>
       </text>
      </g>
     </g>
    </g>
    <g id="xtick_3">
     <g id="line2d_3">
      <g>
       <use xlink:href="#mfe520d5674" x="108.862781" y="70.164578" style="stroke: #000000; stroke-width: 1.5"/>
      </g>
     </g>
     <g id="text_3">
      <!-- $10^5$ -->
      <g transform="translate(101.797781 86.355828)">
       <text>
        <tspan style="font: 9px 'Arial'" x="0 5.005371" y="-0.2759999999999998">10</tspan>
        <tspan style="font: 6.3px 'Arial'" x="10.167553" y="-6.5484374999999995">5</tspan>
       </text>
      </g>
     </g>
    </g>
    <g id="text_4">
     <text style="font: 9px 'Arial', sans-serif; text-anchor: middle" x="81.382781" y="98.676609" transform="rotate(-0 81.382781 98.676609)">Number of simulations</text>
    </g>
   </g>
   <g id="matplotlib.axis_2">
    <g id="ytick_1">
     <g id="line2d_4">
      <defs>
       <path id="m5dc5961e8e" d="M 0 0 
L -3.5 0 
" style="stroke: #000000; stroke-width: 1.5"/>
      </defs>
      <g>
       <use xlink:href="#m5dc5961e8e" x="40.162781" y="70.164578" style="stroke: #000000; stroke-width: 1.5"/>
      </g>
     </g>
     <g id="text_5">
      <text style="font: 9px 'Arial', sans-serif; text-anchor: end" x="33.162781" y="73.385594" transform="rotate(-0 33.162781 73.385594)">0.5</text>
     </g>
    </g>
    <g id="ytick_2">
     <g id="line2d_5">
      <g>
       <use xlink:href="#m5dc5961e8e" x="40.162781" y="10.421016" style="stroke: #000000; stroke-width: 1.5"/>
      </g>
     </g>
     <g id="text_6">
      <text style="font: 9px 'Arial', sans-serif; text-anchor: end" x="33.162781" y="13.642031" transform="rotate(-0 33.162781 13.642031)">1.0</text>
     </g>
    </g>
    <g id="text_7">
     <text style="font: 9px 'Arial', sans-serif; text-anchor: middle" x="13.642031" y="40.292797" transform="rotate(-90 13.642031 40.292797)">C2ST</text>
    </g>
   </g>
   <g id="line2d_6">
    <path d="M 53.902781 28.317798 
L 81.382781 50.075208 
L 108.862781 55.430023 
" clip-path="url(#pc6ae755852)" style="fill: none; stroke: #d73027; stroke-opacity: 0.8; stroke-width: 2.7; stroke-linecap: square"/>
    <defs>
     <path id="m25d142959c" d="M 0 1.691974 
C 0.448717 1.691974 0.879116 1.513697 1.196406 1.196406 
C 1.513697 0.879116 1.691974 0.448717 1.691974 0 
C 1.691974 -0.448717 1.513697 -0.879116 1.196406 -1.196406 
C 0.879116 -1.513697 0.448717 -1.691974 0 -1.691974 
C -0.448717 -1.691974 -0.879116 -1.513697 -1.196406 -1.196406 
C -1.513697 -0.879116 -1.691974 -0.448717 -1.691974 0 
C -1.691974 0.448717 -1.513697 0.879116 -1.196406 1.196406 
C -0.879116 1.513697 -0.448717 1.691974 0 1.691974 
z
" style="stroke: #d73027; stroke-opacity: 0.8; stroke-width: 2.025"/>
    </defs>
    <g clip-path="url(#pc6ae755852)">
     <use xlink:href="#m25d142959c" x="53.902781" y="28.317798" style="fill: #d73027; fill-opacity: 0.8; stroke: #d73027; stroke-opacity: 0.8; stroke-width: 2.025"/>
     <use xlink:href="#m25d142959c" x="81.382781" y="50.075208" style="fill: #d73027; fill-opacity: 0.8; stroke: #d73027; stroke-opacity: 0.8; stroke-width: 2.025"/>
     <use xlink:href="#m25d142959c" x="108.862781" y="55.430023" style="fill: #d73027; fill-opacity: 0.8; stroke: #d73027; stroke-opacity: 0.8; stroke-width: 2.025"/>
    </g>
   </g>
   <g id="line2d_7">
    <path clip-path="url(#pc6ae755852)" style="fill: none; stroke: #d73027; stroke-opacity: 0.8; stroke-width: 2.7; stroke-linecap: square"/>
   </g>
   <g id="line2d_8">
    <path clip-path="url(#pc6ae755852)" style="fill: none; stroke: #d73027; stroke-opacity: 0.8; stroke-width: 2.7; stroke-linecap: square"/>
   </g>
   <g id="line2d_9">
    <path clip-path="url(#pc6ae755852)" style="fill: none; stroke: #d73027; stroke-opacity: 0.8; stroke-width: 2.7; stroke-linecap: square"/>
   </g>
   <g id="line2d_10">
    <path d="M 53.902781 27.876292 
L 81.382781 46.149458 
L 108.862781 52.825801 
" clip-path="url(#pc6ae755852)" style="fill: none; stroke: #911c1c; stroke-opacity: 0.8; stroke-width: 2.7; stroke-linecap: square"/>
    <defs>
     <path id="m092bd92a12" d="M 0 1.691974 
C 0.448717 1.691974 0.879116 1.513697 1.196406 1.196406 
C 1.513697 0.879116 1.691974 0.448717 1.691974 0 
C 1.691974 -0.448717 1.513697 -0.879116 1.196406 -1.196406 
C 0.879116 -1.513697 0.448717 -1.691974 0 -1.691974 
C -0.448717 -1.691974 -0.879116 -1.513697 -1.196406 -1.196406 
C -1.513697 -0.879116 -1.691974 -0.448717 -1.691974 0 
C -1.691974 0.448717 -1.513697 0.879116 -1.196406 1.196406 
C -0.879116 1.513697 -0.448717 1.691974 0 1.691974 
z
" style="stroke: #911c1c; stroke-opacity: 0.8; stroke-width: 2.025"/>
    </defs>
    <g clip-path="url(#pc6ae755852)">
     <use xlink:href="#m092bd92a12" x="53.902781" y="27.876292" style="fill: #911c1c; fill-opacity: 0.8; stroke: #911c1c; stroke-opacity: 0.8; stroke-width: 2.025"/>
     <use xlink:href="#m092bd92a12" x="81.382781" y="46.149458" style="fill: #911c1c; fill-opacity: 0.8; stroke: #911c1c; stroke-opacity: 0.8; stroke-width: 2.025"/>
     <use xlink:href="#m092bd92a12" x="108.862781" y="52.825801" style="fill: #911c1c; fill-opacity: 0.8; stroke: #911c1c; stroke-opacity: 0.8; stroke-width: 2.025"/>
    </g>
   </g>
   <g id="line2d_11">
    <path clip-path="url(#pc6ae755852)" style="fill: none; stroke: #911c1c; stroke-opacity: 0.8; stroke-width: 2.7; stroke-linecap: square"/>
   </g>
   <g id="line2d_12">
    <path clip-path="url(#pc6ae755852)" style="fill: none; stroke: #911c1c; stroke-opacity: 0.8; stroke-width: 2.7; stroke-linecap: square"/>
   </g>
   <g id="line2d_13">
    <path clip-path="url(#pc6ae755852)" style="fill: none; stroke: #911c1c; stroke-opacity: 0.8; stroke-width: 2.7; stroke-linecap: square"/>
   </g>
   <g id="line2d_14">
    <path d="M 53.902781 19.294727 
L 81.382781 35.543781 
L 108.862781 47.567771 
" clip-path="url(#pc6ae755852)" style="fill: none; stroke: #f25d1d; stroke-opacity: 0.8; stroke-width: 2.7; stroke-linecap: square"/>
    <defs>
     <path id="m0a49c0405a" d="M 0 1.691974 
C 0.448717 1.691974 0.879116 1.513697 1.196406 1.196406 
C 1.513697 0.879116 1.691974 0.448717 1.691974 0 
C 1.691974 -0.448717 1.513697 -0.879116 1.196406 -1.196406 
C 0.879116 -1.513697 0.448717 -1.691974 0 -1.691974 
C -0.448717 -1.691974 -0.879116 -1.513697 -1.196406 -1.196406 
C -1.513697 -0.879116 -1.691974 -0.448717 -1.691974 0 
C -1.691974 0.448717 -1.513697 0.879116 -1.196406 1.196406 
C -0.879116 1.513697 -0.448717 1.691974 0 1.691974 
z
" style="stroke: #f25d1d; stroke-opacity: 0.8; stroke-width: 2.025"/>
    </defs>
    <g clip-path="url(#pc6ae755852)">
     <use xlink:href="#m0a49c0405a" x="53.902781" y="19.294727" style="fill: #f25d1d; fill-opacity: 0.8; stroke: #f25d1d; stroke-opacity: 0.8; stroke-width: 2.025"/>
     <use xlink:href="#m0a49c0405a" x="81.382781" y="35.543781" style="fill: #f25d1d; fill-opacity: 0.8; stroke: #f25d1d; stroke-opacity: 0.8; stroke-width: 2.025"/>
     <use xlink:href="#m0a49c0405a" x="108.862781" y="47.567771" style="fill: #f25d1d; fill-opacity: 0.8; stroke: #f25d1d; stroke-opacity: 0.8; stroke-width: 2.025"/>
    </g>
   </g>
   <g id="line2d_15">
    <path clip-path="url(#pc6ae755852)" style="fill: none; stroke: #f25d1d; stroke-opacity: 0.8; stroke-width: 2.7; stroke-linecap: square"/>
   </g>
   <g id="line2d_16">
    <path clip-path="url(#pc6ae755852)" style="fill: none; stroke: #f25d1d; stroke-opacity: 0.8; stroke-width: 2.7; stroke-linecap: square"/>
   </g>
   <g id="line2d_17">
    <path clip-path="url(#pc6ae755852)" style="fill: none; stroke: #f25d1d; stroke-opacity: 0.8; stroke-width: 2.7; stroke-linecap: square"/>
   </g>
   <g id="line2d_18"/>
   <g id="line2d_19"/>
   <g id="line2d_20"/>
   <g id="patch_3">
    <path d="M 40.162781 70.164578 
L 40.162781 10.421016 
" style="fill: none; stroke: #000000; stroke-width: 1.5; stroke-linejoin: miter; stroke-linecap: square"/>
   </g>
   <g id="patch_4">
    <path d="M 40.162781 70.164578 
L 122.602781 70.164578 
" style="fill: none; stroke: #000000; stroke-width: 1.5; stroke-linejoin: miter; stroke-linecap: square"/>
   </g>
  </g>
 </g>
 <defs>
  <clipPath id="pc6ae755852">
   <rect x="40.162781" y="10.421016" width="82.44" height="59.743563"/>
  </clipPath>
 </defs>
</svg>
