<?xml version="1.0" encoding="utf-8" standalone="no"?>
<!DOCTYPE svg PUBLIC "-//W3C//DTD SVG 1.1//EN"
  "http://www.w3.org/Graphics/SVG/1.1/DTD/svg11.dtd">
<svg xmlns:xlink="http://www.w3.org/1999/xlink" width="374.636562pt" height="121.206625pt" viewBox="0 0 374.636562 121.206625" xmlns="http://www.w3.org/2000/svg" version="1.1">
 <metadata>
  <rdf:RDF xmlns:dc="http://purl.org/dc/elements/1.1/" xmlns:cc="http://creativecommons.org/ns#" xmlns:rdf="http://www.w3.org/1999/02/22-rdf-syntax-ns#">
   <cc:Work>
    <dc:type rdf:resource="http://purl.org/dc/dcmitype/StillImage"/>
    <dc:date>2024-05-10T14:19:49.639064</dc:date>
    <dc:format>image/svg+xml</dc:format>
    <dc:creator>
     <cc:Agent>
      <dc:title>Matplotlib v3.8.4, https://matplotlib.org/</dc:title>
     </cc:Agent>
    </dc:creator>
   </cc:Work>
  </rdf:RDF>
 </metadata>
 <defs>
  <style type="text/css">*{stroke-linejoin: round; stroke-linecap: butt}</style>
 </defs>
 <g id="figure_1">
  <g id="patch_1">
   <path d="M 0 121.206625 
L 374.636562 121.206625 
L 374.636562 0 
L 0 0 
L 0 121.206625 
z
" style="fill: none"/>
  </g>
  <g id="axes_1">
   <g id="patch_2">
    <path d="M 32.636563 98.296312 
L 260.90929 98.296312 
L 260.90929 15.136313 
L 32.636563 15.136313 
L 32.636563 98.296312 
z
" style="fill: none"/>
   </g>
   <g id="PathCollection_1">
    <defs>
     <path id="mfdb781f4fd" d="M -2.236068 2.236068 
L 2.236068 -2.236068 
M -2.236068 -2.236068 
L 2.236068 2.236068 
" style="stroke: #2e8b57; stroke-width: 1.5"/>
    </defs>
    <g clip-path="url(#pabe5fac4b3)">
     <use xlink:href="#mfdb781f4fd" x="81.692078" y="72.182818" style="fill: #2e8b57; stroke: #2e8b57; stroke-width: 1.5"/>
     <use xlink:href="#mfdb781f4fd" x="87.355378" y="53.86988" style="fill: #2e8b57; stroke: #2e8b57; stroke-width: 1.5"/>
     <use xlink:href="#mfdb781f4fd" x="89.407449" y="51.373556" style="fill: #2e8b57; stroke: #2e8b57; stroke-width: 1.5"/>
     <use xlink:href="#mfdb781f4fd" x="104.184263" y="94.1345" style="fill: #2e8b57; stroke: #2e8b57; stroke-width: 1.5"/>
    </g>
   </g>
   <g id="PolyCollection_1">
    <defs>
     <path id="macf93f2d61" d="M 32.636563 -48.057155 
L 32.636563 -40.339675 
L 33.783662 -42.575383 
L 34.930761 -45.249692 
L 36.07786 -48.191403 
L 37.224959 -51.229316 
L 38.372058 -54.192229 
L 39.519157 -58.269277 
L 40.666257 -60.352944 
L 41.813355 -61.458642 
L 42.960454 -61.483233 
L 44.107553 -60.135175 
L 45.254653 -57.387714 
L 46.401752 -53.659314 
L 47.548851 -49.243011 
L 48.695951 -44.652506 
L 49.843049 -40.382302 
L 50.990148 -36.718138 
L 52.137247 -33.964684 
L 53.284346 -31.901011 
L 54.431445 -30.341757 
L 55.578544 -29.272352 
L 56.725645 -28.434864 
L 57.872743 -27.875861 
L 59.019842 -27.518262 
L 60.166941 -27.311693 
L 61.31404 -27.288436 
L 62.461139 -27.380101 
L 63.608238 -27.450044 
L 64.755339 -27.700852 
L 65.902436 -28.032344 
L 67.049536 -28.460499 
L 68.196633 -29.05574 
L 69.343734 -29.776007 
L 70.490835 -30.687332 
L 71.637932 -31.74751 
L 72.785033 -32.930965 
L 73.93213 -34.194536 
L 75.07923 -35.47425 
L 76.226327 -37.071677 
L 77.373428 -39.184178 
L 78.520525 -41.783963 
L 79.667626 -44.616466 
L 80.814727 -48.53079 
L 83.108924 -52.725431 
L 84.256021 -56.467934 
L 85.403122 -59.118348 
L 86.550219 -60.106062 
L 88.844421 -59.338937 
L 91.138618 -56.828553 
L 92.285715 -53.124957 
L 93.432816 -48.538391 
L 94.579913 -43.575771 
L 95.727014 -38.983544 
L 96.874115 -35.75618 
L 98.021215 -33.184482 
L 99.168309 -31.121049 
L 100.315409 -29.548225 
L 101.46251 -28.391925 
L 102.609611 -27.629451 
L 103.756704 -27.123831 
L 106.050906 -26.885028 
L 107.198006 -26.906607 
L 108.345107 -27.055561 
L 109.492201 -27.338524 
L 110.639301 -27.594339 
L 111.786402 -27.923298 
L 112.933503 -28.298051 
L 114.080596 -28.849625 
L 115.227697 -29.50489 
L 116.374797 -30.285499 
L 117.521898 -31.099011 
L 118.668999 -31.986402 
L 119.816092 -33.055055 
L 120.963193 -34.10921 
L 122.110294 -35.28587 
L 123.257394 -36.778182 
L 124.404488 -38.591124 
L 125.551589 -40.747023 
L 126.698689 -43.302221 
L 127.84579 -46.409709 
L 128.992891 -50.00818 
L 130.139984 -53.310824 
L 131.287085 -55.9567 
L 132.434186 -57.419209 
L 133.581286 -57.459103 
L 134.728387 -56.204378 
L 135.87548 -53.785121 
L 137.022581 -50.255434 
L 138.169682 -46.16301 
L 139.316782 -42.112244 
L 140.463876 -38.71386 
L 141.610977 -36.061345 
L 142.758077 -33.850837 
L 143.905178 -32.12073 
L 145.052279 -30.705997 
L 146.199372 -29.659866 
L 147.346473 -28.958143 
L 148.493574 -28.496664 
L 149.640674 -28.068233 
L 150.787768 -27.754358 
L 151.934868 -27.601959 
L 153.081969 -27.516308 
L 154.22907 -27.469724 
L 155.376171 -27.567039 
L 156.523264 -27.769241 
L 157.670372 -28.042134 
L 158.817465 -28.34836 
L 159.964559 -28.706946 
L 161.111667 -29.129739 
L 162.25876 -29.574778 
L 163.405868 -30.151233 
L 164.552962 -30.894376 
L 165.700055 -31.733937 
L 166.847163 -32.647236 
L 167.994256 -33.785075 
L 169.14135 -35.085775 
L 170.288458 -36.524161 
L 171.435551 -38.227395 
L 172.582659 -40.51057 
L 173.729753 -43.425384 
L 174.876846 -46.295868 
L 176.023954 -48.648846 
L 177.171048 -50.036909 
L 178.318155 -50.288027 
L 179.465249 -49.286893 
L 180.612342 -47.277103 
L 181.75945 -44.457085 
L 182.906544 -41.236936 
L 184.053652 -38.103192 
L 185.200745 -35.711033 
L 186.347839 -34.072603 
L 187.494947 -32.725202 
L 188.64204 -31.60795 
L 189.789148 -30.65889 
L 190.936241 -29.884794 
L 192.083335 -29.269632 
L 193.230443 -28.774249 
L 194.377536 -28.373425 
L 195.52463 -28.083739 
L 196.671738 -27.823444 
L 197.818831 -27.712818 
L 198.965939 -27.671199 
L 200.113032 -27.606193 
L 201.260126 -27.588206 
L 202.407234 -27.638737 
L 203.554327 -27.747852 
L 204.701435 -27.971889 
L 205.848529 -28.217768 
L 206.995622 -28.541996 
L 208.14273 -28.958297 
L 209.289824 -29.526168 
L 210.436932 -30.231616 
L 211.584025 -30.962231 
L 212.731118 -31.751625 
L 213.878226 -32.661304 
L 215.02532 -33.925687 
L 216.172413 -35.454656 
L 217.319521 -37.382875 
L 218.466615 -39.700471 
L 219.613723 -41.831187 
L 220.760816 -43.58706 
L 221.90791 -44.677753 
L 223.055017 -44.887383 
L 224.202111 -44.066855 
L 225.349219 -42.575843 
L 226.496312 -40.550711 
L 227.643406 -38.38281 
L 228.790514 -36.252352 
L 229.937607 -34.623963 
L 231.084715 -33.443086 
L 232.231809 -32.343963 
L 233.378902 -31.529005 
L 234.52601 -30.803356 
L 235.673103 -30.181922 
L 236.820211 -29.625791 
L 237.967305 -29.3023 
L 239.114398 -29.002771 
L 240.261506 -28.671975 
L 241.4086 -28.341051 
L 242.555693 -28.117461 
L 243.702801 -27.847341 
L 244.849894 -27.61325 
L 245.997002 -27.404447 
L 247.144096 -27.334364 
L 248.291189 -27.381333 
L 249.438297 -27.524236 
L 250.585391 -27.752699 
L 251.732499 -28.058079 
L 252.879592 -28.428538 
L 254.026686 -28.836718 
L 255.173794 -29.10647 
L 256.320887 -29.683924 
L 257.467995 -30.290275 
L 258.615088 -30.899487 
L 259.762182 -31.485519 
L 260.90929 -32.022333 
L 260.90929 -67.770765 
L 260.90929 -67.770765 
L 259.762182 -66.864692 
L 258.615088 -65.381467 
L 257.467995 -63.423202 
L 256.320887 -61.092009 
L 255.173794 -58.489997 
L 254.026686 -57.119344 
L 252.879592 -54.274895 
L 251.732499 -51.337248 
L 250.585391 -48.666909 
L 249.438297 -46.337618 
L 248.291189 -44.212258 
L 247.144096 -42.207063 
L 245.997002 -40.298629 
L 244.849894 -39.038809 
L 243.702801 -38.50543 
L 242.555693 -38.95445 
L 241.4086 -40.394024 
L 240.261506 -42.947555 
L 239.114398 -46.58085 
L 237.967305 -51.151168 
L 236.820211 -56.135638 
L 235.673103 -60.962413 
L 234.52601 -65.045688 
L 233.378902 -68.25933 
L 232.231809 -70.655781 
L 231.084715 -72.016337 
L 229.937607 -72.634187 
L 228.790514 -72.703889 
L 227.643406 -72.589403 
L 226.496312 -72.368106 
L 225.349219 -72.200772 
L 224.202111 -71.915958 
L 223.055017 -71.567758 
L 221.90791 -70.950731 
L 220.760816 -70.455009 
L 219.613723 -69.880783 
L 218.466615 -69.177478 
L 217.319521 -68.190957 
L 216.172413 -67.292348 
L 215.02532 -65.792498 
L 213.878226 -63.778931 
L 212.731118 -61.304065 
L 211.584025 -58.454871 
L 210.436932 -55.482208 
L 209.289824 -52.404632 
L 208.14273 -49.654493 
L 206.995622 -47.183176 
L 205.848529 -45.074214 
L 204.701435 -43.318211 
L 203.554327 -41.918049 
L 202.407234 -40.39257 
L 201.260126 -39.018931 
L 200.113032 -37.761075 
L 198.965939 -36.713278 
L 197.818831 -36.168808 
L 196.671738 -36.095554 
L 195.52463 -36.825822 
L 194.377536 -38.789962 
L 193.230443 -41.938569 
L 192.083335 -46.238695 
L 190.936241 -51.29361 
L 189.789148 -56.715902 
L 188.64204 -61.938753 
L 187.494947 -66.333653 
L 186.347839 -69.699966 
L 185.200745 -72.004128 
L 184.053652 -72.992251 
L 182.906544 -73.174297 
L 181.75945 -72.981882 
L 180.612342 -72.63961 
L 179.465249 -72.171225 
L 178.318155 -71.558489 
L 177.171048 -70.911786 
L 176.023954 -70.076985 
L 174.876846 -69.185845 
L 173.729753 -68.057814 
L 172.582659 -66.65758 
L 171.435551 -64.817198 
L 170.288458 -62.733115 
L 169.14135 -60.362577 
L 167.994256 -57.756241 
L 166.847163 -55.000598 
L 165.700055 -52.145571 
L 164.552962 -49.46534 
L 163.405868 -46.975266 
L 162.25876 -44.862622 
L 161.111667 -42.917501 
L 159.964559 -41.253006 
L 158.817465 -39.805828 
L 157.670372 -38.662466 
L 156.523264 -37.658607 
L 155.376171 -36.827634 
L 154.22907 -36.224596 
L 153.081969 -35.839505 
L 151.934868 -35.7782 
L 150.787768 -36.081885 
L 149.640674 -36.923618 
L 148.493574 -38.553523 
L 147.346473 -40.914788 
L 146.199372 -44.400853 
L 145.052279 -48.889904 
L 143.905178 -53.889001 
L 142.758077 -59.08088 
L 141.610977 -63.905494 
L 140.463876 -67.984598 
L 139.316782 -71.009106 
L 138.169682 -72.854752 
L 137.022581 -73.651069 
L 135.87548 -73.596689 
L 134.728387 -72.874271 
L 133.581286 -72.031906 
L 132.434186 -71.233983 
L 131.287085 -70.251942 
L 130.139984 -69.041233 
L 128.992891 -67.345682 
L 127.84579 -65.1663 
L 126.698689 -62.657225 
L 125.551589 -59.869056 
L 124.404488 -56.902758 
L 123.257394 -53.924194 
L 122.110294 -51.1066 
L 120.963193 -48.545471 
L 119.816092 -46.362214 
L 118.668999 -44.436448 
L 117.521898 -42.694175 
L 116.374797 -41.124183 
L 115.227697 -39.775652 
L 114.080596 -38.617137 
L 112.933503 -37.59748 
L 111.786402 -36.750029 
L 110.639301 -36.163185 
L 109.492201 -35.754792 
L 108.345107 -35.504219 
L 107.198006 -35.485314 
L 106.050906 -35.778237 
L 103.756704 -36.490621 
L 102.609611 -37.820165 
L 101.46251 -39.931108 
L 100.315409 -42.680114 
L 99.168309 -46.1917 
L 98.021215 -50.45 
L 96.874115 -55.050433 
L 95.727014 -59.943791 
L 94.579913 -64.468803 
L 93.432816 -68.085691 
L 92.285715 -70.396128 
L 91.138618 -71.519936 
L 88.844421 -71.617445 
L 86.550219 -70.25965 
L 85.403122 -67.726066 
L 84.256021 -64.489552 
L 83.108924 -60.914278 
L 80.814727 -57.256916 
L 79.667626 -54.039951 
L 78.520525 -50.908623 
L 77.373428 -48.017789 
L 76.226327 -45.523467 
L 75.07923 -43.600888 
L 73.93213 -42.172538 
L 72.785033 -40.689712 
L 71.637932 -39.465139 
L 70.490835 -38.407355 
L 69.343734 -37.457643 
L 68.196633 -36.73024 
L 67.049536 -36.169374 
L 65.902436 -35.747563 
L 64.755339 -35.450241 
L 63.608238 -35.325334 
L 62.461139 -35.430347 
L 61.31404 -35.758717 
L 60.166941 -36.32856 
L 59.019842 -37.132872 
L 57.872743 -38.282725 
L 56.725645 -39.81206 
L 55.578544 -41.989013 
L 54.431445 -44.657322 
L 53.284346 -48.024669 
L 52.137247 -51.784682 
L 50.990148 -55.959588 
L 49.843049 -60.206713 
L 48.695951 -64.185791 
L 47.548851 -67.643313 
L 46.401752 -70.283967 
L 45.254653 -72.029695 
L 44.107553 -72.72889 
L 42.960454 -72.39856 
L 41.813355 -71.030068 
L 40.666257 -68.910336 
L 39.519157 -66.067913 
L 38.372058 -61.022436 
L 37.224959 -57.461869 
L 36.07786 -54.121898 
L 34.930761 -51.265683 
L 33.783662 -49.156382 
L 32.636563 -48.057155 
z
" style="stroke: #2e8b57; stroke-opacity: 0.3"/>
    </defs>
    <g clip-path="url(#pabe5fac4b3)">
     <use xlink:href="#macf93f2d61" x="0" y="121.206625" style="fill: #2e8b57; fill-opacity: 0.3; stroke: #2e8b57; stroke-opacity: 0.3"/>
    </g>
   </g>
   <g id="PolyCollection_2">
    <defs>
     <path id="mf278a388fa" d="M 32.636563 -37.245775 
L 32.636563 -29.198232 
L 33.783662 -29.739308 
L 34.930761 -30.319274 
L 36.07786 -30.992018 
L 37.224959 -31.811427 
L 38.372058 -32.83139 
L 39.519157 -34.934679 
L 40.666257 -36.796582 
L 41.813355 -39.024402 
L 42.960454 -41.669635 
L 44.107553 -44.587868 
L 45.254653 -47.649464 
L 46.401752 -50.847807 
L 47.548851 -53.997871 
L 48.695951 -56.832779 
L 49.843049 -59.167328 
L 50.990148 -60.863858 
L 52.137247 -61.811665 
L 53.284346 -61.985133 
L 54.431445 -61.343312 
L 55.578544 -60.01751 
L 56.725645 -58.076026 
L 57.872743 -55.667448 
L 59.019842 -53.066119 
L 60.166941 -50.409551 
L 61.31404 -47.861748 
L 62.461139 -45.456452 
L 63.608238 -43.218203 
L 64.755339 -41.205056 
L 65.902436 -39.452108 
L 67.049536 -37.845448 
L 68.196633 -36.39801 
L 69.343734 -35.121605 
L 70.490835 -33.982225 
L 71.637932 -32.993949 
L 72.785033 -32.17118 
L 73.93213 -31.536132 
L 75.07923 -31.023954 
L 76.226327 -30.677129 
L 77.373428 -30.570986 
L 78.520525 -30.607522 
L 79.667626 -30.731653 
L 80.814727 -31.168115 
L 81.692078 -31.71463 
L 83.108924 -32.620528 
L 84.256021 -33.401739 
L 85.403122 -34.575501 
L 86.550219 -36.115228 
L 87.355378 -38.281169 
L 88.844421 -41.039405 
L 89.407449 -44.410623 
L 91.138618 -48.187336 
L 92.285715 -52.081419 
L 93.432816 -55.743011 
L 94.579913 -58.606314 
L 95.727014 -60.636736 
L 96.874115 -61.237114 
L 98.021215 -60.807044 
L 99.168309 -59.623984 
L 100.315409 -57.789312 
L 101.46251 -55.439365 
L 102.609611 -52.800778 
L 103.756704 -50.117615 
L 104.184263 -47.555277 
L 106.050906 -45.101962 
L 107.198006 -42.839578 
L 108.345107 -40.880214 
L 109.492201 -39.065879 
L 110.639301 -37.461852 
L 111.786402 -36.252153 
L 112.933503 -35.156129 
L 114.080596 -34.235507 
L 115.227697 -33.401265 
L 116.374797 -32.757389 
L 117.521898 -32.282796 
L 118.668999 -31.855552 
L 119.816092 -31.546434 
L 120.963193 -31.328227 
L 122.110294 -31.140571 
L 123.257394 -30.973323 
L 124.404488 -30.873443 
L 125.551589 -30.938346 
L 126.698689 -31.120317 
L 127.84579 -31.521469 
L 128.992891 -32.134239 
L 130.139984 -33.011065 
L 131.287085 -34.019694 
L 132.434186 -35.438916 
L 133.581286 -37.327826 
L 134.728387 -39.80067 
L 135.87548 -42.97205 
L 137.022581 -46.822143 
L 138.169682 -50.846677 
L 139.316782 -54.437968 
L 140.463876 -57.243822 
L 141.610977 -58.873045 
L 142.758077 -59.134071 
L 143.905178 -57.917991 
L 145.052279 -55.625173 
L 146.199372 -52.628898 
L 147.346473 -49.429984 
L 148.493574 -46.489653 
L 149.640674 -44.031317 
L 150.787768 -41.961032 
L 151.934868 -40.19775 
L 153.081969 -38.7309 
L 154.22907 -37.430401 
L 155.376171 -36.291609 
L 156.523264 -35.236232 
L 157.670372 -34.280256 
L 158.817465 -33.51078 
L 159.964559 -32.854147 
L 161.111667 -32.249633 
L 162.25876 -31.811625 
L 163.405868 -31.545226 
L 164.552962 -31.366956 
L 165.700055 -31.23779 
L 166.847163 -31.170939 
L 167.994256 -31.025233 
L 169.14135 -30.870286 
L 170.288458 -30.707833 
L 171.435551 -30.713231 
L 172.582659 -30.858306 
L 173.729753 -31.09694 
L 174.876846 -31.565518 
L 176.023954 -32.277705 
L 177.171048 -33.070997 
L 178.318155 -34.239864 
L 179.465249 -35.733862 
L 180.612342 -37.679243 
L 181.75945 -40.72291 
L 182.906544 -44.198515 
L 184.053652 -47.762418 
L 185.200745 -50.82399 
L 186.347839 -52.907278 
L 187.494947 -53.952043 
L 188.64204 -53.681815 
L 189.789148 -52.120658 
L 190.936241 -49.706323 
L 192.083335 -46.734726 
L 193.230443 -43.876467 
L 194.377536 -41.775604 
L 195.52463 -39.993479 
L 196.671738 -38.452056 
L 197.818831 -37.119198 
L 198.965939 -35.912369 
L 200.113032 -34.935163 
L 201.260126 -34.036185 
L 202.407234 -33.32293 
L 203.554327 -32.782599 
L 204.701435 -32.358517 
L 205.848529 -31.922677 
L 206.995622 -31.634121 
L 208.14273 -31.428344 
L 209.289824 -31.151901 
L 210.436932 -30.890666 
L 211.584025 -30.590259 
L 212.731118 -30.379825 
L 213.878226 -30.319811 
L 215.02532 -30.400074 
L 216.172413 -30.608667 
L 217.319521 -30.867764 
L 218.466615 -31.214798 
L 219.613723 -31.572231 
L 220.760816 -31.9579 
L 221.90791 -32.42613 
L 223.055017 -32.983649 
L 224.202111 -33.452193 
L 225.349219 -34.297768 
L 226.496312 -35.857189 
L 227.643406 -38.228209 
L 228.790514 -41.181481 
L 229.937607 -43.991515 
L 231.084715 -46.341544 
L 232.231809 -47.844539 
L 233.378902 -48.433506 
L 234.52601 -48.072595 
L 235.673103 -46.598124 
L 236.820211 -44.250191 
L 237.967305 -41.69659 
L 239.114398 -39.439244 
L 240.261506 -37.753523 
L 241.4086 -36.47574 
L 242.555693 -35.197322 
L 243.702801 -34.090958 
L 244.849894 -33.214572 
L 245.997002 -32.605177 
L 247.144096 -32.171025 
L 248.291189 -31.862748 
L 249.438297 -31.741875 
L 250.585391 -31.640294 
L 251.732499 -31.392319 
L 252.879592 -31.152328 
L 254.026686 -30.959501 
L 255.173794 -30.769561 
L 256.320887 -30.390376 
L 257.467995 -30.046537 
L 258.615088 -29.779346 
L 259.762182 -29.630109 
L 260.90929 -29.640128 
L 260.90929 -51.892196 
L 260.90929 -51.892196 
L 259.762182 -46.923624 
L 258.615088 -43.917303 
L 257.467995 -42.610964 
L 256.320887 -42.742344 
L 255.173794 -44.049179 
L 254.026686 -45.061436 
L 252.879592 -47.435498 
L 251.732499 -50.400921 
L 250.585391 -53.518749 
L 249.438297 -56.966256 
L 248.291189 -60.715615 
L 247.144096 -64.788717 
L 245.997002 -68.869854 
L 244.849894 -73.085061 
L 243.702801 -77.325874 
L 242.555693 -81.276996 
L 241.4086 -84.771257 
L 240.261506 -87.773663 
L 239.114398 -90.152101 
L 237.967305 -91.802992 
L 236.820211 -92.801355 
L 235.673103 -93.364147 
L 234.52601 -93.203683 
L 233.378902 -92.337629 
L 232.231809 -90.997906 
L 231.084715 -89.307322 
L 229.937607 -86.941275 
L 228.790514 -84.14785 
L 227.643406 -81.200514 
L 226.496312 -78.417141 
L 225.349219 -75.681516 
L 224.202111 -73.075906 
L 223.055017 -70.778143 
L 221.90791 -67.838608 
L 220.760816 -64.397124 
L 219.613723 -60.420549 
L 218.466615 -56.100326 
L 217.319521 -51.467298 
L 216.172413 -46.908291 
L 215.02532 -43.059944 
L 213.878226 -40.411568 
L 212.731118 -38.932081 
L 211.584025 -38.705022 
L 210.436932 -39.54334 
L 209.289824 -40.832545 
L 208.14273 -42.621223 
L 206.995622 -44.831848 
L 205.848529 -47.281993 
L 204.701435 -50.219458 
L 203.554327 -53.397587 
L 202.407234 -56.8283 
L 201.260126 -60.485863 
L 200.113032 -64.482139 
L 198.965939 -68.731234 
L 197.818831 -72.801477 
L 196.671738 -76.947507 
L 195.52463 -81.197396 
L 194.377536 -85.031594 
L 193.230443 -88.293747 
L 192.083335 -91.16818 
L 190.936241 -92.917828 
L 189.789148 -93.780293 
L 188.64204 -93.813012 
L 187.494947 -92.974251 
L 186.347839 -91.157939 
L 185.200745 -88.801776 
L 184.053652 -85.978417 
L 182.906544 -82.775418 
L 181.75945 -79.283744 
L 180.612342 -75.630318 
L 179.465249 -71.529904 
L 178.318155 -66.91875 
L 177.171048 -62.142016 
L 176.023954 -57.364239 
L 174.876846 -52.641419 
L 173.729753 -48.260975 
L 172.582659 -44.551067 
L 171.435551 -41.257679 
L 170.288458 -38.957819 
L 169.14135 -37.649016 
L 167.994256 -37.132025 
L 166.847163 -37.084292 
L 165.700055 -37.552295 
L 164.552962 -38.458492 
L 163.405868 -39.807039 
L 162.25876 -41.507906 
L 161.111667 -43.411481 
L 159.964559 -45.638944 
L 158.817465 -48.237617 
L 157.670372 -51.05594 
L 156.523264 -54.068559 
L 155.376171 -57.43733 
L 154.22907 -61.077763 
L 153.081969 -64.997048 
L 151.934868 -69.115331 
L 150.787768 -73.151858 
L 149.640674 -77.511285 
L 148.493574 -81.653494 
L 147.346473 -85.563629 
L 146.199372 -88.950884 
L 145.052279 -91.33198 
L 143.905178 -92.750157 
L 142.758077 -92.83925 
L 141.610977 -91.737504 
L 140.463876 -89.695895 
L 139.316782 -86.518873 
L 138.169682 -82.613477 
L 137.022581 -78.218431 
L 135.87548 -73.3022 
L 134.728387 -68.049318 
L 133.581286 -62.810749 
L 132.434186 -57.510182 
L 131.287085 -52.52159 
L 130.139984 -47.824464 
L 128.992891 -43.922022 
L 127.84579 -40.977892 
L 126.698689 -38.720836 
L 125.551589 -37.394135 
L 124.404488 -36.57867 
L 123.257394 -36.399266 
L 122.110294 -36.513146 
L 120.963193 -37.023494 
L 119.816092 -37.743949 
L 118.668999 -38.624577 
L 117.521898 -39.585892 
L 116.374797 -40.7686 
L 115.227697 -42.205047 
L 114.080596 -43.902634 
L 112.933503 -45.822204 
L 111.786402 -48.036778 
L 110.639301 -50.452982 
L 109.492201 -53.610245 
L 108.345107 -57.016401 
L 107.198006 -60.694792 
L 106.050906 -64.615058 
L 104.184263 -68.985876 
L 103.756704 -73.572366 
L 102.609611 -78.434217 
L 101.46251 -83.003492 
L 100.315409 -87.244696 
L 99.168309 -90.754953 
L 98.021215 -93.160024 
L 96.874115 -93.969001 
L 95.727014 -93.03621 
L 94.579913 -89.848254 
L 93.432816 -85.26571 
L 92.285715 -79.375637 
L 91.138618 -72.589919 
L 89.407449 -65.709299 
L 88.844421 -58.960231 
L 87.355378 -53.161778 
L 86.550219 -48.244569 
L 85.403122 -44.477246 
L 84.256021 -41.432694 
L 83.108924 -39.550262 
L 81.692078 -37.872889 
L 80.814727 -37.037454 
L 79.667626 -36.433019 
L 78.520525 -36.279426 
L 77.373428 -36.376676 
L 76.226327 -36.586602 
L 75.07923 -36.983832 
L 73.93213 -37.611217 
L 72.785033 -38.581965 
L 71.637932 -39.619895 
L 70.490835 -40.749659 
L 69.343734 -41.974019 
L 68.196633 -43.436368 
L 67.049536 -45.138954 
L 65.902436 -47.092592 
L 64.755339 -49.230322 
L 63.608238 -51.708916 
L 62.461139 -54.594846 
L 61.31404 -57.820651 
L 60.166941 -61.605242 
L 59.019842 -65.546228 
L 57.872743 -70.063026 
L 56.725645 -74.833351 
L 55.578544 -79.820275 
L 54.431445 -84.719559 
L 53.284346 -89.271336 
L 52.137247 -92.944976 
L 50.990148 -95.18019 
L 49.843049 -95.535449 
L 48.695951 -93.647061 
L 47.548851 -89.503663 
L 46.401752 -83.297554 
L 45.254653 -76.064105 
L 44.107553 -68.088298 
L 42.960454 -60.371286 
L 41.813355 -53.440309 
L 40.666257 -47.896262 
L 39.519157 -43.637182 
L 38.372058 -39.666689 
L 37.224959 -38.291322 
L 36.07786 -37.554259 
L 34.930761 -37.262789 
L 33.783662 -37.224199 
L 32.636563 -37.245775 
z
" style="stroke: #b22222; stroke-opacity: 0.3"/>
    </defs>
    <g clip-path="url(#pabe5fac4b3)">
     <use xlink:href="#mf278a388fa" x="0" y="121.206625" style="fill: #b22222; fill-opacity: 0.3; stroke: #b22222; stroke-opacity: 0.3"/>
    </g>
   </g>
   <g id="matplotlib.axis_1">
    <g id="xtick_1">
     <g id="line2d_1">
      <defs>
       <path id="me41e930888" d="M 0 0 
L 0 3.5 
" style="stroke: #000000; stroke-width: 1.5"/>
      </defs>
      <g>
       <use xlink:href="#me41e930888" x="32.636563" y="98.296312" style="stroke: #000000; stroke-width: 1.5"/>
      </g>
     </g>
    </g>
    <g id="xtick_2">
     <g id="line2d_2">
      <g>
       <use xlink:href="#me41e930888" x="260.90929" y="98.296312" style="stroke: #000000; stroke-width: 1.5"/>
      </g>
     </g>
    </g>
   </g>
   <g id="matplotlib.axis_2">
    <g id="ytick_1">
     <g id="line2d_3">
      <defs>
       <path id="m823340b707" d="M 0 0 
L -3.5 0 
" style="stroke: #000000; stroke-width: 1.5"/>
      </defs>
      <g>
       <use xlink:href="#m823340b707" x="32.636563" y="98.296312" style="stroke: #000000; stroke-width: 1.5"/>
      </g>
     </g>
     <g id="text_1">
      <text style="font: 9px 'Arial', sans-serif; text-anchor: end" x="25.636563" y="101.715609" transform="rotate(-0 25.636563 101.715609)">0</text>
     </g>
    </g>
    <g id="ytick_2">
     <g id="line2d_4">
      <g>
       <use xlink:href="#m823340b707" x="32.636563" y="77.506313" style="stroke: #000000; stroke-width: 1.5"/>
      </g>
     </g>
     <g id="text_2">
      <text style="font: 9px 'Arial', sans-serif; text-anchor: end" x="25.636563" y="80.925609" transform="rotate(-0 25.636563 80.925609)">1</text>
     </g>
    </g>
    <g id="ytick_3">
     <g id="line2d_5">
      <g>
       <use xlink:href="#m823340b707" x="32.636563" y="56.716313" style="stroke: #000000; stroke-width: 1.5"/>
      </g>
     </g>
     <g id="text_3">
      <text style="font: 9px 'Arial', sans-serif; text-anchor: end" x="25.636563" y="60.135609" transform="rotate(-0 25.636563 60.135609)">2</text>
     </g>
    </g>
    <g id="ytick_4">
     <g id="line2d_6">
      <g>
       <use xlink:href="#m823340b707" x="32.636563" y="35.926313" style="stroke: #000000; stroke-width: 1.5"/>
      </g>
     </g>
     <g id="text_4">
      <text style="font: 9px 'Arial', sans-serif; text-anchor: end" x="25.636563" y="39.345609" transform="rotate(-0 25.636563 39.345609)">3</text>
     </g>
    </g>
    <g id="ytick_5">
     <g id="line2d_7">
      <g>
       <use xlink:href="#m823340b707" x="32.636563" y="15.136313" style="stroke: #000000; stroke-width: 1.5"/>
      </g>
     </g>
     <g id="text_5">
      <text style="font: 9px 'Arial', sans-serif; text-anchor: end" x="25.636563" y="18.555609" transform="rotate(-0 25.636563 18.555609)">4</text>
     </g>
    </g>
    <g id="text_6">
     <text style="font: 9px 'Arial', sans-serif; text-anchor: middle" x="14.038594" y="56.716313" transform="rotate(-90 14.038594 56.716313)">Population density</text>
    </g>
   </g>
   <g id="line2d_8">
    <path d="M 32.636563 76.912269 
L 33.783662 75.152001 
L 34.930761 72.746174 
L 37.224959 66.775096 
L 38.372058 63.598464 
L 39.519157 59.131837 
L 40.666257 56.611057 
L 41.813355 54.814235 
L 42.960454 54.046082 
L 44.107553 54.451492 
L 45.254653 56.096261 
L 46.401752 58.860588 
L 47.548851 62.505154 
L 52.137247 78.809357 
L 53.284346 81.834213 
L 54.431445 84.267372 
L 55.578544 86.132635 
L 56.725645 87.508665 
L 57.872743 88.496437 
L 59.019842 89.16915 
L 60.166941 89.596705 
L 61.31404 89.837927 
L 62.461139 89.933984 
L 63.608238 89.900401 
L 64.755339 89.723922 
L 65.902436 89.40105 
L 67.049536 88.95355 
L 68.196633 88.372031 
L 69.343734 87.66325 
L 70.490835 86.786701 
L 71.637932 85.718611 
L 72.785033 84.461304 
L 76.226327 80.116706 
L 77.373428 78.023136 
L 78.520525 75.484453 
L 79.667626 72.647193 
L 80.814727 68.990203 
L 83.108924 65.00053 
L 84.256021 61.12673 
L 85.403122 57.865154 
L 86.550219 55.781499 
L 88.844421 55.339603 
L 91.138618 56.782824 
L 92.285715 59.491212 
L 93.432816 63.388752 
L 95.727014 72.848062 
L 98.021215 80.511955 
L 99.168309 83.579258 
L 100.315409 85.945457 
L 101.46251 87.724271 
L 102.609611 89.024384 
L 103.756704 89.846833 
L 107.198006 90.455238 
L 108.345107 90.33154 
L 109.492201 89.990148 
L 112.933503 88.646608 
L 114.080596 87.941546 
L 116.374797 86.10957 
L 118.668999 83.751022 
L 120.963193 80.767957 
L 122.110294 78.999381 
L 123.257394 76.916795 
L 124.404488 74.536101 
L 126.698689 68.863541 
L 130.139984 59.738389 
L 131.287085 57.315694 
L 132.434186 55.545916 
L 133.581286 54.64007 
L 134.728387 54.653161 
L 135.87548 55.685339 
L 137.022581 57.847897 
L 138.169682 60.982353 
L 140.463876 69.036714 
L 142.758077 77.308051 
L 143.905178 80.807211 
L 145.052279 83.685007 
L 146.199372 85.848635 
L 147.346473 87.352346 
L 148.493574 88.349554 
L 149.640674 89.021258 
L 150.787768 89.450418 
L 151.934868 89.679774 
L 153.081969 89.73407 
L 154.22907 89.665012 
L 156.523264 89.174036 
L 157.670372 88.779816 
L 158.817465 88.250021 
L 159.964559 87.584974 
L 161.111667 86.756907 
L 162.25876 85.789959 
L 163.405868 84.656562 
L 164.552962 83.304929 
L 165.700055 81.713479 
L 167.994256 77.948324 
L 169.14135 75.822288 
L 171.435551 70.81926 
L 174.876846 62.351223 
L 176.023954 59.882962 
L 177.171048 57.837887 
L 178.318155 56.486276 
L 179.465249 56.102864 
L 180.612342 56.786938 
L 181.75945 58.467458 
L 182.906544 60.980501 
L 184.053652 64.21734 
L 188.64204 79.021534 
L 189.789148 81.968049 
L 190.936241 84.400946 
L 192.083335 86.303865 
L 193.230443 87.670468 
L 194.377536 88.581684 
L 195.52463 89.160121 
L 196.671738 89.503016 
L 197.818831 89.609028 
L 198.965939 89.527288 
L 201.260126 89.000504 
L 203.554327 88.071588 
L 205.848529 86.716438 
L 206.995622 85.86101 
L 208.14273 84.837798 
L 209.289824 83.608162 
L 210.436932 82.163218 
L 211.584025 80.534778 
L 212.731118 78.671381 
L 213.878226 76.521893 
L 216.172413 71.488007 
L 219.613723 63.517111 
L 220.760816 61.215757 
L 221.90791 59.321514 
L 223.055017 58.004869 
L 224.202111 57.442693 
L 225.349219 57.689213 
L 226.496312 58.747438 
L 227.643406 60.613354 
L 228.790514 63.196793 
L 229.937607 66.330849 
L 233.378902 76.827306 
L 234.52601 79.870429 
L 235.673103 82.462332 
L 236.820211 84.575897 
L 237.967305 86.215303 
L 239.114398 87.422023 
L 240.261506 88.27378 
L 241.4086 88.829555 
L 242.555693 89.151604 
L 243.702801 89.300025 
L 244.849894 89.297293 
L 245.997002 89.12842 
L 247.144096 88.801819 
L 248.291189 88.326099 
L 249.438297 87.702113 
L 250.585391 86.932268 
L 252.879592 84.948245 
L 254.026686 83.756869 
L 255.173794 83.098233 
L 256.320887 81.648753 
L 257.467995 80.011906 
L 258.615088 78.174381 
L 260.90929 73.844051 
L 260.90929 73.844051 
" clip-path="url(#pabe5fac4b3)" style="fill: none; stroke: #2e8b57; stroke-width: 1.5; stroke-linecap: square"/>
   </g>
   <g id="line2d_9">
    <path d="M 32.636563 87.728365 
L 33.783662 87.609837 
L 34.930761 87.360672 
L 36.07786 86.897786 
L 37.224959 86.138094 
L 38.372058 84.998512 
L 40.666257 79.737992 
L 41.813355 76.404854 
L 42.960454 72.296763 
L 45.254653 62.495348 
L 47.548851 52.804304 
L 48.695951 48.992609 
L 49.843049 46.379658 
L 50.990148 45.148869 
L 52.137247 45.261189 
L 53.284346 46.535111 
L 54.431445 48.800045 
L 55.578544 51.762882 
L 57.872743 58.677846 
L 60.166941 65.582635 
L 62.461139 71.575726 
L 63.608238 74.107111 
L 64.755339 76.301864 
L 67.049536 79.928881 
L 68.196633 81.432379 
L 70.490835 83.919004 
L 72.785033 85.877316 
L 73.93213 86.622828 
L 75.07923 87.175557 
L 76.226327 87.555418 
L 77.373428 87.773128 
L 78.520525 87.806095 
L 79.667626 87.646258 
L 80.814727 87.181957 
L 81.692078 86.640363 
L 83.108924 85.526477 
L 84.256021 84.354532 
L 85.403122 82.533247 
L 86.550219 79.966293 
L 87.355378 76.623996 
L 88.844421 72.499309 
L 89.407449 67.737788 
L 91.138618 62.573223 
L 93.432816 52.712525 
L 94.579913 49.062727 
L 95.727014 46.480973 
L 96.874115 45.68706 
L 98.021215 46.210862 
L 99.168309 47.605009 
L 100.315409 50.048416 
L 101.46251 53.169302 
L 103.756704 60.383915 
L 104.184263 63.948753 
L 106.050906 67.324172 
L 108.345107 73.215228 
L 109.492201 75.734842 
L 110.639301 77.96272 
L 112.933503 81.101022 
L 115.227697 83.653136 
L 116.374797 84.649727 
L 118.668999 86.182182 
L 119.816092 86.724608 
L 122.110294 87.436342 
L 123.257394 87.591437 
L 124.404488 87.571635 
L 125.551589 87.351645 
L 126.698689 86.861006 
L 127.84579 86.025467 
L 128.992891 84.751226 
L 130.139984 82.967614 
L 131.287085 80.628383 
L 132.434186 77.637453 
L 133.581286 74.011543 
L 134.728387 69.817653 
L 138.169682 55.759764 
L 139.316782 51.744433 
L 140.463876 48.672454 
L 141.610977 46.815081 
L 142.758077 46.301074 
L 143.905178 47.114775 
L 145.052279 49.055089 
L 146.199372 51.884852 
L 148.493574 58.76135 
L 150.787768 65.603235 
L 153.081969 71.509573 
L 155.376171 76.340836 
L 157.670372 80.169843 
L 158.817465 81.792191 
L 159.964559 83.192055 
L 161.111667 84.397777 
L 162.25876 85.39442 
L 163.405868 86.188334 
L 164.552962 86.809857 
L 165.700055 87.237681 
L 166.847163 87.492656 
L 167.994256 87.605292 
L 169.14135 87.574724 
L 170.288458 87.37279 
L 171.435551 86.937509 
L 172.582659 86.203478 
L 173.729753 85.11311 
L 174.876846 83.569095 
L 176.023954 81.468724 
L 177.171048 78.762299 
L 178.318155 75.420514 
L 179.465249 71.506773 
L 184.053652 54.205985 
L 185.200745 50.865551 
L 186.347839 48.520328 
L 187.494947 47.322134 
L 188.64204 47.347934 
L 189.789148 48.528338 
L 190.936241 50.653765 
L 192.083335 53.477243 
L 194.377536 60.223848 
L 196.671738 67.005553 
L 198.965939 72.812933 
L 201.260126 77.50263 
L 202.407234 79.453941 
L 203.554327 81.139741 
L 204.701435 82.594806 
L 205.848529 83.832392 
L 206.995622 84.866443 
L 208.14273 85.729466 
L 209.289824 86.409931 
L 210.436932 86.910695 
L 211.584025 87.245212 
L 212.731118 87.415307 
L 213.878226 87.379609 
L 215.02532 87.140411 
L 216.172413 86.670535 
L 217.319521 85.944627 
L 218.466615 84.933137 
L 219.613723 83.591678 
L 220.760816 81.814823 
L 221.90791 79.540807 
L 223.055017 76.670968 
L 224.202111 73.209801 
L 226.496312 64.958271 
L 228.790514 56.652138 
L 229.937607 53.180881 
L 231.084715 50.530873 
L 232.231809 48.910005 
L 233.378902 48.393252 
L 234.52601 48.925916 
L 235.673103 50.380898 
L 236.820211 52.582629 
L 237.967305 55.359271 
L 243.702801 71.228131 
L 244.849894 73.876512 
L 245.997002 76.236782 
L 247.144096 78.300106 
L 248.291189 80.093853 
L 249.438297 81.622225 
L 250.585391 82.933642 
L 251.732499 84.020825 
L 252.879592 84.90332 
L 254.026686 85.617267 
L 255.173794 85.926813 
L 256.320887 86.425038 
L 257.467995 86.764802 
L 258.615088 86.949338 
L 259.762182 86.981881 
L 260.90929 86.865666 
L 260.90929 86.865666 
" clip-path="url(#pabe5fac4b3)" style="fill: none; stroke: #b22222; stroke-width: 1.5; stroke-linecap: square"/>
   </g>
   <g id="patch_3">
    <path d="M 32.636563 98.296312 
L 32.636563 15.136313 
" style="fill: none; stroke: #000000; stroke-width: 1.5; stroke-linejoin: miter; stroke-linecap: square"/>
   </g>
   <g id="patch_4">
    <path d="M 32.636563 98.296312 
L 260.90929 98.296312 
" style="fill: none; stroke: #000000; stroke-width: 1.5; stroke-linejoin: miter; stroke-linecap: square"/>
   </g>
   <g id="legend_1">
    <g id="line2d_10">
     <path d="M 97.804744 14.488594 
L 106.804744 14.488594 
L 115.804744 14.488594 
" style="fill: none; stroke: #2e8b57; stroke-width: 1.5; stroke-linecap: square"/>
    </g>
    <g id="text_7">
     <text style="font: 9px 'Arial', sans-serif; text-anchor: start" x="123.004744" y="17.638594" transform="rotate(-0 123.004744 17.638594)">Prey</text>
    </g>
    <g id="line2d_11">
     <path d="M 160.635994 14.488594 
L 169.635994 14.488594 
L 178.635994 14.488594 
" style="fill: none; stroke: #b22222; stroke-width: 1.5; stroke-linecap: square"/>
    </g>
    <g id="text_8">
     <text style="font: 9px 'Arial', sans-serif; text-anchor: start" x="185.835994" y="17.638594" transform="rotate(-0 185.835994 17.638594)">Predator</text>
    </g>
   </g>
  </g>
  <g id="axes_2">
   <g id="patch_5">
    <path d="M 291.345653 33.214573 
L 367.436562 33.214573 
L 367.436562 15.136313 
L 291.345653 15.136313 
L 291.345653 33.214573 
z
" style="fill: none"/>
   </g>
   <g id="PolyCollection_3">
    <defs>
     <path id="ma43b3c21c4" d="M 330.685341 -87.993268 
L 330.685341 -87.992052 
L 330.82222 -87.992052 
L 330.959099 -87.992052 
L 331.095978 -87.992052 
L 331.232857 -87.992052 
L 331.369736 -87.992052 
L 331.506615 -87.992052 
L 331.643494 -87.992052 
L 331.780373 -87.992052 
L 331.917252 -87.992052 
L 332.054131 -87.992052 
L 332.19101 -87.992052 
L 332.327889 -87.992052 
L 332.464768 -87.992052 
L 332.601647 -87.992052 
L 332.738526 -87.992052 
L 332.875405 -87.992052 
L 333.012284 -87.992052 
L 333.149163 -87.992052 
L 333.286042 -87.992052 
L 333.422921 -87.992052 
L 333.5598 -87.992052 
L 333.696679 -87.992052 
L 333.833558 -87.992052 
L 333.970436 -87.992052 
L 334.107315 -87.992052 
L 334.244194 -87.992052 
L 334.381073 -87.992052 
L 334.517952 -87.992052 
L 334.654831 -87.992052 
L 334.79171 -87.992052 
L 334.928589 -87.992052 
L 335.065468 -87.992052 
L 335.202347 -87.992052 
L 335.339226 -87.992052 
L 335.476105 -87.992052 
L 335.612984 -87.992052 
L 335.749863 -87.992052 
L 335.886742 -87.992052 
L 336.023621 -87.992052 
L 336.1605 -87.992052 
L 336.297379 -87.992052 
L 336.434258 -87.992052 
L 336.571137 -87.992052 
L 336.708016 -87.992052 
L 336.844895 -87.992052 
L 336.981774 -87.992052 
L 337.118653 -87.992052 
L 337.255532 -87.992052 
L 337.392411 -87.992052 
L 337.52929 -87.992052 
L 337.666169 -87.992052 
L 337.803048 -87.992052 
L 337.939927 -87.992052 
L 338.076806 -87.992052 
L 338.213685 -87.992052 
L 338.350564 -87.992052 
L 338.487443 -87.992052 
L 338.624322 -87.992052 
L 338.761201 -87.992052 
L 338.89808 -87.992052 
L 339.034959 -87.992052 
L 339.171838 -87.992052 
L 339.308717 -87.992052 
L 339.445596 -87.992052 
L 339.582475 -87.992052 
L 339.719354 -87.992052 
L 339.856233 -87.992052 
L 339.993111 -87.992052 
L 340.12999 -87.992052 
L 340.266869 -87.992052 
L 340.403748 -87.992052 
L 340.540627 -87.992052 
L 340.677506 -87.992052 
L 340.814385 -87.992052 
L 340.951264 -87.992052 
L 341.088143 -87.992052 
L 341.225022 -87.992052 
L 341.361901 -87.992052 
L 341.49878 -87.992052 
L 341.635659 -87.992052 
L 341.772538 -87.992052 
L 341.909417 -87.992052 
L 342.046296 -87.992052 
L 342.183175 -87.992052 
L 342.320054 -87.992052 
L 342.456933 -87.992052 
L 342.593812 -87.992052 
L 342.730691 -87.992052 
L 342.86757 -87.992052 
L 343.004449 -87.992052 
L 343.141328 -87.992052 
L 343.278207 -87.992052 
L 343.415086 -87.992052 
L 343.551965 -87.992052 
L 343.688844 -87.992052 
L 343.825723 -87.992052 
L 343.962602 -87.992052 
L 344.099481 -87.992052 
L 344.23636 -87.992052 
L 344.373239 -87.992052 
L 344.510118 -87.992052 
L 344.646997 -87.992052 
L 344.783876 -87.992052 
L 344.920755 -87.992052 
L 345.057634 -87.992052 
L 345.194513 -87.992052 
L 345.331392 -87.992052 
L 345.468271 -87.992052 
L 345.60515 -87.992052 
L 345.742029 -87.992052 
L 345.878908 -87.992052 
L 346.015786 -87.992052 
L 346.152665 -87.992052 
L 346.289544 -87.992052 
L 346.426423 -87.992052 
L 346.563302 -87.992052 
L 346.700181 -87.992052 
L 346.83706 -87.992052 
L 346.973939 -87.992052 
L 347.110818 -87.992052 
L 347.247697 -87.992052 
L 347.384576 -87.992052 
L 347.521455 -87.992052 
L 347.658334 -87.992052 
L 347.795213 -87.992052 
L 347.932092 -87.992052 
L 348.068971 -87.992052 
L 348.20585 -87.992052 
L 348.342729 -87.992052 
L 348.479608 -87.992052 
L 348.616487 -87.992052 
L 348.753366 -87.992052 
L 348.890245 -87.992052 
L 349.027124 -87.992052 
L 349.164003 -87.992052 
L 349.300882 -87.992052 
L 349.437761 -87.992052 
L 349.57464 -87.992052 
L 349.711519 -87.992052 
L 349.848398 -87.992052 
L 349.985277 -87.992052 
L 350.122156 -87.992052 
L 350.259035 -87.992052 
L 350.395914 -87.992052 
L 350.532793 -87.992052 
L 350.669672 -87.992052 
L 350.806551 -87.992052 
L 350.94343 -87.992052 
L 351.080309 -87.992052 
L 351.217188 -87.992052 
L 351.354067 -87.992052 
L 351.490946 -87.992052 
L 351.627825 -87.992052 
L 351.764704 -87.992052 
L 351.901583 -87.992052 
L 352.038461 -87.992052 
L 352.17534 -87.992052 
L 352.312219 -87.992052 
L 352.449098 -87.992052 
L 352.585977 -87.992052 
L 352.722856 -87.992052 
L 352.859735 -87.992052 
L 352.996614 -87.992052 
L 353.133493 -87.992052 
L 353.270372 -87.992052 
L 353.407251 -87.992052 
L 353.54413 -87.992052 
L 353.681009 -87.992052 
L 353.817888 -87.992052 
L 353.954767 -87.992052 
L 354.091646 -87.992052 
L 354.228525 -87.992052 
L 354.365404 -87.992052 
L 354.502283 -87.992052 
L 354.639162 -87.992052 
L 354.776041 -87.992052 
L 354.91292 -87.992052 
L 355.049799 -87.992052 
L 355.186678 -87.992052 
L 355.323557 -87.992052 
L 355.460436 -87.992052 
L 355.597315 -87.992052 
L 355.734194 -87.992052 
L 355.871073 -87.992052 
L 356.007952 -87.992052 
L 356.144831 -87.992052 
L 356.28171 -87.992052 
L 356.418589 -87.992052 
L 356.555468 -87.992052 
L 356.692347 -87.992052 
L 356.829226 -87.992052 
L 356.966105 -87.992052 
L 357.102984 -87.992052 
L 357.239863 -87.992052 
L 357.376742 -87.992052 
L 357.513621 -87.992052 
L 357.6505 -87.992052 
L 357.787379 -87.992052 
L 357.924258 -87.992052 
L 357.924258 -87.992753 
L 357.924258 -87.992753 
L 357.787379 -87.993165 
L 357.6505 -87.993783 
L 357.513621 -87.994689 
L 357.376742 -87.995987 
L 357.239863 -87.997807 
L 357.102984 -88.000301 
L 356.966105 -88.003645 
L 356.829226 -88.008031 
L 356.692347 -88.013657 
L 356.555468 -88.020717 
L 356.418589 -88.029385 
L 356.28171 -88.039797 
L 356.144831 -88.052035 
L 356.007952 -88.066114 
L 355.871073 -88.081969 
L 355.734194 -88.099457 
L 355.597315 -88.118364 
L 355.460436 -88.138422 
L 355.323557 -88.159341 
L 355.186678 -88.180844 
L 355.049799 -88.202712 
L 354.91292 -88.224824 
L 354.776041 -88.247192 
L 354.639162 -88.269982 
L 354.502283 -88.293523 
L 354.365404 -88.31828 
L 354.228525 -88.344822 
L 354.091646 -88.373761 
L 353.954767 -88.405684 
L 353.817888 -88.441082 
L 353.681009 -88.48029 
L 353.54413 -88.523447 
L 353.407251 -88.57049 
L 353.270372 -88.621174 
L 353.133493 -88.675133 
L 352.996614 -88.731961 
L 352.859735 -88.791315 
L 352.722856 -88.853011 
L 352.585977 -88.917099 
L 352.449098 -88.983918 
L 352.312219 -89.054098 
L 352.17534 -89.128523 
L 352.038461 -89.208256 
L 351.901583 -89.294433 
L 351.764704 -89.388149 
L 351.627825 -89.490354 
L 351.490946 -89.601772 
L 351.354067 -89.722857 
L 351.217188 -89.853798 
L 351.080309 -89.994558 
L 350.94343 -90.144958 
L 350.806551 -90.304765 
L 350.669672 -90.473792 
L 350.532793 -90.65197 
L 350.395914 -90.839386 
L 350.259035 -91.036278 
L 350.122156 -91.242972 
L 349.985277 -91.459776 
L 349.848398 -91.686834 
L 349.711519 -91.923972 
L 349.57464 -92.17055 
L 349.437761 -92.425353 
L 349.300882 -92.686546 
L 349.164003 -92.951703 
L 349.027124 -93.217922 
L 348.890245 -93.48201 
L 348.753366 -93.740729 
L 348.616487 -93.991053 
L 348.479608 -94.230415 
L 348.342729 -94.456912 
L 348.20585 -94.669433 
L 348.068971 -94.867714 
L 347.932092 -95.052321 
L 347.795213 -95.224583 
L 347.658334 -95.386492 
L 347.521455 -95.540607 
L 347.384576 -95.689954 
L 347.247697 -95.837945 
L 347.110818 -95.988273 
L 346.973939 -96.14478 
L 346.83706 -96.311269 
L 346.700181 -96.491246 
L 346.563302 -96.687601 
L 346.426423 -96.902273 
L 346.289544 -97.135924 
L 346.152665 -97.387711 
L 346.015786 -97.655184 
L 345.878908 -97.934374 
L 345.742029 -98.220054 
L 345.60515 -98.506172 
L 345.468271 -98.786384 
L 345.331392 -99.054624 
L 345.194513 -99.305626 
L 345.057634 -99.535326 
L 344.920755 -99.741099 
L 344.783876 -99.921803 
L 344.646997 -100.077647 
L 344.510118 -100.209912 
L 344.373239 -100.320577 
L 344.23636 -100.411912 
L 344.099481 -100.486088 
L 343.962602 -100.544856 
L 343.825723 -100.589318 
L 343.688844 -100.619822 
L 343.551965 -100.635975 
L 343.415086 -100.636768 
L 343.278207 -100.620798 
L 343.141328 -100.586558 
L 343.004449 -100.532756 
L 342.86757 -100.458626 
L 342.730691 -100.364182 
L 342.593812 -100.250385 
L 342.456933 -100.119185 
L 342.320054 -99.973423 
L 342.183175 -99.816604 
L 342.046296 -99.652555 
L 341.909417 -99.485011 
L 341.772538 -99.317174 
L 341.635659 -99.151312 
L 341.49878 -98.98844 
L 341.361901 -98.828135 
L 341.225022 -98.668504 
L 341.088143 -98.506325 
L 340.951264 -98.337338 
L 340.814385 -98.156676 
L 340.677506 -97.959361 
L 340.540627 -97.74085 
L 340.403748 -97.497533 
L 340.266869 -97.227156 
L 340.12999 -96.929108 
L 339.993111 -96.604535 
L 339.856233 -96.256281 
L 339.719354 -95.888644 
L 339.582475 -95.506996 
L 339.445596 -95.117291 
L 339.308717 -94.725547 
L 339.171838 -94.337339 
L 339.034959 -93.95739 
L 338.89808 -93.589286 
L 338.761201 -93.235358 
L 338.624322 -92.896729 
L 338.487443 -92.573497 
L 338.350564 -92.265035 
L 338.213685 -91.970327 
L 338.076806 -91.688305 
L 337.939927 -91.418123 
L 337.803048 -91.159341 
L 337.666169 -90.911995 
L 337.52929 -90.676559 
L 337.392411 -90.453825 
L 337.255532 -90.244726 
L 337.118653 -90.05015 
L 336.981774 -89.870767 
L 336.844895 -89.706906 
L 336.708016 -89.558486 
L 336.571137 -89.425008 
L 336.434258 -89.305596 
L 336.297379 -89.199084 
L 336.1605 -89.104106 
L 336.023621 -89.019208 
L 335.886742 -88.942943 
L 335.749863 -88.873953 
L 335.612984 -88.811034 
L 335.476105 -88.753173 
L 335.339226 -88.69957 
L 335.202347 -88.649635 
L 335.065468 -88.602965 
L 334.928589 -88.559307 
L 334.79171 -88.518509 
L 334.654831 -88.480466 
L 334.517952 -88.445068 
L 334.381073 -88.412162 
L 334.244194 -88.381527 
L 334.107315 -88.35287 
L 333.970436 -88.325841 
L 333.833558 -88.300068 
L 333.696679 -88.275195 
L 333.5598 -88.250925 
L 333.422921 -88.227058 
L 333.286042 -88.203514 
L 333.149163 -88.180335 
L 333.012284 -88.157679 
L 332.875405 -88.135787 
L 332.738526 -88.114953 
L 332.601647 -88.095475 
L 332.464768 -88.077623 
L 332.327889 -88.061608 
L 332.19101 -88.047557 
L 332.054131 -88.035508 
L 331.917252 -88.025417 
L 331.780373 -88.017162 
L 331.643494 -88.010569 
L 331.506615 -88.005428 
L 331.369736 -88.001515 
L 331.232857 -87.998606 
L 331.095978 -87.996496 
L 330.959099 -87.995 
L 330.82222 -87.993966 
L 330.685341 -87.993268 
z
" style="stroke: #000080"/>
    </defs>
    <g clip-path="url(#p1cfcff0392)">
     <use xlink:href="#ma43b3c21c4" x="0" y="121.206625" style="fill: #000080; fill-opacity: 0.25; stroke: #000080"/>
    </g>
   </g>
   <g id="matplotlib.axis_3"/>
   <g id="matplotlib.axis_4">
    <g id="text_9">
     <!-- $\theta_1$ -->
     <g transform="translate(285.473935 29.125443) rotate(-90)">
      <text>
       <tspan style="font: 9px 'DejaVu Sans'" x="0" y="-0.09375">θ</tspan>
       <tspan style="font: 6.3px 'DejaVu Sans'" x="5.59248" y="1.3828125">1</tspan>
      </text>
     </g>
    </g>
   </g>
   <g id="LineCollection_1">
    <path d="M 342.885455 33.214573 
L 342.885455 15.997182 
" clip-path="url(#p1cfcff0392)" style="fill: none; stroke: #000080; stroke-width: 1.5"/>
   </g>
   <g id="patch_6">
    <path d="M 291.345653 33.214573 
L 291.345653 15.136313 
" style="fill: none; stroke: #000000; stroke-width: 1.5; stroke-linejoin: miter; stroke-linecap: square"/>
   </g>
   <g id="patch_7">
    <path d="M 291.345653 33.214573 
L 367.436562 33.214573 
" style="fill: none; stroke: #000000; stroke-width: 1.5; stroke-linejoin: miter; stroke-linecap: square"/>
   </g>
  </g>
  <g id="axes_3">
   <g id="patch_8">
    <path d="M 291.345653 54.908486 
L 367.436562 54.908486 
L 367.436562 36.830226 
L 291.345653 36.830226 
L 291.345653 54.908486 
z
" style="fill: none"/>
   </g>
   <g id="PolyCollection_4">
    <defs>
     <path id="m967c1459d4" d="M 305.9377 -66.298522 
L 305.9377 -66.298139 
L 306.156737 -66.298139 
L 306.375774 -66.298139 
L 306.594812 -66.298139 
L 306.813849 -66.298139 
L 307.032887 -66.298139 
L 307.251924 -66.298139 
L 307.470962 -66.298139 
L 307.689999 -66.298139 
L 307.909037 -66.298139 
L 308.128074 -66.298139 
L 308.347111 -66.298139 
L 308.566149 -66.298139 
L 308.785186 -66.298139 
L 309.004224 -66.298139 
L 309.223261 -66.298139 
L 309.442299 -66.298139 
L 309.661336 -66.298139 
L 309.880374 -66.298139 
L 310.099411 -66.298139 
L 310.318448 -66.298139 
L 310.537486 -66.298139 
L 310.756523 -66.298139 
L 310.975561 -66.298139 
L 311.194598 -66.298139 
L 311.413636 -66.298139 
L 311.632673 -66.298139 
L 311.85171 -66.298139 
L 312.070748 -66.298139 
L 312.289785 -66.298139 
L 312.508823 -66.298139 
L 312.72786 -66.298139 
L 312.946898 -66.298139 
L 313.165935 -66.298139 
L 313.384973 -66.298139 
L 313.60401 -66.298139 
L 313.823047 -66.298139 
L 314.042085 -66.298139 
L 314.261122 -66.298139 
L 314.48016 -66.298139 
L 314.699197 -66.298139 
L 314.918235 -66.298139 
L 315.137272 -66.298139 
L 315.356309 -66.298139 
L 315.575347 -66.298139 
L 315.794384 -66.298139 
L 316.013422 -66.298139 
L 316.232459 -66.298139 
L 316.451497 -66.298139 
L 316.670534 -66.298139 
L 316.889572 -66.298139 
L 317.108609 -66.298139 
L 317.327646 -66.298139 
L 317.546684 -66.298139 
L 317.765721 -66.298139 
L 317.984759 -66.298139 
L 318.203796 -66.298139 
L 318.422834 -66.298139 
L 318.641871 -66.298139 
L 318.860908 -66.298139 
L 319.079946 -66.298139 
L 319.298983 -66.298139 
L 319.518021 -66.298139 
L 319.737058 -66.298139 
L 319.956096 -66.298139 
L 320.175133 -66.298139 
L 320.394171 -66.298139 
L 320.613208 -66.298139 
L 320.832245 -66.298139 
L 321.051283 -66.298139 
L 321.27032 -66.298139 
L 321.489358 -66.298139 
L 321.708395 -66.298139 
L 321.927433 -66.298139 
L 322.14647 -66.298139 
L 322.365507 -66.298139 
L 322.584545 -66.298139 
L 322.803582 -66.298139 
L 323.02262 -66.298139 
L 323.241657 -66.298139 
L 323.460695 -66.298139 
L 323.679732 -66.298139 
L 323.89877 -66.298139 
L 324.117807 -66.298139 
L 324.336844 -66.298139 
L 324.555882 -66.298139 
L 324.774919 -66.298139 
L 324.993957 -66.298139 
L 325.212994 -66.298139 
L 325.432032 -66.298139 
L 325.651069 -66.298139 
L 325.870106 -66.298139 
L 326.089144 -66.298139 
L 326.308181 -66.298139 
L 326.527219 -66.298139 
L 326.746256 -66.298139 
L 326.965294 -66.298139 
L 327.184331 -66.298139 
L 327.403369 -66.298139 
L 327.622406 -66.298139 
L 327.841443 -66.298139 
L 328.060481 -66.298139 
L 328.279518 -66.298139 
L 328.498556 -66.298139 
L 328.717593 -66.298139 
L 328.936631 -66.298139 
L 329.155668 -66.298139 
L 329.374705 -66.298139 
L 329.593743 -66.298139 
L 329.81278 -66.298139 
L 330.031818 -66.298139 
L 330.250855 -66.298139 
L 330.469893 -66.298139 
L 330.68893 -66.298139 
L 330.907968 -66.298139 
L 331.127005 -66.298139 
L 331.346042 -66.298139 
L 331.56508 -66.298139 
L 331.784117 -66.298139 
L 332.003155 -66.298139 
L 332.222192 -66.298139 
L 332.44123 -66.298139 
L 332.660267 -66.298139 
L 332.879305 -66.298139 
L 333.098342 -66.298139 
L 333.317379 -66.298139 
L 333.536417 -66.298139 
L 333.755454 -66.298139 
L 333.974492 -66.298139 
L 334.193529 -66.298139 
L 334.412567 -66.298139 
L 334.631604 -66.298139 
L 334.850641 -66.298139 
L 335.069679 -66.298139 
L 335.288716 -66.298139 
L 335.507754 -66.298139 
L 335.726791 -66.298139 
L 335.945829 -66.298139 
L 336.164866 -66.298139 
L 336.383904 -66.298139 
L 336.602941 -66.298139 
L 336.821978 -66.298139 
L 337.041016 -66.298139 
L 337.260053 -66.298139 
L 337.479091 -66.298139 
L 337.698128 -66.298139 
L 337.917166 -66.298139 
L 338.136203 -66.298139 
L 338.35524 -66.298139 
L 338.574278 -66.298139 
L 338.793315 -66.298139 
L 339.012353 -66.298139 
L 339.23139 -66.298139 
L 339.450428 -66.298139 
L 339.669465 -66.298139 
L 339.888503 -66.298139 
L 340.10754 -66.298139 
L 340.326577 -66.298139 
L 340.545615 -66.298139 
L 340.764652 -66.298139 
L 340.98369 -66.298139 
L 341.202727 -66.298139 
L 341.421765 -66.298139 
L 341.640802 -66.298139 
L 341.859839 -66.298139 
L 342.078877 -66.298139 
L 342.297914 -66.298139 
L 342.516952 -66.298139 
L 342.735989 -66.298139 
L 342.955027 -66.298139 
L 343.174064 -66.298139 
L 343.393102 -66.298139 
L 343.612139 -66.298139 
L 343.831176 -66.298139 
L 344.050214 -66.298139 
L 344.269251 -66.298139 
L 344.488289 -66.298139 
L 344.707326 -66.298139 
L 344.926364 -66.298139 
L 345.145401 -66.298139 
L 345.364438 -66.298139 
L 345.583476 -66.298139 
L 345.802513 -66.298139 
L 346.021551 -66.298139 
L 346.240588 -66.298139 
L 346.459626 -66.298139 
L 346.678663 -66.298139 
L 346.897701 -66.298139 
L 347.116738 -66.298139 
L 347.335775 -66.298139 
L 347.554813 -66.298139 
L 347.77385 -66.298139 
L 347.992888 -66.298139 
L 348.211925 -66.298139 
L 348.430963 -66.298139 
L 348.65 -66.298139 
L 348.869037 -66.298139 
L 349.088075 -66.298139 
L 349.307112 -66.298139 
L 349.52615 -66.298139 
L 349.52615 -66.298617 
L 349.52615 -66.298617 
L 349.307112 -66.298917 
L 349.088075 -66.299373 
L 348.869037 -66.300054 
L 348.65 -66.301041 
L 348.430963 -66.302439 
L 348.211925 -66.304367 
L 347.992888 -66.306959 
L 347.77385 -66.310355 
L 347.554813 -66.314689 
L 347.335775 -66.320078 
L 347.116738 -66.326603 
L 346.897701 -66.334293 
L 346.678663 -66.343114 
L 346.459626 -66.352954 
L 346.240588 -66.363629 
L 346.021551 -66.37488 
L 345.802513 -66.386398 
L 345.583476 -66.397847 
L 345.364438 -66.408894 
L 345.145401 -66.419246 
L 344.926364 -66.428679 
L 344.707326 -66.437066 
L 344.488289 -66.44439 
L 344.269251 -66.450743 
L 344.050214 -66.456321 
L 343.831176 -66.461403 
L 343.612139 -66.466324 
L 343.393102 -66.47146 
L 343.174064 -66.477208 
L 342.955027 -66.483982 
L 342.735989 -66.492215 
L 342.516952 -66.502376 
L 342.297914 -66.514977 
L 342.078877 -66.530579 
L 341.859839 -66.549787 
L 341.640802 -66.57322 
L 341.421765 -66.601463 
L 341.202727 -66.635 
L 340.98369 -66.674146 
L 340.764652 -66.718976 
L 340.545615 -66.769283 
L 340.326577 -66.824559 
L 340.10754 -66.884025 
L 339.888503 -66.946695 
L 339.669465 -67.011483 
L 339.450428 -67.077319 
L 339.23139 -67.143277 
L 339.012353 -67.208682 
L 338.793315 -67.273189 
L 338.574278 -67.336814 
L 338.35524 -67.399925 
L 338.136203 -67.463195 
L 337.917166 -67.527522 
L 337.698128 -67.593941 
L 337.479091 -67.663532 
L 337.260053 -67.737339 
L 337.041016 -67.816319 
L 336.821978 -67.901302 
L 336.602941 -67.992988 
L 336.383904 -68.091948 
L 336.164866 -68.198652 
L 335.945829 -68.31349 
L 335.726791 -68.436788 
L 335.507754 -68.56881 
L 335.288716 -68.709742 
L 335.069679 -68.859647 
L 334.850641 -69.018402 
L 334.631604 -69.185628 
L 334.412567 -69.360615 
L 334.193529 -69.542275 
L 333.974492 -69.729113 
L 333.755454 -69.919266 
L 333.536417 -70.11057 
L 333.317379 -70.300691 
L 333.098342 -70.487284 
L 332.879305 -70.668182 
L 332.660267 -70.841574 
L 332.44123 -71.006173 
L 332.222192 -71.161343 
L 332.003155 -71.307161 
L 331.784117 -71.444425 
L 331.56508 -71.574577 
L 331.346042 -71.699576 
L 331.127005 -71.821698 
L 330.907968 -71.943318 
L 330.68893 -72.066675 
L 330.469893 -72.193664 
L 330.250855 -72.325667 
L 330.031818 -72.463457 
L 329.81278 -72.607172 
L 329.593743 -72.756356 
L 329.374705 -72.910053 
L 329.155668 -73.066929 
L 328.936631 -73.225387 
L 328.717593 -73.383679 
L 328.498556 -73.539972 
L 328.279518 -73.692396 
L 328.060481 -73.839078 
L 327.841443 -73.978175 
L 327.622406 -74.107936 
L 327.403369 -74.226785 
L 327.184331 -74.333428 
L 326.965294 -74.426961 
L 326.746256 -74.506948 
L 326.527219 -74.573445 
L 326.308181 -74.626929 
L 326.089144 -74.668164 
L 325.870106 -74.697983 
L 325.651069 -74.717064 
L 325.432032 -74.725713 
L 325.212994 -74.723736 
L 324.993957 -74.710409 
L 324.774919 -74.684577 
L 324.555882 -74.64486 
L 324.336844 -74.589917 
L 324.117807 -74.51873 
L 323.89877 -74.430837 
L 323.679732 -74.326459 
L 323.460695 -74.206505 
L 323.241657 -74.072439 
L 323.02262 -73.926044 
L 322.803582 -73.769125 
L 322.584545 -73.603215 
L 322.365507 -73.429345 
L 322.14647 -73.247917 
L 321.927433 -73.05873 
L 321.708395 -72.86113 
L 321.489358 -72.654279 
L 321.27032 -72.437484 
L 321.051283 -72.210522 
L 320.832245 -71.973902 
L 320.613208 -71.72902 
L 320.394171 -71.478157 
L 320.175133 -71.224335 
L 319.956096 -70.971047 
L 319.737058 -70.721894 
L 319.518021 -70.480203 
L 319.298983 -70.248671 
L 319.079946 -70.029094 
L 318.860908 -69.822223 
L 318.641871 -69.627759 
L 318.422834 -69.444486 
L 318.203796 -69.270515 
L 317.984759 -69.103603 
L 317.765721 -68.941497 
L 317.546684 -68.782248 
L 317.327646 -68.624465 
L 317.108609 -68.467457 
L 316.889572 -68.311278 
L 316.670534 -68.156651 
L 316.451497 -68.004816 
L 316.232459 -67.857315 
L 316.013422 -67.715763 
L 315.794384 -67.581639 
L 315.575347 -67.456119 
L 315.356309 -67.339973 
L 315.137272 -67.233533 
L 314.918235 -67.136714 
L 314.699197 -67.049085 
L 314.48016 -66.969966 
L 314.261122 -66.898533 
L 314.042085 -66.833915 
L 313.823047 -66.775277 
L 313.60401 -66.721881 
L 313.384973 -66.673118 
L 313.165935 -66.628528 
L 312.946898 -66.587793 
L 312.72786 -66.550719 
L 312.508823 -66.517202 
L 312.289785 -66.487197 
L 312.070748 -66.46067 
L 311.85171 -66.437567 
L 311.632673 -66.417777 
L 311.413636 -66.401116 
L 311.194598 -66.387314 
L 310.975561 -66.376029 
L 310.756523 -66.36686 
L 310.537486 -66.359377 
L 310.318448 -66.353157 
L 310.099411 -66.347812 
L 309.880374 -66.343019 
L 309.661336 -66.338536 
L 309.442299 -66.334209 
L 309.223261 -66.329965 
L 309.004224 -66.325802 
L 308.785186 -66.321764 
L 308.566149 -66.317927 
L 308.347111 -66.314368 
L 308.128074 -66.311159 
L 307.909037 -66.308347 
L 307.689999 -66.305957 
L 307.470962 -66.303984 
L 307.251924 -66.302404 
L 307.032887 -66.301176 
L 306.813849 -66.300249 
L 306.594812 -66.299569 
L 306.375774 -66.299084 
L 306.156737 -66.298748 
L 305.9377 -66.298522 
z
" style="stroke: #000080"/>
    </defs>
    <g clip-path="url(#pcb571bdc16)">
     <use xlink:href="#m967c1459d4" x="0" y="121.206625" style="fill: #000080; fill-opacity: 0.25; stroke: #000080"/>
    </g>
   </g>
   <g id="matplotlib.axis_5"/>
   <g id="matplotlib.axis_6">
    <g id="text_10">
     <!-- $\theta_2$ -->
     <g transform="translate(285.473935 50.819356) rotate(-90)">
      <text>
       <tspan style="font: 9px 'DejaVu Sans'" x="0" y="-0.09375">θ</tspan>
       <tspan style="font: 6.3px 'DejaVu Sans'" x="5.59248" y="1.3828125">2</tspan>
      </text>
     </g>
    </g>
   </g>
   <g id="LineCollection_2">
    <path d="M 311.165894 54.908486 
L 311.165894 37.691095 
" clip-path="url(#pcb571bdc16)" style="fill: none; stroke: #000080; stroke-width: 1.5"/>
   </g>
   <g id="patch_9">
    <path d="M 291.345653 54.908486 
L 291.345653 36.830226 
" style="fill: none; stroke: #000000; stroke-width: 1.5; stroke-linejoin: miter; stroke-linecap: square"/>
   </g>
   <g id="patch_10">
    <path d="M 291.345653 54.908486 
L 367.436562 54.908486 
" style="fill: none; stroke: #000000; stroke-width: 1.5; stroke-linejoin: miter; stroke-linecap: square"/>
   </g>
  </g>
  <g id="axes_4">
   <g id="patch_11">
    <path d="M 291.345653 76.602399 
L 367.436562 76.602399 
L 367.436562 58.524139 
L 291.345653 58.524139 
L 291.345653 76.602399 
z
" style="fill: none"/>
   </g>
   <g id="PolyCollection_5">
    <defs>
     <path id="m0c4867ea02" d="M 320.066456 -44.604747 
L 320.066456 -44.604226 
L 320.246717 -44.604226 
L 320.426979 -44.604226 
L 320.60724 -44.604226 
L 320.787501 -44.604226 
L 320.967762 -44.604226 
L 321.148024 -44.604226 
L 321.328285 -44.604226 
L 321.508546 -44.604226 
L 321.688807 -44.604226 
L 321.869069 -44.604226 
L 322.04933 -44.604226 
L 322.229591 -44.604226 
L 322.409852 -44.604226 
L 322.590114 -44.604226 
L 322.770375 -44.604226 
L 322.950636 -44.604226 
L 323.130897 -44.604226 
L 323.311159 -44.604226 
L 323.49142 -44.604226 
L 323.671681 -44.604226 
L 323.851943 -44.604226 
L 324.032204 -44.604226 
L 324.212465 -44.604226 
L 324.392726 -44.604226 
L 324.572988 -44.604226 
L 324.753249 -44.604226 
L 324.93351 -44.604226 
L 325.113771 -44.604226 
L 325.294033 -44.604226 
L 325.474294 -44.604226 
L 325.654555 -44.604226 
L 325.834816 -44.604226 
L 326.015078 -44.604226 
L 326.195339 -44.604226 
L 326.3756 -44.604226 
L 326.555861 -44.604226 
L 326.736123 -44.604226 
L 326.916384 -44.604226 
L 327.096645 -44.604226 
L 327.276906 -44.604226 
L 327.457168 -44.604226 
L 327.637429 -44.604226 
L 327.81769 -44.604226 
L 327.997951 -44.604226 
L 328.178213 -44.604226 
L 328.358474 -44.604226 
L 328.538735 -44.604226 
L 328.718996 -44.604226 
L 328.899258 -44.604226 
L 329.079519 -44.604226 
L 329.25978 -44.604226 
L 329.440041 -44.604226 
L 329.620303 -44.604226 
L 329.800564 -44.604226 
L 329.980825 -44.604226 
L 330.161086 -44.604226 
L 330.341348 -44.604226 
L 330.521609 -44.604226 
L 330.70187 -44.604226 
L 330.882131 -44.604226 
L 331.062393 -44.604226 
L 331.242654 -44.604226 
L 331.422915 -44.604226 
L 331.603176 -44.604226 
L 331.783438 -44.604226 
L 331.963699 -44.604226 
L 332.14396 -44.604226 
L 332.324221 -44.604226 
L 332.504483 -44.604226 
L 332.684744 -44.604226 
L 332.865005 -44.604226 
L 333.045267 -44.604226 
L 333.225528 -44.604226 
L 333.405789 -44.604226 
L 333.58605 -44.604226 
L 333.766312 -44.604226 
L 333.946573 -44.604226 
L 334.126834 -44.604226 
L 334.307095 -44.604226 
L 334.487357 -44.604226 
L 334.667618 -44.604226 
L 334.847879 -44.604226 
L 335.02814 -44.604226 
L 335.208402 -44.604226 
L 335.388663 -44.604226 
L 335.568924 -44.604226 
L 335.749185 -44.604226 
L 335.929447 -44.604226 
L 336.109708 -44.604226 
L 336.289969 -44.604226 
L 336.47023 -44.604226 
L 336.650492 -44.604226 
L 336.830753 -44.604226 
L 337.011014 -44.604226 
L 337.191275 -44.604226 
L 337.371537 -44.604226 
L 337.551798 -44.604226 
L 337.732059 -44.604226 
L 337.91232 -44.604226 
L 338.092582 -44.604226 
L 338.272843 -44.604226 
L 338.453104 -44.604226 
L 338.633365 -44.604226 
L 338.813627 -44.604226 
L 338.993888 -44.604226 
L 339.174149 -44.604226 
L 339.35441 -44.604226 
L 339.534672 -44.604226 
L 339.714933 -44.604226 
L 339.895194 -44.604226 
L 340.075455 -44.604226 
L 340.255717 -44.604226 
L 340.435978 -44.604226 
L 340.616239 -44.604226 
L 340.7965 -44.604226 
L 340.976762 -44.604226 
L 341.157023 -44.604226 
L 341.337284 -44.604226 
L 341.517545 -44.604226 
L 341.697807 -44.604226 
L 341.878068 -44.604226 
L 342.058329 -44.604226 
L 342.23859 -44.604226 
L 342.418852 -44.604226 
L 342.599113 -44.604226 
L 342.779374 -44.604226 
L 342.959636 -44.604226 
L 343.139897 -44.604226 
L 343.320158 -44.604226 
L 343.500419 -44.604226 
L 343.680681 -44.604226 
L 343.860942 -44.604226 
L 344.041203 -44.604226 
L 344.221464 -44.604226 
L 344.401726 -44.604226 
L 344.581987 -44.604226 
L 344.762248 -44.604226 
L 344.942509 -44.604226 
L 345.122771 -44.604226 
L 345.303032 -44.604226 
L 345.483293 -44.604226 
L 345.663554 -44.604226 
L 345.843816 -44.604226 
L 346.024077 -44.604226 
L 346.204338 -44.604226 
L 346.384599 -44.604226 
L 346.564861 -44.604226 
L 346.745122 -44.604226 
L 346.925383 -44.604226 
L 347.105644 -44.604226 
L 347.285906 -44.604226 
L 347.466167 -44.604226 
L 347.646428 -44.604226 
L 347.826689 -44.604226 
L 348.006951 -44.604226 
L 348.187212 -44.604226 
L 348.367473 -44.604226 
L 348.547734 -44.604226 
L 348.727996 -44.604226 
L 348.908257 -44.604226 
L 349.088518 -44.604226 
L 349.268779 -44.604226 
L 349.449041 -44.604226 
L 349.629302 -44.604226 
L 349.809563 -44.604226 
L 349.989824 -44.604226 
L 350.170086 -44.604226 
L 350.350347 -44.604226 
L 350.530608 -44.604226 
L 350.710869 -44.604226 
L 350.891131 -44.604226 
L 351.071392 -44.604226 
L 351.251653 -44.604226 
L 351.431914 -44.604226 
L 351.612176 -44.604226 
L 351.792437 -44.604226 
L 351.972698 -44.604226 
L 352.15296 -44.604226 
L 352.333221 -44.604226 
L 352.513482 -44.604226 
L 352.693743 -44.604226 
L 352.874005 -44.604226 
L 353.054266 -44.604226 
L 353.234527 -44.604226 
L 353.414788 -44.604226 
L 353.59505 -44.604226 
L 353.775311 -44.604226 
L 353.955572 -44.604226 
L 354.135833 -44.604226 
L 354.316095 -44.604226 
L 354.496356 -44.604226 
L 354.676617 -44.604226 
L 354.856878 -44.604226 
L 355.03714 -44.604226 
L 355.217401 -44.604226 
L 355.397662 -44.604226 
L 355.577923 -44.604226 
L 355.758185 -44.604226 
L 355.938446 -44.604226 
L 355.938446 -44.60475 
L 355.938446 -44.60475 
L 355.758185 -44.605107 
L 355.577923 -44.605662 
L 355.397662 -44.606496 
L 355.217401 -44.607703 
L 355.03714 -44.609389 
L 354.856878 -44.611663 
L 354.676617 -44.614618 
L 354.496356 -44.618322 
L 354.316095 -44.622797 
L 354.135833 -44.628009 
L 353.955572 -44.633864 
L 353.775311 -44.640215 
L 353.59505 -44.646879 
L 353.414788 -44.653667 
L 353.234527 -44.660416 
L 353.054266 -44.667018 
L 352.874005 -44.673438 
L 352.693743 -44.679712 
L 352.513482 -44.685932 
L 352.333221 -44.692206 
L 352.15296 -44.698614 
L 351.972698 -44.705168 
L 351.792437 -44.711783 
L 351.612176 -44.718268 
L 351.431914 -44.724348 
L 351.251653 -44.729704 
L 351.071392 -44.734042 
L 350.891131 -44.737153 
L 350.710869 -44.738982 
L 350.530608 -44.739667 
L 350.350347 -44.739561 
L 350.170086 -44.739208 
L 349.989824 -44.739292 
L 349.809563 -44.740555 
L 349.629302 -44.743697 
L 349.449041 -44.749277 
L 349.268779 -44.757634 
L 349.088518 -44.76885 
L 348.908257 -44.782758 
L 348.727996 -44.799008 
L 348.547734 -44.817169 
L 348.367473 -44.83686 
L 348.187212 -44.857868 
L 348.006951 -44.880236 
L 347.826689 -44.904289 
L 347.646428 -44.930596 
L 347.466167 -44.959865 
L 347.285906 -44.992798 
L 347.105644 -45.029933 
L 346.925383 -45.0715 
L 346.745122 -45.117337 
L 346.564861 -45.166866 
L 346.384599 -45.21916 
L 346.204338 -45.273074 
L 346.024077 -45.327434 
L 345.843816 -45.381241 
L 345.663554 -45.43387 
L 345.483293 -45.485208 
L 345.303032 -45.535713 
L 345.122771 -45.586378 
L 344.942509 -45.638595 
L 344.762248 -45.693942 
L 344.581987 -45.753945 
L 344.401726 -45.819847 
L 344.221464 -45.892444 
L 344.041203 -45.972015 
L 343.860942 -46.058362 
L 343.680681 -46.150948 
L 343.500419 -46.249107 
L 343.320158 -46.352259 
L 343.139897 -46.460112 
L 342.959636 -46.572781 
L 342.779374 -46.690813 
L 342.599113 -46.815111 
L 342.418852 -46.946779 
L 342.23859 -47.086913 
L 342.058329 -47.236399 
L 341.878068 -47.39577 
L 341.697807 -47.565142 
L 341.517545 -47.744287 
L 341.337284 -47.932793 
L 341.157023 -48.130323 
L 340.976762 -48.336878 
L 340.7965 -48.553015 
L 340.616239 -48.779953 
L 340.435978 -49.01952 
L 340.255717 -49.273946 
L 340.075455 -49.545509 
L 339.895194 -49.836113 
L 339.714933 -50.146866 
L 339.534672 -50.477737 
L 339.35441 -50.82735 
L 339.174149 -51.19296 
L 338.993888 -51.570617 
L 338.813627 -51.955495 
L 338.633365 -52.342351 
L 338.453104 -52.726032 
L 338.272843 -53.101981 
L 338.092582 -53.466636 
L 337.91232 -53.81767 
L 337.732059 -54.154026 
L 337.551798 -54.475726 
L 337.371537 -54.783497 
L 337.191275 -55.078288 
L 337.011014 -55.360769 
L 336.830753 -55.630911 
L 336.650492 -55.887738 
L 336.47023 -56.129275 
L 336.289969 -56.352708 
L 336.109708 -56.554686 
L 335.929447 -56.731714 
L 335.749185 -56.880534 
L 335.568924 -56.99843 
L 335.388663 -57.083402 
L 335.208402 -57.134179 
L 335.02814 -57.150087 
L 334.847879 -57.130827 
L 334.667618 -57.07623 
L 334.487357 -56.986064 
L 334.307095 -56.859987 
L 334.126834 -56.697665 
L 333.946573 -56.499042 
L 333.766312 -56.264725 
L 333.58605 -55.996354 
L 333.405789 -55.696864 
L 333.225528 -55.370564 
L 333.045267 -55.022978 
L 332.865005 -54.66048 
L 332.684744 -54.289803 
L 332.504483 -53.91749 
L 332.324221 -53.549409 
L 332.14396 -53.19037 
L 331.963699 -52.843881 
L 331.783438 -52.512041 
L 331.603176 -52.195559 
L 331.422915 -51.893856 
L 331.242654 -51.605258 
L 331.062393 -51.327252 
L 330.882131 -51.056784 
L 330.70187 -50.790595 
L 330.521609 -50.525537 
L 330.341348 -50.258853 
L 330.161086 -49.988368 
L 329.980825 -49.712609 
L 329.800564 -49.430838 
L 329.620303 -49.143043 
L 329.440041 -48.849916 
L 329.25978 -48.552826 
L 329.079519 -48.253811 
L 328.899258 -47.955545 
L 328.718996 -47.661264 
L 328.538735 -47.374605 
L 328.358474 -47.099365 
L 328.178213 -46.839179 
L 327.997951 -46.597181 
L 327.81769 -46.375682 
L 327.637429 -46.175962 
L 327.457168 -45.998173 
L 327.276906 -45.841408 
L 327.096645 -45.703886 
L 326.916384 -45.583234 
L 326.736123 -45.476799 
L 326.555861 -45.381947 
L 326.3756 -45.296308 
L 326.195339 -45.217948 
L 326.015078 -45.145451 
L 325.834816 -45.077939 
L 325.654555 -45.015014 
L 325.474294 -44.956673 
L 325.294033 -44.90318 
L 325.113771 -44.85494 
L 324.93351 -44.812365 
L 324.753249 -44.775765 
L 324.572988 -44.745252 
L 324.392726 -44.720689 
L 324.212465 -44.701675 
L 324.032204 -44.687556 
L 323.851943 -44.67749 
L 323.671681 -44.670518 
L 323.49142 -44.66566 
L 323.311159 -44.662006 
L 323.130897 -44.658794 
L 322.950636 -44.655463 
L 322.770375 -44.651675 
L 322.590114 -44.647309 
L 322.409852 -44.642423 
L 322.229591 -44.637201 
L 322.04933 -44.631896 
L 321.869069 -44.626766 
L 321.688807 -44.622038 
L 321.508546 -44.617873 
L 321.328285 -44.614361 
L 321.148024 -44.611521 
L 320.967762 -44.609313 
L 320.787501 -44.607663 
L 320.60724 -44.606476 
L 320.426979 -44.605653 
L 320.246717 -44.605102 
L 320.066456 -44.604747 
z
" style="stroke: #000080"/>
    </defs>
    <g clip-path="url(#pa9dd2222e6)">
     <use xlink:href="#m0c4867ea02" x="0" y="121.206625" style="fill: #000080; fill-opacity: 0.25; stroke: #000080"/>
    </g>
   </g>
   <g id="matplotlib.axis_7"/>
   <g id="matplotlib.axis_8">
    <g id="text_11">
     <!-- $\theta_3$ -->
     <g transform="translate(285.473935 72.513269) rotate(-90)">
      <text>
       <tspan style="font: 9px 'DejaVu Sans'" x="0" y="-0.09375">θ</tspan>
       <tspan style="font: 6.3px 'DejaVu Sans'" x="5.59248" y="1.3828125">3</tspan>
      </text>
     </g>
    </g>
   </g>
   <g id="LineCollection_3">
    <path d="M 333.2059 76.602399 
L 333.2059 59.385008 
" clip-path="url(#pa9dd2222e6)" style="fill: none; stroke: #000080; stroke-width: 1.5"/>
   </g>
   <g id="patch_12">
    <path d="M 291.345653 76.602399 
L 291.345653 58.524139 
" style="fill: none; stroke: #000000; stroke-width: 1.5; stroke-linejoin: miter; stroke-linecap: square"/>
   </g>
   <g id="patch_13">
    <path d="M 291.345653 76.602399 
L 367.436562 76.602399 
" style="fill: none; stroke: #000000; stroke-width: 1.5; stroke-linejoin: miter; stroke-linecap: square"/>
   </g>
  </g>
  <g id="axes_5">
   <g id="patch_14">
    <path d="M 291.345653 98.296312 
L 367.436562 98.296312 
L 367.436562 80.218052 
L 291.345653 80.218052 
L 291.345653 98.296312 
z
" style="fill: none"/>
   </g>
   <g id="PolyCollection_6">
    <defs>
     <path id="m449a26112f" d="M 318.568159 -22.911185 
L 318.568159 -22.910312 
L 318.742797 -22.910312 
L 318.917436 -22.910312 
L 319.092075 -22.910312 
L 319.266713 -22.910312 
L 319.441352 -22.910312 
L 319.615991 -22.910312 
L 319.790629 -22.910312 
L 319.965268 -22.910312 
L 320.139907 -22.910312 
L 320.314545 -22.910312 
L 320.489184 -22.910312 
L 320.663823 -22.910312 
L 320.838461 -22.910312 
L 321.0131 -22.910312 
L 321.187739 -22.910312 
L 321.362377 -22.910312 
L 321.537016 -22.910312 
L 321.711654 -22.910312 
L 321.886293 -22.910312 
L 322.060932 -22.910312 
L 322.23557 -22.910312 
L 322.410209 -22.910312 
L 322.584848 -22.910312 
L 322.759486 -22.910312 
L 322.934125 -22.910312 
L 323.108764 -22.910312 
L 323.283402 -22.910312 
L 323.458041 -22.910312 
L 323.63268 -22.910312 
L 323.807318 -22.910312 
L 323.981957 -22.910312 
L 324.156596 -22.910312 
L 324.331234 -22.910312 
L 324.505873 -22.910312 
L 324.680512 -22.910312 
L 324.85515 -22.910312 
L 325.029789 -22.910312 
L 325.204428 -22.910312 
L 325.379066 -22.910312 
L 325.553705 -22.910312 
L 325.728344 -22.910312 
L 325.902982 -22.910312 
L 326.077621 -22.910312 
L 326.25226 -22.910312 
L 326.426898 -22.910312 
L 326.601537 -22.910312 
L 326.776176 -22.910312 
L 326.950814 -22.910312 
L 327.125453 -22.910312 
L 327.300092 -22.910312 
L 327.47473 -22.910312 
L 327.649369 -22.910312 
L 327.824008 -22.910312 
L 327.998646 -22.910312 
L 328.173285 -22.910312 
L 328.347924 -22.910312 
L 328.522562 -22.910312 
L 328.697201 -22.910312 
L 328.87184 -22.910312 
L 329.046478 -22.910312 
L 329.221117 -22.910312 
L 329.395756 -22.910312 
L 329.570394 -22.910312 
L 329.745033 -22.910312 
L 329.919672 -22.910312 
L 330.09431 -22.910312 
L 330.268949 -22.910312 
L 330.443588 -22.910312 
L 330.618226 -22.910312 
L 330.792865 -22.910312 
L 330.967504 -22.910312 
L 331.142142 -22.910312 
L 331.316781 -22.910312 
L 331.49142 -22.910312 
L 331.666058 -22.910312 
L 331.840697 -22.910312 
L 332.015336 -22.910312 
L 332.189974 -22.910312 
L 332.364613 -22.910312 
L 332.539252 -22.910312 
L 332.71389 -22.910312 
L 332.888529 -22.910312 
L 333.063168 -22.910312 
L 333.237806 -22.910312 
L 333.412445 -22.910312 
L 333.587084 -22.910312 
L 333.761722 -22.910312 
L 333.936361 -22.910312 
L 334.111 -22.910312 
L 334.285638 -22.910312 
L 334.460277 -22.910312 
L 334.634916 -22.910312 
L 334.809554 -22.910312 
L 334.984193 -22.910312 
L 335.158832 -22.910312 
L 335.33347 -22.910312 
L 335.508109 -22.910312 
L 335.682748 -22.910312 
L 335.857386 -22.910312 
L 336.032025 -22.910312 
L 336.206663 -22.910312 
L 336.381302 -22.910312 
L 336.555941 -22.910312 
L 336.730579 -22.910312 
L 336.905218 -22.910312 
L 337.079857 -22.910312 
L 337.254495 -22.910312 
L 337.429134 -22.910312 
L 337.603773 -22.910312 
L 337.778411 -22.910312 
L 337.95305 -22.910312 
L 338.127689 -22.910312 
L 338.302327 -22.910312 
L 338.476966 -22.910312 
L 338.651605 -22.910312 
L 338.826243 -22.910312 
L 339.000882 -22.910312 
L 339.175521 -22.910312 
L 339.350159 -22.910312 
L 339.524798 -22.910312 
L 339.699437 -22.910312 
L 339.874075 -22.910312 
L 340.048714 -22.910312 
L 340.223353 -22.910312 
L 340.397991 -22.910312 
L 340.57263 -22.910312 
L 340.747269 -22.910312 
L 340.921907 -22.910312 
L 341.096546 -22.910312 
L 341.271185 -22.910312 
L 341.445823 -22.910312 
L 341.620462 -22.910312 
L 341.795101 -22.910312 
L 341.969739 -22.910312 
L 342.144378 -22.910312 
L 342.319017 -22.910312 
L 342.493655 -22.910312 
L 342.668294 -22.910312 
L 342.842933 -22.910312 
L 343.017571 -22.910312 
L 343.19221 -22.910312 
L 343.366849 -22.910312 
L 343.541487 -22.910312 
L 343.716126 -22.910312 
L 343.890765 -22.910312 
L 344.065403 -22.910312 
L 344.240042 -22.910312 
L 344.414681 -22.910312 
L 344.589319 -22.910312 
L 344.763958 -22.910312 
L 344.938597 -22.910312 
L 345.113235 -22.910312 
L 345.287874 -22.910312 
L 345.462513 -22.910312 
L 345.637151 -22.910312 
L 345.81179 -22.910312 
L 345.986429 -22.910312 
L 346.161067 -22.910312 
L 346.335706 -22.910312 
L 346.510345 -22.910312 
L 346.684983 -22.910312 
L 346.859622 -22.910312 
L 347.034261 -22.910312 
L 347.208899 -22.910312 
L 347.383538 -22.910312 
L 347.558177 -22.910312 
L 347.732815 -22.910312 
L 347.907454 -22.910312 
L 348.082093 -22.910312 
L 348.256731 -22.910312 
L 348.43137 -22.910312 
L 348.606009 -22.910312 
L 348.780647 -22.910312 
L 348.955286 -22.910312 
L 349.129925 -22.910312 
L 349.304563 -22.910312 
L 349.479202 -22.910312 
L 349.653841 -22.910312 
L 349.828479 -22.910312 
L 350.003118 -22.910312 
L 350.177757 -22.910312 
L 350.352395 -22.910312 
L 350.527034 -22.910312 
L 350.701672 -22.910312 
L 350.876311 -22.910312 
L 351.05095 -22.910312 
L 351.225588 -22.910312 
L 351.400227 -22.910312 
L 351.574866 -22.910312 
L 351.749504 -22.910312 
L 351.924143 -22.910312 
L 352.098782 -22.910312 
L 352.27342 -22.910312 
L 352.448059 -22.910312 
L 352.622698 -22.910312 
L 352.797336 -22.910312 
L 352.971975 -22.910312 
L 353.146614 -22.910312 
L 353.321252 -22.910312 
L 353.321252 -22.910814 
L 353.321252 -22.910814 
L 353.146614 -22.911101 
L 352.971975 -22.911528 
L 352.797336 -22.912144 
L 352.622698 -22.913015 
L 352.448059 -22.914217 
L 352.27342 -22.915837 
L 352.098782 -22.91797 
L 351.924143 -22.920715 
L 351.749504 -22.924164 
L 351.574866 -22.928401 
L 351.400227 -22.933488 
L 351.225588 -22.939463 
L 351.05095 -22.946329 
L 350.876311 -22.954056 
L 350.701672 -22.962577 
L 350.527034 -22.971801 
L 350.352395 -22.981616 
L 350.177757 -22.991903 
L 350.003118 -23.002553 
L 349.828479 -23.013478 
L 349.653841 -23.024621 
L 349.479202 -23.03597 
L 349.304563 -23.047553 
L 349.129925 -23.059441 
L 348.955286 -23.071738 
L 348.780647 -23.084569 
L 348.606009 -23.098069 
L 348.43137 -23.112366 
L 348.256731 -23.127572 
L 348.082093 -23.143779 
L 347.907454 -23.16106 
L 347.732815 -23.179477 
L 347.558177 -23.199105 
L 347.383538 -23.220059 
L 347.208899 -23.242531 
L 347.034261 -23.26683 
L 346.859622 -23.293422 
L 346.684983 -23.322957 
L 346.510345 -23.356295 
L 346.335706 -23.394494 
L 346.161067 -23.438788 
L 345.986429 -23.490528 
L 345.81179 -23.551088 
L 345.637151 -23.621758 
L 345.462513 -23.703601 
L 345.287874 -23.797318 
L 345.113235 -23.903112 
L 344.938597 -24.020591 
L 344.763958 -24.148706 
L 344.589319 -24.28577 
L 344.414681 -24.429537 
L 344.240042 -24.577363 
L 344.065403 -24.726439 
L 343.890765 -24.87405 
L 343.716126 -25.017862 
L 343.541487 -25.156168 
L 343.366849 -25.288076 
L 343.19221 -25.413598 
L 343.017571 -25.533625 
L 342.842933 -25.649794 
L 342.668294 -25.764257 
L 342.493655 -25.87939 
L 342.319017 -25.997492 
L 342.144378 -26.120515 
L 341.969739 -26.249861 
L 341.795101 -26.386291 
L 341.620462 -26.529932 
L 341.445823 -26.680385 
L 341.271185 -26.836908 
L 341.096546 -26.99863 
L 340.921907 -27.164758 
L 340.747269 -27.334745 
L 340.57263 -27.50838 
L 340.397991 -27.685806 
L 340.223353 -27.867455 
L 340.048714 -28.053924 
L 339.874075 -28.245808 
L 339.699437 -28.443541 
L 339.524798 -28.647252 
L 339.350159 -28.85668 
L 339.175521 -29.071155 
L 339.000882 -29.289643 
L 338.826243 -29.510863 
L 338.651605 -29.733439 
L 338.476966 -29.956075 
L 338.302327 -30.17771 
L 338.127689 -30.397631 
L 337.95305 -30.615524 
L 337.778411 -30.831444 
L 337.603773 -31.045715 
L 337.429134 -31.258764 
L 337.254495 -31.47093 
L 337.079857 -31.682264 
L 336.905218 -31.892366 
L 336.730579 -32.10027 
L 336.555941 -32.304405 
L 336.381302 -32.502617 
L 336.206663 -32.692267 
L 336.032025 -32.870362 
L 335.857386 -33.033718 
L 335.682748 -33.179133 
L 335.508109 -33.303556 
L 335.33347 -33.404246 
L 335.158832 -33.478926 
L 334.984193 -33.525919 
L 334.809554 -33.544274 
L 334.634916 -33.533862 
L 334.460277 -33.495426 
L 334.285638 -33.430585 
L 334.111 -33.341753 
L 333.936361 -33.231985 
L 333.761722 -33.104746 
L 333.587084 -32.963621 
L 333.412445 -32.812013 
L 333.237806 -32.652849 
L 333.063168 -32.488344 
L 332.888529 -32.319866 
L 332.71389 -32.147914 
L 332.539252 -31.972213 
L 332.364613 -31.791915 
L 332.189974 -31.605867 
L 332.015336 -31.412905 
L 331.840697 -31.212121 
L 331.666058 -31.00306 
L 331.49142 -30.785817 
L 331.316781 -30.561021 
L 331.142142 -30.329717 
L 330.967504 -30.09317 
L 330.792865 -29.852648 
L 330.618226 -29.609216 
L 330.443588 -29.363598 
L 330.268949 -29.116135 
L 330.09431 -28.866845 
L 329.919672 -28.615588 
L 329.745033 -28.362292 
L 329.570394 -28.107192 
L 329.395756 -27.851047 
L 329.221117 -27.595259 
L 329.046478 -27.34189 
L 328.87184 -27.093535 
L 328.697201 -26.853089 
L 328.522562 -26.623424 
L 328.347924 -26.407033 
L 328.173285 -26.20571 
L 327.998646 -26.020307 
L 327.824008 -25.850629 
L 327.649369 -25.695466 
L 327.47473 -25.552788 
L 327.300092 -25.420038 
L 327.125453 -25.294509 
L 326.950814 -25.173717 
L 326.776176 -25.055726 
L 326.601537 -24.939372 
L 326.426898 -24.824353 
L 326.25226 -24.71118 
L 326.077621 -24.601005 
L 325.902982 -24.495354 
L 325.728344 -24.395832 
L 325.553705 -24.30382 
L 325.379066 -24.220239 
L 325.204428 -24.145398 
L 325.029789 -24.07894 
L 324.85515 -24.019894 
L 324.680512 -23.966814 
L 324.505873 -23.917969 
L 324.331234 -23.871562 
L 324.156596 -23.82593 
L 323.981957 -23.779716 
L 323.807318 -23.731971 
L 323.63268 -23.682206 
L 323.458041 -23.63037 
L 323.283402 -23.576785 
L 323.108764 -23.522052 
L 322.934125 -23.466936 
L 322.759486 -23.412267 
L 322.584848 -23.358852 
L 322.410209 -23.30741 
L 322.23557 -23.258541 
L 322.060932 -23.212708 
L 321.886293 -23.170245 
L 321.711654 -23.13137 
L 321.537016 -23.096198 
L 321.362377 -23.064761 
L 321.187739 -23.037016 
L 321.0131 -23.012859 
L 320.838461 -22.992126 
L 320.663823 -22.974604 
L 320.489184 -22.960039 
L 320.314545 -22.948139 
L 320.139907 -22.938594 
L 319.965268 -22.931082 
L 319.790629 -22.925287 
L 319.615991 -22.920906 
L 319.441352 -22.917663 
L 319.266713 -22.915312 
L 319.092075 -22.913646 
L 318.917436 -22.91249 
L 318.742797 -22.911706 
L 318.568159 -22.911185 
z
" style="stroke: #000080"/>
    </defs>
    <g clip-path="url(#p6f557cf746)">
     <use xlink:href="#m449a26112f" x="0" y="121.206625" style="fill: #000080; fill-opacity: 0.25; stroke: #000080"/>
    </g>
   </g>
   <g id="matplotlib.axis_9">
    <g id="xtick_3">
     <g id="line2d_12">
      <g>
       <use xlink:href="#me41e930888" x="294.804331" y="98.296312" style="stroke: #000000; stroke-width: 1.5"/>
      </g>
     </g>
     <g id="text_12">
      <text style="font: 9px 'Arial', sans-serif; text-anchor: middle" x="294.804331" y="112.134906" transform="rotate(-0 294.804331 112.134906)">1</text>
     </g>
    </g>
    <g id="xtick_4">
     <g id="line2d_13">
      <g>
       <use xlink:href="#me41e930888" x="329.391108" y="98.296312" style="stroke: #000000; stroke-width: 1.5"/>
      </g>
     </g>
     <g id="text_13">
      <text style="font: 9px 'Arial', sans-serif; text-anchor: middle" x="329.391108" y="112.134906" transform="rotate(-0 329.391108 112.134906)">2</text>
     </g>
    </g>
    <g id="xtick_5">
     <g id="line2d_14">
      <g>
       <use xlink:href="#me41e930888" x="363.977885" y="98.296312" style="stroke: #000000; stroke-width: 1.5"/>
      </g>
     </g>
     <g id="text_14">
      <text style="font: 9px 'Arial', sans-serif; text-anchor: middle" x="363.977885" y="112.134906" transform="rotate(-0 363.977885 112.134906)">3</text>
     </g>
    </g>
   </g>
   <g id="matplotlib.axis_10">
    <g id="text_15">
     <!-- $\theta_4$ -->
     <g transform="translate(285.473935 94.207182) rotate(-90)">
      <text>
       <tspan style="font: 9px 'DejaVu Sans'" x="0" y="-0.09375">θ</tspan>
       <tspan style="font: 6.3px 'DejaVu Sans'" x="5.59248" y="1.3828125">4</tspan>
      </text>
     </g>
    </g>
   </g>
   <g id="LineCollection_4">
    <path d="M 339.732712 98.296312 
L 339.732712 81.078921 
" clip-path="url(#p6f557cf746)" style="fill: none; stroke: #000080; stroke-width: 1.5"/>
   </g>
   <g id="patch_15">
    <path d="M 291.345653 98.296312 
L 291.345653 80.218052 
" style="fill: none; stroke: #000000; stroke-width: 1.5; stroke-linejoin: miter; stroke-linecap: square"/>
   </g>
   <g id="patch_16">
    <path d="M 291.345653 98.296312 
L 367.436562 98.296312 
" style="fill: none; stroke: #000000; stroke-width: 1.5; stroke-linejoin: miter; stroke-linecap: square"/>
   </g>
  </g>
 </g>
 <defs>
  <clipPath id="pabe5fac4b3">
   <rect x="32.636563" y="15.136313" width="228.272727" height="83.16"/>
  </clipPath>
  <clipPath id="p1cfcff0392">
   <rect x="291.345653" y="15.136313" width="76.090909" height="18.078261"/>
  </clipPath>
  <clipPath id="pcb571bdc16">
   <rect x="291.345653" y="36.830226" width="76.090909" height="18.078261"/>
  </clipPath>
  <clipPath id="pa9dd2222e6">
   <rect x="291.345653" y="58.524139" width="76.090909" height="18.078261"/>
  </clipPath>
  <clipPath id="p6f557cf746">
   <rect x="291.345653" y="80.218052" width="76.090909" height="18.078261"/>
  </clipPath>
 </defs>
</svg>
