<?xml version="1.0" encoding="utf-8" standalone="no"?>
<!DOCTYPE svg PUBLIC "-//W3C//DTD SVG 1.1//EN"
  "http://www.w3.org/Graphics/SVG/1.1/DTD/svg11.dtd">
<svg xmlns:xlink="http://www.w3.org/1999/xlink" width="374.636562pt" height="129.399922pt" viewBox="0 0 374.636562 129.399922" xmlns="http://www.w3.org/2000/svg" version="1.1">
 <metadata>
  <rdf:RDF xmlns:dc="http://purl.org/dc/elements/1.1/" xmlns:cc="http://creativecommons.org/ns#" xmlns:rdf="http://www.w3.org/1999/02/22-rdf-syntax-ns#">
   <cc:Work>
    <dc:type rdf:resource="http://purl.org/dc/dcmitype/StillImage"/>
    <dc:date>2024-05-10T14:53:17.658061</dc:date>
    <dc:format>image/svg+xml</dc:format>
    <dc:creator>
     <cc:Agent>
      <dc:title>Matplotlib v3.8.4, https://matplotlib.org/</dc:title>
     </cc:Agent>
    </dc:creator>
   </cc:Work>
  </rdf:RDF>
 </metadata>
 <defs>
  <style type="text/css">*{stroke-linejoin: round; stroke-linecap: butt}</style>
 </defs>
 <g id="figure_1">
  <g id="patch_1">
   <path d="M 0 129.399922 
L 374.636562 129.399922 
L 374.636562 0 
L 0 0 
z
" style="fill: #ffffff"/>
  </g>
  <g id="axes_1">
   <g id="patch_2">
    <path d="M 32.636563 93.779297 
L 260.90929 93.779297 
L 260.90929 10.619297 
L 32.636563 10.619297 
z
" style="fill: #ffffff"/>
   </g>
   <g id="PathCollection_1">
    <defs>
     <path id="m2d00d2edd3" d="M -2.236068 2.236068 
L 2.236068 -2.236068 
M -2.236068 -2.236068 
L 2.236068 2.236068 
" style="stroke: #2e8b57; stroke-width: 1.5"/>
    </defs>
    <g clip-path="url(#p03dd5bff62)">
     <use xlink:href="#m2d00d2edd3" x="81.692078" y="67.665802" style="fill: #2e8b57; stroke: #2e8b57; stroke-width: 1.5"/>
     <use xlink:href="#m2d00d2edd3" x="87.355378" y="49.352864" style="fill: #2e8b57; stroke: #2e8b57; stroke-width: 1.5"/>
     <use xlink:href="#m2d00d2edd3" x="89.407449" y="46.85654" style="fill: #2e8b57; stroke: #2e8b57; stroke-width: 1.5"/>
     <use xlink:href="#m2d00d2edd3" x="104.184263" y="89.617485" style="fill: #2e8b57; stroke: #2e8b57; stroke-width: 1.5"/>
    </g>
   </g>
   <g id="PolyCollection_1">
    <defs>
     <path id="mc4367fb58b" d="M 32.636563 -60.97907 
L 32.636563 -53.064505 
L 33.783662 -55.590369 
L 34.930761 -58.928417 
L 36.07786 -62.744917 
L 37.224959 -66.706141 
L 38.372058 -70.478365 
L 39.519157 -74.915688 
L 40.666257 -76.525329 
L 41.813355 -76.523284 
L 42.960454 -74.873345 
L 44.107553 -71.553441 
L 45.254653 -67.089402 
L 46.401752 -62.004844 
L 47.548851 -56.841305 
L 48.695951 -52.121371 
L 49.843049 -48.133361 
L 50.990148 -45.042037 
L 52.137247 -42.784708 
L 53.284346 -41.256844 
L 54.431445 -40.11338 
L 55.578544 -39.258404 
L 56.725645 -38.557846 
L 57.872743 -38.186347 
L 59.019842 -38.032837 
L 60.166941 -38.056075 
L 61.31404 -38.163196 
L 62.461139 -38.31735 
L 63.608238 -38.410451 
L 64.755339 -38.601259 
L 65.902436 -38.92083 
L 67.049536 -39.348511 
L 68.196633 -39.893652 
L 69.343734 -40.598534 
L 70.490835 -41.561164 
L 71.637932 -42.745274 
L 72.785033 -44.135038 
L 73.93213 -45.604816 
L 75.07923 -47.038592 
L 76.226327 -48.891124 
L 77.373428 -51.272179 
L 78.520525 -54.113622 
L 79.667626 -57.285506 
L 80.814727 -61.645754 
L 83.108924 -66.304134 
L 84.256021 -70.468459 
L 85.403122 -73.539191 
L 86.550219 -74.795358 
L 88.844421 -73.900942 
L 91.138618 -70.967363 
L 92.285715 -66.688817 
L 93.432816 -61.32634 
L 94.579913 -55.565328 
L 95.727014 -50.291607 
L 96.874115 -46.52641 
L 98.021215 -43.68143 
L 99.168309 -41.614905 
L 100.315409 -40.329947 
L 101.46251 -39.38596 
L 102.609611 -38.694254 
L 103.756704 -38.272898 
L 106.050906 -38.03785 
L 107.198006 -37.958784 
L 108.345107 -37.937672 
L 109.492201 -38.060123 
L 110.639301 -38.222964 
L 111.786402 -38.645241 
L 112.933503 -39.165419 
L 114.080596 -39.809136 
L 115.227697 -40.543922 
L 116.374797 -41.346819 
L 117.521898 -42.322587 
L 118.668999 -43.467859 
L 119.816092 -44.731699 
L 120.963193 -46.148471 
L 122.110294 -47.756236 
L 123.257394 -49.723455 
L 124.404488 -52.018112 
L 125.551589 -54.745899 
L 126.698689 -57.807204 
L 127.84579 -61.28425 
L 128.992891 -64.823067 
L 130.139984 -68.426315 
L 131.287085 -71.858629 
L 132.434186 -74.364309 
L 133.581286 -76.627881 
L 134.728387 -77.444109 
L 135.87548 -76.777311 
L 137.022581 -74.284801 
L 138.169682 -70.393236 
L 138.390413 -65.381702 
L 140.463876 -59.87614 
L 141.610977 -54.257158 
L 142.758077 -49.247184 
L 143.905178 -45.12594 
L 145.052279 -41.944428 
L 146.199372 -40.450198 
L 147.346473 -39.378836 
L 148.493574 -38.845029 
L 149.640674 -38.55431 
L 150.787768 -38.40731 
L 151.934868 -38.365848 
L 153.081969 -38.394632 
L 153.641213 -38.411571 
L 155.108025 -38.490081 
L 156.523264 -38.6495 
L 157.670372 -38.86805 
L 157.829683 -39.221332 
L 159.964559 -39.677939 
L 161.111667 -40.281493 
L 162.25876 -40.945795 
L 163.405868 -41.708018 
L 164.552962 -42.691125 
L 165.700055 -43.81103 
L 166.847163 -45.135574 
L 167.994256 -46.570561 
L 169.14135 -48.169779 
L 170.288458 -50.125105 
L 171.435551 -52.448641 
L 172.582659 -55.176114 
L 173.729753 -58.331724 
L 174.876846 -61.766076 
L 176.023954 -65.461288 
L 177.171048 -69.21392 
L 178.318155 -72.661977 
L 179.465249 -75.268348 
L 180.612342 -76.524451 
L 181.75945 -76.083375 
L 182.906544 -74.12771 
L 184.053652 -70.535806 
L 185.200745 -65.763682 
L 186.347839 -60.35313 
L 187.494947 -54.931741 
L 188.64204 -50.031646 
L 189.789148 -46.054825 
L 190.936241 -43.154768 
L 192.083335 -41.156507 
L 193.230443 -39.920219 
L 194.377536 -39.128928 
L 195.52463 -38.77562 
L 196.02532 -38.51631 
L 197.818831 -38.33876 
L 198.965939 -38.244607 
L 200.113032 -38.254068 
L 201.260126 -38.297519 
L 202.407234 -38.421055 
L 203.554327 -38.65342 
L 204.701435 -39.025948 
L 205.848529 -39.520569 
L 206.995622 -40.1954 
L 208.14273 -40.894943 
L 209.152035 -41.561294 
L 210.436932 -42.363971 
L 211.584025 -43.302421 
L 212.731118 -44.444302 
L 213.048536 -45.794444 
L 215.02532 -47.565945 
L 216.172413 -49.674811 
L 217.319521 -52.183189 
L 218.466615 -54.964419 
L 219.613723 -58.055283 
L 220.760816 -60.980388 
L 221.90791 -64.160421 
L 223.055017 -67.607454 
L 224.202111 -70.837572 
L 225.349219 -73.496784 
L 225.908572 -75.212553 
L 227.643406 -75.610132 
L 228.790514 -74.301277 
L 229.937607 -71.3729 
L 231.084715 -67.026948 
L 232.231809 -61.775328 
L 233.378902 -56.086312 
L 234.52601 -51.068585 
L 235.673103 -46.982494 
L 236.820211 -43.93791 
L 237.967305 -41.816828 
L 239.114398 -40.550527 
L 240.261506 -39.803593 
L 241.4086 -39.254972 
L 242.555693 -38.857024 
L 243.702801 -38.525011 
L 244.849894 -38.18196 
L 245.997002 -37.892879 
L 247.144096 -37.771952 
L 248.291189 -37.84613 
L 249.438297 -38.145929 
L 250.585391 -38.598746 
L 251.732499 -39.113449 
L 252.879592 -39.754917 
L 254.026686 -40.39569 
L 255.173794 -40.751562 
L 256.320887 -41.505159 
L 256.542112 -42.307448 
L 258.615088 -43.149894 
L 259.034665 -44.023963 
L 260.90929 -44.921118 
L 260.90929 -54.833278 
L 260.90929 -54.833278 
L 259.034665 -52.371884 
L 258.615088 -50.415938 
L 256.542112 -48.898742 
L 256.320887 -47.753598 
L 255.173794 -46.913807 
L 254.026686 -46.587575 
L 252.879592 -46.134585 
L 251.732499 -45.60334 
L 250.585391 -45.295917 
L 249.438297 -44.891854 
L 248.291189 -44.621121 
L 247.144096 -44.3222 
L 245.997002 -44.183521 
L 244.849894 -44.236024 
L 243.702801 -44.485283 
L 242.555693 -44.921013 
L 241.4086 -45.556896 
L 240.261506 -46.467797 
L 239.114398 -47.702305 
L 237.967305 -49.574227 
L 236.820211 -52.387986 
L 235.673103 -56.134327 
L 234.52601 -60.749883 
L 233.378902 -66.027566 
L 232.231809 -71.932839 
L 231.084715 -77.260869 
L 229.937607 -81.586179 
L 228.790514 -84.428849 
L 227.643406 -85.628133 
L 225.908572 -85.154717 
L 225.349219 -83.469451 
L 224.202111 -80.850765 
L 223.055017 -77.55283 
L 221.90791 -73.953176 
L 220.760816 -70.308858 
L 219.613723 -67.178338 
L 218.466615 -63.686293 
L 217.319521 -60.568688 
L 216.172413 -57.701978 
L 215.02532 -55.171617 
L 213.048536 -52.957502 
L 212.731118 -51.135182 
L 211.584025 -49.57979 
L 210.436932 -48.298105 
L 209.152035 -47.230634 
L 208.14273 -46.451617 
L 206.995622 -46.009749 
L 205.848529 -45.45702 
L 204.701435 -45.109839 
L 203.554327 -44.823572 
L 202.407234 -44.562038 
L 201.260126 -44.410907 
L 200.113032 -44.320951 
L 198.965939 -44.23676 
L 197.818831 -44.327632 
L 196.02532 -44.592182 
L 195.52463 -45.085839 
L 194.377536 -45.841089 
L 193.230443 -47.091814 
L 192.083335 -48.965089 
L 190.936241 -51.564977 
L 189.789148 -55.129726 
L 188.64204 -59.741059 
L 187.494947 -65.014722 
L 186.347839 -70.57838 
L 185.200745 -75.995063 
L 184.053652 -80.636005 
L 182.906544 -83.921579 
L 181.75945 -85.663058 
L 180.612342 -85.852643 
L 179.465249 -84.430371 
L 178.318155 -81.702409 
L 177.171048 -78.165421 
L 176.023954 -74.312462 
L 174.876846 -70.496197 
L 173.729753 -66.832964 
L 172.582659 -63.50278 
L 171.435551 -60.523597 
L 170.288458 -57.833023 
L 169.14135 -55.49087 
L 167.994256 -53.397315 
L 166.847163 -51.569349 
L 165.700055 -49.963576 
L 164.552962 -48.586884 
L 163.405868 -47.460068 
L 162.25876 -46.620594 
L 161.111667 -45.898338 
L 159.964559 -45.313381 
L 157.829683 -44.89737 
L 157.670372 -44.551907 
L 156.523264 -44.357762 
L 155.108025 -44.162453 
L 153.641213 -44.119175 
L 153.081969 -44.107628 
L 151.934868 -44.206574 
L 150.787768 -44.449065 
L 149.640674 -44.855578 
L 148.493574 -45.461572 
L 147.346473 -46.32519 
L 146.199372 -47.965986 
L 145.052279 -50.328059 
L 143.905178 -54.459975 
L 142.758077 -59.531729 
L 141.610977 -65.347434 
L 140.463876 -71.201038 
L 138.390413 -76.951213 
L 138.169682 -81.857713 
L 137.022581 -85.312762 
L 135.87548 -87.039704 
L 134.728387 -86.877797 
L 133.581286 -85.400575 
L 132.434186 -82.774216 
L 131.287085 -79.907005 
L 130.139984 -76.289438 
L 128.992891 -72.392443 
L 127.84579 -68.290143 
L 126.698689 -64.69793 
L 125.551589 -61.324665 
L 124.404488 -58.345546 
L 123.257394 -55.830586 
L 122.110294 -53.737021 
L 120.963193 -52.079751 
L 119.816092 -50.63221 
L 118.668999 -49.331682 
L 117.521898 -48.264019 
L 116.374797 -47.317083 
L 115.227697 -46.44041 
L 114.080596 -45.786963 
L 112.933503 -45.146352 
L 111.786402 -44.693548 
L 110.639301 -44.415456 
L 109.492201 -43.982493 
L 108.345107 -43.633044 
L 107.198006 -43.440031 
L 106.050906 -43.512981 
L 103.756704 -43.903018 
L 102.609611 -44.55016 
L 101.46251 -45.654443 
L 100.315409 -47.217579 
L 99.168309 -49.412848 
L 98.021215 -52.641806 
L 96.874115 -56.836192 
L 95.727014 -62.00154 
L 94.579913 -67.807185 
L 93.432816 -73.287384 
L 92.285715 -77.854025 
L 91.138618 -80.989043 
L 88.844421 -82.731256 
L 86.550219 -82.125753 
L 85.403122 -79.504539 
L 84.256021 -75.527196 
L 83.108924 -71.048103 
L 80.814727 -66.623565 
L 79.667626 -62.828703 
L 78.520525 -59.378641 
L 77.373428 -56.378274 
L 76.226327 -53.987604 
L 75.07923 -52.190456 
L 73.93213 -50.991095 
L 72.785033 -49.545705 
L 71.637932 -48.369523 
L 70.490835 -47.442424 
L 69.343734 -46.685941 
L 68.196633 -46.028574 
L 67.049536 -45.373021 
L 65.902436 -44.799025 
L 64.755339 -44.461554 
L 63.608238 -44.170235 
L 62.461139 -43.979208 
L 61.31404 -43.996167 
L 60.166941 -44.114065 
L 59.019842 -44.343489 
L 57.872743 -44.718279 
L 56.725645 -45.258739 
L 55.578544 -46.095142 
L 54.431445 -47.392398 
L 53.284346 -49.29842 
L 52.137247 -52.046724 
L 50.990148 -55.724134 
L 49.843049 -60.425592 
L 48.695951 -65.814167 
L 47.548851 -71.259126 
L 46.401752 -76.516211 
L 45.254653 -80.996409 
L 44.107553 -84.181395 
L 42.960454 -85.765811 
L 41.813355 -85.729801 
L 40.666257 -84.069274 
L 39.519157 -81.319047 
L 38.372058 -75.828119 
L 37.224959 -71.846669 
L 36.07786 -68.027953 
L 34.930761 -64.715056 
L 33.783662 -62.251066 
L 32.636563 -60.97907 
z
" style="stroke: #2e8b57; stroke-opacity: 0.3"/>
    </defs>
    <g clip-path="url(#p03dd5bff62)">
     <use xlink:href="#mc4367fb58b" x="0" y="129.399922" style="fill: #2e8b57; fill-opacity: 0.3; stroke: #2e8b57; stroke-opacity: 0.3"/>
    </g>
   </g>
   <g id="PathCollection_2">
    <defs>
     <path id="mca28d9d5d7" d="M -2.236068 2.236068 
L 2.236068 -2.236068 
M -2.236068 -2.236068 
L 2.236068 2.236068 
" style="stroke: #b22222; stroke-width: 1.5"/>
    </defs>
    <g clip-path="url(#p03dd5bff62)">
     <use xlink:href="#mca28d9d5d7" x="138.390413" y="37.386479" style="fill: #b22222; stroke: #b22222; stroke-width: 1.5"/>
     <use xlink:href="#mca28d9d5d7" x="153.641213" y="57.752645" style="fill: #b22222; stroke: #b22222; stroke-width: 1.5"/>
     <use xlink:href="#mca28d9d5d7" x="155.108025" y="64.439836" style="fill: #b22222; stroke: #b22222; stroke-width: 1.5"/>
     <use xlink:href="#mca28d9d5d7" x="157.829683" y="75.711058" style="fill: #b22222; stroke: #b22222; stroke-width: 1.5"/>
     <use xlink:href="#mca28d9d5d7" x="196.02532" y="44.597286" style="fill: #b22222; stroke: #b22222; stroke-width: 1.5"/>
     <use xlink:href="#mca28d9d5d7" x="209.152035" y="81.035648" style="fill: #b22222; stroke: #b22222; stroke-width: 1.5"/>
     <use xlink:href="#mca28d9d5d7" x="213.048536" y="80.298792" style="fill: #b22222; stroke: #b22222; stroke-width: 1.5"/>
     <use xlink:href="#mca28d9d5d7" x="225.908572" y="72.624626" style="fill: #b22222; stroke: #b22222; stroke-width: 1.5"/>
     <use xlink:href="#mca28d9d5d7" x="256.542112" y="78.226732" style="fill: #b22222; stroke: #b22222; stroke-width: 1.5"/>
     <use xlink:href="#mca28d9d5d7" x="259.034665" y="85.516445" style="fill: #b22222; stroke: #b22222; stroke-width: 1.5"/>
    </g>
   </g>
   <g id="PolyCollection_2">
    <defs>
     <path id="m8f42a42697" d="M 32.636563 -50.188034 
L 32.636563 -41.837428 
L 33.783662 -42.636551 
L 34.930761 -43.46574 
L 36.07786 -44.473252 
L 37.224959 -45.807347 
L 38.372058 -47.616281 
L 39.519157 -51.667355 
L 40.666257 -55.508523 
L 41.813355 -60.561278 
L 42.960454 -66.828733 
L 44.107553 -73.946108 
L 45.254653 -81.445785 
L 46.401752 -88.647015 
L 47.548851 -94.821297 
L 48.695951 -99.142493 
L 49.843049 -101.198214 
L 50.990148 -101.021368 
L 52.137247 -98.764825 
L 53.284346 -95.039541 
L 54.431445 -90.362115 
L 55.578544 -85.236002 
L 56.725645 -80.147054 
L 57.872743 -75.430887 
L 59.019842 -71.121651 
L 60.166941 -67.210059 
L 61.31404 -63.66975 
L 62.461139 -60.51579 
L 63.608238 -57.798919 
L 64.755339 -55.406327 
L 65.902436 -53.346975 
L 67.049536 -51.412317 
L 68.196633 -49.683676 
L 69.343734 -48.200661 
L 70.490835 -46.923771 
L 71.637932 -45.803319 
L 72.785033 -44.828552 
L 73.93213 -44.078016 
L 75.07923 -43.521487 
L 76.226327 -43.237235 
L 77.373428 -43.03861 
L 78.520525 -43.046403 
L 79.667626 -43.231959 
L 80.814727 -43.776265 
L 81.692078 -44.464556 
L 83.108924 -45.877656 
L 84.256021 -47.262045 
L 85.403122 -49.500861 
L 86.550219 -52.811908 
L 87.355378 -57.319217 
L 88.844421 -63.055255 
L 89.407449 -69.767742 
L 91.138618 -77.275298 
L 92.285715 -84.743631 
L 93.432816 -91.444361 
L 94.579913 -96.557076 
L 95.727014 -99.893659 
L 96.874115 -100.479688 
L 98.021215 -99.094036 
L 99.168309 -96.455949 
L 100.315409 -92.472182 
L 101.46251 -87.630793 
L 102.609611 -82.454592 
L 103.756704 -77.548691 
L 104.184263 -72.830377 
L 106.050906 -68.394438 
L 107.198006 -64.465965 
L 108.345107 -60.997667 
L 109.492201 -57.818902 
L 110.639301 -55.078487 
L 111.786402 -53.174272 
L 112.933503 -51.324617 
L 114.080596 -49.640252 
L 115.227697 -48.212432 
L 116.374797 -47.115641 
L 117.521898 -46.145375 
L 118.668999 -45.276031 
L 119.816092 -44.681289 
L 120.963193 -44.152229 
L 122.110294 -43.696026 
L 123.257394 -43.400714 
L 124.404488 -43.21351 
L 125.551589 -43.203448 
L 126.698689 -43.402747 
L 127.84579 -44.026341 
L 128.992891 -45.124648 
L 130.139984 -46.74145 
L 131.287085 -48.989601 
L 132.434186 -52.020445 
L 133.581286 -56.822635 
L 134.728387 -63.156067 
L 135.87548 -70.744432 
L 137.022581 -78.822127 
L 138.169682 -86.591036 
L 140.463876 -93.27416 
L 141.610977 -98.110241 
L 142.758077 -100.542638 
L 143.905178 -100.261681 
L 145.052279 -97.510715 
L 146.199372 -92.942055 
L 147.346473 -88.98208 
L 148.493574 -84.023682 
L 149.640674 -78.697575 
L 150.787768 -73.066528 
L 151.934868 -67.556962 
L 153.081969 -62.413354 
L 156.523264 -57.681204 
L 157.670372 -53.521436 
L 159.964559 -50.047746 
L 161.111667 -47.437263 
L 162.25876 -45.906699 
L 163.405868 -45.750256 
L 164.552962 -45.099863 
L 165.700055 -44.555388 
L 166.847163 -44.114839 
L 167.994256 -43.703724 
L 169.14135 -43.353066 
L 170.288458 -43.065847 
L 171.435551 -42.920079 
L 172.582659 -43.088567 
L 173.729753 -43.549143 
L 174.876846 -44.382809 
L 176.023954 -45.718093 
L 177.171048 -47.787127 
L 178.318155 -50.782119 
L 179.465249 -55.073273 
L 180.612342 -60.488357 
L 181.75945 -67.044544 
L 182.906544 -74.282303 
L 184.053652 -81.809529 
L 185.200745 -88.926802 
L 186.347839 -94.750802 
L 187.494947 -98.776459 
L 188.64204 -100.401818 
L 189.789148 -100.739911 
L 190.936241 -98.577526 
L 192.083335 -94.603826 
L 193.230443 -89.401116 
L 194.377536 -83.494849 
L 195.52463 -77.378393 
L 197.818831 -71.6232 
L 198.965939 -66.357884 
L 200.113032 -61.777737 
L 201.260126 -57.906053 
L 202.407234 -54.946584 
L 203.554327 -53.311173 
L 204.701435 -51.104922 
L 205.848529 -49.749547 
L 206.995622 -48.540659 
L 208.14273 -47.282913 
L 210.436932 -46.192777 
L 211.584025 -45.177964 
L 212.731118 -44.361069 
L 215.02532 -43.731183 
L 216.172413 -43.260228 
L 217.319521 -43.151095 
L 218.466615 -42.991336 
L 219.613723 -42.980814 
L 220.760816 -44.099988 
L 221.90791 -45.650757 
L 223.055017 -48.252122 
L 224.202111 -52.177137 
L 225.349219 -57.389597 
L 227.643406 -64.02135 
L 228.790514 -71.59054 
L 229.937607 -79.686843 
L 231.084715 -87.440678 
L 232.231809 -93.825323 
L 233.378902 -98.353938 
L 234.52601 -100.939429 
L 235.673103 -101.229218 
L 236.820211 -99.475074 
L 237.967305 -95.909377 
L 239.114398 -91.120707 
L 240.261506 -85.792469 
L 241.4086 -80.366558 
L 242.555693 -75.289449 
L 243.702801 -70.525261 
L 244.849894 -66.10787 
L 245.997002 -62.275389 
L 247.144096 -59.001129 
L 248.291189 -56.153111 
L 249.438297 -53.692038 
L 250.585391 -52.134306 
L 251.732499 -50.750142 
L 252.879592 -50.260827 
L 254.026686 -49.301098 
L 255.173794 -48.181892 
L 256.320887 -46.681593 
L 258.615088 -44.578585 
L 260.90929 -41.651253 
L 260.90929 -50.864651 
L 260.90929 -50.864651 
L 258.615088 -51.435377 
L 256.320887 -52.284749 
L 255.173794 -53.420531 
L 254.026686 -54.850487 
L 252.879592 -56.58238 
L 251.732499 -57.563977 
L 250.585391 -59.703343 
L 249.438297 -62.185856 
L 248.291189 -65.078544 
L 247.144096 -68.355282 
L 245.997002 -72.068489 
L 244.849894 -76.198111 
L 243.702801 -80.817357 
L 242.555693 -86.050288 
L 241.4086 -92.173624 
L 240.261506 -98.325164 
L 239.114398 -104.477894 
L 237.967305 -109.947339 
L 236.820211 -114.240595 
L 235.673103 -116.8164 
L 234.52601 -117.000423 
L 233.378902 -114.713401 
L 232.231809 -110.423269 
L 231.084715 -103.003537 
L 229.937607 -93.94536 
L 228.790514 -84.438475 
L 227.643406 -74.971433 
L 225.349219 -66.679962 
L 224.202111 -59.858134 
L 223.055017 -54.737285 
L 221.90791 -51.428397 
L 220.760816 -49.57314 
L 219.613723 -49.055679 
L 218.466615 -49.371537 
L 217.319521 -49.115926 
L 216.172413 -49.097691 
L 215.02532 -49.303126 
L 212.731118 -49.814047 
L 211.584025 -50.622621 
L 210.436932 -51.597365 
L 208.14273 -52.928 
L 206.995622 -54.553765 
L 205.848529 -56.470071 
L 204.701435 -58.690675 
L 203.554327 -61.30203 
L 202.407234 -64.018287 
L 201.260126 -66.908244 
L 200.113032 -70.56141 
L 198.965939 -75.232298 
L 197.818831 -80.658459 
L 195.52463 -86.766598 
L 194.377536 -93.670083 
L 193.230443 -100.734067 
L 192.083335 -107.14867 
L 190.936241 -112.373085 
L 189.789148 -115.781402 
L 188.64204 -116.535215 
L 187.494947 -114.64833 
L 186.347839 -110.198214 
L 185.200745 -103.610671 
L 184.053652 -95.373094 
L 182.906544 -86.428644 
L 181.75945 -77.846823 
L 180.612342 -70.14709 
L 179.465249 -63.555185 
L 178.318155 -58.524142 
L 177.171048 -54.924207 
L 176.023954 -52.554932 
L 174.876846 -51.01192 
L 173.729753 -50.008192 
L 172.582659 -49.39175 
L 171.435551 -48.979444 
L 170.288458 -48.785874 
L 169.14135 -48.742385 
L 167.994256 -48.942223 
L 166.847163 -49.276997 
L 165.700055 -49.786912 
L 164.552962 -50.643915 
L 163.405868 -51.595099 
L 162.25876 -52.319286 
L 161.111667 -54.056474 
L 159.964559 -56.753994 
L 157.670372 -60.236184 
L 156.523264 -64.486315 
L 153.081969 -69.298616 
L 151.934868 -74.91857 
L 150.787768 -80.885522 
L 149.640674 -87.287912 
L 148.493574 -93.973975 
L 147.346473 -100.17594 
L 146.199372 -105.718259 
L 145.052279 -111.704656 
L 143.905178 -115.184295 
L 142.758077 -115.669157 
L 141.610977 -113.053246 
L 140.463876 -107.483571 
L 138.169682 -99.61928 
L 137.022581 -90.2058 
L 135.87548 -80.534829 
L 134.728387 -71.666199 
L 133.581286 -64.320714 
L 132.434186 -59.00392 
L 131.287085 -55.95553 
L 130.139984 -53.238661 
L 128.992891 -51.500396 
L 127.84579 -50.384692 
L 126.698689 -49.71514 
L 125.551589 -49.273561 
L 124.404488 -49.087033 
L 123.257394 -49.055171 
L 122.110294 -49.337985 
L 120.963193 -49.761726 
L 119.816092 -50.336017 
L 118.668999 -51.095523 
L 117.521898 -52.038438 
L 116.374797 -53.219062 
L 115.227697 -54.517695 
L 114.080596 -56.09055 
L 112.933503 -57.771235 
L 111.786402 -59.709713 
L 110.639301 -61.711376 
L 109.492201 -64.642028 
L 108.345107 -67.917636 
L 107.198006 -71.687664 
L 106.050906 -75.904311 
L 104.184263 -80.746991 
L 103.756704 -86.13185 
L 102.609611 -91.887438 
L 101.46251 -97.966689 
L 100.315409 -103.718871 
L 99.168309 -109.006236 
L 98.021215 -113.066104 
L 96.874115 -115.719864 
L 95.727014 -116.227031 
L 94.579913 -113.354095 
L 93.432816 -108.102071 
L 92.285715 -100.562505 
L 91.138618 -91.721353 
L 89.407449 -82.562232 
L 88.844421 -73.878491 
L 87.355378 -66.396262 
L 86.550219 -60.548549 
L 85.403122 -56.37422 
L 84.256021 -53.638164 
L 83.108924 -52.160583 
L 81.692078 -50.611963 
L 80.814727 -49.924381 
L 79.667626 -49.264608 
L 78.520525 -49.026593 
L 77.373428 -49.068992 
L 76.226327 -49.23791 
L 75.07923 -49.648246 
L 73.93213 -50.27366 
L 72.785033 -51.215058 
L 71.637932 -52.199046 
L 70.490835 -53.309126 
L 69.343734 -54.566258 
L 68.196633 -56.04494 
L 67.049536 -57.676993 
L 65.902436 -59.688922 
L 64.755339 -61.903223 
L 63.608238 -64.479686 
L 62.461139 -67.503452 
L 61.31404 -71.169451 
L 60.166941 -75.284116 
L 59.019842 -79.811891 
L 57.872743 -84.876793 
L 56.725645 -90.34098 
L 55.578544 -96.290098 
L 54.431445 -102.180438 
L 53.284346 -107.908109 
L 52.137247 -112.779303 
L 50.990148 -116.297406 
L 49.843049 -117.838773 
L 48.695951 -117.005102 
L 47.548851 -113.402755 
L 46.401752 -107.325065 
L 45.254653 -99.384262 
L 44.107553 -90.319968 
L 42.960454 -81.294129 
L 41.813355 -72.717723 
L 40.666257 -65.546568 
L 39.519157 -59.862486 
L 38.372058 -54.370138 
L 37.224959 -52.26312 
L 36.07786 -50.988341 
L 34.930761 -50.348862 
L 33.783662 -50.14774 
L 32.636563 -50.188034 
z
" style="stroke: #b22222; stroke-opacity: 0.3"/>
    </defs>
    <g clip-path="url(#p03dd5bff62)">
     <use xlink:href="#m8f42a42697" x="0" y="129.399922" style="fill: #b22222; fill-opacity: 0.3; stroke: #b22222; stroke-opacity: 0.3"/>
    </g>
   </g>
   <g id="matplotlib.axis_1">
    <g id="xtick_1">
     <g id="line2d_1">
      <defs>
       <path id="m8234496427" d="M 0 0 
L 0 3.5 
" style="stroke: #000000; stroke-width: 1.5"/>
      </defs>
      <g>
       <use xlink:href="#m8234496427" x="32.636563" y="93.779297" style="stroke: #000000; stroke-width: 1.5"/>
      </g>
     </g>
     <g id="text_1">
      <text style="font: 9px 'Arial', sans-serif; text-anchor: middle" x="32.636563" y="107.617891" transform="rotate(-0 32.636563 107.617891)">0</text>
     </g>
    </g>
    <g id="xtick_2">
     <g id="line2d_2">
      <g>
       <use xlink:href="#m8234496427" x="260.90929" y="93.779297" style="stroke: #000000; stroke-width: 1.5"/>
      </g>
     </g>
     <g id="text_2">
      <text style="font: 9px 'Arial', sans-serif; text-anchor: middle" x="260.90929" y="107.617891" transform="rotate(-0 260.90929 107.617891)">15</text>
     </g>
    </g>
    <g id="text_3">
     <text style="font: 9px 'Arial', sans-serif; text-anchor: middle" x="146.772926" y="120.328203" transform="rotate(-0 146.772926 120.328203)">Time</text>
    </g>
   </g>
   <g id="matplotlib.axis_2">
    <g id="ytick_1">
     <g id="line2d_3">
      <defs>
       <path id="m4d288aeb00" d="M 0 0 
L -3.5 0 
" style="stroke: #000000; stroke-width: 1.5"/>
      </defs>
      <g>
       <use xlink:href="#m4d288aeb00" x="32.636563" y="93.779297" style="stroke: #000000; stroke-width: 1.5"/>
      </g>
     </g>
     <g id="text_4">
      <text style="font: 9px 'Arial', sans-serif; text-anchor: end" x="25.636563" y="97.198594" transform="rotate(-0 25.636563 97.198594)">0</text>
     </g>
    </g>
    <g id="ytick_2">
     <g id="line2d_4">
      <g>
       <use xlink:href="#m4d288aeb00" x="32.636563" y="72.989297" style="stroke: #000000; stroke-width: 1.5"/>
      </g>
     </g>
     <g id="text_5">
      <text style="font: 9px 'Arial', sans-serif; text-anchor: end" x="25.636563" y="76.408594" transform="rotate(-0 25.636563 76.408594)">1</text>
     </g>
    </g>
    <g id="ytick_3">
     <g id="line2d_5">
      <g>
       <use xlink:href="#m4d288aeb00" x="32.636563" y="52.199297" style="stroke: #000000; stroke-width: 1.5"/>
      </g>
     </g>
     <g id="text_6">
      <text style="font: 9px 'Arial', sans-serif; text-anchor: end" x="25.636563" y="55.618594" transform="rotate(-0 25.636563 55.618594)">2</text>
     </g>
    </g>
    <g id="ytick_4">
     <g id="line2d_6">
      <g>
       <use xlink:href="#m4d288aeb00" x="32.636563" y="31.409297" style="stroke: #000000; stroke-width: 1.5"/>
      </g>
     </g>
     <g id="text_7">
      <text style="font: 9px 'Arial', sans-serif; text-anchor: end" x="25.636563" y="34.828594" transform="rotate(-0 25.636563 34.828594)">3</text>
     </g>
    </g>
    <g id="ytick_5">
     <g id="line2d_7">
      <g>
       <use xlink:href="#m4d288aeb00" x="32.636563" y="10.619297" style="stroke: #000000; stroke-width: 1.5"/>
      </g>
     </g>
     <g id="text_8">
      <text style="font: 9px 'Arial', sans-serif; text-anchor: end" x="25.636563" y="14.038594" transform="rotate(-0 25.636563 14.038594)">4</text>
     </g>
    </g>
    <g id="text_9">
     <text style="font: 9px 'Arial', sans-serif; text-anchor: middle" x="14.038594" y="52.199297" transform="rotate(-90 14.038594 52.199297)">Population density</text>
    </g>
   </g>
   <g id="line2d_8">
    <path d="M 32.636563 72.248212 
L 33.783662 70.349738 
L 34.930761 67.461092 
L 37.224959 60.041768 
L 38.372058 56.175339 
L 39.519157 51.181335 
L 40.666257 48.920792 
L 41.813355 48.038034 
L 42.960454 48.825454 
L 44.107553 51.289882 
L 45.254653 55.216697 
L 47.548851 65.533187 
L 48.695951 70.802034 
L 49.843049 75.504712 
L 50.990148 79.358427 
L 52.137247 82.251888 
L 53.284346 84.297093 
L 54.431445 85.756092 
L 55.578544 86.777468 
L 56.725645 87.4838 
L 57.872743 87.954315 
L 59.019842 88.233146 
L 60.166941 88.358571 
L 62.461139 88.286133 
L 64.755339 87.876465 
L 67.049536 87.041724 
L 69.343734 85.734879 
L 70.490835 84.856694 
L 71.637932 83.788032 
L 72.785033 82.511699 
L 76.226327 77.872853 
L 77.373428 75.566823 
L 78.520525 72.723151 
L 79.667626 69.486461 
L 80.814727 65.35879 
L 83.108924 60.820239 
L 84.256021 56.460234 
L 85.403122 52.936827 
L 86.550219 50.98664 
L 88.844421 51.099162 
L 91.138618 53.455172 
L 92.285715 57.279261 
L 93.432816 62.342503 
L 95.727014 73.542498 
L 96.874115 77.910391 
L 98.021215 81.441941 
L 99.168309 84.069318 
L 100.315409 85.867267 
L 101.46251 87.129332 
L 102.609611 88.004752 
L 103.756704 88.518399 
L 107.198006 88.822993 
L 108.345107 88.677391 
L 110.639301 88.000605 
L 112.933503 87.239541 
L 115.227697 85.907724 
L 117.521898 84.105132 
L 118.668999 83.013616 
L 120.963193 80.311562 
L 122.110294 78.64418 
L 123.257394 76.613422 
L 124.404488 74.221526 
L 125.551589 71.402496 
L 127.84579 64.603784 
L 131.287085 53.532083 
L 133.581286 48.400534 
L 134.728387 47.20468 
L 135.87548 47.564851 
L 137.022581 49.71928 
L 138.169682 53.473477 
L 138.390413 58.439743 
L 140.463876 64.058582 
L 142.758077 75.100547 
L 143.905178 79.605297 
L 145.052279 83.174414 
L 146.199372 85.057437 
L 147.346473 86.381632 
L 148.493574 87.169039 
L 149.640674 87.683376 
L 150.787768 88.011989 
L 153.081969 88.248602 
L 155.108025 88.14589 
L 157.670372 87.749587 
L 157.829683 87.407414 
L 159.964559 86.961607 
L 161.111667 86.377445 
L 162.25876 85.660093 
L 163.405868 84.781616 
L 164.552962 83.723162 
L 165.700055 82.496845 
L 166.847163 81.042028 
L 167.994256 79.396976 
L 169.14135 77.549159 
L 170.288458 75.388716 
L 171.435551 72.876499 
L 172.582659 69.974343 
L 174.876846 63.130364 
L 178.318155 52.147955 
L 179.465249 49.591823 
L 180.612342 48.342055 
L 181.75945 48.606977 
L 182.906544 50.463859 
L 184.053652 53.916947 
L 185.200745 58.587947 
L 188.64204 74.495795 
L 189.789148 78.753795 
L 190.936241 82.036127 
L 192.083335 84.441897 
L 193.230443 86.042226 
L 194.377536 86.995452 
L 195.52463 87.563111 
L 196.02532 87.948273 
L 198.965939 88.189423 
L 201.260126 88.037225 
L 203.554327 87.585921 
L 205.848529 86.866642 
L 208.14273 85.752114 
L 210.436932 84.158654 
L 211.584025 83.07805 
L 212.731118 81.758265 
L 213.048536 80.105243 
L 215.02532 78.081317 
L 216.172413 75.741756 
L 217.319521 73.080833 
L 218.466615 70.139174 
L 224.202111 53.647493 
L 225.349219 50.977024 
L 225.908572 49.2766 
L 227.643406 48.93527 
L 228.790514 50.225525 
L 229.937607 53.120102 
L 231.084715 57.385607 
L 235.673103 77.704797 
L 236.820211 81.135712 
L 237.967305 83.649692 
L 239.114398 85.358556 
L 240.261506 86.479412 
L 241.4086 87.226515 
L 242.555693 87.731664 
L 243.702801 88.065728 
L 244.849894 88.270644 
L 245.997002 88.357985 
L 247.144096 88.331897 
L 249.438297 87.912496 
L 251.732499 87.06781 
L 254.026686 85.929315 
L 255.173794 85.589754 
L 256.320887 84.800532 
L 256.542112 83.841149 
L 258.615088 82.683576 
L 259.034665 81.299782 
L 260.90929 79.661734 
L 260.90929 79.661734 
" clip-path="url(#p03dd5bff62)" style="fill: none; stroke: #2e8b57; stroke-width: 1.5; stroke-linecap: square"/>
   </g>
   <g id="line2d_9">
    <path d="M 32.636563 83.230791 
L 33.783662 82.902277 
L 34.930761 82.431636 
L 36.07786 81.647803 
L 37.224959 80.379713 
L 38.372058 78.456294 
L 40.666257 69.01241 
L 41.813355 62.920828 
L 42.960454 55.577494 
L 46.401752 31.605633 
L 47.548851 25.467714 
L 48.695951 21.469973 
L 49.843049 19.988974 
L 50.990148 20.925998 
L 52.137247 23.850761 
L 53.284346 28.156408 
L 55.578544 38.900813 
L 57.872743 49.481258 
L 59.019842 54.16807 
L 60.166941 58.36449 
L 61.31404 62.136296 
L 62.461139 65.493481 
L 63.608238 68.389937 
L 64.755339 70.864107 
L 67.049536 74.906458 
L 68.196633 76.581001 
L 70.490835 79.333013 
L 71.637932 80.483562 
L 72.785033 81.467035 
L 73.93213 82.256783 
L 75.07923 82.826167 
L 76.226327 83.209574 
L 77.373428 83.426692 
L 78.520525 83.434629 
L 79.667626 83.206896 
L 80.814727 82.595938 
L 81.692078 81.929442 
L 83.108924 80.457378 
L 84.256021 78.992884 
L 85.403122 76.478636 
L 86.550219 72.677955 
L 87.355378 67.499526 
L 88.844421 60.918489 
L 89.407449 53.21084 
L 91.138618 44.882719 
L 92.285715 36.756163 
L 93.432816 29.674781 
L 94.579913 24.559399 
L 95.727014 21.477939 
L 96.874115 21.46001 
L 98.021215 23.510249 
L 99.168309 26.850565 
L 100.315409 31.494696 
L 103.756704 47.567359 
L 104.184263 52.561918 
L 106.050906 57.130512 
L 107.198006 61.204323 
L 108.345107 64.826527 
L 109.492201 68.063678 
L 110.639301 70.923969 
L 112.933503 74.872913 
L 115.227697 78.050456 
L 116.374797 79.27962 
L 117.521898 80.308109 
L 118.668999 81.184318 
L 119.816092 81.892658 
L 122.110294 82.905522 
L 123.257394 83.190555 
L 124.404488 83.294365 
L 125.551589 83.207582 
L 126.698689 82.882014 
L 127.84579 82.243539 
L 128.992891 81.158986 
L 130.139984 79.504367 
L 131.287085 77.128124 
L 132.434186 73.785573 
L 133.581286 68.488095 
L 134.728387 61.442025 
L 138.169682 35.492669 
L 140.463876 28.281536 
L 141.610977 23.303485 
L 142.758077 21.069277 
L 143.905178 21.729939 
L 145.052279 25.023626 
L 148.493574 40.306019 
L 151.934868 58.297438 
L 153.081969 63.719131 
L 156.523264 68.602236 
L 157.670372 72.826793 
L 159.964559 76.283616 
L 161.111667 78.873248 
L 162.25876 80.453183 
L 163.405868 80.723241 
L 166.847163 82.704012 
L 167.994256 83.103684 
L 169.14135 83.360657 
L 170.288458 83.469245 
L 171.435551 83.404533 
L 172.582659 83.123097 
L 173.729753 82.57919 
L 174.876846 81.671433 
L 176.023954 80.23111 
L 177.171048 78.049877 
L 178.318155 74.801947 
L 179.465249 70.203274 
L 180.612342 64.200255 
L 181.75945 57.050438 
L 185.200745 33.231076 
L 186.347839 26.965655 
L 187.494947 22.735866 
L 188.64204 20.96064 
L 189.789148 21.159673 
L 190.936241 23.908264 
L 192.083335 28.541719 
L 193.230443 34.355444 
L 195.52463 47.26542 
L 197.818831 53.235973 
L 198.965939 58.564848 
L 200.113032 63.147574 
L 201.260126 66.885601 
L 202.407234 69.859843 
L 205.848529 76.59439 
L 206.995622 78.183965 
L 208.14273 79.567503 
L 210.436932 80.722699 
L 211.584025 81.63775 
L 212.731118 82.307867 
L 216.172413 82.96427 
L 219.613723 83.293607 
L 220.760816 82.524635 
L 221.90791 80.911833 
L 223.055017 78.007026 
L 224.202111 73.549564 
L 225.349219 67.519876 
L 227.643406 60.052148 
L 231.084715 34.390136 
L 232.231809 27.552015 
L 233.378902 23.178774 
L 234.52601 20.800652 
L 235.673103 20.828172 
L 236.820211 23.01484 
L 237.967305 26.902075 
L 239.114398 31.999167 
L 242.555693 48.92675 
L 243.702801 53.950291 
L 244.849894 58.42352 
L 245.997002 62.349913 
L 247.144096 65.781226 
L 248.291189 68.826624 
L 249.438297 71.501252 
L 251.732499 75.147821 
L 252.879592 75.889903 
L 256.320887 80.114041 
L 258.615088 81.805347 
L 260.90929 83.843976 
L 260.90929 83.843976 
" clip-path="url(#p03dd5bff62)" style="fill: none; stroke: #b22222; stroke-width: 1.5; stroke-linecap: square"/>
   </g>
   <g id="patch_3">
    <path d="M 32.636563 93.779297 
L 32.636563 10.619297 
" style="fill: none; stroke: #000000; stroke-width: 1.5; stroke-linejoin: miter; stroke-linecap: square"/>
   </g>
   <g id="patch_4">
    <path d="M 32.636563 93.779297 
L 260.90929 93.779297 
" style="fill: none; stroke: #000000; stroke-width: 1.5; stroke-linejoin: miter; stroke-linecap: square"/>
   </g>
  </g>
  <g id="axes_2">
   <g id="patch_5">
    <path d="M 291.345653 28.697558 
L 367.436562 28.697558 
L 367.436562 10.619297 
L 291.345653 10.619297 
z
" style="fill: #ffffff"/>
   </g>
   <g id="PolyCollection_3">
    <defs>
     <path id="m778bafd079" d="M 337.554556 -100.703041 
L 337.554556 -100.702364 
L 337.674365 -100.702364 
L 337.794175 -100.702364 
L 337.913985 -100.702364 
L 338.033795 -100.702364 
L 338.153605 -100.702364 
L 338.273415 -100.702364 
L 338.393225 -100.702364 
L 338.513035 -100.702364 
L 338.632845 -100.702364 
L 338.752655 -100.702364 
L 338.872465 -100.702364 
L 338.992275 -100.702364 
L 339.112084 -100.702364 
L 339.231894 -100.702364 
L 339.351704 -100.702364 
L 339.471514 -100.702364 
L 339.591324 -100.702364 
L 339.711134 -100.702364 
L 339.830944 -100.702364 
L 339.950754 -100.702364 
L 340.070564 -100.702364 
L 340.190374 -100.702364 
L 340.310184 -100.702364 
L 340.429994 -100.702364 
L 340.549804 -100.702364 
L 340.669613 -100.702364 
L 340.789423 -100.702364 
L 340.909233 -100.702364 
L 341.029043 -100.702364 
L 341.148853 -100.702364 
L 341.268663 -100.702364 
L 341.388473 -100.702364 
L 341.508283 -100.702364 
L 341.628093 -100.702364 
L 341.747903 -100.702364 
L 341.867713 -100.702364 
L 341.987523 -100.702364 
L 342.107332 -100.702364 
L 342.227142 -100.702364 
L 342.346952 -100.702364 
L 342.466762 -100.702364 
L 342.586572 -100.702364 
L 342.706382 -100.702364 
L 342.826192 -100.702364 
L 342.946002 -100.702364 
L 343.065812 -100.702364 
L 343.185622 -100.702364 
L 343.305432 -100.702364 
L 343.425242 -100.702364 
L 343.545051 -100.702364 
L 343.664861 -100.702364 
L 343.784671 -100.702364 
L 343.904481 -100.702364 
L 344.024291 -100.702364 
L 344.144101 -100.702364 
L 344.263911 -100.702364 
L 344.383721 -100.702364 
L 344.503531 -100.702364 
L 344.623341 -100.702364 
L 344.743151 -100.702364 
L 344.862961 -100.702364 
L 344.98277 -100.702364 
L 345.10258 -100.702364 
L 345.22239 -100.702364 
L 345.3422 -100.702364 
L 345.46201 -100.702364 
L 345.58182 -100.702364 
L 345.70163 -100.702364 
L 345.82144 -100.702364 
L 345.94125 -100.702364 
L 346.06106 -100.702364 
L 346.18087 -100.702364 
L 346.30068 -100.702364 
L 346.420489 -100.702364 
L 346.540299 -100.702364 
L 346.660109 -100.702364 
L 346.779919 -100.702364 
L 346.899729 -100.702364 
L 347.019539 -100.702364 
L 347.139349 -100.702364 
L 347.259159 -100.702364 
L 347.378969 -100.702364 
L 347.498779 -100.702364 
L 347.618589 -100.702364 
L 347.738399 -100.702364 
L 347.858209 -100.702364 
L 347.978018 -100.702364 
L 348.097828 -100.702364 
L 348.217638 -100.702364 
L 348.337448 -100.702364 
L 348.457258 -100.702364 
L 348.577068 -100.702364 
L 348.696878 -100.702364 
L 348.816688 -100.702364 
L 348.936498 -100.702364 
L 349.056308 -100.702364 
L 349.176118 -100.702364 
L 349.295928 -100.702364 
L 349.415737 -100.702364 
L 349.535547 -100.702364 
L 349.655357 -100.702364 
L 349.775167 -100.702364 
L 349.894977 -100.702364 
L 350.014787 -100.702364 
L 350.134597 -100.702364 
L 350.254407 -100.702364 
L 350.374217 -100.702364 
L 350.494027 -100.702364 
L 350.613837 -100.702364 
L 350.733647 -100.702364 
L 350.853456 -100.702364 
L 350.973266 -100.702364 
L 351.093076 -100.702364 
L 351.212886 -100.702364 
L 351.332696 -100.702364 
L 351.452506 -100.702364 
L 351.572316 -100.702364 
L 351.692126 -100.702364 
L 351.811936 -100.702364 
L 351.931746 -100.702364 
L 352.051556 -100.702364 
L 352.171366 -100.702364 
L 352.291175 -100.702364 
L 352.410985 -100.702364 
L 352.530795 -100.702364 
L 352.650605 -100.702364 
L 352.770415 -100.702364 
L 352.890225 -100.702364 
L 353.010035 -100.702364 
L 353.129845 -100.702364 
L 353.249655 -100.702364 
L 353.369465 -100.702364 
L 353.489275 -100.702364 
L 353.609085 -100.702364 
L 353.728895 -100.702364 
L 353.848704 -100.702364 
L 353.968514 -100.702364 
L 354.088324 -100.702364 
L 354.208134 -100.702364 
L 354.327944 -100.702364 
L 354.447754 -100.702364 
L 354.567564 -100.702364 
L 354.687374 -100.702364 
L 354.807184 -100.702364 
L 354.926994 -100.702364 
L 355.046804 -100.702364 
L 355.166614 -100.702364 
L 355.286423 -100.702364 
L 355.406233 -100.702364 
L 355.526043 -100.702364 
L 355.645853 -100.702364 
L 355.765663 -100.702364 
L 355.885473 -100.702364 
L 356.005283 -100.702364 
L 356.125093 -100.702364 
L 356.244903 -100.702364 
L 356.364713 -100.702364 
L 356.484523 -100.702364 
L 356.604333 -100.702364 
L 356.724142 -100.702364 
L 356.843952 -100.702364 
L 356.963762 -100.702364 
L 357.083572 -100.702364 
L 357.203382 -100.702364 
L 357.323192 -100.702364 
L 357.443002 -100.702364 
L 357.562812 -100.702364 
L 357.682622 -100.702364 
L 357.802432 -100.702364 
L 357.922242 -100.702364 
L 358.042052 -100.702364 
L 358.161861 -100.702364 
L 358.281671 -100.702364 
L 358.401481 -100.702364 
L 358.521291 -100.702364 
L 358.641101 -100.702364 
L 358.760911 -100.702364 
L 358.880721 -100.702364 
L 359.000531 -100.702364 
L 359.120341 -100.702364 
L 359.240151 -100.702364 
L 359.359961 -100.702364 
L 359.479771 -100.702364 
L 359.599581 -100.702364 
L 359.71939 -100.702364 
L 359.8392 -100.702364 
L 359.95901 -100.702364 
L 360.07882 -100.702364 
L 360.19863 -100.702364 
L 360.31844 -100.702364 
L 360.43825 -100.702364 
L 360.55806 -100.702364 
L 360.67787 -100.702364 
L 360.79768 -100.702364 
L 360.91749 -100.702364 
L 361.0373 -100.702364 
L 361.157109 -100.702364 
L 361.276919 -100.702364 
L 361.396729 -100.702364 
L 361.396729 -100.703097 
L 361.396729 -100.703097 
L 361.276919 -100.703527 
L 361.157109 -100.70417 
L 361.0373 -100.705111 
L 360.91749 -100.706458 
L 360.79768 -100.708347 
L 360.67787 -100.71094 
L 360.55806 -100.714429 
L 360.43825 -100.719033 
L 360.31844 -100.724998 
L 360.19863 -100.732589 
L 360.07882 -100.742089 
L 359.95901 -100.75379 
L 359.8392 -100.767986 
L 359.71939 -100.78496 
L 359.599581 -100.804976 
L 359.479771 -100.828263 
L 359.359961 -100.854991 
L 359.240151 -100.885255 
L 359.120341 -100.919049 
L 359.000531 -100.956242 
L 358.880721 -100.99656 
L 358.760911 -101.039575 
L 358.641101 -101.08471 
L 358.521291 -101.131256 
L 358.401481 -101.178413 
L 358.281671 -101.225344 
L 358.161861 -101.271244 
L 358.042052 -101.315423 
L 357.922242 -101.357384 
L 357.802432 -101.396897 
L 357.682622 -101.434066 
L 357.562812 -101.469369 
L 357.443002 -101.503679 
L 357.323192 -101.538261 
L 357.203382 -101.574742 
L 357.083572 -101.615055 
L 356.963762 -101.661355 
L 356.843952 -101.715923 
L 356.724142 -101.781034 
L 356.604333 -101.858828 
L 356.484523 -101.951159 
L 356.364713 -102.059454 
L 356.244903 -102.18459 
L 356.125093 -102.326797 
L 356.005283 -102.485602 
L 355.885473 -102.659825 
L 355.765663 -102.847637 
L 355.645853 -103.046664 
L 355.526043 -103.25414 
L 355.406233 -103.467103 
L 355.286423 -103.682591 
L 355.166614 -103.897863 
L 355.046804 -104.110587 
L 354.926994 -104.319014 
L 354.807184 -104.522111 
L 354.687374 -104.719645 
L 354.567564 -104.912218 
L 354.447754 -105.101232 
L 354.327944 -105.288798 
L 354.208134 -105.477567 
L 354.088324 -105.670513 
L 353.968514 -105.870664 
L 353.848704 -106.080822 
L 353.728895 -106.30329 
L 353.609085 -106.539653 
L 353.489275 -106.790632 
L 353.369465 -107.056044 
L 353.249655 -107.334861 
L 353.129845 -107.625367 
L 353.010035 -107.925385 
L 352.890225 -108.232516 
L 352.770415 -108.544385 
L 352.650605 -108.858819 
L 352.530795 -109.173961 
L 352.410985 -109.488306 
L 352.291175 -109.800672 
L 352.171366 -110.110132 
L 352.051556 -110.415945 
L 351.931746 -110.717508 
L 351.811936 -111.014357 
L 351.692126 -111.306208 
L 351.572316 -111.593028 
L 351.452506 -111.875106 
L 351.332696 -112.153086 
L 351.212886 -112.427929 
L 351.093076 -112.700793 
L 350.973266 -112.97281 
L 350.853456 -113.244813 
L 350.733647 -113.51702 
L 350.613837 -113.788754 
L 350.494027 -114.058231 
L 350.374217 -114.322467 
L 350.254407 -114.577335 
L 350.134597 -114.817761 
L 350.014787 -115.038048 
L 349.894977 -115.232302 
L 349.775167 -115.394882 
L 349.655357 -115.520862 
L 349.535547 -115.606425 
L 349.415737 -115.649175 
L 349.295928 -115.648338 
L 349.176118 -115.604836 
L 349.056308 -115.52125 
L 348.936498 -115.401677 
L 348.816688 -115.251485 
L 348.696878 -115.077007 
L 348.577068 -114.885167 
L 348.457258 -114.683076 
L 348.337448 -114.477598 
L 348.217638 -114.274933 
L 348.097828 -114.080219 
L 347.978018 -113.897196 
L 347.858209 -113.727964 
L 347.738399 -113.572861 
L 347.618589 -113.430477 
L 347.498779 -113.29782 
L 347.378969 -113.170618 
L 347.259159 -113.043724 
L 347.139349 -112.911592 
L 347.019539 -112.768754 
L 346.899729 -112.610253 
L 346.779919 -112.431975 
L 346.660109 -112.230862 
L 346.540299 -112.004981 
L 346.420489 -111.753468 
L 346.30068 -111.476378 
L 346.18087 -111.174485 
L 346.06106 -110.849063 
L 345.94125 -110.501711 
L 345.82144 -110.134222 
L 345.70163 -109.748533 
L 345.58182 -109.346729 
L 345.46201 -108.931105 
L 345.3422 -108.504243 
L 345.22239 -108.069081 
L 345.10258 -107.628951 
L 344.98277 -107.187563 
L 344.862961 -106.748928 
L 344.743151 -106.317217 
L 344.623341 -105.89658 
L 344.503531 -105.490939 
L 344.383721 -105.103788 
L 344.263911 -104.738021 
L 344.144101 -104.395822 
L 344.024291 -104.078617 
L 343.904481 -103.787098 
L 343.784671 -103.521307 
L 343.664861 -103.28075 
L 343.545051 -103.064536 
L 343.425242 -102.871484 
L 343.305432 -102.700215 
L 343.185622 -102.549193 
L 343.065812 -102.416733 
L 342.946002 -102.300985 
L 342.826192 -102.199914 
L 342.706382 -102.111304 
L 342.586572 -102.032786 
L 342.466762 -101.961917 
L 342.346952 -101.896282 
L 342.227142 -101.833633 
L 342.107332 -101.772025 
L 341.987523 -101.709933 
L 341.867713 -101.646341 
L 341.747903 -101.580776 
L 341.628093 -101.513295 
L 341.508283 -101.444423 
L 341.388473 -101.375045 
L 341.268663 -101.306287 
L 341.148853 -101.239377 
L 341.029043 -101.175512 
L 340.909233 -101.115751 
L 340.789423 -101.060924 
L 340.669613 -101.011583 
L 340.549804 -100.967975 
L 340.429994 -100.930057 
L 340.310184 -100.897532 
L 340.190374 -100.869905 
L 340.070564 -100.846552 
L 339.950754 -100.826793 
L 339.830944 -100.809956 
L 339.711134 -100.795435 
L 339.591324 -100.782722 
L 339.471514 -100.771428 
L 339.351704 -100.761283 
L 339.231894 -100.752119 
L 339.112084 -100.743853 
L 338.992275 -100.736452 
L 338.872465 -100.729909 
L 338.752655 -100.724224 
L 338.632845 -100.71938 
L 338.513035 -100.715345 
L 338.393225 -100.712062 
L 338.273415 -100.709455 
L 338.153605 -100.707436 
L 338.033795 -100.705912 
L 337.913985 -100.704791 
L 337.794175 -100.703986 
L 337.674365 -100.703424 
L 337.554556 -100.703041 
z
" style="stroke: #000080"/>
    </defs>
    <g clip-path="url(#p0fdcea7eef)">
     <use xlink:href="#m778bafd079" x="0" y="129.399922" style="fill: #000080; fill-opacity: 0.25; stroke: #000080"/>
    </g>
   </g>
   <g id="matplotlib.axis_3"/>
   <g id="matplotlib.axis_4">
    <g id="text_10">
     <!-- $\theta_1$ -->
     <g transform="translate(285.473935 24.608427) rotate(-90)">
      <text>
       <tspan style="font: 9px 'DejaVu Sans'" x="0" y="-0.09375">θ</tspan>
       <tspan style="font: 6.3px 'DejaVu Sans'" x="5.59248" y="1.3828125">1</tspan>
      </text>
     </g>
    </g>
   </g>
   <g id="LineCollection_1">
    <path d="M 342.885455 28.697558 
L 342.885455 11.480166 
" clip-path="url(#p0fdcea7eef)" style="fill: none; stroke: #000080; stroke-width: 1.5"/>
   </g>
   <g id="patch_6">
    <path d="M 291.345653 28.697558 
L 291.345653 10.619297 
" style="fill: none; stroke: #000000; stroke-width: 1.5; stroke-linejoin: miter; stroke-linecap: square"/>
   </g>
   <g id="patch_7">
    <path d="M 291.345653 28.697558 
L 367.436562 28.697558 
" style="fill: none; stroke: #000000; stroke-width: 1.5; stroke-linejoin: miter; stroke-linecap: square"/>
   </g>
  </g>
  <g id="axes_3">
   <g id="patch_8">
    <path d="M 291.345653 50.391471 
L 367.436562 50.391471 
L 367.436562 32.31321 
L 291.345653 32.31321 
z
" style="fill: #ffffff"/>
   </g>
   <g id="PolyCollection_4">
    <defs>
     <path id="m2721cf302d" d="M 306.365091 -79.009268 
L 306.365091 -79.008451 
L 306.467793 -79.008451 
L 306.570494 -79.008451 
L 306.673196 -79.008451 
L 306.775897 -79.008451 
L 306.878598 -79.008451 
L 306.9813 -79.008451 
L 307.084001 -79.008451 
L 307.186703 -79.008451 
L 307.289404 -79.008451 
L 307.392105 -79.008451 
L 307.494807 -79.008451 
L 307.597508 -79.008451 
L 307.70021 -79.008451 
L 307.802911 -79.008451 
L 307.905612 -79.008451 
L 308.008314 -79.008451 
L 308.111015 -79.008451 
L 308.213717 -79.008451 
L 308.316418 -79.008451 
L 308.419119 -79.008451 
L 308.521821 -79.008451 
L 308.624522 -79.008451 
L 308.727224 -79.008451 
L 308.829925 -79.008451 
L 308.932626 -79.008451 
L 309.035328 -79.008451 
L 309.138029 -79.008451 
L 309.240731 -79.008451 
L 309.343432 -79.008451 
L 309.446133 -79.008451 
L 309.548835 -79.008451 
L 309.651536 -79.008451 
L 309.754237 -79.008451 
L 309.856939 -79.008451 
L 309.95964 -79.008451 
L 310.062342 -79.008451 
L 310.165043 -79.008451 
L 310.267744 -79.008451 
L 310.370446 -79.008451 
L 310.473147 -79.008451 
L 310.575849 -79.008451 
L 310.67855 -79.008451 
L 310.781251 -79.008451 
L 310.883953 -79.008451 
L 310.986654 -79.008451 
L 311.089356 -79.008451 
L 311.192057 -79.008451 
L 311.294758 -79.008451 
L 311.39746 -79.008451 
L 311.500161 -79.008451 
L 311.602863 -79.008451 
L 311.705564 -79.008451 
L 311.808265 -79.008451 
L 311.910967 -79.008451 
L 312.013668 -79.008451 
L 312.11637 -79.008451 
L 312.219071 -79.008451 
L 312.321772 -79.008451 
L 312.424474 -79.008451 
L 312.527175 -79.008451 
L 312.629877 -79.008451 
L 312.732578 -79.008451 
L 312.835279 -79.008451 
L 312.937981 -79.008451 
L 313.040682 -79.008451 
L 313.143384 -79.008451 
L 313.246085 -79.008451 
L 313.348786 -79.008451 
L 313.451488 -79.008451 
L 313.554189 -79.008451 
L 313.656891 -79.008451 
L 313.759592 -79.008451 
L 313.862293 -79.008451 
L 313.964995 -79.008451 
L 314.067696 -79.008451 
L 314.170397 -79.008451 
L 314.273099 -79.008451 
L 314.3758 -79.008451 
L 314.478502 -79.008451 
L 314.581203 -79.008451 
L 314.683904 -79.008451 
L 314.786606 -79.008451 
L 314.889307 -79.008451 
L 314.992009 -79.008451 
L 315.09471 -79.008451 
L 315.197411 -79.008451 
L 315.300113 -79.008451 
L 315.402814 -79.008451 
L 315.505516 -79.008451 
L 315.608217 -79.008451 
L 315.710918 -79.008451 
L 315.81362 -79.008451 
L 315.916321 -79.008451 
L 316.019023 -79.008451 
L 316.121724 -79.008451 
L 316.224425 -79.008451 
L 316.327127 -79.008451 
L 316.429828 -79.008451 
L 316.53253 -79.008451 
L 316.635231 -79.008451 
L 316.737932 -79.008451 
L 316.840634 -79.008451 
L 316.943335 -79.008451 
L 317.046037 -79.008451 
L 317.148738 -79.008451 
L 317.251439 -79.008451 
L 317.354141 -79.008451 
L 317.456842 -79.008451 
L 317.559544 -79.008451 
L 317.662245 -79.008451 
L 317.764946 -79.008451 
L 317.867648 -79.008451 
L 317.970349 -79.008451 
L 318.073051 -79.008451 
L 318.175752 -79.008451 
L 318.278453 -79.008451 
L 318.381155 -79.008451 
L 318.483856 -79.008451 
L 318.586557 -79.008451 
L 318.689259 -79.008451 
L 318.79196 -79.008451 
L 318.894662 -79.008451 
L 318.997363 -79.008451 
L 319.100064 -79.008451 
L 319.202766 -79.008451 
L 319.305467 -79.008451 
L 319.408169 -79.008451 
L 319.51087 -79.008451 
L 319.613571 -79.008451 
L 319.716273 -79.008451 
L 319.818974 -79.008451 
L 319.921676 -79.008451 
L 320.024377 -79.008451 
L 320.127078 -79.008451 
L 320.22978 -79.008451 
L 320.332481 -79.008451 
L 320.435183 -79.008451 
L 320.537884 -79.008451 
L 320.640585 -79.008451 
L 320.743287 -79.008451 
L 320.845988 -79.008451 
L 320.94869 -79.008451 
L 321.051391 -79.008451 
L 321.154092 -79.008451 
L 321.256794 -79.008451 
L 321.359495 -79.008451 
L 321.462197 -79.008451 
L 321.564898 -79.008451 
L 321.667599 -79.008451 
L 321.770301 -79.008451 
L 321.873002 -79.008451 
L 321.975704 -79.008451 
L 322.078405 -79.008451 
L 322.181106 -79.008451 
L 322.283808 -79.008451 
L 322.386509 -79.008451 
L 322.489211 -79.008451 
L 322.591912 -79.008451 
L 322.694613 -79.008451 
L 322.797315 -79.008451 
L 322.900016 -79.008451 
L 323.002717 -79.008451 
L 323.105419 -79.008451 
L 323.20812 -79.008451 
L 323.310822 -79.008451 
L 323.413523 -79.008451 
L 323.516224 -79.008451 
L 323.618926 -79.008451 
L 323.721627 -79.008451 
L 323.824329 -79.008451 
L 323.92703 -79.008451 
L 324.029731 -79.008451 
L 324.132433 -79.008451 
L 324.235134 -79.008451 
L 324.337836 -79.008451 
L 324.440537 -79.008451 
L 324.543238 -79.008451 
L 324.64594 -79.008451 
L 324.748641 -79.008451 
L 324.851343 -79.008451 
L 324.954044 -79.008451 
L 325.056745 -79.008451 
L 325.159447 -79.008451 
L 325.262148 -79.008451 
L 325.36485 -79.008451 
L 325.467551 -79.008451 
L 325.570252 -79.008451 
L 325.672954 -79.008451 
L 325.775655 -79.008451 
L 325.878357 -79.008451 
L 325.981058 -79.008451 
L 326.083759 -79.008451 
L 326.186461 -79.008451 
L 326.289162 -79.008451 
L 326.391864 -79.008451 
L 326.494565 -79.008451 
L 326.597266 -79.008451 
L 326.699968 -79.008451 
L 326.802669 -79.008451 
L 326.802669 -79.009227 
L 326.802669 -79.009227 
L 326.699968 -79.009692 
L 326.597266 -79.010386 
L 326.494565 -79.011391 
L 326.391864 -79.012804 
L 326.289162 -79.01473 
L 326.186461 -79.017278 
L 326.083759 -79.020542 
L 325.981058 -79.024592 
L 325.878357 -79.029451 
L 325.775655 -79.035079 
L 325.672954 -79.041364 
L 325.570252 -79.048113 
L 325.467551 -79.055061 
L 325.36485 -79.061893 
L 325.262148 -79.06827 
L 325.159447 -79.073881 
L 325.056745 -79.078487 
L 324.954044 -79.081967 
L 324.851343 -79.084359 
L 324.748641 -79.08588 
L 324.64594 -79.086925 
L 324.543238 -79.088043 
L 324.440537 -79.089892 
L 324.337836 -79.093175 
L 324.235134 -79.098563 
L 324.132433 -79.106626 
L 324.029731 -79.117762 
L 323.92703 -79.132153 
L 323.824329 -79.149741 
L 323.721627 -79.170234 
L 323.618926 -79.193144 
L 323.516224 -79.217849 
L 323.413523 -79.243675 
L 323.310822 -79.269992 
L 323.20812 -79.296306 
L 323.105419 -79.322338 
L 323.002717 -79.348087 
L 322.900016 -79.373857 
L 322.797315 -79.400259 
L 322.694613 -79.428174 
L 322.591912 -79.458698 
L 322.489211 -79.493065 
L 322.386509 -79.532558 
L 322.283808 -79.578423 
L 322.181106 -79.63178 
L 322.078405 -79.693544 
L 321.975704 -79.76435 
L 321.873002 -79.844495 
L 321.770301 -79.933886 
L 321.667599 -80.032006 
L 321.564898 -80.137909 
L 321.462197 -80.250242 
L 321.359495 -80.367312 
L 321.256794 -80.487198 
L 321.154092 -80.607911 
L 321.051391 -80.727587 
L 320.94869 -80.844709 
L 320.845988 -80.958318 
L 320.743287 -81.068207 
L 320.640585 -81.175043 
L 320.537884 -81.280419 
L 320.435183 -81.386798 
L 320.332481 -81.497355 
L 320.22978 -81.615727 
L 320.127078 -81.745678 
L 320.024377 -81.89073 
L 319.921676 -82.053792 
L 319.818974 -82.236838 
L 319.716273 -82.440669 
L 319.613571 -82.664813 
L 319.51087 -82.90756 
L 319.408169 -83.166157 
L 319.305467 -83.437132 
L 319.202766 -83.716713 
L 319.100064 -84.001291 
L 318.997363 -84.287868 
L 318.894662 -84.574424 
L 318.79196 -84.860163 
L 318.689259 -85.145601 
L 318.586557 -85.432493 
L 318.483856 -85.723616 
L 318.381155 -86.022429 
L 318.278453 -86.332675 
L 318.175752 -86.657968 
L 318.073051 -87.001394 
L 317.970349 -87.365188 
L 317.867648 -87.750481 
L 317.764946 -88.157136 
L 317.662245 -88.583679 
L 317.559544 -89.027309 
L 317.456842 -89.483996 
L 317.354141 -89.948674 
L 317.251439 -90.415513 
L 317.148738 -90.87829 
L 317.046037 -91.330821 
L 316.943335 -91.767439 
L 316.840634 -92.183448 
L 316.737932 -92.575499 
L 316.635231 -92.941817 
L 316.53253 -93.282226 
L 316.429828 -93.597952 
L 316.327127 -93.891237 
L 316.224425 -94.164811 
L 316.121724 -94.421323 
L 316.019023 -94.662841 
L 315.916321 -94.890504 
L 315.81362 -95.104383 
L 315.710918 -95.303577 
L 315.608217 -95.486489 
L 315.505516 -95.651219 
L 315.402814 -95.795985 
L 315.300113 -95.919478 
L 315.197411 -96.021095 
L 315.09471 -96.101008 
L 314.992009 -96.160075 
L 314.889307 -96.19962 
L 314.786606 -96.221119 
L 314.683904 -96.225842 
L 314.581203 -96.214509 
L 314.478502 -96.186973 
L 314.3758 -96.141999 
L 314.273099 -96.077138 
L 314.170397 -95.988747 
L 314.067696 -95.872151 
L 313.964995 -95.721963 
L 313.862293 -95.532542 
L 313.759592 -95.298564 
L 313.656891 -95.015647 
L 313.554189 -94.680973 
L 313.451488 -94.293824 
L 313.348786 -93.855989 
L 313.246085 -93.371948 
L 313.143384 -92.848834 
L 313.040682 -92.296117 
L 312.937981 -91.725049 
L 312.835279 -91.147882 
L 312.732578 -90.576933 
L 312.629877 -90.023584 
L 312.527175 -89.497315 
L 312.424474 -89.004894 
L 312.321772 -88.549822 
L 312.219071 -88.132127 
L 312.11637 -87.748543 
L 312.013668 -87.393069 
L 311.910967 -87.057842 
L 311.808265 -86.73423 
L 311.705564 -86.413966 
L 311.602863 -86.090208 
L 311.500161 -85.758343 
L 311.39746 -85.416456 
L 311.294758 -85.06539 
L 311.192057 -84.708421 
L 311.089356 -84.350612 
L 310.986654 -83.997954 
L 310.883953 -83.65646 
L 310.781251 -83.33133 
L 310.67855 -83.026322 
L 310.575849 -82.74341 
L 310.473147 -82.482736 
L 310.370446 -82.242844 
L 310.267744 -82.02111 
L 310.165043 -81.814274 
L 310.062342 -81.618978 
L 309.95964 -81.432214 
L 309.856939 -81.251641 
L 309.754237 -81.075731 
L 309.651536 -80.903782 
L 309.548835 -80.735804 
L 309.446133 -80.572354 
L 309.343432 -80.414335 
L 309.240731 -80.262819 
L 309.138029 -80.118896 
L 309.035328 -79.983569 
L 308.932626 -79.857674 
L 308.829925 -79.741842 
L 308.727224 -79.636467 
L 308.624522 -79.541697 
L 308.521821 -79.457436 
L 308.419119 -79.38336 
L 308.316418 -79.318947 
L 308.213717 -79.263511 
L 308.111015 -79.21626 
L 308.008314 -79.176343 
L 307.905612 -79.1429 
L 307.802911 -79.115103 
L 307.70021 -79.092182 
L 307.597508 -79.073439 
L 307.494807 -79.058258 
L 307.392105 -79.046093 
L 307.289404 -79.036467 
L 307.186703 -79.028959 
L 307.084001 -79.023196 
L 306.9813 -79.018853 
L 306.878598 -79.015643 
L 306.775897 -79.01332 
L 306.673196 -79.011677 
L 306.570494 -79.01054 
L 306.467793 -79.009773 
L 306.365091 -79.009268 
z
" style="stroke: #000080"/>
    </defs>
    <g clip-path="url(#p37426bf8f4)">
     <use xlink:href="#m2721cf302d" x="0" y="129.399922" style="fill: #000080; fill-opacity: 0.25; stroke: #000080"/>
    </g>
   </g>
   <g id="matplotlib.axis_5"/>
   <g id="matplotlib.axis_6">
    <g id="text_11">
     <!-- $\theta_2$ -->
     <g transform="translate(285.473935 46.30234) rotate(-90)">
      <text>
       <tspan style="font: 9px 'DejaVu Sans'" x="0" y="-0.09375">θ</tspan>
       <tspan style="font: 6.3px 'DejaVu Sans'" x="5.59248" y="1.3828125">2</tspan>
      </text>
     </g>
    </g>
   </g>
   <g id="LineCollection_2">
    <path d="M 311.165894 50.391471 
L 311.165894 34.24739 
" clip-path="url(#p37426bf8f4)" style="fill: none; stroke: #000080; stroke-width: 1.5"/>
   </g>
   <g id="patch_9">
    <path d="M 291.345653 50.391471 
L 291.345653 32.31321 
" style="fill: none; stroke: #000000; stroke-width: 1.5; stroke-linejoin: miter; stroke-linecap: square"/>
   </g>
   <g id="patch_10">
    <path d="M 291.345653 50.391471 
L 367.436562 50.391471 
" style="fill: none; stroke: #000000; stroke-width: 1.5; stroke-linejoin: miter; stroke-linecap: square"/>
   </g>
  </g>
  <g id="axes_4">
   <g id="patch_11">
    <path d="M 291.345653 72.085384 
L 367.436562 72.085384 
L 367.436562 54.007123 
L 291.345653 54.007123 
z
" style="fill: #ffffff"/>
   </g>
   <g id="PolyCollection_5">
    <defs>
     <path id="m8e856e9343" d="M 322.492733 -57.315311 
L 322.492733 -57.314538 
L 322.600473 -57.314538 
L 322.708213 -57.314538 
L 322.815954 -57.314538 
L 322.923694 -57.314538 
L 323.031434 -57.314538 
L 323.139175 -57.314538 
L 323.246915 -57.314538 
L 323.354655 -57.314538 
L 323.462396 -57.314538 
L 323.570136 -57.314538 
L 323.677876 -57.314538 
L 323.785617 -57.314538 
L 323.893357 -57.314538 
L 324.001097 -57.314538 
L 324.108837 -57.314538 
L 324.216578 -57.314538 
L 324.324318 -57.314538 
L 324.432058 -57.314538 
L 324.539799 -57.314538 
L 324.647539 -57.314538 
L 324.755279 -57.314538 
L 324.86302 -57.314538 
L 324.97076 -57.314538 
L 325.0785 -57.314538 
L 325.186241 -57.314538 
L 325.293981 -57.314538 
L 325.401721 -57.314538 
L 325.509462 -57.314538 
L 325.617202 -57.314538 
L 325.724942 -57.314538 
L 325.832683 -57.314538 
L 325.940423 -57.314538 
L 326.048163 -57.314538 
L 326.155904 -57.314538 
L 326.263644 -57.314538 
L 326.371384 -57.314538 
L 326.479125 -57.314538 
L 326.586865 -57.314538 
L 326.694605 -57.314538 
L 326.802345 -57.314538 
L 326.910086 -57.314538 
L 327.017826 -57.314538 
L 327.125566 -57.314538 
L 327.233307 -57.314538 
L 327.341047 -57.314538 
L 327.448787 -57.314538 
L 327.556528 -57.314538 
L 327.664268 -57.314538 
L 327.772008 -57.314538 
L 327.879749 -57.314538 
L 327.987489 -57.314538 
L 328.095229 -57.314538 
L 328.20297 -57.314538 
L 328.31071 -57.314538 
L 328.41845 -57.314538 
L 328.526191 -57.314538 
L 328.633931 -57.314538 
L 328.741671 -57.314538 
L 328.849412 -57.314538 
L 328.957152 -57.314538 
L 329.064892 -57.314538 
L 329.172633 -57.314538 
L 329.280373 -57.314538 
L 329.388113 -57.314538 
L 329.495853 -57.314538 
L 329.603594 -57.314538 
L 329.711334 -57.314538 
L 329.819074 -57.314538 
L 329.926815 -57.314538 
L 330.034555 -57.314538 
L 330.142295 -57.314538 
L 330.250036 -57.314538 
L 330.357776 -57.314538 
L 330.465516 -57.314538 
L 330.573257 -57.314538 
L 330.680997 -57.314538 
L 330.788737 -57.314538 
L 330.896478 -57.314538 
L 331.004218 -57.314538 
L 331.111958 -57.314538 
L 331.219699 -57.314538 
L 331.327439 -57.314538 
L 331.435179 -57.314538 
L 331.54292 -57.314538 
L 331.65066 -57.314538 
L 331.7584 -57.314538 
L 331.866141 -57.314538 
L 331.973881 -57.314538 
L 332.081621 -57.314538 
L 332.189361 -57.314538 
L 332.297102 -57.314538 
L 332.404842 -57.314538 
L 332.512582 -57.314538 
L 332.620323 -57.314538 
L 332.728063 -57.314538 
L 332.835803 -57.314538 
L 332.943544 -57.314538 
L 333.051284 -57.314538 
L 333.159024 -57.314538 
L 333.266765 -57.314538 
L 333.374505 -57.314538 
L 333.482245 -57.314538 
L 333.589986 -57.314538 
L 333.697726 -57.314538 
L 333.805466 -57.314538 
L 333.913207 -57.314538 
L 334.020947 -57.314538 
L 334.128687 -57.314538 
L 334.236428 -57.314538 
L 334.344168 -57.314538 
L 334.451908 -57.314538 
L 334.559649 -57.314538 
L 334.667389 -57.314538 
L 334.775129 -57.314538 
L 334.882869 -57.314538 
L 334.99061 -57.314538 
L 335.09835 -57.314538 
L 335.20609 -57.314538 
L 335.313831 -57.314538 
L 335.421571 -57.314538 
L 335.529311 -57.314538 
L 335.637052 -57.314538 
L 335.744792 -57.314538 
L 335.852532 -57.314538 
L 335.960273 -57.314538 
L 336.068013 -57.314538 
L 336.175753 -57.314538 
L 336.283494 -57.314538 
L 336.391234 -57.314538 
L 336.498974 -57.314538 
L 336.606715 -57.314538 
L 336.714455 -57.314538 
L 336.822195 -57.314538 
L 336.929936 -57.314538 
L 337.037676 -57.314538 
L 337.145416 -57.314538 
L 337.253157 -57.314538 
L 337.360897 -57.314538 
L 337.468637 -57.314538 
L 337.576377 -57.314538 
L 337.684118 -57.314538 
L 337.791858 -57.314538 
L 337.899598 -57.314538 
L 338.007339 -57.314538 
L 338.115079 -57.314538 
L 338.222819 -57.314538 
L 338.33056 -57.314538 
L 338.4383 -57.314538 
L 338.54604 -57.314538 
L 338.653781 -57.314538 
L 338.761521 -57.314538 
L 338.869261 -57.314538 
L 338.977002 -57.314538 
L 339.084742 -57.314538 
L 339.192482 -57.314538 
L 339.300223 -57.314538 
L 339.407963 -57.314538 
L 339.515703 -57.314538 
L 339.623444 -57.314538 
L 339.731184 -57.314538 
L 339.838924 -57.314538 
L 339.946665 -57.314538 
L 340.054405 -57.314538 
L 340.162145 -57.314538 
L 340.269885 -57.314538 
L 340.377626 -57.314538 
L 340.485366 -57.314538 
L 340.593106 -57.314538 
L 340.700847 -57.314538 
L 340.808587 -57.314538 
L 340.916327 -57.314538 
L 341.024068 -57.314538 
L 341.131808 -57.314538 
L 341.239548 -57.314538 
L 341.347289 -57.314538 
L 341.455029 -57.314538 
L 341.562769 -57.314538 
L 341.67051 -57.314538 
L 341.77825 -57.314538 
L 341.88599 -57.314538 
L 341.993731 -57.314538 
L 342.101471 -57.314538 
L 342.209211 -57.314538 
L 342.316952 -57.314538 
L 342.424692 -57.314538 
L 342.532432 -57.314538 
L 342.640173 -57.314538 
L 342.747913 -57.314538 
L 342.855653 -57.314538 
L 342.963393 -57.314538 
L 343.071134 -57.314538 
L 343.178874 -57.314538 
L 343.286614 -57.314538 
L 343.394355 -57.314538 
L 343.502095 -57.314538 
L 343.609835 -57.314538 
L 343.717576 -57.314538 
L 343.825316 -57.314538 
L 343.933056 -57.314538 
L 343.933056 -57.315494 
L 343.933056 -57.315494 
L 343.825316 -57.316094 
L 343.717576 -57.31701 
L 343.609835 -57.318367 
L 343.502095 -57.320323 
L 343.394355 -57.323064 
L 343.286614 -57.326795 
L 343.178874 -57.331732 
L 343.071134 -57.338076 
L 342.963393 -57.345991 
L 342.855653 -57.355577 
L 342.747913 -57.366838 
L 342.640173 -57.379664 
L 342.532432 -57.39382 
L 342.424692 -57.408953 
L 342.316952 -57.424613 
L 342.209211 -57.440298 
L 342.101471 -57.455511 
L 341.993731 -57.469824 
L 341.88599 -57.482941 
L 341.77825 -57.494752 
L 341.67051 -57.505369 
L 341.562769 -57.515137 
L 341.455029 -57.52462 
L 341.347289 -57.534567 
L 341.239548 -57.54586 
L 341.131808 -57.559457 
L 341.024068 -57.576331 
L 340.916327 -57.597415 
L 340.808587 -57.623566 
L 340.700847 -57.655532 
L 340.593106 -57.693933 
L 340.485366 -57.73926 
L 340.377626 -57.791871 
L 340.269885 -57.852 
L 340.162145 -57.919766 
L 340.054405 -57.995186 
L 339.946665 -58.078198 
L 339.838924 -58.168673 
L 339.731184 -58.266441 
L 339.623444 -58.371307 
L 339.515703 -58.48305 
L 339.407963 -58.601426 
L 339.300223 -58.726148 
L 339.192482 -58.856859 
L 339.084742 -58.993118 
L 338.977002 -59.134385 
L 338.869261 -59.280038 
L 338.761521 -59.429419 
L 338.653781 -59.581913 
L 338.54604 -59.737034 
L 338.4383 -59.894532 
L 338.33056 -60.054469 
L 338.222819 -60.217269 
L 338.115079 -60.383721 
L 338.007339 -60.554927 
L 337.899598 -60.732219 
L 337.791858 -60.917042 
L 337.684118 -61.110824 
L 337.576377 -61.314864 
L 337.468637 -61.530231 
L 337.360897 -61.757704 
L 337.253157 -61.997726 
L 337.145416 -62.250403 
L 337.037676 -62.515503 
L 336.929936 -62.792473 
L 336.822195 -63.080451 
L 336.714455 -63.378268 
L 336.606715 -63.684446 
L 336.498974 -63.997195 
L 336.391234 -64.314416 
L 336.283494 -64.633752 
L 336.175753 -64.952685 
L 336.068013 -65.268711 
L 335.960273 -65.579592 
L 335.852532 -65.88367 
L 335.744792 -66.180208 
L 335.637052 -66.469691 
L 335.529311 -66.75403 
L 335.421571 -67.036592 
L 335.313831 -67.322001 
L 335.20609 -67.615701 
L 335.09835 -67.923304 
L 334.99061 -68.249791 
L 334.882869 -68.598693 
L 334.775129 -68.971377 
L 334.667389 -69.366579 
L 334.559649 -69.780281 
L 334.451908 -70.205984 
L 334.344168 -70.635346 
L 334.236428 -71.059104 
L 334.128687 -71.468129 
L 334.020947 -71.854437 
L 333.913207 -72.21201 
L 333.805466 -72.537275 
L 333.697726 -72.829204 
L 333.589986 -73.089033 
L 333.482245 -73.319673 
L 333.374505 -73.524941 
L 333.266765 -73.70875 
L 333.159024 -73.874382 
L 333.051284 -74.02395 
L 332.943544 -74.158113 
L 332.835803 -74.276038 
L 332.728063 -74.375602 
L 332.620323 -74.453759 
L 332.512582 -74.507017 
L 332.404842 -74.531929 
L 332.297102 -74.525547 
L 332.189361 -74.485767 
L 332.081621 -74.411528 
L 331.973881 -74.302844 
L 331.866141 -74.160684 
L 331.7584 -73.98671 
L 331.65066 -73.782962 
L 331.54292 -73.551512 
L 331.435179 -73.294194 
L 331.327439 -73.012436 
L 331.219699 -72.70724 
L 331.111958 -72.379296 
L 331.004218 -72.029202 
L 330.896478 -71.65773 
L 330.788737 -71.266071 
L 330.680997 -70.855992 
L 330.573257 -70.42987 
L 330.465516 -69.990586 
L 330.357776 -69.541303 
L 330.250036 -69.085175 
L 330.142295 -68.625049 
L 330.034555 -68.163226 
L 329.926815 -67.701337 
L 329.819074 -67.240344 
L 329.711334 -66.78069 
L 329.603594 -66.32254 
L 329.495853 -65.866078 
L 329.388113 -65.4118 
L 329.280373 -64.960728 
L 329.172633 -64.514524 
L 329.064892 -64.075455 
L 328.957152 -63.646243 
L 328.849412 -63.2298 
L 328.741671 -62.82891 
L 328.633931 -62.445912 
L 328.526191 -62.082425 
L 328.41845 -61.739177 
L 328.31071 -61.415955 
L 328.20297 -61.111684 
L 328.095229 -60.824622 
L 327.987489 -60.552643 
L 327.879749 -60.293562 
L 327.772008 -60.045452 
L 327.664268 -59.806914 
L 327.556528 -59.577252 
L 327.448787 -59.356537 
L 327.341047 -59.145557 
L 327.233307 -58.945652 
L 327.125566 -58.75847 
L 327.017826 -58.585689 
L 326.910086 -58.428733 
L 326.802345 -58.288532 
L 326.694605 -58.16537 
L 326.586865 -58.058817 
L 326.479125 -57.967773 
L 326.371384 -57.890593 
L 326.263644 -57.825279 
L 326.155904 -57.769697 
L 326.048163 -57.721798 
L 325.940423 -57.679792 
L 325.832683 -57.642266 
L 325.724942 -57.608239 
L 325.617202 -57.577142 
L 325.509462 -57.548743 
L 325.401721 -57.523035 
L 325.293981 -57.500117 
L 325.186241 -57.480077 
L 325.0785 -57.462899 
L 324.97076 -57.448422 
L 324.86302 -57.436325 
L 324.755279 -57.42616 
L 324.647539 -57.417403 
L 324.539799 -57.409527 
L 324.432058 -57.402065 
L 324.324318 -57.394663 
L 324.216578 -57.387108 
L 324.108837 -57.379336 
L 324.001097 -57.37141 
L 323.893357 -57.36349 
L 323.785617 -57.355786 
L 323.677876 -57.348518 
L 323.570136 -57.341877 
L 323.462396 -57.336006 
L 323.354655 -57.330982 
L 323.246915 -57.32682 
L 323.139175 -57.32348 
L 323.031434 -57.320884 
L 322.923694 -57.318926 
L 322.815954 -57.317494 
L 322.708213 -57.316479 
L 322.600473 -57.315779 
L 322.492733 -57.315311 
z
" style="stroke: #000080"/>
    </defs>
    <g clip-path="url(#p81ac5a6966)">
     <use xlink:href="#m8e856e9343" x="0" y="129.399922" style="fill: #000080; fill-opacity: 0.25; stroke: #000080"/>
    </g>
   </g>
   <g id="matplotlib.axis_7"/>
   <g id="matplotlib.axis_8">
    <g id="text_12">
     <!-- $\theta_3$ -->
     <g transform="translate(285.473935 67.996253) rotate(-90)">
      <text>
       <tspan style="font: 9px 'DejaVu Sans'" x="0" y="-0.09375">θ</tspan>
       <tspan style="font: 6.3px 'DejaVu Sans'" x="5.59248" y="1.3828125">3</tspan>
      </text>
     </g>
    </g>
   </g>
   <g id="LineCollection_3">
    <path d="M 333.2059 72.085384 
L 333.2059 55.319713 
" clip-path="url(#p81ac5a6966)" style="fill: none; stroke: #000080; stroke-width: 1.5"/>
   </g>
   <g id="patch_12">
    <path d="M 291.345653 72.085384 
L 291.345653 54.007123 
" style="fill: none; stroke: #000000; stroke-width: 1.5; stroke-linejoin: miter; stroke-linecap: square"/>
   </g>
   <g id="patch_13">
    <path d="M 291.345653 72.085384 
L 367.436562 72.085384 
" style="fill: none; stroke: #000000; stroke-width: 1.5; stroke-linejoin: miter; stroke-linecap: square"/>
   </g>
  </g>
  <g id="axes_5">
   <g id="patch_14">
    <path d="M 291.345653 93.779297 
L 367.436562 93.779297 
L 367.436562 75.701036 
L 291.345653 75.701036 
z
" style="fill: #ffffff"/>
   </g>
   <g id="PolyCollection_6">
    <defs>
     <path id="m47ebfe29c8" d="M 327.04394 -35.621481 
L 327.04394 -35.620625 
L 327.204085 -35.620625 
L 327.364229 -35.620625 
L 327.524374 -35.620625 
L 327.684519 -35.620625 
L 327.844664 -35.620625 
L 328.004808 -35.620625 
L 328.164953 -35.620625 
L 328.325098 -35.620625 
L 328.485243 -35.620625 
L 328.645388 -35.620625 
L 328.805532 -35.620625 
L 328.965677 -35.620625 
L 329.125822 -35.620625 
L 329.285967 -35.620625 
L 329.446111 -35.620625 
L 329.606256 -35.620625 
L 329.766401 -35.620625 
L 329.926546 -35.620625 
L 330.08669 -35.620625 
L 330.246835 -35.620625 
L 330.40698 -35.620625 
L 330.567125 -35.620625 
L 330.727269 -35.620625 
L 330.887414 -35.620625 
L 331.047559 -35.620625 
L 331.207704 -35.620625 
L 331.367848 -35.620625 
L 331.527993 -35.620625 
L 331.688138 -35.620625 
L 331.848283 -35.620625 
L 332.008427 -35.620625 
L 332.168572 -35.620625 
L 332.328717 -35.620625 
L 332.488862 -35.620625 
L 332.649006 -35.620625 
L 332.809151 -35.620625 
L 332.969296 -35.620625 
L 333.129441 -35.620625 
L 333.289585 -35.620625 
L 333.44973 -35.620625 
L 333.609875 -35.620625 
L 333.77002 -35.620625 
L 333.930164 -35.620625 
L 334.090309 -35.620625 
L 334.250454 -35.620625 
L 334.410599 -35.620625 
L 334.570744 -35.620625 
L 334.730888 -35.620625 
L 334.891033 -35.620625 
L 335.051178 -35.620625 
L 335.211323 -35.620625 
L 335.371467 -35.620625 
L 335.531612 -35.620625 
L 335.691757 -35.620625 
L 335.851902 -35.620625 
L 336.012046 -35.620625 
L 336.172191 -35.620625 
L 336.332336 -35.620625 
L 336.492481 -35.620625 
L 336.652625 -35.620625 
L 336.81277 -35.620625 
L 336.972915 -35.620625 
L 337.13306 -35.620625 
L 337.293204 -35.620625 
L 337.453349 -35.620625 
L 337.613494 -35.620625 
L 337.773639 -35.620625 
L 337.933783 -35.620625 
L 338.093928 -35.620625 
L 338.254073 -35.620625 
L 338.414218 -35.620625 
L 338.574362 -35.620625 
L 338.734507 -35.620625 
L 338.894652 -35.620625 
L 339.054797 -35.620625 
L 339.214941 -35.620625 
L 339.375086 -35.620625 
L 339.535231 -35.620625 
L 339.695376 -35.620625 
L 339.85552 -35.620625 
L 340.015665 -35.620625 
L 340.17581 -35.620625 
L 340.335955 -35.620625 
L 340.4961 -35.620625 
L 340.656244 -35.620625 
L 340.816389 -35.620625 
L 340.976534 -35.620625 
L 341.136679 -35.620625 
L 341.296823 -35.620625 
L 341.456968 -35.620625 
L 341.617113 -35.620625 
L 341.777258 -35.620625 
L 341.937402 -35.620625 
L 342.097547 -35.620625 
L 342.257692 -35.620625 
L 342.417837 -35.620625 
L 342.577981 -35.620625 
L 342.738126 -35.620625 
L 342.898271 -35.620625 
L 343.058416 -35.620625 
L 343.21856 -35.620625 
L 343.378705 -35.620625 
L 343.53885 -35.620625 
L 343.698995 -35.620625 
L 343.859139 -35.620625 
L 344.019284 -35.620625 
L 344.179429 -35.620625 
L 344.339574 -35.620625 
L 344.499718 -35.620625 
L 344.659863 -35.620625 
L 344.820008 -35.620625 
L 344.980153 -35.620625 
L 345.140297 -35.620625 
L 345.300442 -35.620625 
L 345.460587 -35.620625 
L 345.620732 -35.620625 
L 345.780877 -35.620625 
L 345.941021 -35.620625 
L 346.101166 -35.620625 
L 346.261311 -35.620625 
L 346.421456 -35.620625 
L 346.5816 -35.620625 
L 346.741745 -35.620625 
L 346.90189 -35.620625 
L 347.062035 -35.620625 
L 347.222179 -35.620625 
L 347.382324 -35.620625 
L 347.542469 -35.620625 
L 347.702614 -35.620625 
L 347.862758 -35.620625 
L 348.022903 -35.620625 
L 348.183048 -35.620625 
L 348.343193 -35.620625 
L 348.503337 -35.620625 
L 348.663482 -35.620625 
L 348.823627 -35.620625 
L 348.983772 -35.620625 
L 349.143916 -35.620625 
L 349.304061 -35.620625 
L 349.464206 -35.620625 
L 349.624351 -35.620625 
L 349.784495 -35.620625 
L 349.94464 -35.620625 
L 350.104785 -35.620625 
L 350.26493 -35.620625 
L 350.425074 -35.620625 
L 350.585219 -35.620625 
L 350.745364 -35.620625 
L 350.905509 -35.620625 
L 351.065653 -35.620625 
L 351.225798 -35.620625 
L 351.385943 -35.620625 
L 351.546088 -35.620625 
L 351.706233 -35.620625 
L 351.866377 -35.620625 
L 352.026522 -35.620625 
L 352.186667 -35.620625 
L 352.346812 -35.620625 
L 352.506956 -35.620625 
L 352.667101 -35.620625 
L 352.827246 -35.620625 
L 352.987391 -35.620625 
L 353.147535 -35.620625 
L 353.30768 -35.620625 
L 353.467825 -35.620625 
L 353.62797 -35.620625 
L 353.788114 -35.620625 
L 353.948259 -35.620625 
L 354.108404 -35.620625 
L 354.268549 -35.620625 
L 354.428693 -35.620625 
L 354.588838 -35.620625 
L 354.748983 -35.620625 
L 354.909128 -35.620625 
L 355.069272 -35.620625 
L 355.229417 -35.620625 
L 355.389562 -35.620625 
L 355.549707 -35.620625 
L 355.709851 -35.620625 
L 355.869996 -35.620625 
L 356.030141 -35.620625 
L 356.190286 -35.620625 
L 356.35043 -35.620625 
L 356.510575 -35.620625 
L 356.67072 -35.620625 
L 356.830865 -35.620625 
L 356.991009 -35.620625 
L 357.151154 -35.620625 
L 357.311299 -35.620625 
L 357.471444 -35.620625 
L 357.631589 -35.620625 
L 357.791733 -35.620625 
L 357.951878 -35.620625 
L 358.112023 -35.620625 
L 358.272168 -35.620625 
L 358.432312 -35.620625 
L 358.592457 -35.620625 
L 358.752602 -35.620625 
L 358.912747 -35.620625 
L 358.912747 -35.621245 
L 358.912747 -35.621245 
L 358.752602 -35.621622 
L 358.592457 -35.622192 
L 358.432312 -35.623028 
L 358.272168 -35.624225 
L 358.112023 -35.62589 
L 357.951878 -35.628146 
L 357.791733 -35.63112 
L 357.631589 -35.634935 
L 357.471444 -35.639693 
L 357.311299 -35.645466 
L 357.151154 -35.652277 
L 356.991009 -35.660092 
L 356.830865 -35.668821 
L 356.67072 -35.678318 
L 356.510575 -35.688409 
L 356.35043 -35.698915 
L 356.190286 -35.709694 
L 356.030141 -35.720682 
L 355.869996 -35.731932 
L 355.709851 -35.743641 
L 355.549707 -35.756152 
L 355.389562 -35.769944 
L 355.229417 -35.785578 
L 355.069272 -35.803642 
L 354.909128 -35.824656 
L 354.748983 -35.848996 
L 354.588838 -35.876816 
L 354.428693 -35.907996 
L 354.268549 -35.942126 
L 354.108404 -35.978534 
L 353.948259 -36.016351 
L 353.788114 -36.054615 
L 353.62797 -36.092389 
L 353.467825 -36.12889 
L 353.30768 -36.163608 
L 353.147535 -36.196386 
L 352.987391 -36.227467 
L 352.827246 -36.257489 
L 352.667101 -36.287445 
L 352.506956 -36.318589 
L 352.346812 -36.352332 
L 352.186667 -36.390122 
L 352.026522 -36.433338 
L 351.866377 -36.483198 
L 351.706233 -36.540715 
L 351.546088 -36.606684 
L 351.385943 -36.68171 
L 351.225798 -36.766276 
L 351.065653 -36.860818 
L 350.905509 -36.965808 
L 350.745364 -37.081823 
L 350.585219 -37.209567 
L 350.425074 -37.349867 
L 350.26493 -37.503609 
L 350.104785 -37.671638 
L 349.94464 -37.854639 
L 349.784495 -38.052998 
L 349.624351 -38.266682 
L 349.464206 -38.495148 
L 349.304061 -38.737276 
L 349.143916 -38.991355 
L 348.983772 -39.255104 
L 348.823627 -39.525724 
L 348.663482 -39.800005 
L 348.503337 -40.074459 
L 348.343193 -40.345505 
L 348.183048 -40.609699 
L 348.022903 -40.864001 
L 347.862758 -41.106058 
L 347.702614 -41.334474 
L 347.542469 -41.549015 
L 347.382324 -41.750711 
L 347.222179 -41.941819 
L 347.062035 -42.125624 
L 346.90189 -42.306092 
L 346.741745 -42.487415 
L 346.5816 -42.673521 
L 346.421456 -42.867605 
L 346.261311 -43.07179 
L 346.101166 -43.286932 
L 345.941021 -43.512632 
L 345.780877 -43.747412 
L 345.620732 -43.989025 
L 345.460587 -44.234814 
L 345.300442 -44.482066 
L 345.140297 -44.728261 
L 344.980153 -44.971211 
L 344.820008 -45.209053 
L 344.659863 -45.440134 
L 344.499718 -45.662848 
L 344.339574 -45.875471 
L 344.179429 -46.076065 
L 344.019284 -46.262494 
L 343.859139 -46.432556 
L 343.698995 -46.584224 
L 343.53885 -46.715937 
L 343.378705 -46.826889 
L 343.21856 -46.917242 
L 343.058416 -46.988214 
L 342.898271 -47.041997 
L 342.738126 -47.081522 
L 342.577981 -47.110063 
L 342.417837 -47.13077 
L 342.257692 -47.146166 
L 342.097547 -47.157708 
L 341.937402 -47.165456 
L 341.777258 -47.167922 
L 341.617113 -47.162107 
L 341.456968 -47.143729 
L 341.296823 -47.107617 
L 341.136679 -47.048221 
L 340.976534 -46.960168 
L 340.816389 -46.838814 
L 340.656244 -46.68072 
L 340.4961 -46.484016 
L 340.335955 -46.248616 
L 340.17581 -45.976274 
L 340.015665 -45.67048 
L 339.85552 -45.336228 
L 339.695376 -44.979655 
L 339.535231 -44.607631 
L 339.375086 -44.227287 
L 339.214941 -43.845577 
L 339.054797 -43.468857 
L 338.894652 -43.102559 
L 338.734507 -42.750939 
L 338.574362 -42.416948 
L 338.414218 -42.10219 
L 338.254073 -41.806987 
L 338.093928 -41.530521 
L 337.933783 -41.271032 
L 337.773639 -41.026074 
L 337.613494 -40.792782 
L 337.453349 -40.568162 
L 337.293204 -40.349367 
L 337.13306 -40.133957 
L 336.972915 -39.920106 
L 336.81277 -39.706762 
L 336.652625 -39.49372 
L 336.492481 -39.281606 
L 336.332336 -39.071766 
L 336.172191 -38.866069 
L 336.012046 -38.666648 
L 335.851902 -38.475603 
L 335.691757 -38.294723 
L 335.531612 -38.125245 
L 335.371467 -37.967708 
L 335.211323 -37.821902 
L 335.051178 -37.686931 
L 334.891033 -37.561369 
L 334.730888 -37.443481 
L 334.570744 -37.331478 
L 334.410599 -37.22376 
L 334.250454 -37.119111 
L 334.090309 -37.016817 
L 333.930164 -36.916703 
L 333.77002 -36.819087 
L 333.609875 -36.724658 
L 333.44973 -36.634313 
L 333.289585 -36.548986 
L 333.129441 -36.469483 
L 332.969296 -36.396359 
L 332.809151 -36.329846 
L 332.649006 -36.26984 
L 332.488862 -36.215941 
L 332.328717 -36.167523 
L 332.168572 -36.123844 
L 332.008427 -36.084137 
L 331.848283 -36.047703 
L 331.688138 -36.013966 
L 331.527993 -35.982505 
L 331.367848 -35.953041 
L 331.207704 -35.925414 
L 331.047559 -35.89953 
L 330.887414 -35.875319 
L 330.727269 -35.852696 
L 330.567125 -35.831537 
L 330.40698 -35.811682 
L 330.246835 -35.79295 
L 330.08669 -35.775165 
L 329.926546 -35.758184 
L 329.766401 -35.741928 
L 329.606256 -35.726386 
L 329.446111 -35.711618 
L 329.285967 -35.697738 
L 329.125822 -35.68489 
L 328.965677 -35.673218 
L 328.805532 -35.662837 
L 328.645388 -35.653819 
L 328.485243 -35.646177 
L 328.325098 -35.639866 
L 328.164953 -35.63479 
L 328.004808 -35.630816 
L 327.844664 -35.627786 
L 327.684519 -35.62554 
L 327.524374 -35.623918 
L 327.364229 -35.622779 
L 327.204085 -35.622 
L 327.04394 -35.621481 
z
" style="stroke: #000080"/>
    </defs>
    <g clip-path="url(#p586e80dbba)">
     <use xlink:href="#m47ebfe29c8" x="0" y="129.399922" style="fill: #000080; fill-opacity: 0.25; stroke: #000080"/>
    </g>
   </g>
   <g id="matplotlib.axis_9">
    <g id="xtick_3">
     <g id="line2d_10">
      <g>
       <use xlink:href="#m8234496427" x="294.804331" y="93.779297" style="stroke: #000000; stroke-width: 1.5"/>
      </g>
     </g>
     <g id="text_13">
      <text style="font: 9px 'Arial', sans-serif; text-anchor: middle" x="294.804331" y="107.617891" transform="rotate(-0 294.804331 107.617891)">1</text>
     </g>
    </g>
    <g id="xtick_4">
     <g id="line2d_11">
      <g>
       <use xlink:href="#m8234496427" x="329.391108" y="93.779297" style="stroke: #000000; stroke-width: 1.5"/>
      </g>
     </g>
     <g id="text_14">
      <text style="font: 9px 'Arial', sans-serif; text-anchor: middle" x="329.391108" y="107.617891" transform="rotate(-0 329.391108 107.617891)">2</text>
     </g>
    </g>
    <g id="xtick_5">
     <g id="line2d_12">
      <g>
       <use xlink:href="#m8234496427" x="363.977885" y="93.779297" style="stroke: #000000; stroke-width: 1.5"/>
      </g>
     </g>
     <g id="text_15">
      <text style="font: 9px 'Arial', sans-serif; text-anchor: middle" x="363.977885" y="107.617891" transform="rotate(-0 363.977885 107.617891)">3</text>
     </g>
    </g>
   </g>
   <g id="matplotlib.axis_10">
    <g id="text_16">
     <!-- $\theta_4$ -->
     <g transform="translate(285.473935 89.690166) rotate(-90)">
      <text>
       <tspan style="font: 9px 'DejaVu Sans'" x="0" y="-0.09375">θ</tspan>
       <tspan style="font: 6.3px 'DejaVu Sans'" x="5.59248" y="1.3828125">4</tspan>
      </text>
     </g>
    </g>
   </g>
   <g id="LineCollection_4">
    <path d="M 339.732712 93.779297 
L 339.732712 76.561906 
" clip-path="url(#p586e80dbba)" style="fill: none; stroke: #000080; stroke-width: 1.5"/>
   </g>
   <g id="patch_15">
    <path d="M 291.345653 93.779297 
L 291.345653 75.701036 
" style="fill: none; stroke: #000000; stroke-width: 1.5; stroke-linejoin: miter; stroke-linecap: square"/>
   </g>
   <g id="patch_16">
    <path d="M 291.345653 93.779297 
L 367.436562 93.779297 
" style="fill: none; stroke: #000000; stroke-width: 1.5; stroke-linejoin: miter; stroke-linecap: square"/>
   </g>
  </g>
 </g>
 <defs>
  <clipPath id="p03dd5bff62">
   <rect x="32.636563" y="10.619297" width="228.272727" height="83.16"/>
  </clipPath>
  <clipPath id="p0fdcea7eef">
   <rect x="291.345653" y="10.619297" width="76.090909" height="18.078261"/>
  </clipPath>
  <clipPath id="p37426bf8f4">
   <rect x="291.345653" y="32.31321" width="76.090909" height="18.078261"/>
  </clipPath>
  <clipPath id="p81ac5a6966">
   <rect x="291.345653" y="54.007123" width="76.090909" height="18.078261"/>
  </clipPath>
  <clipPath id="p586e80dbba">
   <rect x="291.345653" y="75.701036" width="76.090909" height="18.078261"/>
  </clipPath>
 </defs>
</svg>
