<?xml version="1.0" encoding="utf-8" standalone="no"?>
<!DOCTYPE svg PUBLIC "-//W3C//DTD SVG 1.1//EN"
  "http://www.w3.org/Graphics/SVG/1.1/DTD/svg11.dtd">
<svg xmlns:xlink="http://www.w3.org/1999/xlink" width="139.137187pt" height="76.887pt" viewBox="0 0 139.137187 76.887" xmlns="http://www.w3.org/2000/svg" version="1.1">
 <metadata>
  <rdf:RDF xmlns:dc="http://purl.org/dc/elements/1.1/" xmlns:cc="http://creativecommons.org/ns#" xmlns:rdf="http://www.w3.org/1999/02/22-rdf-syntax-ns#">
   <cc:Work>
    <dc:type rdf:resource="http://purl.org/dc/dcmitype/StillImage"/>
    <dc:date>2024-05-12T11:04:00.965680</dc:date>
    <dc:format>image/svg+xml</dc:format>
    <dc:creator>
     <cc:Agent>
      <dc:title>Matplotlib v3.8.4, https://matplotlib.org/</dc:title>
     </cc:Agent>
    </dc:creator>
   </cc:Work>
  </rdf:RDF>
 </metadata>
 <defs>
  <style type="text/css">*{stroke-linejoin: round; stroke-linecap: butt}</style>
 </defs>
 <g id="figure_1">
  <g id="patch_1">
   <path d="M 0 76.887 
L 139.137187 76.887 
L 139.137187 0 
L 0 0 
L 0 76.887 
z
" style="fill: none"/>
  </g>
  <g id="axes_1"/>
  <g id="legend_1">
   <g id="line2d_1">
    <path d="M 10.8 14.488594 
L 19.8 14.488594 
L 28.8 14.488594 
" style="fill: none; stroke: #d73027; stroke-opacity: 0.8; stroke-width: 2.7; stroke-linecap: square"/>
    <defs>
     <path id="m8a03993cb9" d="M 0 1.691974 
C 0.448717 1.691974 0.879116 1.513697 1.196406 1.196406 
C 1.513697 0.879116 1.691974 0.448717 1.691974 0 
C 1.691974 -0.448717 1.513697 -0.879116 1.196406 -1.196406 
C 0.879116 -1.513697 0.448717 -1.691974 0 -1.691974 
C -0.448717 -1.691974 -0.879116 -1.513697 -1.196406 -1.196406 
C -1.513697 -0.879116 -1.691974 -0.448717 -1.691974 0 
C -1.691974 0.448717 -1.513697 0.879116 -1.196406 1.196406 
C -0.879116 1.513697 -0.448717 1.691974 0 1.691974 
z
" style="stroke: #d73027; stroke-opacity: 0.8; stroke-width: 2.025"/>
    </defs>
    <g>
     <use xlink:href="#m8a03993cb9" x="19.8" y="14.488594" style="fill: #d73027; fill-opacity: 0.8; stroke: #d73027; stroke-opacity: 0.8; stroke-width: 2.025"/>
    </g>
   </g>
   <g id="text_1">
    <text style="font: 9px 'Arial', sans-serif; text-anchor: start" x="36" y="17.638594" transform="rotate(-0 36 17.638594)">  Simformer</text>
   </g>
   <g id="line2d_2">
    <path d="M 10.8 33.673781 
L 19.8 33.673781 
L 28.8 33.673781 
" style="fill: none; stroke: #911c1c; stroke-opacity: 0.8; stroke-width: 2.7; stroke-linecap: square"/>
    <defs>
     <path id="m8d4efbcece" d="M 0 1.691974 
C 0.448717 1.691974 0.879116 1.513697 1.196406 1.196406 
C 1.513697 0.879116 1.691974 0.448717 1.691974 0 
C 1.691974 -0.448717 1.513697 -0.879116 1.196406 -1.196406 
C 0.879116 -1.513697 0.448717 -1.691974 0 -1.691974 
C -0.448717 -1.691974 -0.879116 -1.513697 -1.196406 -1.196406 
C -1.513697 -0.879116 -1.691974 -0.448717 -1.691974 0 
C -1.691974 0.448717 -1.513697 0.879116 -1.196406 1.196406 
C -0.879116 1.513697 -0.448717 1.691974 0 1.691974 
z
" style="stroke: #911c1c; stroke-opacity: 0.8; stroke-width: 2.025"/>
    </defs>
    <g>
     <use xlink:href="#m8d4efbcece" x="19.8" y="33.673781" style="fill: #911c1c; fill-opacity: 0.8; stroke: #911c1c; stroke-opacity: 0.8; stroke-width: 2.025"/>
    </g>
   </g>
   <g id="text_2">
    <text style="font: 9px 'Arial', sans-serif" transform="translate(36 30.848906)">  Simformer</text>
    <text style="font: 9px 'Arial', sans-serif" transform="translate(36 40.926938)"> (undirected graph)</text>
   </g>
   <g id="line2d_3">
    <path d="M 10.8 56.962125 
L 19.8 56.962125 
L 28.8 56.962125 
" style="fill: none; stroke: #f25d1d; stroke-opacity: 0.8; stroke-width: 2.7; stroke-linecap: square"/>
    <defs>
     <path id="m6b15eb21c0" d="M 0 1.691974 
C 0.448717 1.691974 0.879116 1.513697 1.196406 1.196406 
C 1.513697 0.879116 1.691974 0.448717 1.691974 0 
C 1.691974 -0.448717 1.513697 -0.879116 1.196406 -1.196406 
C 0.879116 -1.513697 0.448717 -1.691974 0 -1.691974 
C -0.448717 -1.691974 -0.879116 -1.513697 -1.196406 -1.196406 
C -1.513697 -0.879116 -1.691974 -0.448717 -1.691974 0 
C -1.691974 0.448717 -1.513697 0.879116 -1.196406 1.196406 
C -0.879116 1.513697 -0.448717 1.691974 0 1.691974 
z
" style="stroke: #f25d1d; stroke-opacity: 0.8; stroke-width: 2.025"/>
    </defs>
    <g>
     <use xlink:href="#m6b15eb21c0" x="19.8" y="56.962125" style="fill: #f25d1d; fill-opacity: 0.8; stroke: #f25d1d; stroke-opacity: 0.8; stroke-width: 2.025"/>
    </g>
   </g>
   <g id="text_3">
    <text style="font: 9px 'Arial', sans-serif" transform="translate(36 54.13725)">  Simformer</text>
    <text style="font: 9px 'Arial', sans-serif" transform="translate(36 64.215281)"> (directed graph)</text>
   </g>
  </g>
 </g>
</svg>
