<?xml version="1.0" encoding="utf-8" standalone="no"?>
<!DOCTYPE svg PUBLIC "-//W3C//DTD SVG 1.1//EN"
  "http://www.w3.org/Graphics/SVG/1.1/DTD/svg11.dtd">
<svg xmlns:xlink="http://www.w3.org/1999/xlink" width="222.28625pt" height="266.44875pt" viewBox="0 0 222.28625 266.44875" xmlns="http://www.w3.org/2000/svg" version="1.1">
 <metadata>
  <rdf:RDF xmlns:dc="http://purl.org/dc/elements/1.1/" xmlns:cc="http://creativecommons.org/ns#" xmlns:rdf="http://www.w3.org/1999/02/22-rdf-syntax-ns#">
   <cc:Work>
    <dc:type rdf:resource="http://purl.org/dc/dcmitype/StillImage"/>
    <dc:date>2024-03-25T14:30:42.275132</dc:date>
    <dc:format>image/svg+xml</dc:format>
    <dc:creator>
     <cc:Agent>
      <dc:title>Matplotlib v3.8.2, https://matplotlib.org/</dc:title>
     </cc:Agent>
    </dc:creator>
   </cc:Work>
  </rdf:RDF>
 </metadata>
 <defs>
  <style type="text/css">*{stroke-linejoin: round; stroke-linecap: butt}</style>
 </defs>
 <g id="figure_1">
  <g id="patch_1">
   <path d="M 0 266.44875 
L 222.28625 266.44875 
L 222.28625 0 
L 0 0 
z
" style="fill: #ffffff"/>
  </g>
  <g id="axes_1">
   <g id="patch_2">
    <path d="M 39.04625 185.98875 
L 206.44625 185.98875 
L 206.44625 19.66875 
L 39.04625 19.66875 
z
" style="fill: #ffffff"/>
   </g>
   <g id="matplotlib.axis_1">
    <g id="xtick_1">
     <g id="line2d_1">
      <defs>
       <path id="mc83b864ad7" d="M 0 0 
L 0 3.5 
" style="stroke: #000000; stroke-width: 1.5"/>
      </defs>
      <g>
       <use xlink:href="#mc83b864ad7" x="39.04625" y="185.98875" style="stroke: #000000; stroke-width: 1.5"/>
      </g>
     </g>
     <g id="text_1">
      <text style="font: 9px 'Arial', sans-serif; text-anchor: middle" x="39.04625" y="199.430781" transform="rotate(-0 39.04625 199.430781)">0.0</text>
     </g>
    </g>
    <g id="xtick_2">
     <g id="line2d_2">
      <g>
       <use xlink:href="#mc83b864ad7" x="72.52625" y="185.98875" style="stroke: #000000; stroke-width: 1.5"/>
      </g>
     </g>
     <g id="text_2">
      <text style="font: 9px 'Arial', sans-serif; text-anchor: middle" x="72.52625" y="199.430781" transform="rotate(-0 72.52625 199.430781)">0.2</text>
     </g>
    </g>
    <g id="xtick_3">
     <g id="line2d_3">
      <g>
       <use xlink:href="#mc83b864ad7" x="106.00625" y="185.98875" style="stroke: #000000; stroke-width: 1.5"/>
      </g>
     </g>
     <g id="text_3">
      <text style="font: 9px 'Arial', sans-serif; text-anchor: middle" x="106.00625" y="199.430781" transform="rotate(-0 106.00625 199.430781)">0.4</text>
     </g>
    </g>
    <g id="xtick_4">
     <g id="line2d_4">
      <g>
       <use xlink:href="#mc83b864ad7" x="139.48625" y="185.98875" style="stroke: #000000; stroke-width: 1.5"/>
      </g>
     </g>
     <g id="text_4">
      <text style="font: 9px 'Arial', sans-serif; text-anchor: middle" x="139.48625" y="199.430781" transform="rotate(-0 139.48625 199.430781)">0.6</text>
     </g>
    </g>
    <g id="xtick_5">
     <g id="line2d_5">
      <g>
       <use xlink:href="#mc83b864ad7" x="172.96625" y="185.98875" style="stroke: #000000; stroke-width: 1.5"/>
      </g>
     </g>
     <g id="text_5">
      <text style="font: 9px 'Arial', sans-serif; text-anchor: middle" x="172.96625" y="199.430781" transform="rotate(-0 172.96625 199.430781)">0.8</text>
     </g>
    </g>
    <g id="xtick_6">
     <g id="line2d_6">
      <g>
       <use xlink:href="#mc83b864ad7" x="206.44625" y="185.98875" style="stroke: #000000; stroke-width: 1.5"/>
      </g>
     </g>
     <g id="text_6">
      <text style="font: 9px 'Arial', sans-serif; text-anchor: middle" x="206.44625" y="199.430781" transform="rotate(-0 206.44625 199.430781)">1.0</text>
     </g>
    </g>
    <g id="text_7">
     <text style="font: 9px 'Arial', sans-serif; text-anchor: middle" x="122.74625" y="211.77125" transform="rotate(-0 122.74625 211.77125)">Credibility level</text>
    </g>
   </g>
   <g id="matplotlib.axis_2">
    <g id="ytick_1">
     <g id="line2d_7">
      <defs>
       <path id="m04b637e18c" d="M 0 0 
L -3.5 0 
" style="stroke: #000000; stroke-width: 1.5"/>
      </defs>
      <g>
       <use xlink:href="#m04b637e18c" x="39.04625" y="185.98875" style="stroke: #000000; stroke-width: 1.5"/>
      </g>
     </g>
     <g id="text_8">
      <text style="font: 9px 'Arial', sans-serif; text-anchor: end" x="32.04625" y="189.209766" transform="rotate(-0 32.04625 189.209766)">0.0</text>
     </g>
    </g>
    <g id="ytick_2">
     <g id="line2d_8">
      <g>
       <use xlink:href="#m04b637e18c" x="39.04625" y="152.72475" style="stroke: #000000; stroke-width: 1.5"/>
      </g>
     </g>
     <g id="text_9">
      <text style="font: 9px 'Arial', sans-serif; text-anchor: end" x="32.04625" y="155.945766" transform="rotate(-0 32.04625 155.945766)">0.2</text>
     </g>
    </g>
    <g id="ytick_3">
     <g id="line2d_9">
      <g>
       <use xlink:href="#m04b637e18c" x="39.04625" y="119.46075" style="stroke: #000000; stroke-width: 1.5"/>
      </g>
     </g>
     <g id="text_10">
      <text style="font: 9px 'Arial', sans-serif; text-anchor: end" x="32.04625" y="122.681766" transform="rotate(-0 32.04625 122.681766)">0.4</text>
     </g>
    </g>
    <g id="ytick_4">
     <g id="line2d_10">
      <g>
       <use xlink:href="#m04b637e18c" x="39.04625" y="86.19675" style="stroke: #000000; stroke-width: 1.5"/>
      </g>
     </g>
     <g id="text_11">
      <text style="font: 9px 'Arial', sans-serif; text-anchor: end" x="32.04625" y="89.417766" transform="rotate(-0 32.04625 89.417766)">0.6</text>
     </g>
    </g>
    <g id="ytick_5">
     <g id="line2d_11">
      <g>
       <use xlink:href="#m04b637e18c" x="39.04625" y="52.93275" style="stroke: #000000; stroke-width: 1.5"/>
      </g>
     </g>
     <g id="text_12">
      <text style="font: 9px 'Arial', sans-serif; text-anchor: end" x="32.04625" y="56.153766" transform="rotate(-0 32.04625 56.153766)">0.8</text>
     </g>
    </g>
    <g id="ytick_6">
     <g id="line2d_12">
      <g>
       <use xlink:href="#m04b637e18c" x="39.04625" y="19.66875" style="stroke: #000000; stroke-width: 1.5"/>
      </g>
     </g>
     <g id="text_13">
      <text style="font: 9px 'Arial', sans-serif; text-anchor: end" x="32.04625" y="22.889766" transform="rotate(-0 32.04625 22.889766)">1.0</text>
     </g>
    </g>
    <g id="text_14">
     <text style="font: 9px 'Arial', sans-serif; text-anchor: middle" x="13.642031" y="102.82875" transform="rotate(-90 13.642031 102.82875)">Empirical coverage</text>
    </g>
   </g>
   <g id="line2d_13">
    <path d="M 39.04625 185.98875 
L 47.41625 178.163394 
L 55.345723 169.664442 
L 63.275197 161.481498 
L 71.204671 153.53556 
L 79.134145 145.602098 
L 87.063619 137.248675 
L 94.99309 129.473214 
L 102.922567 120.745576 
L 110.852038 112.325622 
L 118.781514 105.448293 
L 126.710986 97.356826 
L 134.640457 89.29446 
L 142.569938 81.606326 
L 150.49941 74.529405 
L 158.428881 66.791367 
L 166.358353 59.71861 
L 174.287834 52.146889 
L 182.217305 44.525275 
L 190.146777 36.101167 
L 198.076248 27.84754 
L 206.44625 19.66875 
" clip-path="url(#pbb955df95b)" style="fill: none; stroke: #1f77b4; stroke-opacity: 0.4; stroke-width: 3; stroke-linecap: square"/>
   </g>
   <g id="line2d_14">
    <path d="M 39.04625 185.98875 
L 47.41625 177.627012 
L 55.345723 170.757997 
L 63.275197 164.491892 
L 71.204671 156.65406 
L 79.134145 147.78089 
L 87.063619 140.030378 
L 94.99309 132.799616 
L 102.922567 123.706068 
L 110.852038 115.972188 
L 118.781514 106.936857 
L 126.710986 98.604225 
L 134.640457 90.612551 
L 142.569938 83.198831 
L 150.49941 76.625038 
L 158.428881 68.970163 
L 166.358353 60.654161 
L 174.287834 52.60843 
L 182.217305 44.724862 
L 190.146777 36.146907 
L 198.076248 27.236317 
L 206.44625 19.66875 
" clip-path="url(#pbb955df95b)" style="fill: none; stroke: #ff7f0e; stroke-opacity: 0.4; stroke-width: 3; stroke-linecap: square"/>
   </g>
   <g id="line2d_15">
    <path d="M 39.04625 185.98875 
L 47.41625 178.516824 
L 55.345723 169.651968 
L 63.275197 160.899378 
L 71.204671 152.238265 
L 79.134145 143.681103 
L 87.063619 136.338071 
L 94.99309 128.27571 
L 102.922567 121.365117 
L 110.852038 111.918139 
L 118.781514 104.462847 
L 126.710986 97.198816 
L 134.640457 89.660365 
L 142.569938 82.205068 
L 150.49941 74.541876 
L 158.428881 65.930662 
L 166.358353 59.361022 
L 174.287834 51.893254 
L 182.217305 43.82258 
L 190.146777 35.64379 
L 198.076248 27.465 
L 206.44625 19.66875 
" clip-path="url(#pbb955df95b)" style="fill: none; stroke: #2ca02c; stroke-opacity: 0.4; stroke-width: 3; stroke-linecap: square"/>
   </g>
   <g id="line2d_16">
    <path d="M 39.04625 185.98875 
L 47.41625 177.356742 
L 55.345723 171.028267 
L 63.275197 162.379627 
L 71.204671 154.346371 
L 79.134145 146.753862 
L 87.063619 137.48984 
L 94.99309 128.60835 
L 102.922567 121.4358 
L 110.852038 114.695683 
L 118.781514 106.49611 
L 126.710986 98.242473 
L 134.640457 91.032504 
L 142.569938 83.057465 
L 150.49941 75.50238 
L 158.428881 67.169743 
L 166.358353 59.697821 
L 174.287834 52.866229 
L 182.217305 44.146898 
L 190.146777 35.706155 
L 198.076248 27.078306 
L 206.44625 19.66875 
" clip-path="url(#pbb955df95b)" style="fill: none; stroke: #d62728; stroke-opacity: 0.4; stroke-width: 3; stroke-linecap: square"/>
   </g>
   <g id="patch_3">
    <path d="M 39.04625 185.98875 
L 39.04625 19.66875 
" style="fill: none; stroke: #000000; stroke-width: 1.5; stroke-linejoin: miter; stroke-linecap: square"/>
   </g>
   <g id="patch_4">
    <path d="M 39.04625 185.98875 
L 206.44625 185.98875 
" style="fill: none; stroke: #000000; stroke-width: 1.5; stroke-linejoin: miter; stroke-linecap: square"/>
   </g>
   <g id="text_15">
    <text style="font: 9px 'Arial', sans-serif; text-anchor: middle" x="122.74625" y="13.66875" transform="rotate(-0 122.74625 13.66875)">Two moons [100k simulations]</text>
   </g>
  </g>
  <g id="legend_1">
   <g id="line2d_17">
    <path d="M 28.60625 236.02875 
L 37.60625 236.02875 
L 46.60625 236.02875 
" style="fill: none; stroke: #1f77b4; stroke-opacity: 0.4; stroke-width: 3; stroke-linecap: square"/>
   </g>
   <g id="text_16">
    <!-- $p(\theta_1, \theta_2|x_1, x_2)$ -->
    <g transform="translate(53.80625 239.17875)">
     <text>
      <tspan style="font: 9px 'Arial'" x="0 5.005371 8.002441 17.116414 21.323739 30.437712 32.775602 41.384204 45.591529 54.20013" y="-0.453125">p(θ,θ|x,x)</tspan>
      <tspan style="font: 6.3px 'Arial'" x="13.164623 26.485921 37.432413 50.248339" y="2.2350624999999997">1212</tspan>
     </text>
    </g>
   </g>
   <g id="line2d_18">
    <path d="M 28.60625 249.79875 
L 37.60625 249.79875 
L 46.60625 249.79875 
" style="fill: none; stroke: #ff7f0e; stroke-opacity: 0.4; stroke-width: 3; stroke-linecap: square"/>
   </g>
   <g id="text_17">
    <!-- $p(\theta_1, \theta_2|x_1)$ -->
    <g transform="translate(53.80625 252.94875)">
     <text>
      <tspan style="font: 9px 'Arial'" x="0 5.005371 8.002441 17.116414 21.323739 30.437712 32.775602 41.384204" y="-0.453125">p(θ,θ|x)</tspan>
      <tspan style="font: 6.3px 'Arial'" x="13.164623 26.485921 37.432413" y="2.2350624999999997">121</tspan>
     </text>
    </g>
   </g>
   <g id="line2d_19">
    <path d="M 129.04625 236.02875 
L 138.04625 236.02875 
L 147.04625 236.02875 
" style="fill: none; stroke: #2ca02c; stroke-opacity: 0.4; stroke-width: 3; stroke-linecap: square"/>
   </g>
   <g id="text_18">
    <!-- $p(\theta_1, \theta_2|x_2)$ -->
    <g transform="translate(154.24625 239.17875)">
     <text>
      <tspan style="font: 9px 'Arial'" x="0 5.005371 8.002441 17.116414 21.323739 30.437712 32.775602 41.384204" y="-0.453125">p(θ,θ|x)</tspan>
      <tspan style="font: 6.3px 'Arial'" x="13.164623 26.485921 37.432413" y="2.2350624999999997">122</tspan>
     </text>
    </g>
   </g>
   <g id="line2d_20">
    <path d="M 129.04625 249.79875 
L 138.04625 249.79875 
L 147.04625 249.79875 
" style="fill: none; stroke: #d62728; stroke-opacity: 0.4; stroke-width: 3; stroke-linecap: square"/>
   </g>
   <g id="text_19">
    <!-- $p(\theta_1, x_2|x_1, \theta_2)$ -->
    <g transform="translate(154.24625 252.94875)">
     <text>
      <tspan style="font: 9px 'Arial'" x="0 5.005371 8.002441 17.116414 21.323739 29.932341 32.270231 40.878833 45.086157 54.20013" y="-0.453125">p(θ,x|x,θ)</tspan>
      <tspan style="font: 6.3px 'Arial'" x="13.164623 25.98055 36.927042 50.248339" y="2.2350624999999997">1212</tspan>
     </text>
    </g>
   </g>
  </g>
 </g>
 <defs>
  <clipPath id="pbb955df95b">
   <rect x="39.04625" y="19.66875" width="167.4" height="166.32"/>
  </clipPath>
 </defs>
</svg>
