<?xml version="1.0" encoding="utf-8" standalone="no"?>
<!DOCTYPE svg PUBLIC "-//W3C//DTD SVG 1.1//EN"
  "http://www.w3.org/Graphics/SVG/1.1/DTD/svg11.dtd">
<svg xmlns:xlink="http://www.w3.org/1999/xlink" width="533.449406pt" height="366.3pt" viewBox="0 0 533.449406 366.3" xmlns="http://www.w3.org/2000/svg" version="1.1">
 <metadata>
  <rdf:RDF xmlns:dc="http://purl.org/dc/elements/1.1/" xmlns:cc="http://creativecommons.org/ns#" xmlns:rdf="http://www.w3.org/1999/02/22-rdf-syntax-ns#">
   <cc:Work>
    <dc:type rdf:resource="http://purl.org/dc/dcmitype/StillImage"/>
    <dc:date>2024-05-12T07:58:24.147599</dc:date>
    <dc:format>image/svg+xml</dc:format>
    <dc:creator>
     <cc:Agent>
      <dc:title>Matplotlib v3.8.4, https://matplotlib.org/</dc:title>
     </cc:Agent>
    </dc:creator>
   </cc:Work>
  </rdf:RDF>
 </metadata>
 <defs>
  <style type="text/css">*{stroke-linejoin: round; stroke-linecap: butt}</style>
 </defs>
 <g id="figure_1">
  <g id="patch_1">
   <path d="M 0 366.3 
L 533.449406 366.3 
L 533.449406 0 
L 0 0 
z
" style="fill: #ffffff"/>
  </g>
  <g id="axes_1">
   <g id="patch_2">
    <path d="M 62.849739 120.813333 
L 148.204304 120.813333 
L 148.204304 46.32 
L 62.849739 46.32 
z
" style="fill: #ffffff"/>
   </g>
   <g id="matplotlib.axis_1">
    <g id="xtick_1">
     <g id="line2d_1">
      <defs>
       <path id="m5e6064b006" d="M 0 0 
L 0 3.5 
" style="stroke: #000000; stroke-width: 1.5"/>
      </defs>
      <g>
       <use xlink:href="#m5e6064b006" x="62.849739" y="120.813333" style="stroke: #000000; stroke-width: 1.5"/>
      </g>
     </g>
    </g>
    <g id="xtick_2">
     <g id="line2d_2">
      <g>
       <use xlink:href="#m5e6064b006" x="105.527022" y="120.813333" style="stroke: #000000; stroke-width: 1.5"/>
      </g>
     </g>
    </g>
    <g id="xtick_3">
     <g id="line2d_3">
      <g>
       <use xlink:href="#m5e6064b006" x="148.204304" y="120.813333" style="stroke: #000000; stroke-width: 1.5"/>
      </g>
     </g>
    </g>
   </g>
   <g id="matplotlib.axis_2">
    <g id="ytick_1">
     <g id="line2d_4">
      <defs>
       <path id="m7765bae37a" d="M 0 0 
L -3.5 0 
" style="stroke: #000000; stroke-width: 1.5"/>
      </defs>
      <g>
       <use xlink:href="#m7765bae37a" x="62.849739" y="120.813333" style="stroke: #000000; stroke-width: 1.5"/>
      </g>
     </g>
     <g id="text_1">
      <text style="font: 9px 'Arial', sans-serif; text-anchor: end" x="55.849739" y="124.23263" transform="rotate(-0 55.849739 124.23263)">0.0</text>
     </g>
    </g>
    <g id="ytick_2">
     <g id="line2d_5">
      <g>
       <use xlink:href="#m7765bae37a" x="62.849739" y="83.566667" style="stroke: #000000; stroke-width: 1.5"/>
      </g>
     </g>
     <g id="text_2">
      <text style="font: 9px 'Arial', sans-serif; text-anchor: end" x="55.849739" y="86.985964" transform="rotate(-0 55.849739 86.985964)">0.5</text>
     </g>
    </g>
    <g id="ytick_3">
     <g id="line2d_6">
      <g>
       <use xlink:href="#m7765bae37a" x="62.849739" y="46.32" style="stroke: #000000; stroke-width: 1.5"/>
      </g>
     </g>
     <g id="text_3">
      <text style="font: 9px 'Arial', sans-serif; text-anchor: end" x="55.849739" y="49.739297" transform="rotate(-0 55.849739 49.739297)">1.0</text>
     </g>
    </g>
    <g id="text_4">
     <text style="font: 9px 'Arial', sans-serif; text-anchor: middle" x="35.371651" y="83.566667" transform="rotate(-90 35.371651 83.566667)">1000</text>
    </g>
   </g>
   <g id="line2d_7">
    <path d="M 62.849739 120.813333 
L 64.55683 117.850287 
L 66.229083 115.581816 
L 67.901336 112.771331 
L 69.573589 110.757925 
L 71.245841 108.945949 
L 72.918094 107.115201 
L 74.590347 104.87325 
L 76.262599 102.655136 
L 77.934852 100.998107 
L 79.607105 99.24364 
L 81.279357 97.703713 
L 82.95161 95.897995 
L 84.623863 94.004375 
L 86.296116 92.065164 
L 87.968368 89.968624 
L 89.640621 88.19896 
L 91.312874 86.268391 
L 92.985126 84.488 
L 94.657379 82.749624 
L 96.329632 80.822034 
L 98.001885 78.894743 
L 99.674137 76.973709 
L 101.34639 75.494271 
L 103.018643 73.983248 
L 104.690895 72.396838 
L 106.363148 70.929022 
L 108.035401 69.286593 
L 109.707654 67.753222 
L 111.379906 66.294642 
L 113.052159 64.51157 
L 114.724412 63.057758 
L 116.396664 61.783624 
L 118.068917 60.147453 
L 119.74117 59.027967 
L 121.413422 57.954071 
L 123.085675 56.520223 
L 124.757928 55.383753 
L 126.430181 54.413552 
L 128.102433 53.363792 
L 129.774686 52.378692 
L 131.446939 51.569396 
L 133.119191 50.652532 
L 134.791444 49.819399 
L 136.463697 49.019638 
L 138.13595 48.424586 
L 139.808202 47.872441 
L 141.480455 47.281858 
L 143.152708 46.909987 
L 144.82496 46.652538 
L 146.497213 46.418331 
L 148.204304 46.32 
" clip-path="url(#pd58fdd8493)" style="fill: none; stroke: #1f77b4; stroke-opacity: 0.5; stroke-width: 2; stroke-linecap: square"/>
   </g>
   <g id="line2d_8">
    <path d="M 62.849739 120.813333 
L 64.55683 116.914054 
L 66.229083 113.358934 
L 67.901336 110.283552 
L 69.573589 107.801732 
L 71.245841 104.952213 
L 72.918094 102.79578 
L 74.590347 100.353888 
L 76.262599 98.106871 
L 77.934852 95.874455 
L 79.607105 93.717724 
L 81.279357 91.46445 
L 82.95161 88.896516 
L 84.623863 87.053551 
L 86.296116 84.82173 
L 87.968368 82.692115 
L 89.640621 80.905467 
L 91.312874 78.976387 
L 92.985126 77.374483 
L 94.657379 75.540755 
L 96.329632 73.883129 
L 98.001885 72.322941 
L 99.674137 70.739213 
L 101.34639 69.427832 
L 103.018643 67.781231 
L 104.690895 66.242497 
L 106.363148 64.901617 
L 108.035401 63.686184 
L 109.707654 62.497866 
L 111.379906 60.797332 
L 113.052159 59.593222 
L 114.724412 58.463307 
L 116.396664 57.432915 
L 118.068917 56.286016 
L 119.74117 55.398354 
L 121.413422 54.427556 
L 123.085675 53.465996 
L 124.757928 52.659085 
L 126.430181 51.851279 
L 128.102433 51.164748 
L 129.774686 50.365882 
L 131.446939 49.760698 
L 133.119191 49.224644 
L 134.791444 48.600688 
L 136.463697 48.078341 
L 138.13595 47.601881 
L 139.808202 47.232394 
L 141.480455 46.954087 
L 143.152708 46.639129 
L 144.82496 46.486567 
L 146.497213 46.364696 
L 148.204304 46.32 
" clip-path="url(#pd58fdd8493)" style="fill: none; stroke: #ff7f0e; stroke-opacity: 0.5; stroke-width: 2; stroke-linecap: square"/>
   </g>
   <g id="line2d_9">
    <path d="M 62.849739 120.813333 
L 148.204304 46.32 
" clip-path="url(#pd58fdd8493)" style="fill: none; stroke-dasharray: 3.7,1.6; stroke-dashoffset: 0; stroke: #000000; stroke-opacity: 0.5"/>
   </g>
   <g id="patch_3">
    <path d="M 62.849739 120.813333 
L 62.849739 46.32 
" style="fill: none; stroke: #000000; stroke-width: 1.5; stroke-linejoin: miter; stroke-linecap: square"/>
   </g>
   <g id="patch_4">
    <path d="M 62.849739 120.813333 
L 148.204304 120.813333 
" style="fill: none; stroke: #000000; stroke-width: 1.5; stroke-linejoin: miter; stroke-linecap: square"/>
   </g>
   <g id="text_5">
    <text style="font: 9px 'Arial', sans-serif; text-anchor: middle" x="105.527022" y="40.32" transform="rotate(-0 105.527022 40.32)">Linear Gaussian</text>
   </g>
  </g>
  <g id="axes_2">
   <g id="patch_5">
    <path d="M 186.479304 120.813333 
L 271.83387 120.813333 
L 271.83387 46.32 
L 186.479304 46.32 
z
" style="fill: #ffffff"/>
   </g>
   <g id="matplotlib.axis_3">
    <g id="xtick_4">
     <g id="line2d_10">
      <g>
       <use xlink:href="#m5e6064b006" x="186.479304" y="120.813333" style="stroke: #000000; stroke-width: 1.5"/>
      </g>
     </g>
    </g>
    <g id="xtick_5">
     <g id="line2d_11">
      <g>
       <use xlink:href="#m5e6064b006" x="229.156587" y="120.813333" style="stroke: #000000; stroke-width: 1.5"/>
      </g>
     </g>
    </g>
    <g id="xtick_6">
     <g id="line2d_12">
      <g>
       <use xlink:href="#m5e6064b006" x="271.83387" y="120.813333" style="stroke: #000000; stroke-width: 1.5"/>
      </g>
     </g>
    </g>
   </g>
   <g id="matplotlib.axis_4">
    <g id="ytick_4">
     <g id="line2d_13">
      <g>
       <use xlink:href="#m7765bae37a" x="186.479304" y="120.813333" style="stroke: #000000; stroke-width: 1.5"/>
      </g>
     </g>
     <g id="text_6">
      <text style="font: 9px 'Arial', sans-serif; text-anchor: end" x="179.479304" y="124.23263" transform="rotate(-0 179.479304 124.23263)">0.0</text>
     </g>
    </g>
    <g id="ytick_5">
     <g id="line2d_14">
      <g>
       <use xlink:href="#m7765bae37a" x="186.479304" y="83.566667" style="stroke: #000000; stroke-width: 1.5"/>
      </g>
     </g>
     <g id="text_7">
      <text style="font: 9px 'Arial', sans-serif; text-anchor: end" x="179.479304" y="86.985964" transform="rotate(-0 179.479304 86.985964)">0.5</text>
     </g>
    </g>
    <g id="ytick_6">
     <g id="line2d_15">
      <g>
       <use xlink:href="#m7765bae37a" x="186.479304" y="46.32" style="stroke: #000000; stroke-width: 1.5"/>
      </g>
     </g>
     <g id="text_8">
      <text style="font: 9px 'Arial', sans-serif; text-anchor: end" x="179.479304" y="49.739297" transform="rotate(-0 179.479304 49.739297)">1.0</text>
     </g>
    </g>
   </g>
   <g id="line2d_16">
    <path d="M 186.479304 120.813333 
L 188.186396 118.298736 
L 189.858648 116.356546 
L 191.530901 114.555297 
L 193.203154 112.594633 
L 194.875406 110.931644 
L 196.547659 109.170323 
L 198.219912 107.582423 
L 199.892165 106.292795 
L 201.564417 104.628912 
L 203.23667 103.222478 
L 204.908923 101.803231 
L 206.581175 100.223674 
L 208.253428 98.880708 
L 209.925681 97.894118 
L 211.597934 96.588697 
L 213.270186 95.132502 
L 214.942439 93.919154 
L 216.614692 92.476665 
L 218.286944 91.304736 
L 219.959197 90.120888 
L 221.63145 89.047886 
L 223.303702 87.75796 
L 224.975955 86.676614 
L 226.648208 85.431682 
L 228.320461 84.076797 
L 229.992713 82.498432 
L 231.664966 80.147423 
L 233.337219 78.323826 
L 235.009471 76.107798 
L 236.681724 74.279732 
L 238.353977 72.343799 
L 240.02623 70.502324 
L 241.698482 68.786891 
L 243.370735 67.128074 
L 245.042988 65.629566 
L 246.71524 64.061034 
L 248.387493 62.557759 
L 250.059746 61.131063 
L 251.731998 60.103352 
L 253.404251 58.69662 
L 255.076504 57.669208 
L 256.748757 56.371236 
L 258.421009 55.260392 
L 260.093262 53.981192 
L 261.765515 52.768143 
L 263.437767 51.694843 
L 265.11002 50.401937 
L 266.782273 49.38704 
L 268.454526 48.250867 
L 270.126778 47.254444 
L 271.83387 46.32 
" clip-path="url(#pbc4831af53)" style="fill: none; stroke: #1f77b4; stroke-opacity: 0.5; stroke-width: 2; stroke-linecap: square"/>
   </g>
   <g id="line2d_17">
    <path d="M 186.479304 120.813333 
L 188.186396 117.556783 
L 189.858648 115.163461 
L 191.530901 113.323178 
L 193.203154 111.634563 
L 194.875406 109.708165 
L 196.547659 108.203102 
L 198.219912 106.386954 
L 199.892165 104.933143 
L 201.564417 103.483502 
L 203.23667 102.131299 
L 204.908923 100.520157 
L 206.581175 99.534462 
L 208.253428 98.214142 
L 209.925681 96.718614 
L 211.597934 95.074397 
L 213.270186 93.89919 
L 214.942439 92.431373 
L 216.614692 91.333044 
L 218.286944 90.042521 
L 219.959197 88.836027 
L 221.63145 87.657841 
L 223.303702 86.371192 
L 224.975955 85.032695 
L 226.648208 83.341399 
L 228.320461 81.8709 
L 229.992713 80.140271 
L 231.664966 78.482646 
L 233.337219 76.702851 
L 235.009471 74.686763 
L 236.681724 73.348267 
L 238.353977 71.784503 
L 240.02623 70.265733 
L 241.698482 68.450479 
L 243.370735 66.973724 
L 245.042988 65.372117 
L 246.71524 63.92933 
L 248.387493 62.558057 
L 250.059746 61.305377 
L 251.731998 59.977906 
L 253.404251 58.795845 
L 255.076504 57.505025 
L 256.748757 56.23834 
L 258.421009 55.131965 
L 260.093262 53.908487 
L 261.765515 52.75384 
L 263.437767 51.5983 
L 265.11002 50.575059 
L 266.782273 49.536324 
L 268.454526 48.35635 
L 270.126778 47.329832 
L 271.83387 46.32 
" clip-path="url(#pbc4831af53)" style="fill: none; stroke: #ff7f0e; stroke-opacity: 0.5; stroke-width: 2; stroke-linecap: square"/>
   </g>
   <g id="line2d_18">
    <path d="M 186.479304 120.813333 
L 271.83387 46.32 
" clip-path="url(#pbc4831af53)" style="fill: none; stroke-dasharray: 3.7,1.6; stroke-dashoffset: 0; stroke: #000000; stroke-opacity: 0.5"/>
   </g>
   <g id="patch_6">
    <path d="M 186.479304 120.813333 
L 186.479304 46.32 
" style="fill: none; stroke: #000000; stroke-width: 1.5; stroke-linejoin: miter; stroke-linecap: square"/>
   </g>
   <g id="patch_7">
    <path d="M 186.479304 120.813333 
L 271.83387 120.813333 
" style="fill: none; stroke: #000000; stroke-width: 1.5; stroke-linejoin: miter; stroke-linecap: square"/>
   </g>
   <g id="text_9">
    <text style="font: 9px 'Arial', sans-serif; text-anchor: middle" x="229.156587" y="40.32" transform="rotate(-0 229.156587 40.32)">Mixture Gaussian</text>
   </g>
  </g>
  <g id="axes_3">
   <g id="patch_8">
    <path d="M 310.10887 120.813333 
L 395.463435 120.813333 
L 395.463435 46.32 
L 310.10887 46.32 
z
" style="fill: #ffffff"/>
   </g>
   <g id="matplotlib.axis_5">
    <g id="xtick_7">
     <g id="line2d_19">
      <g>
       <use xlink:href="#m5e6064b006" x="310.10887" y="120.813333" style="stroke: #000000; stroke-width: 1.5"/>
      </g>
     </g>
    </g>
    <g id="xtick_8">
     <g id="line2d_20">
      <g>
       <use xlink:href="#m5e6064b006" x="352.786152" y="120.813333" style="stroke: #000000; stroke-width: 1.5"/>
      </g>
     </g>
    </g>
    <g id="xtick_9">
     <g id="line2d_21">
      <g>
       <use xlink:href="#m5e6064b006" x="395.463435" y="120.813333" style="stroke: #000000; stroke-width: 1.5"/>
      </g>
     </g>
    </g>
   </g>
   <g id="matplotlib.axis_6">
    <g id="ytick_7">
     <g id="line2d_22">
      <g>
       <use xlink:href="#m7765bae37a" x="310.10887" y="120.813333" style="stroke: #000000; stroke-width: 1.5"/>
      </g>
     </g>
     <g id="text_10">
      <text style="font: 9px 'Arial', sans-serif; text-anchor: end" x="303.10887" y="124.23263" transform="rotate(-0 303.10887 124.23263)">0.0</text>
     </g>
    </g>
    <g id="ytick_8">
     <g id="line2d_23">
      <g>
       <use xlink:href="#m7765bae37a" x="310.10887" y="83.566667" style="stroke: #000000; stroke-width: 1.5"/>
      </g>
     </g>
     <g id="text_11">
      <text style="font: 9px 'Arial', sans-serif; text-anchor: end" x="303.10887" y="86.985964" transform="rotate(-0 303.10887 86.985964)">0.5</text>
     </g>
    </g>
    <g id="ytick_9">
     <g id="line2d_24">
      <g>
       <use xlink:href="#m7765bae37a" x="310.10887" y="46.32" style="stroke: #000000; stroke-width: 1.5"/>
      </g>
     </g>
     <g id="text_12">
      <text style="font: 9px 'Arial', sans-serif; text-anchor: end" x="303.10887" y="49.739297" transform="rotate(-0 303.10887 49.739297)">1.0</text>
     </g>
    </g>
   </g>
   <g id="line2d_25">
    <path d="M 310.10887 120.813333 
L 311.815961 118.20994 
L 313.488214 115.932232 
L 315.160466 113.750471 
L 316.832719 111.718293 
L 318.504972 110.025805 
L 320.177224 108.028787 
L 321.849477 106.009422 
L 323.52173 104.250188 
L 325.193983 102.70013 
L 326.866235 100.931659 
L 328.538488 99.08184 
L 330.210741 97.112236 
L 331.882993 95.383097 
L 333.555246 93.690907 
L 335.227499 92.118501 
L 336.899751 90.554737 
L 338.572004 88.9576 
L 340.244257 87.691214 
L 341.91651 86.092289 
L 343.588762 84.822922 
L 345.261015 83.337525 
L 346.933268 81.774059 
L 348.60552 80.245456 
L 350.277773 78.72758 
L 351.950026 77.262743 
L 353.622279 75.763043 
L 355.294531 74.421269 
L 356.966784 72.95524 
L 358.639037 71.41442 
L 360.311289 69.724315 
L 361.983542 68.335462 
L 363.655795 67.083378 
L 365.328047 65.799113 
L 367.0003 64.238328 
L 368.672553 62.974326 
L 370.344806 61.589048 
L 372.017058 60.415927 
L 373.689311 59.303294 
L 375.361564 57.819685 
L 377.033816 56.475825 
L 378.706069 55.439772 
L 380.378322 54.004434 
L 382.050575 52.938286 
L 383.722827 51.828335 
L 385.39508 50.763676 
L 387.067333 49.71928 
L 388.739585 48.809269 
L 390.411838 47.839962 
L 392.084091 47.112013 
L 393.756343 46.574767 
L 395.463435 46.32 
" clip-path="url(#p2864654b24)" style="fill: none; stroke: #1f77b4; stroke-opacity: 0.5; stroke-width: 2; stroke-linecap: square"/>
   </g>
   <g id="line2d_26">
    <path d="M 310.10887 120.813333 
L 311.815961 118.303802 
L 313.488214 116.018942 
L 315.160466 114.138433 
L 316.832719 112.292488 
L 318.504972 110.03683 
L 320.177224 107.992435 
L 321.849477 106.188504 
L 323.52173 104.078555 
L 325.193983 101.876532 
L 326.866235 100.054425 
L 328.538488 98.444177 
L 330.210741 97.027314 
L 331.882993 95.657531 
L 333.555246 94.113135 
L 335.227499 92.428096 
L 336.899751 90.910517 
L 338.572004 89.489185 
L 340.244257 87.715647 
L 341.91651 86.27882 
L 343.588762 84.741873 
L 345.261015 83.471613 
L 346.933268 81.716252 
L 348.60552 80.118221 
L 350.277773 78.505888 
L 351.950026 76.990097 
L 353.622279 75.508574 
L 355.294531 74.067277 
L 356.966784 72.780926 
L 358.639037 71.270201 
L 360.311289 69.955841 
L 361.983542 68.674853 
L 363.655795 67.296727 
L 365.328047 65.885227 
L 367.0003 64.521999 
L 368.672553 63.147746 
L 370.344806 62.102158 
L 372.017058 60.784222 
L 373.689311 59.432317 
L 375.361564 58.134941 
L 377.033816 57.139114 
L 378.706069 55.95467 
L 380.378322 54.919808 
L 382.050575 53.882563 
L 383.722827 52.782446 
L 385.39508 51.76874 
L 387.067333 50.543772 
L 388.739585 49.525895 
L 390.411838 48.636445 
L 392.084091 47.854563 
L 393.756343 47.008616 
L 395.463435 46.32 
" clip-path="url(#p2864654b24)" style="fill: none; stroke: #ff7f0e; stroke-opacity: 0.5; stroke-width: 2; stroke-linecap: square"/>
   </g>
   <g id="line2d_27">
    <path d="M 310.10887 120.813333 
L 395.463435 46.32 
" clip-path="url(#p2864654b24)" style="fill: none; stroke-dasharray: 3.7,1.6; stroke-dashoffset: 0; stroke: #000000; stroke-opacity: 0.5"/>
   </g>
   <g id="patch_9">
    <path d="M 310.10887 120.813333 
L 310.10887 46.32 
" style="fill: none; stroke: #000000; stroke-width: 1.5; stroke-linejoin: miter; stroke-linecap: square"/>
   </g>
   <g id="patch_10">
    <path d="M 310.10887 120.813333 
L 395.463435 120.813333 
" style="fill: none; stroke: #000000; stroke-width: 1.5; stroke-linejoin: miter; stroke-linecap: square"/>
   </g>
   <g id="text_13">
    <text style="font: 9px 'Arial', sans-serif; text-anchor: middle" x="352.786152" y="40.32" transform="rotate(-0 352.786152 40.32)">Two Moons</text>
   </g>
  </g>
  <g id="axes_4">
   <g id="patch_11">
    <path d="M 433.738435 120.813333 
L 519.093 120.813333 
L 519.093 46.32 
L 433.738435 46.32 
z
" style="fill: #ffffff"/>
   </g>
   <g id="matplotlib.axis_7">
    <g id="xtick_10">
     <g id="line2d_28">
      <g>
       <use xlink:href="#m5e6064b006" x="433.738435" y="120.813333" style="stroke: #000000; stroke-width: 1.5"/>
      </g>
     </g>
    </g>
    <g id="xtick_11">
     <g id="line2d_29">
      <g>
       <use xlink:href="#m5e6064b006" x="476.415717" y="120.813333" style="stroke: #000000; stroke-width: 1.5"/>
      </g>
     </g>
    </g>
    <g id="xtick_12">
     <g id="line2d_30">
      <g>
       <use xlink:href="#m5e6064b006" x="519.093" y="120.813333" style="stroke: #000000; stroke-width: 1.5"/>
      </g>
     </g>
    </g>
   </g>
   <g id="matplotlib.axis_8">
    <g id="ytick_10">
     <g id="line2d_31">
      <g>
       <use xlink:href="#m7765bae37a" x="433.738435" y="120.813333" style="stroke: #000000; stroke-width: 1.5"/>
      </g>
     </g>
     <g id="text_14">
      <text style="font: 9px 'Arial', sans-serif; text-anchor: end" x="426.738435" y="124.23263" transform="rotate(-0 426.738435 124.23263)">0.0</text>
     </g>
    </g>
    <g id="ytick_11">
     <g id="line2d_32">
      <g>
       <use xlink:href="#m7765bae37a" x="433.738435" y="83.566667" style="stroke: #000000; stroke-width: 1.5"/>
      </g>
     </g>
     <g id="text_15">
      <text style="font: 9px 'Arial', sans-serif; text-anchor: end" x="426.738435" y="86.985964" transform="rotate(-0 426.738435 86.985964)">0.5</text>
     </g>
    </g>
    <g id="ytick_12">
     <g id="line2d_33">
      <g>
       <use xlink:href="#m7765bae37a" x="433.738435" y="46.32" style="stroke: #000000; stroke-width: 1.5"/>
      </g>
     </g>
     <g id="text_16">
      <text style="font: 9px 'Arial', sans-serif; text-anchor: end" x="426.738435" y="49.739297" transform="rotate(-0 426.738435 49.739297)">1.0</text>
     </g>
    </g>
   </g>
   <g id="line2d_34">
    <path d="M 433.738435 120.813333 
L 435.445526 118.172694 
L 437.117779 115.943555 
L 438.790031 113.972462 
L 440.462284 112.288018 
L 442.134537 110.47783 
L 443.80679 108.797559 
L 445.479042 107.41526 
L 447.151295 106.163772 
L 448.823548 104.633381 
L 450.4958 103.194468 
L 452.168053 102.059488 
L 453.840306 100.900967 
L 455.512559 99.546083 
L 457.184811 97.923916 
L 458.857064 96.602404 
L 460.529317 95.449247 
L 462.201569 93.996031 
L 463.873822 92.414389 
L 465.546075 90.866715 
L 467.218328 89.483523 
L 468.89058 87.987101 
L 470.562833 86.664397 
L 472.235086 85.377749 
L 473.907338 83.93079 
L 475.579591 82.581865 
L 477.251844 81.055347 
L 478.924096 79.507972 
L 480.596349 78.238903 
L 482.268602 76.962386 
L 483.940855 75.480266 
L 485.613107 74.120316 
L 487.28536 72.693918 
L 488.957613 71.569664 
L 490.629865 70.143564 
L 492.302118 68.568775 
L 493.974371 67.005011 
L 495.646624 65.629566 
L 497.318876 64.361987 
L 498.991129 62.815208 
L 500.663382 61.38285 
L 502.335634 60.005319 
L 504.007887 58.529159 
L 505.68014 57.140604 
L 507.352392 55.854253 
L 509.024645 54.462121 
L 510.696898 53.07297 
L 512.369151 51.52917 
L 514.041403 50.184118 
L 515.713656 48.629591 
L 517.385909 47.50951 
L 519.093 46.32 
" clip-path="url(#pa49f5a5708)" style="fill: none; stroke: #1f77b4; stroke-opacity: 0.5; stroke-width: 2; stroke-linecap: square"/>
   </g>
   <g id="line2d_35">
    <path d="M 433.738435 120.813333 
L 435.445526 116.875616 
L 437.117779 113.932235 
L 438.790031 111.569009 
L 440.462284 108.874734 
L 442.134537 106.669731 
L 443.80679 104.007637 
L 445.479042 101.527903 
L 447.151295 99.537441 
L 448.823548 97.274036 
L 450.4958 95.411107 
L 452.168053 93.477856 
L 453.840306 91.77464 
L 455.512559 89.882211 
L 457.184811 87.95939 
L 458.857064 86.402479 
L 460.529317 84.632517 
L 462.201569 82.656954 
L 463.873822 80.567565 
L 465.546075 79.088723 
L 467.218328 77.371801 
L 468.89058 75.333365 
L 470.562833 73.825918 
L 472.235086 71.717459 
L 473.907338 70.135221 
L 475.579591 68.484448 
L 477.251844 66.823545 
L 478.924096 65.414131 
L 480.596349 63.986243 
L 482.268602 62.847389 
L 483.940855 61.503827 
L 485.613107 59.929932 
L 487.28536 58.732079 
L 488.957613 57.55568 
L 490.629865 56.475825 
L 492.302118 55.441262 
L 493.974371 54.530357 
L 495.646624 53.779464 
L 497.318876 53.010395 
L 498.991129 52.107238 
L 500.663382 51.361113 
L 502.335634 50.588468 
L 504.007887 49.845025 
L 505.68014 49.255633 
L 507.352392 48.647768 
L 509.024645 48.051225 
L 510.696898 47.575958 
L 512.369151 47.16833 
L 514.041403 46.822979 
L 515.713656 46.588176 
L 517.385909 46.397771 
L 519.093 46.32 
" clip-path="url(#pa49f5a5708)" style="fill: none; stroke: #ff7f0e; stroke-opacity: 0.5; stroke-width: 2; stroke-linecap: square"/>
   </g>
   <g id="line2d_36">
    <path d="M 433.738435 120.813333 
L 519.093 46.32 
" clip-path="url(#pa49f5a5708)" style="fill: none; stroke-dasharray: 3.7,1.6; stroke-dashoffset: 0; stroke: #000000; stroke-opacity: 0.5"/>
   </g>
   <g id="patch_12">
    <path d="M 433.738435 120.813333 
L 433.738435 46.32 
" style="fill: none; stroke: #000000; stroke-width: 1.5; stroke-linejoin: miter; stroke-linecap: square"/>
   </g>
   <g id="patch_13">
    <path d="M 433.738435 120.813333 
L 519.093 120.813333 
" style="fill: none; stroke: #000000; stroke-width: 1.5; stroke-linejoin: miter; stroke-linecap: square"/>
   </g>
   <g id="text_17">
    <text style="font: 9px 'Arial', sans-serif; text-anchor: middle" x="476.415717" y="40.32" transform="rotate(-0 476.415717 40.32)">SLCP</text>
   </g>
  </g>
  <g id="axes_5">
   <g id="patch_14">
    <path d="M 62.849739 214.386667 
L 148.204304 214.386667 
L 148.204304 139.893333 
L 62.849739 139.893333 
z
" style="fill: #ffffff"/>
   </g>
   <g id="matplotlib.axis_9">
    <g id="xtick_13">
     <g id="line2d_37">
      <g>
       <use xlink:href="#m5e6064b006" x="62.849739" y="214.386667" style="stroke: #000000; stroke-width: 1.5"/>
      </g>
     </g>
    </g>
    <g id="xtick_14">
     <g id="line2d_38">
      <g>
       <use xlink:href="#m5e6064b006" x="105.527022" y="214.386667" style="stroke: #000000; stroke-width: 1.5"/>
      </g>
     </g>
    </g>
    <g id="xtick_15">
     <g id="line2d_39">
      <g>
       <use xlink:href="#m5e6064b006" x="148.204304" y="214.386667" style="stroke: #000000; stroke-width: 1.5"/>
      </g>
     </g>
    </g>
   </g>
   <g id="matplotlib.axis_10">
    <g id="ytick_13">
     <g id="line2d_40">
      <g>
       <use xlink:href="#m7765bae37a" x="62.849739" y="214.386667" style="stroke: #000000; stroke-width: 1.5"/>
      </g>
     </g>
     <g id="text_18">
      <text style="font: 9px 'Arial', sans-serif; text-anchor: end" x="55.849739" y="217.805964" transform="rotate(-0 55.849739 217.805964)">0.0</text>
     </g>
    </g>
    <g id="ytick_14">
     <g id="line2d_41">
      <g>
       <use xlink:href="#m7765bae37a" x="62.849739" y="177.14" style="stroke: #000000; stroke-width: 1.5"/>
      </g>
     </g>
     <g id="text_19">
      <text style="font: 9px 'Arial', sans-serif; text-anchor: end" x="55.849739" y="180.559297" transform="rotate(-0 55.849739 180.559297)">0.5</text>
     </g>
    </g>
    <g id="ytick_15">
     <g id="line2d_42">
      <g>
       <use xlink:href="#m7765bae37a" x="62.849739" y="139.893333" style="stroke: #000000; stroke-width: 1.5"/>
      </g>
     </g>
     <g id="text_20">
      <text style="font: 9px 'Arial', sans-serif; text-anchor: end" x="55.849739" y="143.31263" transform="rotate(-0 55.849739 143.31263)">1.0</text>
     </g>
    </g>
    <g id="text_21">
     <text style="font: 9px 'Arial', sans-serif; text-anchor: middle" x="35.371651" y="177.14" transform="rotate(-90 35.371651 177.14)">10000</text>
    </g>
   </g>
   <g id="line2d_43">
    <path d="M 62.849739 214.386667 
L 64.55683 211.857767 
L 66.229083 209.826185 
L 67.901336 207.848238 
L 69.573589 205.980839 
L 71.245841 204.091688 
L 72.918094 202.317257 
L 74.590347 200.54372 
L 76.262599 198.848847 
L 77.934852 197.36345 
L 79.607105 195.950759 
L 81.279357 194.288365 
L 82.95161 192.539858 
L 84.623863 190.686166 
L 86.296116 189.238015 
L 87.968368 187.858995 
L 89.640621 186.161143 
L 91.312874 184.573243 
L 92.985126 182.902506 
L 94.657379 181.054774 
L 96.329632 179.419496 
L 98.001885 177.82802 
L 99.674137 176.263958 
L 101.34639 174.63613 
L 103.018643 173.030948 
L 104.690895 171.599186 
L 106.363148 170.025887 
L 108.035401 168.418023 
L 109.707654 167.013674 
L 111.379906 165.6132 
L 113.052159 163.930842 
L 114.724412 162.631082 
L 116.396664 161.24938 
L 118.068917 159.917439 
L 119.74117 158.475248 
L 121.413422 157.035143 
L 123.085675 155.695455 
L 124.757928 154.274122 
L 126.430181 152.960954 
L 128.102433 151.567333 
L 129.774686 150.150767 
L 131.446939 148.921925 
L 133.119191 147.539627 
L 134.791444 146.322108 
L 136.463697 145.308105 
L 138.13595 144.173422 
L 139.808202 142.99017 
L 141.480455 142.059004 
L 143.152708 141.228254 
L 144.82496 140.550365 
L 146.497213 140.140651 
L 148.204304 139.893333 
" clip-path="url(#pfdfe2dc55b)" style="fill: none; stroke: #1f77b4; stroke-opacity: 0.5; stroke-width: 2; stroke-linecap: square"/>
   </g>
   <g id="line2d_44">
    <path d="M 62.849739 214.386667 
L 64.55683 211.411403 
L 66.229083 209.506459 
L 67.901336 207.498119 
L 69.573589 205.582747 
L 71.245841 203.636683 
L 72.918094 201.812192 
L 74.590347 200.141753 
L 76.262599 198.279718 
L 77.934852 196.267206 
L 79.607105 194.663514 
L 81.279357 192.854816 
L 82.95161 191.196296 
L 84.623863 189.522282 
L 86.296116 187.953452 
L 87.968368 186.270201 
L 89.640621 184.460609 
L 91.312874 182.700182 
L 92.985126 180.917408 
L 94.657379 179.383739 
L 96.329632 177.526769 
L 98.001885 175.988631 
L 99.674137 174.347692 
L 101.34639 172.688576 
L 103.018643 171.084288 
L 104.690895 169.498176 
L 106.363148 167.935604 
L 108.035401 166.145678 
L 109.707654 164.502057 
L 111.379906 162.979115 
L 113.052159 161.492228 
L 114.724412 159.845926 
L 116.396664 158.445153 
L 118.068917 156.957074 
L 119.74117 155.826861 
L 121.413422 154.427579 
L 123.085675 153.146293 
L 124.757928 151.680562 
L 126.430181 150.46066 
L 128.102433 149.165072 
L 129.774686 148.115014 
L 131.446939 147.060486 
L 133.119191 146.001191 
L 134.791444 145.0441 
L 136.463697 144.160609 
L 138.13595 143.096547 
L 139.808202 142.261327 
L 141.480455 141.561984 
L 143.152708 140.91419 
L 144.82496 140.457993 
L 146.497213 140.063476 
L 148.204304 139.893333 
" clip-path="url(#pfdfe2dc55b)" style="fill: none; stroke: #ff7f0e; stroke-opacity: 0.5; stroke-width: 2; stroke-linecap: square"/>
   </g>
   <g id="line2d_45">
    <path d="M 62.849739 214.386667 
L 148.204304 139.893333 
" clip-path="url(#pfdfe2dc55b)" style="fill: none; stroke-dasharray: 3.7,1.6; stroke-dashoffset: 0; stroke: #000000; stroke-opacity: 0.5"/>
   </g>
   <g id="patch_15">
    <path d="M 62.849739 214.386667 
L 62.849739 139.893333 
" style="fill: none; stroke: #000000; stroke-width: 1.5; stroke-linejoin: miter; stroke-linecap: square"/>
   </g>
   <g id="patch_16">
    <path d="M 62.849739 214.386667 
L 148.204304 214.386667 
" style="fill: none; stroke: #000000; stroke-width: 1.5; stroke-linejoin: miter; stroke-linecap: square"/>
   </g>
  </g>
  <g id="axes_6">
   <g id="patch_17">
    <path d="M 186.479304 214.386667 
L 271.83387 214.386667 
L 271.83387 139.893333 
L 186.479304 139.893333 
z
" style="fill: #ffffff"/>
   </g>
   <g id="matplotlib.axis_11">
    <g id="xtick_16">
     <g id="line2d_46">
      <g>
       <use xlink:href="#m5e6064b006" x="186.479304" y="214.386667" style="stroke: #000000; stroke-width: 1.5"/>
      </g>
     </g>
    </g>
    <g id="xtick_17">
     <g id="line2d_47">
      <g>
       <use xlink:href="#m5e6064b006" x="229.156587" y="214.386667" style="stroke: #000000; stroke-width: 1.5"/>
      </g>
     </g>
    </g>
    <g id="xtick_18">
     <g id="line2d_48">
      <g>
       <use xlink:href="#m5e6064b006" x="271.83387" y="214.386667" style="stroke: #000000; stroke-width: 1.5"/>
      </g>
     </g>
    </g>
   </g>
   <g id="matplotlib.axis_12">
    <g id="ytick_16">
     <g id="line2d_49">
      <g>
       <use xlink:href="#m7765bae37a" x="186.479304" y="214.386667" style="stroke: #000000; stroke-width: 1.5"/>
      </g>
     </g>
     <g id="text_22">
      <text style="font: 9px 'Arial', sans-serif; text-anchor: end" x="179.479304" y="217.805964" transform="rotate(-0 179.479304 217.805964)">0.0</text>
     </g>
    </g>
    <g id="ytick_17">
     <g id="line2d_50">
      <g>
       <use xlink:href="#m7765bae37a" x="186.479304" y="177.14" style="stroke: #000000; stroke-width: 1.5"/>
      </g>
     </g>
     <g id="text_23">
      <text style="font: 9px 'Arial', sans-serif; text-anchor: end" x="179.479304" y="180.559297" transform="rotate(-0 179.479304 180.559297)">0.5</text>
     </g>
    </g>
    <g id="ytick_18">
     <g id="line2d_51">
      <g>
       <use xlink:href="#m7765bae37a" x="186.479304" y="139.893333" style="stroke: #000000; stroke-width: 1.5"/>
      </g>
     </g>
     <g id="text_24">
      <text style="font: 9px 'Arial', sans-serif; text-anchor: end" x="179.479304" y="143.31263" transform="rotate(-0 179.479304 143.31263)">1.0</text>
     </g>
    </g>
   </g>
   <g id="line2d_52">
    <path d="M 186.479304 214.386667 
L 188.186396 212.69388 
L 189.858648 211.385479 
L 191.530901 210.129522 
L 193.203154 208.756759 
L 194.875406 207.299967 
L 196.547659 206.052055 
L 198.219912 204.833344 
L 199.892165 203.491868 
L 201.564417 202.086923 
L 203.23667 200.573815 
L 204.908923 199.107786 
L 206.581175 197.803855 
L 208.253428 196.217445 
L 209.925681 194.609879 
L 211.597934 193.201061 
L 213.270186 191.7985 
L 214.942439 190.133723 
L 216.614692 188.549995 
L 218.286944 187.072345 
L 219.959197 185.668295 
L 221.63145 183.847678 
L 223.303702 182.539873 
L 224.975955 181.111687 
L 226.648208 179.604835 
L 228.320461 178.156387 
L 229.992713 176.96658 
L 231.664966 175.476415 
L 233.337219 173.850374 
L 235.009471 172.516348 
L 236.681724 171.085778 
L 238.353977 169.742216 
L 240.02623 168.160872 
L 241.698482 166.512483 
L 243.370735 164.888528 
L 245.042988 163.270533 
L 246.71524 161.71839 
L 248.387493 159.936808 
L 250.059746 158.556297 
L 251.731998 157.234785 
L 253.404251 155.711248 
L 255.076504 154.131095 
L 256.748757 152.672814 
L 258.421009 150.97228 
L 260.093262 149.624248 
L 261.765515 148.191295 
L 263.437767 146.354885 
L 265.11002 144.773839 
L 266.782273 143.404949 
L 268.454526 141.911805 
L 270.126778 140.82748 
L 271.83387 139.893333 
" clip-path="url(#p8ff5b370a5)" style="fill: none; stroke: #1f77b4; stroke-opacity: 0.5; stroke-width: 2; stroke-linecap: square"/>
   </g>
   <g id="line2d_53">
    <path d="M 186.479304 214.386667 
L 188.186396 212.886371 
L 189.858648 211.60449 
L 191.530901 210.178091 
L 193.203154 208.737986 
L 194.875406 207.184949 
L 196.547659 205.706405 
L 198.219912 204.428398 
L 199.892165 202.955218 
L 201.564417 201.63758 
L 203.23667 200.24813 
L 204.908923 198.900695 
L 206.581175 197.61494 
L 208.253428 196.102427 
L 209.925681 194.894443 
L 211.597934 193.450762 
L 213.270186 192.208809 
L 214.942439 190.936463 
L 216.614692 189.598563 
L 218.286944 188.225204 
L 219.959197 186.829795 
L 221.63145 185.372407 
L 223.303702 183.977594 
L 224.975955 182.652209 
L 226.648208 181.258289 
L 228.320461 179.783619 
L 229.992713 178.429331 
L 231.664966 177.064613 
L 233.337219 175.481778 
L 235.009471 173.927549 
L 236.681724 172.332498 
L 238.353977 170.832798 
L 240.02623 169.413253 
L 241.698482 167.826843 
L 243.370735 166.235666 
L 245.042988 164.900447 
L 246.71524 163.193656 
L 248.387493 161.683527 
L 250.059746 160.118869 
L 251.731998 158.626321 
L 253.404251 156.884667 
L 255.076504 155.363513 
L 256.748757 153.753563 
L 258.421009 151.793196 
L 260.093262 150.139444 
L 261.765515 148.57717 
L 263.437767 147.275325 
L 265.11002 145.719606 
L 266.782273 144.496127 
L 268.454526 142.946666 
L 270.126778 141.626942 
L 271.83387 139.893333 
" clip-path="url(#p8ff5b370a5)" style="fill: none; stroke: #ff7f0e; stroke-opacity: 0.5; stroke-width: 2; stroke-linecap: square"/>
   </g>
   <g id="line2d_54">
    <path d="M 186.479304 214.386667 
L 271.83387 139.893333 
" clip-path="url(#p8ff5b370a5)" style="fill: none; stroke-dasharray: 3.7,1.6; stroke-dashoffset: 0; stroke: #000000; stroke-opacity: 0.5"/>
   </g>
   <g id="patch_18">
    <path d="M 186.479304 214.386667 
L 186.479304 139.893333 
" style="fill: none; stroke: #000000; stroke-width: 1.5; stroke-linejoin: miter; stroke-linecap: square"/>
   </g>
   <g id="patch_19">
    <path d="M 186.479304 214.386667 
L 271.83387 214.386667 
" style="fill: none; stroke: #000000; stroke-width: 1.5; stroke-linejoin: miter; stroke-linecap: square"/>
   </g>
  </g>
  <g id="axes_7">
   <g id="patch_20">
    <path d="M 310.10887 214.386667 
L 395.463435 214.386667 
L 395.463435 139.893333 
L 310.10887 139.893333 
z
" style="fill: #ffffff"/>
   </g>
   <g id="matplotlib.axis_13">
    <g id="xtick_19">
     <g id="line2d_55">
      <g>
       <use xlink:href="#m5e6064b006" x="310.10887" y="214.386667" style="stroke: #000000; stroke-width: 1.5"/>
      </g>
     </g>
    </g>
    <g id="xtick_20">
     <g id="line2d_56">
      <g>
       <use xlink:href="#m5e6064b006" x="352.786152" y="214.386667" style="stroke: #000000; stroke-width: 1.5"/>
      </g>
     </g>
    </g>
    <g id="xtick_21">
     <g id="line2d_57">
      <g>
       <use xlink:href="#m5e6064b006" x="395.463435" y="214.386667" style="stroke: #000000; stroke-width: 1.5"/>
      </g>
     </g>
    </g>
   </g>
   <g id="matplotlib.axis_14">
    <g id="ytick_19">
     <g id="line2d_58">
      <g>
       <use xlink:href="#m7765bae37a" x="310.10887" y="214.386667" style="stroke: #000000; stroke-width: 1.5"/>
      </g>
     </g>
     <g id="text_25">
      <text style="font: 9px 'Arial', sans-serif; text-anchor: end" x="303.10887" y="217.805964" transform="rotate(-0 303.10887 217.805964)">0.0</text>
     </g>
    </g>
    <g id="ytick_20">
     <g id="line2d_59">
      <g>
       <use xlink:href="#m7765bae37a" x="310.10887" y="177.14" style="stroke: #000000; stroke-width: 1.5"/>
      </g>
     </g>
     <g id="text_26">
      <text style="font: 9px 'Arial', sans-serif; text-anchor: end" x="303.10887" y="180.559297" transform="rotate(-0 303.10887 180.559297)">0.5</text>
     </g>
    </g>
    <g id="ytick_21">
     <g id="line2d_60">
      <g>
       <use xlink:href="#m7765bae37a" x="310.10887" y="139.893333" style="stroke: #000000; stroke-width: 1.5"/>
      </g>
     </g>
     <g id="text_27">
      <text style="font: 9px 'Arial', sans-serif; text-anchor: end" x="303.10887" y="143.31263" transform="rotate(-0 303.10887 143.31263)">1.0</text>
     </g>
    </g>
   </g>
   <g id="line2d_61">
    <path d="M 310.10887 214.386667 
L 311.815961 212.398887 
L 313.488214 210.673919 
L 315.160466 208.869988 
L 316.832719 207.159621 
L 318.504972 205.779707 
L 320.177224 204.159924 
L 321.849477 202.519581 
L 323.52173 201.061597 
L 325.193983 199.485318 
L 326.866235 198.144736 
L 328.538488 196.689434 
L 330.210741 195.439138 
L 331.882993 193.846173 
L 333.555246 192.523767 
L 335.227499 191.19421 
L 336.899751 189.797907 
L 338.572004 188.257981 
L 340.244257 186.757983 
L 341.91651 185.369428 
L 343.588762 183.760669 
L 345.261015 182.28004 
L 346.933268 180.926049 
L 348.60552 179.442738 
L 350.277773 178.108711 
L 351.950026 176.776473 
L 353.622279 175.264258 
L 355.294531 173.81134 
L 356.966784 172.20586 
L 358.639037 170.737149 
L 360.311289 169.330715 
L 361.983542 167.973446 
L 363.655795 166.347704 
L 365.328047 165.11469 
L 367.0003 163.758614 
L 368.672553 162.244015 
L 370.344806 160.476437 
L 372.017058 158.836988 
L 373.689311 157.151353 
L 375.361564 155.669531 
L 377.033816 154.180261 
L 378.706069 152.766377 
L 380.378322 151.321207 
L 382.050575 149.9401 
L 383.722827 148.565847 
L 385.39508 147.3966 
L 387.067333 146.10131 
L 388.739585 144.855185 
L 390.411838 143.651373 
L 392.084091 142.149587 
L 393.756343 140.960674 
L 395.463435 139.893333 
" clip-path="url(#pd973a76a57)" style="fill: none; stroke: #1f77b4; stroke-opacity: 0.5; stroke-width: 2; stroke-linecap: square"/>
   </g>
   <g id="line2d_62">
    <path d="M 310.10887 214.386667 
L 311.815961 212.704905 
L 313.488214 211.128924 
L 315.160466 209.525828 
L 316.832719 208.062481 
L 318.504972 206.313675 
L 320.177224 204.627742 
L 321.849477 202.77256 
L 323.52173 201.312789 
L 325.193983 199.791635 
L 326.866235 198.255284 
L 328.538488 196.380138 
L 330.210741 194.796708 
L 331.882993 193.075614 
L 333.555246 191.806843 
L 335.227499 190.226989 
L 336.899751 188.640877 
L 338.572004 187.032119 
L 340.244257 185.718652 
L 341.91651 184.180514 
L 343.588762 182.785403 
L 345.261015 181.490411 
L 346.933268 180.050604 
L 348.60552 178.675457 
L 350.277773 177.358116 
L 351.950026 175.831301 
L 353.622279 174.404605 
L 355.294531 172.851568 
L 356.966784 171.528268 
L 358.639037 169.980297 
L 360.311289 168.565817 
L 361.983542 166.951398 
L 363.655795 165.453784 
L 365.328047 164.114692 
L 367.0003 162.720176 
L 368.672553 161.201108 
L 370.344806 159.676975 
L 372.017058 158.432638 
L 373.689311 156.911484 
L 375.361564 155.64182 
L 377.033816 154.03336 
L 378.706069 152.49105 
L 380.378322 151.261314 
L 382.050575 149.990756 
L 383.722827 148.595347 
L 385.39508 147.443978 
L 387.067333 146.093562 
L 388.739585 144.623362 
L 390.411838 143.349228 
L 392.084091 141.895416 
L 393.756343 140.914786 
L 395.463435 139.893333 
" clip-path="url(#pd973a76a57)" style="fill: none; stroke: #ff7f0e; stroke-opacity: 0.5; stroke-width: 2; stroke-linecap: square"/>
   </g>
   <g id="line2d_63">
    <path d="M 310.10887 214.386667 
L 395.463435 139.893333 
" clip-path="url(#pd973a76a57)" style="fill: none; stroke-dasharray: 3.7,1.6; stroke-dashoffset: 0; stroke: #000000; stroke-opacity: 0.5"/>
   </g>
   <g id="patch_21">
    <path d="M 310.10887 214.386667 
L 310.10887 139.893333 
" style="fill: none; stroke: #000000; stroke-width: 1.5; stroke-linejoin: miter; stroke-linecap: square"/>
   </g>
   <g id="patch_22">
    <path d="M 310.10887 214.386667 
L 395.463435 214.386667 
" style="fill: none; stroke: #000000; stroke-width: 1.5; stroke-linejoin: miter; stroke-linecap: square"/>
   </g>
  </g>
  <g id="axes_8">
   <g id="patch_23">
    <path d="M 433.738435 214.386667 
L 519.093 214.386667 
L 519.093 139.893333 
L 433.738435 139.893333 
z
" style="fill: #ffffff"/>
   </g>
   <g id="matplotlib.axis_15">
    <g id="xtick_22">
     <g id="line2d_64">
      <g>
       <use xlink:href="#m5e6064b006" x="433.738435" y="214.386667" style="stroke: #000000; stroke-width: 1.5"/>
      </g>
     </g>
    </g>
    <g id="xtick_23">
     <g id="line2d_65">
      <g>
       <use xlink:href="#m5e6064b006" x="476.415717" y="214.386667" style="stroke: #000000; stroke-width: 1.5"/>
      </g>
     </g>
    </g>
    <g id="xtick_24">
     <g id="line2d_66">
      <g>
       <use xlink:href="#m5e6064b006" x="519.093" y="214.386667" style="stroke: #000000; stroke-width: 1.5"/>
      </g>
     </g>
    </g>
   </g>
   <g id="matplotlib.axis_16">
    <g id="ytick_22">
     <g id="line2d_67">
      <g>
       <use xlink:href="#m7765bae37a" x="433.738435" y="214.386667" style="stroke: #000000; stroke-width: 1.5"/>
      </g>
     </g>
     <g id="text_28">
      <text style="font: 9px 'Arial', sans-serif; text-anchor: end" x="426.738435" y="217.805964" transform="rotate(-0 426.738435 217.805964)">0.0</text>
     </g>
    </g>
    <g id="ytick_23">
     <g id="line2d_68">
      <g>
       <use xlink:href="#m7765bae37a" x="433.738435" y="177.14" style="stroke: #000000; stroke-width: 1.5"/>
      </g>
     </g>
     <g id="text_29">
      <text style="font: 9px 'Arial', sans-serif; text-anchor: end" x="426.738435" y="180.559297" transform="rotate(-0 426.738435 180.559297)">0.5</text>
     </g>
    </g>
    <g id="ytick_24">
     <g id="line2d_69">
      <g>
       <use xlink:href="#m7765bae37a" x="433.738435" y="139.893333" style="stroke: #000000; stroke-width: 1.5"/>
      </g>
     </g>
     <g id="text_30">
      <text style="font: 9px 'Arial', sans-serif; text-anchor: end" x="426.738435" y="143.31263" transform="rotate(-0 426.738435 143.31263)">1.0</text>
     </g>
    </g>
   </g>
   <g id="line2d_70">
    <path d="M 433.738435 214.386667 
L 435.445526 212.695668 
L 437.117779 211.123561 
L 438.790031 209.618795 
L 440.462284 208.340788 
L 442.134537 206.623567 
L 443.80679 205.221901 
L 445.479042 203.700151 
L 447.151295 202.2815 
L 448.823548 200.593183 
L 450.4958 199.244556 
L 452.168053 197.706715 
L 453.840306 195.973405 
L 455.512559 194.61256 
L 457.184811 193.090811 
L 458.857064 191.552672 
L 460.529317 190.223115 
L 462.201569 188.706133 
L 463.873822 187.226099 
L 465.546075 185.887305 
L 467.218328 184.268416 
L 468.89058 182.974914 
L 470.562833 181.471638 
L 472.235086 180.162641 
L 473.907338 178.486839 
L 475.579591 177.082789 
L 477.251844 175.881063 
L 478.924096 174.565808 
L 480.596349 173.167122 
L 482.268602 171.60008 
L 483.940855 170.186792 
L 485.613107 168.629584 
L 487.28536 167.300623 
L 488.957613 165.67488 
L 490.629865 164.390317 
L 492.302118 162.941869 
L 493.974371 161.282455 
L 495.646624 159.797654 
L 497.318876 158.493723 
L 498.991129 156.802724 
L 500.663382 155.405825 
L 502.335634 153.966912 
L 504.007887 152.466914 
L 505.68014 150.92669 
L 507.352392 149.74612 
L 509.024645 148.333428 
L 510.696898 146.906136 
L 512.369151 145.352205 
L 514.041403 143.897797 
L 515.713656 142.468717 
L 517.385909 141.042616 
L 519.093 139.893333 
" clip-path="url(#p8a6219c955)" style="fill: none; stroke: #1f77b4; stroke-opacity: 0.5; stroke-width: 2; stroke-linecap: square"/>
   </g>
   <g id="line2d_71">
    <path d="M 433.738435 214.386667 
L 435.445526 212.527909 
L 437.117779 211.036552 
L 438.790031 209.577675 
L 440.462284 207.863136 
L 442.134537 206.266297 
L 443.80679 204.410519 
L 445.479042 202.791034 
L 447.151295 201.05385 
L 448.823548 199.17334 
L 450.4958 197.468337 
L 452.168053 195.554454 
L 453.840306 193.901 
L 455.512559 192.097963 
L 457.184811 190.552972 
L 458.857064 189.098862 
L 460.529317 187.443322 
L 462.201569 185.98504 
L 463.873822 184.507093 
L 465.546075 182.978192 
L 467.218328 181.668897 
L 468.89058 180.286896 
L 470.562833 178.746672 
L 472.235086 177.43559 
L 473.907338 175.793756 
L 475.579591 174.638216 
L 477.251844 173.13941 
L 478.924096 171.61915 
L 480.596349 170.106637 
L 482.268602 168.5536 
L 483.940855 167.252351 
L 485.613107 165.870053 
L 487.28536 164.572081 
L 488.957613 162.715707 
L 490.629865 161.444255 
L 492.302118 159.935914 
L 493.974371 158.394498 
L 495.646624 156.95618 
L 497.318876 155.5712 
L 498.991129 154.245517 
L 500.663382 153.061371 
L 502.335634 151.615306 
L 504.007887 150.355177 
L 505.68014 148.772045 
L 507.352392 147.499997 
L 509.024645 146.177293 
L 510.696898 144.939214 
L 512.369151 143.396904 
L 514.041403 142.311387 
L 515.713656 141.351317 
L 517.385909 140.578076 
L 519.093 139.893333 
" clip-path="url(#p8a6219c955)" style="fill: none; stroke: #ff7f0e; stroke-opacity: 0.5; stroke-width: 2; stroke-linecap: square"/>
   </g>
   <g id="line2d_72">
    <path d="M 433.738435 214.386667 
L 519.093 139.893333 
" clip-path="url(#p8a6219c955)" style="fill: none; stroke-dasharray: 3.7,1.6; stroke-dashoffset: 0; stroke: #000000; stroke-opacity: 0.5"/>
   </g>
   <g id="patch_24">
    <path d="M 433.738435 214.386667 
L 433.738435 139.893333 
" style="fill: none; stroke: #000000; stroke-width: 1.5; stroke-linejoin: miter; stroke-linecap: square"/>
   </g>
   <g id="patch_25">
    <path d="M 433.738435 214.386667 
L 519.093 214.386667 
" style="fill: none; stroke: #000000; stroke-width: 1.5; stroke-linejoin: miter; stroke-linecap: square"/>
   </g>
  </g>
  <g id="axes_9">
   <g id="patch_26">
    <path d="M 62.849739 307.96 
L 148.204304 307.96 
L 148.204304 233.466667 
L 62.849739 233.466667 
z
" style="fill: #ffffff"/>
   </g>
   <g id="matplotlib.axis_17">
    <g id="xtick_25">
     <g id="line2d_73">
      <g>
       <use xlink:href="#m5e6064b006" x="62.849739" y="307.96" style="stroke: #000000; stroke-width: 1.5"/>
      </g>
     </g>
     <g id="text_31">
      <text style="font: 9px 'Arial', sans-serif; text-anchor: middle" x="62.849739" y="321.798594" transform="rotate(-0 62.849739 321.798594)">0.0</text>
     </g>
    </g>
    <g id="xtick_26">
     <g id="line2d_74">
      <g>
       <use xlink:href="#m5e6064b006" x="105.527022" y="307.96" style="stroke: #000000; stroke-width: 1.5"/>
      </g>
     </g>
     <g id="text_32">
      <text style="font: 9px 'Arial', sans-serif; text-anchor: middle" x="105.527022" y="321.798594" transform="rotate(-0 105.527022 321.798594)">0.5</text>
     </g>
    </g>
    <g id="xtick_27">
     <g id="line2d_75">
      <g>
       <use xlink:href="#m5e6064b006" x="148.204304" y="307.96" style="stroke: #000000; stroke-width: 1.5"/>
      </g>
     </g>
     <g id="text_33">
      <text style="font: 9px 'Arial', sans-serif; text-anchor: middle" x="148.204304" y="321.798594" transform="rotate(-0 148.204304 321.798594)">1.0</text>
     </g>
    </g>
    <g id="text_34">
     <text style="font: 9px 'Arial', sans-serif; text-anchor: middle" x="105.527022" y="334.508906" transform="rotate(-0 105.527022 334.508906)">Credibility level</text>
    </g>
   </g>
   <g id="matplotlib.axis_18">
    <g id="ytick_25">
     <g id="line2d_76">
      <g>
       <use xlink:href="#m7765bae37a" x="62.849739" y="307.96" style="stroke: #000000; stroke-width: 1.5"/>
      </g>
     </g>
     <g id="text_35">
      <text style="font: 9px 'Arial', sans-serif; text-anchor: end" x="55.849739" y="311.379297" transform="rotate(-0 55.849739 311.379297)">0.0</text>
     </g>
    </g>
    <g id="ytick_26">
     <g id="line2d_77">
      <g>
       <use xlink:href="#m7765bae37a" x="62.849739" y="270.713333" style="stroke: #000000; stroke-width: 1.5"/>
      </g>
     </g>
     <g id="text_36">
      <text style="font: 9px 'Arial', sans-serif; text-anchor: end" x="55.849739" y="274.13263" transform="rotate(-0 55.849739 274.13263)">0.5</text>
     </g>
    </g>
    <g id="ytick_27">
     <g id="line2d_78">
      <g>
       <use xlink:href="#m7765bae37a" x="62.849739" y="233.466667" style="stroke: #000000; stroke-width: 1.5"/>
      </g>
     </g>
     <g id="text_37">
      <text style="font: 9px 'Arial', sans-serif; text-anchor: end" x="55.849739" y="236.885964" transform="rotate(-0 55.849739 236.885964)">1.0</text>
     </g>
    </g>
    <g id="text_38">
     <text style="font: 9px 'Arial', sans-serif; text-anchor: middle" x="35.371651" y="270.713333" transform="rotate(-90 35.371651 270.713333)">100000</text>
    </g>
   </g>
   <g id="line2d_79">
    <path d="M 62.849739 307.96 
L 64.55683 306.765723 
L 66.229083 305.354819 
L 67.901336 303.946895 
L 69.573589 302.332178 
L 71.245841 300.886709 
L 72.918094 299.053875 
L 74.590347 297.468061 
L 76.262599 295.660257 
L 77.934852 294.279448 
L 79.607105 292.833682 
L 81.279357 291.385531 
L 82.95161 289.752637 
L 84.623863 288.058063 
L 86.296116 286.449901 
L 87.968368 285.076542 
L 89.640621 283.65074 
L 91.312874 282.471361 
L 92.985126 280.957955 
L 94.657379 279.531854 
L 96.329632 278.027685 
L 98.001885 276.623038 
L 99.674137 275.061062 
L 101.34639 273.573281 
L 103.018643 272.272032 
L 104.690895 270.974656 
L 106.363148 269.473168 
L 108.035401 267.859345 
L 109.707654 266.502076 
L 111.379906 264.997013 
L 113.052159 263.634083 
L 114.724412 262.202619 
L 116.396664 260.78069 
L 118.068917 259.544101 
L 119.74117 258.053042 
L 121.413422 256.790827 
L 123.085675 255.608469 
L 124.757928 254.16598 
L 126.430181 252.766697 
L 128.102433 251.218428 
L 129.774686 249.763424 
L 131.446939 248.307527 
L 133.119191 246.903178 
L 134.791444 245.444599 
L 136.463697 243.84031 
L 138.13595 242.604913 
L 139.808202 240.97917 
L 141.480455 239.472319 
L 143.152708 237.912727 
L 144.82496 236.502717 
L 146.497213 234.792052 
L 148.204304 233.466667 
" clip-path="url(#p240cd55674)" style="fill: none; stroke: #1f77b4; stroke-opacity: 0.5; stroke-width: 2; stroke-linecap: square"/>
   </g>
   <g id="line2d_80">
    <path d="M 62.849739 307.96 
L 64.55683 306.352136 
L 66.229083 304.797311 
L 67.901336 303.561914 
L 69.573589 301.936469 
L 71.245841 300.388498 
L 72.918094 299.173064 
L 74.590347 297.679622 
L 76.262599 295.994583 
L 77.934852 294.705848 
L 79.607105 293.181715 
L 81.279357 291.792265 
L 82.95161 290.290479 
L 84.623863 288.866465 
L 86.296116 287.257707 
L 87.968368 285.875408 
L 89.640621 284.556876 
L 91.312874 283.191563 
L 92.985126 281.525594 
L 94.657379 280.268146 
L 96.329632 278.99282 
L 98.001885 277.366184 
L 99.674137 275.814041 
L 101.34639 274.503852 
L 103.018643 273.045869 
L 104.690895 271.606061 
L 106.363148 270.177279 
L 108.035401 268.556304 
L 109.707654 267.008631 
L 111.379906 265.750885 
L 113.052159 263.903451 
L 114.724412 262.694275 
L 116.396664 261.143324 
L 118.068917 259.898987 
L 119.74117 258.167464 
L 121.413422 256.549469 
L 123.085675 254.874859 
L 124.757928 253.468127 
L 126.430181 252.252693 
L 128.102433 250.850133 
L 129.774686 249.322126 
L 131.446939 247.929696 
L 133.119191 246.456218 
L 134.791444 244.931489 
L 136.463697 243.567665 
L 138.13595 242.168382 
L 139.808202 240.71904 
L 141.480455 239.374286 
L 143.152708 237.967554 
L 144.82496 236.548903 
L 146.497213 235.029835 
L 148.204304 233.466667 
" clip-path="url(#p240cd55674)" style="fill: none; stroke: #ff7f0e; stroke-opacity: 0.5; stroke-width: 2; stroke-linecap: square"/>
   </g>
   <g id="line2d_81">
    <path d="M 62.849739 307.96 
L 148.204304 233.466667 
" clip-path="url(#p240cd55674)" style="fill: none; stroke-dasharray: 3.7,1.6; stroke-dashoffset: 0; stroke: #000000; stroke-opacity: 0.5"/>
   </g>
   <g id="patch_27">
    <path d="M 62.849739 307.96 
L 62.849739 233.466667 
" style="fill: none; stroke: #000000; stroke-width: 1.5; stroke-linejoin: miter; stroke-linecap: square"/>
   </g>
   <g id="patch_28">
    <path d="M 62.849739 307.96 
L 148.204304 307.96 
" style="fill: none; stroke: #000000; stroke-width: 1.5; stroke-linejoin: miter; stroke-linecap: square"/>
   </g>
  </g>
  <g id="axes_10">
   <g id="patch_29">
    <path d="M 186.479304 307.96 
L 271.83387 307.96 
L 271.83387 233.466667 
L 186.479304 233.466667 
z
" style="fill: #ffffff"/>
   </g>
   <g id="matplotlib.axis_19">
    <g id="xtick_28">
     <g id="line2d_82">
      <g>
       <use xlink:href="#m5e6064b006" x="186.479304" y="307.96" style="stroke: #000000; stroke-width: 1.5"/>
      </g>
     </g>
     <g id="text_39">
      <text style="font: 9px 'Arial', sans-serif; text-anchor: middle" x="186.479304" y="321.798594" transform="rotate(-0 186.479304 321.798594)">0.0</text>
     </g>
    </g>
    <g id="xtick_29">
     <g id="line2d_83">
      <g>
       <use xlink:href="#m5e6064b006" x="229.156587" y="307.96" style="stroke: #000000; stroke-width: 1.5"/>
      </g>
     </g>
     <g id="text_40">
      <text style="font: 9px 'Arial', sans-serif; text-anchor: middle" x="229.156587" y="321.798594" transform="rotate(-0 229.156587 321.798594)">0.5</text>
     </g>
    </g>
    <g id="xtick_30">
     <g id="line2d_84">
      <g>
       <use xlink:href="#m5e6064b006" x="271.83387" y="307.96" style="stroke: #000000; stroke-width: 1.5"/>
      </g>
     </g>
     <g id="text_41">
      <text style="font: 9px 'Arial', sans-serif; text-anchor: middle" x="271.83387" y="321.798594" transform="rotate(-0 271.83387 321.798594)">1.0</text>
     </g>
    </g>
    <g id="text_42">
     <text style="font: 9px 'Arial', sans-serif; text-anchor: middle" x="229.156587" y="334.508906" transform="rotate(-0 229.156587 334.508906)">Credibility level</text>
    </g>
   </g>
   <g id="matplotlib.axis_20">
    <g id="ytick_28">
     <g id="line2d_85">
      <g>
       <use xlink:href="#m7765bae37a" x="186.479304" y="307.96" style="stroke: #000000; stroke-width: 1.5"/>
      </g>
     </g>
     <g id="text_43">
      <text style="font: 9px 'Arial', sans-serif; text-anchor: end" x="179.479304" y="311.379297" transform="rotate(-0 179.479304 311.379297)">0.0</text>
     </g>
    </g>
    <g id="ytick_29">
     <g id="line2d_86">
      <g>
       <use xlink:href="#m7765bae37a" x="186.479304" y="270.713333" style="stroke: #000000; stroke-width: 1.5"/>
      </g>
     </g>
     <g id="text_44">
      <text style="font: 9px 'Arial', sans-serif; text-anchor: end" x="179.479304" y="274.13263" transform="rotate(-0 179.479304 274.13263)">0.5</text>
     </g>
    </g>
    <g id="ytick_30">
     <g id="line2d_87">
      <g>
       <use xlink:href="#m7765bae37a" x="186.479304" y="233.466667" style="stroke: #000000; stroke-width: 1.5"/>
      </g>
     </g>
     <g id="text_45">
      <text style="font: 9px 'Arial', sans-serif; text-anchor: end" x="179.479304" y="236.885964" transform="rotate(-0 179.479304 236.885964)">1.0</text>
     </g>
    </g>
   </g>
   <g id="line2d_88">
    <path d="M 186.479304 307.96 
L 188.186396 306.656665 
L 189.858648 305.145344 
L 191.530901 303.777646 
L 193.203154 302.15399 
L 194.875406 300.786292 
L 196.547659 299.123303 
L 198.219912 297.52557 
L 199.892165 296.192139 
L 201.564417 294.944823 
L 203.23667 293.564014 
L 204.908923 292.250548 
L 206.581175 290.784817 
L 208.253428 289.243401 
L 209.925681 287.758302 
L 211.597934 286.312535 
L 213.270186 284.983574 
L 214.942439 283.429047 
L 216.614692 282.093531 
L 218.286944 280.545559 
L 219.959197 279.016062 
L 221.63145 277.757721 
L 223.303702 276.558974 
L 224.975955 275.19366 
L 226.648208 273.867381 
L 228.320461 272.401054 
L 229.992713 270.921617 
L 231.664966 269.451416 
L 233.337219 267.721383 
L 235.009471 266.401659 
L 236.681724 264.80631 
L 238.353977 263.269364 
L 240.02623 261.853692 
L 241.698482 260.337008 
L 243.370735 258.694877 
L 245.042988 257.342972 
L 246.71524 255.764011 
L 248.387493 253.757757 
L 250.059746 252.211573 
L 251.731998 250.814972 
L 253.404251 249.174927 
L 255.076504 247.994059 
L 256.748757 246.409436 
L 258.421009 244.867722 
L 260.093262 243.34925 
L 261.765515 241.601935 
L 263.437767 240.419874 
L 265.11002 238.79145 
L 266.782273 237.602835 
L 268.454526 236.148427 
L 270.126778 234.780431 
L 271.83387 233.466667 
" clip-path="url(#pb21a087d3a)" style="fill: none; stroke: #1f77b4; stroke-opacity: 0.5; stroke-width: 2; stroke-linecap: square"/>
   </g>
   <g id="line2d_89">
    <path d="M 186.479304 307.96 
L 188.186396 306.525854 
L 189.858648 305.230862 
L 191.530901 303.789863 
L 193.203154 302.476099 
L 194.875406 300.907865 
L 196.547659 299.471634 
L 198.219912 298.235044 
L 199.892165 296.930219 
L 201.564417 295.543153 
L 203.23667 294.252929 
L 204.908923 293.063121 
L 206.581175 291.455257 
L 208.253428 290.090539 
L 209.925681 288.642091 
L 211.597934 287.489232 
L 213.270186 286.088757 
L 214.942439 284.661465 
L 216.614692 283.391205 
L 218.286944 281.857834 
L 219.959197 280.530363 
L 221.63145 279.227623 
L 223.303702 277.658496 
L 224.975955 276.073278 
L 226.648208 274.835496 
L 228.320461 273.320004 
L 229.992713 271.721079 
L 231.664966 270.232702 
L 233.337219 268.747901 
L 235.009471 267.081634 
L 236.681724 265.552435 
L 238.353977 263.839684 
L 240.02623 262.234204 
L 241.698482 260.699344 
L 243.370735 259.402266 
L 245.042988 257.665081 
L 246.71524 256.196668 
L 248.387493 254.779209 
L 250.059746 253.452632 
L 251.731998 252.095959 
L 253.404251 250.403173 
L 255.076504 248.927907 
L 256.748757 247.221712 
L 258.421009 245.710391 
L 260.093262 244.043826 
L 261.765515 242.516415 
L 263.437767 241.010756 
L 265.11002 239.354322 
L 266.782273 237.816183 
L 268.454526 236.329892 
L 270.126778 234.922266 
L 271.83387 233.466667 
" clip-path="url(#pb21a087d3a)" style="fill: none; stroke: #ff7f0e; stroke-opacity: 0.5; stroke-width: 2; stroke-linecap: square"/>
   </g>
   <g id="line2d_90">
    <path d="M 186.479304 307.96 
L 271.83387 233.466667 
" clip-path="url(#pb21a087d3a)" style="fill: none; stroke-dasharray: 3.7,1.6; stroke-dashoffset: 0; stroke: #000000; stroke-opacity: 0.5"/>
   </g>
   <g id="patch_30">
    <path d="M 186.479304 307.96 
L 186.479304 233.466667 
" style="fill: none; stroke: #000000; stroke-width: 1.5; stroke-linejoin: miter; stroke-linecap: square"/>
   </g>
   <g id="patch_31">
    <path d="M 186.479304 307.96 
L 271.83387 307.96 
" style="fill: none; stroke: #000000; stroke-width: 1.5; stroke-linejoin: miter; stroke-linecap: square"/>
   </g>
  </g>
  <g id="axes_11">
   <g id="patch_32">
    <path d="M 310.10887 307.96 
L 395.463435 307.96 
L 395.463435 233.466667 
L 310.10887 233.466667 
z
" style="fill: #ffffff"/>
   </g>
   <g id="matplotlib.axis_21">
    <g id="xtick_31">
     <g id="line2d_91">
      <g>
       <use xlink:href="#m5e6064b006" x="310.10887" y="307.96" style="stroke: #000000; stroke-width: 1.5"/>
      </g>
     </g>
     <g id="text_46">
      <text style="font: 9px 'Arial', sans-serif; text-anchor: middle" x="310.10887" y="321.798594" transform="rotate(-0 310.10887 321.798594)">0.0</text>
     </g>
    </g>
    <g id="xtick_32">
     <g id="line2d_92">
      <g>
       <use xlink:href="#m5e6064b006" x="352.786152" y="307.96" style="stroke: #000000; stroke-width: 1.5"/>
      </g>
     </g>
     <g id="text_47">
      <text style="font: 9px 'Arial', sans-serif; text-anchor: middle" x="352.786152" y="321.798594" transform="rotate(-0 352.786152 321.798594)">0.5</text>
     </g>
    </g>
    <g id="xtick_33">
     <g id="line2d_93">
      <g>
       <use xlink:href="#m5e6064b006" x="395.463435" y="307.96" style="stroke: #000000; stroke-width: 1.5"/>
      </g>
     </g>
     <g id="text_48">
      <text style="font: 9px 'Arial', sans-serif; text-anchor: middle" x="395.463435" y="321.798594" transform="rotate(-0 395.463435 321.798594)">1.0</text>
     </g>
    </g>
    <g id="text_49">
     <text style="font: 9px 'Arial', sans-serif; text-anchor: middle" x="352.786152" y="334.508906" transform="rotate(-0 352.786152 334.508906)">Credibility level</text>
    </g>
   </g>
   <g id="matplotlib.axis_22">
    <g id="ytick_31">
     <g id="line2d_94">
      <g>
       <use xlink:href="#m7765bae37a" x="310.10887" y="307.96" style="stroke: #000000; stroke-width: 1.5"/>
      </g>
     </g>
     <g id="text_50">
      <text style="font: 9px 'Arial', sans-serif; text-anchor: end" x="303.10887" y="311.379297" transform="rotate(-0 303.10887 311.379297)">0.0</text>
     </g>
    </g>
    <g id="ytick_32">
     <g id="line2d_95">
      <g>
       <use xlink:href="#m7765bae37a" x="310.10887" y="270.713333" style="stroke: #000000; stroke-width: 1.5"/>
      </g>
     </g>
     <g id="text_51">
      <text style="font: 9px 'Arial', sans-serif; text-anchor: end" x="303.10887" y="274.13263" transform="rotate(-0 303.10887 274.13263)">0.5</text>
     </g>
    </g>
    <g id="ytick_33">
     <g id="line2d_96">
      <g>
       <use xlink:href="#m7765bae37a" x="310.10887" y="233.466667" style="stroke: #000000; stroke-width: 1.5"/>
      </g>
     </g>
     <g id="text_52">
      <text style="font: 9px 'Arial', sans-serif; text-anchor: end" x="303.10887" y="236.885964" transform="rotate(-0 303.10887 236.885964)">1.0</text>
     </g>
    </g>
   </g>
   <g id="line2d_97">
    <path d="M 310.10887 307.96 
L 311.815961 306.370312 
L 313.488214 304.997847 
L 315.160466 303.713284 
L 316.832719 302.110485 
L 318.504972 300.713289 
L 320.177224 299.469548 
L 321.849477 298.165915 
L 323.52173 296.701078 
L 325.193983 295.284214 
L 326.866235 293.857816 
L 328.538488 292.316996 
L 330.210741 290.881062 
L 331.882993 289.015451 
L 333.555246 287.563129 
L 335.227499 286.249067 
L 336.899751 284.721954 
L 338.572004 283.232981 
L 340.244257 281.719276 
L 341.91651 280.26606 
L 343.588762 278.841152 
L 345.261015 277.501464 
L 346.933268 275.980608 
L 348.60552 274.502958 
L 350.277773 272.696346 
L 351.950026 271.279781 
L 353.622279 269.822095 
L 355.294531 268.20261 
L 356.966784 266.868881 
L 358.639037 265.271446 
L 360.311289 263.948445 
L 361.983542 262.452619 
L 363.655795 261.169545 
L 365.328047 259.77354 
L 367.0003 258.442493 
L 368.672553 256.974379 
L 370.344806 255.52891 
L 372.017058 254.23362 
L 373.689311 252.365923 
L 375.361564 251.069739 
L 377.033816 249.561994 
L 378.706069 247.937742 
L 380.378322 246.666289 
L 382.050575 245.285183 
L 383.722827 243.856103 
L 385.39508 242.306046 
L 387.067333 240.806942 
L 388.739585 239.424345 
L 390.411838 238.003013 
L 392.084091 236.506889 
L 393.756343 234.987225 
L 395.463435 233.466667 
" clip-path="url(#p1ea68c29ad)" style="fill: none; stroke: #1f77b4; stroke-opacity: 0.5; stroke-width: 2; stroke-linecap: square"/>
   </g>
   <g id="line2d_98">
    <path d="M 310.10887 307.96 
L 311.815961 306.426927 
L 313.488214 305.112865 
L 315.160466 303.684083 
L 316.832719 302.243382 
L 318.504972 300.771095 
L 320.177224 299.383732 
L 321.849477 297.989514 
L 323.52173 296.346787 
L 325.193983 294.947207 
L 326.866235 293.404599 
L 328.538488 292.074148 
L 330.210741 290.656093 
L 331.882993 289.138812 
L 333.555246 287.853653 
L 335.227499 286.667124 
L 336.899751 285.295254 
L 338.572004 284.194839 
L 340.244257 282.586975 
L 341.91651 280.982686 
L 343.588762 279.457957 
L 345.261015 277.772322 
L 346.933268 276.305399 
L 348.60552 275.110824 
L 350.277773 273.424295 
L 351.950026 271.729422 
L 353.622279 270.257732 
L 355.294531 268.629606 
L 356.966784 266.999096 
L 358.639037 265.685033 
L 360.311289 264.165965 
L 361.983542 262.699936 
L 363.655795 261.324194 
L 365.328047 259.938022 
L 367.0003 258.438918 
L 368.672553 257.088205 
L 370.344806 255.592677 
L 372.017058 254.041427 
L 373.689311 252.382908 
L 375.361564 250.99614 
L 377.033816 249.443997 
L 378.706069 247.988993 
L 380.378322 246.45592 
L 382.050575 245.085541 
L 383.722827 243.701455 
L 385.39508 242.356403 
L 387.067333 240.84538 
L 388.739585 239.506884 
L 390.411838 237.996457 
L 392.084091 236.528045 
L 393.756343 235.10999 
L 395.463435 233.466667 
" clip-path="url(#p1ea68c29ad)" style="fill: none; stroke: #ff7f0e; stroke-opacity: 0.5; stroke-width: 2; stroke-linecap: square"/>
   </g>
   <g id="line2d_99">
    <path d="M 310.10887 307.96 
L 395.463435 233.466667 
" clip-path="url(#p1ea68c29ad)" style="fill: none; stroke-dasharray: 3.7,1.6; stroke-dashoffset: 0; stroke: #000000; stroke-opacity: 0.5"/>
   </g>
   <g id="patch_33">
    <path d="M 310.10887 307.96 
L 310.10887 233.466667 
" style="fill: none; stroke: #000000; stroke-width: 1.5; stroke-linejoin: miter; stroke-linecap: square"/>
   </g>
   <g id="patch_34">
    <path d="M 310.10887 307.96 
L 395.463435 307.96 
" style="fill: none; stroke: #000000; stroke-width: 1.5; stroke-linejoin: miter; stroke-linecap: square"/>
   </g>
  </g>
  <g id="axes_12">
   <g id="patch_35">
    <path d="M 433.738435 307.96 
L 519.093 307.96 
L 519.093 233.466667 
L 433.738435 233.466667 
z
" style="fill: #ffffff"/>
   </g>
   <g id="matplotlib.axis_23">
    <g id="xtick_34">
     <g id="line2d_100">
      <g>
       <use xlink:href="#m5e6064b006" x="433.738435" y="307.96" style="stroke: #000000; stroke-width: 1.5"/>
      </g>
     </g>
     <g id="text_53">
      <text style="font: 9px 'Arial', sans-serif; text-anchor: middle" x="433.738435" y="321.798594" transform="rotate(-0 433.738435 321.798594)">0.0</text>
     </g>
    </g>
    <g id="xtick_35">
     <g id="line2d_101">
      <g>
       <use xlink:href="#m5e6064b006" x="476.415717" y="307.96" style="stroke: #000000; stroke-width: 1.5"/>
      </g>
     </g>
     <g id="text_54">
      <text style="font: 9px 'Arial', sans-serif; text-anchor: middle" x="476.415717" y="321.798594" transform="rotate(-0 476.415717 321.798594)">0.5</text>
     </g>
    </g>
    <g id="xtick_36">
     <g id="line2d_102">
      <g>
       <use xlink:href="#m5e6064b006" x="519.093" y="307.96" style="stroke: #000000; stroke-width: 1.5"/>
      </g>
     </g>
     <g id="text_55">
      <text style="font: 9px 'Arial', sans-serif; text-anchor: middle" x="519.093" y="321.798594" transform="rotate(-0 519.093 321.798594)">1.0</text>
     </g>
    </g>
    <g id="text_56">
     <text style="font: 9px 'Arial', sans-serif; text-anchor: middle" x="476.415717" y="334.508906" transform="rotate(-0 476.415717 334.508906)">Credibility level</text>
    </g>
   </g>
   <g id="matplotlib.axis_24">
    <g id="ytick_34">
     <g id="line2d_103">
      <g>
       <use xlink:href="#m7765bae37a" x="433.738435" y="307.96" style="stroke: #000000; stroke-width: 1.5"/>
      </g>
     </g>
     <g id="text_57">
      <text style="font: 9px 'Arial', sans-serif; text-anchor: end" x="426.738435" y="311.379297" transform="rotate(-0 426.738435 311.379297)">0.0</text>
     </g>
    </g>
    <g id="ytick_35">
     <g id="line2d_104">
      <g>
       <use xlink:href="#m7765bae37a" x="433.738435" y="270.713333" style="stroke: #000000; stroke-width: 1.5"/>
      </g>
     </g>
     <g id="text_58">
      <text style="font: 9px 'Arial', sans-serif; text-anchor: end" x="426.738435" y="274.13263" transform="rotate(-0 426.738435 274.13263)">0.5</text>
     </g>
    </g>
    <g id="ytick_36">
     <g id="line2d_105">
      <g>
       <use xlink:href="#m7765bae37a" x="433.738435" y="233.466667" style="stroke: #000000; stroke-width: 1.5"/>
      </g>
     </g>
     <g id="text_59">
      <text style="font: 9px 'Arial', sans-serif; text-anchor: end" x="426.738435" y="236.885964" transform="rotate(-0 426.738435 236.885964)">1.0</text>
     </g>
    </g>
   </g>
   <g id="line2d_106">
    <path d="M 433.738435 307.96 
L 435.445526 306.505294 
L 437.117779 305.131041 
L 438.790031 303.637897 
L 440.462284 302.115551 
L 442.134537 300.594099 
L 443.80679 299.101551 
L 445.479042 297.468657 
L 447.151295 296.159064 
L 448.823548 294.856325 
L 450.4958 293.27796 
L 452.168053 291.768129 
L 453.840306 290.295545 
L 455.512559 288.715094 
L 457.184811 287.265752 
L 458.857064 285.971058 
L 460.529317 284.584886 
L 462.201569 283.163553 
L 463.873822 281.675176 
L 465.546075 280.297944 
L 467.218328 278.697529 
L 468.89058 277.240439 
L 470.562833 275.432635 
L 472.235086 273.995808 
L 473.907338 272.696048 
L 475.579591 271.391819 
L 477.251844 270.203799 
L 478.924096 268.76578 
L 480.596349 267.203505 
L 482.268602 265.490755 
L 483.940855 264.073892 
L 485.613107 262.578661 
L 487.28536 261.059891 
L 488.957613 259.615317 
L 490.629865 257.92253 
L 492.302118 256.285167 
L 493.974371 255.004179 
L 495.646624 253.378735 
L 497.318876 251.952634 
L 498.991129 250.434758 
L 500.663382 248.986906 
L 502.335634 247.627551 
L 504.007887 246.132619 
L 505.68014 244.834051 
L 507.352392 243.186557 
L 509.024645 241.662721 
L 510.696898 240.262247 
L 512.369151 239.040854 
L 514.041403 237.569164 
L 515.713656 236.172265 
L 517.385909 234.76732 
L 519.093 233.466667 
" clip-path="url(#p2b5e52ecad)" style="fill: none; stroke: #1f77b4; stroke-opacity: 0.5; stroke-width: 2; stroke-linecap: square"/>
   </g>
   <g id="line2d_107">
    <path d="M 433.738435 307.96 
L 435.445526 306.715961 
L 437.117779 305.496654 
L 438.790031 303.93885 
L 440.462284 302.599758 
L 442.134537 301.173657 
L 443.80679 299.947199 
L 445.479042 298.635818 
L 447.151295 297.181411 
L 448.823548 295.693034 
L 450.4958 294.236242 
L 452.168053 292.606924 
L 453.840306 291.370633 
L 455.512559 289.996082 
L 457.184811 288.56432 
L 458.857064 287.069388 
L 460.529317 285.824157 
L 462.201569 284.307771 
L 463.873822 282.923685 
L 465.546075 281.675176 
L 467.218328 280.398361 
L 468.89058 278.730306 
L 470.562833 277.164456 
L 472.235086 275.966007 
L 473.907338 274.544972 
L 475.579591 272.977037 
L 477.251844 271.486872 
L 478.924096 269.824479 
L 480.596349 268.477639 
L 482.268602 266.969596 
L 483.940855 265.705891 
L 485.613107 264.348027 
L 487.28536 262.713345 
L 488.957613 261.178485 
L 490.629865 259.71186 
L 492.302118 258.112339 
L 493.974371 256.754475 
L 495.646624 255.318839 
L 497.318876 253.797983 
L 498.991129 251.80037 
L 500.663382 250.127846 
L 502.335634 248.516704 
L 504.007887 247.064382 
L 505.68014 245.649306 
L 507.352392 244.077497 
L 509.024645 242.653483 
L 510.696898 241.134116 
L 512.369151 239.549494 
L 514.041403 237.778043 
L 515.713656 236.171073 
L 517.385909 234.731861 
L 519.093 233.466667 
" clip-path="url(#p2b5e52ecad)" style="fill: none; stroke: #ff7f0e; stroke-opacity: 0.5; stroke-width: 2; stroke-linecap: square"/>
   </g>
   <g id="line2d_108">
    <path d="M 433.738435 307.96 
L 519.093 233.466667 
" clip-path="url(#p2b5e52ecad)" style="fill: none; stroke-dasharray: 3.7,1.6; stroke-dashoffset: 0; stroke: #000000; stroke-opacity: 0.5"/>
   </g>
   <g id="patch_36">
    <path d="M 433.738435 307.96 
L 433.738435 233.466667 
" style="fill: none; stroke: #000000; stroke-width: 1.5; stroke-linejoin: miter; stroke-linecap: square"/>
   </g>
   <g id="patch_37">
    <path d="M 433.738435 307.96 
L 519.093 307.96 
" style="fill: none; stroke: #000000; stroke-width: 1.5; stroke-linejoin: miter; stroke-linecap: square"/>
   </g>
  </g>
  <g id="text_60">
   <text style="font: 9px 'Arial', sans-serif; text-anchor: middle" x="276.768" y="14.038594" transform="rotate(-0 276.768 14.038594)">Simformer: Expected Coverage</text>
  </g>
  <g id="text_61">
   <text style="font: 9px 'Arial', sans-serif" transform="translate(14.038594 236.476406) rotate(-90)">Number of simulations</text>
  </g>
  <g id="legend_1">
   <g id="line2d_109">
    <path d="M 200.949328 350.478281 
L 209.949328 350.478281 
L 218.949328 350.478281 
" style="fill: none; stroke: #1f77b4; stroke-opacity: 0.5; stroke-width: 2; stroke-linecap: square"/>
   </g>
   <g id="text_62">
    <text style="font: 9px 'Arial', sans-serif; text-anchor: start" x="226.149328" y="353.628281" transform="rotate(-0 226.149328 353.628281)">posterior</text>
   </g>
   <g id="line2d_110">
    <path d="M 284.531203 350.478281 
L 293.531203 350.478281 
L 302.531203 350.478281 
" style="fill: none; stroke: #ff7f0e; stroke-opacity: 0.5; stroke-width: 2; stroke-linecap: square"/>
   </g>
   <g id="text_63">
    <text style="font: 9px 'Arial', sans-serif; text-anchor: start" x="309.731203" y="353.628281" transform="rotate(-0 309.731203 353.628281)">likelihood</text>
   </g>
  </g>
 </g>
 <defs>
  <clipPath id="pd58fdd8493">
   <rect x="62.849739" y="46.32" width="85.354565" height="74.493333"/>
  </clipPath>
  <clipPath id="pbc4831af53">
   <rect x="186.479304" y="46.32" width="85.354565" height="74.493333"/>
  </clipPath>
  <clipPath id="p2864654b24">
   <rect x="310.10887" y="46.32" width="85.354565" height="74.493333"/>
  </clipPath>
  <clipPath id="pa49f5a5708">
   <rect x="433.738435" y="46.32" width="85.354565" height="74.493333"/>
  </clipPath>
  <clipPath id="pfdfe2dc55b">
   <rect x="62.849739" y="139.893333" width="85.354565" height="74.493333"/>
  </clipPath>
  <clipPath id="p8ff5b370a5">
   <rect x="186.479304" y="139.893333" width="85.354565" height="74.493333"/>
  </clipPath>
  <clipPath id="pd973a76a57">
   <rect x="310.10887" y="139.893333" width="85.354565" height="74.493333"/>
  </clipPath>
  <clipPath id="p8a6219c955">
   <rect x="433.738435" y="139.893333" width="85.354565" height="74.493333"/>
  </clipPath>
  <clipPath id="p240cd55674">
   <rect x="62.849739" y="233.466667" width="85.354565" height="74.493333"/>
  </clipPath>
  <clipPath id="pb21a087d3a">
   <rect x="186.479304" y="233.466667" width="85.354565" height="74.493333"/>
  </clipPath>
  <clipPath id="p1ea68c29ad">
   <rect x="310.10887" y="233.466667" width="85.354565" height="74.493333"/>
  </clipPath>
  <clipPath id="p2b5e52ecad">
   <rect x="433.738435" y="233.466667" width="85.354565" height="74.493333"/>
  </clipPath>
 </defs>
</svg>
