<?xml version="1.0" encoding="utf-8" standalone="no"?>
<!DOCTYPE svg PUBLIC "-//W3C//DTD SVG 1.1//EN"
  "http://www.w3.org/Graphics/SVG/1.1/DTD/svg11.dtd">
<svg xmlns:xlink="http://www.w3.org/1999/xlink" width="401.257406pt" height="366.3pt" viewBox="0 0 401.257406 366.3" xmlns="http://www.w3.org/2000/svg" version="1.1">
 <metadata>
  <rdf:RDF xmlns:dc="http://purl.org/dc/elements/1.1/" xmlns:cc="http://creativecommons.org/ns#" xmlns:rdf="http://www.w3.org/1999/02/22-rdf-syntax-ns#">
   <cc:Work>
    <dc:type rdf:resource="http://purl.org/dc/dcmitype/StillImage"/>
    <dc:date>2024-05-12T07:58:40.954804</dc:date>
    <dc:format>image/svg+xml</dc:format>
    <dc:creator>
     <cc:Agent>
      <dc:title>Matplotlib v3.8.4, https://matplotlib.org/</dc:title>
     </cc:Agent>
    </dc:creator>
   </cc:Work>
  </rdf:RDF>
 </metadata>
 <defs>
  <style type="text/css">*{stroke-linejoin: round; stroke-linecap: butt}</style>
 </defs>
 <g id="figure_1">
  <g id="patch_1">
   <path d="M 0 366.3 
L 401.257406 366.3 
L 401.257406 0 
L 0 0 
z
" style="fill: #ffffff"/>
  </g>
  <g id="axes_1">
   <g id="patch_2">
    <path d="M 60.643059 120.813333 
L 143.879039 120.813333 
L 143.879039 46.32 
L 60.643059 46.32 
z
" style="fill: #ffffff"/>
   </g>
   <g id="matplotlib.axis_1">
    <g id="xtick_1">
     <g id="line2d_1">
      <defs>
       <path id="ma9f70d7c5b" d="M 0 0 
L 0 3.5 
" style="stroke: #000000; stroke-width: 1.5"/>
      </defs>
      <g>
       <use xlink:href="#ma9f70d7c5b" x="60.643059" y="120.813333" style="stroke: #000000; stroke-width: 1.5"/>
      </g>
     </g>
    </g>
    <g id="xtick_2">
     <g id="line2d_2">
      <g>
       <use xlink:href="#ma9f70d7c5b" x="102.261049" y="120.813333" style="stroke: #000000; stroke-width: 1.5"/>
      </g>
     </g>
    </g>
    <g id="xtick_3">
     <g id="line2d_3">
      <g>
       <use xlink:href="#ma9f70d7c5b" x="143.879039" y="120.813333" style="stroke: #000000; stroke-width: 1.5"/>
      </g>
     </g>
    </g>
   </g>
   <g id="matplotlib.axis_2">
    <g id="ytick_1">
     <g id="line2d_4">
      <defs>
       <path id="m4f46779eb3" d="M 0 0 
L -3.5 0 
" style="stroke: #000000; stroke-width: 1.5"/>
      </defs>
      <g>
       <use xlink:href="#m4f46779eb3" x="60.643059" y="120.813333" style="stroke: #000000; stroke-width: 1.5"/>
      </g>
     </g>
     <g id="text_1">
      <text style="font: 9px 'Arial', sans-serif; text-anchor: end" x="53.643059" y="124.23263" transform="rotate(-0 53.643059 124.23263)">0.0</text>
     </g>
    </g>
    <g id="ytick_2">
     <g id="line2d_5">
      <g>
       <use xlink:href="#m4f46779eb3" x="60.643059" y="83.566667" style="stroke: #000000; stroke-width: 1.5"/>
      </g>
     </g>
     <g id="text_2">
      <text style="font: 9px 'Arial', sans-serif; text-anchor: end" x="53.643059" y="86.985964" transform="rotate(-0 53.643059 86.985964)">0.5</text>
     </g>
    </g>
    <g id="ytick_3">
     <g id="line2d_6">
      <g>
       <use xlink:href="#m4f46779eb3" x="60.643059" y="46.32" style="stroke: #000000; stroke-width: 1.5"/>
      </g>
     </g>
     <g id="text_3">
      <text style="font: 9px 'Arial', sans-serif; text-anchor: end" x="53.643059" y="49.739297" transform="rotate(-0 53.643059 49.739297)">1.0</text>
     </g>
    </g>
    <g id="text_4">
     <text style="font: 9px 'Arial', sans-serif; text-anchor: middle" x="33.800546" y="83.566667" transform="rotate(-90 33.800546 83.566667)">1000</text>
    </g>
   </g>
   <g id="line2d_7">
    <path d="M 60.643059 120.813333 
L 62.307778 119.675373 
L 63.938524 118.274601 
L 65.56927 116.953089 
L 67.200016 115.805891 
L 68.830761 114.66227 
L 70.461507 113.61251 
L 72.092253 112.42151 
L 73.722999 111.215016 
L 75.353744 110.065137 
L 76.98449 109.13546 
L 78.615236 108.105367 
L 80.245982 107.045773 
L 81.876727 106.042795 
L 83.507473 104.850902 
L 85.138219 103.925397 
L 86.768965 102.870571 
L 88.39971 101.729333 
L 90.030456 100.7344 
L 91.661202 99.6611 
L 93.291947 98.623557 
L 94.922693 97.456992 
L 96.553439 95.861344 
L 98.184185 94.449249 
L 99.81493 92.643828 
L 101.445676 90.409326 
L 103.076422 87.447173 
L 104.707168 84.083352 
L 106.337913 80.324717 
L 107.968659 77.127761 
L 109.599405 74.320852 
L 111.230151 71.514241 
L 112.860896 69.243089 
L 114.491642 67.343211 
L 116.122388 65.552391 
L 117.753134 63.799712 
L 119.383879 62.16354 
L 121.014625 60.713006 
L 122.645371 59.531244 
L 124.276116 58.106931 
L 125.906862 56.949901 
L 127.537608 55.753836 
L 129.168354 54.72106 
L 130.799099 53.60813 
L 132.429845 52.609323 
L 134.060591 51.721065 
L 135.691337 50.657598 
L 137.322082 49.896276 
L 138.952828 48.996992 
L 140.583574 48.215408 
L 142.21432 47.372144 
L 143.879039 46.32 
" clip-path="url(#pfd704c2012)" style="fill: none; stroke: #1f77b4; stroke-opacity: 0.5; stroke-width: 2; stroke-linecap: square"/>
   </g>
   <g id="line2d_8">
    <path d="M 60.643059 120.813333 
L 62.307778 119.109224 
L 63.938524 117.517152 
L 65.56927 116.101481 
L 67.200016 114.977526 
L 68.830761 113.491235 
L 70.461507 112.247494 
L 72.092253 110.99839 
L 73.722999 109.723064 
L 75.353744 108.561564 
L 76.98449 107.26836 
L 78.615236 106.30382 
L 80.245982 105.264787 
L 81.876727 104.300247 
L 83.507473 103.302334 
L 85.138219 102.315745 
L 86.768965 101.265389 
L 88.39971 100.133984 
L 90.030456 98.751388 
L 91.661202 97.431366 
L 93.291947 96.301451 
L 94.922693 94.778509 
L 96.553439 93.183458 
L 98.184185 90.855392 
L 99.81493 88.895026 
L 101.445676 86.635792 
L 103.076422 83.874473 
L 104.707168 81.118816 
L 106.337913 78.251716 
L 107.968659 75.876869 
L 109.599405 73.784798 
L 111.230151 72.072047 
L 112.860896 70.185876 
L 114.491642 68.556856 
L 116.122388 66.898038 
L 117.753134 64.953762 
L 119.383879 63.509784 
L 121.014625 62.156389 
L 122.645371 60.60216 
L 124.276116 59.18768 
L 125.906862 57.939768 
L 127.537608 56.709436 
L 129.168354 55.510987 
L 130.799099 54.422193 
L 132.429845 53.305985 
L 134.060591 52.23924 
L 135.691337 51.261292 
L 137.322082 50.274106 
L 138.952828 49.131378 
L 140.583574 48.254145 
L 142.21432 47.293777 
L 143.879039 46.32 
" clip-path="url(#pfd704c2012)" style="fill: none; stroke: #ff7f0e; stroke-opacity: 0.5; stroke-width: 2; stroke-linecap: square"/>
   </g>
   <g id="line2d_9">
    <path d="M 60.643059 120.813333 
L 143.879039 46.32 
" clip-path="url(#pfd704c2012)" style="fill: none; stroke-dasharray: 3.7,1.6; stroke-dashoffset: 0; stroke: #000000; stroke-opacity: 0.5"/>
   </g>
   <g id="patch_3">
    <path d="M 60.643059 120.813333 
L 60.643059 46.32 
" style="fill: none; stroke: #000000; stroke-width: 1.5; stroke-linejoin: miter; stroke-linecap: square"/>
   </g>
   <g id="patch_4">
    <path d="M 60.643059 120.813333 
L 143.879039 120.813333 
" style="fill: none; stroke: #000000; stroke-width: 1.5; stroke-linejoin: miter; stroke-linecap: square"/>
   </g>
   <g id="text_5">
    <text style="font: 9px 'Arial', sans-serif; text-anchor: middle" x="102.261049" y="40.32" transform="rotate(-0 102.261049 40.32)">Mixture Gaussian</text>
   </g>
  </g>
  <g id="axes_2">
   <g id="patch_5">
    <path d="M 182.154039 120.813333 
L 265.39002 120.813333 
L 265.39002 46.32 
L 182.154039 46.32 
z
" style="fill: #ffffff"/>
   </g>
   <g id="matplotlib.axis_3">
    <g id="xtick_4">
     <g id="line2d_10">
      <g>
       <use xlink:href="#ma9f70d7c5b" x="182.154039" y="120.813333" style="stroke: #000000; stroke-width: 1.5"/>
      </g>
     </g>
    </g>
    <g id="xtick_5">
     <g id="line2d_11">
      <g>
       <use xlink:href="#ma9f70d7c5b" x="223.772029" y="120.813333" style="stroke: #000000; stroke-width: 1.5"/>
      </g>
     </g>
    </g>
    <g id="xtick_6">
     <g id="line2d_12">
      <g>
       <use xlink:href="#ma9f70d7c5b" x="265.39002" y="120.813333" style="stroke: #000000; stroke-width: 1.5"/>
      </g>
     </g>
    </g>
   </g>
   <g id="matplotlib.axis_4">
    <g id="ytick_4">
     <g id="line2d_13">
      <g>
       <use xlink:href="#m4f46779eb3" x="182.154039" y="120.813333" style="stroke: #000000; stroke-width: 1.5"/>
      </g>
     </g>
     <g id="text_6">
      <text style="font: 9px 'Arial', sans-serif; text-anchor: end" x="175.154039" y="124.23263" transform="rotate(-0 175.154039 124.23263)">0.0</text>
     </g>
    </g>
    <g id="ytick_5">
     <g id="line2d_14">
      <g>
       <use xlink:href="#m4f46779eb3" x="182.154039" y="83.566667" style="stroke: #000000; stroke-width: 1.5"/>
      </g>
     </g>
     <g id="text_7">
      <text style="font: 9px 'Arial', sans-serif; text-anchor: end" x="175.154039" y="86.985964" transform="rotate(-0 175.154039 86.985964)">0.5</text>
     </g>
    </g>
    <g id="ytick_6">
     <g id="line2d_15">
      <g>
       <use xlink:href="#m4f46779eb3" x="182.154039" y="46.32" style="stroke: #000000; stroke-width: 1.5"/>
      </g>
     </g>
     <g id="text_8">
      <text style="font: 9px 'Arial', sans-serif; text-anchor: end" x="175.154039" y="49.739297" transform="rotate(-0 175.154039 49.739297)">1.0</text>
     </g>
    </g>
   </g>
   <g id="line2d_16">
    <path d="M 182.154039 120.813333 
L 183.818759 119.148854 
L 185.449505 117.548737 
L 187.08025 116.046356 
L 188.710996 114.557681 
L 190.341742 113.352081 
L 191.972488 112.163763 
L 193.603233 110.926876 
L 195.233979 109.442671 
L 196.864725 108.209359 
L 198.49547 107.095535 
L 200.126216 105.792796 
L 201.756962 104.533262 
L 203.387708 103.216816 
L 205.018453 102.334815 
L 206.649199 100.947153 
L 208.279945 99.524629 
L 209.910691 98.178683 
L 211.541436 97.083333 
L 213.172182 95.744241 
L 214.802928 94.674517 
L 216.433674 93.566056 
L 218.064419 92.235903 
L 219.695165 91.095261 
L 221.325911 89.842283 
L 222.956657 88.452833 
L 224.587402 87.156947 
L 226.218148 86.062193 
L 227.848894 84.575902 
L 229.479639 83.468335 
L 231.110385 82.011842 
L 232.741131 80.659341 
L 234.371877 79.248139 
L 236.002622 77.912623 
L 237.633368 76.7398 
L 239.264114 75.625081 
L 240.89486 73.903689 
L 242.525605 72.196004 
L 244.156351 70.672169 
L 245.787097 69.109894 
L 247.417843 67.397442 
L 249.048588 65.94512 
L 250.679334 64.022298 
L 252.31008 62.263957 
L 253.940826 60.049419 
L 255.571571 57.95854 
L 257.202317 55.656696 
L 258.833063 53.46838 
L 260.463809 51.604557 
L 262.094554 49.784536 
L 263.7253 47.980903 
L 265.39002 46.32 
" clip-path="url(#p30f6b7118a)" style="fill: none; stroke: #1f77b4; stroke-opacity: 0.5; stroke-width: 2; stroke-linecap: square"/>
   </g>
   <g id="line2d_17">
    <path d="M 182.154039 120.813333 
L 183.818759 119.085386 
L 185.449505 117.688189 
L 187.08025 116.260003 
L 188.710996 114.887836 
L 190.341742 113.67717 
L 191.972488 112.270736 
L 193.603233 110.803515 
L 195.233979 109.449822 
L 196.864725 108.120265 
L 198.49547 106.898277 
L 200.126216 105.813058 
L 201.756962 104.813953 
L 203.387708 103.604181 
L 205.018453 102.277306 
L 206.649199 101.167653 
L 208.279945 99.942089 
L 209.910691 98.810088 
L 211.541436 97.656336 
L 213.172182 96.554728 
L 214.802928 95.380415 
L 216.433674 94.132503 
L 218.064419 92.957296 
L 219.695165 91.869098 
L 221.325911 90.740971 
L 222.956657 89.446574 
L 224.587402 88.206707 
L 226.218148 86.933467 
L 227.848894 85.631622 
L 229.479639 84.15129 
L 231.110385 82.420959 
L 232.741131 80.96089 
L 234.371877 79.547006 
L 236.002622 78.114053 
L 237.633368 76.443018 
L 239.264114 74.930208 
L 240.89486 73.405478 
L 242.525605 71.906672 
L 244.156351 70.284207 
L 245.787097 68.39595 
L 247.417843 66.956441 
L 249.048588 65.220449 
L 250.679334 63.408175 
L 252.31008 61.701383 
L 253.940826 60.135832 
L 255.571571 58.087265 
L 257.202317 56.480295 
L 258.833063 54.441561 
L 260.463809 52.171004 
L 262.094554 50.253546 
L 263.7253 48.615885 
L 265.39002 46.32 
" clip-path="url(#p30f6b7118a)" style="fill: none; stroke: #ff7f0e; stroke-opacity: 0.5; stroke-width: 2; stroke-linecap: square"/>
   </g>
   <g id="line2d_18">
    <path d="M 182.154039 120.813333 
L 265.39002 46.32 
" clip-path="url(#p30f6b7118a)" style="fill: none; stroke-dasharray: 3.7,1.6; stroke-dashoffset: 0; stroke: #000000; stroke-opacity: 0.5"/>
   </g>
   <g id="patch_6">
    <path d="M 182.154039 120.813333 
L 182.154039 46.32 
" style="fill: none; stroke: #000000; stroke-width: 1.5; stroke-linejoin: miter; stroke-linecap: square"/>
   </g>
   <g id="patch_7">
    <path d="M 182.154039 120.813333 
L 265.39002 120.813333 
" style="fill: none; stroke: #000000; stroke-width: 1.5; stroke-linejoin: miter; stroke-linecap: square"/>
   </g>
   <g id="text_9">
    <text style="font: 9px 'Arial', sans-serif; text-anchor: middle" x="223.772029" y="40.32" transform="rotate(-0 223.772029 40.32)">Two Moons</text>
   </g>
  </g>
  <g id="axes_3">
   <g id="patch_8">
    <path d="M 303.66502 120.813333 
L 386.901 120.813333 
L 386.901 46.32 
L 303.66502 46.32 
z
" style="fill: #ffffff"/>
   </g>
   <g id="matplotlib.axis_5">
    <g id="xtick_7">
     <g id="line2d_19">
      <g>
       <use xlink:href="#ma9f70d7c5b" x="303.66502" y="120.813333" style="stroke: #000000; stroke-width: 1.5"/>
      </g>
     </g>
    </g>
    <g id="xtick_8">
     <g id="line2d_20">
      <g>
       <use xlink:href="#ma9f70d7c5b" x="345.28301" y="120.813333" style="stroke: #000000; stroke-width: 1.5"/>
      </g>
     </g>
    </g>
    <g id="xtick_9">
     <g id="line2d_21">
      <g>
       <use xlink:href="#ma9f70d7c5b" x="386.901" y="120.813333" style="stroke: #000000; stroke-width: 1.5"/>
      </g>
     </g>
    </g>
   </g>
   <g id="matplotlib.axis_6">
    <g id="ytick_7">
     <g id="line2d_22">
      <g>
       <use xlink:href="#m4f46779eb3" x="303.66502" y="120.813333" style="stroke: #000000; stroke-width: 1.5"/>
      </g>
     </g>
     <g id="text_10">
      <text style="font: 9px 'Arial', sans-serif; text-anchor: end" x="296.66502" y="124.23263" transform="rotate(-0 296.66502 124.23263)">0.0</text>
     </g>
    </g>
    <g id="ytick_8">
     <g id="line2d_23">
      <g>
       <use xlink:href="#m4f46779eb3" x="303.66502" y="83.566667" style="stroke: #000000; stroke-width: 1.5"/>
      </g>
     </g>
     <g id="text_11">
      <text style="font: 9px 'Arial', sans-serif; text-anchor: end" x="296.66502" y="86.985964" transform="rotate(-0 296.66502 86.985964)">0.5</text>
     </g>
    </g>
    <g id="ytick_9">
     <g id="line2d_24">
      <g>
       <use xlink:href="#m4f46779eb3" x="303.66502" y="46.32" style="stroke: #000000; stroke-width: 1.5"/>
      </g>
     </g>
     <g id="text_12">
      <text style="font: 9px 'Arial', sans-serif; text-anchor: end" x="296.66502" y="49.739297" transform="rotate(-0 296.66502 49.739297)">1.0</text>
     </g>
    </g>
   </g>
   <g id="line2d_25">
    <path d="M 303.66502 120.813333 
L 305.329739 118.94951 
L 306.960485 117.623231 
L 308.591231 116.29576 
L 310.221976 114.706966 
L 311.852722 113.087481 
L 313.483468 111.49094 
L 315.114214 110.179857 
L 316.744959 108.605664 
L 318.375705 106.953104 
L 320.006451 105.303523 
L 321.637197 103.898579 
L 323.267942 102.273433 
L 324.898688 100.805914 
L 326.529434 99.159611 
L 328.16018 98.064559 
L 329.790925 96.642332 
L 331.421671 95.479045 
L 333.052417 93.943886 
L 334.683163 92.37744 
L 336.313908 91.041924 
L 337.944654 89.844071 
L 339.5754 88.495444 
L 341.206145 86.878938 
L 342.836891 85.372683 
L 344.467637 84.038954 
L 346.098383 82.703438 
L 347.729128 81.133416 
L 349.359874 79.468043 
L 350.99062 78.078892 
L 352.621366 76.60303 
L 354.252111 75.257382 
L 355.882857 73.924846 
L 357.513603 72.519305 
L 359.144349 71.238616 
L 360.775094 69.747557 
L 362.40584 68.101255 
L 364.036586 66.664725 
L 365.667332 65.48922 
L 367.298077 64.00144 
L 368.928823 62.59143 
L 370.559569 61.105437 
L 372.190314 59.738037 
L 373.82106 58.204666 
L 375.451806 56.710628 
L 377.082552 55.08131 
L 378.713297 53.548833 
L 380.344043 51.776786 
L 381.974789 50.380781 
L 383.605535 49.020234 
L 385.23628 47.382275 
L 386.901 46.32 
" clip-path="url(#p1502cbd681)" style="fill: none; stroke: #1f77b4; stroke-opacity: 0.5; stroke-width: 2; stroke-linecap: square"/>
   </g>
   <g id="line2d_26">
    <path d="M 303.66502 120.813333 
L 305.329739 119.406601 
L 306.960485 117.713517 
L 308.591231 116.37949 
L 310.221976 114.956072 
L 311.852722 113.534441 
L 313.483468 111.856255 
L 315.114214 110.489153 
L 316.744959 109.162874 
L 318.375705 107.669432 
L 320.006451 106.408111 
L 321.637197 105.212344 
L 323.267942 103.765981 
L 324.898688 102.428379 
L 326.529434 100.886367 
L 328.16018 99.470099 
L 329.790925 98.0291 
L 331.421671 96.472488 
L 333.052417 95.025231 
L 334.683163 93.463255 
L 336.313908 92.113138 
L 337.944654 90.560697 
L 339.5754 89.154859 
L 341.206145 87.806827 
L 342.836891 86.573814 
L 344.467637 85.212671 
L 346.098383 83.679003 
L 347.729128 82.274356 
L 349.359874 80.684967 
L 350.99062 79.059224 
L 352.621366 77.517212 
L 354.252111 75.960301 
L 355.882857 74.310125 
L 357.513603 72.82592 
L 359.144349 71.176637 
L 360.775094 69.708225 
L 362.40584 68.561326 
L 364.036586 66.933795 
L 365.667332 65.345597 
L 367.298077 63.749354 
L 368.928823 62.066103 
L 370.559569 60.520217 
L 372.190314 58.991018 
L 373.82106 57.441557 
L 375.451806 55.905206 
L 377.082552 54.067307 
L 378.713297 52.830121 
L 380.344043 51.366178 
L 381.974789 49.87661 
L 383.605535 48.486564 
L 385.23628 47.299736 
L 386.901 46.32 
" clip-path="url(#p1502cbd681)" style="fill: none; stroke: #ff7f0e; stroke-opacity: 0.5; stroke-width: 2; stroke-linecap: square"/>
   </g>
   <g id="line2d_27">
    <path d="M 303.66502 120.813333 
L 386.901 46.32 
" clip-path="url(#p1502cbd681)" style="fill: none; stroke-dasharray: 3.7,1.6; stroke-dashoffset: 0; stroke: #000000; stroke-opacity: 0.5"/>
   </g>
   <g id="patch_9">
    <path d="M 303.66502 120.813333 
L 303.66502 46.32 
" style="fill: none; stroke: #000000; stroke-width: 1.5; stroke-linejoin: miter; stroke-linecap: square"/>
   </g>
   <g id="patch_10">
    <path d="M 303.66502 120.813333 
L 386.901 120.813333 
" style="fill: none; stroke: #000000; stroke-width: 1.5; stroke-linejoin: miter; stroke-linecap: square"/>
   </g>
   <g id="text_13">
    <text style="font: 9px 'Arial', sans-serif; text-anchor: middle" x="345.28301" y="40.32" transform="rotate(-0 345.28301 40.32)">SLCP</text>
   </g>
  </g>
  <g id="axes_4">
   <g id="patch_11">
    <path d="M 60.643059 214.386667 
L 143.879039 214.386667 
L 143.879039 139.893333 
L 60.643059 139.893333 
z
" style="fill: #ffffff"/>
   </g>
   <g id="matplotlib.axis_7">
    <g id="xtick_10">
     <g id="line2d_28">
      <g>
       <use xlink:href="#ma9f70d7c5b" x="60.643059" y="214.386667" style="stroke: #000000; stroke-width: 1.5"/>
      </g>
     </g>
    </g>
    <g id="xtick_11">
     <g id="line2d_29">
      <g>
       <use xlink:href="#ma9f70d7c5b" x="102.261049" y="214.386667" style="stroke: #000000; stroke-width: 1.5"/>
      </g>
     </g>
    </g>
    <g id="xtick_12">
     <g id="line2d_30">
      <g>
       <use xlink:href="#ma9f70d7c5b" x="143.879039" y="214.386667" style="stroke: #000000; stroke-width: 1.5"/>
      </g>
     </g>
    </g>
   </g>
   <g id="matplotlib.axis_8">
    <g id="ytick_10">
     <g id="line2d_31">
      <g>
       <use xlink:href="#m4f46779eb3" x="60.643059" y="214.386667" style="stroke: #000000; stroke-width: 1.5"/>
      </g>
     </g>
     <g id="text_14">
      <text style="font: 9px 'Arial', sans-serif; text-anchor: end" x="53.643059" y="217.805964" transform="rotate(-0 53.643059 217.805964)">0.0</text>
     </g>
    </g>
    <g id="ytick_11">
     <g id="line2d_32">
      <g>
       <use xlink:href="#m4f46779eb3" x="60.643059" y="177.14" style="stroke: #000000; stroke-width: 1.5"/>
      </g>
     </g>
     <g id="text_15">
      <text style="font: 9px 'Arial', sans-serif; text-anchor: end" x="53.643059" y="180.559297" transform="rotate(-0 53.643059 180.559297)">0.5</text>
     </g>
    </g>
    <g id="ytick_12">
     <g id="line2d_33">
      <g>
       <use xlink:href="#m4f46779eb3" x="60.643059" y="139.893333" style="stroke: #000000; stroke-width: 1.5"/>
      </g>
     </g>
     <g id="text_16">
      <text style="font: 9px 'Arial', sans-serif; text-anchor: end" x="53.643059" y="143.31263" transform="rotate(-0 53.643059 143.31263)">1.0</text>
     </g>
    </g>
    <g id="text_17">
     <text style="font: 9px 'Arial', sans-serif; text-anchor: middle" x="33.800546" y="177.14" transform="rotate(-90 33.800546 177.14)">10000</text>
    </g>
   </g>
   <g id="line2d_34">
    <path d="M 60.643059 214.386667 
L 62.307778 213.202521 
L 63.938524 212.118494 
L 65.56927 211.11045 
L 67.200016 210.007353 
L 68.830761 208.747521 
L 70.461507 207.713256 
L 72.092253 206.623865 
L 73.722999 205.504678 
L 75.353744 204.239781 
L 76.98449 203.079175 
L 78.615236 202.084242 
L 80.245982 200.749917 
L 81.876727 199.62179 
L 83.507473 198.613448 
L 85.138219 197.523462 
L 86.768965 196.439733 
L 88.39971 195.082166 
L 90.030456 193.581871 
L 91.661202 192.163517 
L 93.291947 190.800289 
L 94.922693 189.635512 
L 96.553439 188.076813 
L 98.184185 186.735933 
L 99.81493 185.258581 
L 101.445676 183.141481 
L 103.076422 180.905787 
L 104.707168 177.974325 
L 106.337913 175.065808 
L 107.968659 172.249066 
L 109.599405 169.974635 
L 111.230151 167.596808 
L 112.860896 165.694844 
L 114.491642 163.336385 
L 116.122388 161.399857 
L 117.753134 159.862612 
L 119.383879 158.150755 
L 121.014625 156.777396 
L 122.645371 155.412976 
L 124.276116 153.916256 
L 125.906862 152.370669 
L 127.537608 151.012208 
L 129.168354 149.792305 
L 130.799099 148.578064 
L 132.429845 147.328662 
L 134.060591 146.263705 
L 135.691337 145.143623 
L 137.322082 143.774138 
L 138.952828 142.829861 
L 140.583574 141.724975 
L 142.21432 140.747921 
L 143.879039 139.893333 
" clip-path="url(#p4d0bad50ed)" style="fill: none; stroke: #1f77b4; stroke-opacity: 0.5; stroke-width: 2; stroke-linecap: square"/>
   </g>
   <g id="line2d_35">
    <path d="M 60.643059 214.386667 
L 62.307778 212.82469 
L 63.938524 211.334824 
L 65.56927 210.07827 
L 67.200016 208.749607 
L 68.830761 207.29222 
L 70.461507 205.749016 
L 72.092253 204.385788 
L 73.722999 203.192702 
L 75.353744 201.803849 
L 76.98449 200.190025 
L 78.615236 198.9293 
L 80.245982 197.761543 
L 81.876727 196.389971 
L 83.507473 194.983239 
L 85.138219 193.527043 
L 86.768965 192.078893 
L 88.39971 190.787179 
L 90.030456 189.640577 
L 91.661202 188.128661 
L 93.291947 186.513943 
L 94.922693 185.073242 
L 96.553439 183.885818 
L 98.184185 182.652805 
L 99.81493 181.079803 
L 101.445676 179.746671 
L 103.076422 178.301798 
L 104.707168 176.967473 
L 106.337913 175.330408 
L 107.968659 173.729695 
L 109.599405 172.031545 
L 111.230151 170.640606 
L 112.860896 169.209738 
L 114.491642 167.710634 
L 116.122388 166.086977 
L 117.753134 164.46481 
L 119.383879 162.949914 
L 121.014625 161.426376 
L 122.645371 159.866486 
L 124.276116 158.55153 
L 125.906862 156.783654 
L 127.537608 155.204991 
L 129.168354 153.582824 
L 130.799099 151.892421 
L 132.429845 150.136465 
L 134.060591 148.813463 
L 135.691337 147.220498 
L 137.322082 145.683253 
L 138.952828 144.26788 
L 140.583574 142.963055 
L 142.21432 141.445774 
L 143.879039 139.893333 
" clip-path="url(#p4d0bad50ed)" style="fill: none; stroke: #ff7f0e; stroke-opacity: 0.5; stroke-width: 2; stroke-linecap: square"/>
   </g>
   <g id="line2d_36">
    <path d="M 60.643059 214.386667 
L 143.879039 139.893333 
" clip-path="url(#p4d0bad50ed)" style="fill: none; stroke-dasharray: 3.7,1.6; stroke-dashoffset: 0; stroke: #000000; stroke-opacity: 0.5"/>
   </g>
   <g id="patch_12">
    <path d="M 60.643059 214.386667 
L 60.643059 139.893333 
" style="fill: none; stroke: #000000; stroke-width: 1.5; stroke-linejoin: miter; stroke-linecap: square"/>
   </g>
   <g id="patch_13">
    <path d="M 60.643059 214.386667 
L 143.879039 214.386667 
" style="fill: none; stroke: #000000; stroke-width: 1.5; stroke-linejoin: miter; stroke-linecap: square"/>
   </g>
  </g>
  <g id="axes_5">
   <g id="patch_14">
    <path d="M 182.154039 214.386667 
L 265.39002 214.386667 
L 265.39002 139.893333 
L 182.154039 139.893333 
z
" style="fill: #ffffff"/>
   </g>
   <g id="matplotlib.axis_9">
    <g id="xtick_13">
     <g id="line2d_37">
      <g>
       <use xlink:href="#ma9f70d7c5b" x="182.154039" y="214.386667" style="stroke: #000000; stroke-width: 1.5"/>
      </g>
     </g>
    </g>
    <g id="xtick_14">
     <g id="line2d_38">
      <g>
       <use xlink:href="#ma9f70d7c5b" x="223.772029" y="214.386667" style="stroke: #000000; stroke-width: 1.5"/>
      </g>
     </g>
    </g>
    <g id="xtick_15">
     <g id="line2d_39">
      <g>
       <use xlink:href="#ma9f70d7c5b" x="265.39002" y="214.386667" style="stroke: #000000; stroke-width: 1.5"/>
      </g>
     </g>
    </g>
   </g>
   <g id="matplotlib.axis_10">
    <g id="ytick_13">
     <g id="line2d_40">
      <g>
       <use xlink:href="#m4f46779eb3" x="182.154039" y="214.386667" style="stroke: #000000; stroke-width: 1.5"/>
      </g>
     </g>
     <g id="text_18">
      <text style="font: 9px 'Arial', sans-serif; text-anchor: end" x="175.154039" y="217.805964" transform="rotate(-0 175.154039 217.805964)">0.0</text>
     </g>
    </g>
    <g id="ytick_14">
     <g id="line2d_41">
      <g>
       <use xlink:href="#m4f46779eb3" x="182.154039" y="177.14" style="stroke: #000000; stroke-width: 1.5"/>
      </g>
     </g>
     <g id="text_19">
      <text style="font: 9px 'Arial', sans-serif; text-anchor: end" x="175.154039" y="180.559297" transform="rotate(-0 175.154039 180.559297)">0.5</text>
     </g>
    </g>
    <g id="ytick_15">
     <g id="line2d_42">
      <g>
       <use xlink:href="#m4f46779eb3" x="182.154039" y="139.893333" style="stroke: #000000; stroke-width: 1.5"/>
      </g>
     </g>
     <g id="text_20">
      <text style="font: 9px 'Arial', sans-serif; text-anchor: end" x="175.154039" y="143.31263" transform="rotate(-0 175.154039 143.31263)">1.0</text>
     </g>
    </g>
   </g>
   <g id="line2d_43">
    <path d="M 182.154039 214.386667 
L 183.818759 212.776419 
L 185.449505 210.970402 
L 187.08025 209.427496 
L 188.710996 207.801158 
L 190.341742 206.553842 
L 191.972488 205.186442 
L 193.603233 203.726969 
L 195.233979 202.355993 
L 196.864725 201.136686 
L 198.49547 199.766605 
L 200.126216 198.313091 
L 201.756962 196.915596 
L 203.387708 195.586337 
L 205.018453 194.083658 
L 206.649199 192.790453 
L 208.279945 191.588429 
L 209.910691 190.431101 
L 211.541436 189.214773 
L 213.172182 187.79493 
L 214.802928 186.378663 
L 216.433674 184.962396 
L 218.064419 183.585163 
L 219.695165 182.319968 
L 221.325911 181.078909 
L 222.956657 179.878077 
L 224.587402 178.457638 
L 226.218148 177.401025 
L 227.848894 176.229096 
L 229.479639 175.184103 
L 231.110385 174.087561 
L 232.741131 172.887325 
L 234.371877 171.384347 
L 236.002622 170.199009 
L 237.633368 168.944541 
L 239.264114 167.833697 
L 240.89486 166.541089 
L 242.525605 165.539004 
L 244.156351 164.224644 
L 245.787097 162.797352 
L 247.417843 161.457961 
L 249.048588 160.31434 
L 250.679334 158.756237 
L 252.31008 157.014583 
L 253.940826 155.328948 
L 255.571571 153.609642 
L 257.202317 151.761611 
L 258.833063 149.889445 
L 260.463809 147.536349 
L 262.094554 144.690704 
L 263.7253 142.123962 
L 265.39002 139.893333 
" clip-path="url(#p9148287747)" style="fill: none; stroke: #1f77b4; stroke-opacity: 0.5; stroke-width: 2; stroke-linecap: square"/>
   </g>
   <g id="line2d_44">
    <path d="M 182.154039 214.386667 
L 183.818759 212.707587 
L 185.449505 211.335718 
L 187.08025 209.790726 
L 188.710996 208.15962 
L 190.341742 206.533877 
L 191.972488 204.969517 
L 193.603233 203.702535 
L 195.233979 202.294611 
L 196.864725 200.582158 
L 198.49547 198.971016 
L 200.126216 197.18258 
L 201.756962 195.858983 
L 203.387708 194.160833 
L 205.018453 192.524661 
L 206.649199 190.987715 
L 208.279945 189.549099 
L 209.910691 188.133726 
L 211.541436 186.835158 
L 213.172182 185.472526 
L 214.802928 184.108404 
L 216.433674 182.421577 
L 218.064419 180.964488 
L 219.695165 179.541963 
L 221.325911 177.960023 
L 222.956657 176.452576 
L 224.587402 174.933209 
L 226.218148 173.458539 
L 227.848894 171.900735 
L 229.479639 170.485362 
L 231.110385 169.055388 
L 232.741131 167.835187 
L 234.371877 166.484772 
L 236.002622 165.263975 
L 237.633368 163.615586 
L 239.264114 161.928163 
L 240.89486 160.471968 
L 242.525605 158.988358 
L 244.156351 157.529183 
L 245.787097 156.118875 
L 247.417843 154.725552 
L 249.048588 153.319416 
L 250.679334 151.991647 
L 252.31008 150.757441 
L 253.940826 149.602496 
L 255.571571 148.470496 
L 257.202317 146.973776 
L 258.833063 145.565554 
L 260.463809 143.890646 
L 262.094554 142.516989 
L 263.7253 141.160912 
L 265.39002 139.893333 
" clip-path="url(#p9148287747)" style="fill: none; stroke: #ff7f0e; stroke-opacity: 0.5; stroke-width: 2; stroke-linecap: square"/>
   </g>
   <g id="line2d_45">
    <path d="M 182.154039 214.386667 
L 265.39002 139.893333 
" clip-path="url(#p9148287747)" style="fill: none; stroke-dasharray: 3.7,1.6; stroke-dashoffset: 0; stroke: #000000; stroke-opacity: 0.5"/>
   </g>
   <g id="patch_15">
    <path d="M 182.154039 214.386667 
L 182.154039 139.893333 
" style="fill: none; stroke: #000000; stroke-width: 1.5; stroke-linejoin: miter; stroke-linecap: square"/>
   </g>
   <g id="patch_16">
    <path d="M 182.154039 214.386667 
L 265.39002 214.386667 
" style="fill: none; stroke: #000000; stroke-width: 1.5; stroke-linejoin: miter; stroke-linecap: square"/>
   </g>
  </g>
  <g id="axes_6">
   <g id="patch_17">
    <path d="M 303.66502 214.386667 
L 386.901 214.386667 
L 386.901 139.893333 
L 303.66502 139.893333 
z
" style="fill: #ffffff"/>
   </g>
   <g id="matplotlib.axis_11">
    <g id="xtick_16">
     <g id="line2d_46">
      <g>
       <use xlink:href="#ma9f70d7c5b" x="303.66502" y="214.386667" style="stroke: #000000; stroke-width: 1.5"/>
      </g>
     </g>
    </g>
    <g id="xtick_17">
     <g id="line2d_47">
      <g>
       <use xlink:href="#ma9f70d7c5b" x="345.28301" y="214.386667" style="stroke: #000000; stroke-width: 1.5"/>
      </g>
     </g>
    </g>
    <g id="xtick_18">
     <g id="line2d_48">
      <g>
       <use xlink:href="#ma9f70d7c5b" x="386.901" y="214.386667" style="stroke: #000000; stroke-width: 1.5"/>
      </g>
     </g>
    </g>
   </g>
   <g id="matplotlib.axis_12">
    <g id="ytick_16">
     <g id="line2d_49">
      <g>
       <use xlink:href="#m4f46779eb3" x="303.66502" y="214.386667" style="stroke: #000000; stroke-width: 1.5"/>
      </g>
     </g>
     <g id="text_21">
      <text style="font: 9px 'Arial', sans-serif; text-anchor: end" x="296.66502" y="217.805964" transform="rotate(-0 296.66502 217.805964)">0.0</text>
     </g>
    </g>
    <g id="ytick_17">
     <g id="line2d_50">
      <g>
       <use xlink:href="#m4f46779eb3" x="303.66502" y="177.14" style="stroke: #000000; stroke-width: 1.5"/>
      </g>
     </g>
     <g id="text_22">
      <text style="font: 9px 'Arial', sans-serif; text-anchor: end" x="296.66502" y="180.559297" transform="rotate(-0 296.66502 180.559297)">0.5</text>
     </g>
    </g>
    <g id="ytick_18">
     <g id="line2d_51">
      <g>
       <use xlink:href="#m4f46779eb3" x="303.66502" y="139.893333" style="stroke: #000000; stroke-width: 1.5"/>
      </g>
     </g>
     <g id="text_23">
      <text style="font: 9px 'Arial', sans-serif; text-anchor: end" x="296.66502" y="143.31263" transform="rotate(-0 296.66502 143.31263)">1.0</text>
     </g>
    </g>
   </g>
   <g id="line2d_52">
    <path d="M 303.66502 214.386667 
L 305.329739 212.952223 
L 306.960485 211.537446 
L 308.591231 210.181369 
L 310.221976 208.839595 
L 311.852722 207.249311 
L 313.483468 205.818145 
L 315.114214 204.189423 
L 316.744959 202.429891 
L 318.375705 201.122384 
L 320.006451 199.633411 
L 321.637197 198.326798 
L 323.267942 196.985918 
L 324.898688 195.591105 
L 326.529434 194.197185 
L 328.16018 192.584554 
L 329.790925 191.168585 
L 331.421671 189.621507 
L 333.052417 188.009173 
L 334.683163 186.586947 
L 336.313908 185.289869 
L 337.944654 183.933494 
L 339.5754 182.502328 
L 341.206145 180.983856 
L 342.836891 179.535706 
L 344.467637 178.097388 
L 346.098383 176.622122 
L 347.729128 175.321469 
L 349.359874 173.865571 
L 350.99062 172.390901 
L 352.621366 170.883454 
L 354.252111 169.469868 
L 355.882857 168.117069 
L 357.513603 166.779765 
L 359.144349 165.495798 
L 360.775094 163.917433 
L 362.40584 162.583705 
L 364.036586 161.127211 
L 365.667332 159.543781 
L 367.298077 158.167144 
L 368.928823 156.627218 
L 370.559569 155.209759 
L 372.190314 153.749689 
L 373.82106 152.098321 
L 375.451806 150.397787 
L 377.082552 148.784262 
L 378.713297 147.516087 
L 380.344043 146.150177 
L 381.974789 144.304531 
L 383.605535 142.486297 
L 385.23628 141.220507 
L 386.901 139.893333 
" clip-path="url(#p70ec70f84d)" style="fill: none; stroke: #1f77b4; stroke-opacity: 0.5; stroke-width: 2; stroke-linecap: square"/>
   </g>
   <g id="line2d_53">
    <path d="M 303.66502 214.386667 
L 305.329739 213.196561 
L 306.960485 212.077373 
L 308.591231 210.819628 
L 310.221976 209.611942 
L 311.852722 208.435543 
L 313.483468 207.116117 
L 315.114214 205.752293 
L 316.744959 204.109566 
L 318.375705 202.751404 
L 320.006451 201.582157 
L 321.637197 199.935556 
L 323.267942 198.506476 
L 324.898688 197.122688 
L 326.529434 195.426623 
L 328.16018 194.068461 
L 329.790925 192.483243 
L 331.421671 190.86644 
L 333.052417 188.982354 
L 334.683163 187.421272 
L 336.313908 186.023181 
L 337.944654 184.515734 
L 339.5754 183.004711 
L 341.206145 181.623009 
L 342.836891 180.131652 
L 344.467637 178.930224 
L 346.098383 177.616757 
L 347.729128 175.995782 
L 349.359874 174.493997 
L 350.99062 172.935298 
L 352.621366 171.390009 
L 354.252111 169.69454 
L 355.882857 168.066116 
L 357.513603 166.646571 
L 359.144349 165.144785 
L 360.775094 163.657005 
L 362.40584 162.121846 
L 364.036586 160.703195 
L 365.667332 159.393006 
L 367.298077 157.513092 
L 368.928823 155.754752 
L 370.559569 154.318222 
L 372.190314 152.636461 
L 373.82106 151.154044 
L 375.451806 149.513104 
L 377.082552 147.926098 
L 378.713297 146.414182 
L 380.344043 145.058701 
L 381.974789 143.711862 
L 383.605535 142.34029 
L 385.23628 141.196967 
L 386.901 139.893333 
" clip-path="url(#p70ec70f84d)" style="fill: none; stroke: #ff7f0e; stroke-opacity: 0.5; stroke-width: 2; stroke-linecap: square"/>
   </g>
   <g id="line2d_54">
    <path d="M 303.66502 214.386667 
L 386.901 139.893333 
" clip-path="url(#p70ec70f84d)" style="fill: none; stroke-dasharray: 3.7,1.6; stroke-dashoffset: 0; stroke: #000000; stroke-opacity: 0.5"/>
   </g>
   <g id="patch_18">
    <path d="M 303.66502 214.386667 
L 303.66502 139.893333 
" style="fill: none; stroke: #000000; stroke-width: 1.5; stroke-linejoin: miter; stroke-linecap: square"/>
   </g>
   <g id="patch_19">
    <path d="M 303.66502 214.386667 
L 386.901 214.386667 
" style="fill: none; stroke: #000000; stroke-width: 1.5; stroke-linejoin: miter; stroke-linecap: square"/>
   </g>
  </g>
  <g id="axes_7">
   <g id="patch_20">
    <path d="M 60.643059 307.96 
L 143.879039 307.96 
L 143.879039 233.466667 
L 60.643059 233.466667 
z
" style="fill: #ffffff"/>
   </g>
   <g id="matplotlib.axis_13">
    <g id="xtick_19">
     <g id="line2d_55">
      <g>
       <use xlink:href="#ma9f70d7c5b" x="60.643059" y="307.96" style="stroke: #000000; stroke-width: 1.5"/>
      </g>
     </g>
     <g id="text_24">
      <text style="font: 9px 'Arial', sans-serif; text-anchor: middle" x="60.643059" y="321.798594" transform="rotate(-0 60.643059 321.798594)">0.0</text>
     </g>
    </g>
    <g id="xtick_20">
     <g id="line2d_56">
      <g>
       <use xlink:href="#ma9f70d7c5b" x="102.261049" y="307.96" style="stroke: #000000; stroke-width: 1.5"/>
      </g>
     </g>
     <g id="text_25">
      <text style="font: 9px 'Arial', sans-serif; text-anchor: middle" x="102.261049" y="321.798594" transform="rotate(-0 102.261049 321.798594)">0.5</text>
     </g>
    </g>
    <g id="xtick_21">
     <g id="line2d_57">
      <g>
       <use xlink:href="#ma9f70d7c5b" x="143.879039" y="307.96" style="stroke: #000000; stroke-width: 1.5"/>
      </g>
     </g>
     <g id="text_26">
      <text style="font: 9px 'Arial', sans-serif; text-anchor: middle" x="143.879039" y="321.798594" transform="rotate(-0 143.879039 321.798594)">1.0</text>
     </g>
    </g>
    <g id="text_27">
     <text style="font: 9px 'Arial', sans-serif; text-anchor: middle" x="102.261049" y="334.508906" transform="rotate(-0 102.261049 334.508906)">Credibility level</text>
    </g>
   </g>
   <g id="matplotlib.axis_14">
    <g id="ytick_19">
     <g id="line2d_58">
      <g>
       <use xlink:href="#m4f46779eb3" x="60.643059" y="307.96" style="stroke: #000000; stroke-width: 1.5"/>
      </g>
     </g>
     <g id="text_28">
      <text style="font: 9px 'Arial', sans-serif; text-anchor: end" x="53.643059" y="311.379297" transform="rotate(-0 53.643059 311.379297)">0.0</text>
     </g>
    </g>
    <g id="ytick_20">
     <g id="line2d_59">
      <g>
       <use xlink:href="#m4f46779eb3" x="60.643059" y="270.713333" style="stroke: #000000; stroke-width: 1.5"/>
      </g>
     </g>
     <g id="text_29">
      <text style="font: 9px 'Arial', sans-serif; text-anchor: end" x="53.643059" y="274.13263" transform="rotate(-0 53.643059 274.13263)">0.5</text>
     </g>
    </g>
    <g id="ytick_21">
     <g id="line2d_60">
      <g>
       <use xlink:href="#m4f46779eb3" x="60.643059" y="233.466667" style="stroke: #000000; stroke-width: 1.5"/>
      </g>
     </g>
     <g id="text_30">
      <text style="font: 9px 'Arial', sans-serif; text-anchor: end" x="53.643059" y="236.885964" transform="rotate(-0 53.643059 236.885964)">1.0</text>
     </g>
    </g>
    <g id="text_31">
     <text style="font: 9px 'Arial', sans-serif; text-anchor: middle" x="33.800546" y="270.713333" transform="rotate(-90 33.800546 270.713333)">100000</text>
    </g>
   </g>
   <g id="line2d_61">
    <path d="M 60.643059 307.96 
L 62.307778 306.899215 
L 63.938524 305.692721 
L 65.56927 304.648026 
L 67.200016 303.53748 
L 68.830761 302.446301 
L 70.461507 301.274968 
L 72.092253 300.087843 
L 73.722999 298.860788 
L 75.353744 297.712697 
L 76.98449 296.500244 
L 78.615236 295.273785 
L 80.245982 294.086958 
L 81.876727 292.984158 
L 83.507473 291.643874 
L 85.138219 290.483864 
L 86.768965 289.280648 
L 88.39971 288.013367 
L 90.030456 286.868852 
L 91.661202 285.66206 
L 93.291947 284.620047 
L 94.922693 283.428153 
L 96.553439 282.140313 
L 98.184185 280.792877 
L 99.81493 279.414453 
L 101.445676 277.614694 
L 103.076422 275.200514 
L 104.707168 272.030971 
L 106.337913 269.275612 
L 107.968659 266.287833 
L 109.599405 263.829553 
L 111.230151 261.380809 
L 112.860896 259.248809 
L 114.491642 257.210076 
L 116.122388 255.30841 
L 117.753134 253.429986 
L 119.383879 251.911812 
L 121.014625 250.367416 
L 122.645371 248.741376 
L 124.276116 247.558124 
L 125.906862 246.061999 
L 127.537608 244.64305 
L 129.168354 243.53012 
L 130.799099 242.267011 
L 132.429845 241.261947 
L 134.060591 239.972914 
L 135.691337 238.799793 
L 137.322082 237.671368 
L 138.952828 236.646638 
L 140.583574 235.50987 
L 142.21432 234.467559 
L 143.879039 233.466667 
" clip-path="url(#p36bbf4ac95)" style="fill: none; stroke: #1f77b4; stroke-opacity: 0.5; stroke-width: 2; stroke-linecap: square"/>
   </g>
   <g id="line2d_62">
    <path d="M 60.643059 307.96 
L 62.307778 306.46775 
L 63.938524 305.066083 
L 65.56927 303.71686 
L 67.200016 302.418888 
L 68.830761 301.039271 
L 70.461507 299.731466 
L 72.092253 298.408763 
L 73.722999 296.980279 
L 75.353744 295.397444 
L 76.98449 294.163537 
L 78.615236 293.0074 
L 80.245982 291.747867 
L 81.876727 290.446319 
L 83.507473 289.017537 
L 85.138219 287.692748 
L 86.768965 286.32207 
L 88.39971 284.949009 
L 90.030456 283.278571 
L 91.661202 281.977023 
L 93.291947 280.553307 
L 94.922693 279.240436 
L 96.553439 277.871845 
L 98.184185 276.526495 
L 99.81493 275.077749 
L 101.445676 273.530969 
L 103.076422 271.915656 
L 104.707168 270.167744 
L 106.337913 268.542598 
L 107.968659 266.974662 
L 109.599405 265.487775 
L 111.230151 263.981222 
L 112.860896 262.049461 
L 114.491642 260.7792 
L 116.122388 259.224078 
L 117.753134 257.927894 
L 119.383879 256.314666 
L 121.014625 255.077779 
L 122.645371 253.475278 
L 124.276116 251.937736 
L 125.906862 250.491969 
L 127.537608 248.969623 
L 129.168354 247.471115 
L 130.799099 245.703538 
L 132.429845 244.266114 
L 134.060591 242.663018 
L 135.691337 241.089123 
L 137.322082 239.260162 
L 138.952828 237.815587 
L 140.583574 236.401406 
L 142.21432 235.006593 
L 143.879039 233.466667 
" clip-path="url(#p36bbf4ac95)" style="fill: none; stroke: #ff7f0e; stroke-opacity: 0.5; stroke-width: 2; stroke-linecap: square"/>
   </g>
   <g id="line2d_63">
    <path d="M 60.643059 307.96 
L 143.879039 233.466667 
" clip-path="url(#p36bbf4ac95)" style="fill: none; stroke-dasharray: 3.7,1.6; stroke-dashoffset: 0; stroke: #000000; stroke-opacity: 0.5"/>
   </g>
   <g id="patch_21">
    <path d="M 60.643059 307.96 
L 60.643059 233.466667 
" style="fill: none; stroke: #000000; stroke-width: 1.5; stroke-linejoin: miter; stroke-linecap: square"/>
   </g>
   <g id="patch_22">
    <path d="M 60.643059 307.96 
L 143.879039 307.96 
" style="fill: none; stroke: #000000; stroke-width: 1.5; stroke-linejoin: miter; stroke-linecap: square"/>
   </g>
  </g>
  <g id="axes_8">
   <g id="patch_23">
    <path d="M 182.154039 307.96 
L 265.39002 307.96 
L 265.39002 233.466667 
L 182.154039 233.466667 
z
" style="fill: #ffffff"/>
   </g>
   <g id="matplotlib.axis_15">
    <g id="xtick_22">
     <g id="line2d_64">
      <g>
       <use xlink:href="#ma9f70d7c5b" x="182.154039" y="307.96" style="stroke: #000000; stroke-width: 1.5"/>
      </g>
     </g>
     <g id="text_32">
      <text style="font: 9px 'Arial', sans-serif; text-anchor: middle" x="182.154039" y="321.798594" transform="rotate(-0 182.154039 321.798594)">0.0</text>
     </g>
    </g>
    <g id="xtick_23">
     <g id="line2d_65">
      <g>
       <use xlink:href="#ma9f70d7c5b" x="223.772029" y="307.96" style="stroke: #000000; stroke-width: 1.5"/>
      </g>
     </g>
     <g id="text_33">
      <text style="font: 9px 'Arial', sans-serif; text-anchor: middle" x="223.772029" y="321.798594" transform="rotate(-0 223.772029 321.798594)">0.5</text>
     </g>
    </g>
    <g id="xtick_24">
     <g id="line2d_66">
      <g>
       <use xlink:href="#ma9f70d7c5b" x="265.39002" y="307.96" style="stroke: #000000; stroke-width: 1.5"/>
      </g>
     </g>
     <g id="text_34">
      <text style="font: 9px 'Arial', sans-serif; text-anchor: middle" x="265.39002" y="321.798594" transform="rotate(-0 265.39002 321.798594)">1.0</text>
     </g>
    </g>
    <g id="text_35">
     <text style="font: 9px 'Arial', sans-serif; text-anchor: middle" x="223.772029" y="334.508906" transform="rotate(-0 223.772029 334.508906)">Credibility level</text>
    </g>
   </g>
   <g id="matplotlib.axis_16">
    <g id="ytick_22">
     <g id="line2d_67">
      <g>
       <use xlink:href="#m4f46779eb3" x="182.154039" y="307.96" style="stroke: #000000; stroke-width: 1.5"/>
      </g>
     </g>
     <g id="text_36">
      <text style="font: 9px 'Arial', sans-serif; text-anchor: end" x="175.154039" y="311.379297" transform="rotate(-0 175.154039 311.379297)">0.0</text>
     </g>
    </g>
    <g id="ytick_23">
     <g id="line2d_68">
      <g>
       <use xlink:href="#m4f46779eb3" x="182.154039" y="270.713333" style="stroke: #000000; stroke-width: 1.5"/>
      </g>
     </g>
     <g id="text_37">
      <text style="font: 9px 'Arial', sans-serif; text-anchor: end" x="175.154039" y="274.13263" transform="rotate(-0 175.154039 274.13263)">0.5</text>
     </g>
    </g>
    <g id="ytick_24">
     <g id="line2d_69">
      <g>
       <use xlink:href="#m4f46779eb3" x="182.154039" y="233.466667" style="stroke: #000000; stroke-width: 1.5"/>
      </g>
     </g>
     <g id="text_38">
      <text style="font: 9px 'Arial', sans-serif; text-anchor: end" x="175.154039" y="236.885964" transform="rotate(-0 175.154039 236.885964)">1.0</text>
     </g>
    </g>
   </g>
   <g id="line2d_70">
    <path d="M 182.154039 307.96 
L 183.818759 306.225199 
L 185.449505 304.780923 
L 187.08025 303.017814 
L 188.710996 301.677828 
L 190.341742 300.034207 
L 191.972488 298.53272 
L 193.603233 297.142078 
L 195.233979 295.768123 
L 196.864725 294.288685 
L 198.49547 293.008592 
L 200.126216 291.532134 
L 201.756962 290.032732 
L 203.387708 288.840243 
L 205.018453 287.656693 
L 206.649199 286.505324 
L 208.279945 285.132561 
L 209.910691 283.983874 
L 211.541436 282.983279 
L 213.172182 281.603365 
L 214.802928 280.548837 
L 216.433674 279.273213 
L 218.064419 278.122738 
L 219.695165 276.89181 
L 221.325911 275.396282 
L 222.956657 274.321492 
L 224.587402 272.994021 
L 226.218148 271.585799 
L 227.848894 270.242237 
L 229.479639 269.021143 
L 231.110385 268.025614 
L 232.741131 266.899573 
L 234.371877 265.525618 
L 236.002622 264.367991 
L 237.633368 263.234501 
L 239.264114 262.002679 
L 240.89486 260.900178 
L 242.525605 259.320025 
L 244.156351 257.909717 
L 245.787097 256.65078 
L 247.417843 255.424918 
L 249.048588 254.320628 
L 250.679334 252.648402 
L 252.31008 250.979751 
L 253.940826 249.578681 
L 255.571571 247.879041 
L 257.202317 245.729759 
L 258.833063 243.995852 
L 260.463809 241.624581 
L 262.094554 239.132928 
L 263.7253 236.022682 
L 265.39002 233.466667 
" clip-path="url(#pf7f94e9b9d)" style="fill: none; stroke: #1f77b4; stroke-opacity: 0.5; stroke-width: 2; stroke-linecap: square"/>
   </g>
   <g id="line2d_71">
    <path d="M 182.154039 307.96 
L 183.818759 306.245759 
L 185.449505 304.863759 
L 187.08025 303.603034 
L 188.710996 302.334561 
L 190.341742 300.958819 
L 191.972488 299.586949 
L 193.603233 298.167404 
L 195.233979 296.747263 
L 196.864725 294.987433 
L 198.49547 293.613776 
L 200.126216 292.078319 
L 201.756962 290.703172 
L 203.387708 289.132853 
L 205.018453 287.437385 
L 206.649199 286.028269 
L 208.279945 284.699606 
L 209.910691 283.439178 
L 211.541436 282.114389 
L 213.172182 280.685011 
L 214.802928 279.287516 
L 216.433674 277.8343 
L 218.064419 276.317616 
L 219.695165 274.961837 
L 221.325911 273.573281 
L 222.956657 271.921615 
L 224.587402 270.45648 
L 226.218148 268.760714 
L 227.848894 267.299453 
L 229.479639 265.487477 
L 231.110385 264.027706 
L 232.741131 262.880806 
L 234.371877 261.34684 
L 236.002622 260.135578 
L 237.633368 258.854293 
L 239.264114 257.286357 
L 240.89486 255.827777 
L 242.525605 254.365026 
L 244.156351 252.787258 
L 245.787097 251.192802 
L 247.417843 249.840897 
L 249.048588 248.346859 
L 250.679334 246.713965 
L 252.31008 245.09895 
L 253.940826 243.697879 
L 255.571571 242.312899 
L 257.202317 240.897824 
L 258.833063 239.531318 
L 260.463809 237.881738 
L 262.094554 236.620118 
L 263.7253 235.118631 
L 265.39002 233.466667 
" clip-path="url(#pf7f94e9b9d)" style="fill: none; stroke: #ff7f0e; stroke-opacity: 0.5; stroke-width: 2; stroke-linecap: square"/>
   </g>
   <g id="line2d_72">
    <path d="M 182.154039 307.96 
L 265.39002 233.466667 
" clip-path="url(#pf7f94e9b9d)" style="fill: none; stroke-dasharray: 3.7,1.6; stroke-dashoffset: 0; stroke: #000000; stroke-opacity: 0.5"/>
   </g>
   <g id="patch_24">
    <path d="M 182.154039 307.96 
L 182.154039 233.466667 
" style="fill: none; stroke: #000000; stroke-width: 1.5; stroke-linejoin: miter; stroke-linecap: square"/>
   </g>
   <g id="patch_25">
    <path d="M 182.154039 307.96 
L 265.39002 307.96 
" style="fill: none; stroke: #000000; stroke-width: 1.5; stroke-linejoin: miter; stroke-linecap: square"/>
   </g>
  </g>
  <g id="axes_9">
   <g id="patch_26">
    <path d="M 303.66502 307.96 
L 386.901 307.96 
L 386.901 233.466667 
L 303.66502 233.466667 
z
" style="fill: #ffffff"/>
   </g>
   <g id="matplotlib.axis_17">
    <g id="xtick_25">
     <g id="line2d_73">
      <g>
       <use xlink:href="#ma9f70d7c5b" x="303.66502" y="307.96" style="stroke: #000000; stroke-width: 1.5"/>
      </g>
     </g>
     <g id="text_39">
      <text style="font: 9px 'Arial', sans-serif; text-anchor: middle" x="303.66502" y="321.798594" transform="rotate(-0 303.66502 321.798594)">0.0</text>
     </g>
    </g>
    <g id="xtick_26">
     <g id="line2d_74">
      <g>
       <use xlink:href="#ma9f70d7c5b" x="345.28301" y="307.96" style="stroke: #000000; stroke-width: 1.5"/>
      </g>
     </g>
     <g id="text_40">
      <text style="font: 9px 'Arial', sans-serif; text-anchor: middle" x="345.28301" y="321.798594" transform="rotate(-0 345.28301 321.798594)">0.5</text>
     </g>
    </g>
    <g id="xtick_27">
     <g id="line2d_75">
      <g>
       <use xlink:href="#ma9f70d7c5b" x="386.901" y="307.96" style="stroke: #000000; stroke-width: 1.5"/>
      </g>
     </g>
     <g id="text_41">
      <text style="font: 9px 'Arial', sans-serif; text-anchor: middle" x="386.901" y="321.798594" transform="rotate(-0 386.901 321.798594)">1.0</text>
     </g>
    </g>
    <g id="text_42">
     <text style="font: 9px 'Arial', sans-serif; text-anchor: middle" x="345.28301" y="334.508906" transform="rotate(-0 345.28301 334.508906)">Credibility level</text>
    </g>
   </g>
   <g id="matplotlib.axis_18">
    <g id="ytick_25">
     <g id="line2d_76">
      <g>
       <use xlink:href="#m4f46779eb3" x="303.66502" y="307.96" style="stroke: #000000; stroke-width: 1.5"/>
      </g>
     </g>
     <g id="text_43">
      <text style="font: 9px 'Arial', sans-serif; text-anchor: end" x="296.66502" y="311.379297" transform="rotate(-0 296.66502 311.379297)">0.0</text>
     </g>
    </g>
    <g id="ytick_26">
     <g id="line2d_77">
      <g>
       <use xlink:href="#m4f46779eb3" x="303.66502" y="270.713333" style="stroke: #000000; stroke-width: 1.5"/>
      </g>
     </g>
     <g id="text_44">
      <text style="font: 9px 'Arial', sans-serif; text-anchor: end" x="296.66502" y="274.13263" transform="rotate(-0 296.66502 274.13263)">0.5</text>
     </g>
    </g>
    <g id="ytick_27">
     <g id="line2d_78">
      <g>
       <use xlink:href="#m4f46779eb3" x="303.66502" y="233.466667" style="stroke: #000000; stroke-width: 1.5"/>
      </g>
     </g>
     <g id="text_45">
      <text style="font: 9px 'Arial', sans-serif; text-anchor: end" x="296.66502" y="236.885964" transform="rotate(-0 296.66502 236.885964)">1.0</text>
     </g>
    </g>
   </g>
   <g id="line2d_79">
    <path d="M 303.66502 307.96 
L 305.329739 306.485926 
L 306.960485 305.200171 
L 308.591231 303.818767 
L 310.221976 302.206731 
L 311.852722 300.719248 
L 313.483468 299.377474 
L 315.114214 297.628967 
L 316.744959 296.171281 
L 318.375705 294.628375 
L 320.006451 293.187376 
L 321.637197 291.716878 
L 323.267942 290.336367 
L 324.898688 288.798825 
L 326.529434 287.575942 
L 328.16018 286.164741 
L 329.790925 284.748175 
L 331.421671 283.430239 
L 333.052417 281.932923 
L 334.683163 280.382866 
L 336.313908 278.669519 
L 337.944654 277.129593 
L 339.5754 275.824768 
L 341.206145 274.735079 
L 342.836891 273.558681 
L 344.467637 272.214225 
L 346.098383 270.734489 
L 347.729128 269.044087 
L 349.359874 267.446056 
L 350.99062 265.954103 
L 352.621366 264.536346 
L 354.252111 263.03754 
L 355.882857 261.416863 
L 357.513603 260.100119 
L 359.144349 258.309299 
L 360.775094 256.895416 
L 362.40584 255.410317 
L 364.036586 254.023549 
L 365.667332 252.473194 
L 367.298077 250.992862 
L 368.928823 249.673138 
L 370.559569 248.334642 
L 372.190314 246.835836 
L 373.82106 245.196089 
L 375.451806 243.659738 
L 377.082552 241.839121 
L 378.713297 240.502115 
L 380.344043 239.059328 
L 381.974789 237.431202 
L 383.605535 236.228581 
L 385.23628 234.728286 
L 386.901 233.466667 
" clip-path="url(#pdd47a88441)" style="fill: none; stroke: #1f77b4; stroke-opacity: 0.5; stroke-width: 2; stroke-linecap: square"/>
   </g>
   <g id="line2d_80">
    <path d="M 303.66502 307.96 
L 305.329739 306.540157 
L 306.960485 305.336941 
L 308.591231 304.18587 
L 310.221976 302.911736 
L 311.852722 301.651011 
L 313.483468 300.579796 
L 315.114214 299.011563 
L 316.744959 297.743388 
L 318.375705 296.179326 
L 320.006451 294.55269 
L 321.637197 293.266935 
L 323.267942 291.514554 
L 324.898688 290.200193 
L 326.529434 288.617657 
L 328.16018 287.31164 
L 329.790925 285.922488 
L 331.421671 284.448712 
L 333.052417 283.140013 
L 334.683163 281.731791 
L 336.313908 280.262485 
L 337.944654 278.719877 
L 339.5754 277.22703 
L 341.206145 275.892408 
L 342.836891 274.421016 
L 344.467637 272.870362 
L 346.098383 271.387349 
L 347.729128 269.933239 
L 349.359874 268.313754 
L 350.99062 267.033363 
L 352.621366 265.724068 
L 354.252111 264.22854 
L 355.882857 262.689805 
L 357.513603 261.272942 
L 359.144349 259.672527 
L 360.775094 258.268477 
L 362.40584 256.387073 
L 364.036586 254.961271 
L 365.667332 253.358175 
L 367.298077 252.079869 
L 368.928823 250.389764 
L 370.559569 248.836727 
L 372.190314 247.44251 
L 373.82106 246.210688 
L 375.451806 244.817067 
L 377.082552 243.179107 
L 378.713297 241.650206 
L 380.344043 240.221424 
L 381.974789 238.430604 
L 383.605535 236.909749 
L 385.23628 235.136211 
L 386.901 233.466667 
" clip-path="url(#pdd47a88441)" style="fill: none; stroke: #ff7f0e; stroke-opacity: 0.5; stroke-width: 2; stroke-linecap: square"/>
   </g>
   <g id="line2d_81">
    <path d="M 303.66502 307.96 
L 386.901 233.466667 
" clip-path="url(#pdd47a88441)" style="fill: none; stroke-dasharray: 3.7,1.6; stroke-dashoffset: 0; stroke: #000000; stroke-opacity: 0.5"/>
   </g>
   <g id="patch_27">
    <path d="M 303.66502 307.96 
L 303.66502 233.466667 
" style="fill: none; stroke: #000000; stroke-width: 1.5; stroke-linejoin: miter; stroke-linecap: square"/>
   </g>
   <g id="patch_28">
    <path d="M 303.66502 307.96 
L 386.901 307.96 
" style="fill: none; stroke: #000000; stroke-width: 1.5; stroke-linejoin: miter; stroke-linecap: square"/>
   </g>
  </g>
  <g id="text_46">
   <text style="font: 9px 'Arial', sans-serif; text-anchor: middle" x="209.376" y="14.038594" transform="rotate(-0 209.376 14.038594)">Simformer (directed): Expected Coverage</text>
  </g>
  <g id="text_47">
   <text style="font: 9px 'Arial', sans-serif" transform="translate(14.038594 236.476406) rotate(-90)">Number of simulations</text>
  </g>
  <g id="legend_1">
   <g id="line2d_82">
    <path d="M 133.557328 350.478281 
L 142.557328 350.478281 
L 151.557328 350.478281 
" style="fill: none; stroke: #1f77b4; stroke-opacity: 0.5; stroke-width: 2; stroke-linecap: square"/>
   </g>
   <g id="text_48">
    <text style="font: 9px 'Arial', sans-serif; text-anchor: start" x="158.757328" y="353.628281" transform="rotate(-0 158.757328 353.628281)">posterior</text>
   </g>
   <g id="line2d_83">
    <path d="M 217.139203 350.478281 
L 226.139203 350.478281 
L 235.139203 350.478281 
" style="fill: none; stroke: #ff7f0e; stroke-opacity: 0.5; stroke-width: 2; stroke-linecap: square"/>
   </g>
   <g id="text_49">
    <text style="font: 9px 'Arial', sans-serif; text-anchor: start" x="242.339203" y="353.628281" transform="rotate(-0 242.339203 353.628281)">likelihood</text>
   </g>
  </g>
 </g>
 <defs>
  <clipPath id="pfd704c2012">
   <rect x="60.643059" y="46.32" width="83.23598" height="74.493333"/>
  </clipPath>
  <clipPath id="p30f6b7118a">
   <rect x="182.154039" y="46.32" width="83.23598" height="74.493333"/>
  </clipPath>
  <clipPath id="p1502cbd681">
   <rect x="303.66502" y="46.32" width="83.23598" height="74.493333"/>
  </clipPath>
  <clipPath id="p4d0bad50ed">
   <rect x="60.643059" y="139.893333" width="83.23598" height="74.493333"/>
  </clipPath>
  <clipPath id="p9148287747">
   <rect x="182.154039" y="139.893333" width="83.23598" height="74.493333"/>
  </clipPath>
  <clipPath id="p70ec70f84d">
   <rect x="303.66502" y="139.893333" width="83.23598" height="74.493333"/>
  </clipPath>
  <clipPath id="p36bbf4ac95">
   <rect x="60.643059" y="233.466667" width="83.23598" height="74.493333"/>
  </clipPath>
  <clipPath id="pf7f94e9b9d">
   <rect x="182.154039" y="233.466667" width="83.23598" height="74.493333"/>
  </clipPath>
  <clipPath id="pdd47a88441">
   <rect x="303.66502" y="233.466667" width="83.23598" height="74.493333"/>
  </clipPath>
 </defs>
</svg>
