<?xml version="1.0" encoding="utf-8" standalone="no"?>
<!DOCTYPE svg PUBLIC "-//W3C//DTD SVG 1.1//EN"
  "http://www.w3.org/Graphics/SVG/1.1/DTD/svg11.dtd">
<svg xmlns:xlink="http://www.w3.org/1999/xlink" width="533.449406pt" height="366.3pt" viewBox="0 0 533.449406 366.3" xmlns="http://www.w3.org/2000/svg" version="1.1">
 <metadata>
  <rdf:RDF xmlns:dc="http://purl.org/dc/elements/1.1/" xmlns:cc="http://creativecommons.org/ns#" xmlns:rdf="http://www.w3.org/1999/02/22-rdf-syntax-ns#">
   <cc:Work>
    <dc:type rdf:resource="http://purl.org/dc/dcmitype/StillImage"/>
    <dc:date>2024-05-12T07:58:30.495781</dc:date>
    <dc:format>image/svg+xml</dc:format>
    <dc:creator>
     <cc:Agent>
      <dc:title>Matplotlib v3.8.4, https://matplotlib.org/</dc:title>
     </cc:Agent>
    </dc:creator>
   </cc:Work>
  </rdf:RDF>
 </metadata>
 <defs>
  <style type="text/css">*{stroke-linejoin: round; stroke-linecap: butt}</style>
 </defs>
 <g id="figure_1">
  <g id="patch_1">
   <path d="M 0 366.3 
L 533.449406 366.3 
L 533.449406 0 
L 0 0 
z
" style="fill: #ffffff"/>
  </g>
  <g id="axes_1">
   <g id="patch_2">
    <path d="M 62.849739 120.813333 
L 148.204304 120.813333 
L 148.204304 46.32 
L 62.849739 46.32 
z
" style="fill: #ffffff"/>
   </g>
   <g id="matplotlib.axis_1">
    <g id="xtick_1">
     <g id="line2d_1">
      <defs>
       <path id="m12b14bee00" d="M 0 0 
L 0 3.5 
" style="stroke: #000000; stroke-width: 1.5"/>
      </defs>
      <g>
       <use xlink:href="#m12b14bee00" x="62.849739" y="120.813333" style="stroke: #000000; stroke-width: 1.5"/>
      </g>
     </g>
    </g>
    <g id="xtick_2">
     <g id="line2d_2">
      <g>
       <use xlink:href="#m12b14bee00" x="105.527022" y="120.813333" style="stroke: #000000; stroke-width: 1.5"/>
      </g>
     </g>
    </g>
    <g id="xtick_3">
     <g id="line2d_3">
      <g>
       <use xlink:href="#m12b14bee00" x="148.204304" y="120.813333" style="stroke: #000000; stroke-width: 1.5"/>
      </g>
     </g>
    </g>
   </g>
   <g id="matplotlib.axis_2">
    <g id="ytick_1">
     <g id="line2d_4">
      <defs>
       <path id="m471aadff49" d="M 0 0 
L -3.5 0 
" style="stroke: #000000; stroke-width: 1.5"/>
      </defs>
      <g>
       <use xlink:href="#m471aadff49" x="62.849739" y="120.813333" style="stroke: #000000; stroke-width: 1.5"/>
      </g>
     </g>
     <g id="text_1">
      <text style="font: 9px 'Arial', sans-serif; text-anchor: end" x="55.849739" y="124.23263" transform="rotate(-0 55.849739 124.23263)">0.0</text>
     </g>
    </g>
    <g id="ytick_2">
     <g id="line2d_5">
      <g>
       <use xlink:href="#m471aadff49" x="62.849739" y="83.566667" style="stroke: #000000; stroke-width: 1.5"/>
      </g>
     </g>
     <g id="text_2">
      <text style="font: 9px 'Arial', sans-serif; text-anchor: end" x="55.849739" y="86.985964" transform="rotate(-0 55.849739 86.985964)">0.5</text>
     </g>
    </g>
    <g id="ytick_3">
     <g id="line2d_6">
      <g>
       <use xlink:href="#m471aadff49" x="62.849739" y="46.32" style="stroke: #000000; stroke-width: 1.5"/>
      </g>
     </g>
     <g id="text_3">
      <text style="font: 9px 'Arial', sans-serif; text-anchor: end" x="55.849739" y="49.739297" transform="rotate(-0 55.849739 49.739297)">1.0</text>
     </g>
    </g>
    <g id="text_4">
     <text style="font: 9px 'Arial', sans-serif; text-anchor: middle" x="35.371651" y="83.566667" transform="rotate(-90 35.371651 83.566667)">1000</text>
    </g>
   </g>
   <g id="line2d_7">
    <path d="M 62.849739 120.813333 
L 64.55683 119.47007 
L 66.229083 118.031156 
L 67.901336 116.810956 
L 69.573589 115.351184 
L 71.245841 113.864297 
L 72.918094 112.538614 
L 74.590347 111.307984 
L 76.262599 109.799643 
L 77.934852 108.304413 
L 79.607105 106.916453 
L 81.279357 105.575573 
L 82.95161 104.190891 
L 84.623863 102.652157 
L 86.296116 101.027606 
L 87.968368 99.502281 
L 89.640621 98.03357 
L 91.312874 96.743047 
L 92.985126 95.010333 
L 94.657379 93.698952 
L 96.329632 92.35688 
L 98.001885 91.06159 
L 99.674137 89.82649 
L 101.34639 88.479353 
L 103.018643 86.984421 
L 104.690895 85.526437 
L 106.363148 83.998132 
L 108.035401 82.428707 
L 109.707654 80.598256 
L 111.379906 79.111071 
L 113.052159 77.716258 
L 114.724412 76.297011 
L 116.396664 74.690339 
L 118.068917 73.143857 
L 119.74117 71.305958 
L 121.413422 69.953457 
L 123.085675 68.568775 
L 124.757928 67.114069 
L 126.430181 65.454358 
L 128.102433 64.055969 
L 129.774686 62.419499 
L 131.446939 60.747869 
L 133.119191 59.096501 
L 134.791444 57.508601 
L 136.463697 56.022608 
L 138.13595 54.45795 
L 139.808202 52.893292 
L 141.480455 51.385845 
L 143.152708 49.960936 
L 144.82496 48.51517 
L 146.497213 47.487162 
L 148.204304 46.32 
" clip-path="url(#p6e6c1f0068)" style="fill: none; stroke: #1f77b4; stroke-opacity: 0.5; stroke-width: 2; stroke-linecap: square"/>
   </g>
   <g id="line2d_8">
    <path d="M 62.849739 120.813333 
L 64.55683 119.271917 
L 66.229083 117.642599 
L 67.901336 116.031457 
L 69.573589 114.586883 
L 71.245841 112.900651 
L 72.918094 111.073479 
L 74.590347 109.529977 
L 76.262599 108.011803 
L 77.934852 106.614904 
L 79.607105 105.344644 
L 81.279357 103.7338 
L 82.95161 102.644111 
L 84.623863 101.022838 
L 86.296116 99.426297 
L 87.968368 98.157527 
L 89.640621 96.707589 
L 91.312874 95.176304 
L 92.985126 93.956699 
L 94.657379 92.365819 
L 96.329632 90.670649 
L 98.001885 89.30027 
L 99.674137 87.678699 
L 101.34639 86.075006 
L 103.018643 84.602124 
L 104.690895 83.254093 
L 106.363148 81.634608 
L 108.035401 79.930796 
L 109.707654 78.400405 
L 111.379906 76.620908 
L 113.052159 75.226989 
L 114.724412 73.880448 
L 116.396664 72.641176 
L 118.068917 71.312215 
L 119.74117 69.80596 
L 121.413422 68.071159 
L 123.085675 66.853938 
L 124.757928 65.590531 
L 126.430181 64.148638 
L 128.102433 62.643277 
L 129.774686 61.255913 
L 131.446939 59.668013 
L 133.119191 58.557467 
L 134.791444 57.306277 
L 136.463697 56.028865 
L 138.13595 54.611704 
L 139.808202 53.169513 
L 141.480455 51.822674 
L 143.152708 50.451698 
L 144.82496 49.053905 
L 146.497213 47.659092 
L 148.204304 46.32 
" clip-path="url(#p6e6c1f0068)" style="fill: none; stroke: #ff7f0e; stroke-opacity: 0.5; stroke-width: 2; stroke-linecap: square"/>
   </g>
   <g id="line2d_9">
    <path d="M 62.849739 120.813333 
L 148.204304 46.32 
" clip-path="url(#p6e6c1f0068)" style="fill: none; stroke-dasharray: 3.7,1.6; stroke-dashoffset: 0; stroke: #000000; stroke-opacity: 0.5"/>
   </g>
   <g id="patch_3">
    <path d="M 62.849739 120.813333 
L 62.849739 46.32 
" style="fill: none; stroke: #000000; stroke-width: 1.5; stroke-linejoin: miter; stroke-linecap: square"/>
   </g>
   <g id="patch_4">
    <path d="M 62.849739 120.813333 
L 148.204304 120.813333 
" style="fill: none; stroke: #000000; stroke-width: 1.5; stroke-linejoin: miter; stroke-linecap: square"/>
   </g>
   <g id="text_5">
    <text style="font: 9px 'Arial', sans-serif; text-anchor: middle" x="105.527022" y="40.32" transform="rotate(-0 105.527022 40.32)">Linear Gaussian</text>
   </g>
  </g>
  <g id="axes_2">
   <g id="patch_5">
    <path d="M 186.479304 120.813333 
L 271.83387 120.813333 
L 271.83387 46.32 
L 186.479304 46.32 
z
" style="fill: #ffffff"/>
   </g>
   <g id="matplotlib.axis_3">
    <g id="xtick_4">
     <g id="line2d_10">
      <g>
       <use xlink:href="#m12b14bee00" x="186.479304" y="120.813333" style="stroke: #000000; stroke-width: 1.5"/>
      </g>
     </g>
    </g>
    <g id="xtick_5">
     <g id="line2d_11">
      <g>
       <use xlink:href="#m12b14bee00" x="229.156587" y="120.813333" style="stroke: #000000; stroke-width: 1.5"/>
      </g>
     </g>
    </g>
    <g id="xtick_6">
     <g id="line2d_12">
      <g>
       <use xlink:href="#m12b14bee00" x="271.83387" y="120.813333" style="stroke: #000000; stroke-width: 1.5"/>
      </g>
     </g>
    </g>
   </g>
   <g id="matplotlib.axis_4">
    <g id="ytick_4">
     <g id="line2d_13">
      <g>
       <use xlink:href="#m471aadff49" x="186.479304" y="120.813333" style="stroke: #000000; stroke-width: 1.5"/>
      </g>
     </g>
     <g id="text_6">
      <text style="font: 9px 'Arial', sans-serif; text-anchor: end" x="179.479304" y="124.23263" transform="rotate(-0 179.479304 124.23263)">0.0</text>
     </g>
    </g>
    <g id="ytick_5">
     <g id="line2d_14">
      <g>
       <use xlink:href="#m471aadff49" x="186.479304" y="83.566667" style="stroke: #000000; stroke-width: 1.5"/>
      </g>
     </g>
     <g id="text_7">
      <text style="font: 9px 'Arial', sans-serif; text-anchor: end" x="179.479304" y="86.985964" transform="rotate(-0 179.479304 86.985964)">0.5</text>
     </g>
    </g>
    <g id="ytick_6">
     <g id="line2d_15">
      <g>
       <use xlink:href="#m471aadff49" x="186.479304" y="46.32" style="stroke: #000000; stroke-width: 1.5"/>
      </g>
     </g>
     <g id="text_8">
      <text style="font: 9px 'Arial', sans-serif; text-anchor: end" x="179.479304" y="49.739297" transform="rotate(-0 179.479304 49.739297)">1.0</text>
     </g>
    </g>
   </g>
   <g id="line2d_16">
    <path d="M 186.479304 120.813333 
L 188.186396 118.154219 
L 189.858648 116.093734 
L 191.530901 114.122938 
L 193.203154 112.189687 
L 194.875406 110.312753 
L 196.547659 108.717106 
L 198.219912 107.06097 
L 199.892165 105.636956 
L 201.564417 103.866994 
L 203.23667 102.485292 
L 204.908923 100.999001 
L 206.581175 99.738275 
L 208.253428 98.088099 
L 209.925681 96.685837 
L 211.597934 95.39144 
L 213.270186 94.180179 
L 214.942439 92.883697 
L 216.614692 91.578276 
L 218.286944 90.202533 
L 219.959197 89.18555 
L 221.63145 88.036863 
L 223.303702 87.047889 
L 224.975955 86.068153 
L 226.648208 84.947773 
L 228.320461 83.717441 
L 229.992713 82.20761 
L 231.664966 80.220426 
L 233.337219 78.536281 
L 235.009471 76.407559 
L 236.681724 74.443319 
L 238.353977 72.741295 
L 240.02623 71.050297 
L 241.698482 69.068476 
L 243.370735 67.423067 
L 245.042988 65.733559 
L 246.71524 64.380164 
L 248.387493 63.046733 
L 250.059746 61.583982 
L 251.731998 60.353948 
L 253.404251 59.000851 
L 255.076504 57.787206 
L 256.748757 56.431725 
L 258.421009 55.170702 
L 260.093262 53.979703 
L 261.765515 52.927261 
L 263.437767 51.691267 
L 265.11002 50.434714 
L 266.782273 49.352475 
L 268.454526 48.253251 
L 270.126778 47.293777 
L 271.83387 46.32 
" clip-path="url(#pf449dcfa94)" style="fill: none; stroke: #1f77b4; stroke-opacity: 0.5; stroke-width: 2; stroke-linecap: square"/>
   </g>
   <g id="line2d_17">
    <path d="M 186.479304 120.813333 
L 188.186396 117.600883 
L 189.858648 115.479313 
L 191.530901 113.512391 
L 193.203154 111.724551 
L 194.875406 109.756437 
L 196.547659 107.891422 
L 198.219912 106.563653 
L 199.892165 105.02313 
L 201.564417 103.71324 
L 203.23667 102.200131 
L 204.908923 100.599716 
L 206.581175 99.150076 
L 208.253428 97.728445 
L 209.925681 96.16051 
L 211.597934 95.001989 
L 213.270186 93.764208 
L 214.942439 92.400086 
L 216.614692 91.133104 
L 218.286944 89.586026 
L 219.959197 88.35927 
L 221.63145 87.108378 
L 223.303702 85.816067 
L 224.975955 84.519287 
L 226.648208 83.156953 
L 228.320461 81.827992 
L 229.992713 80.016612 
L 231.664966 78.356901 
L 233.337219 76.681397 
L 235.009471 75.130744 
L 236.681724 73.465371 
L 238.353977 71.847375 
L 240.02623 70.069071 
L 241.698482 68.632541 
L 243.370735 67.187668 
L 245.042988 65.554477 
L 246.71524 64.185289 
L 248.387493 62.879272 
L 250.059746 61.832492 
L 251.731998 60.416224 
L 253.404251 59.188872 
L 255.076504 57.918314 
L 256.748757 56.774394 
L 258.421009 55.626601 
L 260.093262 54.471061 
L 261.765515 53.085783 
L 263.437767 51.800624 
L 265.11002 50.790792 
L 266.782273 49.555394 
L 268.454526 48.390319 
L 270.126778 47.359033 
L 271.83387 46.32 
" clip-path="url(#pf449dcfa94)" style="fill: none; stroke: #ff7f0e; stroke-opacity: 0.5; stroke-width: 2; stroke-linecap: square"/>
   </g>
   <g id="line2d_18">
    <path d="M 186.479304 120.813333 
L 271.83387 46.32 
" clip-path="url(#pf449dcfa94)" style="fill: none; stroke-dasharray: 3.7,1.6; stroke-dashoffset: 0; stroke: #000000; stroke-opacity: 0.5"/>
   </g>
   <g id="patch_6">
    <path d="M 186.479304 120.813333 
L 186.479304 46.32 
" style="fill: none; stroke: #000000; stroke-width: 1.5; stroke-linejoin: miter; stroke-linecap: square"/>
   </g>
   <g id="patch_7">
    <path d="M 186.479304 120.813333 
L 271.83387 120.813333 
" style="fill: none; stroke: #000000; stroke-width: 1.5; stroke-linejoin: miter; stroke-linecap: square"/>
   </g>
   <g id="text_9">
    <text style="font: 9px 'Arial', sans-serif; text-anchor: middle" x="229.156587" y="40.32" transform="rotate(-0 229.156587 40.32)">Mixture Gaussian</text>
   </g>
  </g>
  <g id="axes_3">
   <g id="patch_8">
    <path d="M 310.10887 120.813333 
L 395.463435 120.813333 
L 395.463435 46.32 
L 310.10887 46.32 
z
" style="fill: #ffffff"/>
   </g>
   <g id="matplotlib.axis_5">
    <g id="xtick_7">
     <g id="line2d_19">
      <g>
       <use xlink:href="#m12b14bee00" x="310.10887" y="120.813333" style="stroke: #000000; stroke-width: 1.5"/>
      </g>
     </g>
    </g>
    <g id="xtick_8">
     <g id="line2d_20">
      <g>
       <use xlink:href="#m12b14bee00" x="352.786152" y="120.813333" style="stroke: #000000; stroke-width: 1.5"/>
      </g>
     </g>
    </g>
    <g id="xtick_9">
     <g id="line2d_21">
      <g>
       <use xlink:href="#m12b14bee00" x="395.463435" y="120.813333" style="stroke: #000000; stroke-width: 1.5"/>
      </g>
     </g>
    </g>
   </g>
   <g id="matplotlib.axis_6">
    <g id="ytick_7">
     <g id="line2d_22">
      <g>
       <use xlink:href="#m471aadff49" x="310.10887" y="120.813333" style="stroke: #000000; stroke-width: 1.5"/>
      </g>
     </g>
     <g id="text_10">
      <text style="font: 9px 'Arial', sans-serif; text-anchor: end" x="303.10887" y="124.23263" transform="rotate(-0 303.10887 124.23263)">0.0</text>
     </g>
    </g>
    <g id="ytick_8">
     <g id="line2d_23">
      <g>
       <use xlink:href="#m471aadff49" x="310.10887" y="83.566667" style="stroke: #000000; stroke-width: 1.5"/>
      </g>
     </g>
     <g id="text_11">
      <text style="font: 9px 'Arial', sans-serif; text-anchor: end" x="303.10887" y="86.985964" transform="rotate(-0 303.10887 86.985964)">0.5</text>
     </g>
    </g>
    <g id="ytick_9">
     <g id="line2d_24">
      <g>
       <use xlink:href="#m471aadff49" x="310.10887" y="46.32" style="stroke: #000000; stroke-width: 1.5"/>
      </g>
     </g>
     <g id="text_12">
      <text style="font: 9px 'Arial', sans-serif; text-anchor: end" x="303.10887" y="49.739297" transform="rotate(-0 303.10887 49.739297)">1.0</text>
     </g>
    </g>
   </g>
   <g id="line2d_25">
    <path d="M 310.10887 120.813333 
L 311.815961 118.192658 
L 313.488214 115.947429 
L 315.160466 113.854464 
L 316.832719 111.759116 
L 318.504972 109.761502 
L 320.177224 108.142017 
L 321.849477 106.442377 
L 323.52173 104.551141 
L 325.193983 103.022835 
L 326.866235 101.173017 
L 328.538488 99.441196 
L 330.210741 97.96891 
L 331.882993 96.363727 
L 333.555246 94.968616 
L 335.227499 92.908429 
L 336.899751 91.120589 
L 338.572004 89.40903 
L 340.244257 87.623574 
L 341.91651 86.218927 
L 343.588762 84.945985 
L 345.261015 83.408145 
L 346.933268 81.953737 
L 348.60552 80.46387 
L 350.277773 79.052073 
L 351.950026 77.296116 
L 353.622279 75.736523 
L 355.294531 74.155477 
L 356.966784 72.525265 
L 358.639037 70.851549 
L 360.311289 69.593505 
L 361.983542 68.159062 
L 363.655795 66.683498 
L 365.328047 65.511568 
L 367.0003 64.227303 
L 368.672553 62.941548 
L 370.344806 61.406688 
L 372.017058 59.964497 
L 373.689311 58.758003 
L 375.361564 57.650138 
L 377.033816 56.376302 
L 378.706069 55.085482 
L 380.378322 54.016949 
L 382.050575 52.797046 
L 383.722827 51.714509 
L 385.39508 50.687991 
L 387.067333 49.730305 
L 388.739585 48.892106 
L 390.411838 47.951106 
L 392.084091 47.186506 
L 393.756343 46.681144 
L 395.463435 46.32 
" clip-path="url(#p6564def37f)" style="fill: none; stroke: #1f77b4; stroke-opacity: 0.5; stroke-width: 2; stroke-linecap: square"/>
   </g>
   <g id="line2d_26">
    <path d="M 310.10887 120.813333 
L 311.815961 118.475137 
L 313.488214 116.437297 
L 315.160466 114.57109 
L 316.832719 112.706671 
L 318.504972 110.352681 
L 320.177224 107.872053 
L 321.849477 106.110435 
L 323.52173 104.258531 
L 325.193983 102.760619 
L 326.866235 101.020753 
L 328.538488 99.288932 
L 330.210741 97.598529 
L 331.882993 95.993645 
L 333.555246 94.344958 
L 335.227499 92.652768 
L 336.899751 90.704618 
L 338.572004 89.348839 
L 340.244257 87.844372 
L 341.91651 86.592586 
L 343.588762 84.975485 
L 345.261015 83.288658 
L 346.933268 81.794321 
L 348.60552 80.381332 
L 350.277773 79.179903 
L 351.950026 77.566974 
L 353.622279 76.261552 
L 355.294531 75.005297 
L 356.966784 73.72133 
L 358.639037 72.106016 
L 360.311289 70.558939 
L 361.983542 69.29583 
L 363.655795 67.896249 
L 365.328047 66.360495 
L 367.0003 65.033917 
L 368.672553 63.538389 
L 370.344806 62.388808 
L 372.017058 61.239525 
L 373.689311 59.902816 
L 375.361564 58.569684 
L 377.033816 57.46748 
L 378.706069 56.329222 
L 380.378322 55.12243 
L 382.050575 54.112003 
L 383.722827 52.987153 
L 385.39508 51.965999 
L 387.067333 50.985964 
L 388.739585 49.699018 
L 390.411838 48.614395 
L 392.084091 47.777686 
L 393.756343 47.000273 
L 395.463435 46.32 
" clip-path="url(#p6564def37f)" style="fill: none; stroke: #ff7f0e; stroke-opacity: 0.5; stroke-width: 2; stroke-linecap: square"/>
   </g>
   <g id="line2d_27">
    <path d="M 310.10887 120.813333 
L 395.463435 46.32 
" clip-path="url(#p6564def37f)" style="fill: none; stroke-dasharray: 3.7,1.6; stroke-dashoffset: 0; stroke: #000000; stroke-opacity: 0.5"/>
   </g>
   <g id="patch_9">
    <path d="M 310.10887 120.813333 
L 310.10887 46.32 
" style="fill: none; stroke: #000000; stroke-width: 1.5; stroke-linejoin: miter; stroke-linecap: square"/>
   </g>
   <g id="patch_10">
    <path d="M 310.10887 120.813333 
L 395.463435 120.813333 
" style="fill: none; stroke: #000000; stroke-width: 1.5; stroke-linejoin: miter; stroke-linecap: square"/>
   </g>
   <g id="text_13">
    <text style="font: 9px 'Arial', sans-serif; text-anchor: middle" x="352.786152" y="40.32" transform="rotate(-0 352.786152 40.32)">Two Moons</text>
   </g>
  </g>
  <g id="axes_4">
   <g id="patch_11">
    <path d="M 433.738435 120.813333 
L 519.093 120.813333 
L 519.093 46.32 
L 433.738435 46.32 
z
" style="fill: #ffffff"/>
   </g>
   <g id="matplotlib.axis_7">
    <g id="xtick_10">
     <g id="line2d_28">
      <g>
       <use xlink:href="#m12b14bee00" x="433.738435" y="120.813333" style="stroke: #000000; stroke-width: 1.5"/>
      </g>
     </g>
    </g>
    <g id="xtick_11">
     <g id="line2d_29">
      <g>
       <use xlink:href="#m12b14bee00" x="476.415717" y="120.813333" style="stroke: #000000; stroke-width: 1.5"/>
      </g>
     </g>
    </g>
    <g id="xtick_12">
     <g id="line2d_30">
      <g>
       <use xlink:href="#m12b14bee00" x="519.093" y="120.813333" style="stroke: #000000; stroke-width: 1.5"/>
      </g>
     </g>
    </g>
   </g>
   <g id="matplotlib.axis_8">
    <g id="ytick_10">
     <g id="line2d_31">
      <g>
       <use xlink:href="#m471aadff49" x="433.738435" y="120.813333" style="stroke: #000000; stroke-width: 1.5"/>
      </g>
     </g>
     <g id="text_14">
      <text style="font: 9px 'Arial', sans-serif; text-anchor: end" x="426.738435" y="124.23263" transform="rotate(-0 426.738435 124.23263)">0.0</text>
     </g>
    </g>
    <g id="ytick_11">
     <g id="line2d_32">
      <g>
       <use xlink:href="#m471aadff49" x="433.738435" y="83.566667" style="stroke: #000000; stroke-width: 1.5"/>
      </g>
     </g>
     <g id="text_15">
      <text style="font: 9px 'Arial', sans-serif; text-anchor: end" x="426.738435" y="86.985964" transform="rotate(-0 426.738435 86.985964)">0.5</text>
     </g>
    </g>
    <g id="ytick_12">
     <g id="line2d_33">
      <g>
       <use xlink:href="#m471aadff49" x="433.738435" y="46.32" style="stroke: #000000; stroke-width: 1.5"/>
      </g>
     </g>
     <g id="text_16">
      <text style="font: 9px 'Arial', sans-serif; text-anchor: end" x="426.738435" y="49.739297" transform="rotate(-0 426.738435 49.739297)">1.0</text>
     </g>
    </g>
   </g>
   <g id="line2d_34">
    <path d="M 433.738435 120.813333 
L 435.445526 118.507914 
L 437.117779 116.668822 
L 438.790031 114.55351 
L 440.462284 112.431045 
L 442.134537 110.670321 
L 443.80679 108.733792 
L 445.479042 107.050541 
L 447.151295 105.583022 
L 448.823548 103.784455 
L 450.4958 102.217116 
L 452.168053 101.024626 
L 453.840306 99.392924 
L 455.512559 97.73947 
L 457.184811 96.565157 
L 458.857064 95.192096 
L 460.529317 93.955209 
L 462.201569 92.648298 
L 463.873822 91.306524 
L 465.546075 89.895024 
L 467.218328 88.623274 
L 468.89058 87.268985 
L 470.562833 85.827092 
L 472.235086 84.632517 
L 473.907338 83.050279 
L 475.579591 81.816669 
L 477.251844 80.525849 
L 478.924096 79.321143 
L 480.596349 77.905471 
L 482.268602 76.400408 
L 483.940855 75.121506 
L 485.613107 73.708815 
L 487.28536 72.459115 
L 488.957613 71.199283 
L 490.629865 69.755007 
L 492.302118 68.176344 
L 493.974371 66.473128 
L 495.646624 65.232963 
L 497.318876 63.972834 
L 498.991129 62.695423 
L 500.663382 61.262171 
L 502.335634 59.685296 
L 504.007887 58.302104 
L 505.68014 56.917124 
L 507.352392 55.583693 
L 509.024645 53.842933 
L 510.696898 52.279169 
L 512.369151 50.559863 
L 514.041403 49.230604 
L 515.713656 48.08877 
L 517.385909 47.017258 
L 519.093 46.32 
" clip-path="url(#p8d3110a786)" style="fill: none; stroke: #1f77b4; stroke-opacity: 0.5; stroke-width: 2; stroke-linecap: square"/>
   </g>
   <g id="line2d_35">
    <path d="M 433.738435 120.813333 
L 435.445526 118.009404 
L 437.117779 115.474545 
L 438.790031 113.197135 
L 440.462284 110.702204 
L 442.134537 108.014485 
L 443.80679 105.787134 
L 445.479042 103.984097 
L 447.151295 102.046973 
L 448.823548 100.075581 
L 450.4958 98.029696 
L 452.168053 96.012417 
L 453.840306 94.097044 
L 455.512559 91.931374 
L 457.184811 89.891151 
L 458.857064 88.064276 
L 460.529317 86.329773 
L 462.201569 84.439431 
L 463.873822 82.596168 
L 465.546075 80.663215 
L 467.218328 79.007675 
L 468.89058 77.234733 
L 470.562833 75.668288 
L 472.235086 73.925441 
L 473.907338 72.441534 
L 475.579591 70.951966 
L 477.251844 69.665913 
L 478.924096 68.069074 
L 480.596349 66.577419 
L 482.268602 64.953762 
L 483.940855 63.731476 
L 485.613107 62.446019 
L 487.28536 61.179334 
L 488.957613 60.119443 
L 490.629865 58.938277 
L 492.302118 57.830114 
L 493.974371 56.731784 
L 495.646624 55.696625 
L 497.318876 54.668319 
L 498.991129 53.725531 
L 500.663382 52.743113 
L 502.335634 51.833103 
L 504.007887 50.963914 
L 505.68014 50.248182 
L 507.352392 49.572379 
L 509.024645 48.856945 
L 510.696898 48.273811 
L 512.369151 47.758317 
L 514.041403 47.282156 
L 515.713656 46.836984 
L 517.385909 46.519344 
L 519.093 46.32 
" clip-path="url(#p8d3110a786)" style="fill: none; stroke: #ff7f0e; stroke-opacity: 0.5; stroke-width: 2; stroke-linecap: square"/>
   </g>
   <g id="line2d_36">
    <path d="M 433.738435 120.813333 
L 519.093 46.32 
" clip-path="url(#p8d3110a786)" style="fill: none; stroke-dasharray: 3.7,1.6; stroke-dashoffset: 0; stroke: #000000; stroke-opacity: 0.5"/>
   </g>
   <g id="patch_12">
    <path d="M 433.738435 120.813333 
L 433.738435 46.32 
" style="fill: none; stroke: #000000; stroke-width: 1.5; stroke-linejoin: miter; stroke-linecap: square"/>
   </g>
   <g id="patch_13">
    <path d="M 433.738435 120.813333 
L 519.093 120.813333 
" style="fill: none; stroke: #000000; stroke-width: 1.5; stroke-linejoin: miter; stroke-linecap: square"/>
   </g>
   <g id="text_17">
    <text style="font: 9px 'Arial', sans-serif; text-anchor: middle" x="476.415717" y="40.32" transform="rotate(-0 476.415717 40.32)">SLCP</text>
   </g>
  </g>
  <g id="axes_5">
   <g id="patch_14">
    <path d="M 62.849739 214.386667 
L 148.204304 214.386667 
L 148.204304 139.893333 
L 62.849739 139.893333 
z
" style="fill: #ffffff"/>
   </g>
   <g id="matplotlib.axis_9">
    <g id="xtick_13">
     <g id="line2d_37">
      <g>
       <use xlink:href="#m12b14bee00" x="62.849739" y="214.386667" style="stroke: #000000; stroke-width: 1.5"/>
      </g>
     </g>
    </g>
    <g id="xtick_14">
     <g id="line2d_38">
      <g>
       <use xlink:href="#m12b14bee00" x="105.527022" y="214.386667" style="stroke: #000000; stroke-width: 1.5"/>
      </g>
     </g>
    </g>
    <g id="xtick_15">
     <g id="line2d_39">
      <g>
       <use xlink:href="#m12b14bee00" x="148.204304" y="214.386667" style="stroke: #000000; stroke-width: 1.5"/>
      </g>
     </g>
    </g>
   </g>
   <g id="matplotlib.axis_10">
    <g id="ytick_13">
     <g id="line2d_40">
      <g>
       <use xlink:href="#m471aadff49" x="62.849739" y="214.386667" style="stroke: #000000; stroke-width: 1.5"/>
      </g>
     </g>
     <g id="text_18">
      <text style="font: 9px 'Arial', sans-serif; text-anchor: end" x="55.849739" y="217.805964" transform="rotate(-0 55.849739 217.805964)">0.0</text>
     </g>
    </g>
    <g id="ytick_14">
     <g id="line2d_41">
      <g>
       <use xlink:href="#m471aadff49" x="62.849739" y="177.14" style="stroke: #000000; stroke-width: 1.5"/>
      </g>
     </g>
     <g id="text_19">
      <text style="font: 9px 'Arial', sans-serif; text-anchor: end" x="55.849739" y="180.559297" transform="rotate(-0 55.849739 180.559297)">0.5</text>
     </g>
    </g>
    <g id="ytick_15">
     <g id="line2d_42">
      <g>
       <use xlink:href="#m471aadff49" x="62.849739" y="139.893333" style="stroke: #000000; stroke-width: 1.5"/>
      </g>
     </g>
     <g id="text_20">
      <text style="font: 9px 'Arial', sans-serif; text-anchor: end" x="55.849739" y="143.31263" transform="rotate(-0 55.849739 143.31263)">1.0</text>
     </g>
    </g>
    <g id="text_21">
     <text style="font: 9px 'Arial', sans-serif; text-anchor: middle" x="35.371651" y="177.14" transform="rotate(-90 35.371651 177.14)">10000</text>
    </g>
   </g>
   <g id="line2d_43">
    <path d="M 62.849739 214.386667 
L 64.55683 212.548469 
L 66.229083 211.106874 
L 67.901336 209.676602 
L 69.573589 208.392635 
L 71.245841 206.834235 
L 72.918094 205.237693 
L 74.590347 203.565765 
L 76.262599 202.017198 
L 77.934852 200.465651 
L 79.607105 198.794616 
L 81.279357 197.49426 
L 82.95161 196.237409 
L 84.623863 194.787471 
L 86.296116 193.392955 
L 87.968368 192.082171 
L 89.640621 190.897727 
L 91.312874 189.713879 
L 92.985126 188.248148 
L 94.657379 186.820856 
L 96.329632 185.326519 
L 98.001885 183.703161 
L 99.674137 182.26246 
L 101.34639 180.856025 
L 103.018643 179.441546 
L 104.690895 178.065803 
L 106.363148 176.499655 
L 108.035401 175.224627 
L 109.707654 173.58339 
L 111.379906 172.135836 
L 113.052159 170.725528 
L 114.724412 169.305387 
L 116.396664 167.830717 
L 118.068917 166.530957 
L 119.74117 164.876312 
L 121.413422 163.13138 
L 123.085675 161.564934 
L 124.757928 160.211539 
L 126.430181 158.827751 
L 128.102433 157.250578 
L 129.774686 155.729126 
L 131.446939 154.366196 
L 133.119191 153.054815 
L 134.791444 151.443674 
L 136.463697 149.708575 
L 138.13595 148.250889 
L 139.808202 146.714241 
L 141.480455 145.382896 
L 143.152708 143.787547 
L 144.82496 142.382603 
L 146.497213 141.176109 
L 148.204304 139.893333 
" clip-path="url(#p5ad8307205)" style="fill: none; stroke: #1f77b4; stroke-opacity: 0.5; stroke-width: 2; stroke-linecap: square"/>
   </g>
   <g id="line2d_44">
    <path d="M 62.849739 214.386667 
L 64.55683 212.902461 
L 66.229083 211.613131 
L 67.901336 210.136673 
L 69.573589 208.836317 
L 71.245841 207.424818 
L 72.918094 206.310695 
L 74.590347 204.723689 
L 76.262599 203.387577 
L 77.934852 202.019283 
L 79.607105 200.680489 
L 81.279357 199.314877 
L 82.95161 198.07501 
L 84.623863 196.839017 
L 86.296116 194.936159 
L 87.968368 193.333063 
L 89.640621 192.001718 
L 91.312874 190.299098 
L 92.985126 189.038373 
L 94.657379 187.733846 
L 96.329632 186.430809 
L 98.001885 185.088141 
L 99.674137 183.658167 
L 101.34639 182.197501 
L 103.018643 180.755608 
L 104.690895 179.256207 
L 106.363148 177.930821 
L 108.035401 176.31223 
L 109.707654 174.72284 
L 111.379906 173.325643 
L 113.052159 171.876897 
L 114.724412 170.501154 
L 116.396664 169.02261 
L 118.068917 167.475831 
L 119.74117 166.088467 
L 121.413422 164.460043 
L 123.085675 163.052119 
L 124.757928 161.561954 
L 126.430181 159.839072 
L 128.102433 158.510409 
L 129.774686 156.867086 
L 131.446939 155.348018 
L 133.119191 154.064647 
L 134.791444 152.628416 
L 136.463697 151.141827 
L 138.13595 149.665667 
L 139.808202 148.189507 
L 141.480455 146.529199 
L 143.152708 144.764005 
L 144.82496 143.092673 
L 146.497213 141.513712 
L 148.204304 139.893333 
" clip-path="url(#p5ad8307205)" style="fill: none; stroke: #ff7f0e; stroke-opacity: 0.5; stroke-width: 2; stroke-linecap: square"/>
   </g>
   <g id="line2d_45">
    <path d="M 62.849739 214.386667 
L 148.204304 139.893333 
" clip-path="url(#p5ad8307205)" style="fill: none; stroke-dasharray: 3.7,1.6; stroke-dashoffset: 0; stroke: #000000; stroke-opacity: 0.5"/>
   </g>
   <g id="patch_15">
    <path d="M 62.849739 214.386667 
L 62.849739 139.893333 
" style="fill: none; stroke: #000000; stroke-width: 1.5; stroke-linejoin: miter; stroke-linecap: square"/>
   </g>
   <g id="patch_16">
    <path d="M 62.849739 214.386667 
L 148.204304 214.386667 
" style="fill: none; stroke: #000000; stroke-width: 1.5; stroke-linejoin: miter; stroke-linecap: square"/>
   </g>
  </g>
  <g id="axes_6">
   <g id="patch_17">
    <path d="M 186.479304 214.386667 
L 271.83387 214.386667 
L 271.83387 139.893333 
L 186.479304 139.893333 
z
" style="fill: #ffffff"/>
   </g>
   <g id="matplotlib.axis_11">
    <g id="xtick_16">
     <g id="line2d_46">
      <g>
       <use xlink:href="#m12b14bee00" x="186.479304" y="214.386667" style="stroke: #000000; stroke-width: 1.5"/>
      </g>
     </g>
    </g>
    <g id="xtick_17">
     <g id="line2d_47">
      <g>
       <use xlink:href="#m12b14bee00" x="229.156587" y="214.386667" style="stroke: #000000; stroke-width: 1.5"/>
      </g>
     </g>
    </g>
    <g id="xtick_18">
     <g id="line2d_48">
      <g>
       <use xlink:href="#m12b14bee00" x="271.83387" y="214.386667" style="stroke: #000000; stroke-width: 1.5"/>
      </g>
     </g>
    </g>
   </g>
   <g id="matplotlib.axis_12">
    <g id="ytick_16">
     <g id="line2d_49">
      <g>
       <use xlink:href="#m471aadff49" x="186.479304" y="214.386667" style="stroke: #000000; stroke-width: 1.5"/>
      </g>
     </g>
     <g id="text_22">
      <text style="font: 9px 'Arial', sans-serif; text-anchor: end" x="179.479304" y="217.805964" transform="rotate(-0 179.479304 217.805964)">0.0</text>
     </g>
    </g>
    <g id="ytick_17">
     <g id="line2d_50">
      <g>
       <use xlink:href="#m471aadff49" x="186.479304" y="177.14" style="stroke: #000000; stroke-width: 1.5"/>
      </g>
     </g>
     <g id="text_23">
      <text style="font: 9px 'Arial', sans-serif; text-anchor: end" x="179.479304" y="180.559297" transform="rotate(-0 179.479304 180.559297)">0.5</text>
     </g>
    </g>
    <g id="ytick_18">
     <g id="line2d_51">
      <g>
       <use xlink:href="#m471aadff49" x="186.479304" y="139.893333" style="stroke: #000000; stroke-width: 1.5"/>
      </g>
     </g>
     <g id="text_24">
      <text style="font: 9px 'Arial', sans-serif; text-anchor: end" x="179.479304" y="143.31263" transform="rotate(-0 179.479304 143.31263)">1.0</text>
     </g>
    </g>
   </g>
   <g id="line2d_52">
    <path d="M 186.479304 214.386667 
L 188.186396 212.69388 
L 189.858648 211.385479 
L 191.530901 210.12982 
L 193.203154 208.756759 
L 194.875406 207.299967 
L 196.547659 206.052055 
L 198.219912 204.833344 
L 199.892165 203.491868 
L 201.564417 202.086923 
L 203.23667 200.573815 
L 204.908923 199.107786 
L 206.581175 197.803855 
L 208.253428 196.217445 
L 209.925681 194.609879 
L 211.597934 193.201061 
L 213.270186 191.7985 
L 214.942439 190.133723 
L 216.614692 188.549995 
L 218.286944 187.072345 
L 219.959197 185.668295 
L 221.63145 183.847678 
L 223.303702 182.539873 
L 224.975955 181.111687 
L 226.648208 179.604835 
L 228.320461 178.156387 
L 229.992713 176.96658 
L 231.664966 175.476415 
L 233.337219 173.850374 
L 235.009471 172.516348 
L 236.681724 171.085778 
L 238.353977 169.742216 
L 240.02623 168.160872 
L 241.698482 166.512483 
L 243.370735 164.888528 
L 245.042988 163.270533 
L 246.71524 161.71839 
L 248.387493 159.936808 
L 250.059746 158.556297 
L 251.731998 157.234785 
L 253.404251 155.711248 
L 255.076504 154.131095 
L 256.748757 152.672814 
L 258.421009 150.97228 
L 260.093262 149.624248 
L 261.765515 148.191295 
L 263.437767 146.354885 
L 265.11002 144.773839 
L 266.782273 143.404949 
L 268.454526 141.911805 
L 270.126778 140.82748 
L 271.83387 139.893333 
" clip-path="url(#p1096b215ed)" style="fill: none; stroke: #1f77b4; stroke-opacity: 0.5; stroke-width: 2; stroke-linecap: square"/>
   </g>
   <g id="line2d_53">
    <path d="M 186.479304 214.386667 
L 188.186396 212.886371 
L 189.858648 211.60449 
L 191.530901 210.178091 
L 193.203154 208.737986 
L 194.875406 207.184949 
L 196.547659 205.706405 
L 198.219912 204.428398 
L 199.892165 202.955218 
L 201.564417 201.63758 
L 203.23667 200.24813 
L 204.908923 198.900695 
L 206.581175 197.61494 
L 208.253428 196.102427 
L 209.925681 194.894443 
L 211.597934 193.450762 
L 213.270186 192.208809 
L 214.942439 190.936463 
L 216.614692 189.598563 
L 218.286944 188.225204 
L 219.959197 186.829795 
L 221.63145 185.372407 
L 223.303702 183.977594 
L 224.975955 182.652209 
L 226.648208 181.258289 
L 228.320461 179.783619 
L 229.992713 178.429331 
L 231.664966 177.064613 
L 233.337219 175.481778 
L 235.009471 173.927549 
L 236.681724 172.332498 
L 238.353977 170.832798 
L 240.02623 169.413253 
L 241.698482 167.826843 
L 243.370735 166.235666 
L 245.042988 164.900447 
L 246.71524 163.193656 
L 248.387493 161.683527 
L 250.059746 160.118869 
L 251.731998 158.626321 
L 253.404251 156.884667 
L 255.076504 155.363513 
L 256.748757 153.753563 
L 258.421009 151.793196 
L 260.093262 150.139146 
L 261.765515 148.57717 
L 263.437767 147.275325 
L 265.11002 145.719606 
L 266.782273 144.496127 
L 268.454526 142.946666 
L 270.126778 141.626942 
L 271.83387 139.893333 
" clip-path="url(#p1096b215ed)" style="fill: none; stroke: #ff7f0e; stroke-opacity: 0.5; stroke-width: 2; stroke-linecap: square"/>
   </g>
   <g id="line2d_54">
    <path d="M 186.479304 214.386667 
L 271.83387 139.893333 
" clip-path="url(#p1096b215ed)" style="fill: none; stroke-dasharray: 3.7,1.6; stroke-dashoffset: 0; stroke: #000000; stroke-opacity: 0.5"/>
   </g>
   <g id="patch_18">
    <path d="M 186.479304 214.386667 
L 186.479304 139.893333 
" style="fill: none; stroke: #000000; stroke-width: 1.5; stroke-linejoin: miter; stroke-linecap: square"/>
   </g>
   <g id="patch_19">
    <path d="M 186.479304 214.386667 
L 271.83387 214.386667 
" style="fill: none; stroke: #000000; stroke-width: 1.5; stroke-linejoin: miter; stroke-linecap: square"/>
   </g>
  </g>
  <g id="axes_7">
   <g id="patch_20">
    <path d="M 310.10887 214.386667 
L 395.463435 214.386667 
L 395.463435 139.893333 
L 310.10887 139.893333 
z
" style="fill: #ffffff"/>
   </g>
   <g id="matplotlib.axis_13">
    <g id="xtick_19">
     <g id="line2d_55">
      <g>
       <use xlink:href="#m12b14bee00" x="310.10887" y="214.386667" style="stroke: #000000; stroke-width: 1.5"/>
      </g>
     </g>
    </g>
    <g id="xtick_20">
     <g id="line2d_56">
      <g>
       <use xlink:href="#m12b14bee00" x="352.786152" y="214.386667" style="stroke: #000000; stroke-width: 1.5"/>
      </g>
     </g>
    </g>
    <g id="xtick_21">
     <g id="line2d_57">
      <g>
       <use xlink:href="#m12b14bee00" x="395.463435" y="214.386667" style="stroke: #000000; stroke-width: 1.5"/>
      </g>
     </g>
    </g>
   </g>
   <g id="matplotlib.axis_14">
    <g id="ytick_19">
     <g id="line2d_58">
      <g>
       <use xlink:href="#m471aadff49" x="310.10887" y="214.386667" style="stroke: #000000; stroke-width: 1.5"/>
      </g>
     </g>
     <g id="text_25">
      <text style="font: 9px 'Arial', sans-serif; text-anchor: end" x="303.10887" y="217.805964" transform="rotate(-0 303.10887 217.805964)">0.0</text>
     </g>
    </g>
    <g id="ytick_20">
     <g id="line2d_59">
      <g>
       <use xlink:href="#m471aadff49" x="310.10887" y="177.14" style="stroke: #000000; stroke-width: 1.5"/>
      </g>
     </g>
     <g id="text_26">
      <text style="font: 9px 'Arial', sans-serif; text-anchor: end" x="303.10887" y="180.559297" transform="rotate(-0 303.10887 180.559297)">0.5</text>
     </g>
    </g>
    <g id="ytick_21">
     <g id="line2d_60">
      <g>
       <use xlink:href="#m471aadff49" x="310.10887" y="139.893333" style="stroke: #000000; stroke-width: 1.5"/>
      </g>
     </g>
     <g id="text_27">
      <text style="font: 9px 'Arial', sans-serif; text-anchor: end" x="303.10887" y="143.31263" transform="rotate(-0 303.10887 143.31263)">1.0</text>
     </g>
    </g>
   </g>
   <g id="line2d_61">
    <path d="M 310.10887 214.386667 
L 311.815961 212.791615 
L 313.488214 210.979938 
L 315.160466 209.385184 
L 316.832719 207.631313 
L 318.504972 206.016298 
L 320.177224 204.340198 
L 321.849477 202.726672 
L 323.52173 201.246043 
L 325.193983 199.528524 
L 326.866235 198.148908 
L 328.538488 196.755585 
L 330.210741 195.136993 
L 331.882993 193.586638 
L 333.555246 192.181396 
L 335.227499 190.557441 
L 336.899751 189.087539 
L 338.572004 187.637303 
L 340.244257 186.37032 
L 341.91651 184.91621 
L 343.588762 183.628667 
L 345.261015 182.152805 
L 346.933268 180.583678 
L 348.60552 179.145361 
L 350.277773 177.754421 
L 351.950026 176.227606 
L 353.622279 175.004723 
L 355.294531 173.347991 
L 356.966784 171.786015 
L 358.639037 170.472847 
L 360.311289 168.914744 
L 361.983542 167.297345 
L 363.655795 165.934117 
L 365.328047 164.42369 
L 367.0003 162.992226 
L 368.672553 161.548247 
L 370.344806 160.111122 
L 372.017058 158.581029 
L 373.689311 157.154631 
L 375.361564 155.660592 
L 377.033816 154.016077 
L 378.706069 152.680263 
L 380.378322 151.325378 
L 382.050575 149.858456 
L 383.722827 148.625144 
L 385.39508 147.335813 
L 387.067333 146.023837 
L 388.739585 144.625448 
L 390.411838 143.493149 
L 392.084091 142.096846 
L 393.756343 140.991067 
L 395.463435 139.893333 
" clip-path="url(#pa46595107e)" style="fill: none; stroke: #1f77b4; stroke-opacity: 0.5; stroke-width: 2; stroke-linecap: square"/>
   </g>
   <g id="line2d_62">
    <path d="M 310.10887 214.386667 
L 311.815961 212.585418 
L 313.488214 210.945671 
L 315.160466 209.42988 
L 316.832719 207.859859 
L 318.504972 206.350922 
L 320.177224 204.733821 
L 321.849477 203.056827 
L 323.52173 201.397115 
L 325.193983 199.89235 
L 326.866235 198.452841 
L 328.538488 196.826204 
L 330.210741 195.223406 
L 331.882993 193.69808 
L 333.555246 192.219536 
L 335.227499 190.797906 
L 336.899751 189.365846 
L 338.572004 187.707922 
L 340.244257 185.912335 
L 341.91651 184.441837 
L 343.588762 182.902506 
L 345.261015 181.295238 
L 346.933268 179.797028 
L 348.60552 178.465385 
L 350.277773 177.084875 
L 351.950026 175.667416 
L 353.622279 174.118848 
L 355.294531 172.663845 
L 356.966784 171.156397 
L 358.639037 169.961822 
L 360.311289 168.283935 
L 361.983542 166.845617 
L 363.655795 165.529767 
L 365.328047 163.902237 
L 367.0003 162.491333 
L 368.672553 161.092348 
L 370.344806 159.772326 
L 372.017058 158.38973 
L 373.689311 157.265179 
L 375.361564 156.008029 
L 377.033816 154.52889 
L 378.706069 152.815245 
L 380.378322 151.384377 
L 382.050575 149.996715 
L 383.722827 148.683547 
L 385.39508 147.394514 
L 387.067333 146.190702 
L 388.739585 144.8236 
L 390.411838 143.264604 
L 392.084091 142.262519 
L 393.756343 140.924917 
L 395.463435 139.893333 
" clip-path="url(#pa46595107e)" style="fill: none; stroke: #ff7f0e; stroke-opacity: 0.5; stroke-width: 2; stroke-linecap: square"/>
   </g>
   <g id="line2d_63">
    <path d="M 310.10887 214.386667 
L 395.463435 139.893333 
" clip-path="url(#pa46595107e)" style="fill: none; stroke-dasharray: 3.7,1.6; stroke-dashoffset: 0; stroke: #000000; stroke-opacity: 0.5"/>
   </g>
   <g id="patch_21">
    <path d="M 310.10887 214.386667 
L 310.10887 139.893333 
" style="fill: none; stroke: #000000; stroke-width: 1.5; stroke-linejoin: miter; stroke-linecap: square"/>
   </g>
   <g id="patch_22">
    <path d="M 310.10887 214.386667 
L 395.463435 214.386667 
" style="fill: none; stroke: #000000; stroke-width: 1.5; stroke-linejoin: miter; stroke-linecap: square"/>
   </g>
  </g>
  <g id="axes_8">
   <g id="patch_23">
    <path d="M 433.738435 214.386667 
L 519.093 214.386667 
L 519.093 139.893333 
L 433.738435 139.893333 
z
" style="fill: #ffffff"/>
   </g>
   <g id="matplotlib.axis_15">
    <g id="xtick_22">
     <g id="line2d_64">
      <g>
       <use xlink:href="#m12b14bee00" x="433.738435" y="214.386667" style="stroke: #000000; stroke-width: 1.5"/>
      </g>
     </g>
    </g>
    <g id="xtick_23">
     <g id="line2d_65">
      <g>
       <use xlink:href="#m12b14bee00" x="476.415717" y="214.386667" style="stroke: #000000; stroke-width: 1.5"/>
      </g>
     </g>
    </g>
    <g id="xtick_24">
     <g id="line2d_66">
      <g>
       <use xlink:href="#m12b14bee00" x="519.093" y="214.386667" style="stroke: #000000; stroke-width: 1.5"/>
      </g>
     </g>
    </g>
   </g>
   <g id="matplotlib.axis_16">
    <g id="ytick_22">
     <g id="line2d_67">
      <g>
       <use xlink:href="#m471aadff49" x="433.738435" y="214.386667" style="stroke: #000000; stroke-width: 1.5"/>
      </g>
     </g>
     <g id="text_28">
      <text style="font: 9px 'Arial', sans-serif; text-anchor: end" x="426.738435" y="217.805964" transform="rotate(-0 426.738435 217.805964)">0.0</text>
     </g>
    </g>
    <g id="ytick_23">
     <g id="line2d_68">
      <g>
       <use xlink:href="#m471aadff49" x="433.738435" y="177.14" style="stroke: #000000; stroke-width: 1.5"/>
      </g>
     </g>
     <g id="text_29">
      <text style="font: 9px 'Arial', sans-serif; text-anchor: end" x="426.738435" y="180.559297" transform="rotate(-0 426.738435 180.559297)">0.5</text>
     </g>
    </g>
    <g id="ytick_24">
     <g id="line2d_69">
      <g>
       <use xlink:href="#m471aadff49" x="433.738435" y="139.893333" style="stroke: #000000; stroke-width: 1.5"/>
      </g>
     </g>
     <g id="text_30">
      <text style="font: 9px 'Arial', sans-serif; text-anchor: end" x="426.738435" y="143.31263" transform="rotate(-0 426.738435 143.31263)">1.0</text>
     </g>
    </g>
   </g>
   <g id="line2d_70">
    <path d="M 433.738435 214.386667 
L 435.445526 212.850018 
L 437.117779 211.251987 
L 438.790031 209.822311 
L 440.462284 208.170347 
L 442.134537 206.834235 
L 443.80679 205.316358 
L 445.479042 203.875657 
L 447.151295 202.504384 
L 448.823548 200.835435 
L 450.4958 199.280313 
L 452.168053 197.864343 
L 453.840306 196.417087 
L 455.512559 194.935265 
L 457.184811 193.423051 
L 458.857064 191.934376 
L 460.529317 190.621803 
L 462.201569 188.974309 
L 463.873822 187.693917 
L 465.546075 186.111083 
L 467.218328 184.842313 
L 468.89058 183.339335 
L 470.562833 182.005011 
L 472.235086 180.597385 
L 473.907338 179.060736 
L 475.579591 177.606924 
L 477.251844 175.927547 
L 478.924096 174.374509 
L 480.596349 173.009494 
L 482.268602 171.530056 
L 483.940855 170.10336 
L 485.613107 168.733576 
L 487.28536 167.228215 
L 488.957613 165.799731 
L 490.629865 164.484775 
L 492.302118 163.197828 
L 493.974371 161.545566 
L 495.646624 160.323875 
L 497.318876 158.807191 
L 498.991129 157.255644 
L 500.663382 155.654633 
L 502.335634 154.136161 
L 504.007887 152.786639 
L 505.68014 151.317631 
L 507.352392 149.766978 
L 509.024645 148.266682 
L 510.696898 146.8084 
L 512.369151 145.341776 
L 514.041403 144.204114 
L 515.713656 142.501196 
L 517.385909 141.062581 
L 519.093 139.893333 
" clip-path="url(#p8ca8c3bbcc)" style="fill: none; stroke: #1f77b4; stroke-opacity: 0.5; stroke-width: 2; stroke-linecap: square"/>
   </g>
   <g id="line2d_71">
    <path d="M 433.738435 214.386667 
L 435.445526 213.161996 
L 437.117779 211.805622 
L 438.790031 210.34585 
L 440.462284 209.104493 
L 442.134537 207.89502 
L 443.80679 206.475177 
L 445.479042 204.998421 
L 447.151295 203.407541 
L 448.823548 201.553551 
L 450.4958 200.052064 
L 452.168053 198.399503 
L 453.840306 196.887587 
L 455.512559 195.272273 
L 457.184811 193.724898 
L 458.857064 192.037773 
L 460.529317 190.337537 
L 462.201569 188.787778 
L 463.873822 187.123299 
L 465.546075 185.738021 
L 467.218328 184.518118 
L 468.89058 183.159657 
L 470.562833 181.273486 
L 472.235086 179.621224 
L 473.907338 178.325934 
L 475.579591 176.595603 
L 477.251844 175.345605 
L 478.924096 173.641495 
L 480.596349 172.038697 
L 482.268602 170.359915 
L 483.940855 169.111109 
L 485.613107 167.613495 
L 487.28536 166.136143 
L 488.957613 164.382272 
L 490.629865 162.937101 
L 492.302118 161.422503 
L 493.974371 159.553912 
L 495.646624 158.120064 
L 497.318876 156.735978 
L 498.991129 155.466314 
L 500.663382 153.888843 
L 502.335634 152.35726 
L 504.007887 150.534557 
L 505.68014 149.166859 
L 507.352392 147.756254 
L 509.024645 146.37038 
L 510.696898 145.129917 
L 512.369151 143.851909 
L 514.041403 142.764902 
L 515.713656 141.657633 
L 517.385909 140.632009 
L 519.093 139.893333 
" clip-path="url(#p8ca8c3bbcc)" style="fill: none; stroke: #ff7f0e; stroke-opacity: 0.5; stroke-width: 2; stroke-linecap: square"/>
   </g>
   <g id="line2d_72">
    <path d="M 433.738435 214.386667 
L 519.093 139.893333 
" clip-path="url(#p8ca8c3bbcc)" style="fill: none; stroke-dasharray: 3.7,1.6; stroke-dashoffset: 0; stroke: #000000; stroke-opacity: 0.5"/>
   </g>
   <g id="patch_24">
    <path d="M 433.738435 214.386667 
L 433.738435 139.893333 
" style="fill: none; stroke: #000000; stroke-width: 1.5; stroke-linejoin: miter; stroke-linecap: square"/>
   </g>
   <g id="patch_25">
    <path d="M 433.738435 214.386667 
L 519.093 214.386667 
" style="fill: none; stroke: #000000; stroke-width: 1.5; stroke-linejoin: miter; stroke-linecap: square"/>
   </g>
  </g>
  <g id="axes_9">
   <g id="patch_26">
    <path d="M 62.849739 307.96 
L 148.204304 307.96 
L 148.204304 233.466667 
L 62.849739 233.466667 
z
" style="fill: #ffffff"/>
   </g>
   <g id="matplotlib.axis_17">
    <g id="xtick_25">
     <g id="line2d_73">
      <g>
       <use xlink:href="#m12b14bee00" x="62.849739" y="307.96" style="stroke: #000000; stroke-width: 1.5"/>
      </g>
     </g>
     <g id="text_31">
      <text style="font: 9px 'Arial', sans-serif; text-anchor: middle" x="62.849739" y="321.798594" transform="rotate(-0 62.849739 321.798594)">0.0</text>
     </g>
    </g>
    <g id="xtick_26">
     <g id="line2d_74">
      <g>
       <use xlink:href="#m12b14bee00" x="105.527022" y="307.96" style="stroke: #000000; stroke-width: 1.5"/>
      </g>
     </g>
     <g id="text_32">
      <text style="font: 9px 'Arial', sans-serif; text-anchor: middle" x="105.527022" y="321.798594" transform="rotate(-0 105.527022 321.798594)">0.5</text>
     </g>
    </g>
    <g id="xtick_27">
     <g id="line2d_75">
      <g>
       <use xlink:href="#m12b14bee00" x="148.204304" y="307.96" style="stroke: #000000; stroke-width: 1.5"/>
      </g>
     </g>
     <g id="text_33">
      <text style="font: 9px 'Arial', sans-serif; text-anchor: middle" x="148.204304" y="321.798594" transform="rotate(-0 148.204304 321.798594)">1.0</text>
     </g>
    </g>
    <g id="text_34">
     <text style="font: 9px 'Arial', sans-serif; text-anchor: middle" x="105.527022" y="334.508906" transform="rotate(-0 105.527022 334.508906)">Credibility level</text>
    </g>
   </g>
   <g id="matplotlib.axis_18">
    <g id="ytick_25">
     <g id="line2d_76">
      <g>
       <use xlink:href="#m471aadff49" x="62.849739" y="307.96" style="stroke: #000000; stroke-width: 1.5"/>
      </g>
     </g>
     <g id="text_35">
      <text style="font: 9px 'Arial', sans-serif; text-anchor: end" x="55.849739" y="311.379297" transform="rotate(-0 55.849739 311.379297)">0.0</text>
     </g>
    </g>
    <g id="ytick_26">
     <g id="line2d_77">
      <g>
       <use xlink:href="#m471aadff49" x="62.849739" y="270.713333" style="stroke: #000000; stroke-width: 1.5"/>
      </g>
     </g>
     <g id="text_36">
      <text style="font: 9px 'Arial', sans-serif; text-anchor: end" x="55.849739" y="274.13263" transform="rotate(-0 55.849739 274.13263)">0.5</text>
     </g>
    </g>
    <g id="ytick_27">
     <g id="line2d_78">
      <g>
       <use xlink:href="#m471aadff49" x="62.849739" y="233.466667" style="stroke: #000000; stroke-width: 1.5"/>
      </g>
     </g>
     <g id="text_37">
      <text style="font: 9px 'Arial', sans-serif; text-anchor: end" x="55.849739" y="236.885964" transform="rotate(-0 55.849739 236.885964)">1.0</text>
     </g>
    </g>
    <g id="text_38">
     <text style="font: 9px 'Arial', sans-serif; text-anchor: middle" x="35.371651" y="270.713333" transform="rotate(-90 35.371651 270.713333)">100000</text>
    </g>
   </g>
   <g id="line2d_79">
    <path d="M 62.849739 307.96 
L 64.55683 306.707022 
L 66.229083 305.428717 
L 67.901336 303.875382 
L 69.573589 302.389091 
L 71.245841 300.828604 
L 72.918094 299.135222 
L 74.590347 297.5947 
L 76.262599 295.748159 
L 77.934852 294.152512 
L 79.607105 292.474028 
L 81.279357 291.105734 
L 82.95161 289.559551 
L 84.623863 287.952581 
L 86.296116 286.345014 
L 87.968368 285.11796 
L 89.640621 283.640608 
L 91.312874 282.138227 
L 92.985126 280.752353 
L 94.657379 279.360817 
L 96.329632 277.821487 
L 98.001885 276.502061 
L 99.674137 274.996998 
L 101.34639 273.561958 
L 103.018643 272.218099 
L 104.690895 270.673107 
L 106.363148 269.163872 
L 108.035401 267.958868 
L 109.707654 266.423113 
L 111.379906 264.989564 
L 113.052159 263.677289 
L 114.724412 262.308995 
L 116.396664 260.878723 
L 118.068917 259.672825 
L 119.74117 258.292315 
L 121.413422 256.957692 
L 123.085675 255.533976 
L 124.757928 254.022953 
L 126.430181 252.686841 
L 128.102433 251.207999 
L 129.774686 249.668669 
L 131.446939 248.309314 
L 133.119191 246.875467 
L 134.791444 245.337924 
L 136.463697 243.894541 
L 138.13595 242.553661 
L 139.808202 240.89693 
L 141.480455 239.407361 
L 143.152708 237.939842 
L 144.82496 236.362669 
L 146.497213 234.83794 
L 148.204304 233.466667 
" clip-path="url(#p2421db7757)" style="fill: none; stroke: #1f77b4; stroke-opacity: 0.5; stroke-width: 2; stroke-linecap: square"/>
   </g>
   <g id="line2d_80">
    <path d="M 62.849739 307.96 
L 64.55683 306.468643 
L 66.229083 304.998145 
L 67.901336 303.528839 
L 69.573589 302.009175 
L 71.245841 300.518712 
L 72.918094 299.212695 
L 74.590347 297.863472 
L 76.262599 296.295834 
L 77.934852 294.910854 
L 79.607105 293.434694 
L 81.279357 291.982074 
L 82.95161 290.395366 
L 84.623863 288.948705 
L 86.296116 287.525883 
L 87.968368 286.137625 
L 89.640621 284.555983 
L 91.312874 283.022314 
L 92.985126 281.784235 
L 94.657379 280.406406 
L 96.329632 279.12959 
L 98.001885 277.509807 
L 99.674137 276.044672 
L 101.34639 274.738059 
L 103.018643 273.606058 
L 104.690895 271.97823 
L 106.363148 270.48449 
L 108.035401 268.942776 
L 109.707654 267.366795 
L 111.379906 265.871863 
L 113.052159 264.462151 
L 114.724412 262.787243 
L 116.396664 261.438317 
L 118.068917 259.86621 
L 119.74117 258.098334 
L 121.413422 256.607276 
L 123.085675 255.143333 
L 124.757928 253.782191 
L 126.430181 252.264016 
L 128.102433 250.9726 
L 129.774686 249.523854 
L 131.446939 248.256573 
L 133.119191 246.576599 
L 134.791444 245.033098 
L 136.463697 243.712778 
L 138.13595 242.121302 
L 139.808202 240.872794 
L 141.480455 239.483642 
L 143.152708 238.053072 
L 144.82496 236.586149 
L 146.497213 235.127272 
L 148.204304 233.466667 
" clip-path="url(#p2421db7757)" style="fill: none; stroke: #ff7f0e; stroke-opacity: 0.5; stroke-width: 2; stroke-linecap: square"/>
   </g>
   <g id="line2d_81">
    <path d="M 62.849739 307.96 
L 148.204304 233.466667 
" clip-path="url(#p2421db7757)" style="fill: none; stroke-dasharray: 3.7,1.6; stroke-dashoffset: 0; stroke: #000000; stroke-opacity: 0.5"/>
   </g>
   <g id="patch_27">
    <path d="M 62.849739 307.96 
L 62.849739 233.466667 
" style="fill: none; stroke: #000000; stroke-width: 1.5; stroke-linejoin: miter; stroke-linecap: square"/>
   </g>
   <g id="patch_28">
    <path d="M 62.849739 307.96 
L 148.204304 307.96 
" style="fill: none; stroke: #000000; stroke-width: 1.5; stroke-linejoin: miter; stroke-linecap: square"/>
   </g>
  </g>
  <g id="axes_10">
   <g id="patch_29">
    <path d="M 186.479304 307.96 
L 271.83387 307.96 
L 271.83387 233.466667 
L 186.479304 233.466667 
z
" style="fill: #ffffff"/>
   </g>
   <g id="matplotlib.axis_19">
    <g id="xtick_28">
     <g id="line2d_82">
      <g>
       <use xlink:href="#m12b14bee00" x="186.479304" y="307.96" style="stroke: #000000; stroke-width: 1.5"/>
      </g>
     </g>
     <g id="text_39">
      <text style="font: 9px 'Arial', sans-serif; text-anchor: middle" x="186.479304" y="321.798594" transform="rotate(-0 186.479304 321.798594)">0.0</text>
     </g>
    </g>
    <g id="xtick_29">
     <g id="line2d_83">
      <g>
       <use xlink:href="#m12b14bee00" x="229.156587" y="307.96" style="stroke: #000000; stroke-width: 1.5"/>
      </g>
     </g>
     <g id="text_40">
      <text style="font: 9px 'Arial', sans-serif; text-anchor: middle" x="229.156587" y="321.798594" transform="rotate(-0 229.156587 321.798594)">0.5</text>
     </g>
    </g>
    <g id="xtick_30">
     <g id="line2d_84">
      <g>
       <use xlink:href="#m12b14bee00" x="271.83387" y="307.96" style="stroke: #000000; stroke-width: 1.5"/>
      </g>
     </g>
     <g id="text_41">
      <text style="font: 9px 'Arial', sans-serif; text-anchor: middle" x="271.83387" y="321.798594" transform="rotate(-0 271.83387 321.798594)">1.0</text>
     </g>
    </g>
    <g id="text_42">
     <text style="font: 9px 'Arial', sans-serif; text-anchor: middle" x="229.156587" y="334.508906" transform="rotate(-0 229.156587 334.508906)">Credibility level</text>
    </g>
   </g>
   <g id="matplotlib.axis_20">
    <g id="ytick_28">
     <g id="line2d_85">
      <g>
       <use xlink:href="#m471aadff49" x="186.479304" y="307.96" style="stroke: #000000; stroke-width: 1.5"/>
      </g>
     </g>
     <g id="text_43">
      <text style="font: 9px 'Arial', sans-serif; text-anchor: end" x="179.479304" y="311.379297" transform="rotate(-0 179.479304 311.379297)">0.0</text>
     </g>
    </g>
    <g id="ytick_29">
     <g id="line2d_86">
      <g>
       <use xlink:href="#m471aadff49" x="186.479304" y="270.713333" style="stroke: #000000; stroke-width: 1.5"/>
      </g>
     </g>
     <g id="text_44">
      <text style="font: 9px 'Arial', sans-serif; text-anchor: end" x="179.479304" y="274.13263" transform="rotate(-0 179.479304 274.13263)">0.5</text>
     </g>
    </g>
    <g id="ytick_30">
     <g id="line2d_87">
      <g>
       <use xlink:href="#m471aadff49" x="186.479304" y="233.466667" style="stroke: #000000; stroke-width: 1.5"/>
      </g>
     </g>
     <g id="text_45">
      <text style="font: 9px 'Arial', sans-serif; text-anchor: end" x="179.479304" y="236.885964" transform="rotate(-0 179.479304 236.885964)">1.0</text>
     </g>
    </g>
   </g>
   <g id="line2d_88">
    <path d="M 186.479304 307.96 
L 188.186396 306.597964 
L 189.858648 305.313401 
L 191.530901 303.85065 
L 193.203154 302.451963 
L 194.875406 300.861381 
L 196.547659 299.509774 
L 198.219912 297.947202 
L 199.892165 296.44631 
L 201.564417 295.056563 
L 203.23667 293.572358 
L 204.908923 292.062825 
L 206.581175 290.907582 
L 208.253428 289.388514 
L 209.925681 287.647754 
L 211.597934 286.254431 
L 213.270186 284.839355 
L 214.942439 283.530656 
L 216.614692 282.15253 
L 218.286944 280.420113 
L 219.959197 279.10903 
L 221.63145 277.87989 
L 223.303702 276.61112 
L 224.975955 275.182635 
L 226.648208 273.832518 
L 228.320461 272.381686 
L 229.992713 270.968994 
L 231.664966 269.407316 
L 233.337219 267.925197 
L 235.009471 266.397786 
L 236.681724 264.856369 
L 238.353977 263.501187 
L 240.02623 261.741058 
L 241.698482 260.190405 
L 243.370735 258.595652 
L 245.042988 256.968717 
L 246.71524 255.407039 
L 248.387493 253.828376 
L 250.059746 252.04143 
L 251.731998 250.561993 
L 253.404251 249.151089 
L 255.076504 247.745847 
L 256.748757 246.454728 
L 258.421009 244.906757 
L 260.093262 243.086736 
L 261.765515 241.605212 
L 263.437767 240.184773 
L 265.11002 238.912427 
L 266.782273 237.539366 
L 268.454526 236.136508 
L 270.126778 234.802779 
L 271.83387 233.466667 
" clip-path="url(#p15aee61fd1)" style="fill: none; stroke: #1f77b4; stroke-opacity: 0.5; stroke-width: 2; stroke-linecap: square"/>
   </g>
   <g id="line2d_89">
    <path d="M 186.479304 307.96 
L 188.186396 306.368524 
L 189.858648 305.02824 
L 191.530901 303.718648 
L 193.203154 302.205241 
L 194.875406 300.850654 
L 196.547659 299.560132 
L 198.219912 298.100956 
L 199.892165 296.639695 
L 201.564417 295.321461 
L 203.23667 294.145658 
L 204.908923 292.772299 
L 206.581175 291.327427 
L 208.253428 290.022303 
L 209.925681 288.628682 
L 211.597934 287.278267 
L 213.270186 285.989532 
L 214.942439 284.803598 
L 216.614692 283.551216 
L 218.286944 282.126308 
L 219.959197 280.669814 
L 221.63145 279.059864 
L 223.303702 277.6284 
L 224.975955 276.245804 
L 226.648208 274.752958 
L 228.320461 273.250278 
L 229.992713 271.962438 
L 231.664966 270.425491 
L 233.337219 268.693074 
L 235.009471 267.17788 
L 236.681724 265.567334 
L 238.353977 263.820614 
L 240.02623 262.040224 
L 241.698482 260.522645 
L 243.370735 259.248511 
L 245.042988 257.755963 
L 246.71524 256.395417 
L 248.387493 254.9717 
L 250.059746 253.527125 
L 251.731998 252.176114 
L 253.404251 250.645723 
L 255.076504 248.972603 
L 256.748757 247.370996 
L 258.421009 245.775647 
L 260.093262 244.392753 
L 261.765515 242.801575 
L 263.437767 241.167787 
L 265.11002 239.484834 
L 266.782273 238.001821 
L 268.454526 236.438653 
L 270.126778 234.956235 
L 271.83387 233.466667 
" clip-path="url(#p15aee61fd1)" style="fill: none; stroke: #ff7f0e; stroke-opacity: 0.5; stroke-width: 2; stroke-linecap: square"/>
   </g>
   <g id="line2d_90">
    <path d="M 186.479304 307.96 
L 271.83387 233.466667 
" clip-path="url(#p15aee61fd1)" style="fill: none; stroke-dasharray: 3.7,1.6; stroke-dashoffset: 0; stroke: #000000; stroke-opacity: 0.5"/>
   </g>
   <g id="patch_30">
    <path d="M 186.479304 307.96 
L 186.479304 233.466667 
" style="fill: none; stroke: #000000; stroke-width: 1.5; stroke-linejoin: miter; stroke-linecap: square"/>
   </g>
   <g id="patch_31">
    <path d="M 186.479304 307.96 
L 271.83387 307.96 
" style="fill: none; stroke: #000000; stroke-width: 1.5; stroke-linejoin: miter; stroke-linecap: square"/>
   </g>
  </g>
  <g id="axes_11">
   <g id="patch_32">
    <path d="M 310.10887 307.96 
L 395.463435 307.96 
L 395.463435 233.466667 
L 310.10887 233.466667 
z
" style="fill: #ffffff"/>
   </g>
   <g id="matplotlib.axis_21">
    <g id="xtick_31">
     <g id="line2d_91">
      <g>
       <use xlink:href="#m12b14bee00" x="310.10887" y="307.96" style="stroke: #000000; stroke-width: 1.5"/>
      </g>
     </g>
     <g id="text_46">
      <text style="font: 9px 'Arial', sans-serif; text-anchor: middle" x="310.10887" y="321.798594" transform="rotate(-0 310.10887 321.798594)">0.0</text>
     </g>
    </g>
    <g id="xtick_32">
     <g id="line2d_92">
      <g>
       <use xlink:href="#m12b14bee00" x="352.786152" y="307.96" style="stroke: #000000; stroke-width: 1.5"/>
      </g>
     </g>
     <g id="text_47">
      <text style="font: 9px 'Arial', sans-serif; text-anchor: middle" x="352.786152" y="321.798594" transform="rotate(-0 352.786152 321.798594)">0.5</text>
     </g>
    </g>
    <g id="xtick_33">
     <g id="line2d_93">
      <g>
       <use xlink:href="#m12b14bee00" x="395.463435" y="307.96" style="stroke: #000000; stroke-width: 1.5"/>
      </g>
     </g>
     <g id="text_48">
      <text style="font: 9px 'Arial', sans-serif; text-anchor: middle" x="395.463435" y="321.798594" transform="rotate(-0 395.463435 321.798594)">1.0</text>
     </g>
    </g>
    <g id="text_49">
     <text style="font: 9px 'Arial', sans-serif; text-anchor: middle" x="352.786152" y="334.508906" transform="rotate(-0 352.786152 334.508906)">Credibility level</text>
    </g>
   </g>
   <g id="matplotlib.axis_22">
    <g id="ytick_31">
     <g id="line2d_94">
      <g>
       <use xlink:href="#m471aadff49" x="310.10887" y="307.96" style="stroke: #000000; stroke-width: 1.5"/>
      </g>
     </g>
     <g id="text_50">
      <text style="font: 9px 'Arial', sans-serif; text-anchor: end" x="303.10887" y="311.379297" transform="rotate(-0 303.10887 311.379297)">0.0</text>
     </g>
    </g>
    <g id="ytick_32">
     <g id="line2d_95">
      <g>
       <use xlink:href="#m471aadff49" x="310.10887" y="270.713333" style="stroke: #000000; stroke-width: 1.5"/>
      </g>
     </g>
     <g id="text_51">
      <text style="font: 9px 'Arial', sans-serif; text-anchor: end" x="303.10887" y="274.13263" transform="rotate(-0 303.10887 274.13263)">0.5</text>
     </g>
    </g>
    <g id="ytick_33">
     <g id="line2d_96">
      <g>
       <use xlink:href="#m471aadff49" x="310.10887" y="233.466667" style="stroke: #000000; stroke-width: 1.5"/>
      </g>
     </g>
     <g id="text_52">
      <text style="font: 9px 'Arial', sans-serif; text-anchor: end" x="303.10887" y="236.885964" transform="rotate(-0 303.10887 236.885964)">1.0</text>
     </g>
    </g>
   </g>
   <g id="line2d_97">
    <path d="M 310.10887 307.96 
L 311.815961 306.289561 
L 313.488214 304.687955 
L 315.160466 303.294036 
L 316.832719 301.894157 
L 318.504972 300.323241 
L 320.177224 298.943625 
L 321.849477 297.83427 
L 323.52173 296.507097 
L 325.193983 294.958232 
L 326.866235 293.652512 
L 328.538488 292.286305 
L 330.210741 290.637916 
L 331.882993 289.180529 
L 333.555246 287.716288 
L 335.227499 286.042869 
L 336.899751 284.732383 
L 338.572004 283.228511 
L 340.244257 281.79228 
L 341.91651 280.504439 
L 343.588762 279.025597 
L 345.261015 277.488353 
L 346.933268 276.075661 
L 348.60552 274.663566 
L 350.277773 273.192769 
L 351.950026 271.777992 
L 353.622279 270.048853 
L 355.294531 268.542598 
L 356.966784 267.059882 
L 358.639037 265.651064 
L 360.311289 264.28873 
L 361.983542 262.961259 
L 363.655795 261.478842 
L 365.328047 260.169845 
L 367.0003 258.741659 
L 368.672553 257.224676 
L 370.344806 255.842378 
L 372.017058 254.252392 
L 373.689311 252.638271 
L 375.361564 251.085532 
L 377.033816 249.511637 
L 378.706069 247.932378 
L 380.378322 246.511045 
L 382.050575 245.071238 
L 383.722827 243.903481 
L 385.39508 242.447583 
L 387.067333 241.138288 
L 388.739585 239.624584 
L 390.411838 238.150807 
L 392.084091 236.462491 
L 393.756343 234.866247 
L 395.463435 233.466667 
" clip-path="url(#p362526b0d4)" style="fill: none; stroke: #1f77b4; stroke-opacity: 0.5; stroke-width: 2; stroke-linecap: square"/>
   </g>
   <g id="line2d_98">
    <path d="M 310.10887 307.96 
L 311.815961 306.467452 
L 313.488214 305.099456 
L 315.160466 303.775263 
L 316.832719 302.082178 
L 318.504972 300.603932 
L 320.177224 299.084566 
L 321.849477 297.623603 
L 323.52173 296.144165 
L 325.193983 294.893571 
L 326.866235 293.482966 
L 328.538488 292.103349 
L 330.210741 290.564913 
L 331.882993 288.929635 
L 333.555246 287.449304 
L 335.227499 285.842929 
L 336.899751 284.449606 
L 338.572004 283.211229 
L 340.244257 282.055092 
L 341.91651 280.569695 
L 343.588762 279.201998 
L 345.261015 277.877208 
L 346.933268 276.454981 
L 348.60552 275.094137 
L 350.277773 273.641815 
L 351.950026 271.864702 
L 353.622279 270.273823 
L 355.294531 269.073884 
L 356.966784 267.628117 
L 358.639037 265.970194 
L 360.311289 264.467514 
L 361.983542 263.088494 
L 363.655795 261.570916 
L 365.328047 260.304529 
L 367.0003 258.869787 
L 368.672553 257.16389 
L 370.344806 255.793809 
L 372.017058 254.112941 
L 373.689311 252.756566 
L 375.361564 250.955318 
L 377.033816 249.445487 
L 378.706069 247.768195 
L 380.378322 246.423441 
L 382.050575 245.220225 
L 383.722827 243.614447 
L 385.39508 242.350146 
L 387.067333 240.954439 
L 388.739585 239.593296 
L 390.411838 238.150212 
L 392.084091 236.631441 
L 393.756343 235.162731 
L 395.463435 233.466667 
" clip-path="url(#p362526b0d4)" style="fill: none; stroke: #ff7f0e; stroke-opacity: 0.5; stroke-width: 2; stroke-linecap: square"/>
   </g>
   <g id="line2d_99">
    <path d="M 310.10887 307.96 
L 395.463435 233.466667 
" clip-path="url(#p362526b0d4)" style="fill: none; stroke-dasharray: 3.7,1.6; stroke-dashoffset: 0; stroke: #000000; stroke-opacity: 0.5"/>
   </g>
   <g id="patch_33">
    <path d="M 310.10887 307.96 
L 310.10887 233.466667 
" style="fill: none; stroke: #000000; stroke-width: 1.5; stroke-linejoin: miter; stroke-linecap: square"/>
   </g>
   <g id="patch_34">
    <path d="M 310.10887 307.96 
L 395.463435 307.96 
" style="fill: none; stroke: #000000; stroke-width: 1.5; stroke-linejoin: miter; stroke-linecap: square"/>
   </g>
  </g>
  <g id="axes_12">
   <g id="patch_35">
    <path d="M 433.738435 307.96 
L 519.093 307.96 
L 519.093 233.466667 
L 433.738435 233.466667 
z
" style="fill: #ffffff"/>
   </g>
   <g id="matplotlib.axis_23">
    <g id="xtick_34">
     <g id="line2d_100">
      <g>
       <use xlink:href="#m12b14bee00" x="433.738435" y="307.96" style="stroke: #000000; stroke-width: 1.5"/>
      </g>
     </g>
     <g id="text_53">
      <text style="font: 9px 'Arial', sans-serif; text-anchor: middle" x="433.738435" y="321.798594" transform="rotate(-0 433.738435 321.798594)">0.0</text>
     </g>
    </g>
    <g id="xtick_35">
     <g id="line2d_101">
      <g>
       <use xlink:href="#m12b14bee00" x="476.415717" y="307.96" style="stroke: #000000; stroke-width: 1.5"/>
      </g>
     </g>
     <g id="text_54">
      <text style="font: 9px 'Arial', sans-serif; text-anchor: middle" x="476.415717" y="321.798594" transform="rotate(-0 476.415717 321.798594)">0.5</text>
     </g>
    </g>
    <g id="xtick_36">
     <g id="line2d_102">
      <g>
       <use xlink:href="#m12b14bee00" x="519.093" y="307.96" style="stroke: #000000; stroke-width: 1.5"/>
      </g>
     </g>
     <g id="text_55">
      <text style="font: 9px 'Arial', sans-serif; text-anchor: middle" x="519.093" y="321.798594" transform="rotate(-0 519.093 321.798594)">1.0</text>
     </g>
    </g>
    <g id="text_56">
     <text style="font: 9px 'Arial', sans-serif; text-anchor: middle" x="476.415717" y="334.508906" transform="rotate(-0 476.415717 334.508906)">Credibility level</text>
    </g>
   </g>
   <g id="matplotlib.axis_24">
    <g id="ytick_34">
     <g id="line2d_103">
      <g>
       <use xlink:href="#m471aadff49" x="433.738435" y="307.96" style="stroke: #000000; stroke-width: 1.5"/>
      </g>
     </g>
     <g id="text_57">
      <text style="font: 9px 'Arial', sans-serif; text-anchor: end" x="426.738435" y="311.379297" transform="rotate(-0 426.738435 311.379297)">0.0</text>
     </g>
    </g>
    <g id="ytick_35">
     <g id="line2d_104">
      <g>
       <use xlink:href="#m471aadff49" x="433.738435" y="270.713333" style="stroke: #000000; stroke-width: 1.5"/>
      </g>
     </g>
     <g id="text_58">
      <text style="font: 9px 'Arial', sans-serif; text-anchor: end" x="426.738435" y="274.13263" transform="rotate(-0 426.738435 274.13263)">0.5</text>
     </g>
    </g>
    <g id="ytick_36">
     <g id="line2d_105">
      <g>
       <use xlink:href="#m471aadff49" x="433.738435" y="233.466667" style="stroke: #000000; stroke-width: 1.5"/>
      </g>
     </g>
     <g id="text_59">
      <text style="font: 9px 'Arial', sans-serif; text-anchor: end" x="426.738435" y="236.885964" transform="rotate(-0 426.738435 236.885964)">1.0</text>
     </g>
    </g>
   </g>
   <g id="line2d_106">
    <path d="M 433.738435 307.96 
L 435.445526 306.480264 
L 437.117779 305.093497 
L 438.790031 303.658457 
L 440.462284 302.046719 
L 442.134537 300.578307 
L 443.80679 299.035997 
L 445.479042 297.651315 
L 447.151295 296.031532 
L 448.823548 294.650723 
L 450.4958 293.16175 
L 452.168053 291.765745 
L 453.840306 290.232077 
L 455.512559 288.625404 
L 457.184811 287.28363 
L 458.857064 285.660868 
L 460.529317 284.38584 
L 462.201569 283.02291 
L 463.873822 281.574759 
L 465.546075 280.118266 
L 467.218328 278.590258 
L 468.89058 277.160582 
L 470.562833 275.348607 
L 472.235086 273.919824 
L 473.907338 272.483891 
L 475.579591 270.827755 
L 477.251844 269.740748 
L 478.924096 268.361728 
L 480.596349 266.900467 
L 482.268602 265.553329 
L 483.940855 264.09475 
L 485.613107 262.311081 
L 487.28536 260.723181 
L 488.957613 258.952922 
L 490.629865 257.432364 
L 492.302118 256.142437 
L 493.974371 254.734215 
L 495.646624 253.504777 
L 497.318876 252.022658 
L 498.991129 250.434758 
L 500.663382 248.988098 
L 502.335634 247.41748 
L 504.007887 245.94132 
L 505.68014 244.615935 
L 507.352392 243.165699 
L 509.024645 241.787572 
L 510.696898 240.275953 
L 512.369151 239.156169 
L 514.041403 237.438353 
L 515.713656 236.21845 
L 517.385909 234.852839 
L 519.093 233.466667 
" clip-path="url(#pc516c0d1b6)" style="fill: none; stroke: #1f77b4; stroke-opacity: 0.5; stroke-width: 2; stroke-linecap: square"/>
   </g>
   <g id="line2d_107">
    <path d="M 433.738435 307.96 
L 435.445526 306.782111 
L 437.117779 305.735629 
L 438.790031 304.470136 
L 440.462284 303.205835 
L 442.134537 301.700474 
L 443.80679 300.124195 
L 445.479042 298.735044 
L 447.151295 297.283615 
L 448.823548 295.942735 
L 450.4958 294.546134 
L 452.168053 292.87212 
L 453.840306 291.5518 
L 455.512559 290.018132 
L 457.184811 288.329219 
L 458.857064 287.103059 
L 460.529317 285.442751 
L 462.201569 284.134946 
L 463.873822 282.659084 
L 465.546075 281.149849 
L 467.218328 279.916538 
L 468.89058 278.408197 
L 470.562833 276.791393 
L 472.235086 275.436509 
L 473.907338 273.758919 
L 475.579591 272.211245 
L 477.251844 270.832225 
L 478.924096 269.460057 
L 480.596349 267.783957 
L 482.268602 266.209168 
L 483.940855 264.662985 
L 485.613107 263.212153 
L 487.28536 261.777411 
L 488.957613 260.117104 
L 490.629865 258.63558 
L 492.302118 257.20501 
L 493.974371 255.415978 
L 495.646624 254.081058 
L 497.318876 252.850428 
L 498.991129 251.332254 
L 500.663382 249.885891 
L 502.335634 248.4732 
L 504.007887 246.873083 
L 505.68014 245.54442 
L 507.352392 244.013433 
L 509.024645 242.575711 
L 510.696898 240.964868 
L 512.369151 239.426133 
L 514.041403 237.874288 
L 515.713656 236.278939 
L 517.385909 234.711897 
L 519.093 233.466667 
" clip-path="url(#pc516c0d1b6)" style="fill: none; stroke: #ff7f0e; stroke-opacity: 0.5; stroke-width: 2; stroke-linecap: square"/>
   </g>
   <g id="line2d_108">
    <path d="M 433.738435 307.96 
L 519.093 233.466667 
" clip-path="url(#pc516c0d1b6)" style="fill: none; stroke-dasharray: 3.7,1.6; stroke-dashoffset: 0; stroke: #000000; stroke-opacity: 0.5"/>
   </g>
   <g id="patch_36">
    <path d="M 433.738435 307.96 
L 433.738435 233.466667 
" style="fill: none; stroke: #000000; stroke-width: 1.5; stroke-linejoin: miter; stroke-linecap: square"/>
   </g>
   <g id="patch_37">
    <path d="M 433.738435 307.96 
L 519.093 307.96 
" style="fill: none; stroke: #000000; stroke-width: 1.5; stroke-linejoin: miter; stroke-linecap: square"/>
   </g>
  </g>
  <g id="text_60">
   <text style="font: 9px 'Arial', sans-serif; text-anchor: middle" x="276.768" y="14.038594" transform="rotate(-0 276.768 14.038594)">Simformer (undirected): Expected Coverage</text>
  </g>
  <g id="text_61">
   <text style="font: 9px 'Arial', sans-serif" transform="translate(14.038594 236.476406) rotate(-90)">Number of simulations</text>
  </g>
  <g id="legend_1">
   <g id="line2d_109">
    <path d="M 200.949328 350.478281 
L 209.949328 350.478281 
L 218.949328 350.478281 
" style="fill: none; stroke: #1f77b4; stroke-opacity: 0.5; stroke-width: 2; stroke-linecap: square"/>
   </g>
   <g id="text_62">
    <text style="font: 9px 'Arial', sans-serif; text-anchor: start" x="226.149328" y="353.628281" transform="rotate(-0 226.149328 353.628281)">posterior</text>
   </g>
   <g id="line2d_110">
    <path d="M 284.531203 350.478281 
L 293.531203 350.478281 
L 302.531203 350.478281 
" style="fill: none; stroke: #ff7f0e; stroke-opacity: 0.5; stroke-width: 2; stroke-linecap: square"/>
   </g>
   <g id="text_63">
    <text style="font: 9px 'Arial', sans-serif; text-anchor: start" x="309.731203" y="353.628281" transform="rotate(-0 309.731203 353.628281)">likelihood</text>
   </g>
  </g>
 </g>
 <defs>
  <clipPath id="p6e6c1f0068">
   <rect x="62.849739" y="46.32" width="85.354565" height="74.493333"/>
  </clipPath>
  <clipPath id="pf449dcfa94">
   <rect x="186.479304" y="46.32" width="85.354565" height="74.493333"/>
  </clipPath>
  <clipPath id="p6564def37f">
   <rect x="310.10887" y="46.32" width="85.354565" height="74.493333"/>
  </clipPath>
  <clipPath id="p8d3110a786">
   <rect x="433.738435" y="46.32" width="85.354565" height="74.493333"/>
  </clipPath>
  <clipPath id="p5ad8307205">
   <rect x="62.849739" y="139.893333" width="85.354565" height="74.493333"/>
  </clipPath>
  <clipPath id="p1096b215ed">
   <rect x="186.479304" y="139.893333" width="85.354565" height="74.493333"/>
  </clipPath>
  <clipPath id="pa46595107e">
   <rect x="310.10887" y="139.893333" width="85.354565" height="74.493333"/>
  </clipPath>
  <clipPath id="p8ca8c3bbcc">
   <rect x="433.738435" y="139.893333" width="85.354565" height="74.493333"/>
  </clipPath>
  <clipPath id="p2421db7757">
   <rect x="62.849739" y="233.466667" width="85.354565" height="74.493333"/>
  </clipPath>
  <clipPath id="p15aee61fd1">
   <rect x="186.479304" y="233.466667" width="85.354565" height="74.493333"/>
  </clipPath>
  <clipPath id="p362526b0d4">
   <rect x="310.10887" y="233.466667" width="85.354565" height="74.493333"/>
  </clipPath>
  <clipPath id="pc516c0d1b6">
   <rect x="433.738435" y="233.466667" width="85.354565" height="74.493333"/>
  </clipPath>
 </defs>
</svg>
