<?xml version="1.0" encoding="utf-8" standalone="no"?>
<!DOCTYPE svg PUBLIC "-//W3C//DTD SVG 1.1//EN"
  "http://www.w3.org/Graphics/SVG/1.1/DTD/svg11.dtd">
<svg xmlns:xlink="http://www.w3.org/1999/xlink" width="219.719531pt" height="112.080625pt" viewBox="0 0 219.719531 112.080625" xmlns="http://www.w3.org/2000/svg" version="1.1">
 <metadata>
  <rdf:RDF xmlns:dc="http://purl.org/dc/elements/1.1/" xmlns:cc="http://creativecommons.org/ns#" xmlns:rdf="http://www.w3.org/1999/02/22-rdf-syntax-ns#">
   <cc:Work>
    <dc:type rdf:resource="http://purl.org/dc/dcmitype/StillImage"/>
    <dc:date>2024-05-12T16:49:59.347879</dc:date>
    <dc:format>image/svg+xml</dc:format>
    <dc:creator>
     <cc:Agent>
      <dc:title>Matplotlib v3.8.4, https://matplotlib.org/</dc:title>
     </cc:Agent>
    </dc:creator>
   </cc:Work>
  </rdf:RDF>
 </metadata>
 <defs>
  <style type="text/css">*{stroke-linejoin: round; stroke-linecap: butt}</style>
 </defs>
 <g id="figure_1">
  <g id="patch_1">
   <path d="M 0 112.080625 
L 219.719531 112.080625 
L 219.719531 0 
L 0 0 
z
" style="fill: #ffffff"/>
  </g>
  <g id="axes_1">
   <g id="patch_2">
    <path d="M 10.063125 71.46 
L 45.572216 71.46 
L 45.572216 28.8 
L 10.063125 28.8 
z
" style="fill: #ffffff"/>
   </g>
   <g id="matplotlib.axis_1">
    <g id="xtick_1">
     <g id="line2d_1">
      <defs>
       <path id="m6f313df215" d="M 0 0 
L 0 3.5 
" style="stroke: #000000; stroke-width: 1.5"/>
      </defs>
      <g>
       <use xlink:href="#m6f313df215" x="10.063125" y="76.46" style="stroke: #000000; stroke-width: 1.5"/>
      </g>
     </g>
     <g id="text_1">
      <text style="font: 9px 'Arial', sans-serif; text-anchor: middle" x="10.063125" y="90.298594" transform="rotate(-0 10.063125 90.298594)">1</text>
     </g>
    </g>
    <g id="xtick_2">
     <g id="line2d_2">
      <g>
       <use xlink:href="#m6f313df215" x="45.572216" y="76.46" style="stroke: #000000; stroke-width: 1.5"/>
      </g>
     </g>
     <g id="text_2">
      <text style="font: 9px 'Arial', sans-serif; text-anchor: middle" x="45.572216" y="90.298594" transform="rotate(-0 45.572216 90.298594)">2</text>
     </g>
    </g>
    <g id="text_3">
     <!-- $C_m$ -->
     <g transform="translate(21.42767 103.008906)">
      <text>
       <tspan style="font: 9px 'DejaVu Sans'" x="0" y="-0.3125">C</tspan>
       <tspan style="font: 6.3px 'DejaVu Sans'" x="6.370312" y="1.1640625">m</tspan>
      </text>
     </g>
    </g>
   </g>
   <g id="matplotlib.axis_2">
    <g id="ytick_1"/>
    <g id="ytick_2"/>
   </g>
   <g id="patch_3">
    <path d="M 9.452856 71.46 
L 9.452856 71.19788 
L 9.589066 71.19788 
L 9.589066 70.739171 
L 9.725273 70.739171 
L 9.725273 70.8047 
L 9.861483 70.8047 
L 9.861483 70.542581 
L 9.997693 70.542581 
L 9.997693 69.952811 
L 10.133901 69.952811 
L 10.133901 70.345991 
L 10.270111 70.345991 
L 10.270111 69.428571 
L 10.406321 69.428571 
L 10.406321 68.969862 
L 10.542531 68.969862 
L 10.542531 68.314562 
L 10.678736 68.314562 
L 10.678736 67.593733 
L 10.814946 67.593733 
L 10.814946 67.069493 
L 10.951156 67.069493 
L 10.951156 64.055115 
L 11.087366 64.055115 
L 11.087366 63.334286 
L 11.223576 63.334286 
L 11.223576 58.485069 
L 11.359782 58.485069 
L 11.359782 56.97788 
L 11.495992 56.97788 
L 11.495992 54.356682 
L 11.632202 54.356682 
L 11.632202 48.458986 
L 11.768411 48.458986 
L 11.768411 46.689677 
L 11.904621 46.689677 
L 11.904621 43.871889 
L 12.040831 43.871889 
L 12.040831 39.809032 
L 12.177037 39.809032 
L 12.177037 37.122304 
L 12.313247 37.122304 
L 12.313247 32.928387 
L 12.449457 32.928387 
L 12.449457 30.831429 
L 12.585667 30.831429 
L 12.585667 35.811705 
L 12.721877 35.811705 
L 12.721877 39.219263 
L 12.858082 39.219263 
L 12.858082 42.82341 
L 12.994292 42.82341 
L 12.994292 45.248018 
L 13.130502 45.248018 
L 13.130502 49.114286 
L 13.266712 49.114286 
L 13.266712 53.373733 
L 13.402922 53.373733 
L 13.402922 54.684332 
L 13.539132 54.684332 
L 13.539132 57.50212 
L 13.675337 57.50212 
L 13.675337 59.664608 
L 13.811547 59.664608 
L 13.811547 58.550599 
L 13.947757 58.550599 
L 13.947757 58.812719 
L 14.083967 58.812719 
L 14.083967 59.009309 
L 14.220177 59.009309 
L 14.220177 57.56765 
L 14.356387 57.56765 
L 14.356387 57.8953 
L 14.492593 57.8953 
L 14.492593 57.69871 
L 14.628803 57.69871 
L 14.628803 57.82977 
L 14.765012 57.82977 
L 14.765012 58.681659 
L 14.901222 58.681659 
L 14.901222 58.550599 
L 15.037432 58.550599 
L 15.037432 61.958157 
L 15.173638 61.958157 
L 15.173638 63.596406 
L 15.309848 63.596406 
L 15.309848 66.479724 
L 15.446058 66.479724 
L 15.446058 67.921382 
L 15.582268 67.921382 
L 15.582268 69.690691 
L 15.718478 69.690691 
L 15.718478 70.477051 
L 15.854688 70.477051 
L 15.854688 71.13235 
L 15.990893 71.13235 
L 15.990893 71.32894 
L 16.127103 71.32894 
L 16.127103 71.19788 
L 16.263313 71.19788 
L 16.263313 71.46 
" clip-path="url(#pd652ad00b0)" style="fill: none; stroke: #000080; stroke-linejoin: miter"/>
   </g>
   <g id="patch_4">
    <path d="M 9.452856 71.46 
L 9.452856 71.19788 
L 9.589066 71.19788 
L 9.589066 70.739171 
L 9.725273 70.739171 
L 9.725273 70.8047 
L 9.861483 70.8047 
L 9.861483 70.542581 
L 9.997693 70.542581 
L 9.997693 69.952811 
L 10.133901 69.952811 
L 10.133901 70.345991 
L 10.270111 70.345991 
L 10.270111 69.428571 
L 10.406321 69.428571 
L 10.406321 68.969862 
L 10.542531 68.969862 
L 10.542531 68.314562 
L 10.678736 68.314562 
L 10.678736 67.593733 
L 10.814946 67.593733 
L 10.814946 67.069493 
L 10.951156 67.069493 
L 10.951156 64.055115 
L 11.087366 64.055115 
L 11.087366 63.334286 
L 11.223576 63.334286 
L 11.223576 58.485069 
L 11.359782 58.485069 
L 11.359782 56.97788 
L 11.495992 56.97788 
L 11.495992 54.356682 
L 11.632202 54.356682 
L 11.632202 48.458986 
L 11.768411 48.458986 
L 11.768411 46.689677 
L 11.904621 46.689677 
L 11.904621 43.871889 
L 12.040831 43.871889 
L 12.040831 39.809032 
L 12.177037 39.809032 
L 12.177037 37.122304 
L 12.313247 37.122304 
L 12.313247 32.928387 
L 12.449457 32.928387 
L 12.449457 30.831429 
L 12.585667 30.831429 
L 12.585667 35.811705 
L 12.721877 35.811705 
L 12.721877 39.219263 
L 12.858082 39.219263 
L 12.858082 42.82341 
L 12.994292 42.82341 
L 12.994292 45.248018 
L 13.130502 45.248018 
L 13.130502 49.114286 
L 13.266712 49.114286 
L 13.266712 53.373733 
L 13.402922 53.373733 
L 13.402922 54.684332 
L 13.539132 54.684332 
L 13.539132 57.50212 
L 13.675337 57.50212 
L 13.675337 59.664608 
L 13.811547 59.664608 
L 13.811547 58.550599 
L 13.947757 58.550599 
L 13.947757 58.812719 
L 14.083967 58.812719 
L 14.083967 59.009309 
L 14.220177 59.009309 
L 14.220177 57.56765 
L 14.356387 57.56765 
L 14.356387 57.8953 
L 14.492593 57.8953 
L 14.492593 57.69871 
L 14.628803 57.69871 
L 14.628803 57.82977 
L 14.765012 57.82977 
L 14.765012 58.681659 
L 14.901222 58.681659 
L 14.901222 58.550599 
L 15.037432 58.550599 
L 15.037432 61.958157 
L 15.173638 61.958157 
L 15.173638 63.596406 
L 15.309848 63.596406 
L 15.309848 66.479724 
L 15.446058 66.479724 
L 15.446058 67.921382 
L 15.582268 67.921382 
L 15.582268 69.690691 
L 15.718478 69.690691 
L 15.718478 70.477051 
L 15.854688 70.477051 
L 15.854688 71.13235 
L 15.990893 71.13235 
L 15.990893 71.32894 
L 16.127103 71.32894 
L 16.127103 71.19788 
L 16.263313 71.19788 
L 16.263313 71.46 
" clip-path="url(#pd652ad00b0)" style="fill: none; stroke: #000080; stroke-linejoin: miter"/>
   </g>
   <g id="patch_5">
    <path d="M 9.452856 71.46 
L 9.452856 71.19788 
L 9.589066 71.19788 
L 9.589066 70.739171 
L 9.725273 70.739171 
L 9.725273 70.8047 
L 9.861483 70.8047 
L 9.861483 70.542581 
L 9.997693 70.542581 
L 9.997693 69.952811 
L 10.133901 69.952811 
L 10.133901 70.345991 
L 10.270111 70.345991 
L 10.270111 69.428571 
L 10.406321 69.428571 
L 10.406321 68.969862 
L 10.542531 68.969862 
L 10.542531 68.314562 
L 10.678736 68.314562 
L 10.678736 67.593733 
L 10.814946 67.593733 
L 10.814946 67.069493 
L 10.951156 67.069493 
L 10.951156 64.055115 
L 11.087366 64.055115 
L 11.087366 63.334286 
L 11.223576 63.334286 
L 11.223576 58.485069 
L 11.359782 58.485069 
L 11.359782 56.97788 
L 11.495992 56.97788 
L 11.495992 54.356682 
L 11.632202 54.356682 
L 11.632202 48.458986 
L 11.768411 48.458986 
L 11.768411 46.689677 
L 11.904621 46.689677 
L 11.904621 43.871889 
L 12.040831 43.871889 
L 12.040831 39.809032 
L 12.177037 39.809032 
L 12.177037 37.122304 
L 12.313247 37.122304 
L 12.313247 32.928387 
L 12.449457 32.928387 
L 12.449457 30.831429 
L 12.585667 30.831429 
L 12.585667 35.811705 
L 12.721877 35.811705 
L 12.721877 39.219263 
L 12.858082 39.219263 
L 12.858082 42.82341 
L 12.994292 42.82341 
L 12.994292 45.248018 
L 13.130502 45.248018 
L 13.130502 49.114286 
L 13.266712 49.114286 
L 13.266712 53.373733 
L 13.402922 53.373733 
L 13.402922 54.684332 
L 13.539132 54.684332 
L 13.539132 57.50212 
L 13.675337 57.50212 
L 13.675337 59.664608 
L 13.811547 59.664608 
L 13.811547 58.550599 
L 13.947757 58.550599 
L 13.947757 58.812719 
L 14.083967 58.812719 
L 14.083967 59.009309 
L 14.220177 59.009309 
L 14.220177 57.56765 
L 14.356387 57.56765 
L 14.356387 57.8953 
L 14.492593 57.8953 
L 14.492593 57.69871 
L 14.628803 57.69871 
L 14.628803 57.82977 
L 14.765012 57.82977 
L 14.765012 58.681659 
L 14.901222 58.681659 
L 14.901222 58.550599 
L 15.037432 58.550599 
L 15.037432 61.958157 
L 15.173638 61.958157 
L 15.173638 63.596406 
L 15.309848 63.596406 
L 15.309848 66.479724 
L 15.446058 66.479724 
L 15.446058 67.921382 
L 15.582268 67.921382 
L 15.582268 69.690691 
L 15.718478 69.690691 
L 15.718478 70.477051 
L 15.854688 70.477051 
L 15.854688 71.13235 
L 15.990893 71.13235 
L 15.990893 71.32894 
L 16.127103 71.32894 
L 16.127103 71.19788 
L 16.263313 71.19788 
L 16.263313 71.46 
" clip-path="url(#pd652ad00b0)" style="fill: none; stroke: #000080; stroke-linejoin: miter"/>
   </g>
   <g id="patch_6">
    <path d="M 9.452856 71.46 
L 9.452856 71.19788 
L 9.589066 71.19788 
L 9.589066 70.739171 
L 9.725273 70.739171 
L 9.725273 70.8047 
L 9.861483 70.8047 
L 9.861483 70.542581 
L 9.997693 70.542581 
L 9.997693 69.952811 
L 10.133901 69.952811 
L 10.133901 70.345991 
L 10.270111 70.345991 
L 10.270111 69.428571 
L 10.406321 69.428571 
L 10.406321 68.969862 
L 10.542531 68.969862 
L 10.542531 68.314562 
L 10.678736 68.314562 
L 10.678736 67.593733 
L 10.814946 67.593733 
L 10.814946 67.069493 
L 10.951156 67.069493 
L 10.951156 64.055115 
L 11.087366 64.055115 
L 11.087366 63.334286 
L 11.223576 63.334286 
L 11.223576 58.485069 
L 11.359782 58.485069 
L 11.359782 56.97788 
L 11.495992 56.97788 
L 11.495992 54.356682 
L 11.632202 54.356682 
L 11.632202 48.458986 
L 11.768411 48.458986 
L 11.768411 46.689677 
L 11.904621 46.689677 
L 11.904621 43.871889 
L 12.040831 43.871889 
L 12.040831 39.809032 
L 12.177037 39.809032 
L 12.177037 37.122304 
L 12.313247 37.122304 
L 12.313247 32.928387 
L 12.449457 32.928387 
L 12.449457 30.831429 
L 12.585667 30.831429 
L 12.585667 35.811705 
L 12.721877 35.811705 
L 12.721877 39.219263 
L 12.858082 39.219263 
L 12.858082 42.82341 
L 12.994292 42.82341 
L 12.994292 45.248018 
L 13.130502 45.248018 
L 13.130502 49.114286 
L 13.266712 49.114286 
L 13.266712 53.373733 
L 13.402922 53.373733 
L 13.402922 54.684332 
L 13.539132 54.684332 
L 13.539132 57.50212 
L 13.675337 57.50212 
L 13.675337 59.664608 
L 13.811547 59.664608 
L 13.811547 58.550599 
L 13.947757 58.550599 
L 13.947757 58.812719 
L 14.083967 58.812719 
L 14.083967 59.009309 
L 14.220177 59.009309 
L 14.220177 57.56765 
L 14.356387 57.56765 
L 14.356387 57.8953 
L 14.492593 57.8953 
L 14.492593 57.69871 
L 14.628803 57.69871 
L 14.628803 57.82977 
L 14.765012 57.82977 
L 14.765012 58.681659 
L 14.901222 58.681659 
L 14.901222 58.550599 
L 15.037432 58.550599 
L 15.037432 61.958157 
L 15.173638 61.958157 
L 15.173638 63.596406 
L 15.309848 63.596406 
L 15.309848 66.479724 
L 15.446058 66.479724 
L 15.446058 67.921382 
L 15.582268 67.921382 
L 15.582268 69.690691 
L 15.718478 69.690691 
L 15.718478 70.477051 
L 15.854688 70.477051 
L 15.854688 71.13235 
L 15.990893 71.13235 
L 15.990893 71.32894 
L 16.127103 71.32894 
L 16.127103 71.19788 
L 16.263313 71.19788 
L 16.263313 71.46 
" clip-path="url(#pd652ad00b0)" style="fill: none; stroke: #000080; stroke-linejoin: miter"/>
   </g>
   <g id="patch_7">
    <path d="M 10.063125 76.46 
L 45.572216 76.46 
" style="fill: none; stroke: #000000; stroke-width: 1.5; stroke-linejoin: miter; stroke-linecap: square"/>
   </g>
  </g>
  <g id="axes_2">
   <g id="patch_8">
    <path d="M 63.326761 71.46 
L 98.835852 71.46 
L 98.835852 28.8 
L 63.326761 28.8 
z
" style="fill: #ffffff"/>
   </g>
   <g id="matplotlib.axis_3">
    <g id="xtick_3">
     <g id="line2d_3">
      <g>
       <use xlink:href="#m6f313df215" x="63.326761" y="76.46" style="stroke: #000000; stroke-width: 1.5"/>
      </g>
     </g>
     <g id="text_4">
      <text style="font: 9px 'Arial', sans-serif; text-anchor: middle" x="63.326761" y="90.298594" transform="rotate(-0 63.326761 90.298594)">60</text>
     </g>
    </g>
    <g id="xtick_4">
     <g id="line2d_4">
      <g>
       <use xlink:href="#m6f313df215" x="98.835852" y="76.46" style="stroke: #000000; stroke-width: 1.5"/>
      </g>
     </g>
     <g id="text_5">
      <text style="font: 9px 'Arial', sans-serif; text-anchor: middle" x="98.835852" y="90.298594" transform="rotate(-0 98.835852 90.298594)">120</text>
     </g>
    </g>
    <g id="text_6">
     <!-- $g_{Na}$ -->
     <g transform="translate(73.746307 102.990625)">
      <text>
       <tspan style="font: 9px 'DejaVu Sans'" x="0" y="-0.953125">g</tspan>
       <tspan style="font: 6.3px 'DejaVu Sans'" x="5.799023 10.511719" y="0.5234375">Na</tspan>
      </text>
     </g>
    </g>
   </g>
   <g id="matplotlib.axis_4">
    <g id="ytick_3"/>
    <g id="ytick_4"/>
   </g>
   <g id="patch_9">
    <path d="M 63.163934 71.46 
L 63.163934 69.420877 
L 63.739077 69.420877 
L 63.739077 68.959188 
L 64.314218 68.959188 
L 64.314218 69.382403 
L 64.889362 69.382403 
L 64.889362 69.305455 
L 65.464505 69.305455 
L 65.464505 69.536299 
L 66.039647 69.536299 
L 66.039647 69.728669 
L 66.61479 69.728669 
L 66.61479 67.766494 
L 67.189934 67.766494 
L 67.189934 67.997338 
L 67.765077 67.997338 
L 67.765077 67.651071 
L 68.340216 67.651071 
L 68.340216 66.073636 
L 68.91536 66.073636 
L 68.91536 64.95789 
L 69.490503 64.95789 
L 69.490503 60.879643 
L 70.065647 60.879643 
L 70.065647 59.494578 
L 70.64079 59.494578 
L 70.64079 53.646526 
L 71.215929 53.646526 
L 71.215929 49.222013 
L 71.791073 49.222013 
L 71.791073 44.682078 
L 72.366216 44.682078 
L 72.366216 36.833377 
L 72.94136 36.833377 
L 72.94136 32.524286 
L 73.516503 32.524286 
L 73.516503 30.831429 
L 74.091647 30.831429 
L 74.091647 35.33289 
L 74.666786 35.33289 
L 74.666786 41.604156 
L 75.241929 41.604156 
L 75.241929 50.068442 
L 75.817073 50.068442 
L 75.817073 54.108214 
L 76.392216 54.108214 
L 76.392216 59.302208 
L 76.96736 59.302208 
L 76.96736 60.995065 
L 77.542499 60.995065 
L 77.542499 64.765519 
L 78.117642 64.765519 
L 78.117642 66.573799 
L 78.692785 66.573799 
L 78.692785 69.113084 
L 79.267929 69.113084 
L 79.267929 70.305779 
L 79.843072 70.305779 
L 79.843072 70.767468 
L 80.418216 70.767468 
L 80.418216 71.07526 
L 80.993355 71.07526 
L 80.993355 70.959838 
L 81.568498 70.959838 
L 81.568498 71.229156 
L 82.143642 71.229156 
L 82.143642 71.26763 
L 82.718785 71.26763 
L 82.718785 71.152208 
L 83.293929 71.152208 
L 83.293929 71.190682 
L 83.869072 71.190682 
L 83.869072 71.26763 
L 84.444211 71.26763 
L 84.444211 71.421526 
L 85.019355 71.421526 
L 85.019355 71.306104 
L 85.594498 71.306104 
L 85.594498 71.383052 
L 86.169642 71.383052 
L 86.169642 71.383052 
L 86.744785 71.383052 
L 86.744785 71.383052 
L 87.319924 71.383052 
L 87.319924 71.383052 
L 87.895068 71.383052 
L 87.895068 71.421526 
L 88.470211 71.421526 
L 88.470211 71.421526 
L 89.045355 71.421526 
L 89.045355 71.46 
L 89.620498 71.46 
L 89.620498 71.46 
L 90.195642 71.46 
L 90.195642 71.421526 
L 90.770781 71.421526 
L 90.770781 71.46 
L 91.345924 71.46 
L 91.345924 71.383052 
L 91.921068 71.383052 
L 91.921068 71.46 
" clip-path="url(#pe55a99228e)" style="fill: none; stroke: #000080; stroke-linejoin: miter"/>
   </g>
   <g id="patch_10">
    <path d="M 63.163934 71.46 
L 63.163934 69.420877 
L 63.739077 69.420877 
L 63.739077 68.959188 
L 64.314218 68.959188 
L 64.314218 69.382403 
L 64.889362 69.382403 
L 64.889362 69.305455 
L 65.464505 69.305455 
L 65.464505 69.536299 
L 66.039647 69.536299 
L 66.039647 69.728669 
L 66.61479 69.728669 
L 66.61479 67.766494 
L 67.189934 67.766494 
L 67.189934 67.997338 
L 67.765077 67.997338 
L 67.765077 67.651071 
L 68.340216 67.651071 
L 68.340216 66.073636 
L 68.91536 66.073636 
L 68.91536 64.95789 
L 69.490503 64.95789 
L 69.490503 60.879643 
L 70.065647 60.879643 
L 70.065647 59.494578 
L 70.64079 59.494578 
L 70.64079 53.646526 
L 71.215929 53.646526 
L 71.215929 49.222013 
L 71.791073 49.222013 
L 71.791073 44.682078 
L 72.366216 44.682078 
L 72.366216 36.833377 
L 72.94136 36.833377 
L 72.94136 32.524286 
L 73.516503 32.524286 
L 73.516503 30.831429 
L 74.091647 30.831429 
L 74.091647 35.33289 
L 74.666786 35.33289 
L 74.666786 41.604156 
L 75.241929 41.604156 
L 75.241929 50.068442 
L 75.817073 50.068442 
L 75.817073 54.108214 
L 76.392216 54.108214 
L 76.392216 59.302208 
L 76.96736 59.302208 
L 76.96736 60.995065 
L 77.542499 60.995065 
L 77.542499 64.765519 
L 78.117642 64.765519 
L 78.117642 66.573799 
L 78.692785 66.573799 
L 78.692785 69.113084 
L 79.267929 69.113084 
L 79.267929 70.305779 
L 79.843072 70.305779 
L 79.843072 70.767468 
L 80.418216 70.767468 
L 80.418216 71.07526 
L 80.993355 71.07526 
L 80.993355 70.959838 
L 81.568498 70.959838 
L 81.568498 71.229156 
L 82.143642 71.229156 
L 82.143642 71.26763 
L 82.718785 71.26763 
L 82.718785 71.152208 
L 83.293929 71.152208 
L 83.293929 71.190682 
L 83.869072 71.190682 
L 83.869072 71.26763 
L 84.444211 71.26763 
L 84.444211 71.421526 
L 85.019355 71.421526 
L 85.019355 71.306104 
L 85.594498 71.306104 
L 85.594498 71.383052 
L 86.169642 71.383052 
L 86.169642 71.383052 
L 86.744785 71.383052 
L 86.744785 71.383052 
L 87.319924 71.383052 
L 87.319924 71.383052 
L 87.895068 71.383052 
L 87.895068 71.421526 
L 88.470211 71.421526 
L 88.470211 71.421526 
L 89.045355 71.421526 
L 89.045355 71.46 
L 89.620498 71.46 
L 89.620498 71.46 
L 90.195642 71.46 
L 90.195642 71.421526 
L 90.770781 71.421526 
L 90.770781 71.46 
L 91.345924 71.46 
L 91.345924 71.383052 
L 91.921068 71.383052 
L 91.921068 71.46 
" clip-path="url(#pe55a99228e)" style="fill: none; stroke: #000080; stroke-linejoin: miter"/>
   </g>
   <g id="patch_11">
    <path d="M 63.163934 71.46 
L 63.163934 69.420877 
L 63.739077 69.420877 
L 63.739077 68.959188 
L 64.314218 68.959188 
L 64.314218 69.382403 
L 64.889362 69.382403 
L 64.889362 69.305455 
L 65.464505 69.305455 
L 65.464505 69.536299 
L 66.039647 69.536299 
L 66.039647 69.728669 
L 66.61479 69.728669 
L 66.61479 67.766494 
L 67.189934 67.766494 
L 67.189934 67.997338 
L 67.765077 67.997338 
L 67.765077 67.651071 
L 68.340216 67.651071 
L 68.340216 66.073636 
L 68.91536 66.073636 
L 68.91536 64.95789 
L 69.490503 64.95789 
L 69.490503 60.879643 
L 70.065647 60.879643 
L 70.065647 59.494578 
L 70.64079 59.494578 
L 70.64079 53.646526 
L 71.215929 53.646526 
L 71.215929 49.222013 
L 71.791073 49.222013 
L 71.791073 44.682078 
L 72.366216 44.682078 
L 72.366216 36.833377 
L 72.94136 36.833377 
L 72.94136 32.524286 
L 73.516503 32.524286 
L 73.516503 30.831429 
L 74.091647 30.831429 
L 74.091647 35.33289 
L 74.666786 35.33289 
L 74.666786 41.604156 
L 75.241929 41.604156 
L 75.241929 50.068442 
L 75.817073 50.068442 
L 75.817073 54.108214 
L 76.392216 54.108214 
L 76.392216 59.302208 
L 76.96736 59.302208 
L 76.96736 60.995065 
L 77.542499 60.995065 
L 77.542499 64.765519 
L 78.117642 64.765519 
L 78.117642 66.573799 
L 78.692785 66.573799 
L 78.692785 69.113084 
L 79.267929 69.113084 
L 79.267929 70.305779 
L 79.843072 70.305779 
L 79.843072 70.767468 
L 80.418216 70.767468 
L 80.418216 71.07526 
L 80.993355 71.07526 
L 80.993355 70.959838 
L 81.568498 70.959838 
L 81.568498 71.229156 
L 82.143642 71.229156 
L 82.143642 71.26763 
L 82.718785 71.26763 
L 82.718785 71.152208 
L 83.293929 71.152208 
L 83.293929 71.190682 
L 83.869072 71.190682 
L 83.869072 71.26763 
L 84.444211 71.26763 
L 84.444211 71.421526 
L 85.019355 71.421526 
L 85.019355 71.306104 
L 85.594498 71.306104 
L 85.594498 71.383052 
L 86.169642 71.383052 
L 86.169642 71.383052 
L 86.744785 71.383052 
L 86.744785 71.383052 
L 87.319924 71.383052 
L 87.319924 71.383052 
L 87.895068 71.383052 
L 87.895068 71.421526 
L 88.470211 71.421526 
L 88.470211 71.421526 
L 89.045355 71.421526 
L 89.045355 71.46 
L 89.620498 71.46 
L 89.620498 71.46 
L 90.195642 71.46 
L 90.195642 71.421526 
L 90.770781 71.421526 
L 90.770781 71.46 
L 91.345924 71.46 
L 91.345924 71.383052 
L 91.921068 71.383052 
L 91.921068 71.46 
" clip-path="url(#pe55a99228e)" style="fill: none; stroke: #000080; stroke-linejoin: miter"/>
   </g>
   <g id="patch_12">
    <path d="M 63.163934 71.46 
L 63.163934 69.420877 
L 63.739077 69.420877 
L 63.739077 68.959188 
L 64.314218 68.959188 
L 64.314218 69.382403 
L 64.889362 69.382403 
L 64.889362 69.305455 
L 65.464505 69.305455 
L 65.464505 69.536299 
L 66.039647 69.536299 
L 66.039647 69.728669 
L 66.61479 69.728669 
L 66.61479 67.766494 
L 67.189934 67.766494 
L 67.189934 67.997338 
L 67.765077 67.997338 
L 67.765077 67.651071 
L 68.340216 67.651071 
L 68.340216 66.073636 
L 68.91536 66.073636 
L 68.91536 64.95789 
L 69.490503 64.95789 
L 69.490503 60.879643 
L 70.065647 60.879643 
L 70.065647 59.494578 
L 70.64079 59.494578 
L 70.64079 53.646526 
L 71.215929 53.646526 
L 71.215929 49.222013 
L 71.791073 49.222013 
L 71.791073 44.682078 
L 72.366216 44.682078 
L 72.366216 36.833377 
L 72.94136 36.833377 
L 72.94136 32.524286 
L 73.516503 32.524286 
L 73.516503 30.831429 
L 74.091647 30.831429 
L 74.091647 35.33289 
L 74.666786 35.33289 
L 74.666786 41.604156 
L 75.241929 41.604156 
L 75.241929 50.068442 
L 75.817073 50.068442 
L 75.817073 54.108214 
L 76.392216 54.108214 
L 76.392216 59.302208 
L 76.96736 59.302208 
L 76.96736 60.995065 
L 77.542499 60.995065 
L 77.542499 64.765519 
L 78.117642 64.765519 
L 78.117642 66.573799 
L 78.692785 66.573799 
L 78.692785 69.113084 
L 79.267929 69.113084 
L 79.267929 70.305779 
L 79.843072 70.305779 
L 79.843072 70.767468 
L 80.418216 70.767468 
L 80.418216 71.07526 
L 80.993355 71.07526 
L 80.993355 70.959838 
L 81.568498 70.959838 
L 81.568498 71.229156 
L 82.143642 71.229156 
L 82.143642 71.26763 
L 82.718785 71.26763 
L 82.718785 71.152208 
L 83.293929 71.152208 
L 83.293929 71.190682 
L 83.869072 71.190682 
L 83.869072 71.26763 
L 84.444211 71.26763 
L 84.444211 71.421526 
L 85.019355 71.421526 
L 85.019355 71.306104 
L 85.594498 71.306104 
L 85.594498 71.383052 
L 86.169642 71.383052 
L 86.169642 71.383052 
L 86.744785 71.383052 
L 86.744785 71.383052 
L 87.319924 71.383052 
L 87.319924 71.383052 
L 87.895068 71.383052 
L 87.895068 71.421526 
L 88.470211 71.421526 
L 88.470211 71.421526 
L 89.045355 71.421526 
L 89.045355 71.46 
L 89.620498 71.46 
L 89.620498 71.46 
L 90.195642 71.46 
L 90.195642 71.421526 
L 90.770781 71.421526 
L 90.770781 71.46 
L 91.345924 71.46 
L 91.345924 71.383052 
L 91.921068 71.383052 
L 91.921068 71.46 
" clip-path="url(#pe55a99228e)" style="fill: none; stroke: #000080; stroke-linejoin: miter"/>
   </g>
   <g id="patch_13">
    <path d="M 63.326761 76.46 
L 98.835852 76.46 
" style="fill: none; stroke: #000000; stroke-width: 1.5; stroke-linejoin: miter; stroke-linecap: square"/>
   </g>
  </g>
  <g id="axes_3">
   <g id="patch_14">
    <path d="M 116.590398 71.46 
L 152.099489 71.46 
L 152.099489 28.8 
L 116.590398 28.8 
z
" style="fill: #ffffff"/>
   </g>
   <g id="matplotlib.axis_5">
    <g id="xtick_5">
     <g id="line2d_5">
      <g>
       <use xlink:href="#m6f313df215" x="116.590398" y="76.46" style="stroke: #000000; stroke-width: 1.5"/>
      </g>
     </g>
     <g id="text_7">
      <text style="font: 9px 'Arial', sans-serif; text-anchor: middle" x="116.590398" y="90.298594" transform="rotate(-0 116.590398 90.298594)">10</text>
     </g>
    </g>
    <g id="xtick_6">
     <g id="line2d_6">
      <g>
       <use xlink:href="#m6f313df215" x="152.099489" y="76.46" style="stroke: #000000; stroke-width: 1.5"/>
      </g>
     </g>
     <g id="text_8">
      <text style="font: 9px 'Arial', sans-serif; text-anchor: middle" x="152.099489" y="90.298594" transform="rotate(-0 152.099489 90.298594)">30</text>
     </g>
    </g>
    <g id="text_9">
     <!-- $g_K$ -->
     <g transform="translate(129.214943 102.990625)">
      <text>
       <tspan style="font: 9px 'DejaVu Sans'" x="0" y="-0.953125">g</tspan>
       <tspan style="font: 6.3px 'DejaVu Sans'" x="5.799023" y="0.5234375">K</tspan>
      </text>
     </g>
    </g>
   </g>
   <g id="matplotlib.axis_6">
    <g id="ytick_5"/>
    <g id="ytick_6"/>
   </g>
   <g id="patch_15">
    <path d="M 118.836355 71.46 
L 118.836355 71.06474 
L 119.300016 71.06474 
L 119.300016 69.462897 
L 119.763676 69.462897 
L 119.763676 69.08844 
L 120.227337 69.08844 
L 120.227337 69.08844 
L 120.690997 69.08844 
L 120.690997 68.360329 
L 121.15466 68.360329 
L 121.15466 67.632219 
L 121.61832 67.632219 
L 121.61832 66.71688 
L 122.081981 66.71688 
L 122.081981 65.489493 
L 122.545642 65.489493 
L 122.545642 64.574154 
L 123.009302 64.574154 
L 123.009302 63.82524 
L 123.472963 63.82524 
L 123.472963 62.972311 
L 123.936623 62.972311 
L 123.936623 62.909901 
L 124.400284 62.909901 
L 124.400284 63.783634 
L 124.863945 63.783634 
L 124.863945 70.461448 
L 125.327605 70.461448 
L 125.327605 71.251968 
L 125.791266 71.251968 
L 125.791266 71.376787 
L 126.254928 71.376787 
L 126.254928 71.335181 
L 126.718589 71.335181 
L 126.718589 71.335181 
L 127.182249 71.335181 
L 127.182249 71.293575 
L 127.645908 71.293575 
L 127.645908 71.293575 
L 128.109572 71.293575 
L 128.109572 71.335181 
L 128.573233 71.335181 
L 128.573233 71.272772 
L 129.036893 71.272772 
L 129.036893 71.293575 
L 129.500554 71.293575 
L 129.500554 71.168756 
L 129.964214 71.168756 
L 129.964214 71.023134 
L 130.427875 71.023134 
L 130.427875 70.648677 
L 130.891536 70.648677 
L 130.891536 69.525306 
L 131.355196 69.525306 
L 131.355196 67.777841 
L 131.818857 67.777841 
L 131.818857 65.031824 
L 132.282517 65.031824 
L 132.282517 60.871192 
L 132.746178 60.871192 
L 132.746178 55.337551 
L 133.209839 55.337551 
L 133.209839 48.763752 
L 133.673499 48.763752 
L 133.673499 40.400882 
L 134.13716 40.400882 
L 134.13716 30.831429 
L 134.60082 30.831429 
L 134.60082 65.510296 
L 135.064481 65.510296 
L 135.064481 71.231165 
L 135.528142 71.231165 
L 135.528142 71.376787 
L 135.991802 71.376787 
L 135.991802 71.397591 
L 136.455463 71.397591 
L 136.455463 71.293575 
L 136.919123 71.293575 
L 136.919123 71.355984 
L 137.382784 71.355984 
L 137.382784 71.397591 
L 137.846448 71.397591 
L 137.846448 71.335181 
L 138.310109 71.335181 
L 138.310109 71.418394 
L 138.773769 71.418394 
L 138.773769 71.439197 
L 139.23743 71.439197 
L 139.23743 71.418394 
L 139.70109 71.418394 
L 139.70109 71.418394 
L 140.164751 71.418394 
L 140.164751 71.418394 
L 140.628411 71.418394 
L 140.628411 71.46 
L 141.092072 71.46 
L 141.092072 71.46 
L 141.555733 71.46 
L 141.555733 71.439197 
L 142.019393 71.439197 
L 142.019393 71.46 
" clip-path="url(#p59424da949)" style="fill: none; stroke: #000080; stroke-linejoin: miter"/>
   </g>
   <g id="patch_16">
    <path d="M 118.836355 71.46 
L 118.836355 71.06474 
L 119.300016 71.06474 
L 119.300016 69.462897 
L 119.763676 69.462897 
L 119.763676 69.08844 
L 120.227337 69.08844 
L 120.227337 69.08844 
L 120.690997 69.08844 
L 120.690997 68.360329 
L 121.15466 68.360329 
L 121.15466 67.632219 
L 121.61832 67.632219 
L 121.61832 66.71688 
L 122.081981 66.71688 
L 122.081981 65.489493 
L 122.545642 65.489493 
L 122.545642 64.574154 
L 123.009302 64.574154 
L 123.009302 63.82524 
L 123.472963 63.82524 
L 123.472963 62.972311 
L 123.936623 62.972311 
L 123.936623 62.909901 
L 124.400284 62.909901 
L 124.400284 63.783634 
L 124.863945 63.783634 
L 124.863945 70.461448 
L 125.327605 70.461448 
L 125.327605 71.251968 
L 125.791266 71.251968 
L 125.791266 71.376787 
L 126.254928 71.376787 
L 126.254928 71.335181 
L 126.718589 71.335181 
L 126.718589 71.335181 
L 127.182249 71.335181 
L 127.182249 71.293575 
L 127.645908 71.293575 
L 127.645908 71.293575 
L 128.109572 71.293575 
L 128.109572 71.335181 
L 128.573233 71.335181 
L 128.573233 71.272772 
L 129.036893 71.272772 
L 129.036893 71.293575 
L 129.500554 71.293575 
L 129.500554 71.168756 
L 129.964214 71.168756 
L 129.964214 71.023134 
L 130.427875 71.023134 
L 130.427875 70.648677 
L 130.891536 70.648677 
L 130.891536 69.525306 
L 131.355196 69.525306 
L 131.355196 67.777841 
L 131.818857 67.777841 
L 131.818857 65.031824 
L 132.282517 65.031824 
L 132.282517 60.871192 
L 132.746178 60.871192 
L 132.746178 55.337551 
L 133.209839 55.337551 
L 133.209839 48.763752 
L 133.673499 48.763752 
L 133.673499 40.400882 
L 134.13716 40.400882 
L 134.13716 30.831429 
L 134.60082 30.831429 
L 134.60082 65.510296 
L 135.064481 65.510296 
L 135.064481 71.231165 
L 135.528142 71.231165 
L 135.528142 71.376787 
L 135.991802 71.376787 
L 135.991802 71.397591 
L 136.455463 71.397591 
L 136.455463 71.293575 
L 136.919123 71.293575 
L 136.919123 71.355984 
L 137.382784 71.355984 
L 137.382784 71.397591 
L 137.846448 71.397591 
L 137.846448 71.335181 
L 138.310109 71.335181 
L 138.310109 71.418394 
L 138.773769 71.418394 
L 138.773769 71.439197 
L 139.23743 71.439197 
L 139.23743 71.418394 
L 139.70109 71.418394 
L 139.70109 71.418394 
L 140.164751 71.418394 
L 140.164751 71.418394 
L 140.628411 71.418394 
L 140.628411 71.46 
L 141.092072 71.46 
L 141.092072 71.46 
L 141.555733 71.46 
L 141.555733 71.439197 
L 142.019393 71.439197 
L 142.019393 71.46 
" clip-path="url(#p59424da949)" style="fill: none; stroke: #000080; stroke-linejoin: miter"/>
   </g>
   <g id="patch_17">
    <path d="M 118.836355 71.46 
L 118.836355 71.06474 
L 119.300016 71.06474 
L 119.300016 69.462897 
L 119.763676 69.462897 
L 119.763676 69.08844 
L 120.227337 69.08844 
L 120.227337 69.08844 
L 120.690997 69.08844 
L 120.690997 68.360329 
L 121.15466 68.360329 
L 121.15466 67.632219 
L 121.61832 67.632219 
L 121.61832 66.71688 
L 122.081981 66.71688 
L 122.081981 65.489493 
L 122.545642 65.489493 
L 122.545642 64.574154 
L 123.009302 64.574154 
L 123.009302 63.82524 
L 123.472963 63.82524 
L 123.472963 62.972311 
L 123.936623 62.972311 
L 123.936623 62.909901 
L 124.400284 62.909901 
L 124.400284 63.783634 
L 124.863945 63.783634 
L 124.863945 70.461448 
L 125.327605 70.461448 
L 125.327605 71.251968 
L 125.791266 71.251968 
L 125.791266 71.376787 
L 126.254928 71.376787 
L 126.254928 71.335181 
L 126.718589 71.335181 
L 126.718589 71.335181 
L 127.182249 71.335181 
L 127.182249 71.293575 
L 127.645908 71.293575 
L 127.645908 71.293575 
L 128.109572 71.293575 
L 128.109572 71.335181 
L 128.573233 71.335181 
L 128.573233 71.272772 
L 129.036893 71.272772 
L 129.036893 71.293575 
L 129.500554 71.293575 
L 129.500554 71.168756 
L 129.964214 71.168756 
L 129.964214 71.023134 
L 130.427875 71.023134 
L 130.427875 70.648677 
L 130.891536 70.648677 
L 130.891536 69.525306 
L 131.355196 69.525306 
L 131.355196 67.777841 
L 131.818857 67.777841 
L 131.818857 65.031824 
L 132.282517 65.031824 
L 132.282517 60.871192 
L 132.746178 60.871192 
L 132.746178 55.337551 
L 133.209839 55.337551 
L 133.209839 48.763752 
L 133.673499 48.763752 
L 133.673499 40.400882 
L 134.13716 40.400882 
L 134.13716 30.831429 
L 134.60082 30.831429 
L 134.60082 65.510296 
L 135.064481 65.510296 
L 135.064481 71.231165 
L 135.528142 71.231165 
L 135.528142 71.376787 
L 135.991802 71.376787 
L 135.991802 71.397591 
L 136.455463 71.397591 
L 136.455463 71.293575 
L 136.919123 71.293575 
L 136.919123 71.355984 
L 137.382784 71.355984 
L 137.382784 71.397591 
L 137.846448 71.397591 
L 137.846448 71.335181 
L 138.310109 71.335181 
L 138.310109 71.418394 
L 138.773769 71.418394 
L 138.773769 71.439197 
L 139.23743 71.439197 
L 139.23743 71.418394 
L 139.70109 71.418394 
L 139.70109 71.418394 
L 140.164751 71.418394 
L 140.164751 71.418394 
L 140.628411 71.418394 
L 140.628411 71.46 
L 141.092072 71.46 
L 141.092072 71.46 
L 141.555733 71.46 
L 141.555733 71.439197 
L 142.019393 71.439197 
L 142.019393 71.46 
" clip-path="url(#p59424da949)" style="fill: none; stroke: #000080; stroke-linejoin: miter"/>
   </g>
   <g id="patch_18">
    <path d="M 118.836355 71.46 
L 118.836355 71.06474 
L 119.300016 71.06474 
L 119.300016 69.462897 
L 119.763676 69.462897 
L 119.763676 69.08844 
L 120.227337 69.08844 
L 120.227337 69.08844 
L 120.690997 69.08844 
L 120.690997 68.360329 
L 121.15466 68.360329 
L 121.15466 67.632219 
L 121.61832 67.632219 
L 121.61832 66.71688 
L 122.081981 66.71688 
L 122.081981 65.489493 
L 122.545642 65.489493 
L 122.545642 64.574154 
L 123.009302 64.574154 
L 123.009302 63.82524 
L 123.472963 63.82524 
L 123.472963 62.972311 
L 123.936623 62.972311 
L 123.936623 62.909901 
L 124.400284 62.909901 
L 124.400284 63.783634 
L 124.863945 63.783634 
L 124.863945 70.461448 
L 125.327605 70.461448 
L 125.327605 71.251968 
L 125.791266 71.251968 
L 125.791266 71.376787 
L 126.254928 71.376787 
L 126.254928 71.335181 
L 126.718589 71.335181 
L 126.718589 71.335181 
L 127.182249 71.335181 
L 127.182249 71.293575 
L 127.645908 71.293575 
L 127.645908 71.293575 
L 128.109572 71.293575 
L 128.109572 71.335181 
L 128.573233 71.335181 
L 128.573233 71.272772 
L 129.036893 71.272772 
L 129.036893 71.293575 
L 129.500554 71.293575 
L 129.500554 71.168756 
L 129.964214 71.168756 
L 129.964214 71.023134 
L 130.427875 71.023134 
L 130.427875 70.648677 
L 130.891536 70.648677 
L 130.891536 69.525306 
L 131.355196 69.525306 
L 131.355196 67.777841 
L 131.818857 67.777841 
L 131.818857 65.031824 
L 132.282517 65.031824 
L 132.282517 60.871192 
L 132.746178 60.871192 
L 132.746178 55.337551 
L 133.209839 55.337551 
L 133.209839 48.763752 
L 133.673499 48.763752 
L 133.673499 40.400882 
L 134.13716 40.400882 
L 134.13716 30.831429 
L 134.60082 30.831429 
L 134.60082 65.510296 
L 135.064481 65.510296 
L 135.064481 71.231165 
L 135.528142 71.231165 
L 135.528142 71.376787 
L 135.991802 71.376787 
L 135.991802 71.397591 
L 136.455463 71.397591 
L 136.455463 71.293575 
L 136.919123 71.293575 
L 136.919123 71.355984 
L 137.382784 71.355984 
L 137.382784 71.397591 
L 137.846448 71.397591 
L 137.846448 71.335181 
L 138.310109 71.335181 
L 138.310109 71.418394 
L 138.773769 71.418394 
L 138.773769 71.439197 
L 139.23743 71.439197 
L 139.23743 71.418394 
L 139.70109 71.418394 
L 139.70109 71.418394 
L 140.164751 71.418394 
L 140.164751 71.418394 
L 140.628411 71.418394 
L 140.628411 71.46 
L 141.092072 71.46 
L 141.092072 71.46 
L 141.555733 71.46 
L 141.555733 71.439197 
L 142.019393 71.439197 
L 142.019393 71.46 
" clip-path="url(#p59424da949)" style="fill: none; stroke: #000080; stroke-linejoin: miter"/>
   </g>
   <g id="patch_19">
    <path d="M 116.590398 76.46 
L 152.099489 76.46 
" style="fill: none; stroke: #000000; stroke-width: 1.5; stroke-linejoin: miter; stroke-linecap: square"/>
   </g>
  </g>
  <g id="axes_4">
   <g id="patch_20">
    <path d="M 169.854034 71.46 
L 205.363125 71.46 
L 205.363125 28.8 
L 169.854034 28.8 
z
" style="fill: #ffffff"/>
   </g>
   <g id="matplotlib.axis_7">
    <g id="xtick_7">
     <g id="line2d_7">
      <g>
       <use xlink:href="#m6f313df215" x="169.854034" y="76.46" style="stroke: #000000; stroke-width: 1.5"/>
      </g>
     </g>
     <g id="text_10">
      <text style="font: 9px 'Arial', sans-serif; text-anchor: middle" x="169.854034" y="90.298594" transform="rotate(-0 169.854034 90.298594)">0.1</text>
     </g>
    </g>
    <g id="xtick_8">
     <g id="line2d_8">
      <g>
       <use xlink:href="#m6f313df215" x="205.363125" y="76.46" style="stroke: #000000; stroke-width: 1.5"/>
      </g>
     </g>
     <g id="text_11">
      <text style="font: 9px 'Arial', sans-serif; text-anchor: middle" x="205.363125" y="90.298594" transform="rotate(-0 205.363125 90.298594)">0.5</text>
     </g>
    </g>
    <g id="text_12">
     <!-- $g_L$ -->
     <g transform="translate(182.79358 102.990625)">
      <text>
       <tspan style="font: 9px 'DejaVu Sans'" x="0" y="-0.953125">g</tspan>
       <tspan style="font: 6.3px 'DejaVu Sans'" x="5.799023" y="0.5234375">L</tspan>
      </text>
     </g>
    </g>
   </g>
   <g id="matplotlib.axis_8">
    <g id="ytick_7"/>
    <g id="ytick_8"/>
   </g>
   <g id="patch_21">
    <path d="M 189.321628 71.46 
L 189.321628 71.346354 
L 189.473448 71.346354 
L 189.473448 71.28953 
L 189.625265 71.28953 
L 189.625265 71.175884 
L 189.777085 71.175884 
L 189.777085 70.891768 
L 189.928904 70.891768 
L 189.928904 70.38036 
L 190.080724 70.38036 
L 190.080724 69.755305 
L 190.232541 69.755305 
L 190.232541 68.505195 
L 190.384361 68.505195 
L 190.384361 66.175445 
L 190.53618 66.175445 
L 190.53618 65.664036 
L 190.687997 65.664036 
L 190.687997 60.436304 
L 190.839817 60.436304 
L 190.839817 56.742797 
L 190.991637 56.742797 
L 190.991637 51.571888 
L 191.143456 51.571888 
L 191.143456 48.048851 
L 191.295273 48.048851 
L 191.295273 45.434985 
L 191.447093 45.434985 
L 191.447093 36.797862 
L 191.598913 36.797862 
L 191.598913 35.036344 
L 191.750732 35.036344 
L 191.750732 34.468112 
L 191.902549 34.468112 
L 191.902549 30.831429 
L 192.054369 30.831429 
L 192.054369 33.558941 
L 192.206189 33.558941 
L 192.206189 31.57013 
L 192.358006 31.57013 
L 192.358006 35.718222 
L 192.509826 35.718222 
L 192.509826 38.218442 
L 192.661645 38.218442 
L 192.661645 41.173247 
L 192.813465 41.173247 
L 192.813465 43.105235 
L 192.965282 43.105235 
L 192.965282 49.81037 
L 193.117102 49.81037 
L 193.117102 52.935644 
L 193.268921 52.935644 
L 193.268921 58.504316 
L 193.420738 58.504316 
L 193.420738 61.175005 
L 193.572558 61.175005 
L 193.572558 61.856883 
L 193.724378 61.856883 
L 193.724378 64.698042 
L 193.876197 64.698042 
L 193.876197 65.37992 
L 194.028014 65.37992 
L 194.028014 68.334725 
L 194.179834 68.334725 
L 194.179834 68.505195 
L 194.331654 68.505195 
L 194.331654 68.846134 
L 194.483471 68.846134 
L 194.483471 69.812128 
L 194.63529 69.812128 
L 194.63529 70.38036 
L 194.78711 70.38036 
L 194.78711 70.437183 
L 194.93893 70.437183 
L 194.93893 70.664476 
L 195.090747 70.664476 
L 195.090747 70.948591 
L 195.242566 70.948591 
L 195.242566 71.062238 
L 195.394386 71.062238 
L 195.394386 71.46 
L 195.546206 71.46 
L 195.546206 71.175884 
L 195.698023 71.175884 
L 195.698023 71.232707 
L 195.849843 71.232707 
L 195.849843 71.346354 
L 196.001662 71.346354 
L 196.001662 71.346354 
L 196.153479 71.346354 
L 196.153479 71.346354 
L 196.305299 71.346354 
L 196.305299 71.46 
L 196.457119 71.46 
L 196.457119 71.403177 
L 196.608938 71.403177 
L 196.608938 71.403177 
L 196.760755 71.403177 
L 196.760755 71.346354 
L 196.912575 71.346354 
L 196.912575 71.46 
" clip-path="url(#p25bd402122)" style="fill: none; stroke: #000080; stroke-linejoin: miter"/>
   </g>
   <g id="patch_22">
    <path d="M 189.321628 71.46 
L 189.321628 71.346354 
L 189.473448 71.346354 
L 189.473448 71.28953 
L 189.625265 71.28953 
L 189.625265 71.175884 
L 189.777085 71.175884 
L 189.777085 70.891768 
L 189.928904 70.891768 
L 189.928904 70.38036 
L 190.080724 70.38036 
L 190.080724 69.755305 
L 190.232541 69.755305 
L 190.232541 68.505195 
L 190.384361 68.505195 
L 190.384361 66.175445 
L 190.53618 66.175445 
L 190.53618 65.664036 
L 190.687997 65.664036 
L 190.687997 60.436304 
L 190.839817 60.436304 
L 190.839817 56.742797 
L 190.991637 56.742797 
L 190.991637 51.571888 
L 191.143456 51.571888 
L 191.143456 48.048851 
L 191.295273 48.048851 
L 191.295273 45.434985 
L 191.447093 45.434985 
L 191.447093 36.797862 
L 191.598913 36.797862 
L 191.598913 35.036344 
L 191.750732 35.036344 
L 191.750732 34.468112 
L 191.902549 34.468112 
L 191.902549 30.831429 
L 192.054369 30.831429 
L 192.054369 33.558941 
L 192.206189 33.558941 
L 192.206189 31.57013 
L 192.358006 31.57013 
L 192.358006 35.718222 
L 192.509826 35.718222 
L 192.509826 38.218442 
L 192.661645 38.218442 
L 192.661645 41.173247 
L 192.813465 41.173247 
L 192.813465 43.105235 
L 192.965282 43.105235 
L 192.965282 49.81037 
L 193.117102 49.81037 
L 193.117102 52.935644 
L 193.268921 52.935644 
L 193.268921 58.504316 
L 193.420738 58.504316 
L 193.420738 61.175005 
L 193.572558 61.175005 
L 193.572558 61.856883 
L 193.724378 61.856883 
L 193.724378 64.698042 
L 193.876197 64.698042 
L 193.876197 65.37992 
L 194.028014 65.37992 
L 194.028014 68.334725 
L 194.179834 68.334725 
L 194.179834 68.505195 
L 194.331654 68.505195 
L 194.331654 68.846134 
L 194.483471 68.846134 
L 194.483471 69.812128 
L 194.63529 69.812128 
L 194.63529 70.38036 
L 194.78711 70.38036 
L 194.78711 70.437183 
L 194.93893 70.437183 
L 194.93893 70.664476 
L 195.090747 70.664476 
L 195.090747 70.948591 
L 195.242566 70.948591 
L 195.242566 71.062238 
L 195.394386 71.062238 
L 195.394386 71.46 
L 195.546206 71.46 
L 195.546206 71.175884 
L 195.698023 71.175884 
L 195.698023 71.232707 
L 195.849843 71.232707 
L 195.849843 71.346354 
L 196.001662 71.346354 
L 196.001662 71.346354 
L 196.153479 71.346354 
L 196.153479 71.346354 
L 196.305299 71.346354 
L 196.305299 71.46 
L 196.457119 71.46 
L 196.457119 71.403177 
L 196.608938 71.403177 
L 196.608938 71.403177 
L 196.760755 71.403177 
L 196.760755 71.346354 
L 196.912575 71.346354 
L 196.912575 71.46 
" clip-path="url(#p25bd402122)" style="fill: none; stroke: #000080; stroke-linejoin: miter"/>
   </g>
   <g id="patch_23">
    <path d="M 189.321628 71.46 
L 189.321628 71.346354 
L 189.473448 71.346354 
L 189.473448 71.28953 
L 189.625265 71.28953 
L 189.625265 71.175884 
L 189.777085 71.175884 
L 189.777085 70.891768 
L 189.928904 70.891768 
L 189.928904 70.38036 
L 190.080724 70.38036 
L 190.080724 69.755305 
L 190.232541 69.755305 
L 190.232541 68.505195 
L 190.384361 68.505195 
L 190.384361 66.175445 
L 190.53618 66.175445 
L 190.53618 65.664036 
L 190.687997 65.664036 
L 190.687997 60.436304 
L 190.839817 60.436304 
L 190.839817 56.742797 
L 190.991637 56.742797 
L 190.991637 51.571888 
L 191.143456 51.571888 
L 191.143456 48.048851 
L 191.295273 48.048851 
L 191.295273 45.434985 
L 191.447093 45.434985 
L 191.447093 36.797862 
L 191.598913 36.797862 
L 191.598913 35.036344 
L 191.750732 35.036344 
L 191.750732 34.468112 
L 191.902549 34.468112 
L 191.902549 30.831429 
L 192.054369 30.831429 
L 192.054369 33.558941 
L 192.206189 33.558941 
L 192.206189 31.57013 
L 192.358006 31.57013 
L 192.358006 35.718222 
L 192.509826 35.718222 
L 192.509826 38.218442 
L 192.661645 38.218442 
L 192.661645 41.173247 
L 192.813465 41.173247 
L 192.813465 43.105235 
L 192.965282 43.105235 
L 192.965282 49.81037 
L 193.117102 49.81037 
L 193.117102 52.935644 
L 193.268921 52.935644 
L 193.268921 58.504316 
L 193.420738 58.504316 
L 193.420738 61.175005 
L 193.572558 61.175005 
L 193.572558 61.856883 
L 193.724378 61.856883 
L 193.724378 64.698042 
L 193.876197 64.698042 
L 193.876197 65.37992 
L 194.028014 65.37992 
L 194.028014 68.334725 
L 194.179834 68.334725 
L 194.179834 68.505195 
L 194.331654 68.505195 
L 194.331654 68.846134 
L 194.483471 68.846134 
L 194.483471 69.812128 
L 194.63529 69.812128 
L 194.63529 70.38036 
L 194.78711 70.38036 
L 194.78711 70.437183 
L 194.93893 70.437183 
L 194.93893 70.664476 
L 195.090747 70.664476 
L 195.090747 70.948591 
L 195.242566 70.948591 
L 195.242566 71.062238 
L 195.394386 71.062238 
L 195.394386 71.46 
L 195.546206 71.46 
L 195.546206 71.175884 
L 195.698023 71.175884 
L 195.698023 71.232707 
L 195.849843 71.232707 
L 195.849843 71.346354 
L 196.001662 71.346354 
L 196.001662 71.346354 
L 196.153479 71.346354 
L 196.153479 71.346354 
L 196.305299 71.346354 
L 196.305299 71.46 
L 196.457119 71.46 
L 196.457119 71.403177 
L 196.608938 71.403177 
L 196.608938 71.403177 
L 196.760755 71.403177 
L 196.760755 71.346354 
L 196.912575 71.346354 
L 196.912575 71.46 
" clip-path="url(#p25bd402122)" style="fill: none; stroke: #000080; stroke-linejoin: miter"/>
   </g>
   <g id="patch_24">
    <path d="M 189.321628 71.46 
L 189.321628 71.346354 
L 189.473448 71.346354 
L 189.473448 71.28953 
L 189.625265 71.28953 
L 189.625265 71.175884 
L 189.777085 71.175884 
L 189.777085 70.891768 
L 189.928904 70.891768 
L 189.928904 70.38036 
L 190.080724 70.38036 
L 190.080724 69.755305 
L 190.232541 69.755305 
L 190.232541 68.505195 
L 190.384361 68.505195 
L 190.384361 66.175445 
L 190.53618 66.175445 
L 190.53618 65.664036 
L 190.687997 65.664036 
L 190.687997 60.436304 
L 190.839817 60.436304 
L 190.839817 56.742797 
L 190.991637 56.742797 
L 190.991637 51.571888 
L 191.143456 51.571888 
L 191.143456 48.048851 
L 191.295273 48.048851 
L 191.295273 45.434985 
L 191.447093 45.434985 
L 191.447093 36.797862 
L 191.598913 36.797862 
L 191.598913 35.036344 
L 191.750732 35.036344 
L 191.750732 34.468112 
L 191.902549 34.468112 
L 191.902549 30.831429 
L 192.054369 30.831429 
L 192.054369 33.558941 
L 192.206189 33.558941 
L 192.206189 31.57013 
L 192.358006 31.57013 
L 192.358006 35.718222 
L 192.509826 35.718222 
L 192.509826 38.218442 
L 192.661645 38.218442 
L 192.661645 41.173247 
L 192.813465 41.173247 
L 192.813465 43.105235 
L 192.965282 43.105235 
L 192.965282 49.81037 
L 193.117102 49.81037 
L 193.117102 52.935644 
L 193.268921 52.935644 
L 193.268921 58.504316 
L 193.420738 58.504316 
L 193.420738 61.175005 
L 193.572558 61.175005 
L 193.572558 61.856883 
L 193.724378 61.856883 
L 193.724378 64.698042 
L 193.876197 64.698042 
L 193.876197 65.37992 
L 194.028014 65.37992 
L 194.028014 68.334725 
L 194.179834 68.334725 
L 194.179834 68.505195 
L 194.331654 68.505195 
L 194.331654 68.846134 
L 194.483471 68.846134 
L 194.483471 69.812128 
L 194.63529 69.812128 
L 194.63529 70.38036 
L 194.78711 70.38036 
L 194.78711 70.437183 
L 194.93893 70.437183 
L 194.93893 70.664476 
L 195.090747 70.664476 
L 195.090747 70.948591 
L 195.242566 70.948591 
L 195.242566 71.062238 
L 195.394386 71.062238 
L 195.394386 71.46 
L 195.546206 71.46 
L 195.546206 71.175884 
L 195.698023 71.175884 
L 195.698023 71.232707 
L 195.849843 71.232707 
L 195.849843 71.346354 
L 196.001662 71.346354 
L 196.001662 71.346354 
L 196.153479 71.346354 
L 196.153479 71.346354 
L 196.305299 71.346354 
L 196.305299 71.46 
L 196.457119 71.46 
L 196.457119 71.403177 
L 196.608938 71.403177 
L 196.608938 71.403177 
L 196.760755 71.403177 
L 196.760755 71.346354 
L 196.912575 71.346354 
L 196.912575 71.46 
" clip-path="url(#p25bd402122)" style="fill: none; stroke: #000080; stroke-linejoin: miter"/>
   </g>
   <g id="patch_25">
    <path d="M 169.854034 76.46 
L 205.363125 76.46 
" style="fill: none; stroke: #000000; stroke-width: 1.5; stroke-linejoin: miter; stroke-linecap: square"/>
   </g>
  </g>
  <g id="text_13">
   <text style="font: 9px 'Arial', sans-serif; text-anchor: middle" x="104.563125" y="14.038594" transform="rotate(-0 104.563125 14.038594)">Energy-constrained marginal posterior</text>
  </g>
 </g>
 <defs>
  <clipPath id="pd652ad00b0">
   <rect x="10.063125" y="28.8" width="35.509091" height="42.66"/>
  </clipPath>
  <clipPath id="pe55a99228e">
   <rect x="63.326761" y="28.8" width="35.509091" height="42.66"/>
  </clipPath>
  <clipPath id="p59424da949">
   <rect x="116.590398" y="28.8" width="35.509091" height="42.66"/>
  </clipPath>
  <clipPath id="p25bd402122">
   <rect x="169.854034" y="28.8" width="35.509091" height="42.66"/>
  </clipPath>
 </defs>
</svg>
