<?xml version="1.0" encoding="utf-8" standalone="no"?>
<!DOCTYPE svg PUBLIC "-//W3C//DTD SVG 1.1//EN"
  "http://www.w3.org/Graphics/SVG/1.1/DTD/svg11.dtd">
<svg xmlns:xlink="http://www.w3.org/1999/xlink" width="97.805998pt" height="132.287031pt" viewBox="0 0 97.805998 132.287031" xmlns="http://www.w3.org/2000/svg" version="1.1">
 <metadata>
  <rdf:RDF xmlns:dc="http://purl.org/dc/elements/1.1/" xmlns:cc="http://creativecommons.org/ns#" xmlns:rdf="http://www.w3.org/1999/02/22-rdf-syntax-ns#">
   <cc:Work>
    <dc:type rdf:resource="http://purl.org/dc/dcmitype/StillImage"/>
    <dc:date>2024-01-15T05:41:51.930581</dc:date>
    <dc:format>image/svg+xml</dc:format>
    <dc:creator>
     <cc:Agent>
      <dc:title>Matplotlib v3.8.2, https://matplotlib.org/</dc:title>
     </cc:Agent>
    </dc:creator>
   </cc:Work>
  </rdf:RDF>
 </metadata>
 <defs>
  <style type="text/css">*{stroke-linejoin: round; stroke-linecap: butt}</style>
 </defs>
 <g id="figure_1">
  <g id="patch_1">
   <path d="M 0 132.287031 
L 97.805998 132.287031 
L 97.805998 0 
L 0 0 
z
" style="fill: #ffffff"/>
  </g>
  <g id="axes_1">
   <g id="patch_2">
    <path d="M 21.210469 92.52 
L 88.170469 92.52 
L 88.170469 7.2 
L 21.210469 7.2 
z
" style="fill: #ffffff"/>
   </g>
   <g id="matplotlib.axis_1">
    <g id="xtick_1">
     <g id="line2d_1">
      <defs>
       <path id="m50ad4c5abe" d="M 0 0 
L 0 3.5 
" style="stroke: #000000; stroke-width: 1.5"/>
      </defs>
      <g>
       <use xlink:href="#m50ad4c5abe" x="21.210469" y="97.52" style="stroke: #000000; stroke-width: 1.5"/>
      </g>
     </g>
     <g id="text_1">
      <text style="font: 9px 'Arial', sans-serif; text-anchor: middle" x="21.210469" y="110.962031" transform="rotate(-0 21.210469 110.962031)">-10000</text>
     </g>
    </g>
    <g id="xtick_2">
     <g id="line2d_2">
      <g>
       <use xlink:href="#m50ad4c5abe" x="88.103576" y="97.52" style="stroke: #000000; stroke-width: 1.5"/>
      </g>
     </g>
     <g id="text_2">
      <text style="font: 9px 'Arial', sans-serif; text-anchor: middle" x="88.103576" y="110.962031" transform="rotate(-0 88.103576 110.962031)">0</text>
     </g>
    </g>
    <g id="text_3">
     <text style="font: 9px 'Arial', sans-serif; text-anchor: middle" x="54.690469" y="123.192813" transform="rotate(-0 54.690469 123.192813)">Energy</text>
    </g>
   </g>
   <g id="matplotlib.axis_2">
    <g id="ytick_1"/>
    <g id="ytick_2"/>
    <g id="ytick_3"/>
   </g>
   <g id="patch_3">
    <path d="M -1 92.263349 
L 2.268131 92.263349 
L 2.268131 92.172767 
L 12.177267 92.172767 
L 12.177267 92.202961 
L 22.086409 92.202961 
L 22.086409 92.399223 
L 31.995545 92.399223 
L 31.995545 92.444514 
L 41.904684 92.444514 
L 41.904684 90.164852 
L 51.813823 90.164852 
L 51.813823 28.538473 
L 61.722961 28.538473 
L 61.722961 15.132245 
L 71.632099 15.132245 
L 71.632099 86.99446 
L 81.541238 86.99446 
L 81.541238 92.323738 
L 91.450376 92.323738 
L 91.450376 92.52 
L 98.805998 92.52 
" clip-path="url(#p9604328366)" style="fill: none; stroke: #1f77b4; stroke-linejoin: miter"/>
   </g>
   <g id="patch_4">
    <path d="M -1 92.489806 
L -0.646593 92.489806 
L -0.646593 92.474709 
L 1.24189 92.474709 
L 1.24189 92.459612 
L 3.130366 92.459612 
L 3.130366 92.504903 
L 5.018842 92.504903 
L 5.018842 92.52 
L 6.907325 92.52 
L 6.907325 92.474709 
L 8.795801 92.474709 
L 8.795801 92.504903 
L 10.684277 92.504903 
L 10.684277 92.489806 
L 12.572759 92.489806 
L 12.572759 92.52 
L 14.461235 92.52 
L 14.461235 92.52 
L 16.349711 92.52 
L 16.349711 92.52 
L 18.238194 92.52 
L 18.238194 92.504903 
L 20.12667 92.504903 
L 20.12667 92.489806 
L 22.015146 92.489806 
L 22.015146 92.504903 
L 23.903622 92.504903 
L 23.903622 92.504903 
L 25.792104 92.504903 
L 25.792104 92.504903 
L 27.68058 92.504903 
L 27.68058 92.52 
L 29.569056 92.52 
L 29.569056 92.52 
L 31.457539 92.52 
L 31.457539 92.504903 
L 33.346015 92.504903 
L 33.346015 92.52 
L 35.234494 92.52 
L 35.234494 92.52 
L 37.12297 92.52 
L 37.12297 92.52 
L 39.01145 92.52 
L 39.01145 92.52 
L 40.899926 92.52 
L 40.899926 92.52 
L 42.788405 92.52 
L 42.788405 92.52 
L 44.676884 92.52 
L 44.676884 92.52 
L 46.56536 92.52 
L 46.56536 92.52 
L 48.45384 92.52 
L 48.45384 92.504903 
L 50.342319 92.504903 
L 50.342319 92.293543 
L 52.230795 92.293543 
L 52.230795 91.795339 
L 54.119274 91.795339 
L 54.119274 90.149755 
L 56.00775 90.149755 
L 56.00775 87.492664 
L 57.896229 87.492664 
L 57.896229 82.97863 
L 59.784709 82.97863 
L 59.784709 77.468187 
L 61.673186 77.468187 
L 61.673186 69.0591 
L 63.561664 69.0591 
L 63.561664 62.084238 
L 65.450142 62.084238 
L 65.450142 62.522054 
L 67.338619 62.522054 
L 67.338619 70.810364 
L 69.227099 70.810364 
L 69.227099 82.253969 
L 71.115576 82.253969 
L 71.115576 90.889513 
L 73.004054 90.889513 
L 73.004054 92.52 
" clip-path="url(#p9604328366)" style="fill: none; stroke: #2ca02c; stroke-linejoin: miter"/>
   </g>
   <g id="patch_5">
    <path d="M 63.769345 92.52 
L 63.769345 92.474709 
L 63.950159 92.474709 
L 63.950159 92.474709 
L 64.130972 92.474709 
L 64.130972 92.444514 
L 64.311786 92.444514 
L 64.311786 92.353932 
L 64.4926 92.353932 
L 64.4926 91.961407 
L 64.673414 91.961407 
L 64.673414 91.644368 
L 64.854228 91.644368 
L 64.854228 90.496988 
L 65.035042 90.496988 
L 65.035042 89.742133 
L 65.215856 89.742133 
L 65.215856 89.062763 
L 65.39667 89.062763 
L 65.39667 88.202228 
L 65.577484 88.202228 
L 65.577484 87.688927 
L 65.758297 87.688927 
L 65.758297 86.798198 
L 65.939111 86.798198 
L 65.939111 86.722712 
L 66.119925 86.722712 
L 66.119925 86.556644 
L 66.300739 86.556644 
L 66.300739 86.405673 
L 66.481553 86.405673 
L 66.481553 85.635721 
L 66.662367 85.635721 
L 66.662367 86.103731 
L 66.843181 86.103731 
L 66.843181 85.258293 
L 67.023995 85.258293 
L 67.023995 85.394167 
L 67.204809 85.394167 
L 67.204809 85.258293 
L 67.385623 85.258293 
L 67.385623 85.031836 
L 67.566436 85.031836 
L 67.566436 86.752906 
L 67.74725 86.752906 
L 67.74725 86.556644 
L 67.928064 86.556644 
L 67.928064 87.115237 
L 68.108878 87.115237 
L 68.108878 87.220916 
L 68.289694 87.220916 
L 68.289694 87.236014 
L 68.470508 87.236014 
L 68.470508 87.870092 
L 68.651321 87.870092 
L 68.651321 87.885189 
L 68.832135 87.885189 
L 68.832135 88.323005 
L 69.012949 88.323005 
L 69.012949 88.71553 
L 69.193763 88.71553 
L 69.193763 89.274123 
L 69.374577 89.274123 
L 69.374577 89.832715 
L 69.555391 89.832715 
L 69.555391 90.11956 
L 69.736205 90.11956 
L 69.736205 90.013881 
L 69.917019 90.013881 
L 69.917019 90.829124 
L 70.097833 90.829124 
L 70.097833 90.783833 
L 70.278647 90.783833 
L 70.278647 91.236746 
L 70.45946 91.236746 
L 70.45946 91.070678 
L 70.640274 91.070678 
L 70.640274 91.629271 
L 70.821088 91.629271 
L 70.821088 91.614174 
L 71.001902 91.614174 
L 71.001902 91.961407 
L 71.182716 91.961407 
L 71.182716 92.067087 
L 71.36353 92.067087 
L 71.36353 92.067087 
L 71.544344 92.067087 
L 71.544344 92.338835 
L 71.725158 92.338835 
L 71.725158 92.338835 
L 71.905972 92.338835 
L 71.905972 92.474709 
L 72.086786 92.474709 
L 72.086786 92.489806 
L 72.267599 92.489806 
L 72.267599 92.489806 
L 72.448413 92.489806 
L 72.448413 92.52 
L 72.629227 92.52 
L 72.629227 92.489806 
L 72.810041 92.489806 
L 72.810041 92.52 
" clip-path="url(#p9604328366)" style="fill: none; stroke: #9467bd; stroke-linejoin: miter"/>
   </g>
   <g id="line2d_3">
    <path d="M 67.672022 92.52 
L 67.672022 11.262857 
" clip-path="url(#p9604328366)" style="fill: none; stroke: #000000; stroke-width: 1.5; stroke-linecap: square"/>
   </g>
   <g id="patch_6">
    <path d="M 21.210469 97.52 
L 88.170469 97.52 
" style="fill: none; stroke: #000000; stroke-width: 1.5; stroke-linejoin: miter; stroke-linecap: square"/>
   </g>
  </g>
 </g>
 <defs>
  <clipPath id="p9604328366">
   <rect x="21.210469" y="7.2" width="66.96" height="85.32"/>
  </clipPath>
 </defs>
</svg>
