<?xml version="1.0" encoding="utf-8" standalone="no"?>
<!DOCTYPE svg PUBLIC "-//W3C//DTD SVG 1.1//EN"
  "http://www.w3.org/Graphics/SVG/1.1/DTD/svg11.dtd">
<svg xmlns:xlink="http://www.w3.org/1999/xlink" width="219.719531pt" height="112.080625pt" viewBox="0 0 219.719531 112.080625" xmlns="http://www.w3.org/2000/svg" version="1.1">
 <metadata>
  <rdf:RDF xmlns:dc="http://purl.org/dc/elements/1.1/" xmlns:cc="http://creativecommons.org/ns#" xmlns:rdf="http://www.w3.org/1999/02/22-rdf-syntax-ns#">
   <cc:Work>
    <dc:type rdf:resource="http://purl.org/dc/dcmitype/StillImage"/>
    <dc:date>2024-05-12T16:44:38.916196</dc:date>
    <dc:format>image/svg+xml</dc:format>
    <dc:creator>
     <cc:Agent>
      <dc:title>Matplotlib v3.8.4, https://matplotlib.org/</dc:title>
     </cc:Agent>
    </dc:creator>
   </cc:Work>
  </rdf:RDF>
 </metadata>
 <defs>
  <style type="text/css">*{stroke-linejoin: round; stroke-linecap: butt}</style>
 </defs>
 <g id="figure_1">
  <g id="patch_1">
   <path d="M 0 112.080625 
L 219.719531 112.080625 
L 219.719531 0 
L 0 0 
z
" style="fill: #ffffff"/>
  </g>
  <g id="axes_1">
   <g id="patch_2">
    <path d="M 10.063125 71.46 
L 45.572216 71.46 
L 45.572216 28.8 
L 10.063125 28.8 
z
" style="fill: #ffffff"/>
   </g>
   <g id="matplotlib.axis_1">
    <g id="xtick_1">
     <g id="line2d_1">
      <defs>
       <path id="m981559a605" d="M 0 0 
L 0 3.5 
" style="stroke: #000000; stroke-width: 1.5"/>
      </defs>
      <g>
       <use xlink:href="#m981559a605" x="10.063125" y="76.46" style="stroke: #000000; stroke-width: 1.5"/>
      </g>
     </g>
     <g id="text_1">
      <text style="font: 9px 'Arial', sans-serif; text-anchor: middle" x="10.063125" y="90.298594" transform="rotate(-0 10.063125 90.298594)">1</text>
     </g>
    </g>
    <g id="xtick_2">
     <g id="line2d_2">
      <g>
       <use xlink:href="#m981559a605" x="45.572216" y="76.46" style="stroke: #000000; stroke-width: 1.5"/>
      </g>
     </g>
     <g id="text_2">
      <text style="font: 9px 'Arial', sans-serif; text-anchor: middle" x="45.572216" y="90.298594" transform="rotate(-0 45.572216 90.298594)">2</text>
     </g>
    </g>
    <g id="text_3">
     <!-- $C_m$ -->
     <g transform="translate(21.42767 103.008906)">
      <text>
       <tspan style="font: 9px 'DejaVu Sans'" x="0" y="-0.3125">C</tspan>
       <tspan style="font: 6.3px 'DejaVu Sans'" x="6.370312" y="1.1640625">m</tspan>
      </text>
     </g>
    </g>
   </g>
   <g id="matplotlib.axis_2">
    <g id="ytick_1"/>
    <g id="ytick_2"/>
   </g>
   <g id="patch_3">
    <path d="M 9.977493 71.46 
L 9.977493 71.042869 
L 10.212762 71.042869 
L 10.212762 70.876016 
L 10.448033 70.876016 
L 10.448033 70.208607 
L 10.683304 70.208607 
L 10.683304 69.624623 
L 10.91857 69.624623 
L 10.91857 69.541197 
L 11.153841 69.541197 
L 11.153841 68.122951 
L 11.389112 68.122951 
L 11.389112 67.872672 
L 11.624379 67.872672 
L 11.624379 66.537853 
L 11.85965 66.537853 
L 11.85965 64.702476 
L 12.094921 64.702476 
L 12.094921 63.95164 
L 12.330187 63.95164 
L 12.330187 62.783673 
L 12.565458 62.783673 
L 12.565458 60.781443 
L 12.800729 60.781443 
L 12.800729 58.362083 
L 13.035996 58.362083 
L 13.035996 56.610132 
L 13.271267 56.610132 
L 13.271267 53.439935 
L 13.506538 53.439935 
L 13.506538 52.438821 
L 13.741804 52.438821 
L 13.741804 50.436591 
L 13.977075 50.436591 
L 13.977075 47.683526 
L 14.212346 47.683526 
L 14.212346 48.26751 
L 14.447613 48.26751 
L 14.447613 41.760264 
L 14.682884 41.760264 
L 14.682884 43.929346 
L 14.918154 43.929346 
L 14.918154 40.592297 
L 15.153421 40.592297 
L 15.153421 38.256363 
L 15.388692 38.256363 
L 15.388692 37.839231 
L 15.623963 37.839231 
L 15.623963 30.831429 
L 15.85923 30.831429 
L 15.85923 32.917084 
L 16.0945 32.917084 
L 16.0945 31.24856 
L 16.329771 31.24856 
L 16.329771 34.919314 
L 16.565038 34.919314 
L 16.565038 33.083937 
L 16.800309 33.083937 
L 16.800309 33.66792 
L 17.03558 33.66792 
L 17.03558 34.001625 
L 17.270846 34.001625 
L 17.270846 35.169592 
L 17.506117 35.169592 
L 17.506117 36.754691 
L 17.741388 36.754691 
L 17.741388 39.257477 
L 17.976655 39.257477 
L 17.976655 42.010543 
L 18.211926 42.010543 
L 18.211926 47.349821 
L 18.447197 47.349821 
L 18.447197 50.520018 
L 18.682463 50.520018 
L 18.682463 55.358739 
L 18.917734 55.358739 
L 18.917734 60.698017 
L 19.153005 60.698017 
L 19.153005 64.535623 
L 19.388272 64.535623 
L 19.388272 66.204148 
L 19.623543 66.204148 
L 19.623543 68.706935 
L 19.858814 68.706935 
L 19.858814 68.873787 
L 20.09408 68.873787 
L 20.09408 70.458885 
L 20.329351 70.458885 
L 20.329351 70.79259 
L 20.564622 70.79259 
L 20.564622 70.625738 
L 20.799889 70.625738 
L 20.799889 70.959443 
L 21.035159 70.959443 
L 21.035159 71.293148 
L 21.27043 71.293148 
L 21.27043 71.46 
L 21.505697 71.46 
L 21.505697 71.376574 
L 21.740968 71.376574 
L 21.740968 71.46 
" clip-path="url(#p697c9e9a7d)" style="fill: none; stroke: #000080; stroke-linejoin: miter"/>
   </g>
   <g id="patch_4">
    <path d="M 9.977493 71.46 
L 9.977493 71.042869 
L 10.212762 71.042869 
L 10.212762 70.876016 
L 10.448033 70.876016 
L 10.448033 70.208607 
L 10.683304 70.208607 
L 10.683304 69.624623 
L 10.91857 69.624623 
L 10.91857 69.541197 
L 11.153841 69.541197 
L 11.153841 68.122951 
L 11.389112 68.122951 
L 11.389112 67.872672 
L 11.624379 67.872672 
L 11.624379 66.537853 
L 11.85965 66.537853 
L 11.85965 64.702476 
L 12.094921 64.702476 
L 12.094921 63.95164 
L 12.330187 63.95164 
L 12.330187 62.783673 
L 12.565458 62.783673 
L 12.565458 60.781443 
L 12.800729 60.781443 
L 12.800729 58.362083 
L 13.035996 58.362083 
L 13.035996 56.610132 
L 13.271267 56.610132 
L 13.271267 53.439935 
L 13.506538 53.439935 
L 13.506538 52.438821 
L 13.741804 52.438821 
L 13.741804 50.436591 
L 13.977075 50.436591 
L 13.977075 47.683526 
L 14.212346 47.683526 
L 14.212346 48.26751 
L 14.447613 48.26751 
L 14.447613 41.760264 
L 14.682884 41.760264 
L 14.682884 43.929346 
L 14.918154 43.929346 
L 14.918154 40.592297 
L 15.153421 40.592297 
L 15.153421 38.256363 
L 15.388692 38.256363 
L 15.388692 37.839231 
L 15.623963 37.839231 
L 15.623963 30.831429 
L 15.85923 30.831429 
L 15.85923 32.917084 
L 16.0945 32.917084 
L 16.0945 31.24856 
L 16.329771 31.24856 
L 16.329771 34.919314 
L 16.565038 34.919314 
L 16.565038 33.083937 
L 16.800309 33.083937 
L 16.800309 33.66792 
L 17.03558 33.66792 
L 17.03558 34.001625 
L 17.270846 34.001625 
L 17.270846 35.169592 
L 17.506117 35.169592 
L 17.506117 36.754691 
L 17.741388 36.754691 
L 17.741388 39.257477 
L 17.976655 39.257477 
L 17.976655 42.010543 
L 18.211926 42.010543 
L 18.211926 47.349821 
L 18.447197 47.349821 
L 18.447197 50.520018 
L 18.682463 50.520018 
L 18.682463 55.358739 
L 18.917734 55.358739 
L 18.917734 60.698017 
L 19.153005 60.698017 
L 19.153005 64.535623 
L 19.388272 64.535623 
L 19.388272 66.204148 
L 19.623543 66.204148 
L 19.623543 68.706935 
L 19.858814 68.706935 
L 19.858814 68.873787 
L 20.09408 68.873787 
L 20.09408 70.458885 
L 20.329351 70.458885 
L 20.329351 70.79259 
L 20.564622 70.79259 
L 20.564622 70.625738 
L 20.799889 70.625738 
L 20.799889 70.959443 
L 21.035159 70.959443 
L 21.035159 71.293148 
L 21.27043 71.293148 
L 21.27043 71.46 
L 21.505697 71.46 
L 21.505697 71.376574 
L 21.740968 71.376574 
L 21.740968 71.46 
" clip-path="url(#p697c9e9a7d)" style="fill: none; stroke: #000080; stroke-linejoin: miter"/>
   </g>
   <g id="patch_5">
    <path d="M 9.977493 71.46 
L 9.977493 71.042869 
L 10.212762 71.042869 
L 10.212762 70.876016 
L 10.448033 70.876016 
L 10.448033 70.208607 
L 10.683304 70.208607 
L 10.683304 69.624623 
L 10.91857 69.624623 
L 10.91857 69.541197 
L 11.153841 69.541197 
L 11.153841 68.122951 
L 11.389112 68.122951 
L 11.389112 67.872672 
L 11.624379 67.872672 
L 11.624379 66.537853 
L 11.85965 66.537853 
L 11.85965 64.702476 
L 12.094921 64.702476 
L 12.094921 63.95164 
L 12.330187 63.95164 
L 12.330187 62.783673 
L 12.565458 62.783673 
L 12.565458 60.781443 
L 12.800729 60.781443 
L 12.800729 58.362083 
L 13.035996 58.362083 
L 13.035996 56.610132 
L 13.271267 56.610132 
L 13.271267 53.439935 
L 13.506538 53.439935 
L 13.506538 52.438821 
L 13.741804 52.438821 
L 13.741804 50.436591 
L 13.977075 50.436591 
L 13.977075 47.683526 
L 14.212346 47.683526 
L 14.212346 48.26751 
L 14.447613 48.26751 
L 14.447613 41.760264 
L 14.682884 41.760264 
L 14.682884 43.929346 
L 14.918154 43.929346 
L 14.918154 40.592297 
L 15.153421 40.592297 
L 15.153421 38.256363 
L 15.388692 38.256363 
L 15.388692 37.839231 
L 15.623963 37.839231 
L 15.623963 30.831429 
L 15.85923 30.831429 
L 15.85923 32.917084 
L 16.0945 32.917084 
L 16.0945 31.24856 
L 16.329771 31.24856 
L 16.329771 34.919314 
L 16.565038 34.919314 
L 16.565038 33.083937 
L 16.800309 33.083937 
L 16.800309 33.66792 
L 17.03558 33.66792 
L 17.03558 34.001625 
L 17.270846 34.001625 
L 17.270846 35.169592 
L 17.506117 35.169592 
L 17.506117 36.754691 
L 17.741388 36.754691 
L 17.741388 39.257477 
L 17.976655 39.257477 
L 17.976655 42.010543 
L 18.211926 42.010543 
L 18.211926 47.349821 
L 18.447197 47.349821 
L 18.447197 50.520018 
L 18.682463 50.520018 
L 18.682463 55.358739 
L 18.917734 55.358739 
L 18.917734 60.698017 
L 19.153005 60.698017 
L 19.153005 64.535623 
L 19.388272 64.535623 
L 19.388272 66.204148 
L 19.623543 66.204148 
L 19.623543 68.706935 
L 19.858814 68.706935 
L 19.858814 68.873787 
L 20.09408 68.873787 
L 20.09408 70.458885 
L 20.329351 70.458885 
L 20.329351 70.79259 
L 20.564622 70.79259 
L 20.564622 70.625738 
L 20.799889 70.625738 
L 20.799889 70.959443 
L 21.035159 70.959443 
L 21.035159 71.293148 
L 21.27043 71.293148 
L 21.27043 71.46 
L 21.505697 71.46 
L 21.505697 71.376574 
L 21.740968 71.376574 
L 21.740968 71.46 
" clip-path="url(#p697c9e9a7d)" style="fill: none; stroke: #000080; stroke-linejoin: miter"/>
   </g>
   <g id="patch_6">
    <path d="M 9.977493 71.46 
L 9.977493 71.042869 
L 10.212762 71.042869 
L 10.212762 70.876016 
L 10.448033 70.876016 
L 10.448033 70.208607 
L 10.683304 70.208607 
L 10.683304 69.624623 
L 10.91857 69.624623 
L 10.91857 69.541197 
L 11.153841 69.541197 
L 11.153841 68.122951 
L 11.389112 68.122951 
L 11.389112 67.872672 
L 11.624379 67.872672 
L 11.624379 66.537853 
L 11.85965 66.537853 
L 11.85965 64.702476 
L 12.094921 64.702476 
L 12.094921 63.95164 
L 12.330187 63.95164 
L 12.330187 62.783673 
L 12.565458 62.783673 
L 12.565458 60.781443 
L 12.800729 60.781443 
L 12.800729 58.362083 
L 13.035996 58.362083 
L 13.035996 56.610132 
L 13.271267 56.610132 
L 13.271267 53.439935 
L 13.506538 53.439935 
L 13.506538 52.438821 
L 13.741804 52.438821 
L 13.741804 50.436591 
L 13.977075 50.436591 
L 13.977075 47.683526 
L 14.212346 47.683526 
L 14.212346 48.26751 
L 14.447613 48.26751 
L 14.447613 41.760264 
L 14.682884 41.760264 
L 14.682884 43.929346 
L 14.918154 43.929346 
L 14.918154 40.592297 
L 15.153421 40.592297 
L 15.153421 38.256363 
L 15.388692 38.256363 
L 15.388692 37.839231 
L 15.623963 37.839231 
L 15.623963 30.831429 
L 15.85923 30.831429 
L 15.85923 32.917084 
L 16.0945 32.917084 
L 16.0945 31.24856 
L 16.329771 31.24856 
L 16.329771 34.919314 
L 16.565038 34.919314 
L 16.565038 33.083937 
L 16.800309 33.083937 
L 16.800309 33.66792 
L 17.03558 33.66792 
L 17.03558 34.001625 
L 17.270846 34.001625 
L 17.270846 35.169592 
L 17.506117 35.169592 
L 17.506117 36.754691 
L 17.741388 36.754691 
L 17.741388 39.257477 
L 17.976655 39.257477 
L 17.976655 42.010543 
L 18.211926 42.010543 
L 18.211926 47.349821 
L 18.447197 47.349821 
L 18.447197 50.520018 
L 18.682463 50.520018 
L 18.682463 55.358739 
L 18.917734 55.358739 
L 18.917734 60.698017 
L 19.153005 60.698017 
L 19.153005 64.535623 
L 19.388272 64.535623 
L 19.388272 66.204148 
L 19.623543 66.204148 
L 19.623543 68.706935 
L 19.858814 68.706935 
L 19.858814 68.873787 
L 20.09408 68.873787 
L 20.09408 70.458885 
L 20.329351 70.458885 
L 20.329351 70.79259 
L 20.564622 70.79259 
L 20.564622 70.625738 
L 20.799889 70.625738 
L 20.799889 70.959443 
L 21.035159 70.959443 
L 21.035159 71.293148 
L 21.27043 71.293148 
L 21.27043 71.46 
L 21.505697 71.46 
L 21.505697 71.376574 
L 21.740968 71.376574 
L 21.740968 71.46 
" clip-path="url(#p697c9e9a7d)" style="fill: none; stroke: #000080; stroke-linejoin: miter"/>
   </g>
   <g id="patch_7">
    <path d="M 10.063125 76.46 
L 45.572216 76.46 
" style="fill: none; stroke: #000000; stroke-width: 1.5; stroke-linejoin: miter; stroke-linecap: square"/>
   </g>
  </g>
  <g id="axes_2">
   <g id="patch_8">
    <path d="M 63.326761 71.46 
L 98.835852 71.46 
L 98.835852 28.8 
L 63.326761 28.8 
z
" style="fill: #ffffff"/>
   </g>
   <g id="matplotlib.axis_3">
    <g id="xtick_3">
     <g id="line2d_3">
      <g>
       <use xlink:href="#m981559a605" x="63.326761" y="76.46" style="stroke: #000000; stroke-width: 1.5"/>
      </g>
     </g>
     <g id="text_4">
      <text style="font: 9px 'Arial', sans-serif; text-anchor: middle" x="63.326761" y="90.298594" transform="rotate(-0 63.326761 90.298594)">60</text>
     </g>
    </g>
    <g id="xtick_4">
     <g id="line2d_4">
      <g>
       <use xlink:href="#m981559a605" x="98.835852" y="76.46" style="stroke: #000000; stroke-width: 1.5"/>
      </g>
     </g>
     <g id="text_5">
      <text style="font: 9px 'Arial', sans-serif; text-anchor: middle" x="98.835852" y="90.298594" transform="rotate(-0 98.835852 90.298594)">120</text>
     </g>
    </g>
    <g id="text_6">
     <!-- $g_{Na}$ -->
     <g transform="translate(73.746307 102.990625)">
      <text>
       <tspan style="font: 9px 'DejaVu Sans'" x="0" y="-0.953125">g</tspan>
       <tspan style="font: 6.3px 'DejaVu Sans'" x="5.799023 10.511719" y="0.5234375">Na</tspan>
      </text>
     </g>
    </g>
   </g>
   <g id="matplotlib.axis_4">
    <g id="ytick_3"/>
    <g id="ytick_4"/>
   </g>
   <g id="patch_9">
    <path d="M 63.290879 71.46 
L 63.290879 70.492653 
L 64.007522 70.492653 
L 64.007522 70.492653 
L 64.724166 70.492653 
L 64.724166 70.00898 
L 65.44081 70.00898 
L 65.44081 69.45621 
L 66.157453 69.45621 
L 66.157453 68.972536 
L 66.874094 68.972536 
L 66.874094 68.143382 
L 67.59074 68.143382 
L 67.59074 67.936093 
L 68.307381 67.936093 
L 68.307381 67.521516 
L 69.024027 67.521516 
L 69.024027 66.968746 
L 69.740669 66.968746 
L 69.740669 66.070496 
L 70.457314 66.070496 
L 70.457314 67.037843 
L 71.173956 67.037843 
L 71.173956 66.761458 
L 71.890601 66.761458 
L 71.890601 66.208688 
L 72.607243 66.208688 
L 72.607243 65.586822 
L 73.323884 65.586822 
L 73.323884 65.103149 
L 74.04053 65.103149 
L 74.04053 63.306647 
L 74.757171 63.306647 
L 74.757171 63.030262 
L 75.473817 63.030262 
L 75.473817 62.615685 
L 76.190458 62.615685 
L 76.190458 61.993819 
L 76.907104 61.993819 
L 76.907104 63.030262 
L 77.623745 63.030262 
L 77.623745 59.851837 
L 78.340391 59.851837 
L 78.340391 60.266414 
L 79.057032 60.266414 
L 79.057032 57.848047 
L 79.773678 57.848047 
L 79.773678 57.77895 
L 80.490319 57.77895 
L 80.490319 56.466122 
L 81.206965 56.466122 
L 81.206965 58.193528 
L 81.923607 58.193528 
L 81.923607 57.364373 
L 82.640248 57.364373 
L 82.640248 57.087988 
L 83.356894 57.087988 
L 83.356894 54.738717 
L 84.073535 54.738717 
L 84.073535 54.669621 
L 84.790181 54.669621 
L 84.790181 54.738717 
L 85.506822 54.738717 
L 85.506822 56.535219 
L 86.223468 56.535219 
L 86.223468 53.011312 
L 86.940109 53.011312 
L 86.940109 51.422099 
L 87.656755 51.422099 
L 87.656755 50.869329 
L 88.373396 50.869329 
L 88.373396 49.76379 
L 89.090042 49.76379 
L 89.090042 50.247464 
L 89.806683 50.247464 
L 89.806683 49.971079 
L 90.523325 49.971079 
L 90.523325 51.21481 
L 91.23997 51.21481 
L 91.23997 51.145714 
L 91.956612 51.145714 
L 91.956612 51.21481 
L 92.673257 51.21481 
L 92.673257 49.556501 
L 93.389899 49.556501 
L 93.389899 52.665831 
L 94.106544 52.665831 
L 94.106544 48.381866 
L 94.823186 48.381866 
L 94.823186 48.174577 
L 95.539832 48.174577 
L 95.539832 46.032595 
L 96.256473 46.032595 
L 96.256473 49.003732 
L 96.973119 49.003732 
L 96.973119 42.025015 
L 97.68976 42.025015 
L 97.68976 30.831429 
L 98.406406 30.831429 
L 98.406406 40.228513 
L 99.123047 40.228513 
L 99.123047 71.46 
" clip-path="url(#pe0dd578095)" style="fill: none; stroke: #000080; stroke-linejoin: miter"/>
   </g>
   <g id="patch_10">
    <path d="M 63.290879 71.46 
L 63.290879 70.492653 
L 64.007522 70.492653 
L 64.007522 70.492653 
L 64.724166 70.492653 
L 64.724166 70.00898 
L 65.44081 70.00898 
L 65.44081 69.45621 
L 66.157453 69.45621 
L 66.157453 68.972536 
L 66.874094 68.972536 
L 66.874094 68.143382 
L 67.59074 68.143382 
L 67.59074 67.936093 
L 68.307381 67.936093 
L 68.307381 67.521516 
L 69.024027 67.521516 
L 69.024027 66.968746 
L 69.740669 66.968746 
L 69.740669 66.070496 
L 70.457314 66.070496 
L 70.457314 67.037843 
L 71.173956 67.037843 
L 71.173956 66.761458 
L 71.890601 66.761458 
L 71.890601 66.208688 
L 72.607243 66.208688 
L 72.607243 65.586822 
L 73.323884 65.586822 
L 73.323884 65.103149 
L 74.04053 65.103149 
L 74.04053 63.306647 
L 74.757171 63.306647 
L 74.757171 63.030262 
L 75.473817 63.030262 
L 75.473817 62.615685 
L 76.190458 62.615685 
L 76.190458 61.993819 
L 76.907104 61.993819 
L 76.907104 63.030262 
L 77.623745 63.030262 
L 77.623745 59.851837 
L 78.340391 59.851837 
L 78.340391 60.266414 
L 79.057032 60.266414 
L 79.057032 57.848047 
L 79.773678 57.848047 
L 79.773678 57.77895 
L 80.490319 57.77895 
L 80.490319 56.466122 
L 81.206965 56.466122 
L 81.206965 58.193528 
L 81.923607 58.193528 
L 81.923607 57.364373 
L 82.640248 57.364373 
L 82.640248 57.087988 
L 83.356894 57.087988 
L 83.356894 54.738717 
L 84.073535 54.738717 
L 84.073535 54.669621 
L 84.790181 54.669621 
L 84.790181 54.738717 
L 85.506822 54.738717 
L 85.506822 56.535219 
L 86.223468 56.535219 
L 86.223468 53.011312 
L 86.940109 53.011312 
L 86.940109 51.422099 
L 87.656755 51.422099 
L 87.656755 50.869329 
L 88.373396 50.869329 
L 88.373396 49.76379 
L 89.090042 49.76379 
L 89.090042 50.247464 
L 89.806683 50.247464 
L 89.806683 49.971079 
L 90.523325 49.971079 
L 90.523325 51.21481 
L 91.23997 51.21481 
L 91.23997 51.145714 
L 91.956612 51.145714 
L 91.956612 51.21481 
L 92.673257 51.21481 
L 92.673257 49.556501 
L 93.389899 49.556501 
L 93.389899 52.665831 
L 94.106544 52.665831 
L 94.106544 48.381866 
L 94.823186 48.381866 
L 94.823186 48.174577 
L 95.539832 48.174577 
L 95.539832 46.032595 
L 96.256473 46.032595 
L 96.256473 49.003732 
L 96.973119 49.003732 
L 96.973119 42.025015 
L 97.68976 42.025015 
L 97.68976 30.831429 
L 98.406406 30.831429 
L 98.406406 40.228513 
L 99.123047 40.228513 
L 99.123047 71.46 
" clip-path="url(#pe0dd578095)" style="fill: none; stroke: #000080; stroke-linejoin: miter"/>
   </g>
   <g id="patch_11">
    <path d="M 63.290879 71.46 
L 63.290879 70.492653 
L 64.007522 70.492653 
L 64.007522 70.492653 
L 64.724166 70.492653 
L 64.724166 70.00898 
L 65.44081 70.00898 
L 65.44081 69.45621 
L 66.157453 69.45621 
L 66.157453 68.972536 
L 66.874094 68.972536 
L 66.874094 68.143382 
L 67.59074 68.143382 
L 67.59074 67.936093 
L 68.307381 67.936093 
L 68.307381 67.521516 
L 69.024027 67.521516 
L 69.024027 66.968746 
L 69.740669 66.968746 
L 69.740669 66.070496 
L 70.457314 66.070496 
L 70.457314 67.037843 
L 71.173956 67.037843 
L 71.173956 66.761458 
L 71.890601 66.761458 
L 71.890601 66.208688 
L 72.607243 66.208688 
L 72.607243 65.586822 
L 73.323884 65.586822 
L 73.323884 65.103149 
L 74.04053 65.103149 
L 74.04053 63.306647 
L 74.757171 63.306647 
L 74.757171 63.030262 
L 75.473817 63.030262 
L 75.473817 62.615685 
L 76.190458 62.615685 
L 76.190458 61.993819 
L 76.907104 61.993819 
L 76.907104 63.030262 
L 77.623745 63.030262 
L 77.623745 59.851837 
L 78.340391 59.851837 
L 78.340391 60.266414 
L 79.057032 60.266414 
L 79.057032 57.848047 
L 79.773678 57.848047 
L 79.773678 57.77895 
L 80.490319 57.77895 
L 80.490319 56.466122 
L 81.206965 56.466122 
L 81.206965 58.193528 
L 81.923607 58.193528 
L 81.923607 57.364373 
L 82.640248 57.364373 
L 82.640248 57.087988 
L 83.356894 57.087988 
L 83.356894 54.738717 
L 84.073535 54.738717 
L 84.073535 54.669621 
L 84.790181 54.669621 
L 84.790181 54.738717 
L 85.506822 54.738717 
L 85.506822 56.535219 
L 86.223468 56.535219 
L 86.223468 53.011312 
L 86.940109 53.011312 
L 86.940109 51.422099 
L 87.656755 51.422099 
L 87.656755 50.869329 
L 88.373396 50.869329 
L 88.373396 49.76379 
L 89.090042 49.76379 
L 89.090042 50.247464 
L 89.806683 50.247464 
L 89.806683 49.971079 
L 90.523325 49.971079 
L 90.523325 51.21481 
L 91.23997 51.21481 
L 91.23997 51.145714 
L 91.956612 51.145714 
L 91.956612 51.21481 
L 92.673257 51.21481 
L 92.673257 49.556501 
L 93.389899 49.556501 
L 93.389899 52.665831 
L 94.106544 52.665831 
L 94.106544 48.381866 
L 94.823186 48.381866 
L 94.823186 48.174577 
L 95.539832 48.174577 
L 95.539832 46.032595 
L 96.256473 46.032595 
L 96.256473 49.003732 
L 96.973119 49.003732 
L 96.973119 42.025015 
L 97.68976 42.025015 
L 97.68976 30.831429 
L 98.406406 30.831429 
L 98.406406 40.228513 
L 99.123047 40.228513 
L 99.123047 71.46 
" clip-path="url(#pe0dd578095)" style="fill: none; stroke: #000080; stroke-linejoin: miter"/>
   </g>
   <g id="patch_12">
    <path d="M 63.290879 71.46 
L 63.290879 70.492653 
L 64.007522 70.492653 
L 64.007522 70.492653 
L 64.724166 70.492653 
L 64.724166 70.00898 
L 65.44081 70.00898 
L 65.44081 69.45621 
L 66.157453 69.45621 
L 66.157453 68.972536 
L 66.874094 68.972536 
L 66.874094 68.143382 
L 67.59074 68.143382 
L 67.59074 67.936093 
L 68.307381 67.936093 
L 68.307381 67.521516 
L 69.024027 67.521516 
L 69.024027 66.968746 
L 69.740669 66.968746 
L 69.740669 66.070496 
L 70.457314 66.070496 
L 70.457314 67.037843 
L 71.173956 67.037843 
L 71.173956 66.761458 
L 71.890601 66.761458 
L 71.890601 66.208688 
L 72.607243 66.208688 
L 72.607243 65.586822 
L 73.323884 65.586822 
L 73.323884 65.103149 
L 74.04053 65.103149 
L 74.04053 63.306647 
L 74.757171 63.306647 
L 74.757171 63.030262 
L 75.473817 63.030262 
L 75.473817 62.615685 
L 76.190458 62.615685 
L 76.190458 61.993819 
L 76.907104 61.993819 
L 76.907104 63.030262 
L 77.623745 63.030262 
L 77.623745 59.851837 
L 78.340391 59.851837 
L 78.340391 60.266414 
L 79.057032 60.266414 
L 79.057032 57.848047 
L 79.773678 57.848047 
L 79.773678 57.77895 
L 80.490319 57.77895 
L 80.490319 56.466122 
L 81.206965 56.466122 
L 81.206965 58.193528 
L 81.923607 58.193528 
L 81.923607 57.364373 
L 82.640248 57.364373 
L 82.640248 57.087988 
L 83.356894 57.087988 
L 83.356894 54.738717 
L 84.073535 54.738717 
L 84.073535 54.669621 
L 84.790181 54.669621 
L 84.790181 54.738717 
L 85.506822 54.738717 
L 85.506822 56.535219 
L 86.223468 56.535219 
L 86.223468 53.011312 
L 86.940109 53.011312 
L 86.940109 51.422099 
L 87.656755 51.422099 
L 87.656755 50.869329 
L 88.373396 50.869329 
L 88.373396 49.76379 
L 89.090042 49.76379 
L 89.090042 50.247464 
L 89.806683 50.247464 
L 89.806683 49.971079 
L 90.523325 49.971079 
L 90.523325 51.21481 
L 91.23997 51.21481 
L 91.23997 51.145714 
L 91.956612 51.145714 
L 91.956612 51.21481 
L 92.673257 51.21481 
L 92.673257 49.556501 
L 93.389899 49.556501 
L 93.389899 52.665831 
L 94.106544 52.665831 
L 94.106544 48.381866 
L 94.823186 48.381866 
L 94.823186 48.174577 
L 95.539832 48.174577 
L 95.539832 46.032595 
L 96.256473 46.032595 
L 96.256473 49.003732 
L 96.973119 49.003732 
L 96.973119 42.025015 
L 97.68976 42.025015 
L 97.68976 30.831429 
L 98.406406 30.831429 
L 98.406406 40.228513 
L 99.123047 40.228513 
L 99.123047 71.46 
" clip-path="url(#pe0dd578095)" style="fill: none; stroke: #000080; stroke-linejoin: miter"/>
   </g>
   <g id="patch_13">
    <path d="M 63.326761 76.46 
L 98.835852 76.46 
" style="fill: none; stroke: #000000; stroke-width: 1.5; stroke-linejoin: miter; stroke-linecap: square"/>
   </g>
  </g>
  <g id="axes_3">
   <g id="patch_14">
    <path d="M 116.590398 71.46 
L 152.099489 71.46 
L 152.099489 28.8 
L 116.590398 28.8 
z
" style="fill: #ffffff"/>
   </g>
   <g id="matplotlib.axis_5">
    <g id="xtick_5">
     <g id="line2d_5">
      <g>
       <use xlink:href="#m981559a605" x="116.590398" y="76.46" style="stroke: #000000; stroke-width: 1.5"/>
      </g>
     </g>
     <g id="text_7">
      <text style="font: 9px 'Arial', sans-serif; text-anchor: middle" x="116.590398" y="90.298594" transform="rotate(-0 116.590398 90.298594)">10</text>
     </g>
    </g>
    <g id="xtick_6">
     <g id="line2d_6">
      <g>
       <use xlink:href="#m981559a605" x="152.099489" y="76.46" style="stroke: #000000; stroke-width: 1.5"/>
      </g>
     </g>
     <g id="text_8">
      <text style="font: 9px 'Arial', sans-serif; text-anchor: middle" x="152.099489" y="90.298594" transform="rotate(-0 152.099489 90.298594)">30</text>
     </g>
    </g>
    <g id="text_9">
     <!-- $g_K$ -->
     <g transform="translate(129.214943 102.990625)">
      <text>
       <tspan style="font: 9px 'DejaVu Sans'" x="0" y="-0.953125">g</tspan>
       <tspan style="font: 6.3px 'DejaVu Sans'" x="5.799023" y="0.5234375">K</tspan>
      </text>
     </g>
    </g>
   </g>
   <g id="matplotlib.axis_6">
    <g id="ytick_5"/>
    <g id="ytick_6"/>
   </g>
   <g id="patch_15">
    <path d="M 118.549667 71.46 
L 118.549667 71.315671 
L 119.19429 71.315671 
L 119.19429 71.171342 
L 119.838914 71.171342 
L 119.838914 70.521862 
L 120.483539 70.521862 
L 120.483539 70.16104 
L 121.128163 70.16104 
L 121.128163 70.449698 
L 121.772786 70.449698 
L 121.772786 69.728054 
L 122.41741 69.728054 
L 122.41741 70.305369 
L 123.062034 70.305369 
L 123.062034 69.00641 
L 123.706659 69.00641 
L 123.706659 69.078574 
L 124.351283 69.078574 
L 124.351283 69.511561 
L 124.995906 69.511561 
L 124.995906 68.573423 
L 125.64053 68.573423 
L 125.64053 69.511561 
L 126.285153 69.511561 
L 126.285153 68.573423 
L 126.929779 68.573423 
L 126.929779 67.923943 
L 127.574401 67.923943 
L 127.574401 67.346628 
L 128.219028 67.346628 
L 128.219028 66.985806 
L 128.863651 66.985806 
L 128.863651 65.181695 
L 129.508275 65.181695 
L 129.508275 65.181695 
L 130.152898 65.181695 
L 130.152898 63.30542 
L 130.797522 63.30542 
L 130.797522 64.60438 
L 131.442146 64.60438 
L 131.442146 60.346679 
L 132.086769 60.346679 
L 132.086769 61.789967 
L 132.731393 61.789967 
L 132.731393 60.346679 
L 133.376017 60.346679 
L 133.376017 60.346679 
L 134.02064 60.346679 
L 134.02064 59.913692 
L 134.665264 59.913692 
L 134.665264 57.243608 
L 135.309891 57.243608 
L 135.309891 57.027115 
L 135.954514 57.027115 
L 135.954514 53.924045 
L 136.599138 53.924045 
L 136.599138 52.985907 
L 137.243762 52.985907 
L 137.243762 50.315823 
L 137.888385 50.315823 
L 137.888385 50.676646 
L 138.533009 50.676646 
L 138.533009 48.511713 
L 139.177632 48.511713 
L 139.177632 48.728206 
L 139.822256 48.728206 
L 139.822256 46.058122 
L 140.46688 46.058122 
L 140.46688 45.04782 
L 141.111507 45.04782 
L 141.111507 46.130287 
L 141.75613 46.130287 
L 141.75613 41.439599 
L 142.400754 41.439599 
L 142.400754 41.583928 
L 143.045378 41.583928 
L 143.045378 41.367435 
L 143.690001 41.367435 
L 143.690001 41.367435 
L 144.334625 41.367435 
L 144.334625 40.140639 
L 144.979248 40.140639 
L 144.979248 41.006613 
L 145.623872 41.006613 
L 145.623872 40.64579 
L 146.268496 40.64579 
L 146.268496 37.109734 
L 146.913119 37.109734 
L 146.913119 39.202502 
L 147.557743 39.202502 
L 147.557743 30.831429 
L 148.20237 30.831429 
L 148.20237 34.944801 
L 148.846993 34.944801 
L 148.846993 54.573524 
L 149.491617 54.573524 
L 149.491617 68.140436 
L 150.136241 68.140436 
L 150.136241 71.171342 
L 150.780864 71.171342 
L 150.780864 71.46 
" clip-path="url(#p6129d32b78)" style="fill: none; stroke: #000080; stroke-linejoin: miter"/>
   </g>
   <g id="patch_16">
    <path d="M 118.549667 71.46 
L 118.549667 71.315671 
L 119.19429 71.315671 
L 119.19429 71.171342 
L 119.838914 71.171342 
L 119.838914 70.521862 
L 120.483539 70.521862 
L 120.483539 70.16104 
L 121.128163 70.16104 
L 121.128163 70.449698 
L 121.772786 70.449698 
L 121.772786 69.728054 
L 122.41741 69.728054 
L 122.41741 70.305369 
L 123.062034 70.305369 
L 123.062034 69.00641 
L 123.706659 69.00641 
L 123.706659 69.078574 
L 124.351283 69.078574 
L 124.351283 69.511561 
L 124.995906 69.511561 
L 124.995906 68.573423 
L 125.64053 68.573423 
L 125.64053 69.511561 
L 126.285153 69.511561 
L 126.285153 68.573423 
L 126.929779 68.573423 
L 126.929779 67.923943 
L 127.574401 67.923943 
L 127.574401 67.346628 
L 128.219028 67.346628 
L 128.219028 66.985806 
L 128.863651 66.985806 
L 128.863651 65.181695 
L 129.508275 65.181695 
L 129.508275 65.181695 
L 130.152898 65.181695 
L 130.152898 63.30542 
L 130.797522 63.30542 
L 130.797522 64.60438 
L 131.442146 64.60438 
L 131.442146 60.346679 
L 132.086769 60.346679 
L 132.086769 61.789967 
L 132.731393 61.789967 
L 132.731393 60.346679 
L 133.376017 60.346679 
L 133.376017 60.346679 
L 134.02064 60.346679 
L 134.02064 59.913692 
L 134.665264 59.913692 
L 134.665264 57.243608 
L 135.309891 57.243608 
L 135.309891 57.027115 
L 135.954514 57.027115 
L 135.954514 53.924045 
L 136.599138 53.924045 
L 136.599138 52.985907 
L 137.243762 52.985907 
L 137.243762 50.315823 
L 137.888385 50.315823 
L 137.888385 50.676646 
L 138.533009 50.676646 
L 138.533009 48.511713 
L 139.177632 48.511713 
L 139.177632 48.728206 
L 139.822256 48.728206 
L 139.822256 46.058122 
L 140.46688 46.058122 
L 140.46688 45.04782 
L 141.111507 45.04782 
L 141.111507 46.130287 
L 141.75613 46.130287 
L 141.75613 41.439599 
L 142.400754 41.439599 
L 142.400754 41.583928 
L 143.045378 41.583928 
L 143.045378 41.367435 
L 143.690001 41.367435 
L 143.690001 41.367435 
L 144.334625 41.367435 
L 144.334625 40.140639 
L 144.979248 40.140639 
L 144.979248 41.006613 
L 145.623872 41.006613 
L 145.623872 40.64579 
L 146.268496 40.64579 
L 146.268496 37.109734 
L 146.913119 37.109734 
L 146.913119 39.202502 
L 147.557743 39.202502 
L 147.557743 30.831429 
L 148.20237 30.831429 
L 148.20237 34.944801 
L 148.846993 34.944801 
L 148.846993 54.573524 
L 149.491617 54.573524 
L 149.491617 68.140436 
L 150.136241 68.140436 
L 150.136241 71.171342 
L 150.780864 71.171342 
L 150.780864 71.46 
" clip-path="url(#p6129d32b78)" style="fill: none; stroke: #000080; stroke-linejoin: miter"/>
   </g>
   <g id="patch_17">
    <path d="M 118.549667 71.46 
L 118.549667 71.315671 
L 119.19429 71.315671 
L 119.19429 71.171342 
L 119.838914 71.171342 
L 119.838914 70.521862 
L 120.483539 70.521862 
L 120.483539 70.16104 
L 121.128163 70.16104 
L 121.128163 70.449698 
L 121.772786 70.449698 
L 121.772786 69.728054 
L 122.41741 69.728054 
L 122.41741 70.305369 
L 123.062034 70.305369 
L 123.062034 69.00641 
L 123.706659 69.00641 
L 123.706659 69.078574 
L 124.351283 69.078574 
L 124.351283 69.511561 
L 124.995906 69.511561 
L 124.995906 68.573423 
L 125.64053 68.573423 
L 125.64053 69.511561 
L 126.285153 69.511561 
L 126.285153 68.573423 
L 126.929779 68.573423 
L 126.929779 67.923943 
L 127.574401 67.923943 
L 127.574401 67.346628 
L 128.219028 67.346628 
L 128.219028 66.985806 
L 128.863651 66.985806 
L 128.863651 65.181695 
L 129.508275 65.181695 
L 129.508275 65.181695 
L 130.152898 65.181695 
L 130.152898 63.30542 
L 130.797522 63.30542 
L 130.797522 64.60438 
L 131.442146 64.60438 
L 131.442146 60.346679 
L 132.086769 60.346679 
L 132.086769 61.789967 
L 132.731393 61.789967 
L 132.731393 60.346679 
L 133.376017 60.346679 
L 133.376017 60.346679 
L 134.02064 60.346679 
L 134.02064 59.913692 
L 134.665264 59.913692 
L 134.665264 57.243608 
L 135.309891 57.243608 
L 135.309891 57.027115 
L 135.954514 57.027115 
L 135.954514 53.924045 
L 136.599138 53.924045 
L 136.599138 52.985907 
L 137.243762 52.985907 
L 137.243762 50.315823 
L 137.888385 50.315823 
L 137.888385 50.676646 
L 138.533009 50.676646 
L 138.533009 48.511713 
L 139.177632 48.511713 
L 139.177632 48.728206 
L 139.822256 48.728206 
L 139.822256 46.058122 
L 140.46688 46.058122 
L 140.46688 45.04782 
L 141.111507 45.04782 
L 141.111507 46.130287 
L 141.75613 46.130287 
L 141.75613 41.439599 
L 142.400754 41.439599 
L 142.400754 41.583928 
L 143.045378 41.583928 
L 143.045378 41.367435 
L 143.690001 41.367435 
L 143.690001 41.367435 
L 144.334625 41.367435 
L 144.334625 40.140639 
L 144.979248 40.140639 
L 144.979248 41.006613 
L 145.623872 41.006613 
L 145.623872 40.64579 
L 146.268496 40.64579 
L 146.268496 37.109734 
L 146.913119 37.109734 
L 146.913119 39.202502 
L 147.557743 39.202502 
L 147.557743 30.831429 
L 148.20237 30.831429 
L 148.20237 34.944801 
L 148.846993 34.944801 
L 148.846993 54.573524 
L 149.491617 54.573524 
L 149.491617 68.140436 
L 150.136241 68.140436 
L 150.136241 71.171342 
L 150.780864 71.171342 
L 150.780864 71.46 
" clip-path="url(#p6129d32b78)" style="fill: none; stroke: #000080; stroke-linejoin: miter"/>
   </g>
   <g id="patch_18">
    <path d="M 118.549667 71.46 
L 118.549667 71.315671 
L 119.19429 71.315671 
L 119.19429 71.171342 
L 119.838914 71.171342 
L 119.838914 70.521862 
L 120.483539 70.521862 
L 120.483539 70.16104 
L 121.128163 70.16104 
L 121.128163 70.449698 
L 121.772786 70.449698 
L 121.772786 69.728054 
L 122.41741 69.728054 
L 122.41741 70.305369 
L 123.062034 70.305369 
L 123.062034 69.00641 
L 123.706659 69.00641 
L 123.706659 69.078574 
L 124.351283 69.078574 
L 124.351283 69.511561 
L 124.995906 69.511561 
L 124.995906 68.573423 
L 125.64053 68.573423 
L 125.64053 69.511561 
L 126.285153 69.511561 
L 126.285153 68.573423 
L 126.929779 68.573423 
L 126.929779 67.923943 
L 127.574401 67.923943 
L 127.574401 67.346628 
L 128.219028 67.346628 
L 128.219028 66.985806 
L 128.863651 66.985806 
L 128.863651 65.181695 
L 129.508275 65.181695 
L 129.508275 65.181695 
L 130.152898 65.181695 
L 130.152898 63.30542 
L 130.797522 63.30542 
L 130.797522 64.60438 
L 131.442146 64.60438 
L 131.442146 60.346679 
L 132.086769 60.346679 
L 132.086769 61.789967 
L 132.731393 61.789967 
L 132.731393 60.346679 
L 133.376017 60.346679 
L 133.376017 60.346679 
L 134.02064 60.346679 
L 134.02064 59.913692 
L 134.665264 59.913692 
L 134.665264 57.243608 
L 135.309891 57.243608 
L 135.309891 57.027115 
L 135.954514 57.027115 
L 135.954514 53.924045 
L 136.599138 53.924045 
L 136.599138 52.985907 
L 137.243762 52.985907 
L 137.243762 50.315823 
L 137.888385 50.315823 
L 137.888385 50.676646 
L 138.533009 50.676646 
L 138.533009 48.511713 
L 139.177632 48.511713 
L 139.177632 48.728206 
L 139.822256 48.728206 
L 139.822256 46.058122 
L 140.46688 46.058122 
L 140.46688 45.04782 
L 141.111507 45.04782 
L 141.111507 46.130287 
L 141.75613 46.130287 
L 141.75613 41.439599 
L 142.400754 41.439599 
L 142.400754 41.583928 
L 143.045378 41.583928 
L 143.045378 41.367435 
L 143.690001 41.367435 
L 143.690001 41.367435 
L 144.334625 41.367435 
L 144.334625 40.140639 
L 144.979248 40.140639 
L 144.979248 41.006613 
L 145.623872 41.006613 
L 145.623872 40.64579 
L 146.268496 40.64579 
L 146.268496 37.109734 
L 146.913119 37.109734 
L 146.913119 39.202502 
L 147.557743 39.202502 
L 147.557743 30.831429 
L 148.20237 30.831429 
L 148.20237 34.944801 
L 148.846993 34.944801 
L 148.846993 54.573524 
L 149.491617 54.573524 
L 149.491617 68.140436 
L 150.136241 68.140436 
L 150.136241 71.171342 
L 150.780864 71.171342 
L 150.780864 71.46 
" clip-path="url(#p6129d32b78)" style="fill: none; stroke: #000080; stroke-linejoin: miter"/>
   </g>
   <g id="patch_19">
    <path d="M 116.590398 76.46 
L 152.099489 76.46 
" style="fill: none; stroke: #000000; stroke-width: 1.5; stroke-linejoin: miter; stroke-linecap: square"/>
   </g>
  </g>
  <g id="axes_4">
   <g id="patch_20">
    <path d="M 169.854034 71.46 
L 205.363125 71.46 
L 205.363125 28.8 
L 169.854034 28.8 
z
" style="fill: #ffffff"/>
   </g>
   <g id="matplotlib.axis_7">
    <g id="xtick_7">
     <g id="line2d_7">
      <g>
       <use xlink:href="#m981559a605" x="169.854034" y="76.46" style="stroke: #000000; stroke-width: 1.5"/>
      </g>
     </g>
     <g id="text_10">
      <text style="font: 9px 'Arial', sans-serif; text-anchor: middle" x="169.854034" y="90.298594" transform="rotate(-0 169.854034 90.298594)">0.1</text>
     </g>
    </g>
    <g id="xtick_8">
     <g id="line2d_8">
      <g>
       <use xlink:href="#m981559a605" x="205.363125" y="76.46" style="stroke: #000000; stroke-width: 1.5"/>
      </g>
     </g>
     <g id="text_11">
      <text style="font: 9px 'Arial', sans-serif; text-anchor: middle" x="205.363125" y="90.298594" transform="rotate(-0 205.363125 90.298594)">0.5</text>
     </g>
    </g>
    <g id="text_12">
     <!-- $g_L$ -->
     <g transform="translate(182.79358 102.990625)">
      <text>
       <tspan style="font: 9px 'DejaVu Sans'" x="0" y="-0.953125">g</tspan>
       <tspan style="font: 6.3px 'DejaVu Sans'" x="5.799023" y="0.5234375">L</tspan>
      </text>
     </g>
    </g>
   </g>
   <g id="matplotlib.axis_8">
    <g id="ytick_7"/>
    <g id="ytick_8"/>
   </g>
   <g id="patch_21">
    <path d="M 188.833051 71.46 
L 188.833051 71.291766 
L 189.032402 71.291766 
L 189.032402 71.039414 
L 189.231751 71.039414 
L 189.231751 71.039414 
L 189.431102 71.039414 
L 189.431102 70.955297 
L 189.630453 70.955297 
L 189.630453 70.366477 
L 189.829804 70.366477 
L 189.829804 69.945892 
L 190.029153 69.945892 
L 190.029153 69.69354 
L 190.228504 69.69354 
L 190.228504 69.020603 
L 190.427855 69.020603 
L 190.427855 67.927081 
L 190.627206 67.927081 
L 190.627206 67.674729 
L 190.826555 67.674729 
L 190.826555 66.49709 
L 191.025906 66.49709 
L 191.025906 64.562396 
L 191.225257 64.562396 
L 191.225257 64.14181 
L 191.424608 64.14181 
L 191.424608 62.711819 
L 191.623956 62.711819 
L 191.623956 60.104188 
L 191.823307 60.104188 
L 191.823307 62.038882 
L 192.022659 62.038882 
L 192.022659 57.917143 
L 192.22201 57.917143 
L 192.22201 59.010665 
L 192.421358 59.010665 
L 192.421358 54.384224 
L 192.620709 54.384224 
L 192.620709 54.215989 
L 192.82006 54.215989 
L 192.82006 52.281295 
L 193.019412 52.281295 
L 193.019412 50.598953 
L 193.21876 50.598953 
L 193.21876 45.972511 
L 193.418111 45.972511 
L 193.418111 46.981917 
L 193.617462 46.981917 
L 193.617462 43.9537 
L 193.816813 43.9537 
L 193.816813 43.028412 
L 194.016162 43.028412 
L 194.016162 44.963106 
L 194.215513 44.963106 
L 194.215513 43.196646 
L 194.414864 43.196646 
L 194.414864 38.149618 
L 194.614213 38.149618 
L 194.614213 37.729033 
L 194.813564 37.729033 
L 194.813564 37.140213 
L 195.012915 37.140213 
L 195.012915 32.345537 
L 195.212266 32.345537 
L 195.212266 31.167897 
L 195.411615 31.167897 
L 195.411615 30.915546 
L 195.610966 30.915546 
L 195.610966 30.831429 
L 195.810317 30.831429 
L 195.810317 34.111996 
L 196.009668 34.111996 
L 196.009668 32.177303 
L 196.209016 32.177303 
L 196.209016 34.616699 
L 196.408367 34.616699 
L 196.408367 38.906673 
L 196.607719 38.906673 
L 196.607719 43.9537 
L 196.80707 43.9537 
L 196.80707 46.30898 
L 197.006418 46.30898 
L 197.006418 50.346602 
L 197.205769 50.346602 
L 197.205769 58.253611 
L 197.40512 58.253611 
L 197.40512 62.627702 
L 197.604472 62.627702 
L 197.604472 65.740035 
L 197.80382 65.740035 
L 197.80382 68.347666 
L 198.003171 68.347666 
L 198.003171 69.441189 
L 198.202522 69.441189 
L 198.202522 70.87118 
L 198.401873 70.87118 
L 198.401873 71.039414 
L 198.601222 71.039414 
L 198.601222 71.291766 
L 198.800573 71.291766 
L 198.800573 71.46 
" clip-path="url(#pbbe2885d88)" style="fill: none; stroke: #000080; stroke-linejoin: miter"/>
   </g>
   <g id="patch_22">
    <path d="M 188.833051 71.46 
L 188.833051 71.291766 
L 189.032402 71.291766 
L 189.032402 71.039414 
L 189.231751 71.039414 
L 189.231751 71.039414 
L 189.431102 71.039414 
L 189.431102 70.955297 
L 189.630453 70.955297 
L 189.630453 70.366477 
L 189.829804 70.366477 
L 189.829804 69.945892 
L 190.029153 69.945892 
L 190.029153 69.69354 
L 190.228504 69.69354 
L 190.228504 69.020603 
L 190.427855 69.020603 
L 190.427855 67.927081 
L 190.627206 67.927081 
L 190.627206 67.674729 
L 190.826555 67.674729 
L 190.826555 66.49709 
L 191.025906 66.49709 
L 191.025906 64.562396 
L 191.225257 64.562396 
L 191.225257 64.14181 
L 191.424608 64.14181 
L 191.424608 62.711819 
L 191.623956 62.711819 
L 191.623956 60.104188 
L 191.823307 60.104188 
L 191.823307 62.038882 
L 192.022659 62.038882 
L 192.022659 57.917143 
L 192.22201 57.917143 
L 192.22201 59.010665 
L 192.421358 59.010665 
L 192.421358 54.384224 
L 192.620709 54.384224 
L 192.620709 54.215989 
L 192.82006 54.215989 
L 192.82006 52.281295 
L 193.019412 52.281295 
L 193.019412 50.598953 
L 193.21876 50.598953 
L 193.21876 45.972511 
L 193.418111 45.972511 
L 193.418111 46.981917 
L 193.617462 46.981917 
L 193.617462 43.9537 
L 193.816813 43.9537 
L 193.816813 43.028412 
L 194.016162 43.028412 
L 194.016162 44.963106 
L 194.215513 44.963106 
L 194.215513 43.196646 
L 194.414864 43.196646 
L 194.414864 38.149618 
L 194.614213 38.149618 
L 194.614213 37.729033 
L 194.813564 37.729033 
L 194.813564 37.140213 
L 195.012915 37.140213 
L 195.012915 32.345537 
L 195.212266 32.345537 
L 195.212266 31.167897 
L 195.411615 31.167897 
L 195.411615 30.915546 
L 195.610966 30.915546 
L 195.610966 30.831429 
L 195.810317 30.831429 
L 195.810317 34.111996 
L 196.009668 34.111996 
L 196.009668 32.177303 
L 196.209016 32.177303 
L 196.209016 34.616699 
L 196.408367 34.616699 
L 196.408367 38.906673 
L 196.607719 38.906673 
L 196.607719 43.9537 
L 196.80707 43.9537 
L 196.80707 46.30898 
L 197.006418 46.30898 
L 197.006418 50.346602 
L 197.205769 50.346602 
L 197.205769 58.253611 
L 197.40512 58.253611 
L 197.40512 62.627702 
L 197.604472 62.627702 
L 197.604472 65.740035 
L 197.80382 65.740035 
L 197.80382 68.347666 
L 198.003171 68.347666 
L 198.003171 69.441189 
L 198.202522 69.441189 
L 198.202522 70.87118 
L 198.401873 70.87118 
L 198.401873 71.039414 
L 198.601222 71.039414 
L 198.601222 71.291766 
L 198.800573 71.291766 
L 198.800573 71.46 
" clip-path="url(#pbbe2885d88)" style="fill: none; stroke: #000080; stroke-linejoin: miter"/>
   </g>
   <g id="patch_23">
    <path d="M 188.833051 71.46 
L 188.833051 71.291766 
L 189.032402 71.291766 
L 189.032402 71.039414 
L 189.231751 71.039414 
L 189.231751 71.039414 
L 189.431102 71.039414 
L 189.431102 70.955297 
L 189.630453 70.955297 
L 189.630453 70.366477 
L 189.829804 70.366477 
L 189.829804 69.945892 
L 190.029153 69.945892 
L 190.029153 69.69354 
L 190.228504 69.69354 
L 190.228504 69.020603 
L 190.427855 69.020603 
L 190.427855 67.927081 
L 190.627206 67.927081 
L 190.627206 67.674729 
L 190.826555 67.674729 
L 190.826555 66.49709 
L 191.025906 66.49709 
L 191.025906 64.562396 
L 191.225257 64.562396 
L 191.225257 64.14181 
L 191.424608 64.14181 
L 191.424608 62.711819 
L 191.623956 62.711819 
L 191.623956 60.104188 
L 191.823307 60.104188 
L 191.823307 62.038882 
L 192.022659 62.038882 
L 192.022659 57.917143 
L 192.22201 57.917143 
L 192.22201 59.010665 
L 192.421358 59.010665 
L 192.421358 54.384224 
L 192.620709 54.384224 
L 192.620709 54.215989 
L 192.82006 54.215989 
L 192.82006 52.281295 
L 193.019412 52.281295 
L 193.019412 50.598953 
L 193.21876 50.598953 
L 193.21876 45.972511 
L 193.418111 45.972511 
L 193.418111 46.981917 
L 193.617462 46.981917 
L 193.617462 43.9537 
L 193.816813 43.9537 
L 193.816813 43.028412 
L 194.016162 43.028412 
L 194.016162 44.963106 
L 194.215513 44.963106 
L 194.215513 43.196646 
L 194.414864 43.196646 
L 194.414864 38.149618 
L 194.614213 38.149618 
L 194.614213 37.729033 
L 194.813564 37.729033 
L 194.813564 37.140213 
L 195.012915 37.140213 
L 195.012915 32.345537 
L 195.212266 32.345537 
L 195.212266 31.167897 
L 195.411615 31.167897 
L 195.411615 30.915546 
L 195.610966 30.915546 
L 195.610966 30.831429 
L 195.810317 30.831429 
L 195.810317 34.111996 
L 196.009668 34.111996 
L 196.009668 32.177303 
L 196.209016 32.177303 
L 196.209016 34.616699 
L 196.408367 34.616699 
L 196.408367 38.906673 
L 196.607719 38.906673 
L 196.607719 43.9537 
L 196.80707 43.9537 
L 196.80707 46.30898 
L 197.006418 46.30898 
L 197.006418 50.346602 
L 197.205769 50.346602 
L 197.205769 58.253611 
L 197.40512 58.253611 
L 197.40512 62.627702 
L 197.604472 62.627702 
L 197.604472 65.740035 
L 197.80382 65.740035 
L 197.80382 68.347666 
L 198.003171 68.347666 
L 198.003171 69.441189 
L 198.202522 69.441189 
L 198.202522 70.87118 
L 198.401873 70.87118 
L 198.401873 71.039414 
L 198.601222 71.039414 
L 198.601222 71.291766 
L 198.800573 71.291766 
L 198.800573 71.46 
" clip-path="url(#pbbe2885d88)" style="fill: none; stroke: #000080; stroke-linejoin: miter"/>
   </g>
   <g id="patch_24">
    <path d="M 188.833051 71.46 
L 188.833051 71.291766 
L 189.032402 71.291766 
L 189.032402 71.039414 
L 189.231751 71.039414 
L 189.231751 71.039414 
L 189.431102 71.039414 
L 189.431102 70.955297 
L 189.630453 70.955297 
L 189.630453 70.366477 
L 189.829804 70.366477 
L 189.829804 69.945892 
L 190.029153 69.945892 
L 190.029153 69.69354 
L 190.228504 69.69354 
L 190.228504 69.020603 
L 190.427855 69.020603 
L 190.427855 67.927081 
L 190.627206 67.927081 
L 190.627206 67.674729 
L 190.826555 67.674729 
L 190.826555 66.49709 
L 191.025906 66.49709 
L 191.025906 64.562396 
L 191.225257 64.562396 
L 191.225257 64.14181 
L 191.424608 64.14181 
L 191.424608 62.711819 
L 191.623956 62.711819 
L 191.623956 60.104188 
L 191.823307 60.104188 
L 191.823307 62.038882 
L 192.022659 62.038882 
L 192.022659 57.917143 
L 192.22201 57.917143 
L 192.22201 59.010665 
L 192.421358 59.010665 
L 192.421358 54.384224 
L 192.620709 54.384224 
L 192.620709 54.215989 
L 192.82006 54.215989 
L 192.82006 52.281295 
L 193.019412 52.281295 
L 193.019412 50.598953 
L 193.21876 50.598953 
L 193.21876 45.972511 
L 193.418111 45.972511 
L 193.418111 46.981917 
L 193.617462 46.981917 
L 193.617462 43.9537 
L 193.816813 43.9537 
L 193.816813 43.028412 
L 194.016162 43.028412 
L 194.016162 44.963106 
L 194.215513 44.963106 
L 194.215513 43.196646 
L 194.414864 43.196646 
L 194.414864 38.149618 
L 194.614213 38.149618 
L 194.614213 37.729033 
L 194.813564 37.729033 
L 194.813564 37.140213 
L 195.012915 37.140213 
L 195.012915 32.345537 
L 195.212266 32.345537 
L 195.212266 31.167897 
L 195.411615 31.167897 
L 195.411615 30.915546 
L 195.610966 30.915546 
L 195.610966 30.831429 
L 195.810317 30.831429 
L 195.810317 34.111996 
L 196.009668 34.111996 
L 196.009668 32.177303 
L 196.209016 32.177303 
L 196.209016 34.616699 
L 196.408367 34.616699 
L 196.408367 38.906673 
L 196.607719 38.906673 
L 196.607719 43.9537 
L 196.80707 43.9537 
L 196.80707 46.30898 
L 197.006418 46.30898 
L 197.006418 50.346602 
L 197.205769 50.346602 
L 197.205769 58.253611 
L 197.40512 58.253611 
L 197.40512 62.627702 
L 197.604472 62.627702 
L 197.604472 65.740035 
L 197.80382 65.740035 
L 197.80382 68.347666 
L 198.003171 68.347666 
L 198.003171 69.441189 
L 198.202522 69.441189 
L 198.202522 70.87118 
L 198.401873 70.87118 
L 198.401873 71.039414 
L 198.601222 71.039414 
L 198.601222 71.291766 
L 198.800573 71.291766 
L 198.800573 71.46 
" clip-path="url(#pbbe2885d88)" style="fill: none; stroke: #000080; stroke-linejoin: miter"/>
   </g>
   <g id="patch_25">
    <path d="M 169.854034 76.46 
L 205.363125 76.46 
" style="fill: none; stroke: #000000; stroke-width: 1.5; stroke-linejoin: miter; stroke-linecap: square"/>
   </g>
  </g>
  <g id="text_13">
   <text style="font: 9px 'Arial', sans-serif; text-anchor: middle" x="104.563125" y="14.038594" transform="rotate(-0 104.563125 14.038594)">Marginal posterior (first 4 parameters)</text>
  </g>
 </g>
 <defs>
  <clipPath id="p697c9e9a7d">
   <rect x="10.063125" y="28.8" width="35.509091" height="42.66"/>
  </clipPath>
  <clipPath id="pe0dd578095">
   <rect x="63.326761" y="28.8" width="35.509091" height="42.66"/>
  </clipPath>
  <clipPath id="p6129d32b78">
   <rect x="116.590398" y="28.8" width="35.509091" height="42.66"/>
  </clipPath>
  <clipPath id="pbbe2885d88">
   <rect x="169.854034" y="28.8" width="35.509091" height="42.66"/>
  </clipPath>
 </defs>
</svg>
