<?xml version="1.0" encoding="utf-8" standalone="no"?>
<!DOCTYPE svg PUBLIC "-//W3C//DTD SVG 1.1//EN"
  "http://www.w3.org/Graphics/SVG/1.1/DTD/svg11.dtd">
<svg xmlns:xlink="http://www.w3.org/1999/xlink" width="159.689531pt" height="112.100312pt" viewBox="0 0 159.689531 112.100312" xmlns="http://www.w3.org/2000/svg" version="1.1">
 <metadata>
  <rdf:RDF xmlns:dc="http://purl.org/dc/elements/1.1/" xmlns:cc="http://creativecommons.org/ns#" xmlns:rdf="http://www.w3.org/1999/02/22-rdf-syntax-ns#">
   <cc:Work>
    <dc:type rdf:resource="http://purl.org/dc/dcmitype/StillImage"/>
    <dc:date>2024-05-12T16:50:12.180071</dc:date>
    <dc:format>image/svg+xml</dc:format>
    <dc:creator>
     <cc:Agent>
      <dc:title>Matplotlib v3.8.4, https://matplotlib.org/</dc:title>
     </cc:Agent>
    </dc:creator>
   </cc:Work>
  </rdf:RDF>
 </metadata>
 <defs>
  <style type="text/css">*{stroke-linejoin: round; stroke-linecap: butt}</style>
 </defs>
 <g id="figure_1">
  <g id="patch_1">
   <path d="M 0 112.100312 
L 159.689531 112.100312 
L 159.689531 0 
L 0 0 
z
" style="fill: #ffffff"/>
  </g>
  <g id="axes_1">
   <g id="patch_2">
    <path d="M 31.244766 71.46 
L 131.684766 71.46 
L 131.684766 28.8 
L 31.244766 28.8 
z
" style="fill: #ffffff"/>
   </g>
   <g id="matplotlib.axis_1">
    <g id="xtick_1">
     <g id="line2d_1">
      <defs>
       <path id="mf110aab57b" d="M 0 0 
L 0 3.5 
" style="stroke: #000000; stroke-width: 1.5"/>
      </defs>
      <g>
       <use xlink:href="#mf110aab57b" x="31.244766" y="76.46" style="stroke: #000000; stroke-width: 1.5"/>
      </g>
     </g>
     <g id="text_1">
      <text style="font: 9px 'Arial', sans-serif; text-anchor: middle" x="31.244766" y="90.298594" transform="rotate(-0 31.244766 90.298594)">12</text>
     </g>
    </g>
    <g id="xtick_2">
     <g id="line2d_2">
      <g>
       <use xlink:href="#mf110aab57b" x="131.684766" y="76.46" style="stroke: #000000; stroke-width: 1.5"/>
      </g>
     </g>
     <g id="text_2">
      <text style="font: 9px 'Arial', sans-serif; text-anchor: middle" x="131.684766" y="90.298594" transform="rotate(-0 131.684766 90.298594)">24</text>
     </g>
    </g>
    <g id="text_3">
     <!-- Energy [$\mu$J/s] -->
     <g transform="translate(52.619766 103.010312)">
      <text>
       <tspan style="font: 9px 'DejaVu Sans'" x="0 5.686523 11.390625 16.927734 20.62793 26.34082 31.666992 34.527832 38.039062 43.765137 46.419434 49.45166 54.140625" y="-0.15625">Energy [μJ/s]</tspan>
      </text>
     </g>
    </g>
   </g>
   <g id="matplotlib.axis_2">
    <g id="ytick_1"/>
    <g id="ytick_2"/>
   </g>
   <g id="patch_3">
    <path d="M 51.930913 71.46 
L 51.930913 71.367869 
L 52.90209 71.367869 
L 52.90209 71.091475 
L 53.144886 71.091475 
L 53.144886 71.275737 
L 53.387682 71.275737 
L 53.387682 70.907212 
L 53.630478 70.907212 
L 53.630478 70.72295 
L 54.116063 70.81506 
L 54.116063 70.07803 
L 54.358859 70.07803 
L 54.358859 69.801636 
L 54.601655 69.801636 
L 54.601655 68.972455 
L 54.844451 68.972455 
L 54.844451 68.603929 
L 55.087248 68.603929 
L 55.087248 69.064586 
L 55.572832 69.156642 
L 55.572832 68.696061 
L 55.815628 68.696061 
L 55.815628 69.985899 
L 56.058424 69.985899 
L 56.058424 69.064586 
L 56.301221 69.064586 
L 56.301221 67.866879 
L 56.544017 67.866879 
L 56.544017 69.985899 
L 56.786813 69.985899 
L 56.786813 70.170119 
L 57.029601 70.170119 
L 57.029601 69.156717 
L 57.272398 69.156717 
L 57.272398 69.433111 
L 57.515194 69.433111 
L 57.515194 69.893768 
L 58.000786 69.985899 
L 58.000786 69.34098 
L 58.243582 69.34098 
L 58.243582 69.156642 
L 58.486371 69.156642 
L 58.486371 69.709505 
L 58.729167 69.709505 
L 58.729167 69.34098 
L 58.971963 69.34098 
L 58.971963 68.880323 
L 59.700352 68.972455 
L 59.700352 69.433045 
L 59.94314 69.433045 
L 59.94314 68.235404 
L 60.185936 68.235404 
L 60.185936 68.880323 
L 60.428732 68.880323 
L 60.428732 69.34098 
L 60.671529 69.34098 
L 60.671529 69.064586 
L 61.157121 69.156717 
L 61.157121 68.880239 
L 61.399909 68.880239 
L 61.399909 68.235404 
L 61.885502 68.235404 
L 61.885502 67.682616 
L 62.128298 67.682616 
L 62.128298 68.696061 
L 62.371094 68.696061 
L 62.371094 69.525243 
L 62.61389 69.525243 
L 62.61389 68.69597 
L 62.856679 68.69597 
L 62.856679 68.051142 
L 63.342271 68.143273 
L 63.342271 68.511798 
L 63.585067 68.511798 
L 63.585067 67.682616 
L 64.070652 67.774626 
L 64.070652 68.696061 
L 64.313448 68.696061 
L 64.313448 68.143273 
L 64.556244 68.143273 
L 64.556244 67.129686 
L 65.284625 67.22182 
L 65.284625 65.840175 
L 65.527429 65.840175 
L 65.527429 65.471268 
L 65.770217 65.471268 
L 65.770217 66.208688 
L 66.013022 66.208688 
L 66.013022 64.365656 
L 66.25581 64.365656 
L 66.25581 64.918462 
L 66.498598 64.918462 
L 66.498598 64.181866 
L 66.741402 64.181866 
L 66.741402 64.918462 
L 66.984191 64.918462 
L 66.984191 63.352711 
L 67.226995 63.352711 
L 67.226995 64.181387 
L 67.469783 64.181387 
L 67.469783 62.154432 
L 67.712571 62.154432 
L 67.712571 63.813353 
L 67.955375 63.813353 
L 67.955375 61.601626 
L 68.198164 61.601626 
L 68.198164 60.680991 
L 68.440968 60.680991 
L 68.440968 61.509492 
L 68.683756 61.509492 
L 68.683756 62.062915 
L 68.92656 62.062915 
L 68.92656 58.745461 
L 69.169349 58.745461 
L 69.169349 58.376924 
L 69.654941 58.285656 
L 69.654941 57.455581 
L 69.897729 57.455581 
L 69.897729 57.917143 
L 70.140533 57.917143 
L 70.140533 54.875819 
L 70.383322 54.875819 
L 70.383322 53.493804 
L 70.62611 53.493804 
L 70.62611 58.009271 
L 70.868914 58.009271 
L 70.868914 49.900565 
L 71.111702 49.900565 
L 71.111702 53.587114 
L 71.354507 53.587114 
L 71.354507 52.664595 
L 71.597295 52.664595 
L 71.597295 50.915394 
L 71.840099 50.915394 
L 71.840099 53.678073 
L 72.082887 53.678073 
L 72.082887 51.190446 
L 72.325675 51.190446 
L 72.325675 46.124723 
L 72.56848 46.124723 
L 72.56848 48.334281 
L 72.811268 48.334281 
L 72.811268 44.558542 
L 73.054072 44.558542 
L 73.054072 44.096102 
L 73.29686 44.096102 
L 73.29686 42.898355 
L 73.539649 42.898355 
L 73.539649 44.282157 
L 73.782453 44.282157 
L 73.782453 41.792743 
L 74.025241 41.792743 
L 74.025241 40.689155 
L 74.268045 40.689155 
L 74.268045 40.226459 
L 74.510833 40.226459 
L 74.510833 39.122974 
L 74.753638 39.122974 
L 74.753638 36.817489 
L 74.996426 36.817489 
L 74.996426 37.923101 
L 75.239214 37.923101 
L 75.239214 32.766122 
L 75.482018 32.766122 
L 75.482018 38.291638 
L 75.724807 38.291638 
L 75.724807 51.09965 
L 75.967611 51.09965 
L 75.967611 64.365656 
L 76.210399 64.365656 
L 76.210399 71.46 
L 76.210399 71.46 
" clip-path="url(#pac39ebea2e)" style="fill: none; stroke: #1f77b4; stroke-linejoin: miter"/>
   </g>
   <g id="patch_4">
    <path d="M 43.967672 71.46 
L 43.967672 71.295535 
L 44.647728 71.295535 
L 44.647728 71.427107 
L 52.128322 71.361321 
L 52.128322 71.098176 
L 52.808378 71.098176 
L 52.808378 70.900818 
L 53.488434 70.900818 
L 53.488434 69.946919 
L 54.16849 69.946919 
L 54.16849 70.111368 
L 54.848538 70.111368 
L 54.848538 69.946919 
L 55.528594 69.946919 
L 55.528594 69.650881 
L 56.20865 69.650881 
L 56.20865 70.111384 
L 56.888707 70.111384 
L 56.888707 70.407409 
L 58.248811 70.341636 
L 58.248811 69.552202 
L 59.608923 69.486416 
L 59.608923 69.387712 
L 60.969027 69.32195 
L 60.969027 68.664089 
L 63.689244 68.565376 
L 63.689244 68.269372 
L 64.3693 68.269372 
L 64.3693 67.479938 
L 65.049356 67.479938 
L 65.049356 66.065536 
L 65.729412 66.065536 
L 65.729412 65.440568 
L 66.409468 65.440568 
L 66.409468 65.012958 
L 67.089524 65.012958 
L 67.089524 63.368115 
L 67.769564 63.368115 
L 67.769564 63.236732 
L 68.449621 63.236732 
L 68.449621 60.473715 
L 69.129677 60.473715 
L 69.129677 58.039627 
L 69.809733 58.039627 
L 69.809733 56.493653 
L 70.489789 56.493653 
L 70.489789 54.816106 
L 71.169845 54.816106 
L 71.169845 53.533277 
L 71.849901 53.533277 
L 71.849901 48.730888 
L 72.529957 48.730888 
L 72.529957 45.869191 
L 73.210013 45.869191 
L 73.210013 44.947563 
L 73.890054 44.947563 
L 73.890054 42.086488 
L 74.57011 42.086488 
L 74.57011 36.988062 
L 75.250166 36.988062 
L 75.250166 51.00051 
L 75.930222 51.00051 
L 75.930222 70.440315 
L 76.610278 70.440315 
L 76.610278 71.262642 
L 77.290334 71.262642 
L 77.290334 71.065283 
L 79.330502 70.966604 
L 79.330502 70.933699 
L 80.690599 70.999497 
L 80.690599 70.670566 
L 81.370655 70.670566 
L 81.370655 70.473208 
L 83.410823 70.538994 
L 83.410823 70.60478 
L 84.090879 70.60478 
L 84.090879 70.17717 
L 84.770935 70.17717 
L 84.770935 69.979777 
L 85.450976 69.979777 
L 85.450976 69.815346 
L 86.131032 69.815346 
L 86.131032 69.157485 
L 86.811088 69.157485 
L 86.811088 67.874655 
L 87.491144 67.874655 
L 87.491144 68.927234 
L 88.1712 68.927234 
L 88.1712 70.736352 
L 88.851256 70.736352 
L 88.851256 71.196855 
L 89.531312 71.196855 
L 89.531312 71.328428 
L 90.211368 71.328428 
L 90.211368 71.163962 
L 90.891424 71.163962 
L 90.891424 71.361318 
L 111.9731 71.427107 
L 111.9731 71.46 
" clip-path="url(#pac39ebea2e)" style="fill: none; stroke: #2ca02c; stroke-linejoin: miter"/>
   </g>
   <g id="line2d_3">
    <path d="M 76.251891 71.46 
L 76.251891 30.831429 
" clip-path="url(#pac39ebea2e)" style="fill: none; stroke: #ff0000; stroke-width: 1.5; stroke-linecap: square"/>
   </g>
   <g id="patch_5">
    <path d="M 31.244766 76.46 
L 131.684766 76.46 
" style="fill: none; stroke: #000000; stroke-width: 1.5; stroke-linejoin: miter; stroke-linecap: square"/>
   </g>
  </g>
  <g id="text_4">
   <text style="font: 9px 'Arial', sans-serif; text-anchor: middle" x="79.844766" y="14.038594" transform="rotate(-0 79.844766 14.038594)">Constrained posterior predicitve</text>
  </g>
 </g>
 <defs>
  <clipPath id="pac39ebea2e">
   <rect x="31.244766" y="28.8" width="100.44" height="42.66"/>
  </clipPath>
 </defs>
</svg>
