<?xml version="1.0" encoding="utf-8" standalone="no"?>
<!DOCTYPE svg PUBLIC "-//W3C//DTD SVG 1.1//EN"
  "http://www.w3.org/Graphics/SVG/1.1/DTD/svg11.dtd">
<svg xmlns:xlink="http://www.w3.org/1999/xlink" width="128.425781pt" height="112.100312pt" viewBox="0 0 128.425781 112.100312" xmlns="http://www.w3.org/2000/svg" version="1.1">
 <metadata>
  <rdf:RDF xmlns:dc="http://purl.org/dc/elements/1.1/" xmlns:cc="http://creativecommons.org/ns#" xmlns:rdf="http://www.w3.org/1999/02/22-rdf-syntax-ns#">
   <cc:Work>
    <dc:type rdf:resource="http://purl.org/dc/dcmitype/StillImage"/>
    <dc:date>2024-05-12T16:45:06.237086</dc:date>
    <dc:format>image/svg+xml</dc:format>
    <dc:creator>
     <cc:Agent>
      <dc:title>Matplotlib v3.8.4, https://matplotlib.org/</dc:title>
     </cc:Agent>
    </dc:creator>
   </cc:Work>
  </rdf:RDF>
 </metadata>
 <defs>
  <style type="text/css">*{stroke-linejoin: round; stroke-linecap: butt}</style>
 </defs>
 <g id="figure_1">
  <g id="patch_1">
   <path d="M 0 112.100312 
L 128.425781 112.100312 
L 128.425781 0 
L 0 0 
z
" style="fill: #ffffff"/>
  </g>
  <g id="axes_1">
   <g id="patch_2">
    <path d="M 15.059531 71.46 
L 115.499531 71.46 
L 115.499531 28.8 
L 15.059531 28.8 
z
" style="fill: #ffffff"/>
   </g>
   <g id="matplotlib.axis_1">
    <g id="xtick_1">
     <g id="line2d_1">
      <defs>
       <path id="m1f2ffbbe85" d="M 0 0 
L 0 3.5 
" style="stroke: #000000; stroke-width: 1.5"/>
      </defs>
      <g>
       <use xlink:href="#m1f2ffbbe85" x="15.059531" y="76.46" style="stroke: #000000; stroke-width: 1.5"/>
      </g>
     </g>
     <g id="text_1">
      <text style="font: 9px 'Arial', sans-serif; text-anchor: middle" x="15.059531" y="90.298594" transform="rotate(-0 15.059531 90.298594)">12</text>
     </g>
    </g>
    <g id="xtick_2">
     <g id="line2d_2">
      <g>
       <use xlink:href="#m1f2ffbbe85" x="115.499531" y="76.46" style="stroke: #000000; stroke-width: 1.5"/>
      </g>
     </g>
     <g id="text_2">
      <text style="font: 9px 'Arial', sans-serif; text-anchor: middle" x="115.499531" y="90.298594" transform="rotate(-0 115.499531 90.298594)">24</text>
     </g>
    </g>
    <g id="text_3">
     <!-- Energy [$\mu$J/s] -->
     <g transform="translate(36.434531 103.010312)">
      <text>
       <tspan style="font: 9px 'DejaVu Sans'" x="0 5.686523 11.390625 16.927734 20.62793 26.34082 31.666992 34.527832 38.039062 43.765137 46.419434 49.45166 54.140625" y="-0.15625">Energy [μJ/s]</tspan>
      </text>
     </g>
    </g>
   </g>
   <g id="matplotlib.axis_2">
    <g id="ytick_1"/>
    <g id="ytick_2"/>
   </g>
   <g id="patch_3">
    <path d="M 36.164228 71.46 
L 36.164228 71.282333 
L 36.89169 71.282333 
L 36.89169 71.46 
L 37.619161 71.46 
L 37.619161 71.282333 
L 38.346624 71.282333 
L 38.346624 71.46 
L 39.074087 71.46 
L 39.074087 70.749338 
L 39.801557 70.749338 
L 39.801557 70.571663 
L 40.52902 70.571663 
L 40.52902 69.860994 
L 41.256483 69.860994 
L 41.256483 69.328015 
L 42.711416 69.327992 
L 42.711416 68.617323 
L 43.438879 68.617323 
L 43.438879 67.729027 
L 44.16635 67.729027 
L 44.16635 68.617323 
L 44.893812 68.617323 
L 44.893812 67.728986 
L 45.621275 67.728986 
L 45.621275 66.307704 
L 46.348746 66.307704 
L 46.348746 67.373651 
L 47.076208 67.373651 
L 47.076208 66.485315 
L 47.803671 66.485315 
L 47.803671 65.952373 
L 48.531142 65.952373 
L 48.531142 67.018317 
L 49.258605 67.018317 
L 49.258605 65.241712 
L 49.986075 65.241712 
L 49.986075 64.708567 
L 50.71353 64.708567 
L 50.71353 63.820389 
L 51.441001 63.820389 
L 51.441001 64.53105 
L 52.168471 64.53105 
L 52.168471 65.063906 
L 52.895926 65.063906 
L 52.895926 65.241712 
L 53.623397 65.241712 
L 53.623397 61.510739 
L 54.350868 61.510739 
L 54.350868 62.576536 
L 55.078322 62.576536 
L 55.078322 64.53105 
L 55.805793 64.53105 
L 55.805793 60.267081 
L 56.533264 60.267081 
L 56.533264 60.799843 
L 57.260718 60.799843 
L 57.260718 60.622412 
L 57.988189 60.622412 
L 57.988189 62.399066 
L 58.71566 62.399066 
L 58.71566 60.089166 
L 59.443115 60.089166 
L 59.443115 60.444746 
L 60.170585 60.444746 
L 60.170585 57.424435 
L 60.898056 57.424435 
L 60.898056 58.667812 
L 61.625511 58.667812 
L 61.625511 58.845758 
L 62.352981 58.845758 
L 62.352981 56.713773 
L 63.807907 56.71345 
L 63.807907 54.759454 
L 64.535378 54.759454 
L 64.535378 55.470116 
L 65.262848 55.470116 
L 65.262848 53.515403 
L 65.990303 53.515403 
L 65.990303 55.470116 
L 66.717774 55.470116 
L 66.717774 53.693462 
L 67.445244 53.693462 
L 67.445244 47.296978 
L 68.172699 47.296978 
L 68.172699 52.449804 
L 68.90017 52.449804 
L 68.90017 49.962489 
L 69.627641 49.962489 
L 69.627641 50.850364 
L 70.355095 50.850364 
L 70.355095 50.140154 
L 71.082566 50.140154 
L 71.082566 46.409181 
L 71.810037 46.409181 
L 71.810037 49.429493 
L 72.537507 49.429493 
L 72.537507 48.007655 
L 73.264962 48.007655 
L 73.264962 45.165524 
L 73.992433 45.165524 
L 73.992433 49.074162 
L 75.447358 49.073671 
L 75.447358 48.00817 
L 76.174829 48.00817 
L 76.174829 43.744201 
L 76.9023 43.744201 
L 76.9023 49.784348 
L 77.629755 49.784348 
L 77.629755 44.987858 
L 78.357225 44.987858 
L 78.357225 48.00817 
L 79.084696 48.00817 
L 79.084696 45.520285 
L 79.812151 45.520285 
L 79.812151 45.165524 
L 80.539621 45.165524 
L 80.539621 43.744201 
L 81.267092 43.744201 
L 81.267092 42.499908 
L 81.994547 42.499908 
L 81.994547 40.368559 
L 82.722017 40.368559 
L 82.722017 42.500543 
L 83.449488 42.500543 
L 83.449488 41.78923 
L 84.176943 41.78923 
L 84.176943 38.236574 
L 84.904414 38.236574 
L 84.904414 39.302566 
L 85.631884 39.302566 
L 85.631884 43.388254 
L 86.359339 43.388254 
L 86.359339 41.434551 
L 87.08681 41.434551 
L 87.08681 38.947236 
L 87.81428 38.947236 
L 87.81428 38.058176 
L 88.541735 38.058176 
L 88.541735 43.566535 
L 89.269206 43.566535 
L 89.269206 38.591905 
L 89.996677 38.591905 
L 89.996677 41.078553 
L 90.724131 41.078553 
L 90.724131 40.190893 
L 91.451602 40.190893 
L 91.451602 40.368559 
L 92.179073 40.368559 
L 92.179073 39.301861 
L 92.906528 39.301861 
L 92.906528 41.07922 
L 93.633998 41.07922 
L 93.633998 40.901555 
L 94.361469 40.901555 
L 94.361469 38.235845 
L 95.088924 38.235845 
L 95.088924 36.104589 
L 95.816394 36.104589 
L 95.816394 40.368559 
L 96.543865 40.368559 
L 96.543865 38.058176 
L 97.27132 38.058176 
L 97.27132 40.368559 
L 97.998791 40.368559 
L 97.998791 39.302566 
L 98.726261 39.302566 
L 98.726261 36.814491 
L 99.453716 36.814491 
L 99.453716 39.835562 
L 100.181187 39.835562 
L 100.181187 34.327936 
L 101.636112 34.327121 
L 101.636112 38.591905 
L 102.363583 38.591905 
L 102.363583 43.744201 
L 103.091054 43.744201 
L 103.091054 49.606679 
L 103.818508 49.606679 
L 103.818508 59.734085 
L 104.545979 59.734085 
L 104.545979 65.952373 
L 105.27345 65.952373 
L 105.27345 67.728945 
L 106.000904 67.728945 
L 106.000904 70.038677 
L 106.728375 70.038677 
L 106.728375 70.749338 
L 107.455846 70.749338 
L 107.455846 71.46 
L 108.183301 71.46 
L 108.183301 71.282335 
L 108.910771 71.282335 
L 108.910771 71.46 
L 108.910771 71.46 
" clip-path="url(#p34e8c0ded9)" style="fill: none; stroke: #1f77b4; stroke-linejoin: miter"/>
   </g>
   <g id="patch_4">
    <path d="M 27.477747 71.46 
L 27.477747 71.307662 
L 28.326165 71.307662 
L 28.326165 71.46 
L 30.022993 71.46 
L 30.022993 71.30766 
L 31.71982 71.307662 
L 31.71982 71.46 
L 34.265058 71.46 
L 34.265058 71.155324 
L 35.961894 71.155324 
L 35.961894 71.46 
L 37.658721 71.46 
L 37.658721 71.30766 
L 38.507131 71.30766 
L 38.507131 71.002986 
L 39.355549 71.002986 
L 39.355549 70.698302 
L 40.203959 70.698302 
L 40.203959 69.631943 
L 41.052377 69.631943 
L 41.052377 69.936619 
L 41.900794 69.936619 
L 41.900794 69.631926 
L 42.749204 69.631926 
L 42.749204 67.042195 
L 43.597622 67.042195 
L 43.597622 68.717888 
L 44.446032 68.717888 
L 44.446032 68.565576 
L 45.29445 68.565576 
L 45.29445 66.432795 
L 46.142859 66.432795 
L 46.142859 67.194533 
L 46.991277 67.194533 
L 46.991277 66.585135 
L 47.839687 66.585135 
L 47.839687 67.651512 
L 48.688097 67.651512 
L 48.688097 65.518814 
L 49.536515 65.518814 
L 49.536515 66.128166 
L 50.384933 66.128166 
L 50.384933 64.452447 
L 51.23335 64.452447 
L 51.23335 65.214138 
L 52.081768 65.214138 
L 52.081768 64.756997 
L 52.93017 64.756997 
L 52.93017 63.233743 
L 53.778588 63.233743 
L 53.778588 64.147771 
L 54.627006 64.147771 
L 54.627006 64.452447 
L 55.475424 64.452447 
L 55.475424 60.186981 
L 56.323841 60.186981 
L 56.323841 61.557837 
L 57.172243 61.557837 
L 57.172243 61.8627 
L 58.020661 61.8627 
L 58.020661 62.167376 
L 58.869079 62.167376 
L 58.869079 59.42529 
L 59.717497 59.42529 
L 59.717497 59.577405 
L 60.565898 59.577405 
L 60.565898 58.511261 
L 61.414316 58.511261 
L 61.414316 58.815938 
L 62.262734 58.815938 
L 62.262734 58.206585 
L 63.111152 58.206585 
L 63.111152 55.464499 
L 63.95957 55.464499 
L 63.95957 56.530585 
L 64.807972 56.530585 
L 64.807972 53.78878 
L 65.656389 53.78878 
L 65.656389 57.292557 
L 66.504807 57.292557 
L 66.504807 52.722414 
L 67.353225 52.722414 
L 67.353225 50.741628 
L 68.201627 50.741628 
L 68.201627 51.046695 
L 69.898463 51.046695 
L 69.898463 53.02709 
L 70.74688 53.02709 
L 70.74688 48.304609 
L 71.595298 48.304609 
L 71.595298 46.933104 
L 72.4437 46.933104 
L 72.4437 47.085904 
L 73.292118 47.085904 
L 73.292118 47.695256 
L 74.140536 47.695256 
L 74.140536 48.761623 
L 74.988953 48.761623 
L 74.988953 47.390127 
L 75.837355 47.390127 
L 75.837355 47.085904 
L 76.685773 47.085904 
L 76.685773 45.867199 
L 77.534191 45.867199 
L 77.534191 46.324213 
L 78.382609 46.324213 
L 78.382609 44.95317 
L 79.231027 44.95317 
L 79.231027 45.866718 
L 80.927846 45.867199 
L 80.927846 41.297056 
L 81.776264 41.297056 
L 81.776264 39.164323 
L 82.624682 39.164323 
L 82.624682 40.534784 
L 83.473084 40.534784 
L 83.473084 43.582128 
L 84.321502 43.582128 
L 84.321502 35.508208 
L 85.169919 35.508208 
L 85.169919 43.277451 
L 86.018337 43.277451 
L 86.018337 40.687704 
L 86.866755 40.687704 
L 86.866755 39.92542 
L 87.715157 39.92542 
L 87.715157 39.773675 
L 88.563575 39.773675 
L 88.563575 41.144718 
L 89.411992 41.144718 
L 89.411992 39.164323 
L 90.26041 39.164323 
L 90.26041 41.449394 
L 91.108828 41.449394 
L 91.108828 39.620738 
L 91.95723 39.620738 
L 91.95723 36.574575 
L 92.805648 36.574575 
L 92.805648 40.078351 
L 93.654066 40.078351 
L 93.654066 43.429789 
L 94.502483 43.429789 
L 94.502483 33.070076 
L 95.350885 33.070076 
L 95.350885 39.468999 
L 96.199303 39.468999 
L 96.199303 40.078351 
L 97.047721 40.078351 
L 97.047721 39.926013 
L 97.896139 39.926013 
L 97.896139 37.183927 
L 98.744557 37.183927 
L 98.744557 38.097328 
L 99.592958 38.097328 
L 99.592958 37.488604 
L 100.441376 37.488604 
L 100.441376 32.766122 
L 101.289794 32.766122 
L 101.289794 37.79328 
L 102.138212 37.79328 
L 102.138212 41.448829 
L 102.986614 41.448829 
L 102.986614 51.960723 
L 103.835032 51.960723 
L 103.835032 60.643995 
L 104.683449 60.643995 
L 104.683449 67.651547 
L 105.531867 67.651547 
L 105.531867 69.479605 
L 106.380285 69.479605 
L 106.380285 70.241272 
L 107.228687 70.241272 
L 107.228687 71.002986 
L 108.077105 71.002986 
L 108.077105 70.850648 
L 108.925522 70.850648 
L 108.925522 71.46 
L 109.77394 71.46 
L 109.77394 71.307659 
L 112.319178 71.307662 
L 112.319178 71.46 
L 112.319178 71.46 
" clip-path="url(#p34e8c0ded9)" style="fill: none; stroke: #2ca02c; stroke-linejoin: miter"/>
   </g>
   <g id="line2d_3">
    <path clip-path="url(#p34e8c0ded9)" style="fill: none; stroke: #000000; stroke-width: 1.5; stroke-linecap: square"/>
   </g>
   <g id="patch_5">
    <path d="M 15.059531 76.46 
L 115.499531 76.46 
" style="fill: none; stroke: #000000; stroke-width: 1.5; stroke-linejoin: miter; stroke-linecap: square"/>
   </g>
  </g>
  <g id="text_4">
   <text style="font: 9px 'Arial', sans-serif; text-anchor: middle" x="63.659531" y="14.038594" transform="rotate(-0 63.659531 14.038594)">Posterior predictive</text>
  </g>
  <g id="legend_1">
   <g id="patch_6">
    <path d="M 10.8 27.538594 
L 28.8 27.538594 
L 28.8 21.238594 
L 10.8 21.238594 
L 10.8 27.538594 
z
" style="fill: none; stroke: #1f77b4; stroke-linejoin: miter"/>
   </g>
   <g id="text_5">
    <text style="font: 9px 'Arial', sans-serif; text-anchor: start" x="36" y="27.538594" transform="rotate(-0 36 27.538594)">Predicted</text>
   </g>
   <g id="patch_7">
    <path d="M 10.8 40.748906 
L 28.8 40.748906 
L 28.8 34.448906 
L 10.8 34.448906 
L 10.8 40.748906 
z
" style="fill: none; stroke: #2ca02c; stroke-linejoin: miter"/>
   </g>
   <g id="text_6">
    <text style="font: 9px 'Arial', sans-serif; text-anchor: start" x="36" y="40.748906" transform="rotate(-0 36 40.748906)">Simulated</text>
   </g>
  </g>
 </g>
 <defs>
  <clipPath id="p34e8c0ded9">
   <rect x="15.059531" y="28.8" width="100.44" height="42.66"/>
  </clipPath>
 </defs>
</svg>
