<?xml version="1.0" encoding="utf-8" standalone="no"?>
<!DOCTYPE svg PUBLIC "-//W3C//DTD SVG 1.1//EN"
  "http://www.w3.org/Graphics/SVG/1.1/DTD/svg11.dtd">
<svg xmlns:xlink="http://www.w3.org/1999/xlink" width="221.484815pt" height="107.080625pt" viewBox="0 0 221.484815 107.080625" xmlns="http://www.w3.org/2000/svg" version="1.1">
 <metadata>
  <rdf:RDF xmlns:dc="http://purl.org/dc/elements/1.1/" xmlns:cc="http://creativecommons.org/ns#" xmlns:rdf="http://www.w3.org/1999/02/22-rdf-syntax-ns#">
   <cc:Work>
    <dc:type rdf:resource="http://purl.org/dc/dcmitype/StillImage"/>
    <dc:date>2024-05-12T16:50:15.907559</dc:date>
    <dc:format>image/svg+xml</dc:format>
    <dc:creator>
     <cc:Agent>
      <dc:title>Matplotlib v3.8.4, https://matplotlib.org/</dc:title>
     </cc:Agent>
    </dc:creator>
   </cc:Work>
  </rdf:RDF>
 </metadata>
 <defs>
  <style type="text/css">*{stroke-linejoin: round; stroke-linecap: butt}</style>
 </defs>
 <g id="figure_1">
  <g id="patch_1">
   <path d="M 0 107.080625 
L 221.484815 107.080625 
L 221.484815 0 
L 0 0 
z
" style="fill: #ffffff"/>
  </g>
  <g id="axes_1">
   <g id="patch_2">
    <path d="M 45.904531 71.46 
L 213.304531 71.46 
L 213.304531 29.88 
L 45.904531 29.88 
z
" style="fill: #ffffff"/>
   </g>
   <g id="matplotlib.axis_1">
    <g id="xtick_1">
     <g id="line2d_1">
      <defs>
       <path id="md9388110ba" d="M 0 0 
L 0 3.5 
" style="stroke: #000000; stroke-width: 1.5"/>
      </defs>
      <g>
       <use xlink:href="#md9388110ba" x="53.513622" y="71.46" style="stroke: #000000; stroke-width: 1.5"/>
      </g>
     </g>
     <g id="text_1">
      <text style="font: 9px 'Arial', sans-serif; text-anchor: middle" x="53.513622" y="85.298594" transform="rotate(-0 53.513622 85.298594)">0</text>
     </g>
    </g>
    <g id="xtick_2">
     <g id="line2d_2">
      <g>
       <use xlink:href="#md9388110ba" x="91.559077" y="71.46" style="stroke: #000000; stroke-width: 1.5"/>
      </g>
     </g>
     <g id="text_2">
      <text style="font: 9px 'Arial', sans-serif; text-anchor: middle" x="91.559077" y="85.298594" transform="rotate(-0 91.559077 85.298594)">50</text>
     </g>
    </g>
    <g id="xtick_3">
     <g id="line2d_3">
      <g>
       <use xlink:href="#md9388110ba" x="129.604531" y="71.46" style="stroke: #000000; stroke-width: 1.5"/>
      </g>
     </g>
     <g id="text_3">
      <text style="font: 9px 'Arial', sans-serif; text-anchor: middle" x="129.604531" y="85.298594" transform="rotate(-0 129.604531 85.298594)">100</text>
     </g>
    </g>
    <g id="xtick_4">
     <g id="line2d_4">
      <g>
       <use xlink:href="#md9388110ba" x="167.649986" y="71.46" style="stroke: #000000; stroke-width: 1.5"/>
      </g>
     </g>
     <g id="text_4">
      <text style="font: 9px 'Arial', sans-serif; text-anchor: middle" x="167.649986" y="85.298594" transform="rotate(-0 167.649986 85.298594)">150</text>
     </g>
    </g>
    <g id="xtick_5">
     <g id="line2d_5">
      <g>
       <use xlink:href="#md9388110ba" x="205.69544" y="71.46" style="stroke: #000000; stroke-width: 1.5"/>
      </g>
     </g>
     <g id="text_5">
      <text style="font: 9px 'Arial', sans-serif; text-anchor: middle" x="205.69544" y="85.298594" transform="rotate(-0 205.69544 85.298594)">200</text>
     </g>
    </g>
    <g id="text_6">
     <text style="font: 9px 'Arial', sans-serif; text-anchor: middle" x="129.604531" y="98.008906" transform="rotate(-0 129.604531 98.008906)">Time [ms]</text>
    </g>
   </g>
   <g id="matplotlib.axis_2">
    <g id="ytick_1">
     <g id="line2d_6">
      <defs>
       <path id="m9b4572d152" d="M 0 0 
L -3.5 0 
" style="stroke: #000000; stroke-width: 1.5"/>
      </defs>
      <g>
       <use xlink:href="#m9b4572d152" x="45.904531" y="62.550387" style="stroke: #000000; stroke-width: 1.5"/>
      </g>
     </g>
     <g id="text_7">
      <text style="font: 9px 'Arial', sans-serif; text-anchor: end" x="38.904531" y="65.969684" transform="rotate(-0 38.904531 65.969684)">−50</text>
     </g>
    </g>
    <g id="ytick_2">
     <g id="line2d_7">
      <g>
       <use xlink:href="#m9b4572d152" x="45.904531" y="45.528479" style="stroke: #000000; stroke-width: 1.5"/>
      </g>
     </g>
     <g id="text_8">
      <text style="font: 9px 'Arial', sans-serif; text-anchor: end" x="38.904531" y="48.947776" transform="rotate(-0 38.904531 48.947776)">0</text>
     </g>
    </g>
    <g id="text_9">
     <text style="font: 9px 'Arial', sans-serif; text-anchor: middle" x="14.038594" y="50.67" transform="rotate(-90 14.038594 50.67)">Voltage [mV]</text>
    </g>
   </g>
   <g id="line2d_8">
    <path d="M 53.513622 67.65696 
L 55.705479 68.450631 
L 58.993264 68.876127 
L 60.119634 68.904318 
L 62.707243 68.960317 
L 63.742286 68.962013 
L 64.381577 68.955151 
L 65.538391 68.97208 
L 65.995027 68.970145 
L 67.425823 68.962509 
L 77.258735 68.962176 
L 78.750415 68.949764 
L 80.698732 69.009832 
L 81.368467 68.987332 
L 82.190413 68.966794 
L 83.560321 68.986786 
L 84.41271 68.965368 
L 85.721736 68.956722 
L 87.000319 68.959036 
L 88.218016 68.954171 
L 88.88775 68.957896 
L 89.922793 68.978181 
L 91.658013 68.839605 
L 92.693059 67.598424 
L 93.758545 66.694004 
L 95.067568 65.538482 
L 95.432879 64.910019 
L 95.706859 63.930416 
L 95.859073 62.499204 
L 95.980842 58.86176 
L 96.072171 48.384974 
L 96.163496 31.77 
L 96.224382 32.265436 
L 96.346151 34.162236 
L 96.528808 42.362217 
L 96.955002 62.770408 
L 97.259425 67.440371 
L 97.502965 68.260784 
L 97.716062 68.372573 
L 98.050928 68.183328 
L 99.664379 66.819575 
L 100.212342 66.43088 
L 101.582254 65.194734 
L 101.886677 64.565524 
L 102.099774 63.641188 
L 102.251988 61.970866 
L 102.37376 57.36431 
L 102.495525 37.178825 
L 102.556411 32.137612 
L 102.617297 32.596535 
L 102.739068 35.104032 
L 102.952162 46.410615 
L 103.317471 62.849903 
L 103.591457 67.181758 
L 103.834994 68.173973 
L 104.078537 68.333177 
L 104.504731 68.079521 
L 106.787911 66.247114 
L 107.427206 65.732586 
L 108.096937 64.811002 
L 108.34048 63.994459 
L 108.523131 62.503268 
L 108.644903 59.299842 
L 108.736231 50.899321 
L 108.857997 32.108616 
L 108.918883 32.567136 
L 109.040654 35.026402 
L 109.253748 46.261537 
L 109.619063 62.788985 
L 109.923486 67.379289 
L 110.167023 68.210904 
L 110.380123 68.306383 
L 110.62366 68.196622 
L 111.476049 67.465604 
L 112.876403 66.414246 
L 113.454812 65.981041 
L 114.215872 65.159636 
L 114.550737 64.389802 
L 114.763837 63.223037 
L 114.885603 61.461594 
L 115.007375 55.333903 
L 115.159589 32.085766 
L 115.281355 33.377848 
L 115.433569 38.689131 
L 116.011978 64.695028 
L 116.285958 67.710681 
L 116.529495 68.272015 
L 116.80348 68.302944 
L 117.381883 67.835296 
L 119.177989 66.41383 
L 119.908612 65.880528 
L 120.487015 65.251767 
L 120.821881 64.582414 
L 121.065424 63.472034 
L 121.217632 61.459264 
L 121.339404 55.318681 
L 121.491618 32.085583 
L 121.613389 33.380314 
L 121.765598 38.696317 
L 122.344007 64.695936 
L 122.617986 67.687819 
L 122.861529 68.268713 
L 123.105067 68.298494 
L 123.622589 67.886707 
L 124.627187 67.021837 
L 125.449138 66.411965 
L 126.575507 65.463315 
L 126.971258 64.840144 
L 127.214795 64.089828 
L 127.397453 62.759037 
L 127.519224 60.136313 
L 127.610547 53.74858 
L 127.762761 32.22954 
L 127.85409 33.10214 
L 128.006304 37.911707 
L 128.645593 65.475854 
L 128.88913 67.769999 
L 129.10223 68.260968 
L 129.345767 68.313432 
L 129.741518 68.040353 
L 130.533027 67.34796 
L 131.263644 66.780544 
L 132.663999 65.73082 
L 133.090193 65.262393 
L 133.485944 64.399397 
L 133.699039 63.248743 
L 133.851253 60.717987 
L 133.942582 55.586226 
L 134.09479 32.068833 
L 134.216562 33.330266 
L 134.368776 38.555627 
L 134.947179 64.638146 
L 135.221164 67.678728 
L 135.464702 68.267906 
L 135.738682 68.282783 
L 136.195319 67.922857 
L 139.361336 65.269307 
L 139.696202 64.643126 
L 139.939745 63.630177 
L 140.091953 61.933881 
L 140.213725 57.25892 
L 140.335496 36.928584 
L 140.396382 32.162871 
L 140.457262 32.616014 
L 140.579033 35.157851 
L 140.792133 46.536146 
L 141.126999 62.1123 
L 141.431422 67.194709 
L 141.674965 68.175887 
L 141.888059 68.321657 
L 142.405582 68.008299 
L 143.927702 66.750792 
L 145.328057 65.661576 
L 145.815137 65.027795 
L 146.089117 64.337003 
L 146.271774 63.34691 
L 146.423982 61.077565 
L 146.545754 53.611628 
L 146.667525 32.191213 
L 146.758854 32.697171 
L 146.880619 35.411326 
L 147.124162 48.960315 
L 147.459028 63.075003 
L 147.733008 67.252451 
L 147.976551 68.184991 
L 148.189645 68.313471 
L 148.524517 68.158825 
L 148.950711 67.774115 
L 149.894422 66.995382 
L 151.8123 65.440283 
L 152.268931 64.645422 
L 152.512474 63.644704 
L 152.664688 61.970857 
L 152.78646 57.406186 
L 152.908231 37.36861 
L 152.969117 32.134527 
L 153.029991 32.593981 
L 153.151763 35.088519 
L 153.364863 46.396326 
L 153.730177 62.845263 
L 154.034594 67.394374 
L 154.278137 68.218974 
L 154.491237 68.311188 
L 154.795654 68.156262 
L 155.374069 67.655955 
L 156.683089 66.632288 
L 157.961677 65.633007 
L 158.509637 64.878118 
L 158.783623 63.988169 
L 158.96628 62.49141 
L 159.08804 59.269857 
L 159.179369 50.796021 
L 159.30114 32.123188 
L 159.362026 32.579589 
L 159.483797 35.040507 
L 159.696897 46.291687 
L 160.0622 62.805413 
L 160.366629 67.376866 
L 160.610172 68.194689 
L 160.82326 68.308276 
L 161.127689 68.168999 
L 161.827863 67.544869 
L 163.53264 66.262818 
L 164.537243 65.394995 
L 164.963444 64.618385 
L 165.176532 63.775392 
L 165.328746 62.324032 
L 165.450518 58.704258 
L 165.541846 48.825031 
L 165.633175 32.184967 
L 165.724504 32.697799 
L 165.846263 35.417476 
L 166.059363 47.023787 
L 166.394235 62.314452 
L 166.698652 67.236334 
L 166.942195 68.160347 
L 167.155295 68.300258 
L 167.459724 68.150971 
L 167.764141 68.034111 
L 168.525201 68.333242 
L 169.499361 68.548301 
L 171.051924 68.759987 
L 183.776867 68.967413 
L 184.629256 68.969906 
L 185.390328 68.964867 
L 185.999173 68.953532 
L 187.216865 68.975623 
L 205.69544 68.952036 
L 205.69544 68.952036 
" clip-path="url(#pa45a0d677a)" style="fill: none; stroke: #000000; stroke-width: 1.5; stroke-linecap: square"/>
   </g>
   <g id="line2d_9">
    <path d="M 53.513622 67.65696 
L 56.34477 68.557218 
L 57.745123 68.735431 
L 58.445299 68.784038 
L 59.419458 68.850571 
L 59.81521 68.879124 
L 71.413783 68.926299 
L 72.357499 68.941426 
L 73.209889 68.968776 
L 80.637847 68.929201 
L 81.094484 68.946818 
L 82.707933 68.951868 
L 83.682093 68.935073 
L 84.16917 68.932538 
L 85.691293 68.905261 
L 86.208816 68.920998 
L 87.730939 68.905599 
L 88.979079 68.933512 
L 89.527042 68.936068 
L 91.688456 68.739834 
L 92.35819 67.802494 
L 93.241022 66.89744 
L 94.428276 65.846361 
L 95.219782 64.843891 
L 95.524205 63.860661 
L 95.706859 62.25186 
L 95.828631 58.798492 
L 95.919956 49.874906 
L 96.041728 31.849295 
L 96.102613 32.154118 
L 96.224382 34.011151 
L 96.407036 41.377497 
L 96.894116 63.280813 
L 97.198539 67.66996 
L 97.442079 68.542501 
L 97.655176 68.640909 
L 97.868274 68.522052 
L 98.233585 68.142485 
L 101.612697 64.957629 
L 101.917119 64.228435 
L 102.130217 63.156276 
L 102.282431 60.988532 
L 102.404202 54.710651 
L 102.586854 32.069042 
L 102.678182 32.911534 
L 102.830397 37.18674 
L 103.591457 66.527465 
L 103.834994 68.216967 
L 104.078537 68.604635 
L 104.261188 68.565779 
L 104.565611 68.310603 
L 105.448443 67.381047 
L 106.331274 66.607384 
L 108.12738 64.986958 
L 108.431803 64.328674 
L 108.644903 63.360229 
L 108.797117 61.624999 
L 108.918883 57.084745 
L 109.040654 39.114239 
L 109.131983 32.077417 
L 109.162426 32.236679 
L 109.284191 34.18077 
L 109.466849 41.777951 
L 109.953929 63.421454 
L 110.258351 67.634212 
L 110.501894 68.490167 
L 110.714989 68.596793 
L 110.988969 68.406248 
L 112.724189 66.672619 
L 114.124543 65.555009 
L 114.520295 65.075121 
L 114.85516 64.407503 
L 115.098703 63.358146 
L 115.250912 61.588118 
L 115.372683 56.996374 
L 115.494455 38.928618 
L 115.585783 32.08248 
L 115.616226 32.251167 
L 115.737992 34.219742 
L 115.920649 41.878136 
L 116.407729 63.439581 
L 116.712152 67.656799 
L 116.955689 68.514575 
L 117.168789 68.626203 
L 117.412326 68.485934 
L 118.264715 67.565502 
L 119.056223 66.832076 
L 120.943652 65.237585 
L 121.308961 64.612467 
L 121.552504 63.79879 
L 121.735155 62.322915 
L 121.856926 59.394009 
L 121.948255 52.547871 
L 122.100464 32.072166 
L 122.161349 32.387964 
L 122.283121 34.647958 
L 122.496215 44.534898 
L 122.891972 62.384901 
L 123.196395 67.317854 
L 123.439932 68.411344 
L 123.653032 68.588479 
L 123.927012 68.448005 
L 126.210198 66.316173 
L 127.275681 65.442389 
L 127.793204 64.690644 
L 128.036741 63.958934 
L 128.219398 62.764408 
L 128.371613 59.672978 
L 128.493378 49.10883 
L 128.61515 32.108428 
L 128.676035 32.321219 
L 128.797807 34.463933 
L 129.010901 44.129308 
L 129.437095 62.967608 
L 129.741518 67.515309 
L 129.985061 68.469332 
L 130.198156 68.606172 
L 130.472141 68.440769 
L 132.57267 66.401129 
L 133.699039 65.459131 
L 134.125233 64.908302 
L 134.399219 64.274883 
L 134.612313 63.252624 
L 134.764527 61.288814 
L 134.886293 55.890072 
L 135.06895 32.090049 
L 135.190722 33.214335 
L 135.34293 37.969209 
L 136.012667 65.479798 
L 136.286647 68.052802 
L 136.53019 68.567207 
L 136.80417 68.501266 
L 137.321693 67.993809 
L 138.965585 66.460058 
L 140.579033 64.893797 
L 140.883456 64.140529 
L 141.066113 63.190931 
L 141.218328 61.095897 
L 141.340093 55.157003 
L 141.522751 32.071253 
L 141.614079 32.852252 
L 141.766288 37.017966 
L 142.557791 66.841409 
L 142.801334 68.30852 
L 143.044871 68.611466 
L 143.257971 68.539005 
L 144.019031 67.712146 
L 145.084519 66.749036 
L 147.002391 65.016732 
L 147.367699 64.176133 
L 147.5808 62.983243 
L 147.733008 60.449409 
L 147.85478 52.495576 
L 148.006994 32.078456 
L 148.06788 32.400474 
L 148.189645 34.671906 
L 148.402745 44.586054 
L 148.798497 62.415527 
L 149.10292 67.337277 
L 149.346463 68.431704 
L 149.559557 68.615434 
L 149.833537 68.479012 
L 150.746811 67.509039 
L 151.3861 66.885291 
L 151.964514 66.403123 
L 153.060434 65.51381 
L 153.699734 64.564598 
L 153.943266 63.718307 
L 154.125923 62.110088 
L 154.247694 58.738381 
L 154.339023 50.527137 
L 154.491237 32.086253 
L 154.52168 32.258594 
L 154.643451 34.227796 
L 154.826097 41.885036 
L 155.313183 63.46769 
L 155.6176 67.664331 
L 155.861143 68.499962 
L 156.074243 68.600417 
L 156.348229 68.425663 
L 156.926632 67.811021 
L 157.718134 67.034972 
L 159.453355 65.648581 
L 160.031757 64.970619 
L 160.305743 64.390251 
L 160.518843 63.503728 
L 160.671058 62.000522 
L 160.792817 58.381524 
L 160.914589 43.607491 
L 161.03636 32.10794 
L 161.066803 32.305776 
L 161.188575 34.413185 
L 161.371232 42.26861 
L 161.827863 62.928116 
L 162.132292 67.511356 
L 162.375835 68.465877 
L 162.588923 68.594196 
L 162.893352 68.40504 
L 166.576892 64.726407 
L 166.820424 64.050872 
L 167.003081 62.97327 
L 167.155295 60.435772 
L 167.277066 52.466697 
L 167.429281 32.087436 
L 167.490167 32.411766 
L 167.611926 34.694646 
L 167.825026 44.764428 
L 168.220784 62.687994 
L 168.525201 67.783967 
L 168.799187 69.117591 
L 169.073172 69.47973 
L 169.438475 69.56319 
L 170.595292 69.388334 
L 173.517761 69.067135 
L 175.953167 68.997009 
L 177.688387 69.009378 
L 178.358119 69.001942 
L 179.728024 68.972851 
L 180.275996 68.965589 
L 180.945727 68.967766 
L 185.20767 68.962257 
L 186.425362 68.952696 
L 187.551736 68.952083 
L 189.256514 68.932671 
L 191.600579 68.930923 
L 196.928011 68.988851 
L 198.176157 68.993794 
L 198.663231 68.980072 
L 200.459337 68.981919 
L 200.946411 68.979225 
L 201.920571 68.996609 
L 205.69544 68.938764 
L 205.69544 68.938764 
" clip-path="url(#pa45a0d677a)" style="fill: none; stroke: #a9a9a9; stroke-width: 1.5; stroke-linecap: square"/>
   </g>
   <g id="line2d_10">
    <path d="M 53.513622 67.65696 
L 54.670435 68.178458 
L 56.83185 68.667527 
L 62.707243 68.984178 
L 63.072552 68.969036 
L 66.603876 68.943434 
L 67.15184 68.948868 
L 70.804935 68.973186 
L 71.322456 68.982267 
L 73.362101 68.95528 
L 73.818738 68.962859 
L 74.518913 68.961423 
L 76.284576 68.97348 
L 77.228292 69.004996 
L 79.359264 69.008573 
L 80.302981 69.013679 
L 81.033598 69.005123 
L 83.560321 69.023951 
L 87.182973 68.99416 
L 87.822264 69.011367 
L 91.658013 68.829229 
L 92.388633 67.797471 
L 93.271465 66.876216 
L 94.641373 65.573144 
L 95.067568 64.868404 
L 95.311108 64.060447 
L 95.493762 62.546991 
L 95.615533 59.256133 
L 95.706859 50.364554 
L 95.828631 31.967333 
L 95.889516 32.344347 
L 96.011285 34.626505 
L 96.224382 45.436856 
L 96.589691 62.647888 
L 96.863673 67.34704 
L 97.107213 68.394411 
L 97.320311 68.530928 
L 97.655176 68.324104 
L 98.538008 67.415519 
L 99.603494 66.521289 
L 100.973405 65.197554 
L 101.338714 64.422864 
L 101.551811 63.414712 
L 101.704022 61.454501 
L 101.825794 55.736142 
L 101.978005 32.129295 
L 102.099774 33.188366 
L 102.251988 38.350652 
L 102.860834 65.356213 
L 103.104377 67.871264 
L 103.347914 68.43492 
L 103.561014 68.445428 
L 103.804551 68.276591 
L 105.6311 66.562725 
L 106.60526 65.790363 
L 107.15322 65.15958 
L 107.488091 64.46574 
L 107.701186 63.523171 
L 107.8534 61.7602 
L 107.975166 56.963109 
L 108.157823 32.07607 
L 108.310037 34.228657 
L 108.492688 42.713003 
L 108.918883 63.105997 
L 109.192869 67.413291 
L 109.436406 68.368991 
L 109.649506 68.480827 
L 109.953929 68.290373 
L 112.389323 66.026245 
L 113.028617 65.447174 
L 113.393926 64.921593 
L 113.667906 64.190377 
L 113.881006 62.819323 
L 114.002772 60.520715 
L 114.0941 55.318273 
L 114.246315 32.093962 
L 114.36808 33.277101 
L 114.520295 38.596991 
L 115.098703 64.878925 
L 115.372683 67.887497 
L 115.585783 68.40986 
L 115.768435 68.468163 
L 116.194629 68.14088 
L 118.386486 66.124922 
L 119.025781 65.517766 
L 119.451975 64.918567 
L 119.756398 64.044409 
L 119.939049 62.756168 
L 120.060821 60.368352 
L 120.152149 54.870595 
L 120.304364 32.079599 
L 120.426129 33.367408 
L 120.578344 38.851537 
L 121.156752 64.970484 
L 121.430732 67.905912 
L 121.643826 68.408632 
L 121.856926 68.442376 
L 122.191792 68.174282 
L 124.322764 66.256359 
L 125.510018 65.096045 
L 125.84489 64.310788 
L 126.057984 63.135628 
L 126.179755 61.382787 
L 126.301527 55.463997 
L 126.453735 32.101353 
L 126.575507 33.237503 
L 126.727721 38.511896 
L 127.336567 65.4094 
L 127.58011 67.894834 
L 127.823647 68.455462 
L 128.036741 68.457854 
L 128.402055 68.157623 
L 129.467538 67.057623 
L 131.720281 64.929472 
L 131.994261 64.206527 
L 132.176919 63.151376 
L 132.329127 60.617762 
L 132.420456 55.621143 
L 132.57267 32.134112 
L 132.694441 33.216735 
L 132.84665 38.425552 
L 133.455501 65.377973 
L 133.699039 67.881071 
L 133.912139 68.409086 
L 134.125233 68.460789 
L 134.429662 68.255051 
L 137.017265 65.902747 
L 137.595673 65.313405 
L 138.021867 64.531054 
L 138.26541 63.445704 
L 138.417619 61.569476 
L 138.53939 56.207486 
L 138.722042 32.125356 
L 138.843813 33.702494 
L 138.996028 39.689041 
L 139.51355 64.04202 
L 139.78753 67.679627 
L 140.031068 68.399505 
L 140.244168 68.459212 
L 140.700805 68.110374 
L 142.375139 66.526442 
L 143.623279 65.410027 
L 144.110359 64.555728 
L 144.353896 63.509014 
L 144.506111 61.74983 
L 144.627882 56.919141 
L 144.810534 32.082841 
L 144.962748 34.242823 
L 145.145399 42.769023 
L 145.571594 63.107785 
L 145.845579 67.409234 
L 146.089117 68.349098 
L 146.271774 68.451259 
L 146.515311 68.335327 
L 146.941505 67.921434 
L 148.585397 66.419498 
L 149.86398 65.301382 
L 150.259731 64.574753 
L 150.472831 63.751045 
L 150.625045 62.399698 
L 150.746811 59.221796 
L 150.83814 51.163454 
L 150.959911 32.067895 
L 151.020797 32.458731 
L 151.142568 34.907073 
L 151.355657 46.123271 
L 151.720971 62.899268 
L 151.994957 67.342033 
L 152.238488 68.346418 
L 152.451588 68.480287 
L 152.664688 68.388336 
L 153.212648 67.836324 
L 154.734768 66.440422 
L 155.769814 65.560626 
L 156.226457 64.906276 
L 156.500431 64.169113 
L 156.683089 63.067129 
L 156.835303 60.303439 
L 156.926632 54.650263 
L 157.078846 32.068915 
L 157.170174 32.870397 
L 157.322377 37.422546 
L 157.99212 66.027774 
L 158.235652 68.028618 
L 158.448752 68.430772 
L 158.661852 68.425099 
L 158.996712 68.16537 
L 160.518843 66.692382 
L 161.888749 65.56261 
L 162.314949 64.965759 
L 162.619366 64.162699 
L 162.802023 63.039787 
L 162.923795 61.12433 
L 163.045566 54.404845 
L 163.197781 32.070521 
L 163.289098 32.899008 
L 163.441312 37.536725 
L 164.111055 66.056309 
L 164.354586 68.045397 
L 164.567686 68.434974 
L 164.750343 68.444106 
L 165.237418 68.039774 
L 166.789981 66.582665 
L 167.794584 65.960075 
L 168.707858 66.676199 
L 169.834232 67.49352 
L 170.534407 67.859828 
L 171.569452 68.276988 
L 174.24839 68.783547 
L 179.910682 68.939811 
L 180.671742 68.945148 
L 182.346076 68.978051 
L 182.924479 68.96935 
L 183.80731 68.988477 
L 190.626419 68.998357 
L 191.174391 69.003279 
L 192.209437 68.966228 
L 197.5673 68.969127 
L 199.150306 68.972085 
L 199.698277 68.965431 
L 200.885526 68.977057 
L 202.894732 68.98641 
L 203.503577 68.976153 
L 204.325523 68.980142 
L 205.360569 68.9684 
L 205.69544 68.949208 
L 205.69544 68.949208 
" clip-path="url(#pa45a0d677a)" style="fill: none; stroke: #808080; stroke-width: 1.5; stroke-linecap: square"/>
   </g>
   <g id="line2d_11">
    <path d="M 53.513622 67.65696 
L 56.283885 68.529148 
L 58.293087 68.773443 
L 60.758925 68.89149 
L 61.337332 68.91465 
L 61.824411 68.953026 
L 62.768128 68.926907 
L 63.346534 68.938803 
L 64.046711 68.93178 
L 64.503347 68.951997 
L 65.051311 68.966626 
L 65.477506 68.963169 
L 66.847416 68.947068 
L 67.334496 68.962047 
L 67.973787 68.96187 
L 80.211652 68.988285 
L 80.881387 68.958257 
L 82.616607 68.930512 
L 88.248459 68.961163 
L 91.658013 68.861789 
L 92.266862 68.004416 
L 92.967039 67.265967 
L 94.428276 66.058007 
L 95.189339 65.233326 
L 95.524205 64.524209 
L 95.737302 63.535429 
L 95.889516 61.683061 
L 96.011285 56.343641 
L 96.163496 32.034996 
L 96.315711 33.117644 
L 96.467922 37.430256 
L 97.198539 66.048882 
L 97.472522 68.130748 
L 97.716062 68.515728 
L 97.959602 68.473778 
L 98.538008 67.938872 
L 99.603494 66.941436 
L 100.486325 66.283492 
L 101.582254 65.357859 
L 101.917119 64.859241 
L 102.191102 64.100922 
L 102.37376 62.986278 
L 102.525968 60.18725 
L 102.617297 54.553427 
L 102.769511 32.181348 
L 102.891277 33.103603 
L 103.043491 37.381623 
L 103.804551 66.363865 
L 104.048094 68.071562 
L 104.261188 68.456903 
L 104.474288 68.472225 
L 104.87004 68.16729 
L 108.492688 64.764755 
L 108.736231 64.045322 
L 108.918883 62.848154 
L 109.040654 60.722163 
L 109.162426 53.027332 
L 109.314634 32.157869 
L 109.37552 32.526758 
L 109.497291 34.682472 
L 109.710386 44.394239 
L 110.106137 62.168241 
L 110.410566 67.129513 
L 110.654103 68.274864 
L 110.897646 68.492809 
L 111.080297 68.435816 
L 111.506492 68.059856 
L 112.419766 67.172833 
L 113.272154 66.511378 
L 114.063657 65.939694 
L 114.702952 65.330761 
L 115.06826 64.75384 
L 115.311797 64.049704 
L 115.494455 62.857537 
L 115.616226 60.739803 
L 115.737992 53.099233 
L 115.890206 32.158821 
L 115.981535 32.855436 
L 116.133743 36.668715 
L 116.955689 66.837331 
L 117.199232 68.204793 
L 117.412326 68.473747 
L 117.655869 68.424315 
L 118.142949 67.98243 
L 120.152149 66.282536 
L 121.126309 65.51317 
L 121.582946 64.863516 
L 121.856926 64.136573 
L 122.039584 63.062508 
L 122.191792 60.465701 
L 122.313564 51.90222 
L 122.465778 32.18469 
L 122.526658 32.609219 
L 122.648429 34.918956 
L 122.861529 44.894957 
L 123.257281 62.37304 
L 123.561704 67.196777 
L 123.805241 68.294058 
L 124.018341 68.498484 
L 124.231435 68.417123 
L 124.657629 68.047506 
L 125.875332 66.906785 
L 127.732318 65.427594 
L 128.097627 64.905531 
L 128.402055 64.083642 
L 128.584707 62.951186 
L 128.706478 60.999558 
L 128.82825 54.22816 
L 128.980458 32.164595 
L 129.071787 32.743268 
L 129.224001 36.314839 
L 129.528424 52.626312 
L 129.832847 63.340426 
L 130.137276 67.502304 
L 130.380813 68.358033 
L 130.593907 68.480111 
L 130.898336 68.305793 
L 131.568067 67.670149 
L 132.35957 66.963177 
L 133.881696 65.788855 
L 134.520984 65.083412 
L 134.855856 64.332887 
L 135.06895 63.277229 
L 135.221164 61.156802 
L 135.34293 54.888507 
L 135.525587 32.207245 
L 135.616916 33.057388 
L 135.769124 37.25806 
L 136.53019 66.32109 
L 136.773727 68.039215 
L 137.017265 68.459379 
L 137.230365 68.435621 
L 137.656559 68.098312 
L 139.330893 66.614345 
L 140.244168 65.927484 
L 141.005228 65.132322 
L 141.370536 64.37397 
L 141.583636 63.379748 
L 141.735845 61.479618 
L 141.857616 56.173842 
L 142.040273 32.161346 
L 142.162039 33.321575 
L 142.314253 37.958837 
L 143.014428 65.736321 
L 143.288414 68.00853 
L 143.531951 68.433566 
L 143.745051 68.420115 
L 144.079916 68.178884 
L 145.906465 66.514517 
L 147.367699 65.275581 
L 147.793894 64.521894 
L 148.006994 63.684789 
L 148.159202 62.328088 
L 148.280974 59.188357 
L 148.372302 51.452143 
L 148.524517 32.20674 
L 148.585397 32.647326 
L 148.707168 35.021973 
L 148.920268 45.110917 
L 149.31602 62.46801 
L 149.620442 67.211979 
L 149.86398 68.294006 
L 150.07708 68.478952 
L 150.35106 68.357119 
L 154.217251 64.793765 
L 154.52168 63.823859 
L 154.704337 62.258752 
L 154.826097 58.948508 
L 154.917426 50.661883 
L 155.039197 32.190549 
L 155.100083 32.408184 
L 155.221854 34.323294 
L 155.404511 41.874698 
L 155.891586 63.275596 
L 156.196014 67.482928 
L 156.439546 68.349989 
L 156.652646 68.474464 
L 156.896189 68.346117 
L 159.331583 66.284634 
L 160.4884 65.275975 
L 160.914589 64.483417 
L 161.127689 63.614383 
L 161.279903 62.123979 
L 161.401675 58.503012 
L 161.493003 49.190207 
L 161.614763 32.149113 
L 161.675649 32.484572 
L 161.79742 34.545738 
L 161.980078 42.367723 
L 162.436709 62.776158 
L 162.741138 67.326524 
L 162.984681 68.313133 
L 163.197781 68.466488 
L 163.410869 68.404925 
L 164.019726 67.841363 
L 164.780786 67.090482 
L 167.185738 65.044217 
L 167.520609 64.278387 
L 167.764141 63.007106 
L 167.885912 61.270124 
L 168.007684 55.426341 
L 168.190341 32.232834 
L 168.281669 33.049352 
L 168.433872 37.147043 
L 169.225387 66.986496 
L 169.499361 68.754511 
L 169.80379 69.274392 
L 170.108207 69.361829 
L 171.660781 69.232894 
L 173.213344 69.083485 
L 173.791747 69.048556 
L 174.918121 69.023655 
L 205.69544 68.949605 
L 205.69544 68.949605 
" clip-path="url(#pa45a0d677a)" style="fill: none; stroke: #d3d3d3; stroke-width: 1.5; stroke-linecap: square"/>
   </g>
   <g id="patch_3">
    <path d="M 45.904531 71.46 
L 45.904531 29.88 
" style="fill: none; stroke: #000000; stroke-width: 1.5; stroke-linejoin: miter; stroke-linecap: square"/>
   </g>
   <g id="patch_4">
    <path d="M 45.904531 71.46 
L 213.304531 71.46 
" style="fill: none; stroke: #000000; stroke-width: 1.5; stroke-linejoin: miter; stroke-linecap: square"/>
   </g>
  </g>
  <g id="text_10">
   <text style="font: 9px 'Arial', sans-serif; text-anchor: middle" x="126.904531" y="14.038594" transform="rotate(-0 126.904531 14.038594)">Posterior predictive traces</text>
  </g>
 </g>
 <defs>
  <clipPath id="pa45a0d677a">
   <rect x="45.904531" y="29.88" width="167.4" height="41.58"/>
  </clipPath>
 </defs>
</svg>
