<?xml version="1.0" encoding="utf-8" standalone="no"?>
<!DOCTYPE svg PUBLIC "-//W3C//DTD SVG 1.1//EN"
  "http://www.w3.org/Graphics/SVG/1.1/DTD/svg11.dtd">
<svg xmlns:xlink="http://www.w3.org/1999/xlink" width="221.484815pt" height="109.713219pt" viewBox="0 0 221.484815 109.713219" xmlns="http://www.w3.org/2000/svg" version="1.1">
 <metadata>
  <rdf:RDF xmlns:dc="http://purl.org/dc/elements/1.1/" xmlns:cc="http://creativecommons.org/ns#" xmlns:rdf="http://www.w3.org/1999/02/22-rdf-syntax-ns#">
   <cc:Work>
    <dc:type rdf:resource="http://purl.org/dc/dcmitype/StillImage"/>
    <dc:date>2024-05-12T16:45:04.749109</dc:date>
    <dc:format>image/svg+xml</dc:format>
    <dc:creator>
     <cc:Agent>
      <dc:title>Matplotlib v3.8.4, https://matplotlib.org/</dc:title>
     </cc:Agent>
    </dc:creator>
   </cc:Work>
  </rdf:RDF>
 </metadata>
 <defs>
  <style type="text/css">*{stroke-linejoin: round; stroke-linecap: butt}</style>
 </defs>
 <g id="figure_1">
  <g id="patch_1">
   <path d="M 0 109.713219 
L 221.484815 109.713219 
L 221.484815 0 
L 0 0 
z
" style="fill: #ffffff"/>
  </g>
  <g id="axes_1">
   <g id="patch_2">
    <path d="M 45.904531 74.092594 
L 213.304531 74.092594 
L 213.304531 32.512594 
L 45.904531 32.512594 
z
" style="fill: #ffffff"/>
   </g>
   <g id="matplotlib.axis_1">
    <g id="xtick_1">
     <g id="line2d_1">
      <defs>
       <path id="m50da7228ca" d="M 0 0 
L 0 3.5 
" style="stroke: #000000; stroke-width: 1.5"/>
      </defs>
      <g>
       <use xlink:href="#m50da7228ca" x="53.513622" y="74.092594" style="stroke: #000000; stroke-width: 1.5"/>
      </g>
     </g>
     <g id="text_1">
      <text style="font: 9px 'Arial', sans-serif; text-anchor: middle" x="53.513622" y="87.931188" transform="rotate(-0 53.513622 87.931188)">0</text>
     </g>
    </g>
    <g id="xtick_2">
     <g id="line2d_2">
      <g>
       <use xlink:href="#m50da7228ca" x="91.559077" y="74.092594" style="stroke: #000000; stroke-width: 1.5"/>
      </g>
     </g>
     <g id="text_2">
      <text style="font: 9px 'Arial', sans-serif; text-anchor: middle" x="91.559077" y="87.931188" transform="rotate(-0 91.559077 87.931188)">50</text>
     </g>
    </g>
    <g id="xtick_3">
     <g id="line2d_3">
      <g>
       <use xlink:href="#m50da7228ca" x="129.604531" y="74.092594" style="stroke: #000000; stroke-width: 1.5"/>
      </g>
     </g>
     <g id="text_3">
      <text style="font: 9px 'Arial', sans-serif; text-anchor: middle" x="129.604531" y="87.931188" transform="rotate(-0 129.604531 87.931188)">100</text>
     </g>
    </g>
    <g id="xtick_4">
     <g id="line2d_4">
      <g>
       <use xlink:href="#m50da7228ca" x="167.649986" y="74.092594" style="stroke: #000000; stroke-width: 1.5"/>
      </g>
     </g>
     <g id="text_4">
      <text style="font: 9px 'Arial', sans-serif; text-anchor: middle" x="167.649986" y="87.931188" transform="rotate(-0 167.649986 87.931188)">150</text>
     </g>
    </g>
    <g id="xtick_5">
     <g id="line2d_5">
      <g>
       <use xlink:href="#m50da7228ca" x="205.69544" y="74.092594" style="stroke: #000000; stroke-width: 1.5"/>
      </g>
     </g>
     <g id="text_5">
      <text style="font: 9px 'Arial', sans-serif; text-anchor: middle" x="205.69544" y="87.931188" transform="rotate(-0 205.69544 87.931188)">200</text>
     </g>
    </g>
    <g id="text_6">
     <text style="font: 9px 'Arial', sans-serif; text-anchor: middle" x="129.604531" y="100.6415" transform="rotate(-0 129.604531 100.6415)">Time [ms]</text>
    </g>
   </g>
   <g id="matplotlib.axis_2">
    <g id="ytick_1">
     <g id="line2d_6">
      <defs>
       <path id="m1911886d9a" d="M 0 0 
L -3.5 0 
" style="stroke: #000000; stroke-width: 1.5"/>
      </defs>
      <g>
       <use xlink:href="#m1911886d9a" x="45.904531" y="65.59137" style="stroke: #000000; stroke-width: 1.5"/>
      </g>
     </g>
     <g id="text_7">
      <text style="font: 9px 'Arial', sans-serif; text-anchor: end" x="38.904531" y="69.010666" transform="rotate(-0 38.904531 69.010666)">−50</text>
     </g>
    </g>
    <g id="ytick_2">
     <g id="line2d_7">
      <g>
       <use xlink:href="#m1911886d9a" x="45.904531" y="48.343618" style="stroke: #000000; stroke-width: 1.5"/>
      </g>
     </g>
     <g id="text_8">
      <text style="font: 9px 'Arial', sans-serif; text-anchor: end" x="38.904531" y="51.762915" transform="rotate(-0 38.904531 51.762915)">0</text>
     </g>
    </g>
    <g id="text_9">
     <text style="font: 9px 'Arial', sans-serif; text-anchor: middle" x="14.038594" y="53.302594" transform="rotate(-90 14.038594 53.302594)">Voltage [mV]</text>
    </g>
   </g>
   <g id="line2d_8">
    <path d="M 53.513622 70.765695 
L 55.705479 71.569896 
L 58.993264 72.001037 
L 60.028307 72.037054 
L 62.128836 72.079641 
L 63.924941 72.081694 
L 73.514313 72.091 
L 74.031835 72.085037 
L 75.858382 72.056108 
L 76.771655 72.078033 
L 83.012358 72.094393 
L 83.560321 72.113165 
L 84.41271 72.091463 
L 85.569524 72.072978 
L 90.562084 72.095572 
L 90.957839 72.109702 
L 91.688456 71.921744 
L 92.60173 70.802809 
L 93.60633 69.906188 
L 94.702259 69.009324 
L 95.463322 67.905378 
L 95.706859 66.989708 
L 95.859073 65.539507 
L 95.980842 61.853802 
L 96.072171 51.238012 
L 96.163496 34.402594 
L 96.224382 34.904603 
L 96.346151 36.826569 
L 96.528808 45.135346 
L 96.955002 65.814309 
L 97.259425 70.546232 
L 97.502965 71.37753 
L 97.716062 71.490803 
L 98.050928 71.299047 
L 99.664379 69.9172 
L 100.212342 69.523348 
L 101.582254 68.270801 
L 101.886677 67.633242 
L 102.099774 66.696643 
L 102.251988 65.004159 
L 102.37376 60.336485 
L 102.495525 39.883182 
L 102.556411 34.775083 
L 102.617297 35.240095 
L 102.739068 37.780861 
L 102.952162 49.237458 
L 103.317471 65.894859 
L 103.591457 70.284188 
L 103.834994 71.289568 
L 104.078537 71.450884 
L 104.504731 71.193862 
L 106.757468 69.353778 
L 107.305434 68.938767 
L 107.944728 68.1737 
L 108.249151 67.445773 
L 108.462246 66.239179 
L 108.584017 64.392571 
L 108.705789 57.865038 
L 108.857997 34.745703 
L 108.949326 35.596873 
L 109.071097 38.798762 
L 109.37552 56.617441 
L 109.679943 67.229606 
L 109.953929 70.675161 
L 110.197466 71.36575 
L 110.410566 71.422308 
L 110.745431 71.221107 
L 111.476049 70.5718 
L 112.876403 69.506493 
L 113.454812 69.067541 
L 114.215872 68.235237 
L 114.550737 67.455189 
L 114.763837 66.272943 
L 114.885603 64.48813 
L 115.007375 58.279138 
L 115.159589 34.722549 
L 115.281355 36.031774 
L 115.433569 41.413526 
L 116.011978 67.764465 
L 116.285958 70.820129 
L 116.529495 71.38891 
L 116.773038 71.4279 
L 117.047018 71.255902 
L 118.356043 70.101737 
L 118.934452 69.686915 
L 120.517458 68.282684 
L 120.852324 67.552537 
L 121.065424 66.525245 
L 121.217632 64.48577 
L 121.339404 58.263714 
L 121.491618 34.722364 
L 121.613389 36.034273 
L 121.765598 41.420808 
L 122.344007 67.765385 
L 122.617986 70.796964 
L 122.861529 71.385565 
L 123.105067 71.415741 
L 123.622589 70.998491 
L 124.59675 70.146883 
L 126.819044 68.198741 
L 127.09303 67.600586 
L 127.306124 66.63834 
L 127.458338 64.840075 
L 127.58011 59.74081 
L 127.762761 34.868231 
L 127.914975 37.095806 
L 128.097627 45.841274 
L 128.493378 65.317105 
L 128.797807 70.347954 
L 129.041344 71.304024 
L 129.254444 71.437727 
L 129.558867 71.301421 
L 130.380813 70.57689 
L 131.872496 69.444404 
L 133.090193 68.339358 
L 133.485944 67.464911 
L 133.699039 66.29899 
L 133.851253 63.734657 
L 133.942582 58.534809 
L 134.09479 34.705391 
L 134.216562 35.983561 
L 134.368776 41.278251 
L 134.947179 67.706829 
L 135.221164 70.787752 
L 135.464702 71.384747 
L 135.708245 71.414202 
L 136.134439 71.097983 
L 137.473902 69.954875 
L 138.722042 69.023088 
L 139.452665 68.213022 
L 139.726645 67.62254 
L 139.939745 66.685486 
L 140.091953 64.966683 
L 140.213725 60.229696 
L 140.335496 39.629621 
L 140.396382 34.800677 
L 140.457262 35.259832 
L 140.579033 37.835394 
L 140.792133 49.364654 
L 141.126999 65.147469 
L 141.431422 70.297311 
L 141.674965 71.291507 
L 141.888059 71.439212 
L 142.405582 71.121696 
L 143.927702 69.847504 
L 145.297614 68.772502 
L 145.754251 68.212789 
L 146.089117 67.40169 
L 146.271774 66.39846 
L 146.423982 64.099006 
L 146.545754 56.534012 
L 146.667525 34.829395 
L 146.758854 35.342067 
L 146.880619 38.092232 
L 147.124162 51.820987 
L 147.459028 66.122945 
L 147.733008 70.355819 
L 147.976551 71.300732 
L 148.189645 71.430916 
L 148.524517 71.274219 
L 148.950711 70.884405 
L 149.894422 70.095339 
L 151.8123 68.519608 
L 152.268931 67.7142 
L 152.512474 66.700205 
L 152.664688 65.00415 
L 152.78646 60.378916 
L 152.908231 40.075485 
L 152.969117 34.771957 
L 153.029991 35.237507 
L 153.151763 37.765142 
L 153.364863 49.222979 
L 153.730177 65.890158 
L 154.034594 70.499626 
L 154.278137 71.335166 
L 154.491237 71.428603 
L 154.795654 71.271621 
L 155.374069 70.764677 
L 156.683089 69.727428 
L 157.961677 68.714889 
L 158.509637 67.949984 
L 158.783623 67.048228 
L 158.96628 65.531609 
L 159.08804 62.267314 
L 159.179369 53.681049 
L 159.30114 34.760468 
L 159.362026 35.222924 
L 159.483797 37.716493 
L 159.696897 49.116951 
L 160.0622 65.849779 
L 160.366629 70.481885 
L 160.610172 71.310559 
L 160.82326 71.425653 
L 161.127689 71.284528 
L 161.827863 70.652117 
L 163.53264 69.353056 
L 164.537243 68.473719 
L 164.963444 67.686805 
L 165.176532 66.832627 
L 165.328746 65.362011 
L 165.450518 61.694211 
L 165.541846 51.683907 
L 165.633175 34.823067 
L 165.724504 35.342702 
L 165.846263 38.098464 
L 166.059363 49.858765 
L 166.394235 65.352304 
L 166.698652 70.339489 
L 166.942195 71.275761 
L 167.155295 71.417528 
L 167.459724 71.266261 
L 167.764141 71.147851 
L 168.525201 71.45095 
L 169.468918 71.662296 
L 170.991038 71.879104 
L 172.665372 71.981507 
L 182.28519 72.087558 
L 182.954922 72.080463 
L 187.856165 72.099096 
L 189.347842 72.084921 
L 197.932614 72.061524 
L 198.785003 72.063306 
L 201.189954 72.079873 
L 201.768357 72.075975 
L 205.086595 72.077875 
L 205.634555 72.063822 
L 205.69544 72.077954 
L 205.69544 72.077954 
" clip-path="url(#pbbd51d01e0)" style="fill: none; stroke: #000000; stroke-width: 1.5; stroke-linecap: square"/>
   </g>
   <g id="line2d_9">
    <path d="M 53.513622 70.765695 
L 54.305126 71.117251 
L 56.862292 71.739479 
L 57.440698 71.810008 
L 59.510785 72.0244 
L 60.058749 72.061585 
L 68.552193 72.108812 
L 69.435025 72.085247 
L 83.073244 72.066322 
L 83.499438 72.056358 
L 83.925633 72.034675 
L 84.717136 72.065098 
L 86.695896 72.076825 
L 87.274301 72.097551 
L 88.796424 72.121658 
L 90.501202 72.115813 
L 91.140493 72.109268 
L 91.566687 72.11575 
L 92.419076 70.944394 
L 93.210579 70.11248 
L 95.006685 68.40784 
L 95.371993 67.607469 
L 95.585091 66.543317 
L 95.737302 64.391983 
L 95.859073 57.477328 
L 96.011285 34.631196 
L 96.102613 35.355059 
L 96.254825 39.650656 
L 96.985442 69.722699 
L 97.228982 71.254278 
L 97.442079 71.522282 
L 97.685619 71.48101 
L 98.233585 70.986442 
L 100.242785 69.237044 
L 100.821191 68.729972 
L 101.369157 68.0067 
L 101.673579 67.161179 
L 101.856237 65.930458 
L 101.978005 63.704853 
L 102.099774 55.305157 
L 102.221545 34.791401 
L 102.312874 35.352919 
L 102.434639 38.361021 
L 102.678182 52.40375 
L 103.013048 66.435406 
L 103.287028 70.504302 
L 103.530571 71.401598 
L 103.743665 71.500314 
L 104.078537 71.299324 
L 104.87004 70.522088 
L 105.509328 69.949722 
L 107.427206 68.221573 
L 107.792514 67.405975 
L 108.005608 66.249398 
L 108.157823 63.789413 
L 108.279594 55.730582 
L 108.431803 34.785014 
L 108.492688 35.312927 
L 108.61446 38.251995 
L 108.857997 52.222458 
L 109.192869 66.373102 
L 109.466849 70.483695 
L 109.710386 71.379838 
L 109.923486 71.478686 
L 110.167023 71.360376 
L 110.593217 70.976371 
L 111.628263 69.974585 
L 113.637463 68.106165 
L 113.972329 67.254548 
L 114.154986 66.17038 
L 114.3072 63.542831 
L 114.398523 58.305381 
L 114.550737 34.73756 
L 114.672509 35.933178 
L 114.824717 41.345172 
L 115.403126 67.860823 
L 115.677106 70.883873 
L 115.920649 71.453092 
L 116.133743 71.477452 
L 116.438172 71.26885 
L 117.655869 70.104544 
L 119.025781 69.023247 
L 119.451975 68.61068 
L 119.817283 68.129663 
L 120.152149 67.302233 
L 120.334806 66.264405 
L 120.487015 63.826929 
L 120.608786 55.896306 
L 120.761001 34.774388 
L 120.821881 35.296687 
L 120.943652 38.206644 
L 121.187195 52.116187 
L 121.522061 66.32897 
L 121.796041 70.465265 
L 122.039584 71.368314 
L 122.252678 71.474841 
L 122.587544 71.27448 
L 123.713918 70.188351 
L 124.353207 69.671536 
L 125.875332 68.252453 
L 126.179755 67.636914 
L 126.423292 66.600464 
L 126.575507 64.916581 
L 126.697278 60.413775 
L 126.819044 41.201484 
L 126.87993 34.706707 
L 126.940815 35.113686 
L 127.062587 37.636229 
L 127.275681 49.100046 
L 127.64099 65.932418 
L 127.914975 70.331664 
L 128.158513 71.350131 
L 128.371613 71.482384 
L 128.645593 71.354684 
L 131.963818 68.384655 
L 132.420456 67.449543 
L 132.633556 66.363585 
L 132.785764 64.148063 
L 132.907536 57.325974 
L 133.05975 34.699187 
L 133.151079 35.56214 
L 133.303287 40.279937 
L 133.973024 69.045049 
L 134.216562 71.052424 
L 134.460099 71.477449 
L 134.703642 71.435314 
L 135.099393 71.106697 
L 136.103996 70.169261 
L 136.956385 69.48327 
L 138.113196 68.462801 
L 138.53939 67.715119 
L 138.752485 66.950143 
L 138.935142 65.355471 
L 139.056913 61.936694 
L 139.148236 53.096563 
L 139.270008 34.715251 
L 139.330893 35.155613 
L 139.452665 37.790159 
L 139.665759 49.373421 
L 140.031068 66.039174 
L 140.305053 70.376772 
L 140.54859 71.346062 
L 140.761691 71.469454 
L 141.096556 71.300906 
L 141.522751 70.887297 
L 142.070716 70.347943 
L 143.988588 68.788465 
L 144.597439 67.979487 
L 144.901862 67.112105 
L 145.084519 65.817104 
L 145.206285 63.379816 
L 145.297614 57.797333 
L 145.449828 34.70973 
L 145.571594 36.022839 
L 145.723808 41.606189 
L 146.302217 67.945552 
L 146.576197 70.901712 
L 146.789297 71.430753 
L 147.002391 71.476852 
L 147.245934 71.326573 
L 148.707168 69.974995 
L 149.772657 69.120337 
L 150.56416 68.328412 
L 150.929468 67.622137 
L 151.142568 66.7666 
L 151.294783 65.312932 
L 151.416543 61.815003 
L 151.507871 52.699396 
L 151.629643 34.718624 
L 151.690528 35.189086 
L 151.8123 37.873813 
L 152.0254 49.55965 
L 152.390703 66.110737 
L 152.664688 70.408247 
L 152.908231 71.365182 
L 153.12132 71.496382 
L 153.456191 71.308977 
L 154.947868 69.901952 
L 156.713531 68.379345 
L 157.078846 67.736321 
L 157.322377 66.849372 
L 157.474592 65.544201 
L 157.596363 62.551284 
L 157.687692 55.150784 
L 157.809463 34.774244 
L 157.900792 35.372713 
L 158.022563 38.412682 
L 158.296537 54.386824 
L 158.600966 66.467194 
L 158.874952 70.513071 
L 159.118483 71.369253 
L 159.331583 71.491182 
L 159.636012 71.303037 
L 160.945032 70.079291 
L 163.076009 68.145474 
L 163.410869 67.303749 
L 163.593526 66.30321 
L 163.745741 63.978427 
L 163.867512 56.535227 
L 164.019726 34.735886 
L 164.111055 35.660613 
L 164.263258 40.610959 
L 164.902558 68.67166 
L 165.146089 70.939044 
L 165.359189 71.423608 
L 165.572289 71.481868 
L 166.089806 71.060499 
L 167.185738 70.016988 
L 167.703255 69.671291 
L 169.438475 70.82934 
L 170.717064 71.376114 
L 171.721667 71.628456 
L 173.669975 71.920099 
L 174.765907 71.9921 
L 175.192107 72.003059 
L 176.196698 72.019947 
L 176.622899 72.049607 
L 178.205904 72.069698 
L 178.845193 72.076725 
L 191.478808 72.104151 
L 192.23988 72.107936 
L 194.279517 72.111562 
L 201.25084 72.081297 
L 202.925174 72.068227 
L 203.74712 72.084658 
L 205.26924 72.116366 
L 205.69544 72.106015 
L 205.69544 72.106015 
" clip-path="url(#pbbd51d01e0)" style="fill: none; stroke: #a9a9a9; stroke-opacity: 0.8; stroke-width: 1.5; stroke-linecap: square"/>
   </g>
   <g id="line2d_10">
    <path d="M 53.513622 70.765695 
L 55.187957 71.396134 
L 55.492382 71.473283 
L 56.34477 71.656775 
L 56.83185 71.729465 
L 58.232202 71.860465 
L 58.719281 71.899587 
L 64.107596 72.090577 
L 67.882459 72.091419 
L 69.039273 72.11227 
L 69.800333 72.112655 
L 70.835378 72.088326 
L 91.59713 72.076204 
L 93.119253 70.294563 
L 95.311108 68.104731 
L 95.585091 67.30611 
L 95.767745 66.055785 
L 95.889516 63.669265 
L 95.980842 57.943303 
L 96.133053 34.633754 
L 96.224382 35.341267 
L 96.346151 38.276087 
L 96.589691 52.099811 
L 96.924559 66.306275 
L 97.198539 70.50889 
L 97.442079 71.419447 
L 97.624733 71.534799 
L 98.111814 71.24882 
L 99.329511 70.140685 
L 100.242785 69.44122 
L 101.003848 68.813237 
L 101.643139 67.987445 
L 101.917119 67.190071 
L 102.099774 65.963926 
L 102.221545 63.727729 
L 102.312874 58.703009 
L 102.465082 34.713367 
L 102.586854 35.870415 
L 102.739068 41.112236 
L 103.347914 68.275571 
L 103.591457 70.809091 
L 103.834994 71.415397 
L 104.048094 71.464148 
L 104.65694 70.99912 
L 105.296234 70.393392 
L 107.762071 68.246731 
L 108.096937 67.510061 
L 108.310037 66.48508 
L 108.462246 64.457991 
L 108.584017 58.430084 
L 108.736231 34.705278 
L 108.857997 35.927473 
L 109.010211 41.273827 
L 109.58862 67.780752 
L 109.8626 70.834761 
L 110.106137 71.415507 
L 110.288794 71.447499 
L 110.62366 71.237042 
L 113.941886 68.412337 
L 114.276757 67.817726 
L 114.520295 66.964748 
L 114.702952 65.32865 
L 114.824717 61.757267 
L 114.916046 52.275844 
L 115.037817 34.752885 
L 115.098703 35.239883 
L 115.220469 37.953932 
L 115.433569 49.659765 
L 115.768435 65.336548 
L 116.072863 70.394579 
L 116.3164 71.348315 
L 116.529495 71.47443 
L 116.742595 71.407438 
L 117.321003 70.893427 
L 118.630029 69.780055 
L 119.908612 68.804613 
L 120.334806 68.322344 
L 120.730558 67.488795 
L 120.943652 66.441776 
L 121.095866 64.304843 
L 121.217632 57.752621 
L 121.369846 34.700357 
L 121.491618 36.052781 
L 121.643826 41.610396 
L 122.222235 67.896376 
L 122.496215 70.864256 
L 122.739758 71.418428 
L 122.983295 71.441522 
L 123.592147 70.964667 
L 125.053381 69.726514 
L 126.179755 68.852336 
L 126.819044 67.995636 
L 127.09303 67.210053 
L 127.275681 66.022219 
L 127.397453 63.9057 
L 127.519224 55.974398 
L 127.671433 34.804918 
L 127.732318 35.317807 
L 127.85409 38.172194 
L 128.097627 52.059874 
L 128.432498 66.257542 
L 128.706478 70.404868 
L 128.950015 71.326792 
L 129.163116 71.456026 
L 129.467538 71.312443 
L 131.415859 69.641402 
L 133.029307 68.112999 
L 133.33373 67.322179 
L 133.516387 66.306132 
L 133.668596 63.881777 
L 133.759924 59.174562 
L 133.912139 34.813816 
L 134.064347 36.39078 
L 134.216562 42.481274 
L 134.734084 66.97884 
L 135.008064 70.620541 
L 135.251607 71.375322 
L 135.495144 71.438964 
L 135.921339 71.163112 
L 137.047707 70.139739 
L 139.178679 68.281233 
L 139.51355 67.596152 
L 139.757088 66.459026 
L 139.909302 64.381186 
L 140.031068 58.098864 
L 140.183282 34.698614 
L 140.305053 35.992202 
L 140.457262 41.457844 
L 141.035671 67.859568 
L 141.309651 70.867854 
L 141.553193 71.432045 
L 141.796731 71.44293 
L 142.192482 71.139421 
L 145.571594 68.0843 
L 145.876022 67.288777 
L 146.058674 66.216906 
L 146.210888 63.584837 
L 146.302217 58.303583 
L 146.454425 34.699458 
L 146.576197 35.952978 
L 146.728411 41.338906 
L 147.306814 67.825079 
L 147.5808 70.855726 
L 147.793894 71.395845 
L 148.006994 71.458255 
L 148.250531 71.334603 
L 151.5992 68.523553 
L 151.994957 67.919523 
L 152.268931 67.039364 
L 152.421145 65.951294 
L 152.542917 63.694452 
L 152.634246 58.607068 
L 152.78646 34.702388 
L 152.908231 35.88957 
L 153.060434 41.16681 
L 153.669291 68.307622 
L 153.912823 70.826387 
L 154.156366 71.413941 
L 154.339023 71.453576 
L 154.826097 71.12048 
L 156.957074 69.349219 
L 157.870349 68.537733 
L 158.296537 67.853447 
L 158.570523 66.886704 
L 158.722737 65.585314 
L 158.844509 62.596275 
L 158.935837 55.101605 
L 159.057597 34.712701 
L 159.148926 35.393492 
L 159.270697 38.425545 
L 159.544683 54.370996 
L 159.8491 66.432661 
L 160.123086 70.478474 
L 160.366629 71.357094 
L 160.579729 71.467688 
L 160.914589 71.299392 
L 161.858306 70.426201 
L 162.741138 69.701225 
L 164.263258 68.403088 
L 164.598129 67.820217 
L 164.872115 66.818678 
L 165.024318 65.399555 
L 165.146089 61.97338 
L 165.237418 53.016695 
L 165.359189 34.728762 
L 165.420075 35.19147 
L 165.541846 37.802801 
L 165.754946 49.384287 
L 166.120249 66.005749 
L 166.394235 70.339062 
L 166.637778 71.327539 
L 166.881309 71.470067 
L 167.368395 71.15477 
L 167.733698 70.921919 
L 168.403429 71.226141 
L 171.843427 71.891552 
L 172.604498 71.957697 
L 173.852633 72.031535 
L 176.470684 72.109686 
L 177.323073 72.095943 
L 179.02785 72.095335 
L 179.728024 72.097972 
L 186.699348 72.13039 
L 187.490851 72.113831 
L 188.069253 72.106136 
L 188.769439 72.0885 
L 192.209437 72.112639 
L 193.335799 72.128167 
L 193.944657 72.097059 
L 194.462174 72.107681 
L 199.211191 72.169638 
L 199.94182 72.157906 
L 200.733323 72.137778 
L 201.707471 72.125766 
L 204.264637 72.094935 
L 205.69544 72.090819 
L 205.69544 72.090819 
" clip-path="url(#pbbd51d01e0)" style="fill: none; stroke: #808080; stroke-opacity: 0.8; stroke-width: 1.5; stroke-linecap: square"/>
   </g>
   <g id="line2d_11">
    <path d="M 53.513622 70.765695 
L 56.34477 71.651156 
L 57.410256 71.828131 
L 60.210962 72.03364 
L 62.250606 72.056721 
L 63.529188 72.082986 
L 91.566687 72.082273 
L 92.266862 71.139768 
L 93.08881 70.338536 
L 93.697659 69.876079 
L 94.85447 68.936905 
L 95.311108 68.362073 
L 95.645976 67.446982 
L 95.828631 66.167811 
L 95.950399 63.60934 
L 96.041728 56.810292 
L 96.163496 34.522659 
L 96.254825 35.430082 
L 96.346151 36.887863 
L 96.528808 44.983878 
L 96.955002 65.59904 
L 97.259425 70.440494 
L 97.472522 71.246122 
L 97.716062 71.420555 
L 97.990045 71.284588 
L 98.964202 70.482866 
L 99.512168 70.090331 
L 101.034288 69.081822 
L 101.338714 68.834616 
L 101.917119 68.052988 
L 102.191102 67.215572 
L 102.37376 65.734834 
L 102.495525 62.500408 
L 102.586854 53.46551 
L 102.678182 34.706982 
L 102.769511 35.408528 
L 102.891277 37.82033 
L 103.104377 49.100309 
L 103.469685 65.68608 
L 103.774108 70.412891 
L 104.017651 71.276482 
L 104.230745 71.389942 
L 104.596054 71.210261 
L 106.300831 69.861191 
L 108.036051 68.497588 
L 108.34048 68.013205 
L 108.61446 67.073873 
L 108.766674 65.770315 
L 108.88844 62.640575 
L 108.979768 54.037358 
L 109.071097 34.893411 
L 109.162426 35.368878 
L 109.284191 37.729943 
L 109.497291 48.934094 
L 109.8626 65.628298 
L 110.167023 70.402678 
L 110.410566 71.268311 
L 110.62366 71.367951 
L 110.897646 71.252501 
L 114.520295 68.385171 
L 114.824717 67.756691 
L 115.037817 66.849709 
L 115.190032 65.169883 
L 115.311797 60.372459 
L 115.433569 38.186354 
L 115.464012 34.624392 
L 115.55534 35.445044 
L 115.677106 37.962977 
L 115.890206 49.390293 
L 116.225072 65.02166 
L 116.529495 70.236768 
L 116.773038 71.222783 
L 116.986132 71.363437 
L 117.199232 71.291155 
L 118.325601 70.404119 
L 118.843123 70.0212 
L 119.543298 69.564783 
L 120.365243 68.967482 
L 120.943652 68.330967 
L 121.339404 67.371357 
L 121.522061 66.170473 
L 121.643826 63.932562 
L 121.735155 58.550207 
L 121.887369 34.964247 
L 122.009141 36.155949 
L 122.161349 41.406645 
L 122.739758 67.600271 
L 123.013738 70.74672 
L 123.257281 71.328245 
L 123.470375 71.378599 
L 123.774798 71.209524 
L 125.540461 69.873704 
L 125.966655 69.607913 
L 126.971258 68.874765 
L 127.519224 68.197848 
L 127.793204 67.512502 
L 127.975861 66.506809 
L 128.12807 64.066002 
L 128.219398 58.971957 
L 128.371613 34.854212 
L 128.493378 36.07518 
L 128.645593 41.15286 
L 129.254444 68.094328 
L 129.497981 70.712791 
L 129.741518 71.324121 
L 129.954618 71.385399 
L 130.441698 71.048024 
L 133.790367 68.545264 
L 134.186119 67.833098 
L 134.399219 67.014305 
L 134.551427 65.635817 
L 134.673199 62.122225 
L 134.764527 52.072966 
L 134.855856 34.580639 
L 134.916736 35.11135 
L 135.06895 38.054262 
L 135.28205 49.581863 
L 135.616916 65.103775 
L 135.921339 70.265423 
L 136.164876 71.259852 
L 136.377976 71.409601 
L 136.651956 71.294402 
L 137.199922 70.845047 
L 140.426819 68.155082 
L 140.700805 67.423891 
L 140.883456 66.296773 
L 141.005228 64.28938 
L 141.096556 59.706798 
L 141.248771 34.634812 
L 141.400979 36.518573 
L 141.553193 42.369954 
L 142.070716 66.707095 
L 142.344696 70.508155 
L 142.588233 71.281106 
L 142.801334 71.370072 
L 143.105756 71.225257 
L 143.805936 70.633005 
L 144.566996 70.043448 
L 145.571594 69.415806 
L 146.484868 68.704149 
L 146.941505 68.062016 
L 147.215491 67.212639 
L 147.398142 65.732738 
L 147.519914 62.481219 
L 147.611242 53.422272 
L 147.702565 34.715365 
L 147.793894 35.411513 
L 147.915665 37.838085 
L 148.12876 49.14454 
L 148.494074 65.696259 
L 148.798497 70.424772 
L 149.042034 71.282333 
L 149.255134 71.37813 
L 149.529114 71.259057 
L 150.503274 70.470697 
L 150.990354 70.114162 
L 152.603803 68.994002 
L 153.182206 68.345374 
L 153.486634 67.718813 
L 153.699734 66.769693 
L 153.851949 64.942023 
L 153.973708 59.389364 
L 154.125923 34.720362 
L 154.278137 36.600879 
L 154.430351 42.563467 
L 154.947868 66.778782 
L 155.221854 70.521454 
L 155.465397 71.296708 
L 155.678486 71.388881 
L 156.0438 71.188988 
L 159.666455 68.305359 
L 159.970872 67.634317 
L 160.183972 66.56374 
L 160.336186 64.249241 
L 160.427515 59.565026 
L 160.579729 34.667457 
L 160.731932 36.553121 
L 160.884146 42.437217 
L 161.401675 66.721004 
L 161.675649 70.498104 
L 161.919192 71.29102 
L 162.132292 71.37722 
L 162.467152 71.203374 
L 163.897955 70.047031 
L 165.115646 69.254806 
L 165.694061 68.77894 
L 166.120249 68.237882 
L 166.394235 67.573704 
L 166.576892 66.645503 
L 166.729095 64.553887 
L 166.820424 60.513182 
L 166.942195 38.589029 
L 166.972638 34.663421 
L 167.063966 35.43052 
L 167.185738 37.894994 
L 167.398838 49.267865 
L 167.764141 65.867928 
L 168.068569 70.760084 
L 168.312112 71.75128 
L 168.586086 72.071491 
L 168.920958 72.16588 
L 169.621132 72.188132 
L 174.339718 72.066564 
L 176.775113 72.041543 
L 178.419004 72.040343 
L 180.854399 72.083752 
L 181.280587 72.097451 
L 187.551736 72.087387 
L 187.917051 72.080152 
L 193.122711 72.085331 
L 193.609785 72.093816 
L 194.127302 72.104114 
L 194.52306 72.121516 
L 195.040577 72.111068 
L 196.410494 72.088074 
L 197.262883 72.085158 
L 197.719514 72.100288 
L 199.51562 72.121132 
L 200.611551 72.112886 
L 203.351375 72.083747 
L 203.777563 72.078733 
L 205.69544 72.063927 
L 205.69544 72.063927 
" clip-path="url(#pbbd51d01e0)" style="fill: none; stroke: #d3d3d3; stroke-opacity: 0.8; stroke-width: 1.5; stroke-linecap: square"/>
   </g>
   <g id="patch_3">
    <path d="M 45.904531 74.092594 
L 45.904531 32.512594 
" style="fill: none; stroke: #000000; stroke-width: 1.5; stroke-linejoin: miter; stroke-linecap: square"/>
   </g>
   <g id="patch_4">
    <path d="M 45.904531 74.092594 
L 213.304531 74.092594 
" style="fill: none; stroke: #000000; stroke-width: 1.5; stroke-linejoin: miter; stroke-linecap: square"/>
   </g>
   <g id="text_10">
    <text style="font: 9px 'Arial', sans-serif; text-anchor: middle" x="129.604531" y="14.038594" transform="rotate(-0 129.604531 14.038594)">Posterior predictive traces</text>
   </g>
  </g>
 </g>
 <defs>
  <clipPath id="pbbd51d01e0">
   <rect x="45.904531" y="32.512594" width="167.4" height="41.58"/>
  </clipPath>
 </defs>
</svg>
