<?xml version="1.0" encoding="UTF-8" standalone="no"?>
<!-- Created with Inkscape (http://www.inkscape.org/) -->

<svg
   width="4cm"
   height="8cm"
   viewBox="0 0 40 79.999998"
   version="1.1"
   id="svg5"
   inkscape:version="1.1.2 (b8e25be833, 2022-02-05)"
   sodipodi:docname="illustration.svg"
   xmlns:inkscape="http://www.inkscape.org/namespaces/inkscape"
   xmlns:sodipodi="http://sodipodi.sourceforge.net/DTD/sodipodi-0.dtd"
   xmlns="http://www.w3.org/2000/svg"
   xmlns:svg="http://www.w3.org/2000/svg">
  <sodipodi:namedview
     id="namedview7"
     pagecolor="#ffffff"
     bordercolor="#666666"
     borderopacity="1.0"
     inkscape:pageshadow="2"
     inkscape:pageopacity="0.0"
     inkscape:pagecheckerboard="0"
     inkscape:document-units="mm"
     showgrid="false"
     units="cm"
     showguides="true"
     inkscape:guide-bbox="true"
     inkscape:zoom="2.8284271"
     inkscape:cx="31.289475"
     inkscape:cy="85.029591"
     inkscape:window-width="1536"
     inkscape:window-height="890"
     inkscape:window-x="-6"
     inkscape:window-y="-6"
     inkscape:window-maximized="1"
     inkscape:current-layer="layer1">
    <sodipodi:guide
       position="-28.156843,83.367593"
       orientation="1,0"
       id="guide51850" />
    <sodipodi:guide
       position="87.349943,46.321114"
       orientation="1,0"
       id="guide1648" />
    <sodipodi:guide
       position="7.085983,27.124065"
       orientation="1,0"
       id="guide919" />
  </sodipodi:namedview>
  <defs
     id="defs2">
    <style
       type="text/css"
       id="style826">*{stroke-linejoin: round; stroke-linecap: butt}</style>
    <clipPath
       id="p1b4c1167a7">
      <rect
         x="7.2"
         y="7.2"
         width="124.56"
         height="52.56"
         id="rect838" />
    </clipPath>
    <style
       type="text/css"
       id="style858">*{stroke-linejoin: round; stroke-linecap: butt}</style>
    <clipPath
       id="pbdfa2eb46f">
      <rect
         x="7.2"
         y="7.2"
         width="124.56"
         height="88.56"
         id="rect870" />
    </clipPath>
    <marker
       id="EndArrow"
       viewBox="0 0 10 10"
       refX="10"
       refY="5"
       markerUnits="strokeWidth"
       orient="auto"
       markerWidth="5"
       markerHeight="5">
      <polyline
         points="10,5 0,10 4,5 0,0 10,5"
         fill="black"
         id="polyline13906" />
    </marker>
    <g
       id="term"
       style="stroke:black;stroke-width:2.5;fill:none">
      <path
         d="M0,0 V25"
         id="path13909" />
      <circle
         cx="0"
         cy="30"
         r="5"
         id="circle13911" />
    </g>
    <style
       type="text/css"
       id="style64455">*{stroke-linejoin: round; stroke-linecap: butt}</style>
    <clipPath
       id="p3dd1e55cd6">
      <rect
         x="7.2"
         y="7.2"
         width="124.56"
         height="52.56"
         id="rect64467" />
    </clipPath>
    <style
       type="text/css"
       id="style64487">*{stroke-linejoin: round; stroke-linecap: butt}</style>
    <clipPath
       id="peb60e1c170">
      <rect
         x="7.2"
         y="7.2"
         width="124.56"
         height="52.56"
         id="rect64499" />
    </clipPath>
  </defs>
  <g
     inkscape:label="Ebene 1"
     inkscape:groupmode="layer"
     id="layer1">
    <g
       id="figure_1-2"
       transform="matrix(0.21588946,0,0,0.15774224,6.8766999,39.694871)">
      <g
         id="patch_1-9">
        <path
           d="M 0,102.96 H 138.96 V 0 H 0 Z"
           style="fill:#ffffff"
           id="path862" />
      </g>
      <g
         id="axes_1-8">
        <g
           id="line2d_1-4">
          <path
             d="m 12.861818,88.792075 1.517671,1.655243 0.724858,0.356708 0.407732,0.157128 0.74751,0.307037 0.158562,0.03738 1.200546,0.195342 0.475688,0.01483 1.359108,0.07335 0.271822,0.01348 0.815464,0.0124 0.181215,-0.01389 1.76684,-0.0061 0.566296,-0.01471 0.520991,0.03938 2.672913,-0.0261 0.271821,-0.0063 0.226518,0.01059 3.01269,-0.03388 0.430385,0.02891 7.022059,-6.68e-4 0.13591,0.0033 0.226518,0.04782 0.543644,-0.06462 0.181214,0.01099 0.271822,0.005 0.928724,0.01805 0.294473,0.03593 0.226518,-0.01493 0.588947,0.01736 0.181214,0.0069 0.407733,-0.113356 0.747509,-2.673323 0.74751,-1.912593 0.770161,-1.784223 0.407733,-1.340639 0.271821,-1.714899 0.181215,-2.866012 0.113259,-6.431592 0.09061,-25.683973 0.06796,-35.911856 0.09061,2.551814 0.113259,9.649322 0.543643,63.155868 0.203866,3.286007 0.181214,0.466669 0.113259,-0.0679 0.317126,-0.746725 0.996679,-2.461753 0.339777,-0.652481 1.019331,-2.494258 0.271822,-1.283264 0.181214,-1.757378 0.135911,-3.293753 0.09061,-7.115927 0.09061,-32.112674 0.06795,-26.329005 0.06795,1.808946 0.113259,9.815789 0.543644,62.890807 0.203866,3.243158 0.181214,0.474691 0.135911,-0.09159 0.271822,-0.638281 0.815465,-2.007477 1.155242,-2.527448 0.181214,-0.476627 0.385081,-1.473453 0.226518,-1.859919 0.158562,-3.525805 0.09061,-6.923933 0.09061,-31.009736 0.06796,-27.761792 0.06796,1.815644 0.113259,9.648469 0.543643,63.053242 0.203866,3.300446 0.181215,0.431121 0.181214,-0.197857 2.423743,-5.598225 0.294473,-1.131082 0.226518,-1.548713 0.181215,-3.155253 0.113259,-7.458911 0.09061,-29.504858 0.06795,-29.703412 0.06796,1.724519 0.113259,9.379643 0.566295,64.061523 0.203866,2.811324 0.181215,0.358152 0.13591,-0.131147 0.24917,-0.580957 2.491699,-6.144122 0.271821,-1.898192 0.158563,-2.928829 0.113259,-7.453839 0.09061,-29.588463 0.06796,-29.610008 0.06796,1.73088 0.113259,9.389391 0.566295,64.038175 0.203866,2.807574 0.181215,0.352673 0.13591,-0.162608 0.634251,-1.589279 0.996679,-2.283652 1.109939,-3.091582 0.226518,-1.743516 0.158562,-3.149987 0.113259,-8.623815 0.09061,-35.046925 0.06795,-22.316177 0.06795,1.886051 0.113259,10.39547 0.520992,61.446727 0.226518,3.883421 0.181214,0.395215 0.135911,-0.11787 0.543643,-1.29964 1.495019,-3.317493 0.294474,-0.686425 0.294473,-0.837135 0.317125,-1.616695 0.181215,-2.092096 0.135911,-4.726143 0.09061,-12.829892 0.113259,-50.830851 0.113259,4.130759 0.158563,21.389895 0.339777,43.550477 0.249169,8.18598 0.203867,1.056102 0.135911,-0.0092 0.271821,-0.548127 0.74751,-1.93174 1.245849,-2.679545 0.543643,-1.770739 0.226518,-1.59201 0.158563,-2.601591 0.113259,-6.029272 0.09061,-21.907034 0.09061,-39.040744 0.06796,1.813163 0.113259,9.945556 0.520991,61.966793 0.226518,3.994402 0.181215,0.434237 0.317125,-0.514191 2.559654,-6.368134 0.249169,-1.730167 0.158563,-2.739491 0.113259,-6.421924 0.09061,-24.20595 0.06796,-36.113035 0.09061,2.012454 0.113259,10.424759 0.520991,61.422752 0.226518,3.82471 0.181215,0.390522 0.158562,-0.157639 0.271822,-0.642272 0.770161,-1.909495 0.792813,-1.677384 0.634251,-1.588137 0.317125,-1.342424 0.226518,-2.036611 0.135911,-3.280637 0.09061,-7.0661 0.09061,-31.785597 0.06796,-26.711422 0.06796,1.814468 0.113259,9.795806 0.543644,62.900011 0.226518,3.39662 0.181214,0.285878 0.158563,-0.184788 0.611598,-1.516012 0.838117,-1.875668 1.245849,-3.15226 0.226518,-1.366101 0.181215,-2.44531 0.113259,-4.498586 0.09061,-14.028574 0.113259,-49.149991 0.09061,2.909067 0.135911,15.42528 0.407732,52.252762 0.226518,6.605932 0.203867,0.992396 0.113259,0.0053 0.181214,-0.280797 0.430384,-1.128674 1.132591,-2.502699 0.656902,-1.456981 0.430384,-1.383308 0.24917,-1.576796 0.158563,-2.359288 0.113259,-4.938056 0.09061,-16.218428 0.09061,-46.212202 0.113259,3.286472 0.135911,16.304391 0.38508,50.046204 0.226518,7.247902 0.203867,1.13518 0.135911,-0.0042 0.317125,-0.656874 0.09061,0.162489 0.430384,0.529242 1.993361,1.003028 0.81547,0.168188 0.63425,0.09567 0.18121,0.03247 0.31712,0.02399 0.58895,-0.04212 0.20387,0.05977 0.47569,0.07271 0.43038,0.0065 1.13259,0.103403 0.49834,-0.0068 0.22652,0.01055 0.63425,-0.06001 0.22652,0.0056 0.24917,-0.04131 0.45303,0.04224 0.40773,-0.01734 0.81547,-0.01762 0.29447,0.0063 0.33978,-0.01008 2.46905,0.04079 0.22651,-0.0046 4.03203,-0.06045 0.36243,0.01253 0.33977,0.01446 1.85745,0.01398 0.29447,-0.05289 1.47237,-0.01092 0.54364,-0.01343 0.22652,0.01 1.58563,0.02524 3.44307,0.0083 v 0"
             clip-path="url(#pbdfa2eb46f)"
             style="fill:none;stroke:#000000;stroke-width:1.5;stroke-linecap:square"
             id="path865" />
        </g>
      </g>
    </g>
    <rect
       style="fill:#042433;stroke:#000000;stroke-width:0.346239"
       id="rect929"
       width="13.792737"
       height="0.086890809"
       x="6.8491197"
       y="70.431732" />
    <rect
       style="fill:#042433;stroke:#000000;stroke-width:0.264583;stroke-linecap:butt;stroke-linejoin:round"
       id="rect929-1"
       width="13.802359"
       height="0"
       x="8.9933662"
       y="74.676376" />
    <rect
       style="fill:#042433;stroke:#000000;stroke-width:0.392199;stroke-linecap:butt;stroke-linejoin:round"
       id="rect1312-3"
       width="0.03880062"
       height="15.970878"
       x="6.8850226"
       y="37.837868" />
    <text
       xml:space="preserve"
       style="font-size:2.82222px;line-height:1.25;font-family:Roboto;-inkscape-font-specification:Roboto;fill:#080808;fill-opacity:1;stroke-width:0.264583"
       x="-72.877159"
       y="4.7703352"
       id="text2460"
       transform="rotate(-89.628305)"><tspan
         sodipodi:role="line"
         id="tspan2458"
         style="font-style:normal;font-variant:normal;font-weight:normal;font-stretch:normal;font-size:2.82222px;font-family:Arial;-inkscape-font-specification:Arial;fill:#080808;fill-opacity:1;stroke-width:0.264583"
         x="-72.877159"
         y="4.7703352">Energy [<tspan
   style="font-style:normal;font-variant:normal;font-weight:normal;font-stretch:normal;font-family:Symbol;-inkscape-font-specification:Symbol"
   id="tspan84846">m</tspan>J]</tspan></text>
    <text
       xml:space="preserve"
       style="font-size:2.82222px;line-height:1.25;font-family:Roboto;-inkscape-font-specification:Roboto;stroke-width:0.264583;stroke-linecap:butt;stroke-linejoin:round"
       x="-54.053104"
       y="5.1022034"
       id="text2460-5"
       transform="rotate(-89.628305)"><tspan
         sodipodi:role="line"
         id="tspan2458-6"
         style="font-style:normal;font-variant:normal;font-weight:normal;font-stretch:normal;font-size:2.82222px;font-family:Arial;-inkscape-font-specification:Arial;stroke-width:0.264583"
         x="-54.053104"
         y="5.1022034">Voltage [mV]</tspan></text>
    <text
       xml:space="preserve"
       style="font-size:2.82222px;line-height:1.25;font-family:Roboto;-inkscape-font-specification:Roboto;white-space:pre;inline-size:21.6667;stroke-width:0.264583"
       x="14.419788"
       y="75.571617"
       id="text9799"><tspan
         x="14.419788"
         y="75.571617"
         id="tspan1017"><tspan
           style="font-family:Arial;-inkscape-font-specification:Arial"
           id="tspan1015">Time [ms]</tspan></tspan></text>
    <path
       style="fill:none;stroke:#000000;stroke-width:0.3;stroke-linecap:butt;stroke-linejoin:miter;stroke-opacity:1;stroke-miterlimit:4;stroke-dasharray:none"
       d="m 5.0594858,13.882357 3.9391379,0.02192"
       id="path1517" />
    <path
       style="fill:none;stroke:#000000;stroke-width:0.3;stroke-linecap:butt;stroke-linejoin:miter;stroke-opacity:1;stroke-miterlimit:4;stroke-dasharray:none"
       d="M 5.1379389,15.617407 H 8.9740336"
       id="path1519" />
    <path
       style="fill:none;stroke:#000000;stroke-width:0.3;stroke-linecap:butt;stroke-linejoin:miter;stroke-opacity:1;stroke-miterlimit:4;stroke-dasharray:none"
       d="M 7.064183,13.887886 7.0969722,8.2157127 34.35947,8.191122"
       id="path1521" />
    <path
       style="fill:none;stroke:#000000;stroke-width:0.3;stroke-linecap:butt;stroke-linejoin:miter;stroke-opacity:1;stroke-miterlimit:4;stroke-dasharray:none"
       d="M 7.0477894,21.207613 H 34.392254"
       id="path1523" />
    <path
       style="fill:none;stroke:#000000;stroke-width:0.3;stroke-linecap:butt;stroke-linejoin:miter;stroke-opacity:1;stroke-miterlimit:4;stroke-dasharray:none"
       d="m 15.851637,8.2370522 0.0116,1.7503915 v 0 l 0.880991,0.4404963 -1.738799,0.788257 1.704027,0.788256 -1.750393,0.857807 1.715616,0.799849 -1.680839,0.823032 1.657656,0.811441 -0.765076,0.405719"
       id="path1525" />
    <path
       style="fill:none;stroke:#000000;stroke-width:0.3;stroke-linecap:butt;stroke-linejoin:miter;stroke-opacity:1;stroke-miterlimit:4;stroke-dasharray:none"
       d="m 15.886419,15.702301 -0.0025,2.390535"
       id="path1527" />
    <path
       style="fill:none;stroke:#000000;stroke-width:0.3;stroke-linecap:butt;stroke-linejoin:miter;stroke-opacity:1;stroke-miterlimit:4;stroke-dasharray:none"
       d="m 17.121667,18.092876 -2.311557,-7.9e-5"
       id="path1529" />
    <path
       style="fill:none;stroke:#000000;stroke-width:0.3;stroke-linecap:butt;stroke-linejoin:miter;stroke-opacity:1;stroke-miterlimit:4;stroke-dasharray:none"
       d="m 13.924886,19.080404 3.901676,2.84e-4"
       id="path1531" />
    <path
       style="fill:none;stroke:#000000;stroke-width:0.3;stroke-linecap:butt;stroke-linejoin:miter;stroke-opacity:1;stroke-miterlimit:4;stroke-dasharray:none"
       d="m 15.898008,19.121941 -0.0116,2.098153"
       id="path1533" />
    <path
       style="fill:none;stroke:#000000;stroke-width:0.3;stroke-linecap:butt;stroke-linejoin:miter;stroke-miterlimit:4;stroke-dasharray:none;stroke-opacity:1"
       d="m 7.0663506,15.633801 -0.018563,5.573812 0,0.149224"
       id="path1763"
       sodipodi:nodetypes="ccc" />
    <path
       style="fill:#ffffff;fill-opacity:1;stroke:#646464;stroke-width:0.3;stroke-linecap:butt;stroke-linejoin:miter;stroke-opacity:1;stroke-miterlimit:4;stroke-dasharray:none"
       d="m 13.527341,15.752657 4.002081,-4.002082"
       id="path22088"
       sodipodi:nodetypes="cc" />
    <path
       style="fill:none;stroke:#646464;stroke-width:0.3;stroke-linecap:butt;stroke-linejoin:miter;stroke-opacity:1;stroke-miterlimit:4;stroke-dasharray:none"
       d="m 17.08222,11.317722 0.886925,0.886922 0.323777,-1.217568 z"
       id="path46493"
       sodipodi:nodetypes="cccc" />
    <path
       style="fill:#646464;fill-opacity:1;stroke:#646464;stroke-width:0.3;stroke-dasharray:none;stroke-opacity:1;stroke-miterlimit:4"
       d="m 17.954111,12.125744 c -9.92e-4,-0.0016 -0.002,-0.0044 -0.002,-0.0061 -4.96e-4,-0.0049 -0.0075,-0.01148 -0.01487,-0.01452 -0.0035,-0.0015 -0.0078,-0.0053 -0.0092,-0.0085 -0.0015,-0.0032 -0.0045,-0.0058 -0.0062,-0.0058 -0.002,0 -0.0035,-8.93e-4 -0.0035,-0.0019 0,-0.001 -0.002,-0.0045 -0.0056,-0.0076 -0.0025,-0.0032 -0.0052,-0.006 -0.0052,-0.0064 0.0015,-0.0018 2.98e-4,-0.01011 -0.0015,-0.01011 -9.91e-4,0 -0.0015,0.0016 -9.91e-4,0.0035 4.96e-4,0.0019 1.54e-4,0.0035 -9.91e-4,0.0035 -0.0015,0 -0.0025,-10e-4 -0.0025,-0.0024 0,-0.0014 -0.002,-0.0024 -0.0052,-0.0024 -0.0025,0 -0.0052,-0.0015 -0.0052,-0.0035 0,-0.0019 -9.91e-4,-0.0035 -0.0025,-0.0035 -9.92e-4,0 -0.002,-8.92e-4 -9.92e-4,-0.0021 0.0015,-0.0031 -0.0088,-0.01451 -0.01353,-0.01451 -0.002,0 -0.0035,-0.0014 -0.0035,-0.0032 0,-0.0046 -0.0096,-0.01283 -0.01715,-0.01469 -0.0052,-0.0014 -0.0065,-0.003 -0.0065,-0.0085 0,-0.0045 -9.91e-4,-0.0068 -0.003,-0.0068 -0.002,0 -0.003,-10e-4 -0.003,-0.0025 0,-0.0014 9.91e-4,-0.0018 0.0025,-8.93e-4 0.0015,10e-4 0.002,3.04e-4 0.0015,-0.0016 -4.95e-4,-0.0018 -0.003,-0.0043 -0.0062,-0.0056 -0.0025,-0.0012 -0.0052,-0.0032 -0.0052,-0.0043 0,-0.001 -9.91e-4,-0.0012 -0.002,-4.55e-4 -9.92e-4,7.93e-4 -0.002,4.55e-4 -0.002,-8.92e-4 0,-0.0012 9.91e-4,-0.0027 0.0025,-0.0034 0.0045,-0.0016 -2.5e-5,-0.0049 -0.0079,-0.0055 -0.01343,-8.92e-4 -0.0177,-0.003 -0.01814,-0.0085 -1.49e-4,-0.003 -0.0015,-0.0065 -0.0035,-0.0078 -0.0015,-0.0014 -0.0045,-0.0048 -0.0061,-0.0077 -0.0015,-0.0034 -0.0045,-0.0051 -0.008,-0.0047 -0.0045,4.54e-4 -0.0056,-8.92e-4 -0.0065,-0.0077 -4.96e-4,-0.005 -0.0025,-0.0084 -0.0052,-0.0086 -0.002,-1.51e-4 -0.0065,-4.54e-4 -0.01,-6.44e-4 -0.0052,-1.52e-4 -0.0061,-0.0012 -0.0052,-0.004 4.95e-4,-0.0021 1.24e-4,-0.0046 -0.0015,-0.0056 -0.002,-0.0014 -0.002,-0.0023 -2.98e-4,-0.0035 0.0015,-8.92e-4 0.003,3.5e-5 0.0035,0.0021 0.002,0.0056 0.006,0.0044 0.0052,-0.0016 -4.96e-4,-0.0043 -0.0025,-0.0055 -0.01,-0.0061 -0.0056,-4.54e-4 -0.01,4.54e-4 -0.01105,0.0022 -9.91e-4,0.0022 -0.0025,0.0021 -0.0056,-7.93e-4 -0.003,-0.0032 -0.003,-0.0039 -1.58e-4,-0.005 0.002,-7.93e-4 0.003,-0.0034 0.002,-0.0067 -4.95e-4,-0.003 -9.91e-4,-0.0062 -9.91e-4,-0.0072 -9.4e-5,-8.92e-4 -0.003,-0.0018 -0.0067,-0.0019 -0.0067,-1.52e-4 -0.01834,-0.0041 -0.01299,-0.0044 0.0015,-9.1e-5 0.0025,-0.0014 0.0025,-0.0026 0,-0.0014 -9.91e-4,-0.0018 -0.0025,-8.92e-4 -0.0015,10e-4 -0.002,3.7e-5 -9.92e-4,-0.0028 9.92e-4,-0.0034 -0.003,-0.0079 -0.01685,-0.01874 -0.01,-0.0079 -0.01968,-0.01769 -0.02171,-0.02184 -0.002,-0.0042 -0.0045,-0.0076 -0.0057,-0.0076 -0.0035,-9.9e-5 -0.01794,-0.01215 -0.01794,-0.0156 0,-0.0019 -0.0025,-0.0047 -0.0059,-0.0062 -0.003,-0.0015 -0.0059,-0.0035 -0.0059,-0.0046 0,-10e-4 -0.002,-0.0025 -0.0045,-0.0033 -0.0025,-7.93e-4 -0.0056,-0.0035 -0.006,-0.006 -4.96e-4,-0.0025 -0.0061,-0.0075 -0.0119,-0.01112 -0.007,-0.0044 -0.01046,-0.0083 -0.01051,-0.01172 -5.4e-5,-0.0034 -0.003,-0.0073 -0.01056,-0.01173 -0.0057,-0.0037 -0.01006,-0.0073 -0.0096,-0.0081 0.0015,-0.0025 -0.0061,-0.01189 -0.0085,-0.01043 -9.92e-4,7.93e-4 -0.002,4.54e-4 -0.002,-7.93e-4 0,-0.0012 -0.0025,-0.0035 -0.0057,-0.0051 -0.0035,-0.0019 -0.0062,-0.006 -0.0072,-0.01113 -9.91e-4,-0.0067 -0.0025,-0.0083 -0.0091,-0.0097 -0.0045,-8.92e-4 -0.0082,-0.0014 -0.0091,-0.0012 -9.91e-4,3.03e-4 -0.0075,-0.0075 -0.01482,-0.01725 -0.0073,-0.0097 -0.01447,-0.01768 -0.01601,-0.01768 -0.0015,0 -0.002,-7.93e-4 -9.91e-4,-0.0015 0.0015,-0.0017 -0.0052,-0.01026 -0.0082,-0.01026 -9.91e-4,0 -0.0071,-0.0053 -0.01343,-0.01178 -0.0092,-0.0094 -0.01205,-0.01121 -0.01452,-0.0089 -0.002,0.0023 -0.0025,0.002 -0.0015,-0.0018 0.0015,-0.0057 -0.01537,-0.02402 -0.01973,-0.0213 -0.0015,8.93e-4 -0.002,3.03e-4 -0.002,-0.0015 3.07e-4,-0.0018 -0.007,-0.01074 -0.01631,-0.01995 -0.0094,-0.0092 -0.01809,-0.01969 -0.01948,-0.02328 -0.0015,-0.0039 -0.0056,-0.0076 -0.0096,-0.0092 -0.0035,-0.0015 -0.0084,-0.0056 -0.01001,-0.0093 -0.0015,-0.0036 -0.0052,-0.0066 -0.0071,-0.0066 -0.002,0 -0.0045,-0.0012 -0.0045,-0.0025 0,-0.0015 0.002,-0.0019 0.0052,-8.92e-4 0.003,0.001 0.0045,7.93e-4 0.003,-10e-4 -0.002,-0.0034 -0.0091,-0.0034 -0.01254,2.5e-5 -0.002,0.0019 -0.003,0.0014 -0.0058,-0.0024 -0.0015,-0.0027 -0.0052,-0.005 -0.0073,-0.005 -0.002,0 -0.0045,-8.92e-4 -0.0045,-0.0021 0,-10e-4 0.0025,-0.0015 0.0059,-8.92e-4 0.003,6.44e-4 0.0059,0.0021 0.0059,0.0032 0,0.0012 9.92e-4,0.0021 0.002,0.0021 9.91e-4,0 0.002,-0.0026 0.002,-0.0057 0,-0.0044 -0.0015,-0.0063 -0.0083,-0.0085 -0.0045,-0.0015 -0.0083,-0.0037 -0.0083,-0.0048 0,-10e-4 -0.002,-0.0027 -0.0056,-0.0037 -0.0025,-8.92e-4 -0.01031,-0.0066 -0.01631,-0.01259 -0.01874,-0.01866 -0.02781,-0.02632 -0.03395,-0.02865 -0.003,-0.0014 -0.0059,-0.0041 -0.0059,-0.0068 0,-0.0086 -0.0025,-0.0125 -0.0062,-0.0094 -0.0015,0.0015 -0.0035,0.002 -0.0052,0.001 -9.91e-4,-8.92e-4 -8.4e-5,-0.0026 0.0015,-0.0039 0.0025,-0.0016 9.92e-4,-0.0022 -0.0045,-0.0023 -0.0045,-1.9e-5 -0.0072,-0.001 -0.0065,-0.0023 4.96e-4,-0.0012 1.49e-4,-0.003 -9.91e-4,-0.0039 -0.0015,-8.92e-4 -0.0035,-1.51e-4 -0.0052,0.0016 -0.0015,0.0026 -0.002,0.0024 -0.002,-8.93e-4 -1.5e-5,-0.0023 0.0015,-0.0042 0.003,-0.0042 0.002,0 0.003,-0.001 0.003,-0.0024 0,-0.0014 -0.0015,-0.0024 -0.0035,-0.0024 -0.002,0 -0.003,-0.0014 -0.0025,-0.0032 4.96e-4,-0.0018 -0.0015,-0.0049 -0.0056,-0.0072 -0.0035,-0.0022 -0.0074,-0.0062 -0.0083,-0.0089 -9.91e-4,-0.0034 -0.0025,-0.0046 -0.006,-0.0037 -0.0057,0.0015 -0.0059,-0.0023 -3.07e-4,-0.004 0.002,-7.93e-4 7.9e-5,-8.92e-4 -0.0052,-6.44e-4 -0.0082,6.44e-4 -0.0091,4e-6 -0.01036,-0.006 -0.0015,-0.0078 -0.0025,-0.0081 -0.0071,-0.0025 -0.003,0.0038 -0.003,0.0037 -0.0015,-0.0015 9.92e-4,-0.0038 4.96e-4,-0.0051 -9.91e-4,-0.004 -0.0015,8.92e-4 -0.0025,6.45e-4 -0.0025,-6.44e-4 0,-0.0031 0.009,-0.0052 0.01036,-0.0025 4.96e-4,0.0012 9.91e-4,7.93e-4 4.56e-4,-8.92e-4 -3.02e-4,-0.0016 -0.0035,-0.0033 -0.0075,-0.0037 -0.01155,-0.0012 -0.01378,-0.0024 -0.01061,-0.0062 0.002,-0.0026 9.91e-4,-0.0053 -0.0061,-0.01299 -0.0052,-0.0053 -0.01031,-0.0097 -0.01195,-0.0097 -0.0015,0 -0.003,-10e-4 -0.003,-0.0025 0,-0.0014 -0.008,-0.01042 -0.01779,-0.02015 -0.01903,-0.01893 -0.01948,-0.02045 -0.0083,-0.03055 0.003,-0.0029 0.0079,-0.0044 0.01244,-0.004 0.0035,3.02e-4 0.0082,-7.93e-4 0.0094,-0.0025 0.0015,-0.0024 0.002,-0.0024 0.0035,1.31e-4 0.0015,0.0025 0.0025,0.0019 0.0065,-0.0024 0.0045,-0.0054 0.01289,-0.0073 0.01646,-0.0038 0.003,0.0034 0.0082,0.0017 0.01021,-0.0035 0.0015,-0.0044 0.003,-0.0051 0.0117,-0.0046 0.0058,4.54e-4 0.0098,-3.04e-4 0.0098,-0.0018 0,-0.0014 -9.91e-4,-0.0025 -0.002,-0.0025 -9.92e-4,0 -0.0015,-0.0015 -9.92e-4,-0.0034 9.92e-4,-0.0027 0.002,-0.0028 0.0045,-6.44e-4 0.0015,0.0015 0.0025,0.0037 0.002,0.0047 -0.0025,0.0044 0.0035,0.0012 0.0081,-0.0039 0.003,-0.004 0.0056,-0.0051 0.0079,-0.0036 0.0052,0.0033 0.0093,0.0026 0.0078,-0.0014 -4.95e-4,-0.0019 -1.49e-4,-0.0035 9.92e-4,-0.0035 0.0035,0 0.003,0.0088 -3.03e-4,0.01027 -0.002,7.93e-4 -0.0015,0.0012 4.96e-4,0.0014 0.002,9.9e-5 0.0057,-0.003 0.0083,-0.0069 0.0052,-0.0073 0.01061,-0.0111 0.01061,-0.007 0,0.0031 0.0081,0.0029 0.01928,-4.54e-4 0.0056,-0.0016 0.0092,-0.0042 0.0092,-0.0065 3e-5,-0.0025 4.96e-4,-0.0028 0.0015,-0.001 0.0025,0.0046 0.02156,0.0036 0.02414,-0.0014 9.91e-4,-0.0023 0.0015,-0.0049 4.96e-4,-0.0058 -0.0025,-0.0026 0.0056,-0.0016 0.01591,0.0021 0.01239,0.0044 0.0116,0.0045 0.01016,-0.0012 -9.91e-4,-0.0044 0.0025,-0.0068 0.0045,-0.003 9.92e-4,0.0021 -4.56e-4,-0.0039 -0.002,-0.0085 -9.92e-4,-0.0025 1.53e-4,-0.0024 0.0058,4.54e-4 0.0068,0.0035 0.007,0.0034 0.0066,-0.0015 -4.96e-4,-0.0068 4.96e-4,-0.0088 0.0052,-0.0072 0.0025,10e-4 0.0025,0.0022 4.96e-4,0.0057 -0.0045,0.0074 4.96e-4,0.0086 0.0067,0.0015 0.003,-0.0038 0.0069,-0.0059 0.0084,-0.005 0.0015,8.93e-4 0.0067,0.0022 0.0116,0.0027 0.0078,8.92e-4 0.0096,1.06e-4 0.01432,-0.0063 0.0025,-0.004 0.0059,-0.0064 0.0067,-0.0053 0.002,0.0033 0.012,0.0057 0.012,0.0028 0,-0.0014 9.92e-4,-0.0025 0.0025,-0.0025 9.91e-4,0 0.0015,0.001 9.91e-4,0.0024 -4.96e-4,0.0014 -3.07e-4,0.0024 9.91e-4,0.0024 9.92e-4,0 0.0025,-0.0014 0.0025,-0.0032 0,-0.0018 0.002,-0.005 0.0045,-0.0072 0.0045,-0.0038 0.0045,-0.0038 0.0061,1.52e-4 0.0015,0.004 0.0015,0.004 0.0035,1.01e-4 9.92e-4,-0.0023 0.003,-0.0042 0.0052,-0.0042 0.0015,0 0.0015,0.0012 -4.56e-4,0.0035 -0.0052,0.006 0.0015,0.0041 0.0086,-0.0024 0.0035,-0.0037 0.0079,-0.0054 0.01021,-0.0044 0.0079,0.0033 0.01418,0.0029 0.01547,-10e-4 0.0015,-0.005 0.01611,-0.0122 0.02454,-0.0122 0.0035,0 0.0086,-0.0015 0.0111,-0.0033 0.003,-0.0023 0.0062,-0.0026 0.0098,-0.0012 0.003,0.0014 0.0081,8.92e-4 0.01309,-0.001 0.0045,-0.0017 0.0099,-0.0039 0.01254,-0.005 0.0025,-0.001 0.0074,-0.002 0.01061,-0.0021 0.0052,-1.52e-4 0.0059,-0.0015 0.0059,-0.0066 0,-0.0035 4.95e-4,-0.0071 0.0015,-0.0081 0.0015,-0.0019 0.0025,0.0016 0.002,0.0096 -3.07e-4,0.0047 -3.07e-4,0.0047 0.003,1.39e-4 0.002,-0.0025 0.0035,-0.0036 0.0035,-0.0024 2e-5,0.0012 9.91e-4,7.93e-4 0.002,-0.001 9.91e-4,-0.0018 0.0056,-0.0034 0.0092,-0.0035 0.0035,-1.46e-4 0.0067,-8.93e-4 0.0063,-0.0015 -0.0015,-0.003 0.0025,-0.0066 0.0059,-0.0047 0.0025,0.0017 0.0025,0.0027 3.02e-4,0.0058 -0.0025,0.0033 -0.002,0.0037 0.0035,0.0037 0.0056,-2.8e-5 0.006,-6.44e-4 0.003,-0.0025 -0.0025,-0.002 -0.0025,-0.0023 9.91e-4,-0.0018 0.0025,4.55e-4 0.0078,-0.0023 0.01239,-0.0071 0.0052,-0.0049 0.0075,-0.0065 0.0075,-0.0043 0,0.0019 -0.0015,0.0047 -0.0035,0.006 -0.0035,0.0023 -0.0035,0.0028 0.0015,0.0073 0.007,0.006 0.01209,0.0027 0.01209,-0.0077 0,-0.0059 4.96e-4,-0.0066 0.003,-0.0043 0.0025,0.0022 0.0073,0.0015 0.02151,-0.0033 0.0099,-0.0033 0.02191,-0.0067 0.02657,-0.0074 0.0045,-7.93e-4 0.01061,-0.0034 0.01323,-0.0059 0.0045,-0.0041 0.0089,-0.0056 0.01403,-0.0048 9.91e-4,1.51e-4 0.0015,-0.0014 0.0015,-0.0033 0,-0.0019 9.91e-4,-0.0035 0.002,-0.0035 9.92e-4,0 0.002,0.0016 0.002,0.0035 0,0.0019 0.0015,0.0035 0.003,0.0035 0.002,0 0.003,-0.0016 0.003,-0.0035 0,-0.0019 9.92e-4,-0.0035 0.002,-0.0035 9.91e-4,0 0.002,0.0012 0.002,0.0026 0,0.0018 9.91e-4,0.0016 0.0035,-4.54e-4 0.002,-0.0017 0.0079,-0.0029 0.01284,-0.0026 0.0078,4.54e-4 0.0092,-3.04e-4 0.01011,-0.0049 9.92e-4,-0.0053 9.92e-4,-0.0053 9.92e-4,3.03e-4 3.02e-4,0.0054 4.46e-4,0.0055 0.003,0.0014 0.0015,-0.0024 0.0057,-0.0047 0.0089,-0.005 0.003,-3.03e-4 0.0064,-7.93e-4 0.0073,-7.93e-4 9.91e-4,-1.09e-4 9.91e-4,-0.0021 4.51e-4,-0.0043 -9.92e-4,-0.0038 -9.92e-4,-0.0038 0.002,1.42e-4 0.002,0.0027 0.0035,0.0034 0.0052,0.0018 0.002,-0.0035 0.0066,-0.0032 0.0045,4.54e-4 -9.92e-4,0.0016 9.91e-4,4.54e-4 0.0045,-0.0025 0.0045,-0.0043 0.0082,-0.0053 0.01636,-0.0047 0.0094,6.45e-4 0.01046,1.37e-4 0.0112,-0.0049 4.96e-4,-0.0049 0.0015,-0.0054 0.0083,-0.0041 0.0035,7.94e-4 0.0079,0.0025 0.0083,0.0038 4.56e-4,0.0012 0.0025,0.0023 0.0052,0.0023 0.0052,0 0.01279,-0.0079 0.01046,-0.01026 -9.92e-4,-8.92e-4 -2.98e-4,-0.0016 9.91e-4,-0.0016 0.0015,0 0.0025,-0.0016 0.0025,-0.0036 0,-0.0032 4.96e-4,-0.0032 0.0056,2.4e-5 0.0052,0.0033 0.007,0.0032 0.02369,-0.0023 0.01001,-0.0033 0.01978,-0.0059 0.02171,-0.0059 0.0015,0 0.003,-0.001 0.003,-0.0025 0,-0.0014 9.92e-4,-0.0018 0.002,-0.001 9.91e-4,7.93e-4 0.002,4.54e-4 0.002,-7.93e-4 0,-0.0012 0.0015,-0.0021 0.0035,-0.0019 0.002,1.51e-4 0.0035,-8.93e-4 0.0035,-0.0024 9e-5,-0.0044 0.0035,-0.0067 0.0035,-0.0024 0,0.0022 4.51e-4,0.0039 9.91e-4,0.0039 0.003,0 0.01779,-0.0083 0.01779,-0.01019 0,-0.0012 0.0015,-7.93e-4 0.0035,0.001 0.002,0.0018 0.003,0.0021 0.002,6.44e-4 -9.92e-4,-0.0015 1.19e-4,-0.0034 0.002,-0.0042 0.0052,-0.002 0.0074,6.45e-4 0.003,0.0037 -0.007,0.0049 0.01824,-0.0012 0.03113,-0.0075 0.002,-10e-4 0.009,-0.0026 0.01537,-0.0035 0.0064,-8.92e-4 0.01324,-0.0032 0.01537,-0.005 0.002,-0.0018 0.0094,-0.0034 0.01626,-0.0036 0.01006,-1.51e-4 0.01274,-0.0012 0.01368,-0.0047 9.92e-4,-0.0044 0.0067,-0.0055 0.02231,-0.0046 0.0035,3.04e-4 0.0072,-0.0012 0.0088,-0.0042 0.002,-0.0038 0.0045,-0.0044 0.01289,-0.0034 0.007,7.93e-4 0.01105,1.51e-4 0.01229,-0.0018 9.91e-4,-0.0019 9.91e-4,-0.0024 -4.96e-4,-0.0014 -9.91e-4,8.92e-4 -0.003,4.54e-4 -0.0035,-7.93e-4 -4.96e-4,-0.0014 4.51e-4,-0.0024 0.0025,-0.0024 0.002,0 0.0057,-0.0012 0.0072,-0.0028 0.0015,-0.0015 0.0025,-0.0021 0.003,-0.0012 1.48e-4,8.93e-4 4.95e-4,0.0027 9.91e-4,0.004 3.07e-4,0.0014 4.96e-4,0.0034 9.91e-4,0.0047 4.96e-4,0.0047 0.0097,0.0023 0.01358,-0.0035 0.0025,-0.0045 0.0059,-0.0059 0.01244,-0.006 0.0052,-1.9e-5 0.0074,-7.93e-4 0.0059,-0.0018 -0.0035,-0.0025 -0.0065,-0.01239 -0.003,-0.01239 9.91e-4,0 0.0025,0.0014 0.0025,0.003 4e-5,0.0016 0.0015,0.0048 0.003,0.0071 0.0025,0.0039 0.003,0.0038 0.0092,-0.0015 0.0045,-0.0043 0.0081,-0.0054 0.01482,-0.0048 0.006,6.44e-4 0.01061,-6.45e-4 0.01472,-0.0039 0.0061,-0.0048 0.01358,-0.0061 0.01561,-0.0027 4.96e-4,10e-4 -1.53e-4,0.0046 -0.0015,0.0078 -0.002,0.0048 -0.002,0.0064 1.19e-4,0.0088 0.002,0.0019 0.003,0.0021 0.003,3.02e-4 0,-0.0014 9.92e-4,-0.0019 0.002,-0.0012 0.0035,0.0023 0.0025,0.0055 -0.0015,0.0064 -0.002,4.54e-4 -0.0056,-7.93e-4 -0.0072,-0.0027 -0.0025,-0.0031 -0.0025,-0.0016 -0.002,0.0087 4.96e-4,0.01021 3.08e-4,0.0126 -0.003,0.01369 -0.002,7.93e-4 -0.0052,0.0055 -0.0067,0.01175 -0.003,0.0126 -0.003,0.01372 -4.51e-4,0.01206 0.0025,-0.0017 0.0086,0.0054 0.0062,0.0076 -9.91e-4,8.92e-4 -0.002,4.54e-4 -0.0025,-0.0012 -4.96e-4,-0.0016 -0.0025,-0.003 -0.0045,-0.003 -0.0015,0 -0.003,-0.0012 -0.003,-0.0026 0,-0.0018 -9.92e-4,-0.0017 -0.003,3.04e-4 -0.0045,0.0038 -0.0045,0.0069 4.56e-4,0.01237 0.003,0.0037 0.003,0.0053 9.92e-4,0.0091 -0.002,0.0038 -0.002,0.0046 4.95e-4,0.0046 0.002,0 0.003,0.0016 0.003,0.0035 0,0.0019 -9.92e-4,0.0035 -0.0025,0.0035 -9.91e-4,0 -0.0015,-0.0012 -9.91e-4,-0.0026 9.91e-4,-0.0016 -7e-5,-0.0023 -0.0025,-0.0017 -0.0025,4.54e-4 -0.0045,0.0032 -0.0052,0.0067 -0.0015,0.01797 -0.0062,0.03743 -0.011,0.04966 -0.0025,0.0072 -0.008,0.02872 -0.009,0.03728 -1.53e-4,0.0016 -9.91e-4,0.003 -0.002,0.003 -9.92e-4,0 -9.92e-4,0.0026 -4.96e-4,0.0059 9.91e-4,0.0039 4.51e-4,0.0059 -9.91e-4,0.0059 -0.0015,0 -0.002,0.0015 -0.0015,0.0035 4.95e-4,0.0019 3.07e-4,0.0041 -9.92e-4,0.0049 -0.0035,0.0023 -0.0025,0.01532 9.92e-4,0.01532 0.002,0 0.003,0.0012 0.003,0.0026 0,0.0015 -0.0015,0.002 -0.003,0.0012 -0.0035,-0.0015 -0.01884,0.01298 -0.02151,0.02063 -0.002,0.0063 0.002,0.0097 0.0081,0.0065 0.003,-0.0017 0.0056,-0.0018 0.0063,-1.52e-4 4.96e-4,0.0014 1.44e-4,0.0024 -9.91e-4,0.0024 -0.002,0 -0.002,8.92e-4 1.48e-4,0.0035 0.002,0.0029 0.002,0.0035 -4.95e-4,0.0035 -0.002,0 -0.0035,-0.0014 -0.0052,-0.003 -0.0015,-0.0039 -0.0064,0.0087 -0.0064,0.01622 0,0.0032 -0.002,0.0098 -0.0045,0.01463 -0.0052,0.0097 -0.0052,0.0099 -0.0052,0.01807 0,0.0032 -0.002,0.0087 -0.0056,0.01242 -0.007,0.0086 -0.0068,0.01553 3.08e-4,0.01725 l 0.0056,0.0014 -0.0052,0.0046 c -0.003,0.003 -0.0035,0.0051 -0.002,0.0062 0.0015,10e-4 9.92e-4,0.0021 -9.91e-4,0.0031 -0.002,8.92e-4 -0.0035,1.48e-4 -0.0035,-0.0022 0,-0.002 -9.91e-4,-0.003 -0.002,-0.0022 -0.003,0.0022 -0.0025,0.0098 9.91e-4,0.0137 0.0025,0.003 0.0025,0.0041 1.39e-4,0.0081 -0.0015,0.0025 -0.0056,0.01016 -0.0079,0.01688 -0.0035,0.0099 -0.0035,0.01222 -9.91e-4,0.01222 0.0015,0 0.003,0.0012 0.003,0.0026 0,0.0015 -0.0015,0.0021 -0.003,0.0014 -0.0025,-10e-4 -0.003,0.0018 -0.0035,0.01254 -4.56e-4,0.0076 5e-6,0.01333 9.91e-4,0.01272 9.91e-4,-6.44e-4 0.0015,6.44e-4 0.0015,0.0028 0,0.0025 -9.91e-4,0.0034 -0.003,0.0026 -0.002,-7.93e-4 -0.003,-1.52e-4 -0.003,0.0014 0,0.0015 -0.0025,0.0061 -0.0059,0.01042 -0.0066,0.0087 -0.0077,0.01399 -0.002,0.01198 0.0015,-7.93e-4 0.0035,-3.03e-4 0.0052,8.92e-4 9.92e-4,0.0021 -0.002,0.0033 -0.0069,0.0024 -9.92e-4,-1.51e-4 -2.98e-4,0.0025 0.002,0.006 l 0.0045,0.0064 -0.0084,-0.0014 c -0.0056,-8.92e-4 -0.0093,-3.03e-4 -0.01076,0.0015 -0.0025,0.0037 -0.0015,0.01236 0.0015,0.01157 0.0015,-3.03e-4 0.0025,4.55e-4 0.0025,0.0018 0,0.0014 0.0015,0.0024 0.003,0.0024 0.0057,0 0.0035,0.0061 -0.002,0.009 -0.0076,0.0035 -0.01026,0.0134 -0.0052,0.01921 0.003,0.0036 0.003,0.0049 9.92e-4,0.0077 -0.01061,0.01144 -0.01234,0.01404 -0.0082,0.01248 0.002,-8.92e-4 0.0035,-4.54e-4 0.0035,0.001 0,0.0015 -0.0015,0.0026 -0.0035,0.0026 -0.0025,0 -0.003,8.92e-4 -0.0015,0.003 0.003,0.0042 0.0025,0.0065 -0.0035,0.01666 -0.0035,0.0062 -0.0052,0.01126 -0.0045,0.01648 4.96e-4,0.0047 -1.58e-4,0.0088 -0.002,0.01089 -0.002,0.0021 -0.0025,0.0056 -0.0015,0.0093 9.91e-4,0.0047 4.95e-4,0.0056 -0.002,0.0045 -0.0025,-0.001 -0.0035,4.55e-4 -0.0035,0.008 0,0.0068 -9.91e-4,0.01018 -0.0052,0.01233 -0.0025,0.0016 -0.0052,0.0038 -0.0052,0.0049 0,0.001 9.91e-4,0.0012 0.002,4.54e-4 9.91e-4,-7.93e-4 0.002,-3.03e-4 0.002,10e-4 0,0.0014 -9.91e-4,0.0025 -0.002,0.0025 -0.0015,0 -0.0015,0.0031 -9.92e-4,0.0083 9.92e-4,0.0059 4.51e-4,0.01006 -0.002,0.01446 -0.002,0.0034 -0.003,0.0087 -0.0025,0.01187 4.96e-4,0.0032 1.54e-4,0.0063 -9.91e-4,0.007 -9.91e-4,7.94e-4 -0.002,0.0037 -0.002,0.0066 0,0.003 -9.91e-4,0.0063 -0.002,0.0076 -9.91e-4,0.0012 -0.0025,0.0064 -0.003,0.01144 -4.95e-4,0.005 -0.003,0.01278 -0.0052,0.01717 -0.002,0.0044 -0.0035,0.01357 -0.0035,0.0204 -9.4e-5,0.0094 -0.0015,0.01404 -0.0057,0.01911 -0.0064,0.0077 -0.007,0.01395 -0.0015,0.0182 0.003,0.0026 0.003,0.0034 -4.96e-4,0.0071 -0.002,0.0023 -0.0052,0.0037 -0.0058,0.0032 -9.91e-4,-4.54e-4 -0.003,8.92e-4 -0.0057,0.0033 -0.0035,0.0039 -0.0035,0.0042 -1.53e-4,0.0049 0.002,4.54e-4 0.0035,0.0019 0.0035,0.0032 0,0.0014 -0.0015,0.0018 -0.003,10e-4 -0.002,-7.93e-4 -0.003,-3.04e-4 -0.003,8.92e-4 0,0.0012 0.002,0.0023 0.0052,0.0023 0.0063,0 0.006,0.0059 -4.96e-4,0.01079 -0.0056,0.0039 -0.0056,0.0039 0.002,0.0025 0.0045,-7.93e-4 0.0077,-4.55e-4 0.0077,6.44e-4 0,0.0024 -0.01388,0.0055 -0.01685,0.0037 -0.003,-0.0021 -0.0025,0.0023 9.92e-4,0.0074 0.0052,0.0067 0.0045,0.01183 -0.002,0.01621 -0.0052,0.0032 -0.0059,0.0058 -0.0059,0.0148 0,0.0077 9.92e-4,0.01183 0.0035,0.01395 0.0056,0.004 0.002,0.0069 -0.003,0.0032 -0.0052,-0.0031 -0.01239,-0.0016 -0.01239,0.0023 0,0.0012 0.0015,0.0039 0.003,0.0058 0.0045,0.0046 0.0045,0.0067 -4.96e-4,0.01243 -0.01021,0.01155 -0.01264,0.02072 -0.0062,0.02317 0.003,0.0012 0.0025,0.0025 -0.002,0.0094 -0.0052,0.0063 -0.0058,0.0097 -0.0052,0.01629 9.91e-4,0.0069 4.96e-4,0.0086 -0.003,0.0098 -0.0025,8.92e-4 -0.0056,0.0032 -0.0061,0.0051 -4.96e-4,0.0021 -3.08e-4,0.003 9.91e-4,0.0022 9.91e-4,-7.93e-4 0.002,-3.02e-4 0.002,10e-4 0,0.0014 -9.92e-4,0.0025 -0.0015,0.0025 -0.0015,0 -0.003,0.0094 -0.0035,0.02544 -1.29e-4,0.003 -9.92e-4,0.0053 -0.0025,0.0053 -9.91e-4,0 -0.0025,0.0044 -0.003,0.0098 -3.02e-4,0.0054 -0.0015,0.0118 -0.0025,0.0142 -0.0015,0.003 -0.0015,0.0044 1.14e-4,0.0044 9.91e-4,0 0.002,10e-4 0.002,0.0024 0,0.0014 -0.0015,0.0024 -0.003,0.0024 -0.002,0 -0.003,0.0027 -0.0025,0.0089 1.49e-4,0.0049 -4.95e-4,0.0096 -0.002,0.01054 -9.92e-4,8.93e-4 -0.002,0.0035 -0.002,0.0057 -10e-6,0.0022 -9.92e-4,0.0045 -0.0025,0.005 -0.002,6.44e-4 -0.002,-4.54e-4 -0.0015,-0.0033 9.92e-4,-0.0039 9.92e-4,-0.004 -0.002,-7.93e-4 -0.002,0.0019 -0.0045,0.0064 -0.0056,0.0099 -9.91e-4,0.0055 -4.96e-4,0.0066 0.0045,0.0079 0.0073,0.0018 0.0058,0.0058 -0.002,0.0058 -0.003,0 -0.0057,0.001 -0.0057,0.0025 0,0.0014 9.91e-4,0.0018 0.002,10e-4 9.92e-4,-7.93e-4 0.002,-3.03e-4 0.002,10e-4 0,0.0014 -9.91e-4,0.0025 -0.002,0.0025 -9.91e-4,0 -0.002,0.0015 -0.002,0.0033 0,0.0057 -0.01031,0.0082 -0.01343,0.0032 z"
       id="path52152" />
    <path
       style="fill:none;stroke:#000000;stroke-width:0.3;stroke-linecap:butt;stroke-linejoin:miter;stroke-miterlimit:4;stroke-dasharray:none;stroke-opacity:1"
       d="m 25.119924,8.2590359 0.0116,1.7503911 v 0 l 0.880991,0.440497 -1.738799,0.788257 1.704027,0.788256 -1.750393,0.857807 1.715616,0.799849 -1.680839,0.823032 1.657656,0.811441 -0.765076,0.405719"
       id="path1525-3" />
    <path
       style="fill:none;stroke:#000000;stroke-width:0.3;stroke-linecap:butt;stroke-linejoin:miter;stroke-miterlimit:4;stroke-dasharray:none;stroke-opacity:1"
       d="m 25.154706,15.724285 -0.0025,2.390535"
       id="path1527-2" />
    <path
       style="fill:none;stroke:#000000;stroke-width:0.3;stroke-linecap:butt;stroke-linejoin:miter;stroke-miterlimit:4;stroke-dasharray:none;stroke-opacity:1"
       d="m 26.389954,18.11486 -2.311557,-7.9e-5"
       id="path1529-1" />
    <path
       style="fill:none;stroke:#000000;stroke-width:0.3;stroke-linecap:butt;stroke-linejoin:miter;stroke-miterlimit:4;stroke-dasharray:none;stroke-opacity:1"
       d="m 23.193173,19.102388 3.901676,2.84e-4"
       id="path1531-0" />
    <path
       style="fill:none;stroke:#000000;stroke-width:0.3;stroke-linecap:butt;stroke-linejoin:miter;stroke-miterlimit:4;stroke-dasharray:none;stroke-opacity:1"
       d="m 25.166295,19.143925 -0.0116,2.098153"
       id="path1533-0" />
    <path
       style="fill:#ffffff;fill-opacity:1;stroke:#646464;stroke-width:0.3;stroke-linecap:butt;stroke-linejoin:miter;stroke-miterlimit:4;stroke-dasharray:none;stroke-opacity:1"
       d="m 22.795628,15.774641 4.002081,-4.002082"
       id="path22088-4"
       sodipodi:nodetypes="cc" />
    <path
       style="fill:none;stroke:#646464;stroke-width:0.3;stroke-linecap:butt;stroke-linejoin:miter;stroke-miterlimit:4;stroke-dasharray:none;stroke-opacity:1"
       d="m 26.350507,11.339706 0.886925,0.886922 0.323777,-1.217568 z"
       id="path46493-2"
       sodipodi:nodetypes="cccc" />
    <path
       style="fill:#646464;fill-opacity:1;stroke:#646464;stroke-width:0.3;stroke-linecap:butt;stroke-linejoin:round;stroke-miterlimit:4;stroke-dasharray:none;stroke-opacity:1"
       d="m 27.222398,12.147728 c -9.92e-4,-0.0016 -0.002,-0.0044 -0.002,-0.0061 -4.96e-4,-0.0049 -0.0075,-0.01148 -0.01487,-0.01452 -0.0035,-0.0015 -0.0078,-0.0053 -0.0092,-0.0085 -0.0015,-0.0032 -0.0045,-0.0058 -0.0062,-0.0058 -0.002,0 -0.0035,-8.93e-4 -0.0035,-0.0019 0,-10e-4 -0.002,-0.0045 -0.0056,-0.0076 -0.0025,-0.0032 -0.0052,-0.006 -0.0052,-0.0064 0.0015,-0.0018 2.98e-4,-0.01011 -0.0015,-0.01011 -9.91e-4,0 -0.0015,0.0016 -9.91e-4,0.0035 4.96e-4,0.0019 1.54e-4,0.0035 -9.91e-4,0.0035 -0.0015,0 -0.0025,-10e-4 -0.0025,-0.0024 0,-0.0014 -0.002,-0.0024 -0.0052,-0.0024 -0.0025,0 -0.0052,-0.0015 -0.0052,-0.0035 0,-0.0019 -9.91e-4,-0.0035 -0.0025,-0.0035 -9.92e-4,0 -0.002,-8.92e-4 -9.92e-4,-0.0021 0.0015,-0.0031 -0.0088,-0.01451 -0.01353,-0.01451 -0.002,0 -0.0035,-0.0014 -0.0035,-0.0032 0,-0.0046 -0.0096,-0.01283 -0.01715,-0.01469 -0.0052,-0.0014 -0.0065,-0.003 -0.0065,-0.0085 0,-0.0045 -9.91e-4,-0.0068 -0.003,-0.0068 -0.002,0 -0.003,-10e-4 -0.003,-0.0025 0,-0.0014 9.91e-4,-0.0018 0.0025,-8.93e-4 0.0015,10e-4 0.002,3.04e-4 0.0015,-0.0016 -4.95e-4,-0.0018 -0.003,-0.0043 -0.0062,-0.0056 -0.0025,-0.0012 -0.0052,-0.0032 -0.0052,-0.0043 0,-0.001 -9.91e-4,-0.0012 -0.002,-4.55e-4 -9.92e-4,7.93e-4 -0.002,4.55e-4 -0.002,-8.92e-4 0,-0.0012 9.91e-4,-0.0027 0.0025,-0.0034 0.0045,-0.0016 -2.5e-5,-0.0049 -0.0079,-0.0055 -0.01343,-8.92e-4 -0.0177,-0.003 -0.01814,-0.0085 -1.49e-4,-0.003 -0.0015,-0.0065 -0.0035,-0.0078 -0.0015,-0.0014 -0.0045,-0.0048 -0.0061,-0.0077 -0.0015,-0.0034 -0.0045,-0.0051 -0.008,-0.0047 -0.0045,4.54e-4 -0.0056,-8.92e-4 -0.0065,-0.0077 -4.96e-4,-0.005 -0.0025,-0.0084 -0.0052,-0.0086 -0.002,-1.51e-4 -0.0065,-4.54e-4 -0.01,-6.44e-4 -0.0052,-1.52e-4 -0.0061,-0.0012 -0.0052,-0.004 4.95e-4,-0.0021 1.24e-4,-0.0046 -0.0015,-0.0056 -0.002,-0.0014 -0.002,-0.0023 -2.98e-4,-0.0035 0.0015,-8.92e-4 0.003,3.5e-5 0.0035,0.0021 0.002,0.0056 0.006,0.0044 0.0052,-0.0016 -4.96e-4,-0.0043 -0.0025,-0.0055 -0.01,-0.0061 -0.0056,-4.54e-4 -0.01,4.54e-4 -0.01105,0.0022 -9.91e-4,0.0022 -0.0025,0.0021 -0.0056,-7.93e-4 -0.003,-0.0032 -0.003,-0.0039 -1.58e-4,-0.005 0.002,-7.93e-4 0.003,-0.0034 0.002,-0.0067 -4.95e-4,-0.003 -9.91e-4,-0.0062 -9.91e-4,-0.0072 -9.4e-5,-8.92e-4 -0.003,-0.0018 -0.0067,-0.0019 -0.0067,-1.52e-4 -0.01834,-0.0041 -0.01299,-0.0044 0.0015,-9.1e-5 0.0025,-0.0014 0.0025,-0.0026 0,-0.0014 -9.91e-4,-0.0018 -0.0025,-8.92e-4 -0.0015,0.001 -0.002,3.7e-5 -9.92e-4,-0.0028 9.92e-4,-0.0034 -0.003,-0.0079 -0.01685,-0.01874 -0.01,-0.0079 -0.01968,-0.01769 -0.02171,-0.02184 -0.002,-0.0042 -0.0045,-0.0076 -0.0057,-0.0076 -0.0035,-9.9e-5 -0.01794,-0.01215 -0.01794,-0.0156 0,-0.0019 -0.0025,-0.0047 -0.0059,-0.0062 -0.003,-0.0015 -0.0059,-0.0035 -0.0059,-0.0046 0,-10e-4 -0.002,-0.0025 -0.0045,-0.0033 -0.0025,-7.93e-4 -0.0056,-0.0035 -0.006,-0.006 -4.96e-4,-0.0025 -0.0061,-0.0075 -0.0119,-0.01112 -0.007,-0.0044 -0.01046,-0.0083 -0.01051,-0.01172 -5.4e-5,-0.0034 -0.003,-0.0073 -0.01056,-0.01173 -0.0057,-0.0037 -0.01006,-0.0073 -0.0096,-0.0081 0.0015,-0.0025 -0.0061,-0.01189 -0.0085,-0.01043 -9.92e-4,7.93e-4 -0.002,4.54e-4 -0.002,-7.93e-4 0,-0.0012 -0.0025,-0.0035 -0.0057,-0.0051 -0.0035,-0.0019 -0.0062,-0.006 -0.0072,-0.01113 -9.91e-4,-0.0067 -0.0025,-0.0083 -0.0091,-0.0097 -0.0045,-8.92e-4 -0.0082,-0.0014 -0.0091,-0.0012 -9.91e-4,3.03e-4 -0.0075,-0.0075 -0.01482,-0.01725 -0.0073,-0.0097 -0.01447,-0.01768 -0.01601,-0.01768 -0.0015,0 -0.002,-7.93e-4 -9.91e-4,-0.0015 0.0015,-0.0017 -0.0052,-0.01026 -0.0082,-0.01026 -9.91e-4,0 -0.0071,-0.0053 -0.01343,-0.01178 -0.0092,-0.0094 -0.01205,-0.01121 -0.01452,-0.0089 -0.002,0.0023 -0.0025,0.002 -0.0015,-0.0018 0.0015,-0.0057 -0.01537,-0.02402 -0.01973,-0.0213 -0.0015,8.93e-4 -0.002,3.03e-4 -0.002,-0.0015 3.07e-4,-0.0018 -0.007,-0.01074 -0.01631,-0.01995 -0.0094,-0.0092 -0.01809,-0.01969 -0.01948,-0.02328 -0.0015,-0.0039 -0.0056,-0.0076 -0.0096,-0.0092 -0.0035,-0.0015 -0.0084,-0.0056 -0.01001,-0.0093 -0.0015,-0.0036 -0.0052,-0.0066 -0.0071,-0.0066 -0.002,0 -0.0045,-0.0012 -0.0045,-0.0025 0,-0.0015 0.002,-0.0019 0.0052,-8.92e-4 0.003,10e-4 0.0045,7.93e-4 0.003,-0.001 -0.002,-0.0034 -0.0091,-0.0034 -0.01254,2.5e-5 -0.002,0.0019 -0.003,0.0014 -0.0058,-0.0024 -0.0015,-0.0027 -0.0052,-0.005 -0.0073,-0.005 -0.002,0 -0.0045,-8.92e-4 -0.0045,-0.0021 0,-10e-4 0.0025,-0.0015 0.0059,-8.92e-4 0.003,6.44e-4 0.0059,0.0021 0.0059,0.0032 0,0.0012 9.92e-4,0.0021 0.002,0.0021 9.91e-4,0 0.002,-0.0026 0.002,-0.0057 0,-0.0044 -0.0015,-0.0063 -0.0083,-0.0085 -0.0045,-0.0015 -0.0083,-0.0037 -0.0083,-0.0048 0,-0.001 -0.002,-0.0027 -0.0056,-0.0037 -0.0025,-8.92e-4 -0.01031,-0.0066 -0.01631,-0.01259 -0.01874,-0.01866 -0.02781,-0.02632 -0.03395,-0.02865 -0.003,-0.0014 -0.0059,-0.0041 -0.0059,-0.0068 0,-0.0086 -0.0025,-0.0125 -0.0062,-0.0094 -0.0015,0.0015 -0.0035,0.002 -0.0052,0.001 -9.91e-4,-8.92e-4 -8.4e-5,-0.0026 0.0015,-0.0039 0.0025,-0.0016 9.92e-4,-0.0022 -0.0045,-0.0023 -0.0045,-1.9e-5 -0.0072,-0.001 -0.0065,-0.0023 4.96e-4,-0.0012 1.49e-4,-0.003 -9.91e-4,-0.0039 -0.0015,-8.92e-4 -0.0035,-1.51e-4 -0.0052,0.0016 -0.0015,0.0026 -0.002,0.0024 -0.002,-8.93e-4 -1.5e-5,-0.0023 0.0015,-0.0042 0.003,-0.0042 0.002,0 0.003,-10e-4 0.003,-0.0024 0,-0.0014 -0.0015,-0.0024 -0.0035,-0.0024 -0.002,0 -0.003,-0.0014 -0.0025,-0.0032 4.96e-4,-0.0018 -0.0015,-0.0049 -0.0056,-0.0072 -0.0035,-0.0022 -0.0074,-0.0062 -0.0083,-0.0089 -9.91e-4,-0.0034 -0.0025,-0.0046 -0.006,-0.0037 -0.0057,0.0015 -0.0059,-0.0023 -3.07e-4,-0.004 0.002,-7.93e-4 7.9e-5,-8.92e-4 -0.0052,-6.44e-4 -0.0082,6.44e-4 -0.0091,4e-6 -0.01036,-0.006 -0.0015,-0.0078 -0.0025,-0.0081 -0.0071,-0.0025 -0.003,0.0038 -0.003,0.0037 -0.0015,-0.0015 9.92e-4,-0.0038 4.96e-4,-0.0051 -9.91e-4,-0.004 -0.0015,8.92e-4 -0.0025,6.45e-4 -0.0025,-6.44e-4 0,-0.0031 0.009,-0.0052 0.01036,-0.0025 4.96e-4,0.0012 9.91e-4,7.93e-4 4.56e-4,-8.92e-4 -3.02e-4,-0.0016 -0.0035,-0.0033 -0.0075,-0.0037 -0.01155,-0.0012 -0.01378,-0.0024 -0.01061,-0.0062 0.002,-0.0026 9.91e-4,-0.0053 -0.0061,-0.01299 -0.0052,-0.0053 -0.01031,-0.0097 -0.01195,-0.0097 -0.0015,0 -0.003,-0.001 -0.003,-0.0025 0,-0.0014 -0.008,-0.01042 -0.01779,-0.02015 -0.01903,-0.01893 -0.01948,-0.02045 -0.0083,-0.03055 0.003,-0.0029 0.0079,-0.0044 0.01244,-0.004 0.0035,3.02e-4 0.0082,-7.93e-4 0.0094,-0.0025 0.0015,-0.0024 0.002,-0.0024 0.0035,1.31e-4 0.0015,0.0025 0.0025,0.0019 0.0065,-0.0024 0.0045,-0.0054 0.01289,-0.0073 0.01646,-0.0038 0.003,0.0034 0.0082,0.0017 0.01021,-0.0035 0.0015,-0.0044 0.003,-0.0051 0.0117,-0.0046 0.0058,4.54e-4 0.0098,-3.04e-4 0.0098,-0.0018 0,-0.0014 -9.91e-4,-0.0025 -0.002,-0.0025 -9.92e-4,0 -0.0015,-0.0015 -9.92e-4,-0.0034 9.92e-4,-0.0027 0.002,-0.0028 0.0045,-6.44e-4 0.0015,0.0015 0.0025,0.0037 0.002,0.0047 -0.0025,0.0044 0.0035,0.0012 0.0081,-0.0039 0.003,-0.004 0.0056,-0.0051 0.0079,-0.0036 0.0052,0.0033 0.0093,0.0026 0.0078,-0.0014 -4.95e-4,-0.0019 -1.49e-4,-0.0035 9.92e-4,-0.0035 0.0035,0 0.003,0.0088 -3.03e-4,0.01027 -0.002,7.93e-4 -0.0015,0.0012 4.96e-4,0.0014 0.002,9.9e-5 0.0057,-0.003 0.0083,-0.0069 0.0052,-0.0073 0.01061,-0.0111 0.01061,-0.007 0,0.0031 0.0081,0.0029 0.01928,-4.54e-4 0.0056,-0.0016 0.0092,-0.0042 0.0092,-0.0065 3e-5,-0.0025 4.96e-4,-0.0028 0.0015,-0.001 0.0025,0.0046 0.02156,0.0036 0.02414,-0.0014 9.91e-4,-0.0023 0.0015,-0.0049 4.96e-4,-0.0058 -0.0025,-0.0026 0.0056,-0.0016 0.01591,0.0021 0.01239,0.0044 0.0116,0.0045 0.01016,-0.0012 -9.91e-4,-0.0044 0.0025,-0.0068 0.0045,-0.003 9.92e-4,0.0021 -4.56e-4,-0.0039 -0.002,-0.0085 -9.92e-4,-0.0025 1.53e-4,-0.0024 0.0058,4.54e-4 0.0068,0.0035 0.007,0.0034 0.0066,-0.0015 -4.96e-4,-0.0068 4.96e-4,-0.0088 0.0052,-0.0072 0.0025,10e-4 0.0025,0.0022 4.96e-4,0.0057 -0.0045,0.0074 4.96e-4,0.0086 0.0067,0.0015 0.003,-0.0038 0.0069,-0.0059 0.0084,-0.005 0.0015,8.93e-4 0.0067,0.0022 0.0116,0.0027 0.0078,8.92e-4 0.0096,1.06e-4 0.01432,-0.0063 0.0025,-0.004 0.0059,-0.0064 0.0067,-0.0053 0.002,0.0033 0.012,0.0057 0.012,0.0028 0,-0.0014 9.92e-4,-0.0025 0.0025,-0.0025 9.91e-4,0 0.0015,10e-4 9.91e-4,0.0024 -4.96e-4,0.0014 -3.07e-4,0.0024 9.91e-4,0.0024 9.92e-4,0 0.0025,-0.0014 0.0025,-0.0032 0,-0.0018 0.002,-0.005 0.0045,-0.0072 0.0045,-0.0038 0.0045,-0.0038 0.0061,1.52e-4 0.0015,0.004 0.0015,0.004 0.0035,1.01e-4 9.92e-4,-0.0023 0.003,-0.0042 0.0052,-0.0042 0.0015,0 0.0015,0.0012 -4.56e-4,0.0035 -0.0052,0.006 0.0015,0.0041 0.0086,-0.0024 0.0035,-0.0037 0.0079,-0.0054 0.01021,-0.0044 0.0079,0.0033 0.01418,0.0029 0.01547,-10e-4 0.0015,-0.005 0.01611,-0.0122 0.02454,-0.0122 0.0035,0 0.0086,-0.0015 0.0111,-0.0033 0.003,-0.0023 0.0062,-0.0026 0.0098,-0.0012 0.003,0.0014 0.0081,8.92e-4 0.01309,-0.001 0.0045,-0.0017 0.0099,-0.0039 0.01254,-0.005 0.0025,-10e-4 0.0074,-0.002 0.01061,-0.0021 0.0052,-1.52e-4 0.0059,-0.0015 0.0059,-0.0066 0,-0.0035 4.95e-4,-0.0071 0.0015,-0.0081 0.0015,-0.0019 0.0025,0.0016 0.002,0.0096 -3.07e-4,0.0047 -3.07e-4,0.0047 0.003,1.39e-4 0.002,-0.0025 0.0035,-0.0036 0.0035,-0.0024 2e-5,0.0012 9.91e-4,7.93e-4 0.002,-10e-4 9.91e-4,-0.0018 0.0056,-0.0034 0.0092,-0.0035 0.0035,-1.46e-4 0.0067,-8.93e-4 0.0063,-0.0015 -0.0015,-0.003 0.0025,-0.0066 0.0059,-0.0047 0.0025,0.0017 0.0025,0.0027 3.02e-4,0.0058 -0.0025,0.0033 -0.002,0.0037 0.0035,0.0037 0.0056,-2.8e-5 0.006,-6.44e-4 0.003,-0.0025 -0.0025,-0.002 -0.0025,-0.0023 9.91e-4,-0.0018 0.0025,4.55e-4 0.0078,-0.0023 0.01239,-0.0071 0.0052,-0.0049 0.0075,-0.0065 0.0075,-0.0043 0,0.0019 -0.0015,0.0047 -0.0035,0.006 -0.0035,0.0023 -0.0035,0.0028 0.0015,0.0073 0.007,0.006 0.01209,0.0027 0.01209,-0.0077 0,-0.0059 4.96e-4,-0.0066 0.003,-0.0043 0.0025,0.0022 0.0073,0.0015 0.02151,-0.0033 0.0099,-0.0033 0.02191,-0.0067 0.02657,-0.0074 0.0045,-7.93e-4 0.01061,-0.0034 0.01323,-0.0059 0.0045,-0.0041 0.0089,-0.0056 0.01403,-0.0048 9.91e-4,1.51e-4 0.0015,-0.0014 0.0015,-0.0033 0,-0.0019 9.91e-4,-0.0035 0.002,-0.0035 9.92e-4,0 0.002,0.0016 0.002,0.0035 0,0.0019 0.0015,0.0035 0.003,0.0035 0.002,0 0.003,-0.0016 0.003,-0.0035 0,-0.0019 9.92e-4,-0.0035 0.002,-0.0035 9.91e-4,0 0.002,0.0012 0.002,0.0026 0,0.0018 9.91e-4,0.0016 0.0035,-4.54e-4 0.002,-0.0017 0.0079,-0.0029 0.01284,-0.0026 0.0078,4.54e-4 0.0092,-3.04e-4 0.01011,-0.0049 9.92e-4,-0.0053 9.92e-4,-0.0053 9.92e-4,3.03e-4 3.02e-4,0.0054 4.46e-4,0.0055 0.003,0.0014 0.0015,-0.0024 0.0057,-0.0047 0.0089,-0.005 0.003,-3.03e-4 0.0064,-7.93e-4 0.0073,-7.93e-4 9.91e-4,-1.09e-4 9.91e-4,-0.0021 4.51e-4,-0.0043 -9.92e-4,-0.0038 -9.92e-4,-0.0038 0.002,1.42e-4 0.002,0.0027 0.0035,0.0034 0.0052,0.0018 0.002,-0.0035 0.0066,-0.0032 0.0045,4.54e-4 -9.92e-4,0.0016 9.91e-4,4.54e-4 0.0045,-0.0025 0.0045,-0.0043 0.0082,-0.0053 0.01636,-0.0047 0.0094,6.45e-4 0.01046,1.37e-4 0.0112,-0.0049 4.96e-4,-0.0049 0.0015,-0.0054 0.0083,-0.0041 0.0035,7.94e-4 0.0079,0.0025 0.0083,0.0038 4.56e-4,0.0012 0.0025,0.0023 0.0052,0.0023 0.0052,0 0.01279,-0.0079 0.01046,-0.01026 -9.92e-4,-8.92e-4 -2.98e-4,-0.0016 9.91e-4,-0.0016 0.0015,0 0.0025,-0.0016 0.0025,-0.0036 0,-0.0032 4.96e-4,-0.0032 0.0056,2.4e-5 0.0052,0.0033 0.007,0.0032 0.02369,-0.0023 0.01001,-0.0033 0.01978,-0.0059 0.02171,-0.0059 0.0015,0 0.003,-10e-4 0.003,-0.0025 0,-0.0014 9.92e-4,-0.0018 0.002,-0.001 9.91e-4,7.93e-4 0.002,4.54e-4 0.002,-7.93e-4 0,-0.0012 0.0015,-0.0021 0.0035,-0.0019 0.002,1.51e-4 0.0035,-8.93e-4 0.0035,-0.0024 9e-5,-0.0044 0.0035,-0.0067 0.0035,-0.0024 0,0.0022 4.51e-4,0.0039 9.91e-4,0.0039 0.003,0 0.01779,-0.0083 0.01779,-0.01019 0,-0.0012 0.0015,-7.93e-4 0.0035,0.001 0.002,0.0018 0.003,0.0021 0.002,6.44e-4 -9.92e-4,-0.0015 1.19e-4,-0.0034 0.002,-0.0042 0.0052,-0.002 0.0074,6.45e-4 0.003,0.0037 -0.007,0.0049 0.01824,-0.0012 0.03113,-0.0075 0.002,-0.001 0.009,-0.0026 0.01537,-0.0035 0.0064,-8.92e-4 0.01324,-0.0032 0.01537,-0.005 0.002,-0.0018 0.0094,-0.0034 0.01626,-0.0036 0.01006,-1.51e-4 0.01274,-0.0012 0.01368,-0.0047 9.92e-4,-0.0044 0.0067,-0.0055 0.02231,-0.0046 0.0035,3.04e-4 0.0072,-0.0012 0.0088,-0.0042 0.002,-0.0038 0.0045,-0.0044 0.01289,-0.0034 0.007,7.93e-4 0.01105,1.51e-4 0.01229,-0.0018 9.91e-4,-0.0019 9.91e-4,-0.0024 -4.96e-4,-0.0014 -9.91e-4,8.92e-4 -0.003,4.54e-4 -0.0035,-7.93e-4 -4.96e-4,-0.0014 4.51e-4,-0.0024 0.0025,-0.0024 0.002,0 0.0057,-0.0012 0.0072,-0.0028 0.0015,-0.0015 0.0025,-0.0021 0.003,-0.0012 1.48e-4,8.93e-4 4.95e-4,0.0027 9.91e-4,0.004 3.07e-4,0.0014 4.96e-4,0.0034 9.91e-4,0.0047 4.96e-4,0.0047 0.0097,0.0023 0.01358,-0.0035 0.0025,-0.0045 0.0059,-0.0059 0.01244,-0.006 0.0052,-1.9e-5 0.0074,-7.93e-4 0.0059,-0.0018 -0.0035,-0.0025 -0.0065,-0.01239 -0.003,-0.01239 9.91e-4,0 0.0025,0.0014 0.0025,0.003 4e-5,0.0016 0.0015,0.0048 0.003,0.0071 0.0025,0.0039 0.003,0.0038 0.0092,-0.0015 0.0045,-0.0043 0.0081,-0.0054 0.01482,-0.0048 0.006,6.44e-4 0.01061,-6.45e-4 0.01472,-0.0039 0.0061,-0.0048 0.01358,-0.0061 0.01561,-0.0027 4.96e-4,10e-4 -1.53e-4,0.0046 -0.0015,0.0078 -0.002,0.0048 -0.002,0.0064 1.19e-4,0.0088 0.002,0.0019 0.003,0.0021 0.003,3.02e-4 0,-0.0014 9.92e-4,-0.0019 0.002,-0.0012 0.0035,0.0023 0.0025,0.0055 -0.0015,0.0064 -0.002,4.54e-4 -0.0056,-7.93e-4 -0.0072,-0.0027 -0.0025,-0.0031 -0.0025,-0.0016 -0.002,0.0087 4.96e-4,0.01021 3.08e-4,0.0126 -0.003,0.01369 -0.002,7.93e-4 -0.0052,0.0055 -0.0067,0.01175 -0.003,0.0126 -0.003,0.01372 -4.51e-4,0.01206 0.0025,-0.0017 0.0086,0.0054 0.0062,0.0076 -9.91e-4,8.92e-4 -0.002,4.54e-4 -0.0025,-0.0012 -4.96e-4,-0.0016 -0.0025,-0.003 -0.0045,-0.003 -0.0015,0 -0.003,-0.0012 -0.003,-0.0026 0,-0.0018 -9.92e-4,-0.0017 -0.003,3.04e-4 -0.0045,0.0038 -0.0045,0.0069 4.56e-4,0.01237 0.003,0.0037 0.003,0.0053 9.92e-4,0.0091 -0.002,0.0038 -0.002,0.0046 4.95e-4,0.0046 0.002,0 0.003,0.0016 0.003,0.0035 0,0.0019 -9.92e-4,0.0035 -0.0025,0.0035 -9.91e-4,0 -0.0015,-0.0012 -9.91e-4,-0.0026 9.91e-4,-0.0016 -7e-5,-0.0023 -0.0025,-0.0017 -0.0025,4.54e-4 -0.0045,0.0032 -0.0052,0.0067 -0.0015,0.01797 -0.0062,0.03743 -0.011,0.04966 -0.0025,0.0072 -0.008,0.02872 -0.009,0.03728 -1.53e-4,0.0016 -9.91e-4,0.003 -0.002,0.003 -9.92e-4,0 -9.92e-4,0.0026 -4.96e-4,0.0059 9.91e-4,0.0039 4.51e-4,0.0059 -9.91e-4,0.0059 -0.0015,0 -0.002,0.0015 -0.0015,0.0035 4.95e-4,0.0019 3.07e-4,0.0041 -9.92e-4,0.0049 -0.0035,0.0023 -0.0025,0.01532 9.92e-4,0.01532 0.002,0 0.003,0.0012 0.003,0.0026 0,0.0015 -0.0015,0.002 -0.003,0.0012 -0.0035,-0.0015 -0.01884,0.01298 -0.02151,0.02063 -0.002,0.0063 0.002,0.0097 0.0081,0.0065 0.003,-0.0017 0.0056,-0.0018 0.0063,-1.52e-4 4.96e-4,0.0014 1.44e-4,0.0024 -9.91e-4,0.0024 -0.002,0 -0.002,8.92e-4 1.48e-4,0.0035 0.002,0.0029 0.002,0.0035 -4.95e-4,0.0035 -0.002,0 -0.0035,-0.0014 -0.0052,-0.003 -0.0015,-0.0039 -0.0064,0.0087 -0.0064,0.01622 0,0.0032 -0.002,0.0098 -0.0045,0.01463 -0.0052,0.0097 -0.0052,0.0099 -0.0052,0.01807 0,0.0032 -0.002,0.0087 -0.0056,0.01242 -0.007,0.0086 -0.0068,0.01553 3.08e-4,0.01725 l 0.0056,0.0014 -0.0052,0.0046 c -0.003,0.003 -0.0035,0.0051 -0.002,0.0062 0.0015,10e-4 9.92e-4,0.0021 -9.91e-4,0.0031 -0.002,8.92e-4 -0.0035,1.48e-4 -0.0035,-0.0022 0,-0.002 -9.91e-4,-0.003 -0.002,-0.0022 -0.003,0.0022 -0.0025,0.0098 9.91e-4,0.0137 0.0025,0.003 0.0025,0.0041 1.39e-4,0.0081 -0.0015,0.0025 -0.0056,0.01016 -0.0079,0.01688 -0.0035,0.0099 -0.0035,0.01222 -9.91e-4,0.01222 0.0015,0 0.003,0.0012 0.003,0.0026 0,0.0015 -0.0015,0.0021 -0.003,0.0014 -0.0025,-10e-4 -0.003,0.0018 -0.0035,0.01254 -4.56e-4,0.0076 5e-6,0.01333 9.91e-4,0.01272 9.91e-4,-6.44e-4 0.0015,6.44e-4 0.0015,0.0028 0,0.0025 -9.91e-4,0.0034 -0.003,0.0026 -0.002,-7.93e-4 -0.003,-1.52e-4 -0.003,0.0014 0,0.0015 -0.0025,0.0061 -0.0059,0.01042 -0.0066,0.0087 -0.0077,0.01399 -0.002,0.01198 0.0015,-7.93e-4 0.0035,-3.03e-4 0.0052,8.92e-4 9.92e-4,0.0021 -0.002,0.0033 -0.0069,0.0024 -9.92e-4,-1.51e-4 -2.98e-4,0.0025 0.002,0.006 l 0.0045,0.0064 -0.0084,-0.0014 c -0.0056,-8.92e-4 -0.0093,-3.03e-4 -0.01076,0.0015 -0.0025,0.0037 -0.0015,0.01236 0.0015,0.01157 0.0015,-3.03e-4 0.0025,4.55e-4 0.0025,0.0018 0,0.0014 0.0015,0.0024 0.003,0.0024 0.0057,0 0.0035,0.0061 -0.002,0.009 -0.0076,0.0035 -0.01026,0.0134 -0.0052,0.01921 0.003,0.0036 0.003,0.0049 9.92e-4,0.0077 -0.01061,0.01144 -0.01234,0.01404 -0.0082,0.01248 0.002,-8.92e-4 0.0035,-4.54e-4 0.0035,10e-4 0,0.0015 -0.0015,0.0026 -0.0035,0.0026 -0.0025,0 -0.003,8.92e-4 -0.0015,0.003 0.003,0.0042 0.0025,0.0065 -0.0035,0.01666 -0.0035,0.0062 -0.0052,0.01126 -0.0045,0.01648 4.96e-4,0.0047 -1.58e-4,0.0088 -0.002,0.01089 -0.002,0.0021 -0.0025,0.0056 -0.0015,0.0093 9.91e-4,0.0047 4.95e-4,0.0056 -0.002,0.0045 -0.0025,-0.001 -0.0035,4.55e-4 -0.0035,0.008 0,0.0068 -9.91e-4,0.01018 -0.0052,0.01233 -0.0025,0.0016 -0.0052,0.0038 -0.0052,0.0049 0,0.001 9.91e-4,0.0012 0.002,4.54e-4 9.91e-4,-7.93e-4 0.002,-3.03e-4 0.002,10e-4 0,0.0014 -9.91e-4,0.0025 -0.002,0.0025 -0.0015,0 -0.0015,0.0031 -9.92e-4,0.0083 9.92e-4,0.0059 4.51e-4,0.01006 -0.002,0.01446 -0.002,0.0034 -0.003,0.0087 -0.0025,0.01187 4.96e-4,0.0032 1.54e-4,0.0063 -9.91e-4,0.007 -9.91e-4,7.94e-4 -0.002,0.0037 -0.002,0.0066 0,0.003 -9.91e-4,0.0063 -0.002,0.0076 -9.91e-4,0.0012 -0.0025,0.0064 -0.003,0.01144 -4.95e-4,0.005 -0.003,0.01278 -0.0052,0.01717 -0.002,0.0044 -0.0035,0.01357 -0.0035,0.0204 -9.4e-5,0.0094 -0.0015,0.01404 -0.0057,0.01911 -0.0064,0.0077 -0.007,0.01395 -0.0015,0.0182 0.003,0.0026 0.003,0.0034 -4.96e-4,0.0071 -0.002,0.0023 -0.0052,0.0037 -0.0058,0.0032 -9.91e-4,-4.54e-4 -0.003,8.92e-4 -0.0057,0.0033 -0.0035,0.0039 -0.0035,0.0042 -1.53e-4,0.0049 0.002,4.54e-4 0.0035,0.0019 0.0035,0.0032 0,0.0014 -0.0015,0.0018 -0.003,0.001 -0.002,-7.93e-4 -0.003,-3.04e-4 -0.003,8.92e-4 0,0.0012 0.002,0.0023 0.0052,0.0023 0.0063,0 0.006,0.0059 -4.96e-4,0.01079 -0.0056,0.0039 -0.0056,0.0039 0.002,0.0025 0.0045,-7.93e-4 0.0077,-4.55e-4 0.0077,6.44e-4 0,0.0024 -0.01388,0.0055 -0.01685,0.0037 -0.003,-0.0021 -0.0025,0.0023 9.92e-4,0.0074 0.0052,0.0067 0.0045,0.01183 -0.002,0.01621 -0.0052,0.0032 -0.0059,0.0058 -0.0059,0.0148 0,0.0077 9.92e-4,0.01183 0.0035,0.01395 0.0056,0.004 0.002,0.0069 -0.003,0.0032 -0.0052,-0.0031 -0.01239,-0.0016 -0.01239,0.0023 0,0.0012 0.0015,0.0039 0.003,0.0058 0.0045,0.0046 0.0045,0.0067 -4.96e-4,0.01243 -0.01021,0.01155 -0.01264,0.02072 -0.0062,0.02317 0.003,0.0012 0.0025,0.0025 -0.002,0.0094 -0.0052,0.0063 -0.0058,0.0097 -0.0052,0.01629 9.91e-4,0.0069 4.96e-4,0.0086 -0.003,0.0098 -0.0025,8.92e-4 -0.0056,0.0032 -0.0061,0.0051 -4.96e-4,0.0021 -3.08e-4,0.003 9.91e-4,0.0022 9.91e-4,-7.93e-4 0.002,-3.02e-4 0.002,0.001 0,0.0014 -9.92e-4,0.0025 -0.0015,0.0025 -0.0015,0 -0.003,0.0094 -0.0035,0.02544 -1.29e-4,0.003 -9.92e-4,0.0053 -0.0025,0.0053 -9.91e-4,0 -0.0025,0.0044 -0.003,0.0098 -3.02e-4,0.0054 -0.0015,0.0118 -0.0025,0.0142 -0.0015,0.003 -0.0015,0.0044 1.14e-4,0.0044 9.91e-4,0 0.002,10e-4 0.002,0.0024 0,0.0014 -0.0015,0.0024 -0.003,0.0024 -0.002,0 -0.003,0.0027 -0.0025,0.0089 1.49e-4,0.0049 -4.95e-4,0.0096 -0.002,0.01054 -9.92e-4,8.93e-4 -0.002,0.0035 -0.002,0.0057 -10e-6,0.0022 -9.92e-4,0.0045 -0.0025,0.005 -0.002,6.44e-4 -0.002,-4.54e-4 -0.0015,-0.0033 9.92e-4,-0.0039 9.92e-4,-0.004 -0.002,-7.93e-4 -0.002,0.0019 -0.0045,0.0064 -0.0056,0.0099 -9.91e-4,0.0055 -4.96e-4,0.0066 0.0045,0.0079 0.0073,0.0018 0.0058,0.0058 -0.002,0.0058 -0.003,0 -0.0057,0.001 -0.0057,0.0025 0,0.0014 9.91e-4,0.0018 0.002,10e-4 9.92e-4,-7.93e-4 0.002,-3.03e-4 0.002,10e-4 0,0.0014 -9.91e-4,0.0025 -0.002,0.0025 -9.91e-4,0 -0.002,0.0015 -0.002,0.0033 0,0.0057 -0.01031,0.0082 -0.01343,0.0032 z"
       id="path52152-9" />
    <path
       style="fill:none;stroke:#000000;stroke-width:0.3;stroke-linecap:butt;stroke-linejoin:miter;stroke-miterlimit:4;stroke-dasharray:none;stroke-opacity:1"
       d="m 34.357483,8.0433287 0.0116,1.9316336 v 0 l 0.880991,0.4404967 -1.738799,0.788257 1.704027,0.788256 -1.750393,0.857807 1.715616,0.799849 -1.680839,0.823032 1.657656,0.811441 -0.765076,0.405719"
       id="path1525-4"
       sodipodi:nodetypes="ccccccccccc" />
    <path
       style="fill:none;stroke:#000000;stroke-width:0.308148;stroke-linecap:butt;stroke-linejoin:miter;stroke-miterlimit:4;stroke-dasharray:none;stroke-opacity:1"
       d="m 34.392265,15.558207 -0.0025,2.522148"
       id="path1527-24" />
    <path
       style="fill:none;stroke:#000000;stroke-width:0.3;stroke-linecap:butt;stroke-linejoin:miter;stroke-opacity:1;stroke-miterlimit:4;stroke-dasharray:none"
       d="m 35.627513,18.080395 -2.311557,-7.9e-5"
       id="path1529-8" />
    <path
       style="fill:none;stroke:#000000;stroke-width:0.3;stroke-linecap:butt;stroke-linejoin:miter;stroke-opacity:1;stroke-miterlimit:4;stroke-dasharray:none"
       d="m 32.430732,19.067923 3.901676,2.84e-4"
       id="path1531-6" />
    <path
       style="fill:none;stroke:#000000;stroke-width:0.310485;stroke-linecap:butt;stroke-linejoin:miter;stroke-miterlimit:4;stroke-dasharray:none;stroke-opacity:1"
       d="m 34.403854,19.10946 -0.0116,2.247377"
       id="path1533-1"
       sodipodi:nodetypes="cc" />
    <path
       style="fill:#ffffff;fill-opacity:1;stroke:#646464;stroke-width:0.3;stroke-linecap:butt;stroke-linejoin:miter;stroke-opacity:1;stroke-miterlimit:4;stroke-dasharray:none"
       d="m 32.033187,15.740176 4.002081,-4.002082"
       id="path22088-41"
       sodipodi:nodetypes="cc" />
    <path
       style="fill:none;stroke:#646464;stroke-width:0.3;stroke-linecap:butt;stroke-linejoin:miter;stroke-opacity:1;stroke-miterlimit:4;stroke-dasharray:none"
       d="m 35.588066,11.305241 0.886925,0.886922 0.323777,-1.217568 z"
       id="path46493-4"
       sodipodi:nodetypes="cccc" />
    <path
       style="fill:#646464;fill-opacity:1;stroke:#646464;stroke-width:0.3;stroke-linecap:butt;stroke-linejoin:round;stroke-dasharray:none;stroke-opacity:1;stroke-miterlimit:4"
       d="m 36.459957,12.113263 c -9.92e-4,-0.0016 -0.002,-0.0044 -0.002,-0.0061 -4.96e-4,-0.0049 -0.0075,-0.01148 -0.01487,-0.01452 -0.0035,-0.0015 -0.0078,-0.0053 -0.0092,-0.0085 -0.0015,-0.0032 -0.0045,-0.0058 -0.0062,-0.0058 -0.002,0 -0.0035,-8.93e-4 -0.0035,-0.0019 0,-10e-4 -0.002,-0.0045 -0.0056,-0.0076 -0.0025,-0.0032 -0.0052,-0.006 -0.0052,-0.0064 0.0015,-0.0018 2.98e-4,-0.01011 -0.0015,-0.01011 -9.91e-4,0 -0.0015,0.0016 -9.91e-4,0.0035 4.96e-4,0.0019 1.54e-4,0.0035 -9.91e-4,0.0035 -0.0015,0 -0.0025,-0.001 -0.0025,-0.0024 0,-0.0014 -0.002,-0.0024 -0.0052,-0.0024 -0.0025,0 -0.0052,-0.0015 -0.0052,-0.0035 0,-0.0019 -9.91e-4,-0.0035 -0.0025,-0.0035 -9.92e-4,0 -0.002,-8.92e-4 -9.92e-4,-0.0021 0.0015,-0.0031 -0.0088,-0.01451 -0.01353,-0.01451 -0.002,0 -0.0035,-0.0014 -0.0035,-0.0032 0,-0.0046 -0.0096,-0.01283 -0.01715,-0.01469 -0.0052,-0.0014 -0.0065,-0.003 -0.0065,-0.0085 0,-0.0045 -9.91e-4,-0.0068 -0.003,-0.0068 -0.002,0 -0.003,-10e-4 -0.003,-0.0025 0,-0.0014 9.91e-4,-0.0018 0.0025,-8.93e-4 0.0015,0.001 0.002,3.04e-4 0.0015,-0.0016 -4.95e-4,-0.0018 -0.003,-0.0043 -0.0062,-0.0056 -0.0025,-0.0012 -0.0052,-0.0032 -0.0052,-0.0043 0,-10e-4 -9.91e-4,-0.0012 -0.002,-4.55e-4 -9.92e-4,7.93e-4 -0.002,4.55e-4 -0.002,-8.92e-4 0,-0.0012 9.91e-4,-0.0027 0.0025,-0.0034 0.0045,-0.0016 -2.5e-5,-0.0049 -0.0079,-0.0055 -0.01343,-8.92e-4 -0.0177,-0.003 -0.01814,-0.0085 -1.49e-4,-0.003 -0.0015,-0.0065 -0.0035,-0.0078 -0.0015,-0.0014 -0.0045,-0.0048 -0.0061,-0.0077 -0.0015,-0.0034 -0.0045,-0.0051 -0.008,-0.0047 -0.0045,4.54e-4 -0.0056,-8.92e-4 -0.0065,-0.0077 -4.96e-4,-0.005 -0.0025,-0.0084 -0.0052,-0.0086 -0.002,-1.51e-4 -0.0065,-4.54e-4 -0.01,-6.44e-4 -0.0052,-1.52e-4 -0.0061,-0.0012 -0.0052,-0.004 4.95e-4,-0.0021 1.24e-4,-0.0046 -0.0015,-0.0056 -0.002,-0.0014 -0.002,-0.0023 -2.98e-4,-0.0035 0.0015,-8.92e-4 0.003,3.5e-5 0.0035,0.0021 0.002,0.0056 0.006,0.0044 0.0052,-0.0016 -4.96e-4,-0.0043 -0.0025,-0.0055 -0.01,-0.0061 -0.0056,-4.54e-4 -0.01,4.54e-4 -0.01105,0.0022 -9.91e-4,0.0022 -0.0025,0.0021 -0.0056,-7.93e-4 -0.003,-0.0032 -0.003,-0.0039 -1.58e-4,-0.005 0.002,-7.93e-4 0.003,-0.0034 0.002,-0.0067 -4.95e-4,-0.003 -9.91e-4,-0.0062 -9.91e-4,-0.0072 -9.4e-5,-8.92e-4 -0.003,-0.0018 -0.0067,-0.0019 -0.0067,-1.52e-4 -0.01834,-0.0041 -0.01299,-0.0044 0.0015,-9.1e-5 0.0025,-0.0014 0.0025,-0.0026 0,-0.0014 -9.91e-4,-0.0018 -0.0025,-8.92e-4 -0.0015,10e-4 -0.002,3.7e-5 -9.92e-4,-0.0028 9.92e-4,-0.0034 -0.003,-0.0079 -0.01685,-0.01874 -0.01,-0.0079 -0.01968,-0.01769 -0.02171,-0.02184 -0.002,-0.0042 -0.0045,-0.0076 -0.0057,-0.0076 -0.0035,-9.9e-5 -0.01794,-0.01215 -0.01794,-0.0156 0,-0.0019 -0.0025,-0.0047 -0.0059,-0.0062 -0.003,-0.0015 -0.0059,-0.0035 -0.0059,-0.0046 0,-0.001 -0.002,-0.0025 -0.0045,-0.0033 -0.0025,-7.93e-4 -0.0056,-0.0035 -0.006,-0.006 -4.96e-4,-0.0025 -0.0061,-0.0075 -0.0119,-0.01112 -0.007,-0.0044 -0.01046,-0.0083 -0.01051,-0.01172 -5.4e-5,-0.0034 -0.003,-0.0073 -0.01056,-0.01173 -0.0057,-0.0037 -0.01006,-0.0073 -0.0096,-0.0081 0.0015,-0.0025 -0.0061,-0.01189 -0.0085,-0.01043 -9.92e-4,7.93e-4 -0.002,4.54e-4 -0.002,-7.93e-4 0,-0.0012 -0.0025,-0.0035 -0.0057,-0.0051 -0.0035,-0.0019 -0.0062,-0.006 -0.0072,-0.01113 -9.91e-4,-0.0067 -0.0025,-0.0083 -0.0091,-0.0097 -0.0045,-8.92e-4 -0.0082,-0.0014 -0.0091,-0.0012 -9.91e-4,3.03e-4 -0.0075,-0.0075 -0.01482,-0.01725 -0.0073,-0.0097 -0.01447,-0.01768 -0.01601,-0.01768 -0.0015,0 -0.002,-7.93e-4 -9.91e-4,-0.0015 0.0015,-0.0017 -0.0052,-0.01026 -0.0082,-0.01026 -9.91e-4,0 -0.0071,-0.0053 -0.01343,-0.01178 -0.0092,-0.0094 -0.01205,-0.01121 -0.01452,-0.0089 -0.002,0.0023 -0.0025,0.002 -0.0015,-0.0018 0.0015,-0.0057 -0.01537,-0.02402 -0.01973,-0.0213 -0.0015,8.93e-4 -0.002,3.03e-4 -0.002,-0.0015 3.07e-4,-0.0018 -0.007,-0.01074 -0.01631,-0.01995 -0.0094,-0.0092 -0.01809,-0.01969 -0.01948,-0.02328 -0.0015,-0.0039 -0.0056,-0.0076 -0.0096,-0.0092 -0.0035,-0.0015 -0.0084,-0.0056 -0.01001,-0.0093 -0.0015,-0.0036 -0.0052,-0.0066 -0.0071,-0.0066 -0.002,0 -0.0045,-0.0012 -0.0045,-0.0025 0,-0.0015 0.002,-0.0019 0.0052,-8.92e-4 0.003,10e-4 0.0045,7.93e-4 0.003,-10e-4 -0.002,-0.0034 -0.0091,-0.0034 -0.01254,2.5e-5 -0.002,0.0019 -0.003,0.0014 -0.0058,-0.0024 -0.0015,-0.0027 -0.0052,-0.005 -0.0073,-0.005 -0.002,0 -0.0045,-8.92e-4 -0.0045,-0.0021 0,-0.001 0.0025,-0.0015 0.0059,-8.92e-4 0.003,6.44e-4 0.0059,0.0021 0.0059,0.0032 0,0.0012 9.92e-4,0.0021 0.002,0.0021 9.91e-4,0 0.002,-0.0026 0.002,-0.0057 0,-0.0044 -0.0015,-0.0063 -0.0083,-0.0085 -0.0045,-0.0015 -0.0083,-0.0037 -0.0083,-0.0048 0,-10e-4 -0.002,-0.0027 -0.0056,-0.0037 -0.0025,-8.92e-4 -0.01031,-0.0066 -0.01631,-0.01259 -0.01874,-0.01866 -0.02781,-0.02632 -0.03395,-0.02865 -0.003,-0.0014 -0.0059,-0.0041 -0.0059,-0.0068 0,-0.0086 -0.0025,-0.0125 -0.0062,-0.0094 -0.0015,0.0015 -0.0035,0.002 -0.0052,10e-4 -9.91e-4,-8.92e-4 -8.4e-5,-0.0026 0.0015,-0.0039 0.0025,-0.0016 9.92e-4,-0.0022 -0.0045,-0.0023 -0.0045,-1.9e-5 -0.0072,-10e-4 -0.0065,-0.0023 4.96e-4,-0.0012 1.49e-4,-0.003 -9.91e-4,-0.0039 -0.0015,-8.92e-4 -0.0035,-1.51e-4 -0.0052,0.0016 -0.0015,0.0026 -0.002,0.0024 -0.002,-8.93e-4 -1.5e-5,-0.0023 0.0015,-0.0042 0.003,-0.0042 0.002,0 0.003,-10e-4 0.003,-0.0024 0,-0.0014 -0.0015,-0.0024 -0.0035,-0.0024 -0.002,0 -0.003,-0.0014 -0.0025,-0.0032 4.96e-4,-0.0018 -0.0015,-0.0049 -0.0056,-0.0072 -0.0035,-0.0022 -0.0074,-0.0062 -0.0083,-0.0089 -9.91e-4,-0.0034 -0.0025,-0.0046 -0.006,-0.0037 -0.0057,0.0015 -0.0059,-0.0023 -3.07e-4,-0.004 0.002,-7.93e-4 7.9e-5,-8.92e-4 -0.0052,-6.44e-4 -0.0082,6.44e-4 -0.0091,4e-6 -0.01036,-0.006 -0.0015,-0.0078 -0.0025,-0.0081 -0.0071,-0.0025 -0.003,0.0038 -0.003,0.0037 -0.0015,-0.0015 9.92e-4,-0.0038 4.96e-4,-0.0051 -9.91e-4,-0.004 -0.0015,8.92e-4 -0.0025,6.45e-4 -0.0025,-6.44e-4 0,-0.0031 0.009,-0.0052 0.01036,-0.0025 4.96e-4,0.0012 9.91e-4,7.93e-4 4.56e-4,-8.92e-4 -3.02e-4,-0.0016 -0.0035,-0.0033 -0.0075,-0.0037 -0.01155,-0.0012 -0.01378,-0.0024 -0.01061,-0.0062 0.002,-0.0026 9.91e-4,-0.0053 -0.0061,-0.01299 -0.0052,-0.0053 -0.01031,-0.0097 -0.01195,-0.0097 -0.0015,0 -0.003,-10e-4 -0.003,-0.0025 0,-0.0014 -0.008,-0.01042 -0.01779,-0.02015 -0.01903,-0.01893 -0.01948,-0.02045 -0.0083,-0.03055 0.003,-0.0029 0.0079,-0.0044 0.01244,-0.004 0.0035,3.02e-4 0.0082,-7.93e-4 0.0094,-0.0025 0.0015,-0.0024 0.002,-0.0024 0.0035,1.31e-4 0.0015,0.0025 0.0025,0.0019 0.0065,-0.0024 0.0045,-0.0054 0.01289,-0.0073 0.01646,-0.0038 0.003,0.0034 0.0082,0.0017 0.01021,-0.0035 0.0015,-0.0044 0.003,-0.0051 0.0117,-0.0046 0.0058,4.54e-4 0.0098,-3.04e-4 0.0098,-0.0018 0,-0.0014 -9.91e-4,-0.0025 -0.002,-0.0025 -9.92e-4,0 -0.0015,-0.0015 -9.92e-4,-0.0034 9.92e-4,-0.0027 0.002,-0.0028 0.0045,-6.44e-4 0.0015,0.0015 0.0025,0.0037 0.002,0.0047 -0.0025,0.0044 0.0035,0.0012 0.0081,-0.0039 0.003,-0.004 0.0056,-0.0051 0.0079,-0.0036 0.0052,0.0033 0.0093,0.0026 0.0078,-0.0014 -4.95e-4,-0.0019 -1.49e-4,-0.0035 9.92e-4,-0.0035 0.0035,0 0.003,0.0088 -3.03e-4,0.01027 -0.002,7.93e-4 -0.0015,0.0012 4.96e-4,0.0014 0.002,9.9e-5 0.0057,-0.003 0.0083,-0.0069 0.0052,-0.0073 0.01061,-0.0111 0.01061,-0.007 0,0.0031 0.0081,0.0029 0.01928,-4.54e-4 0.0056,-0.0016 0.0092,-0.0042 0.0092,-0.0065 3e-5,-0.0025 4.96e-4,-0.0028 0.0015,-10e-4 0.0025,0.0046 0.02156,0.0036 0.02414,-0.0014 9.91e-4,-0.0023 0.0015,-0.0049 4.96e-4,-0.0058 -0.0025,-0.0026 0.0056,-0.0016 0.01591,0.0021 0.01239,0.0044 0.0116,0.0045 0.01016,-0.0012 -9.91e-4,-0.0044 0.0025,-0.0068 0.0045,-0.003 9.92e-4,0.0021 -4.56e-4,-0.0039 -0.002,-0.0085 -9.92e-4,-0.0025 1.53e-4,-0.0024 0.0058,4.54e-4 0.0068,0.0035 0.007,0.0034 0.0066,-0.0015 -4.96e-4,-0.0068 4.96e-4,-0.0088 0.0052,-0.0072 0.0025,0.001 0.0025,0.0022 4.96e-4,0.0057 -0.0045,0.0074 4.96e-4,0.0086 0.0067,0.0015 0.003,-0.0038 0.0069,-0.0059 0.0084,-0.005 0.0015,8.93e-4 0.0067,0.0022 0.0116,0.0027 0.0078,8.92e-4 0.0096,1.06e-4 0.01432,-0.0063 0.0025,-0.004 0.0059,-0.0064 0.0067,-0.0053 0.002,0.0033 0.012,0.0057 0.012,0.0028 0,-0.0014 9.92e-4,-0.0025 0.0025,-0.0025 9.91e-4,0 0.0015,10e-4 9.91e-4,0.0024 -4.96e-4,0.0014 -3.07e-4,0.0024 9.91e-4,0.0024 9.92e-4,0 0.0025,-0.0014 0.0025,-0.0032 0,-0.0018 0.002,-0.005 0.0045,-0.0072 0.0045,-0.0038 0.0045,-0.0038 0.0061,1.52e-4 0.0015,0.004 0.0015,0.004 0.0035,1.01e-4 9.92e-4,-0.0023 0.003,-0.0042 0.0052,-0.0042 0.0015,0 0.0015,0.0012 -4.56e-4,0.0035 -0.0052,0.006 0.0015,0.0041 0.0086,-0.0024 0.0035,-0.0037 0.0079,-0.0054 0.01021,-0.0044 0.0079,0.0033 0.01418,0.0029 0.01547,-10e-4 0.0015,-0.005 0.01611,-0.0122 0.02454,-0.0122 0.0035,0 0.0086,-0.0015 0.0111,-0.0033 0.003,-0.0023 0.0062,-0.0026 0.0098,-0.0012 0.003,0.0014 0.0081,8.92e-4 0.01309,-10e-4 0.0045,-0.0017 0.0099,-0.0039 0.01254,-0.005 0.0025,-10e-4 0.0074,-0.002 0.01061,-0.0021 0.0052,-1.52e-4 0.0059,-0.0015 0.0059,-0.0066 0,-0.0035 4.95e-4,-0.0071 0.0015,-0.0081 0.0015,-0.0019 0.0025,0.0016 0.002,0.0096 -3.07e-4,0.0047 -3.07e-4,0.0047 0.003,1.39e-4 0.002,-0.0025 0.0035,-0.0036 0.0035,-0.0024 2e-5,0.0012 9.91e-4,7.93e-4 0.002,-10e-4 9.91e-4,-0.0018 0.0056,-0.0034 0.0092,-0.0035 0.0035,-1.46e-4 0.0067,-8.93e-4 0.0063,-0.0015 -0.0015,-0.003 0.0025,-0.0066 0.0059,-0.0047 0.0025,0.0017 0.0025,0.0027 3.02e-4,0.0058 -0.0025,0.0033 -0.002,0.0037 0.0035,0.0037 0.0056,-2.8e-5 0.006,-6.44e-4 0.003,-0.0025 -0.0025,-0.002 -0.0025,-0.0023 9.91e-4,-0.0018 0.0025,4.55e-4 0.0078,-0.0023 0.01239,-0.0071 0.0052,-0.0049 0.0075,-0.0065 0.0075,-0.0043 0,0.0019 -0.0015,0.0047 -0.0035,0.006 -0.0035,0.0023 -0.0035,0.0028 0.0015,0.0073 0.007,0.006 0.01209,0.0027 0.01209,-0.0077 0,-0.0059 4.96e-4,-0.0066 0.003,-0.0043 0.0025,0.0022 0.0073,0.0015 0.02151,-0.0033 0.0099,-0.0033 0.02191,-0.0067 0.02657,-0.0074 0.0045,-7.93e-4 0.01061,-0.0034 0.01323,-0.0059 0.0045,-0.0041 0.0089,-0.0056 0.01403,-0.0048 9.91e-4,1.51e-4 0.0015,-0.0014 0.0015,-0.0033 0,-0.0019 9.91e-4,-0.0035 0.002,-0.0035 9.92e-4,0 0.002,0.0016 0.002,0.0035 0,0.0019 0.0015,0.0035 0.003,0.0035 0.002,0 0.003,-0.0016 0.003,-0.0035 0,-0.0019 9.92e-4,-0.0035 0.002,-0.0035 9.91e-4,0 0.002,0.0012 0.002,0.0026 0,0.0018 9.91e-4,0.0016 0.0035,-4.54e-4 0.002,-0.0017 0.0079,-0.0029 0.01284,-0.0026 0.0078,4.54e-4 0.0092,-3.04e-4 0.01011,-0.0049 9.92e-4,-0.0053 9.92e-4,-0.0053 9.92e-4,3.03e-4 3.02e-4,0.0054 4.46e-4,0.0055 0.003,0.0014 0.0015,-0.0024 0.0057,-0.0047 0.0089,-0.005 0.003,-3.03e-4 0.0064,-7.93e-4 0.0073,-7.93e-4 9.91e-4,-1.09e-4 9.91e-4,-0.0021 4.51e-4,-0.0043 -9.92e-4,-0.0038 -9.92e-4,-0.0038 0.002,1.42e-4 0.002,0.0027 0.0035,0.0034 0.0052,0.0018 0.002,-0.0035 0.0066,-0.0032 0.0045,4.54e-4 -9.92e-4,0.0016 9.91e-4,4.54e-4 0.0045,-0.0025 0.0045,-0.0043 0.0082,-0.0053 0.01636,-0.0047 0.0094,6.45e-4 0.01046,1.37e-4 0.0112,-0.0049 4.96e-4,-0.0049 0.0015,-0.0054 0.0083,-0.0041 0.0035,7.94e-4 0.0079,0.0025 0.0083,0.0038 4.56e-4,0.0012 0.0025,0.0023 0.0052,0.0023 0.0052,0 0.01279,-0.0079 0.01046,-0.01026 -9.92e-4,-8.92e-4 -2.98e-4,-0.0016 9.91e-4,-0.0016 0.0015,0 0.0025,-0.0016 0.0025,-0.0036 0,-0.0032 4.96e-4,-0.0032 0.0056,2.4e-5 0.0052,0.0033 0.007,0.0032 0.02369,-0.0023 0.01001,-0.0033 0.01978,-0.0059 0.02171,-0.0059 0.0015,0 0.003,-10e-4 0.003,-0.0025 0,-0.0014 9.92e-4,-0.0018 0.002,-10e-4 9.91e-4,7.93e-4 0.002,4.54e-4 0.002,-7.93e-4 0,-0.0012 0.0015,-0.0021 0.0035,-0.0019 0.002,1.51e-4 0.0035,-8.93e-4 0.0035,-0.0024 9e-5,-0.0044 0.0035,-0.0067 0.0035,-0.0024 0,0.0022 4.51e-4,0.0039 9.91e-4,0.0039 0.003,0 0.01779,-0.0083 0.01779,-0.01019 0,-0.0012 0.0015,-7.93e-4 0.0035,10e-4 0.002,0.0018 0.003,0.0021 0.002,6.44e-4 -9.92e-4,-0.0015 1.19e-4,-0.0034 0.002,-0.0042 0.0052,-0.002 0.0074,6.45e-4 0.003,0.0037 -0.007,0.0049 0.01824,-0.0012 0.03113,-0.0075 0.002,-10e-4 0.009,-0.0026 0.01537,-0.0035 0.0064,-8.92e-4 0.01324,-0.0032 0.01537,-0.005 0.002,-0.0018 0.0094,-0.0034 0.01626,-0.0036 0.01006,-1.51e-4 0.01274,-0.0012 0.01368,-0.0047 9.92e-4,-0.0044 0.0067,-0.0055 0.02231,-0.0046 0.0035,3.04e-4 0.0072,-0.0012 0.0088,-0.0042 0.002,-0.0038 0.0045,-0.0044 0.01289,-0.0034 0.007,7.93e-4 0.01105,1.51e-4 0.01229,-0.0018 9.91e-4,-0.0019 9.91e-4,-0.0024 -4.96e-4,-0.0014 -9.91e-4,8.92e-4 -0.003,4.54e-4 -0.0035,-7.93e-4 -4.96e-4,-0.0014 4.51e-4,-0.0024 0.0025,-0.0024 0.002,0 0.0057,-0.0012 0.0072,-0.0028 0.0015,-0.0015 0.0025,-0.0021 0.003,-0.0012 1.48e-4,8.93e-4 4.95e-4,0.0027 9.91e-4,0.004 3.07e-4,0.0014 4.96e-4,0.0034 9.91e-4,0.0047 4.96e-4,0.0047 0.0097,0.0023 0.01358,-0.0035 0.0025,-0.0045 0.0059,-0.0059 0.01244,-0.006 0.0052,-1.9e-5 0.0074,-7.93e-4 0.0059,-0.0018 -0.0035,-0.0025 -0.0065,-0.01239 -0.003,-0.01239 9.91e-4,0 0.0025,0.0014 0.0025,0.003 4e-5,0.0016 0.0015,0.0048 0.003,0.0071 0.0025,0.0039 0.003,0.0038 0.0092,-0.0015 0.0045,-0.0043 0.0081,-0.0054 0.01482,-0.0048 0.006,6.44e-4 0.01061,-6.45e-4 0.01472,-0.0039 0.0061,-0.0048 0.01358,-0.0061 0.01561,-0.0027 4.96e-4,10e-4 -1.53e-4,0.0046 -0.0015,0.0078 -0.002,0.0048 -0.002,0.0064 1.19e-4,0.0088 0.002,0.0019 0.003,0.0021 0.003,3.02e-4 0,-0.0014 9.92e-4,-0.0019 0.002,-0.0012 0.0035,0.0023 0.0025,0.0055 -0.0015,0.0064 -0.002,4.54e-4 -0.0056,-7.93e-4 -0.0072,-0.0027 -0.0025,-0.0031 -0.0025,-0.0016 -0.002,0.0087 4.96e-4,0.01021 3.08e-4,0.0126 -0.003,0.01369 -0.002,7.93e-4 -0.0052,0.0055 -0.0067,0.01175 -0.003,0.0126 -0.003,0.01372 -4.51e-4,0.01206 0.0025,-0.0017 0.0086,0.0054 0.0062,0.0076 -9.91e-4,8.92e-4 -0.002,4.54e-4 -0.0025,-0.0012 -4.96e-4,-0.0016 -0.0025,-0.003 -0.0045,-0.003 -0.0015,0 -0.003,-0.0012 -0.003,-0.0026 0,-0.0018 -9.92e-4,-0.0017 -0.003,3.04e-4 -0.0045,0.0038 -0.0045,0.0069 4.56e-4,0.01237 0.003,0.0037 0.003,0.0053 9.92e-4,0.0091 -0.002,0.0038 -0.002,0.0046 4.95e-4,0.0046 0.002,0 0.003,0.0016 0.003,0.0035 0,0.0019 -9.92e-4,0.0035 -0.0025,0.0035 -9.91e-4,0 -0.0015,-0.0012 -9.91e-4,-0.0026 9.91e-4,-0.0016 -7e-5,-0.0023 -0.0025,-0.0017 -0.0025,4.54e-4 -0.0045,0.0032 -0.0052,0.0067 -0.0015,0.01797 -0.0062,0.03743 -0.011,0.04966 -0.0025,0.0072 -0.008,0.02872 -0.009,0.03728 -1.53e-4,0.0016 -9.91e-4,0.003 -0.002,0.003 -9.92e-4,0 -9.92e-4,0.0026 -4.96e-4,0.0059 9.91e-4,0.0039 4.51e-4,0.0059 -9.91e-4,0.0059 -0.0015,0 -0.002,0.0015 -0.0015,0.0035 4.95e-4,0.0019 3.07e-4,0.0041 -9.92e-4,0.0049 -0.0035,0.0023 -0.0025,0.01532 9.92e-4,0.01532 0.002,0 0.003,0.0012 0.003,0.0026 0,0.0015 -0.0015,0.002 -0.003,0.0012 -0.0035,-0.0015 -0.01884,0.01298 -0.02151,0.02063 -0.002,0.0063 0.002,0.0097 0.0081,0.0065 0.003,-0.0017 0.0056,-0.0018 0.0063,-1.52e-4 4.96e-4,0.0014 1.44e-4,0.0024 -9.91e-4,0.0024 -0.002,0 -0.002,8.92e-4 1.48e-4,0.0035 0.002,0.0029 0.002,0.0035 -4.95e-4,0.0035 -0.002,0 -0.0035,-0.0014 -0.0052,-0.003 -0.0015,-0.0039 -0.0064,0.0087 -0.0064,0.01622 0,0.0032 -0.002,0.0098 -0.0045,0.01463 -0.0052,0.0097 -0.0052,0.0099 -0.0052,0.01807 0,0.0032 -0.002,0.0087 -0.0056,0.01242 -0.007,0.0086 -0.0068,0.01553 3.08e-4,0.01725 l 0.0056,0.0014 -0.0052,0.0046 c -0.003,0.003 -0.0035,0.0051 -0.002,0.0062 0.0015,0.001 9.92e-4,0.0021 -9.91e-4,0.0031 -0.002,8.92e-4 -0.0035,1.48e-4 -0.0035,-0.0022 0,-0.002 -9.91e-4,-0.003 -0.002,-0.0022 -0.003,0.0022 -0.0025,0.0098 9.91e-4,0.0137 0.0025,0.003 0.0025,0.0041 1.39e-4,0.0081 -0.0015,0.0025 -0.0056,0.01016 -0.0079,0.01688 -0.0035,0.0099 -0.0035,0.01222 -9.91e-4,0.01222 0.0015,0 0.003,0.0012 0.003,0.0026 0,0.0015 -0.0015,0.0021 -0.003,0.0014 -0.0025,-0.001 -0.003,0.0018 -0.0035,0.01254 -4.56e-4,0.0076 5e-6,0.01333 9.91e-4,0.01272 9.91e-4,-6.44e-4 0.0015,6.44e-4 0.0015,0.0028 0,0.0025 -9.91e-4,0.0034 -0.003,0.0026 -0.002,-7.93e-4 -0.003,-1.52e-4 -0.003,0.0014 0,0.0015 -0.0025,0.0061 -0.0059,0.01042 -0.0066,0.0087 -0.0077,0.01399 -0.002,0.01198 0.0015,-7.93e-4 0.0035,-3.03e-4 0.0052,8.92e-4 9.92e-4,0.0021 -0.002,0.0033 -0.0069,0.0024 -9.92e-4,-1.51e-4 -2.98e-4,0.0025 0.002,0.006 l 0.0045,0.0064 -0.0084,-0.0014 c -0.0056,-8.92e-4 -0.0093,-3.03e-4 -0.01076,0.0015 -0.0025,0.0037 -0.0015,0.01236 0.0015,0.01157 0.0015,-3.03e-4 0.0025,4.55e-4 0.0025,0.0018 0,0.0014 0.0015,0.0024 0.003,0.0024 0.0057,0 0.0035,0.0061 -0.002,0.009 -0.0076,0.0035 -0.01026,0.0134 -0.0052,0.01921 0.003,0.0036 0.003,0.0049 9.92e-4,0.0077 -0.01061,0.01144 -0.01234,0.01404 -0.0082,0.01248 0.002,-8.92e-4 0.0035,-4.54e-4 0.0035,10e-4 0,0.0015 -0.0015,0.0026 -0.0035,0.0026 -0.0025,0 -0.003,8.92e-4 -0.0015,0.003 0.003,0.0042 0.0025,0.0065 -0.0035,0.01666 -0.0035,0.0062 -0.0052,0.01126 -0.0045,0.01648 4.96e-4,0.0047 -1.58e-4,0.0088 -0.002,0.01089 -0.002,0.0021 -0.0025,0.0056 -0.0015,0.0093 9.91e-4,0.0047 4.95e-4,0.0056 -0.002,0.0045 -0.0025,-10e-4 -0.0035,4.55e-4 -0.0035,0.008 0,0.0068 -9.91e-4,0.01018 -0.0052,0.01233 -0.0025,0.0016 -0.0052,0.0038 -0.0052,0.0049 0,10e-4 9.91e-4,0.0012 0.002,4.54e-4 9.91e-4,-7.93e-4 0.002,-3.03e-4 0.002,10e-4 0,0.0014 -9.91e-4,0.0025 -0.002,0.0025 -0.0015,0 -0.0015,0.0031 -9.92e-4,0.0083 9.92e-4,0.0059 4.51e-4,0.01006 -0.002,0.01446 -0.002,0.0034 -0.003,0.0087 -0.0025,0.01187 4.96e-4,0.0032 1.54e-4,0.0063 -9.91e-4,0.007 -9.91e-4,7.94e-4 -0.002,0.0037 -0.002,0.0066 0,0.003 -9.91e-4,0.0063 -0.002,0.0076 -9.91e-4,0.0012 -0.0025,0.0064 -0.003,0.01144 -4.95e-4,0.005 -0.003,0.01278 -0.0052,0.01717 -0.002,0.0044 -0.0035,0.01357 -0.0035,0.0204 -9.4e-5,0.0094 -0.0015,0.01404 -0.0057,0.01911 -0.0064,0.0077 -0.007,0.01395 -0.0015,0.0182 0.003,0.0026 0.003,0.0034 -4.96e-4,0.0071 -0.002,0.0023 -0.0052,0.0037 -0.0058,0.0032 -9.91e-4,-4.54e-4 -0.003,8.92e-4 -0.0057,0.0033 -0.0035,0.0039 -0.0035,0.0042 -1.53e-4,0.0049 0.002,4.54e-4 0.0035,0.0019 0.0035,0.0032 0,0.0014 -0.0015,0.0018 -0.003,10e-4 -0.002,-7.93e-4 -0.003,-3.04e-4 -0.003,8.92e-4 0,0.0012 0.002,0.0023 0.0052,0.0023 0.0063,0 0.006,0.0059 -4.96e-4,0.01079 -0.0056,0.0039 -0.0056,0.0039 0.002,0.0025 0.0045,-7.93e-4 0.0077,-4.55e-4 0.0077,6.44e-4 0,0.0024 -0.01388,0.0055 -0.01685,0.0037 -0.003,-0.0021 -0.0025,0.0023 9.92e-4,0.0074 0.0052,0.0067 0.0045,0.01183 -0.002,0.01621 -0.0052,0.0032 -0.0059,0.0058 -0.0059,0.0148 0,0.0077 9.92e-4,0.01183 0.0035,0.01395 0.0056,0.004 0.002,0.0069 -0.003,0.0032 -0.0052,-0.0031 -0.01239,-0.0016 -0.01239,0.0023 0,0.0012 0.0015,0.0039 0.003,0.0058 0.0045,0.0046 0.0045,0.0067 -4.96e-4,0.01243 -0.01021,0.01155 -0.01264,0.02072 -0.0062,0.02317 0.003,0.0012 0.0025,0.0025 -0.002,0.0094 -0.0052,0.0063 -0.0058,0.0097 -0.0052,0.01629 9.91e-4,0.0069 4.96e-4,0.0086 -0.003,0.0098 -0.0025,8.92e-4 -0.0056,0.0032 -0.0061,0.0051 -4.96e-4,0.0021 -3.08e-4,0.003 9.91e-4,0.0022 9.91e-4,-7.93e-4 0.002,-3.02e-4 0.002,10e-4 0,0.0014 -9.92e-4,0.0025 -0.0015,0.0025 -0.0015,0 -0.003,0.0094 -0.0035,0.02544 -1.29e-4,0.003 -9.92e-4,0.0053 -0.0025,0.0053 -9.91e-4,0 -0.0025,0.0044 -0.003,0.0098 -3.02e-4,0.0054 -0.0015,0.0118 -0.0025,0.0142 -0.0015,0.003 -0.0015,0.0044 1.14e-4,0.0044 9.91e-4,0 0.002,10e-4 0.002,0.0024 0,0.0014 -0.0015,0.0024 -0.003,0.0024 -0.002,0 -0.003,0.0027 -0.0025,0.0089 1.49e-4,0.0049 -4.95e-4,0.0096 -0.002,0.01054 -9.92e-4,8.93e-4 -0.002,0.0035 -0.002,0.0057 -10e-6,0.0022 -9.92e-4,0.0045 -0.0025,0.005 -0.002,6.44e-4 -0.002,-4.54e-4 -0.0015,-0.0033 9.92e-4,-0.0039 9.92e-4,-0.004 -0.002,-7.93e-4 -0.002,0.0019 -0.0045,0.0064 -0.0056,0.0099 -9.91e-4,0.0055 -4.96e-4,0.0066 0.0045,0.0079 0.0073,0.0018 0.0058,0.0058 -0.002,0.0058 -0.003,0 -0.0057,10e-4 -0.0057,0.0025 0,0.0014 9.91e-4,0.0018 0.002,10e-4 9.92e-4,-7.93e-4 0.002,-3.03e-4 0.002,0.001 0,0.0014 -9.91e-4,0.0025 -0.002,0.0025 -9.91e-4,0 -0.002,0.0015 -0.002,0.0033 0,0.0057 -0.01031,0.0082 -0.01343,0.0032 z"
       id="path52152-4" />
    <g
       id="figure_1-7"
       transform="matrix(0.21588946,0,0,0.1418475,6.8436039,59.339458)">
      <g
         id="patch_1-7">
        <path
           d="M 0,66.96 H 138.96 V 0 H 0 Z"
           style="fill:#ffffff"
           id="path64491" />
      </g>
      <g
         id="axes_1-2">
        <g
           id="line2d_1-2">
          <path
             d="m 12.861818,59.742847 0.67969,0.01228 28.433701,-0.0026 1.6086,-0.140904 0.407814,-0.23262 0.181251,-0.389421 0.113281,-0.755539 0.09063,-2.228048 0.06797,-6.743643 0.09063,-20.773308 0.04531,9.218406 0.06797,17.916586 0.06797,-3.435959 0.158594,-5.60872 0.04531,0.379169 0.18125,6.400824 0.24922,6.193365 0.158594,0.200707 1.17813,-0.0012 1.6086,-0.13706 0.407814,-0.214224 0.18125,-0.319724 0.135938,-0.802137 0.09063,-2.01995 0.09062,-9.931446 0.06797,-17.39561 0.04531,6.645663 0.06797,19.348158 0.09063,-3.330584 0.135938,-4.133674 0.04531,0.358684 0.18125,5.927548 0.24922,5.813719 0.158594,0.191654 1.155473,-10e-4 1.6086,-0.139428 0.407814,-0.231347 0.181251,-0.366877 0.113282,-0.716779 0.09063,-1.957676 0.09062,-9.544584 0.06797,-17.763653 0.04531,6.06848 0.09062,19.777196 0.06797,-3.194675 0.135938,-4.19488 0.04531,0.327352 0.181251,5.876087 0.249219,5.862487 0.158595,0.199114 1.132817,-3.35e-4 1.631256,-0.138695 0.407814,-0.228392 0.18125,-0.365431 0.113282,-0.691085 0.09063,-1.87349 0.09063,-9.016485 0.06797,-18.215821 0.06797,11.389996 0.06797,14.39754 0.06797,-3.164833 0.135938,-4.338959 0.04531,0.262636 0.158595,4.943931 0.271876,6.826707 0.158594,0.212381 1.064848,0.0013 1.699225,-0.133539 0.407814,-0.212632 0.203907,-0.388337 0.113282,-0.692007 0.09062,-1.885101 0.09063,-9.050288 0.06797,-18.196648 0.06797,11.473783 0.06797,14.343661 0.06797,-3.186586 0.135939,-4.334076 0.04531,0.269677 0.158595,4.949507 0.271876,6.828613 0.158594,0.212632 1.064848,0.001 1.653912,-0.135509 0.407814,-0.223823 0.181251,-0.336783 0.135938,-0.848599 0.09062,-2.201011 0.09063,-11.077352 0.06797,-15.886406 0.04531,7.960347 0.06797,18.183775 0.06797,-2.758094 0.158595,-4.936847 0.02266,0.132488 0.113282,2.99156 0.339845,8.967507 0.158594,0.16904 1.268755,-0.0038 1.540631,-0.145024 0.385157,-0.217033 0.181251,-0.356859 0.135938,-0.943787 0.09062,-2.583983 0.09063,-13.462413 0.04531,-12.669007 0.06797,10.628827 0.06797,15.084119 0.06797,-3.158712 0.135938,-4.433078 0.04531,0.228265 0.158594,4.907634 0.271876,6.900875 0.158595,0.222356 1.019535,0.0021 1.699225,-0.133497 0.43047,-0.22311 0.181251,-0.322951 0.135938,-0.812008 0.09063,-2.051083 0.09063,-10.128619 0.06797,-17.128705 0.04531,6.856232 0.06797,19.145714 0.09063,-3.405547 0.135938,-4.065072 0.04531,0.38448 0.181251,5.942713 0.24922,5.753928 0.158594,0.186561 1.17813,-0.0012 1.563287,-0.137102 0.407814,-0.218332 0.18125,-0.339591 0.135938,-0.851953 0.09063,-2.247451 0.09063,-11.273639 0.06797,-15.614714 0.04531,8.181945 0.06797,17.96687 0.06797,-2.832327 0.158594,-4.90323 0.02266,0.139156 0.113282,3.008113 0.339845,8.959543 0.158594,0.164472 1.291412,-0.0047 1.472661,-0.143599 0.385158,-0.228685 0.181251,-0.374631 0.113281,-0.721347 0.09063,-2.001247 0.09062,-9.837901 0.06797,-17.46432 0.04531,6.467313 0.06797,19.395986 0.09063,-3.220034 0.135938,-4.12354 0.04531,0.356523 0.181251,5.903228 0.249219,5.804058 0.158595,0.19222 1.132816,-5.03e-4 1.6086,-0.131444 0.43047,-0.218039 0.181251,-0.319304 0.135938,-0.796122 0.09063,-1.975847 0.09063,-9.652054 0.06797,-17.692666 0.04531,6.219435 0.09063,19.668089 0.06797,-3.183148 0.135938,-4.190103 0.04531,0.333389 0.18125,5.888053 0.24922,5.85226 0.158594,0.197668 1.132817,-1.67e-4 1.631256,-0.134881 0.407814,-0.202027 0.203907,-0.362309 0.135938,-0.851282 0.09063,-2.241248 0.09063,-11.347742 0.06797,-15.540444 0.04531,8.242221 0.06797,17.908523 0.06797,-2.864852 0.158594,-4.894681 0.02266,0.139071 0.113282,3.01742 0.339845,8.968094 0.158594,0.16531 1.404693,0.0044 27.482135,0.0012 v 0"
             clip-path="url(#peb60e1c170)"
             style="fill:none;stroke:#000000;stroke-width:1.5;stroke-linecap:square"
             id="path64494" />
        </g>
      </g>
    </g>
    <rect
       style="fill:#042433;stroke:#000000;stroke-width:0.362853"
       id="rect1312"
       width="0.068147011"
       height="7.7833915"
       x="6.8574266"
       y="62.591988" />
    <circle
       style="fill:#ffffff;fill-opacity:1;stroke:#000000;stroke-width:0.258;stroke-miterlimit:4;stroke-dasharray:none;stroke-opacity:1"
       id="path99114"
       cx="20.205996"
       cy="5.9825115"
       r="0.66088766" />
    <path
       style="fill:none;stroke:#000000;stroke-width:0.264583px;stroke-linecap:butt;stroke-linejoin:miter;stroke-opacity:1"
       d="m 20.222774,6.6887437 0.0017,1.6205933 v 0"
       id="path99820" />
    <circle
       style="fill:#ffffff;fill-opacity:1;stroke:#000000;stroke-width:0.258;stroke-linecap:butt;stroke-linejoin:round;stroke-miterlimit:4;stroke-dasharray:none;stroke-opacity:1"
       id="path99114-1"
       cx="-20.262278"
       cy="-23.399319"
       r="0.66088766"
       transform="rotate(-179.94749)" />
    <path
       style="fill:none;stroke:#000000;stroke-width:0.264583px;stroke-linecap:butt;stroke-linejoin:miter;stroke-opacity:1"
       d="m 20.224689,22.711633 -2.15e-4,-1.620594 v 0"
       id="path99820-7" />
    <g
       transform="matrix(0.125,0,0,0.125,-32.625838,-20.282687)"
       id="g100017">
      <path
         d="m 282,267.193 c 0,-0.077 -0.042,-0.193 -0.212,-0.193 -0.085,0 -0.085,0 -0.339,0.232 l -1.483,1.47 c -0.169,-0.271 -1.144,-1.702 -3.517,-1.702 -4.703,0 -9.449,4.254 -9.449,8.74 0,3.172 2.5,5.26 5.72,5.26 1.822,0 3.433,-0.773 4.577,-1.624 1.949,-1.586 2.33,-3.365 2.33,-3.404 0,-0.193 -0.212,-0.193 -0.254,-0.193 -0.127,0 -0.254,0.039 -0.297,0.193 -0.169,0.542 -0.678,1.934 -2.118,3.056 -1.483,1.083 -2.797,1.392 -3.899,1.392 -1.906,0 -4.152,-1.006 -4.152,-4.022 0,-1.083 0.466,-4.216 2.585,-6.497 1.271,-1.354 3.262,-2.321 5.127,-2.321 2.161,0 3.432,1.47 3.432,3.713 0,0.773 -0.085,0.812 -0.085,1.005 0,0.194 0.254,0.194 0.339,0.194 0.254,0 0.254,-0.039 0.381,-0.387 L 282,267.193"
         fill-rule="evenodd"
         id="path100013" />
      <path
         d="m 287.484,282.785 c -0.081,0.266 -0.203,0.721 -0.203,0.797 0,0.266 0.244,0.418 0.488,0.418 0.244,0 0.447,-0.19 0.528,-0.304 0.081,-0.114 0.203,-0.531 0.244,-0.797 0.081,-0.266 0.243,-0.874 0.325,-1.215 0.081,-0.304 0.162,-0.57 0.243,-0.874 0.163,-0.569 0.163,-0.607 0.447,-1.025 0.447,-0.646 1.138,-1.405 2.275,-1.405 0.772,0 0.813,0.607 0.813,0.949 0,0.798 -0.61,2.241 -0.813,2.81 -0.162,0.38 -0.244,0.494 -0.244,0.722 0,0.683 0.65,1.139 1.382,1.139 1.381,0 2.031,-1.823 2.031,-2.051 0,-0.152 -0.203,-0.152 -0.244,-0.152 -0.203,0 -0.203,0.076 -0.243,0.228 -0.325,1.064 -0.935,1.595 -1.504,1.595 -0.325,0 -0.365,-0.19 -0.365,-0.455 0,-0.304 0.081,-0.494 0.325,-1.064 0.162,-0.417 0.731,-1.823 0.731,-2.582 0,-0.19 0,-0.76 -0.528,-1.139 -0.203,-0.19 -0.65,-0.38 -1.3,-0.38 -1.26,0 -2.072,0.797 -2.519,1.367 -0.081,-1.139 -1.097,-1.367 -1.828,-1.367 -1.178,0 -1.991,0.684 -2.397,1.215 -0.081,-0.911 -0.934,-1.215 -1.503,-1.215 -0.609,0 -0.934,0.418 -1.138,0.722 -0.324,0.493 -0.487,1.253 -0.487,1.329 0,0.152 0.163,0.152 0.203,0.152 0.203,0 0.244,-0.038 0.325,-0.38 0.203,-0.798 0.488,-1.443 1.056,-1.443 0.366,0 0.447,0.304 0.447,0.645 0,0.266 -0.122,0.76 -0.203,1.102 -0.122,0.379 -0.244,0.911 -0.325,1.215 l -0.447,1.671 c -0.081,0.19 -0.162,0.531 -0.162,0.569 0,0.266 0.244,0.418 0.487,0.418 0.244,0 0.488,-0.19 0.569,-0.304 0.041,-0.114 0.162,-0.531 0.244,-0.797 0.081,-0.266 0.244,-0.874 0.325,-1.215 0.081,-0.304 0.162,-0.57 0.244,-0.874 0.121,-0.569 0.162,-0.645 0.568,-1.215 0.406,-0.532 1.057,-1.215 2.153,-1.215 0.813,0 0.813,0.683 0.813,0.949 0,0.304 -0.041,0.494 -0.244,1.215 l -0.569,2.241"
         fill-rule="evenodd"
         id="path100015" />
    </g>
    <g
       transform="matrix(0.04151541,0,0,0.04151541,15.230948,4.3901418)"
       id="g100134">
      <path
         d="M 194,598 130,648 66,598 Z"
         stroke="#042433"
         stroke-width="2"
         stroke-miterlimit="8"
         fill-rule="evenodd"
         id="path100132" />
    </g>
    <g
       transform="matrix(0.13636364,0,0,0.13636364,-18.617706,-41.755471)"
       id="g100166">
      <path
         d="m 292.921,389.585 c 0.04,-0.148 0.079,-0.297 0.079,-0.446 0,-0.445 -0.236,-0.693 -0.59,-0.693 -0.196,0 -0.707,0.198 -0.786,1.09 -0.353,-0.942 -1.061,-1.536 -1.807,-1.536 -2.241,0 -4.677,3.418 -4.677,6.985 0,2.476 1.179,3.913 2.594,3.913 1.179,0 2.083,-1.139 2.279,-1.437 l 0.039,0.05 c -0.432,2.179 -0.668,3.22 -0.668,3.269 -0.078,0.198 -0.746,2.675 -2.829,2.675 -0.354,0 -1.022,-0.049 -1.572,-0.248 0.589,-0.247 0.825,-0.891 0.825,-1.288 0,-0.396 -0.236,-0.891 -0.747,-0.891 -0.432,0 -1.061,0.446 -1.061,1.436 0,1.041 0.707,1.536 2.594,1.536 2.476,0 3.851,-1.932 4.166,-3.418 z m -2.554,6.143 c -0.079,0.644 -0.55,1.287 -0.983,1.733 -0.393,0.446 -1.022,0.892 -1.572,0.892 -0.982,0 -1.297,-1.288 -1.297,-2.279 0,-1.189 0.59,-4.111 1.101,-5.35 0.55,-1.238 1.375,-2.229 2.201,-2.229 1.297,0 1.572,2.031 1.572,2.13 0,0.149 -0.04,0.298 -0.079,0.397 l -0.943,4.706"
         fill-rule="evenodd"
         id="path100162" />
      <path
         d="m 300.642,395.971 c -0.076,-0.151 -0.076,-0.201 -0.076,-0.251 0,0 0,-0.051 0.302,-0.302 l 1.321,-1.255 c 1.736,-1.607 2.566,-2.41 3.509,-2.51 0.151,0 0.302,-0.05 0.302,-0.402 0,-0.1 -0.113,-0.201 -0.189,-0.201 -0.264,0 -0.603,0.05 -0.905,0.05 -0.34,0 -1.246,-0.1 -1.585,-0.1 -0.076,0 -0.264,0 -0.264,0.402 0,0.05 0,0.251 0.188,0.251 0.151,0 0.34,0.05 0.34,0.251 0,0.301 -0.415,0.703 -0.604,0.853 l -5.472,5.172 1.019,-5.523 c 0.114,-0.603 0.151,-0.753 1.17,-0.753 0.227,0 0.377,0 0.377,-0.352 0,-0.15 -0.075,-0.301 -0.188,-0.301 -0.378,0 -1.359,0.1 -1.736,0.1 -0.226,0 -0.679,0 -0.906,0 -0.264,-0.05 -0.566,-0.1 -0.83,-0.1 -0.075,0 -0.264,0 -0.264,0.402 0,0.251 0.151,0.251 0.415,0.251 0.226,0 0.264,0 0.491,0.05 0.264,0 0.301,0.05 0.301,0.251 0,0 0,0.1 -0.037,0.351 l -1.774,9.339 c -0.075,0.603 -0.113,0.703 -1.132,0.703 -0.264,0 -0.415,0 -0.415,0.402 0,0 0,0.251 0.226,0.251 0.378,0 1.321,-0.05 1.699,-0.05 0.226,0 0.679,0 0.905,0 0.264,0 0.604,0.05 0.868,0.05 0.076,0 0.264,0 0.264,-0.402 0,-0.251 -0.151,-0.251 -0.415,-0.251 -0.038,0 -0.264,0 -0.528,0 -0.302,-0.05 -0.302,-0.1 -0.302,-0.301 0,-0.1 0.151,-0.753 0.641,-3.364 l 2.189,-2.008 1.887,4.92 c 0.113,0.201 0.113,0.251 0.113,0.301 0,0.402 -0.377,0.452 -0.604,0.452 -0.151,0 -0.339,0 -0.339,0.402 0,0 0,0.251 0.226,0.251 0.34,0 1.321,-0.05 1.661,-0.05 0.415,0 0.943,0.05 1.283,0.05 0.188,0 0.264,-0.1 0.264,-0.351 0,-0.302 -0.151,-0.302 -0.302,-0.302 -0.227,0 -0.642,0 -0.868,-0.552 l -2.226,-5.824"
         fill-rule="evenodd"
         id="path100164" />
    </g>
    <g
       transform="matrix(0.14736842,0,0,0.14736842,-4.1037901,-53.738002)"
       id="g100181">
      <path
         d="m 239.922,440.585 c 0.039,-0.148 0.078,-0.297 0.078,-0.446 0,-0.445 -0.235,-0.693 -0.587,-0.693 -0.196,0 -0.704,0.198 -0.783,1.09 -0.352,-0.942 -1.056,-1.536 -1.839,-1.536 -2.23,0 -4.656,3.418 -4.656,6.985 0,2.476 1.213,3.913 2.622,3.913 1.134,0 2.073,-1.139 2.269,-1.437 v 0.05 c -0.391,2.179 -0.626,3.22 -0.626,3.269 -0.078,0.198 -0.743,2.675 -2.817,2.675 -0.392,0 -1.018,-0.049 -1.566,-0.248 0.587,-0.247 0.783,-0.891 0.783,-1.288 0,-0.396 -0.196,-0.891 -0.743,-0.891 -0.431,0 -1.057,0.446 -1.057,1.436 0,1.041 0.743,1.536 2.622,1.536 2.426,0 3.835,-1.932 4.148,-3.418 z m -2.544,6.143 c -0.117,0.644 -0.548,1.287 -0.978,1.733 -0.43,0.446 -1.017,0.892 -1.604,0.892 -0.979,0 -1.253,-1.288 -1.253,-2.279 0,-1.189 0.548,-4.111 1.096,-5.35 0.509,-1.238 1.37,-2.229 2.191,-2.229 1.292,0 1.566,2.031 1.566,2.13 0,0.149 -0.039,0.298 -0.079,0.397 l -0.939,4.706"
         fill-rule="evenodd"
         id="path100177" />
      <path
         d="m 245.737,443.456 c 0.118,-0.602 0.158,-0.803 1.421,-0.803 0.434,0 0.592,0 0.592,-0.402 0,0 -0.039,-0.251 -0.237,-0.251 -0.316,0 -0.71,0.05 -1.026,0.1 -0.355,0 -0.75,0 -1.105,0 -0.316,0 -0.671,0 -0.948,0 -0.316,0 -0.631,-0.1 -0.908,-0.1 -0.079,0 -0.276,0 -0.276,0.402 0,0.251 0.158,0.251 0.434,0.251 0,0 0.277,0 0.513,0.05 0.277,0 0.316,0.05 0.316,0.251 0,0 0,0.1 -0.039,0.351 l -1.856,9.339 c -0.118,0.603 -0.157,0.703 -1.184,0.703 -0.237,0 -0.434,0 -0.434,0.402 0,0.251 0.158,0.251 0.434,0.251 h 6.908 c 0.355,0 0.355,0 0.474,-0.351 0.158,-0.452 1.184,-3.867 1.184,-4.017 0,-0.05 -0.039,-0.251 -0.237,-0.251 -0.158,0 -0.197,0.1 -0.276,0.351 -0.513,1.707 -1.145,3.615 -3.671,3.615 h -1.54 c -0.434,0 -0.434,0 -0.434,-0.15 0,0 0,-0.101 0.04,-0.352 l 1.855,-9.389"
         fill-rule="evenodd"
         id="path100179" />
    </g>
    <g
       transform="matrix(0.125,0,0,0.125,-26.962467,-39.3152)"
       id="g100198">
      <path
         d="m 308.961,405.585 c 0,-0.148 0.039,-0.297 0.039,-0.446 0,-0.445 -0.236,-0.693 -0.55,-0.693 -0.197,0 -0.747,0.198 -0.826,1.09 -0.353,-0.942 -1.021,-1.536 -1.807,-1.536 -2.241,0 -4.677,3.418 -4.677,6.985 0,2.476 1.218,3.913 2.594,3.913 1.179,0 2.083,-1.139 2.279,-1.437 l 0.039,0.05 c -0.432,2.179 -0.668,3.22 -0.668,3.269 -0.078,0.198 -0.746,2.675 -2.829,2.675 -0.354,0 -0.983,-0.049 -1.533,-0.248 0.589,-0.247 0.786,-0.891 0.786,-1.288 0,-0.396 -0.197,-0.891 -0.747,-0.891 -0.432,0 -1.061,0.446 -1.061,1.436 0,1.041 0.747,1.536 2.594,1.536 2.476,0 3.891,-1.932 4.166,-3.418 z m -2.555,6.143 c -0.118,0.644 -0.589,1.287 -1.022,1.733 -0.393,0.446 -1.022,0.892 -1.572,0.892 -0.982,0 -1.297,-1.288 -1.297,-2.279 0,-1.189 0.59,-4.111 1.101,-5.35 0.55,-1.238 1.375,-2.229 2.201,-2.229 1.297,0 1.572,2.031 1.572,2.13 0,0.149 -0.04,0.298 -0.04,0.397 l -0.943,4.706"
         fill-rule="evenodd"
         id="path100192" />
      <path
         d="m 321.161,408.958 c 0.167,-0.703 0.376,-1.255 1.546,-1.305 0.084,0 0.293,0 0.293,-0.402 0,-0.1 -0.084,-0.251 -0.209,-0.251 -0.502,0 -1.045,0.1 -1.547,0.1 -0.334,0 -1.17,-0.1 -1.504,-0.1 -0.084,0 -0.293,0 -0.293,0.402 0,0.251 0.167,0.251 0.293,0.251 0.71,0 0.961,0.301 0.961,0.703 0,0.15 -0.042,0.251 -0.084,0.452 l -1.588,7.631 -3.679,-9.138 C 315.225,407 315.183,407 314.849,407 h -2.007 c -0.292,0 -0.459,0 -0.459,0.402 0,0.251 0.167,0.251 0.459,0.251 0.335,0 0.627,0 0.962,0.1 l -1.965,9.389 c -0.125,0.653 -0.376,1.155 -1.505,1.205 -0.125,0 -0.334,0.05 -0.334,0.402 0,0.201 0.125,0.251 0.251,0.251 0.46,0 1.003,-0.05 1.505,-0.05 0.334,0 1.17,0.05 1.546,0.05 0.126,0 0.293,-0.1 0.293,-0.351 0,-0.252 -0.167,-0.302 -0.335,-0.302 -0.919,0 -0.919,-0.452 -0.919,-0.703 0,-0.1 0,-0.15 0.042,-0.452 l 1.881,-8.987 4.263,10.494 c 0.084,0.301 0.168,0.301 0.293,0.301 0.251,0 0.251,-0.05 0.334,-0.351 l 2.007,-9.691"
         fill-rule="evenodd"
         id="path100194" />
      <path
         d="m 329.955,412.07 c -0.275,-0.611 -0.747,-1.07 -1.416,-1.07 -1.73,0 -3.539,2.497 -3.539,5.096 0,1.681 0.904,2.904 2.084,2.904 0.747,0 1.416,-0.51 1.967,-1.223 0.236,1.07 1.022,1.223 1.376,1.223 0.511,0 0.865,-0.357 1.101,-0.917 0.315,-0.714 0.472,-1.733 0.472,-1.784 0,-0.203 -0.157,-0.203 -0.197,-0.203 -0.196,0 -0.236,0.05 -0.314,0.509 -0.158,0.866 -0.433,1.936 -0.983,1.936 -0.394,0 -0.472,-0.407 -0.472,-0.866 0,-0.306 0.118,-0.968 0.196,-1.427 0.118,-0.458 0.236,-1.223 0.315,-1.579 l 0.275,-1.376 c 0.079,-0.459 0.236,-1.274 0.236,-1.376 0,-0.407 -0.236,-0.56 -0.472,-0.56 -0.236,0 -0.55,0.204 -0.629,0.713 z m -0.865,4.535 c -0.079,0.51 -0.393,0.866 -0.708,1.223 -0.118,0.153 -0.669,0.713 -1.258,0.713 -0.512,0 -0.984,-0.458 -0.984,-1.732 0,-0.968 0.394,-2.905 0.708,-3.618 0.63,-1.427 1.337,-1.681 1.691,-1.681 0.983,0 1.219,1.324 1.219,1.528 0,0.102 0,0.204 -0.039,0.255 l -0.629,3.312"
         fill-rule="evenodd"
         id="path100196" />
    </g>
  </g>
</svg>
