<?xml version="1.0" encoding="utf-8" standalone="no"?>
<!DOCTYPE svg PUBLIC "-//W3C//DTD SVG 1.1//EN"
  "http://www.w3.org/Graphics/SVG/1.1/DTD/svg11.dtd">
<svg xmlns:xlink="http://www.w3.org/1999/xlink" width="138.96pt" height="84.96pt" viewBox="0 0 138.96 84.96" xmlns="http://www.w3.org/2000/svg" version="1.1">
 <metadata>
  <rdf:RDF xmlns:dc="http://purl.org/dc/elements/1.1/" xmlns:cc="http://creativecommons.org/ns#" xmlns:rdf="http://www.w3.org/1999/02/22-rdf-syntax-ns#">
   <cc:Work>
    <dc:type rdf:resource="http://purl.org/dc/dcmitype/StillImage"/>
    <dc:date>2024-05-12T16:31:04.344963</dc:date>
    <dc:format>image/svg+xml</dc:format>
    <dc:creator>
     <cc:Agent>
      <dc:title>Matplotlib v3.8.4, https://matplotlib.org/</dc:title>
     </cc:Agent>
    </dc:creator>
   </cc:Work>
  </rdf:RDF>
 </metadata>
 <defs>
  <style type="text/css">*{stroke-linejoin: round; stroke-linecap: butt}</style>
 </defs>
 <g id="figure_1">
  <g id="patch_1">
   <path d="M 0 84.96 
L 138.96 84.96 
L 138.96 0 
L 0 0 
z
" style="fill: #ffffff"/>
  </g>
  <g id="axes_1">
   <g id="line2d_1">
    <path d="M 12.861818 72.20832 
L 14.402141 73.539177 
L 15.059043 73.795124 
L 16.939143 74.30785 
L 17.369527 74.347189 
L 26.20373 74.439474 
L 29.760063 74.416729 
L 30.281055 74.441111 
L 30.575528 74.458609 
L 32.274413 74.444023 
L 33.339048 74.5401 
L 33.927995 74.454118 
L 34.856719 74.461024 
L 35.173844 74.496423 
L 35.536273 74.451895 
L 36.215827 74.438512 
L 36.442345 74.459714 
L 37.121899 74.465345 
L 37.416373 74.454382 
L 37.688194 74.456033 
L 38.027971 74.433087 
L 38.163882 74.446644 
L 38.367748 74.429052 
L 39.568294 74.465443 
L 40.859447 74.489347 
L 41.199224 74.40136 
L 41.969385 72.216952 
L 42.830154 70.509282 
L 43.509708 69.223272 
L 44.076003 67.347057 
L 44.279869 65.454263 
L 44.393128 62.409106 
L 44.483735 53.426393 
L 44.596994 10.407273 
L 44.732905 14.52695 
L 44.891468 31.907329 
L 45.231245 66.226774 
L 45.457763 72.406455 
L 45.661629 73.392372 
L 45.820192 73.398576 
L 45.978754 73.161692 
L 47.405818 70.443835 
L 47.67764 69.983635 
L 48.425149 68.556958 
L 48.832881 67.034199 
L 49.014096 65.292747 
L 49.150007 61.278478 
L 49.240614 49.787605 
L 49.353873 11.040338 
L 49.44448 13.387416 
L 49.580391 25.799449 
L 49.988123 67.31389 
L 50.214641 72.552978 
L 50.418508 73.350157 
L 50.554419 73.317062 
L 50.667678 73.195811 
L 53.227331 68.27955 
L 53.521805 67.044093 
L 53.703019 65.31945 
L 53.83893 61.376852 
L 53.929537 50.282959 
L 54.042796 10.990405 
L 54.156055 14.502583 
L 54.314618 31.996039 
L 54.654395 66.198546 
L 54.880913 72.313495 
L 55.084779 73.299855 
L 55.243342 73.304207 
L 55.560467 72.772274 
L 56.715709 70.586936 
L 57.48587 69.274332 
L 58.006862 67.997694 
L 58.301335 66.385011 
L 58.459898 64.067996 
L 58.573157 58.125123 
L 58.663764 34.617188 
L 58.731719 10.951054 
L 58.799675 12.325061 
L 58.912934 19.798273 
L 59.479229 70.839161 
L 59.683095 73.079078 
L 59.86431 73.364434 
L 60.00022 73.259943 
L 60.272042 72.754485 
L 62.741089 67.90175 
L 63.01291 66.38937 
L 63.171473 64.055832 
L 63.284732 58.117 
L 63.375339 34.542453 
L 63.443294 10.950739 
L 63.51125 12.329814 
L 63.624509 19.810792 
L 64.190804 70.833078 
L 64.39467 73.070007 
L 64.575885 73.350998 
L 64.711795 73.221441 
L 65.368698 71.908247 
L 67.430012 67.764283 
L 67.65653 66.486154 
L 67.815092 64.343015 
L 67.928351 59.25699 
L 68.018959 40.283233 
L 68.109566 11.198649 
L 68.177521 12.701356 
L 68.29078 20.983925 
L 68.811772 69.941481 
L 69.03829 73.035588 
L 69.219504 73.350475 
L 69.378067 73.221414 
L 70.012317 71.977854 
L 70.691871 70.728039 
L 71.212863 69.881171 
L 71.847113 68.695819 
L 72.209542 67.557595 
L 72.43606 65.969277 
L 72.571971 63.483931 
L 72.662578 58.326908 
L 72.753186 35.556855 
L 72.821141 10.921894 
L 72.889096 12.261582 
L 73.002355 19.598739 
L 73.56865 70.788685 
L 73.795168 73.148126 
L 73.953731 73.347424 
L 73.976383 73.338125 
L 74.157597 73.118833 
L 76.060349 69.620064 
L 76.400126 68.958053 
L 76.875814 67.617402 
L 77.102332 66.112928 
L 77.260894 63.225613 
L 77.351502 57.477908 
L 77.442109 31.502818 
L 77.510064 11.083836 
L 77.57802 12.52847 
L 77.691279 20.452572 
L 78.21227 69.824488 
L 78.438788 73.00702 
L 78.620003 73.352997 
L 78.95978 72.900172 
L 79.480771 71.876539 
L 81.360871 68.302737 
L 81.655344 67.115798 
L 81.836559 65.525496 
L 81.972469 62.099722 
L 82.063077 53.316837 
L 82.176336 11.132645 
L 82.312246 15.023462 
L 82.470809 33.265628 
L 82.787934 65.520515 
L 83.037104 72.411102 
L 83.24097 73.307276 
L 83.376881 73.307763 
L 83.671355 72.854396 
L 84.668034 70.891709 
L 85.687365 69.140569 
L 86.25366 67.508814 
L 86.480178 65.886149 
L 86.616089 63.272308 
L 86.706696 57.642407 
L 86.797303 32.317297 
L 86.865259 11.035026 
L 86.933214 12.4807 
L 87.046473 20.285488 
L 87.590117 70.400944 
L 87.816635 73.107195 
L 87.997849 73.334967 
L 88.156412 73.187738 
L 88.813314 71.894171 
L 89.628779 70.44373 
L 90.512199 68.861758 
L 90.919932 67.720066 
L 91.169101 66.141351 
L 91.327664 63.312709 
L 91.418271 57.764863 
L 91.508879 32.856632 
L 91.576834 11.0155 
L 91.644789 12.43318 
L 91.758048 20.157284 
L 92.301692 70.361158 
L 92.505558 72.962984 
L 92.709424 73.329953 
L 92.890638 73.160856 
L 93.207764 72.574823 
L 94.068532 70.903918 
L 95.42764 68.429481 
L 95.722114 67.361773 
L 95.948632 65.523859 
L 96.084543 62.085391 
L 96.17515 53.273653 
L 96.288409 11.121889 
L 96.42432 15.035407 
L 96.582882 33.284578 
L 96.900008 65.512844 
L 97.149177 72.379832 
L 97.353044 73.284285 
L 97.488955 73.280912 
L 97.80608 72.757549 
L 97.896687 72.887012 
L 98.327071 73.308684 
L 100.365734 74.109541 
L 100.999984 74.209935 
L 101.475672 74.268346 
L 102.20053 74.368315 
L 102.427048 74.34638 
L 102.857432 74.329504 
L 103.08395 74.383921 
L 103.650245 74.444367 
L 104.284495 74.460487 
L 105.326478 74.513715 
L 105.575648 74.505941 
L 105.84747 74.520643 
L 106.549676 74.475029 
L 107.591659 74.474904 
L 108.520383 74.470498 
L 109.131981 74.441321 
L 109.788884 74.465054 
L 110.151312 74.473906 
L 110.37783 74.465273 
L 111.668983 74.471947 
L 111.940805 74.480924 
L 116.561773 74.440691 
L 116.810943 74.452396 
L 117.082764 74.427366 
L 118.215354 74.496208 
L 118.464524 74.467613 
L 118.849605 74.424436 
L 122.202072 74.451622 
L 122.451242 74.439975 
L 123.855653 74.393515 
L 124.05952 74.428833 
L 124.580511 74.446662 
L 125.373324 74.439809 
L 126.098182 74.438575 
L 126.098182 74.438575 
" clip-path="url(#pe87cc27f60)" style="fill: none; stroke: #000000; stroke-width: 1.5; stroke-linecap: square"/>
   </g>
  </g>
 </g>
 <defs>
  <clipPath id="pe87cc27f60">
   <rect x="7.2" y="7.2" width="124.56" height="70.56"/>
  </clipPath>
 </defs>
</svg>
