<?xml version="1.0" encoding="utf-8" standalone="no"?>
<!DOCTYPE svg PUBLIC "-//W3C//DTD SVG 1.1//EN"
  "http://www.w3.org/Graphics/SVG/1.1/DTD/svg11.dtd">
<svg xmlns:xlink="http://www.w3.org/1999/xlink" width="138.96pt" height="84.96pt" viewBox="0 0 138.96 84.96" xmlns="http://www.w3.org/2000/svg" version="1.1">
 <metadata>
  <rdf:RDF xmlns:dc="http://purl.org/dc/elements/1.1/" xmlns:cc="http://creativecommons.org/ns#" xmlns:rdf="http://www.w3.org/1999/02/22-rdf-syntax-ns#">
   <cc:Work>
    <dc:type rdf:resource="http://purl.org/dc/dcmitype/StillImage"/>
    <dc:date>2024-05-12T16:31:05.363811</dc:date>
    <dc:format>image/svg+xml</dc:format>
    <dc:creator>
     <cc:Agent>
      <dc:title>Matplotlib v3.8.4, https://matplotlib.org/</dc:title>
     </cc:Agent>
    </dc:creator>
   </cc:Work>
  </rdf:RDF>
 </metadata>
 <defs>
  <style type="text/css">*{stroke-linejoin: round; stroke-linecap: butt}</style>
 </defs>
 <g id="figure_1">
  <g id="patch_1">
   <path d="M 0 84.96 
L 138.96 84.96 
L 138.96 0 
L 0 0 
z
" style="fill: #ffffff"/>
  </g>
  <g id="axes_1">
   <g id="line2d_1">
    <path d="M 12.861818 77.736972 
L 13.360258 77.752109 
L 26.546245 77.758759 
L 43.243964 77.651596 
L 43.810372 77.443335 
L 44.036936 77.167474 
L 44.19553 76.599371 
L 44.308812 75.297066 
L 44.399437 70.930429 
L 44.490062 46.163583 
L 44.535375 35.779796 
L 44.580688 48.155189 
L 44.648657 72.207593 
L 44.716626 67.594935 
L 44.87522 60.06542 
L 44.920533 60.574442 
L 45.101783 69.167329 
L 45.351003 77.481709 
L 45.509597 77.751152 
L 46.415851 77.754711 
L 48.115076 77.619314 
L 48.590859 77.400879 
L 48.817422 77.067473 
L 48.95336 76.4809 
L 49.066642 74.84849 
L 49.157267 69.174453 
L 49.270549 36.37455 
L 49.338518 54.309566 
L 49.383831 71.270365 
L 49.474456 66.79917 
L 49.610394 61.249854 
L 49.655707 61.731376 
L 49.836957 69.688906 
L 50.086177 77.493624 
L 50.244771 77.750913 
L 51.151025 77.754401 
L 52.804937 77.622198 
L 53.28072 77.409784 
L 53.507284 77.073297 
L 53.643222 76.493814 
L 53.756503 74.899694 
L 53.847129 69.423204 
L 53.96041 36.508552 
L 54.028379 53.373519 
L 54.096348 71.205488 
L 54.164317 66.916746 
L 54.300255 61.285264 
L 54.345568 61.724721 
L 54.526819 69.613167 
L 54.776038 77.483355 
L 54.934633 77.750659 
L 55.795574 77.755076 
L 57.494799 77.624646 
L 57.993238 77.395126 
L 58.219801 77.018351 
L 58.355739 76.335446 
L 58.469021 74.293934 
L 58.559646 66.460909 
L 58.650272 36.765536 
L 58.718241 52.056216 
L 58.78621 71.384421 
L 58.854179 67.135741 
L 58.990117 61.310837 
L 59.035429 61.663417 
L 59.194024 68.300475 
L 59.4659 77.465096 
L 59.624494 77.750209 
L 60.462779 77.755499 
L 62.18466 77.626868 
L 62.683099 77.41226 
L 62.909663 77.077236 
L 63.045601 76.50729 
L 63.158882 74.971381 
L 63.249508 69.737492 
L 63.340133 43.257957 
L 63.362789 36.728087 
L 63.408102 43.78863 
L 63.498727 71.387122 
L 63.566696 67.109239 
L 63.702635 61.29089 
L 63.747947 61.652922 
L 63.906542 68.297466 
L 64.178418 77.464646 
L 64.337012 77.750097 
L 65.15264 77.755499 
L 66.851865 77.626981 
L 67.350304 77.400049 
L 67.576868 77.04595 
L 67.712806 76.429415 
L 67.826088 74.682047 
L 67.916713 68.403981 
L 68.029995 36.525017 
L 68.075307 47.211511 
L 68.143276 71.622607 
L 68.211245 67.919959 
L 68.36984 61.292412 
L 68.392496 61.470272 
L 68.505778 65.486338 
L 68.845623 77.524909 
L 69.004217 77.751841 
L 70.001096 77.753023 
L 71.609696 77.615896 
L 72.085479 77.392059 
L 72.312042 77.028563 
L 72.44798 76.357166 
L 72.561262 74.365874 
L 72.651887 66.790252 
L 72.742512 36.96521 
L 72.810481 51.234046 
L 72.87845 71.48396 
L 72.946419 67.243496 
L 73.082357 61.292241 
L 73.12767 61.598679 
L 73.286264 68.187009 
L 73.55814 77.451198 
L 73.716735 77.749703 
L 74.509706 77.75578 
L 76.254244 77.626249 
L 76.752684 77.396617 
L 76.979247 77.062606 
L 77.115185 76.464639 
L 77.228467 74.815966 
L 77.319092 69.029746 
L 77.432374 36.40455 
L 77.500343 54.729677 
L 77.545655 71.311272 
L 77.636281 66.739442 
L 77.772219 61.282222 
L 77.817531 61.798374 
L 77.998782 69.776262 
L 78.248002 77.500714 
L 78.406596 77.751166 
L 79.31285 77.754373 
L 80.944106 77.625799 
L 81.442545 77.39853 
L 81.669108 77.04702 
L 81.805046 76.430427 
L 81.918328 74.656108 
L 82.008953 68.25802 
L 82.122235 36.55895 
L 82.167548 47.542931 
L 82.235517 71.662839 
L 82.303486 67.860537 
L 82.46208 61.278118 
L 82.484736 61.46493 
L 82.598018 65.503219 
L 82.937863 77.531099 
L 83.096457 77.751897 
L 84.115993 77.752347 
L 85.67928 77.611676 
L 86.132406 77.384575 
L 86.336313 77.064069 
L 86.472251 76.475611 
L 86.585533 74.862613 
L 86.676158 69.230682 
L 86.78944 36.435601 
L 86.857409 54.038367 
L 86.902722 71.156195 
L 86.993347 66.83341 
L 87.129285 61.297698 
L 87.174598 61.776318 
L 87.355849 69.701199 
L 87.605068 77.492949 
L 87.763663 77.750997 
L 88.64726 77.754711 
L 90.346485 77.619666 
L 90.844924 77.381762 
L 91.048831 77.071496 
L 91.184769 76.485402 
L 91.298051 74.878593 
L 91.388676 69.345131 
L 91.501958 36.421875 
L 91.569927 53.577077 
L 91.637896 71.174989 
L 91.705865 66.901722 
L 91.841803 61.276652 
L 91.887116 61.724215 
L 92.068366 69.628725 
L 92.317586 77.485184 
L 92.47618 77.750547 
L 93.359777 77.754823 
L 95.059003 77.621129 
L 95.557442 77.396617 
L 95.784005 77.041111 
L 95.919943 76.427558 
L 96.033225 74.659146 
L 96.12385 68.235514 
L 96.237132 36.563563 
L 96.282445 47.628462 
L 96.350414 71.670041 
L 96.418383 67.824076 
L 96.576977 61.253133 
L 96.599633 61.439832 
L 96.712915 65.490615 
L 97.05276 77.529974 
L 97.211354 77.751897 
L 98.276202 77.757187 
L 126.098182 77.759325 
L 126.098182 77.759325 
" clip-path="url(#p7deb1c2082)" style="fill: none; stroke: #000000; stroke-width: 1.5; stroke-linecap: square"/>
   </g>
  </g>
 </g>
 <defs>
  <clipPath id="p7deb1c2082">
   <rect x="7.2" y="7.2" width="124.56" height="70.56"/>
  </clipPath>
 </defs>
</svg>
