<?xml version="1.0" encoding="utf-8" standalone="no"?>
<!DOCTYPE svg PUBLIC "-//W3C//DTD SVG 1.1//EN"
  "http://www.w3.org/Graphics/SVG/1.1/DTD/svg11.dtd">
<svg xmlns:xlink="http://www.w3.org/1999/xlink" width="420.295078pt" height="42.12pt" viewBox="0 0 420.295078 42.12" xmlns="http://www.w3.org/2000/svg" version="1.1">
 <metadata>
  <rdf:RDF xmlns:dc="http://purl.org/dc/elements/1.1/" xmlns:cc="http://creativecommons.org/ns#" xmlns:rdf="http://www.w3.org/1999/02/22-rdf-syntax-ns#">
   <cc:Work>
    <dc:type rdf:resource="http://purl.org/dc/dcmitype/StillImage"/>
    <dc:date>2024-05-08T10:11:54.030467</dc:date>
    <dc:format>image/svg+xml</dc:format>
    <dc:creator>
     <cc:Agent>
      <dc:title>Matplotlib v3.8.4, https://matplotlib.org/</dc:title>
     </cc:Agent>
    </dc:creator>
   </cc:Work>
  </rdf:RDF>
 </metadata>
 <defs>
  <style type="text/css">*{stroke-linejoin: round; stroke-linecap: butt}</style>
 </defs>
 <g id="figure_1">
  <g id="patch_1">
   <path d="M 0 42.12 
L 420.295078 42.12 
L 420.295078 0 
L 0 0 
L 0 42.12 
z
" style="fill: none"/>
  </g>
  <g id="axes_1"/>
  <g id="legend_1">
   <g id="line2d_1">
    <path d="M 10.8 21.149297 
L 19.8 21.149297 
L 28.8 21.149297 
" style="fill: none; stroke: #154c79; stroke-opacity: 0.8; stroke-width: 2.7; stroke-linecap: square"/>
    <defs>
     <path id="m01fda63d2a" d="M 0 1.691974 
C 0.448717 1.691974 0.879116 1.513697 1.196406 1.196406 
C 1.513697 0.879116 1.691974 0.448717 1.691974 0 
C 1.691974 -0.448717 1.513697 -0.879116 1.196406 -1.196406 
C 0.879116 -1.513697 0.448717 -1.691974 0 -1.691974 
C -0.448717 -1.691974 -0.879116 -1.513697 -1.196406 -1.196406 
C -1.513697 -0.879116 -1.691974 -0.448717 -1.691974 0 
C -1.691974 0.448717 -1.513697 0.879116 -1.196406 1.196406 
C -0.879116 1.513697 -0.448717 1.691974 0 1.691974 
z
" style="stroke: #154c79; stroke-opacity: 0.8; stroke-width: 2.025"/>
    </defs>
    <g>
     <use xlink:href="#m01fda63d2a" x="19.8" y="21.149297" style="fill: #154c79; fill-opacity: 0.8; stroke: #154c79; stroke-opacity: 0.8; stroke-width: 2.025"/>
    </g>
   </g>
   <g id="text_1">
    <text style="font: 9px 'Arial', sans-serif; text-anchor: start" x="33.3" y="24.299297" transform="rotate(-0 33.3 24.299297)">NPE</text>
   </g>
   <g id="line2d_2">
    <path d="M 69.146719 21.149297 
L 78.146719 21.149297 
L 87.146719 21.149297 
" style="fill: none; stroke: #d73027; stroke-opacity: 0.8; stroke-width: 2.7; stroke-linecap: square"/>
    <defs>
     <path id="m813d998a91" d="M 0 1.691974 
C 0.448717 1.691974 0.879116 1.513697 1.196406 1.196406 
C 1.513697 0.879116 1.691974 0.448717 1.691974 0 
C 1.691974 -0.448717 1.513697 -0.879116 1.196406 -1.196406 
C 0.879116 -1.513697 0.448717 -1.691974 0 -1.691974 
C -0.448717 -1.691974 -0.879116 -1.513697 -1.196406 -1.196406 
C -1.513697 -0.879116 -1.691974 -0.448717 -1.691974 0 
C -1.691974 0.448717 -1.513697 0.879116 -1.196406 1.196406 
C -0.879116 1.513697 -0.448717 1.691974 0 1.691974 
z
" style="stroke: #d73027; stroke-opacity: 0.8; stroke-width: 2.025"/>
    </defs>
    <g>
     <use xlink:href="#m813d998a91" x="78.146719" y="21.149297" style="fill: #d73027; fill-opacity: 0.8; stroke: #d73027; stroke-opacity: 0.8; stroke-width: 2.025"/>
    </g>
   </g>
   <g id="text_2">
    <text style="font: 9px 'Arial', sans-serif; text-anchor: start" x="91.646719" y="24.299297" transform="rotate(-0 91.646719 24.299297)">Simformer</text>
   </g>
   <g id="line2d_3">
    <path d="M 156.848906 21.149297 
L 165.848906 21.149297 
L 174.848906 21.149297 
" style="fill: none; stroke: #911c1c; stroke-opacity: 0.8; stroke-width: 2.7; stroke-linecap: square"/>
    <defs>
     <path id="m6e5fe991e6" d="M 0 1.691974 
C 0.448717 1.691974 0.879116 1.513697 1.196406 1.196406 
C 1.513697 0.879116 1.691974 0.448717 1.691974 0 
C 1.691974 -0.448717 1.513697 -0.879116 1.196406 -1.196406 
C 0.879116 -1.513697 0.448717 -1.691974 0 -1.691974 
C -0.448717 -1.691974 -0.879116 -1.513697 -1.196406 -1.196406 
C -1.513697 -0.879116 -1.691974 -0.448717 -1.691974 0 
C -1.691974 0.448717 -1.513697 0.879116 -1.196406 1.196406 
C -0.879116 1.513697 -0.448717 1.691974 0 1.691974 
z
" style="stroke: #911c1c; stroke-opacity: 0.8; stroke-width: 2.025"/>
    </defs>
    <g>
     <use xlink:href="#m6e5fe991e6" x="165.848906" y="21.149297" style="fill: #911c1c; fill-opacity: 0.8; stroke: #911c1c; stroke-opacity: 0.8; stroke-width: 2.025"/>
    </g>
   </g>
   <g id="text_3">
    <text style="font: 9px 'Arial', sans-serif" transform="translate(179.348906 18.324422)">    Simformer</text>
    <text style="font: 9px 'Arial', sans-serif" transform="translate(179.348906 28.402453)"> (undirected graph)</text>
   </g>
   <g id="line2d_4">
    <path d="M 284.823281 21.149297 
L 293.823281 21.149297 
L 302.823281 21.149297 
" style="fill: none; stroke: #f25d1d; stroke-opacity: 0.8; stroke-width: 2.7; stroke-linecap: square"/>
    <defs>
     <path id="m2b40309b50" d="M 0 1.691974 
C 0.448717 1.691974 0.879116 1.513697 1.196406 1.196406 
C 1.513697 0.879116 1.691974 0.448717 1.691974 0 
C 1.691974 -0.448717 1.513697 -0.879116 1.196406 -1.196406 
C 0.879116 -1.513697 0.448717 -1.691974 0 -1.691974 
C -0.448717 -1.691974 -0.879116 -1.513697 -1.196406 -1.196406 
C -1.513697 -0.879116 -1.691974 -0.448717 -1.691974 0 
C -1.691974 0.448717 -1.513697 0.879116 -1.196406 1.196406 
C -0.879116 1.513697 -0.448717 1.691974 0 1.691974 
z
" style="stroke: #f25d1d; stroke-opacity: 0.8; stroke-width: 2.025"/>
    </defs>
    <g>
     <use xlink:href="#m2b40309b50" x="293.823281" y="21.149297" style="fill: #f25d1d; fill-opacity: 0.8; stroke: #f25d1d; stroke-opacity: 0.8; stroke-width: 2.025"/>
    </g>
   </g>
   <g id="text_4">
    <text style="font: 9px 'Arial', sans-serif" transform="translate(307.323281 18.324422)">    Simformer</text>
    <text style="font: 9px 'Arial', sans-serif" transform="translate(307.323281 28.402453)"> (directed graph)</text>
   </g>
  </g>
 </g>
</svg>
