<?xml version="1.0" encoding="UTF-8" standalone="no"?>
<!-- Created with Inkscape (http://www.inkscape.org/) -->

<svg
   width="50mm"
   height="50mm"
   viewBox="0 0 50 50"
   version="1.1"
   id="svg5"
   inkscape:version="1.1.2 (b8e25be833, 2022-02-05)"
   sodipodi:docname="model_illustration.svg"
   xmlns:inkscape="http://www.inkscape.org/namespaces/inkscape"
   xmlns:sodipodi="http://sodipodi.sourceforge.net/DTD/sodipodi-0.dtd"
   xmlns="http://www.w3.org/2000/svg"
   xmlns:svg="http://www.w3.org/2000/svg">
  <sodipodi:namedview
     id="namedview7"
     pagecolor="#ffffff"
     bordercolor="#666666"
     borderopacity="1.0"
     inkscape:pageshadow="2"
     inkscape:pageopacity="0.0"
     inkscape:pagecheckerboard="0"
     inkscape:document-units="mm"
     showgrid="false"
     showguides="true"
     inkscape:guide-bbox="true"
     inkscape:zoom="10.618968"
     inkscape:cx="83.200178"
     inkscape:cy="125.05924"
     inkscape:window-width="2560"
     inkscape:window-height="1369"
     inkscape:window-x="-8"
     inkscape:window-y="-8"
     inkscape:window-maximized="1"
     inkscape:current-layer="g1237">
    <sodipodi:guide
       position="19.260151,42.375671"
       orientation="0,-1"
       id="guide902" />
    <sodipodi:guide
       position="19.309983,38.625797"
       orientation="0,-1"
       id="guide1190" />
    <sodipodi:guide
       position="19.465709,36.819379"
       orientation="0,-1"
       id="guide1192" />
    <sodipodi:guide
       position="17.129824,32.346938"
       orientation="0,-1"
       id="guide4435" />
    <sodipodi:guide
       position="17.453733,30.415939"
       orientation="0,-1"
       id="guide4437" />
    <sodipodi:guide
       position="13.977936,31.213255"
       orientation="1,0"
       id="guide4783" />
  </sodipodi:namedview>
  <defs
     id="defs2" />
  <g
     inkscape:label="Ebene 1"
     inkscape:groupmode="layer"
     id="layer1">
    <g
       transform="matrix(0.26458333,0,0,0.26458333,-33.429159,7.2685141)"
       id="g870" />
    <path
       d="m 18.727587,13.781048 -3.15431,3.403644"
       stroke="#747474"
       stroke-width="0.065976"
       stroke-miterlimit="8"
       fill="none"
       fill-rule="evenodd"
       id="path1125"
       sodipodi:nodetypes="cc" />
    <path
       d="m 15.270702,20.112611 0.0038,2.762421"
       stroke="#747474"
       stroke-width="0.065976"
       stroke-miterlimit="8"
       fill="none"
       fill-rule="evenodd"
       id="path1125-8"
       sodipodi:nodetypes="cc" />
    <path
       d="m 15.270702,20.112611 4.384466,2.789412"
       stroke="#747474"
       stroke-width="0.065976"
       stroke-miterlimit="8"
       fill="none"
       fill-rule="evenodd"
       id="path1125-8-11"
       sodipodi:nodetypes="cc" />
    <path
       d="m 17.475502,20.104366 0.0038,2.762421"
       stroke="#747474"
       stroke-width="0.065976"
       stroke-miterlimit="8"
       fill="none"
       fill-rule="evenodd"
       id="path1125-8-9"
       sodipodi:nodetypes="cc" />
    <path
       d="m 17.475502,20.104366 8.740882,2.689184"
       stroke="#747474"
       stroke-width="0.065976"
       stroke-miterlimit="8"
       fill="none"
       fill-rule="evenodd"
       id="path1125-8-9-4"
       sodipodi:nodetypes="cc" />
    <path
       d="m 19.651368,20.139602 0.0038,2.762421"
       stroke="#747474"
       stroke-width="0.065976"
       stroke-miterlimit="8"
       fill="none"
       fill-rule="evenodd"
       id="path1125-8-3"
       sodipodi:nodetypes="cc" />
    <path
       d="m 21.906516,20.095557 0.0038,2.762421"
       stroke="#747474"
       stroke-width="0.065976"
       stroke-miterlimit="8"
       fill="none"
       fill-rule="evenodd"
       id="path1125-8-96"
       sodipodi:nodetypes="cc" />
    <path
       d="m 21.906516,20.095557 -6.632014,2.779475"
       stroke="#747474"
       stroke-width="0.065976"
       stroke-miterlimit="8"
       fill="none"
       fill-rule="evenodd"
       id="path1125-8-96-8"
       sodipodi:nodetypes="cc" />
    <path
       d="m 24.079878,20.157846 0.0038,2.762421"
       stroke="#747474"
       stroke-width="0.065976"
       stroke-miterlimit="8"
       fill="none"
       fill-rule="evenodd"
       id="path1125-8-97"
       sodipodi:nodetypes="cc" />
    <path
       d="m 24.079878,20.157846 -2.418723,2.762422"
       stroke="#747474"
       stroke-width="0.065976"
       stroke-miterlimit="8"
       fill="none"
       fill-rule="evenodd"
       id="path1125-8-97-0"
       sodipodi:nodetypes="cc" />
    <path
       d="m 26.212584,20.031129 0.0038,2.762421"
       stroke="#747474"
       stroke-width="0.065976"
       stroke-miterlimit="8"
       fill="none"
       fill-rule="evenodd"
       id="path1125-8-6"
       sodipodi:nodetypes="cc" />
    <path
       d="m 26.212584,20.031129 -8.733282,2.835658"
       stroke="#747474"
       stroke-width="0.065976"
       stroke-miterlimit="8"
       fill="none"
       fill-rule="evenodd"
       id="path1125-8-6-5"
       sodipodi:nodetypes="cc" />
    <path
       d="m 26.212584,20.031129 6.589154,2.859948"
       stroke="#747474"
       stroke-width="0.065976"
       stroke-miterlimit="8"
       fill="none"
       fill-rule="evenodd"
       id="path1125-8-6-4"
       sodipodi:nodetypes="cc" />
    <path
       d="m 28.492649,20.123495 0.0038,2.762421"
       stroke="#747474"
       stroke-width="0.065976"
       stroke-miterlimit="8"
       fill="none"
       fill-rule="evenodd"
       id="path1125-8-66"
       sodipodi:nodetypes="cc" />
    <path
       d="m 28.492649,20.123495 2.184566,2.757261"
       stroke="#747474"
       stroke-width="0.065976"
       stroke-miterlimit="8"
       fill="none"
       fill-rule="evenodd"
       id="path1125-8-66-0"
       sodipodi:nodetypes="cc" />
    <path
       d="m 30.673415,20.118335 0.0038,2.762421"
       stroke="#747474"
       stroke-width="0.065976"
       stroke-miterlimit="8"
       fill="none"
       fill-rule="evenodd"
       id="path1125-8-2"
       sodipodi:nodetypes="cc" />
    <path
       d="m 32.797938,20.128656 0.0038,2.762421"
       stroke="#747474"
       stroke-width="0.065976"
       stroke-miterlimit="8"
       fill="none"
       fill-rule="evenodd"
       id="path1125-8-1"
       sodipodi:nodetypes="cc" />
    <path
       d="m 32.797938,20.128656 -8.71426,2.791611"
       stroke="#747474"
       stroke-width="0.065976"
       stroke-miterlimit="8"
       fill="none"
       fill-rule="evenodd"
       id="path1125-8-1-0"
       sodipodi:nodetypes="cc" />
    <path
       d="m 25.55038,13.743107 6.749844,3.36627"
       stroke="#747474"
       stroke-width="0.065976"
       stroke-miterlimit="8"
       fill="none"
       fill-rule="evenodd"
       id="path1125-6"
       sodipodi:nodetypes="cc" />
    <path
       d="m 29.549745,13.778344 2.750479,3.331033 m -2.102375,-2.327583"
       stroke="#747474"
       stroke-width="0.065976"
       stroke-miterlimit="8"
       fill="none"
       fill-rule="evenodd"
       id="path1125-6-2"
       sodipodi:nodetypes="cc" />
    <path
       d="m 29.549745,13.778344 -0.65255,3.351761"
       stroke="#747474"
       stroke-width="0.065976"
       stroke-miterlimit="8"
       fill="none"
       fill-rule="evenodd"
       id="path1125-6-2-9"
       sodipodi:nodetypes="cc" />
    <path
       d="M 28.897195,17.130105 18.727587,13.781048"
       stroke="#747474"
       stroke-width="0.065976"
       stroke-miterlimit="8"
       fill="none"
       fill-rule="evenodd"
       id="path1125-9"
       sodipodi:nodetypes="cc" />
    <path
       d="m 25.55038,13.743107 -1.339526,0.873657 -4.483585,2.639903"
       stroke="#747474"
       stroke-width="0.065976"
       stroke-miterlimit="8"
       fill="none"
       fill-rule="evenodd"
       id="path1125-7"
       sodipodi:nodetypes="ccc" />
    <path
       d="m 18.727587,13.781048 -1.275522,3.437821 m 1.275522,-3.437821 3.309441,3.37454"
       stroke="#747474"
       stroke-width="0.065976"
       stroke-miterlimit="8"
       fill="none"
       fill-rule="evenodd"
       id="path1125-3"
       sodipodi:nodetypes="cccc" />
    <path
       d="m 23.026014,13.792515 -0.988986,3.363073 m 0.988986,-3.363073 3.595977,3.299792"
       stroke="#747474"
       stroke-width="0.065976"
       stroke-miterlimit="8"
       fill="none"
       fill-rule="evenodd"
       id="path1125-3-7"
       sodipodi:nodetypes="cccc" />
    <path
       d="m 25.55038,13.743107 -1.238148,3.450279 m 1.238148,-3.450279 3.346815,3.386998"
       stroke="#747474"
       stroke-width="0.065976"
       stroke-miterlimit="8"
       fill="none"
       fill-rule="evenodd"
       id="path1125-3-3"
       sodipodi:nodetypes="cccc" />
    <g
       transform="matrix(0.26458333,0,0,0.26458333,-53.097462,-6.6987547)"
       id="g1000">
      <g
         transform="translate(19.340961,6.0808045)"
         id="g1153">
        <path
           d="m 245.49429,62.08402 c 0,-1.009091 0.99728,-1.827128 2.22658,-1.827128 h 48.99433 c 1.2293,0 2.22658,0.818037 2.22658,1.827128 v 7.308509 c 0,1.00919 -0.99728,1.827227 -2.22658,1.827227 h -48.99433 c -1.2293,0 -2.22658,-0.818037 -2.22658,-1.827227 z"
           stroke="#042433"
           stroke-width="0.733524"
           stroke-miterlimit="8"
           fill="none"
           fill-rule="evenodd"
           id="path1097" />
        <path
           d="m 254.75425,64.087635 c 0,-0.432154 -0.29848,-0.782482 -0.66667,-0.782482 h -3.66666 c -0.36819,0 -0.66667,0.350328 -0.66667,0.782482 v 3.129834 c 0,0.432161 0.29848,0.782491 0.66667,0.782491 h 3.66666 c 0.36819,0 0.66667,-0.35033 0.66667,-0.782491 z"
           stroke="#d9d9d9"
           stroke-width="2.16676"
           stroke-miterlimit="8"
           fill="#d9d9d9"
           fill-rule="evenodd"
           id="path1099" />
        <path
           d="m 270.75425,64.149867 c 0,-0.425278 -0.29848,-0.770035 -0.66667,-0.770035 h -3.66666 c -0.36819,0 -0.66667,0.344757 -0.66667,0.770035 v 3.080048 c 0,0.425288 0.29848,0.770045 0.66667,0.770045 h 3.66666 c 0.36819,0 0.66667,-0.344757 0.66667,-0.770045 z"
           stroke="#d9d9d9"
           stroke-width="2.14946"
           stroke-miterlimit="8"
           fill="#d9d9d9"
           fill-rule="evenodd"
           id="path1101" />
        <path
           d="m 280.51225,64.165378 c 0,-0.423566 -0.29848,-0.766933 -0.66667,-0.766933 h -3.66666 c -0.36819,0 -0.66667,0.343367 -0.66667,0.766933 v 3.06764 c 0,0.423573 0.29848,0.766942 0.66667,0.766942 h 3.66666 c 0.36819,0 0.66667,-0.343369 0.66667,-0.766942 z"
           stroke="#d9d9d9"
           stroke-width="2.14513"
           stroke-miterlimit="8"
           fill="#d9d9d9"
           fill-rule="evenodd"
           id="path1103" />
        <path
           d="m 234.5,85.954509 c 0,-1.0125 0.821,-1.8333 1.833,-1.8333 h 72.334 c 1.012,0 1.833,0.8208 1.833,1.8333 v 7.3334 c 0,1.0125 -0.821,1.8333 -1.833,1.8333 h -72.334 c -1.012,0 -1.833,-0.8208 -1.833,-1.8333 z"
           stroke="#042433"
           stroke-width="0.666667"
           stroke-miterlimit="8"
           fill="none"
           fill-rule="evenodd"
           id="path1105" />
        <path
           d="M 250,87.872613 C 250,87.390682 249.6269,87 249.16665,87 h -3.3333 C 245.3731,87 245,87.390682 245,87.872613 v 3.490348 c 0,0.481935 0.3731,0.872613 0.83335,0.872613 h 3.3333 c 0.46025,0 0.83335,-0.390678 0.83335,-0.872613 z"
           stroke="#d9d9d9"
           stroke-width="2.04657"
           stroke-miterlimit="8"
           fill="#d9d9d9"
           fill-rule="evenodd"
           id="path1107" />
        <path
           d="M 258.37709,87.869023 C 258.37709,87.389075 258.00399,87 257.54374,87 h -3.3333 c -0.46025,0 -0.83335,0.389075 -0.83335,0.869023 v 3.47599 c 0,0.479952 0.3731,0.869023 0.83335,0.869023 h 3.3333 c 0.46025,0 0.83335,-0.389071 0.83335,-0.869023 z"
           stroke="#d9d9d9"
           stroke-width="2.04236"
           stroke-miterlimit="8"
           fill="#d9d9d9"
           fill-rule="evenodd"
           id="path1109" />
        <path
           d="m 266.81166,87.92375 c 0,-0.484169 -0.3731,-0.876664 -0.83335,-0.876664 h -3.3333 c -0.46025,0 -0.83335,0.392495 -0.83335,0.876664 v 3.506551 c 0,0.484172 0.3731,0.876664 0.83335,0.876664 h 3.3333 c 0.46025,0 0.83335,-0.392492 0.83335,-0.876664 z"
           stroke="#d9d9d9"
           stroke-width="2.05132"
           stroke-miterlimit="8"
           fill="#d9d9d9"
           fill-rule="evenodd"
           id="path1111" />
        <path
           d="M 274.95291,87.865994 C 274.95291,87.387718 274.57981,87 274.11956,87 h -3.3333 c -0.46025,0 -0.83335,0.387718 -0.83335,0.865994 v 3.463871 c 0,0.478279 0.3731,0.865994 0.83335,0.865994 h 3.3333 c 0.46025,0 0.83335,-0.387715 0.83335,-0.865994 z"
           stroke="#d9d9d9"
           stroke-width="2.0388"
           stroke-miterlimit="8"
           fill="#d9d9d9"
           fill-rule="evenodd"
           id="path1113" />
        <path
           d="M 242,87.876664 C 242,87.392495 241.6269,87 241.16665,87 h -3.3333 C 237.3731,87 237,87.392495 237,87.876664 v 3.506551 c 0,0.484172 0.3731,0.876664 0.83335,0.876664 h 3.3333 c 0.46025,0 0.83335,-0.392492 0.83335,-0.876664 z"
           stroke="#d9d9d9"
           stroke-width="2.05132"
           stroke-miterlimit="8"
           fill="#d9d9d9"
           fill-rule="evenodd"
           id="path1115" />
        <path
           d="M 283,87.871074 C 283,87.389993 282.6269,87 282.16665,87 h -3.3333 C 278.3731,87 278,87.389993 278,87.871074 v 3.484192 c 0,0.481085 0.3731,0.871075 0.83335,0.871075 h 3.3333 c 0.46025,0 0.83335,-0.38999 0.83335,-0.871075 z"
           stroke="#d9d9d9"
           stroke-width="2.04477"
           stroke-miterlimit="8"
           fill="#d9d9d9"
           fill-rule="evenodd"
           id="path1117" />
        <path
           d="M 291.42244,87.876297 C 291.42244,87.392331 291.04934,87 290.58909,87 h -3.3333 c -0.46025,0 -0.83335,0.392331 -0.83335,0.876297 v 3.505082 c 0,0.48397 0.3731,0.876297 0.83335,0.876297 h 3.3333 c 0.46025,0 0.83335,-0.392327 0.83335,-0.876297 z"
           stroke="#d9d9d9"
           stroke-width="2.05089"
           stroke-miterlimit="8"
           fill="#d9d9d9"
           fill-rule="evenodd"
           id="path1119" />
        <path
           d="M 299.65888,87.87371 C 299.65888,87.391173 299.28578,87 298.82553,87 h -3.3333 c -0.46025,0 -0.83335,0.391173 -0.83335,0.87371 v 3.494734 c 0,0.482541 0.3731,0.87371 0.83335,0.87371 h 3.3333 c 0.46025,0 0.83335,-0.391169 0.83335,-0.87371 z"
           stroke="#d9d9d9"
           stroke-width="2.04786"
           stroke-miterlimit="8"
           fill="#d9d9d9"
           fill-rule="evenodd"
           id="path1121" />
        <path
           d="M 307.94219,87.876664 C 307.94219,87.392495 307.56909,87 307.10884,87 h -3.3333 c -0.46025,0 -0.83335,0.392495 -0.83335,0.876664 v 3.506551 c 0,0.484172 0.3731,0.876664 0.83335,0.876664 h 3.3333 c 0.46025,0 0.83335,-0.392492 0.83335,-0.876664 z"
           stroke="#d9d9d9"
           stroke-width="2.05132"
           stroke-miterlimit="8"
           fill="#d9d9d9"
           fill-rule="evenodd"
           id="path1123" />
        <path
           d="m 234.17236,107.59667 c 0,-1.0125 0.821,-1.8333 1.833,-1.8333 h 72.334 c 1.012,0 1.833,0.8208 1.833,1.8333 v 7.3334 c 0,1.0125 -0.821,1.8333 -1.833,1.8333 h -72.334 c -1.012,0 -1.833,-0.8208 -1.833,-1.8333 z"
           stroke="#042433"
           stroke-width="0.666667"
           stroke-miterlimit="8"
           fill="none"
           fill-rule="evenodd"
           id="path1105-1" />
        <path
           d="m 249.67236,109.51477 c 0,-0.48193 -0.3731,-0.87261 -0.83335,-0.87261 h -3.3333 c -0.46025,0 -0.83335,0.39068 -0.83335,0.87261 v 3.49035 c 0,0.48194 0.3731,0.87261 0.83335,0.87261 h 3.3333 c 0.46025,0 0.83335,-0.39067 0.83335,-0.87261 z"
           stroke="#d9d9d9"
           stroke-width="2.04657"
           stroke-miterlimit="8"
           fill="#d9d9d9"
           fill-rule="evenodd"
           id="path1107-8" />
        <path
           d="m 258.04945,109.51118 c 0,-0.47994 -0.3731,-0.86902 -0.83335,-0.86902 h -3.3333 c -0.46025,0 -0.83335,0.38908 -0.83335,0.86902 v 3.47599 c 0,0.47996 0.3731,0.86903 0.83335,0.86903 h 3.3333 c 0.46025,0 0.83335,-0.38907 0.83335,-0.86903 z"
           stroke="#d9d9d9"
           stroke-width="2.04236"
           stroke-miterlimit="8"
           fill="#d9d9d9"
           fill-rule="evenodd"
           id="path1109-7" />
        <path
           d="m 266.48402,109.56591 c 0,-0.48417 -0.3731,-0.87666 -0.83335,-0.87666 h -3.3333 c -0.46025,0 -0.83335,0.39249 -0.83335,0.87666 v 3.50655 c 0,0.48417 0.3731,0.87667 0.83335,0.87667 h 3.3333 c 0.46025,0 0.83335,-0.3925 0.83335,-0.87667 z"
           stroke="#d9d9d9"
           stroke-width="2.05132"
           stroke-miterlimit="8"
           fill="#d9d9d9"
           fill-rule="evenodd"
           id="path1111-1" />
        <path
           d="m 274.62527,109.50816 c 0,-0.47828 -0.3731,-0.866 -0.83335,-0.866 h -3.3333 c -0.46025,0 -0.83335,0.38772 -0.83335,0.866 v 3.46387 c 0,0.47828 0.3731,0.86599 0.83335,0.86599 h 3.3333 c 0.46025,0 0.83335,-0.38771 0.83335,-0.86599 z"
           stroke="#d9d9d9"
           stroke-width="2.0388"
           stroke-miterlimit="8"
           fill="#d9d9d9"
           fill-rule="evenodd"
           id="path1113-8" />
        <path
           d="m 241.67236,109.51883 c 0,-0.48417 -0.3731,-0.87667 -0.83335,-0.87667 h -3.3333 c -0.46025,0 -0.83335,0.3925 -0.83335,0.87667 v 3.50655 c 0,0.48417 0.3731,0.87666 0.83335,0.87666 h 3.3333 c 0.46025,0 0.83335,-0.39249 0.83335,-0.87666 z"
           stroke="#d9d9d9"
           stroke-width="2.05132"
           stroke-miterlimit="8"
           fill="#d9d9d9"
           fill-rule="evenodd"
           id="path1115-9" />
        <path
           d="m 282.67236,109.51324 c 0,-0.48109 -0.3731,-0.87108 -0.83335,-0.87108 h -3.3333 c -0.46025,0 -0.83335,0.38999 -0.83335,0.87108 v 3.48419 c 0,0.48108 0.3731,0.87107 0.83335,0.87107 h 3.3333 c 0.46025,0 0.83335,-0.38999 0.83335,-0.87107 z"
           stroke="#d9d9d9"
           stroke-width="2.04477"
           stroke-miterlimit="8"
           fill="#d9d9d9"
           fill-rule="evenodd"
           id="path1117-8" />
        <path
           d="m 291.0948,109.51846 c 0,-0.48397 -0.3731,-0.8763 -0.83335,-0.8763 h -3.3333 c -0.46025,0 -0.83335,0.39233 -0.83335,0.8763 v 3.50508 c 0,0.48397 0.3731,0.8763 0.83335,0.8763 h 3.3333 c 0.46025,0 0.83335,-0.39233 0.83335,-0.8763 z"
           stroke="#d9d9d9"
           stroke-width="2.05089"
           stroke-miterlimit="8"
           fill="#d9d9d9"
           fill-rule="evenodd"
           id="path1119-5" />
        <path
           d="m 299.33124,109.51587 c 0,-0.48254 -0.3731,-0.87371 -0.83335,-0.87371 h -3.3333 c -0.46025,0 -0.83335,0.39117 -0.83335,0.87371 v 3.49473 c 0,0.48255 0.3731,0.87372 0.83335,0.87372 h 3.3333 c 0.46025,0 0.83335,-0.39117 0.83335,-0.87372 z"
           stroke="#d9d9d9"
           stroke-width="2.04786"
           stroke-miterlimit="8"
           fill="#d9d9d9"
           fill-rule="evenodd"
           id="path1121-1" />
        <path
           d="m 307.61455,109.51883 c 0,-0.48417 -0.3731,-0.87667 -0.83335,-0.87667 h -3.3333 c -0.46025,0 -0.83335,0.3925 -0.83335,0.87667 v 3.50655 c 0,0.48417 0.3731,0.87666 0.83335,0.87666 h 3.3333 c 0.46025,0 0.83335,-0.39249 0.83335,-0.87666 z"
           stroke="#d9d9d9"
           stroke-width="2.05132"
           stroke-miterlimit="8"
           fill="#d9d9d9"
           fill-rule="evenodd"
           id="path1123-2" />
        <text
           font-family="Aptos, Aptos_MSFontService, sans-serif"
           font-weight="400"
           font-size="7px"
           id="text1141"
           x="282.61227"
           y="68">…</text>
        <path
           d="m 253.13063,64.4246 c 0,-0.4609 -0.131,-1.4246 -0.874,-1.4246 -1.005,0 -2.126,1.9693 -2.126,3.5615 0,0.6564 0.204,1.4385 0.874,1.4385 1.019,0 2.126,-2.0112 2.126,-3.5754 z m -2.228,0.9637 c 0.116,-0.447 0.262,-1.0056 0.553,-1.5084 0.204,-0.3352 0.466,-0.7263 0.787,-0.7263 0.364,0 0.407,0.447 0.407,0.838 0,0.3492 -0.058,0.6983 -0.233,1.3967 z m 1.442,0.2234 c -0.073,0.3213 -0.233,0.9079 -0.496,1.4106 -0.262,0.4749 -0.538,0.8101 -0.844,0.8101 -0.248,0 -0.393,-0.1955 -0.393,-0.838 0,-0.2933 0.043,-0.6983 0.233,-1.3827 h 1.5"
           fill-rule="evenodd"
           id="path1143" />
        <path
           d="m 253.43593,66.603179 c 0,-0.08053 -0.005,-0.08053 -0.0543,-0.08053 -0.1079,0.177162 -0.26508,0.177162 -0.33368,0.177162 v 0.104678 c 0.0394,0 0.15208,0 0.24576,-0.08053 v 1.433373 c 0,0.09666 0,0.128848 -0.17213,0.128848 h -0.0637 v 0.104677 c 0.0292,0 0.24069,-0.0081 0.30436,-0.0081 0.0543,0 0.27006,0.0081 0.30936,0.0081 V 68.28618 h -0.0686 c -0.16705,0 -0.16705,-0.03219 -0.16705,-0.128848 v -1.55415"
           fill-rule="evenodd"
           id="path1145"
           style="stroke-width:0.623231" />
        <path
           d="m 269.4008,64.60474 c 0,-0.4609 -0.131,-1.4246 -0.874,-1.4246 -1.005,0 -2.126,1.9693 -2.126,3.5615 0,0.6564 0.204,1.4385 0.874,1.4385 1.019,0 2.126,-2.0112 2.126,-3.5754 z m -2.228,0.9637 c 0.116,-0.447 0.262,-1.0056 0.553,-1.5084 0.204,-0.3352 0.466,-0.7263 0.787,-0.7263 0.364,0 0.407,0.447 0.407,0.838 0,0.3492 -0.058,0.6983 -0.233,1.3967 z m 1.442,0.2234 c -0.073,0.3213 -0.233,0.9079 -0.496,1.4106 -0.262,0.4749 -0.538,0.8101 -0.844,0.8101 -0.248,0 -0.393,-0.1955 -0.393,-0.838 0,-0.2933 0.043,-0.6983 0.233,-1.3827 h 1.5"
           fill-rule="evenodd"
           id="path1143-6" />
        <text
           font-family="Aptos, Aptos_MSFontService, sans-serif"
           font-weight="400"
           font-size="7px"
           id="text1147"
           x="257.35425"
           y="68">…</text>
        <path
           d="m 277.87609,65.430734 c 0.0315,-0.15021 0.14777,-0.681715 0.51761,-0.681715 0.0324,0 0.15913,0 0.26492,0.08088 -0.14776,0.02308 -0.25356,0.173293 -0.25356,0.311961 0,0.09242 0.063,0.196463 0.20023,0.196463 0.11628,0 0.2859,-0.104046 0.2859,-0.335131 0,-0.30042 -0.30689,-0.381296 -0.48613,-0.381296 -0.30689,0 -0.49749,0.311961 -0.56132,0.439089 -0.12677,-0.381301 -0.41181,-0.439094 -0.57093,-0.439094 -0.53947,0 -0.84636,0.75105 -0.84636,0.889719 0,0.05779 0.0533,0.05779 0.0638,0.05779 0.042,0 0.0638,-0.01154 0.0743,-0.05779 0.17924,-0.612381 0.5176,-0.762591 0.69771,-0.762591 0.1058,0 0.28591,0.05779 0.28591,0.392836 0,0.17338 -0.0848,0.566217 -0.28591,1.37506 -0.0848,0.358214 -0.26404,0.60084 -0.49662,0.60084 -0.0324,0 -0.14863,0 -0.26492,-0.08087 0.13727,-0.02308 0.25356,-0.15021 0.25356,-0.311961 0,-0.15021 -0.11629,-0.196462 -0.20022,-0.196462 -0.15913,0 -0.28591,0.15021 -0.28591,0.335131 0,0.265709 0.26405,0.381295 0.49749,0.381295 0.33837,0 0.5281,-0.404465 0.54996,-0.439089 0.063,0.208004 0.25355,0.439089 0.57094,0.439089 0.53946,0 0.84635,-0.75105 0.84635,-0.889719 0,-0.05779 -0.0533,-0.05779 -0.0638,-0.05779 -0.0533,0 -0.0638,0.02308 -0.0743,0.05779 -0.16874,0.623923 -0.52897,0.762591 -0.69771,0.762591 -0.21159,0 -0.2964,-0.184833 -0.2964,-0.381295 0,-0.127128 0.0315,-0.254168 0.0953,-0.508423 l 0.18011,-0.797303"
           fill-rule="evenodd"
           id="path1149"
           style="stroke-width:0.874331" />
        <path
           d="m 279.52906,66.740618 c 0,-0.08053 -0.005,-0.08053 -0.0543,-0.08053 -0.1079,0.177162 -0.26508,0.177162 -0.33368,0.177162 v 0.104678 c 0.0394,0 0.15208,0 0.24576,-0.08053 v 1.433373 c 0,0.09666 0,0.128848 -0.17213,0.128848 h -0.0637 v 0.104677 c 0.0292,0 0.24069,-0.0081 0.30436,-0.0081 0.0543,0 0.27006,0.0081 0.30936,0.0081 v -0.104677 h -0.0686 c -0.16705,0 -0.16705,-0.03219 -0.16705,-0.128848 v -1.55415"
           fill-rule="evenodd"
           id="path1145-0"
           style="stroke-width:0.623231" />
        <path
           d="m 295.57644,64.003254 c 0,-0.423566 -0.29848,-0.766933 -0.66667,-0.766933 h -3.66666 c -0.36819,0 -0.66667,0.343367 -0.66667,0.766933 v 3.06764 c 0,0.423573 0.29848,0.766942 0.66667,0.766942 h 3.66666 c 0.36819,0 0.66667,-0.343369 0.66667,-0.766942 z"
           stroke="#d9d9d9"
           stroke-width="2.14513"
           stroke-miterlimit="8"
           fill="#d9d9d9"
           fill-rule="evenodd"
           id="path1103-9" />
        <path
           d="m 292.94028,65.268609 c 0.0315,-0.15021 0.14777,-0.681714 0.51761,-0.681714 0.0324,0 0.15913,0 0.26492,0.08088 -0.14776,0.02308 -0.25356,0.173293 -0.25356,0.311961 0,0.09242 0.063,0.196463 0.20023,0.196463 0.11628,0 0.2859,-0.104046 0.2859,-0.335131 0,-0.30042 -0.30689,-0.381296 -0.48613,-0.381296 -0.30689,0 -0.49749,0.311961 -0.56132,0.439089 -0.12677,-0.381301 -0.41181,-0.439094 -0.57093,-0.439094 -0.53947,0 -0.84636,0.75105 -0.84636,0.889719 0,0.05779 0.0533,0.05779 0.0638,0.05779 0.042,0 0.0638,-0.01154 0.0743,-0.05779 0.17924,-0.612381 0.5176,-0.762591 0.69771,-0.762591 0.1058,0 0.28591,0.05779 0.28591,0.392836 0,0.17338 -0.0848,0.566217 -0.28591,1.37506 -0.0848,0.358214 -0.26404,0.60084 -0.49662,0.60084 -0.0324,0 -0.14863,0 -0.26492,-0.08087 0.13727,-0.02308 0.25356,-0.15021 0.25356,-0.311961 0,-0.15021 -0.11629,-0.196462 -0.20022,-0.196462 -0.15913,0 -0.28591,0.15021 -0.28591,0.335131 0,0.26571 0.26405,0.381295 0.49749,0.381295 0.33837,0 0.5281,-0.404465 0.54996,-0.439089 0.063,0.208005 0.25355,0.439089 0.57094,0.439089 0.53946,0 0.84635,-0.75105 0.84635,-0.889719 0,-0.05779 -0.0533,-0.05779 -0.0638,-0.05779 -0.0533,0 -0.0638,0.02308 -0.0743,0.05779 -0.16874,0.623923 -0.52897,0.762591 -0.69771,0.762591 -0.21159,0 -0.2964,-0.184833 -0.2964,-0.381294 0,-0.127128 0.0315,-0.254169 0.0953,-0.508423 l 0.18011,-0.797303"
           fill-rule="evenodd"
           id="path1149-4"
           style="stroke-width:0.874331" />
        <g
           transform="translate(5.3952706,-40.690515)"
           id="g1485">
          <path
             d="m 264.08769,109.01381 c -0.0127,0.0418 -0.0319,0.1132 -0.0319,0.12513 0,0.0418 0.0383,0.0656 0.0766,0.0656 0.0381,0 0.0764,-0.0298 0.0829,-0.0477 0.0127,-0.0179 0.0319,-0.0834 0.0445,-0.12513 0.006,-0.0418 0.0319,-0.13721 0.0447,-0.19075 0.0128,-0.0477 0.0319,-0.0895 0.0382,-0.13722 0.0256,-0.0893 0.0256,-0.0953 0.0702,-0.16091 0.0702,-0.10141 0.18494,-0.22057 0.35716,-0.22057 0.12764,0 0.13392,0.0953 0.13392,0.14898 0,0.12528 -0.0956,0.35184 -0.13392,0.44116 -0.0255,0.0597 -0.0319,0.0775 -0.0319,0.11335 0,0.10722 0.0958,0.17881 0.21052,0.17881 0.22325,0 0.31885,-0.2862 0.31885,-0.32199 0,-0.0239 -0.0256,-0.0239 -0.0319,-0.0239 -0.0319,0 -0.0383,0.0119 -0.0447,0.0358 -0.0508,0.16705 -0.14663,0.25041 -0.23597,0.25041 -0.0445,0 -0.0573,-0.0298 -0.0573,-0.0714 0,-0.0477 0.0127,-0.0776 0.051,-0.16704 0.0254,-0.0655 0.12119,-0.28621 0.12119,-0.40537 0,-0.0298 0,-0.11931 -0.083,-0.17882 -0.0381,-0.0298 -0.10204,-0.0596 -0.21036,-0.0596 -0.19767,0 -0.31886,0.12512 -0.38904,0.21461 -0.0192,-0.17883 -0.17866,-0.21461 -0.29342,-0.21461 -0.18493,0 -0.30614,0.10738 -0.3763,0.19075 -0.0127,-0.14302 -0.14662,-0.19075 -0.23595,-0.19075 -0.0956,0 -0.14665,0.0656 -0.17851,0.11336 -0.051,0.0774 -0.0766,0.19671 -0.0766,0.20864 0,0.0238 0.0256,0.0238 0.0383,0.0238 0.0255,0 0.0319,-0.006 0.0445,-0.0597 0.0319,-0.12529 0.0766,-0.22655 0.16578,-0.22655 0.0575,0 0.0702,0.0478 0.0702,0.10126 0,0.0418 -0.0192,0.11932 -0.0319,0.17301 -0.0192,0.0595 -0.0383,0.14303 -0.051,0.19075 l -0.0702,0.26235 c -0.0127,0.0298 -0.0255,0.0834 -0.0255,0.0893 0,0.0418 0.0445,0.0656 0.0764,0.0656 0.0383,0 0.0766,-0.0298 0.0893,-0.0477 0.0127,-0.0179 0.0256,-0.0834 0.0382,-0.12513 0.0127,-0.0418 0.0383,-0.13721 0.051,-0.19074 0.0128,-0.0477 0.0255,-0.0895 0.0382,-0.13722 0.0192,-0.0893 0.0256,-0.10126 0.0893,-0.19074 0.0639,-0.0835 0.17221,-0.19076 0.338,-0.19076 0.12764,0 0.12764,0.10723 0.12764,0.14899 0,0.0477 -0.006,0.0776 -0.0383,0.19076 l -0.0893,0.35181"
             fill-rule="evenodd"
             id="path1483"
             style="stroke-width:0.156994" />
        </g>
        <g
           transform="matrix(0.16292341,0,0,0.13783645,248.71896,29.138459)"
           id="g11048">
          <path
             d="m 280.099,279.684 c -0.085,0.253 -0.169,0.708 -0.169,0.759 0,0.354 0.253,0.557 0.507,0.557 0.253,0 0.507,-0.253 0.591,-0.405 0.042,-0.152 0.169,-0.709 0.254,-1.063 0.084,-0.355 0.253,-1.165 0.338,-1.621 0.084,-0.405 0.169,-0.759 0.253,-1.164 0.127,-0.76 0.169,-0.912 0.592,-1.62 0.422,-0.709 1.098,-1.621 2.239,-1.621 0.845,0 0.845,0.912 0.845,1.216 0,1.063 -0.634,3.037 -0.845,3.797 -0.169,0.506 -0.253,0.658 -0.253,0.962 0,0.911 0.676,1.519 1.436,1.519 1.437,0 2.113,-2.43 2.113,-2.734 0,-0.203 -0.211,-0.203 -0.254,-0.203 -0.211,0 -0.211,0.102 -0.253,0.304 -0.338,1.418 -1.014,2.127 -1.563,2.127 -0.338,0 -0.381,-0.253 -0.381,-0.608 0,-0.405 0.085,-0.658 0.338,-1.418 0.169,-0.557 0.761,-2.43 0.761,-3.443 0,-1.721 -1.141,-2.025 -1.902,-2.025 -1.225,0 -2.07,0.911 -2.492,1.62 -0.085,-1.215 -0.972,-1.62 -1.564,-1.62 -0.634,0 -0.972,0.557 -1.183,0.962 -0.338,0.658 -0.507,1.671 -0.507,1.772 0,0.203 0.169,0.203 0.211,0.203 0.212,0 0.254,-0.051 0.338,-0.507 0.212,-1.063 0.507,-1.924 1.099,-1.924 0.38,0 0.465,0.405 0.465,0.861 0,0.355 -0.127,1.013 -0.212,1.468 -0.126,0.507 -0.253,1.216 -0.338,1.621 l -0.464,2.228"
             fill-rule="evenodd"
             id="path11046" />
        </g>
      </g>
    </g>
    <g
       transform="matrix(0.26458333,0,0,0.26458333,-10.373005,3.5411206)"
       id="g1139">
      <g
         transform="translate(-37.773935,19.46708)"
         id="g1331">
        <g
           id="g1237"
           transform="translate(26.21426,-32.426885)" />
      </g>
    </g>
  </g>
</svg>
