<?xml version="1.0" encoding="utf-8" standalone="no"?>
<!DOCTYPE svg PUBLIC "-//W3C//DTD SVG 1.1//EN"
  "http://www.w3.org/Graphics/SVG/1.1/DTD/svg11.dtd">
<svg xmlns:xlink="http://www.w3.org/1999/xlink" width="388.154844pt" height="143.080625pt" viewBox="0 0 388.154844 143.080625" xmlns="http://www.w3.org/2000/svg" version="1.1">
 <metadata>
  <rdf:RDF xmlns:dc="http://purl.org/dc/elements/1.1/" xmlns:cc="http://creativecommons.org/ns#" xmlns:rdf="http://www.w3.org/1999/02/22-rdf-syntax-ns#">
   <cc:Work>
    <dc:type rdf:resource="http://purl.org/dc/dcmitype/StillImage"/>
    <dc:date>2024-03-27T17:36:53.820070</dc:date>
    <dc:format>image/svg+xml</dc:format>
    <dc:creator>
     <cc:Agent>
      <dc:title>Matplotlib v3.8.2, https://matplotlib.org/</dc:title>
     </cc:Agent>
    </dc:creator>
   </cc:Work>
  </rdf:RDF>
 </metadata>
 <defs>
  <style type="text/css">*{stroke-linejoin: round; stroke-linecap: butt}</style>
 </defs>
 <g id="figure_1">
  <g id="patch_1">
   <path d="M 0 143.080625 
L 388.154844 143.080625 
L 388.154844 0 
L 0 0 
z
" style="fill: #ffffff"/>
  </g>
  <g id="axes_1">
   <g id="patch_2">
    <path d="M 46.154844 107.46 
L 198.336662 107.46 
L 198.336662 24.3 
L 46.154844 24.3 
z
" style="fill: #ffffff"/>
   </g>
   <g id="matplotlib.axis_1">
    <g id="xtick_1">
     <g id="line2d_1">
      <defs>
       <path id="m85b64d2fdf" d="M 0 0 
L 0 3.5 
" style="stroke: #000000; stroke-width: 1.5"/>
      </defs>
      <g>
       <use xlink:href="#m85b64d2fdf" x="50.248789" y="107.46" style="stroke: #000000; stroke-width: 1.5"/>
      </g>
     </g>
     <g id="text_1">
      <text style="font: 9px 'Arial', sans-serif; text-anchor: middle" x="50.248789" y="121.298594" transform="rotate(-0 50.248789 121.298594)">0</text>
     </g>
    </g>
    <g id="xtick_2">
     <g id="line2d_2">
      <g>
       <use xlink:href="#m85b64d2fdf" x="106.716996" y="107.46" style="stroke: #000000; stroke-width: 1.5"/>
      </g>
     </g>
     <g id="text_2">
      <text style="font: 9px 'Arial', sans-serif; text-anchor: middle" x="106.716996" y="121.298594" transform="rotate(-0 106.716996 121.298594)">100</text>
     </g>
    </g>
    <g id="xtick_3">
     <g id="line2d_3">
      <g>
       <use xlink:href="#m85b64d2fdf" x="163.185203" y="107.46" style="stroke: #000000; stroke-width: 1.5"/>
      </g>
     </g>
     <g id="text_3">
      <text style="font: 9px 'Arial', sans-serif; text-anchor: middle" x="163.185203" y="121.298594" transform="rotate(-0 163.185203 121.298594)">200</text>
     </g>
    </g>
    <g id="text_4">
     <text style="font: 9px 'Arial', sans-serif; text-anchor: middle" x="122.245753" y="134.008906" transform="rotate(-0 122.245753 134.008906)">Time steps</text>
    </g>
   </g>
   <g id="matplotlib.axis_2">
    <g id="ytick_1">
     <g id="line2d_4">
      <defs>
       <path id="m330a131db9" d="M 0 0 
L -3.5 0 
" style="stroke: #000000; stroke-width: 1.5"/>
      </defs>
      <g>
       <use xlink:href="#m330a131db9" x="46.154844" y="95.606504" style="stroke: #000000; stroke-width: 1.5"/>
      </g>
     </g>
     <g id="text_5">
      <text style="font: 9px 'Arial', sans-serif; text-anchor: end" x="39.154844" y="99.0258" transform="rotate(-0 39.154844 99.0258)">−10</text>
     </g>
    </g>
    <g id="ytick_2">
     <g id="line2d_5">
      <g>
       <use xlink:href="#m330a131db9" x="46.154844" y="57.384993" style="stroke: #000000; stroke-width: 1.5"/>
      </g>
     </g>
     <g id="text_6">
      <text style="font: 9px 'Arial', sans-serif; text-anchor: end" x="39.154844" y="60.80429" transform="rotate(-0 39.154844 60.80429)">−5</text>
     </g>
    </g>
    <g id="text_7">
     <text style="font: 9px 'Arial', sans-serif; text-anchor: middle" x="14.038594" y="65.88" transform="rotate(-90 14.038594 65.88)">log_prob</text>
    </g>
   </g>
   <g id="line2d_6">
    <path d="M 53.072199 28.08 
L 55.895609 34.5257 
L 64.365841 35.823314 
L 78.482892 35.907868 
L 106.716996 35.940708 
L 191.419307 35.938807 
" clip-path="url(#p47139cd8ba)" style="fill: none; stroke: #1f77b4; stroke-width: 1.5; stroke-linecap: square"/>
    <defs>
     <path id="md06b59bdbd" d="M 0 1.5 
C 0.397805 1.5 0.77937 1.341951 1.06066 1.06066 
C 1.341951 0.77937 1.5 0.397805 1.5 0 
C 1.5 -0.397805 1.341951 -0.77937 1.06066 -1.06066 
C 0.77937 -1.341951 0.397805 -1.5 0 -1.5 
C -0.397805 -1.5 -0.77937 -1.341951 -1.06066 -1.06066 
C -1.341951 -0.77937 -1.5 -0.397805 -1.5 0 
C -1.5 0.397805 -1.341951 0.77937 -1.06066 1.06066 
C -0.77937 1.341951 -0.397805 1.5 0 1.5 
z
" style="stroke: #1f77b4"/>
    </defs>
    <g clip-path="url(#p47139cd8ba)">
     <use xlink:href="#md06b59bdbd" x="53.072199" y="28.08" style="fill: #1f77b4; stroke: #1f77b4"/>
     <use xlink:href="#md06b59bdbd" x="55.895609" y="34.5257" style="fill: #1f77b4; stroke: #1f77b4"/>
     <use xlink:href="#md06b59bdbd" x="64.365841" y="35.823314" style="fill: #1f77b4; stroke: #1f77b4"/>
     <use xlink:href="#md06b59bdbd" x="78.482892" y="35.907868" style="fill: #1f77b4; stroke: #1f77b4"/>
     <use xlink:href="#md06b59bdbd" x="106.716996" y="35.940708" style="fill: #1f77b4; stroke: #1f77b4"/>
     <use xlink:href="#md06b59bdbd" x="191.419307" y="35.938807" style="fill: #1f77b4; stroke: #1f77b4"/>
    </g>
   </g>
   <g id="line2d_7">
    <path d="M 53.072199 95.652359 
L 55.895609 102.482421 
L 64.365841 103.624762 
L 78.482892 103.678979 
L 106.716996 103.669108 
L 191.419307 103.68 
" clip-path="url(#p47139cd8ba)" style="fill: none; stroke: #ff7f0e; stroke-width: 1.5; stroke-linecap: square"/>
    <defs>
     <path id="m476baeebec" d="M 0 1.5 
C 0.397805 1.5 0.77937 1.341951 1.06066 1.06066 
C 1.341951 0.77937 1.5 0.397805 1.5 0 
C 1.5 -0.397805 1.341951 -0.77937 1.06066 -1.06066 
C 0.77937 -1.341951 0.397805 -1.5 0 -1.5 
C -0.397805 -1.5 -0.77937 -1.341951 -1.06066 -1.06066 
C -1.341951 -0.77937 -1.5 -0.397805 -1.5 0 
C -1.5 0.397805 -1.341951 0.77937 -1.06066 1.06066 
C -0.77937 1.341951 -0.397805 1.5 0 1.5 
z
" style="stroke: #ff7f0e"/>
    </defs>
    <g clip-path="url(#p47139cd8ba)">
     <use xlink:href="#m476baeebec" x="53.072199" y="95.652359" style="fill: #ff7f0e; stroke: #ff7f0e"/>
     <use xlink:href="#m476baeebec" x="55.895609" y="102.482421" style="fill: #ff7f0e; stroke: #ff7f0e"/>
     <use xlink:href="#m476baeebec" x="64.365841" y="103.624762" style="fill: #ff7f0e; stroke: #ff7f0e"/>
     <use xlink:href="#m476baeebec" x="78.482892" y="103.678979" style="fill: #ff7f0e; stroke: #ff7f0e"/>
     <use xlink:href="#m476baeebec" x="106.716996" y="103.669108" style="fill: #ff7f0e; stroke: #ff7f0e"/>
     <use xlink:href="#m476baeebec" x="191.419307" y="103.68" style="fill: #ff7f0e; stroke: #ff7f0e"/>
    </g>
   </g>
   <g id="patch_3">
    <path d="M 46.154844 107.46 
L 46.154844 24.3 
" style="fill: none; stroke: #000000; stroke-width: 1.5; stroke-linejoin: miter; stroke-linecap: square"/>
   </g>
   <g id="patch_4">
    <path d="M 46.154844 107.46 
L 198.336662 107.46 
" style="fill: none; stroke: #000000; stroke-width: 1.5; stroke-linejoin: miter; stroke-linecap: square"/>
   </g>
  </g>
  <g id="axes_2">
   <g id="patch_5">
    <path d="M 228.773026 107.46 
L 380.954844 107.46 
L 380.954844 24.3 
L 228.773026 24.3 
z
" style="fill: #ffffff"/>
   </g>
   <g id="matplotlib.axis_3">
    <g id="xtick_4">
     <g id="line2d_8">
      <g>
       <use xlink:href="#m85b64d2fdf" x="232.866971" y="107.46" style="stroke: #000000; stroke-width: 1.5"/>
      </g>
     </g>
     <g id="text_8">
      <text style="font: 9px 'Arial', sans-serif; text-anchor: middle" x="232.866971" y="121.298594" transform="rotate(-0 232.866971 121.298594)">0</text>
     </g>
    </g>
    <g id="xtick_5">
     <g id="line2d_9">
      <g>
       <use xlink:href="#m85b64d2fdf" x="289.335178" y="107.46" style="stroke: #000000; stroke-width: 1.5"/>
      </g>
     </g>
     <g id="text_9">
      <text style="font: 9px 'Arial', sans-serif; text-anchor: middle" x="289.335178" y="121.298594" transform="rotate(-0 289.335178 121.298594)">100</text>
     </g>
    </g>
    <g id="xtick_6">
     <g id="line2d_10">
      <g>
       <use xlink:href="#m85b64d2fdf" x="345.803385" y="107.46" style="stroke: #000000; stroke-width: 1.5"/>
      </g>
     </g>
     <g id="text_10">
      <text style="font: 9px 'Arial', sans-serif; text-anchor: middle" x="345.803385" y="121.298594" transform="rotate(-0 345.803385 121.298594)">200</text>
     </g>
    </g>
    <g id="text_11">
     <text style="font: 9px 'Arial', sans-serif; text-anchor: middle" x="304.863935" y="134.008906" transform="rotate(-0 304.863935 134.008906)">Time steps</text>
    </g>
   </g>
   <g id="matplotlib.axis_4">
    <g id="ytick_3">
     <g id="line2d_11">
      <g>
       <use xlink:href="#m330a131db9" x="228.773026" y="104.298911" style="stroke: #000000; stroke-width: 1.5"/>
      </g>
     </g>
     <g id="text_12">
      <text style="font: 9px 'Arial', sans-serif; text-anchor: end" x="221.773026" y="107.718208" transform="rotate(-0 221.773026 107.718208)">0</text>
     </g>
    </g>
    <g id="ytick_4">
     <g id="line2d_12">
      <g>
       <use xlink:href="#m330a131db9" x="228.773026" y="81.913206" style="stroke: #000000; stroke-width: 1.5"/>
      </g>
     </g>
     <g id="text_13">
      <text style="font: 9px 'Arial', sans-serif; text-anchor: end" x="221.773026" y="85.332503" transform="rotate(-0 221.773026 85.332503)">10</text>
     </g>
    </g>
    <g id="ytick_5">
     <g id="line2d_13">
      <g>
       <use xlink:href="#m330a131db9" x="228.773026" y="59.527501" style="stroke: #000000; stroke-width: 1.5"/>
      </g>
     </g>
     <g id="text_14">
      <text style="font: 9px 'Arial', sans-serif; text-anchor: end" x="221.773026" y="62.946798" transform="rotate(-0 221.773026 62.946798)">20</text>
     </g>
    </g>
    <g id="ytick_6">
     <g id="line2d_14">
      <g>
       <use xlink:href="#m330a131db9" x="228.773026" y="37.141797" style="stroke: #000000; stroke-width: 1.5"/>
      </g>
     </g>
     <g id="text_15">
      <text style="font: 9px 'Arial', sans-serif; text-anchor: end" x="221.773026" y="40.561094" transform="rotate(-0 221.773026 40.561094)">30</text>
     </g>
    </g>
    <g id="text_16">
     <text style="font: 9px 'Arial', sans-serif; text-anchor: middle" x="204.448807" y="65.88" transform="rotate(-90 204.448807 65.88)">Time (s)</text>
    </g>
   </g>
   <g id="line2d_15">
    <path d="M 235.690381 103.68 
L 238.513791 102.350198 
L 246.984022 99.163288 
L 261.101074 93.822075 
L 289.335178 82.366465 
L 374.037488 49.402411 
" clip-path="url(#pe13f7fcb6e)" style="fill: none; stroke: #1f77b4; stroke-width: 1.5; stroke-linecap: square"/>
    <g clip-path="url(#pe13f7fcb6e)">
     <use xlink:href="#md06b59bdbd" x="235.690381" y="103.68" style="fill: #1f77b4; stroke: #1f77b4"/>
     <use xlink:href="#md06b59bdbd" x="238.513791" y="102.350198" style="fill: #1f77b4; stroke: #1f77b4"/>
     <use xlink:href="#md06b59bdbd" x="246.984022" y="99.163288" style="fill: #1f77b4; stroke: #1f77b4"/>
     <use xlink:href="#md06b59bdbd" x="261.101074" y="93.822075" style="fill: #1f77b4; stroke: #1f77b4"/>
     <use xlink:href="#md06b59bdbd" x="289.335178" y="82.366465" style="fill: #1f77b4; stroke: #1f77b4"/>
     <use xlink:href="#md06b59bdbd" x="374.037488" y="49.402411" style="fill: #1f77b4; stroke: #1f77b4"/>
    </g>
   </g>
   <g id="line2d_16">
    <path d="M 235.690381 103.040008 
L 238.513791 101.510617 
L 246.984022 96.962065 
L 261.101074 89.367544 
L 289.335178 74.16809 
L 374.037488 28.08 
" clip-path="url(#pe13f7fcb6e)" style="fill: none; stroke: #ff7f0e; stroke-width: 1.5; stroke-linecap: square"/>
    <g clip-path="url(#pe13f7fcb6e)">
     <use xlink:href="#m476baeebec" x="235.690381" y="103.040008" style="fill: #ff7f0e; stroke: #ff7f0e"/>
     <use xlink:href="#m476baeebec" x="238.513791" y="101.510617" style="fill: #ff7f0e; stroke: #ff7f0e"/>
     <use xlink:href="#m476baeebec" x="246.984022" y="96.962065" style="fill: #ff7f0e; stroke: #ff7f0e"/>
     <use xlink:href="#m476baeebec" x="261.101074" y="89.367544" style="fill: #ff7f0e; stroke: #ff7f0e"/>
     <use xlink:href="#m476baeebec" x="289.335178" y="74.16809" style="fill: #ff7f0e; stroke: #ff7f0e"/>
     <use xlink:href="#m476baeebec" x="374.037488" y="28.08" style="fill: #ff7f0e; stroke: #ff7f0e"/>
    </g>
   </g>
   <g id="patch_6">
    <path d="M 228.773026 107.46 
L 228.773026 24.3 
" style="fill: none; stroke: #000000; stroke-width: 1.5; stroke-linejoin: miter; stroke-linecap: square"/>
   </g>
   <g id="patch_7">
    <path d="M 228.773026 107.46 
L 380.954844 107.46 
" style="fill: none; stroke: #000000; stroke-width: 1.5; stroke-linejoin: miter; stroke-linecap: square"/>
   </g>
  </g>
  <g id="legend_1">
   <g id="line2d_17">
    <path d="M 132.336172 14.488594 
L 141.336172 14.488594 
L 150.336172 14.488594 
" style="fill: none; stroke: #1f77b4; stroke-width: 1.5; stroke-linecap: square"/>
    <g>
     <use xlink:href="#md06b59bdbd" x="141.336172" y="14.488594" style="fill: #1f77b4; stroke: #1f77b4"/>
    </g>
   </g>
   <g id="text_17">
    <text style="font: 9px 'Arial', sans-serif; text-anchor: start" x="157.536172" y="17.638594" transform="rotate(-0 157.536172 17.638594)">posterior</text>
   </g>
   <g id="line2d_18">
    <path d="M 215.918047 14.488594 
L 224.918047 14.488594 
L 233.918047 14.488594 
" style="fill: none; stroke: #ff7f0e; stroke-width: 1.5; stroke-linecap: square"/>
    <g>
     <use xlink:href="#m476baeebec" x="224.918047" y="14.488594" style="fill: #ff7f0e; stroke: #ff7f0e"/>
    </g>
   </g>
   <g id="text_18">
    <text style="font: 9px 'Arial', sans-serif; text-anchor: start" x="241.118047" y="17.638594" transform="rotate(-0 241.118047 17.638594)">likelihood</text>
   </g>
  </g>
 </g>
 <defs>
  <clipPath id="p47139cd8ba">
   <rect x="46.154844" y="24.3" width="152.181818" height="83.16"/>
  </clipPath>
  <clipPath id="pe13f7fcb6e">
   <rect x="228.773026" y="24.3" width="152.181818" height="83.16"/>
  </clipPath>
 </defs>
</svg>
