<?xml version="1.0" encoding="utf-8" standalone="no"?>
<!DOCTYPE svg PUBLIC "-//W3C//DTD SVG 1.1//EN"
  "http://www.w3.org/Graphics/SVG/1.1/DTD/svg11.dtd">
<svg xmlns:xlink="http://www.w3.org/1999/xlink" width="180.037969pt" height="138.341562pt" viewBox="0 0 180.037969 138.341562" xmlns="http://www.w3.org/2000/svg" version="1.1">
 <metadata>
  <rdf:RDF xmlns:dc="http://purl.org/dc/elements/1.1/" xmlns:cc="http://creativecommons.org/ns#" xmlns:rdf="http://www.w3.org/1999/02/22-rdf-syntax-ns#">
   <cc:Work>
    <dc:type rdf:resource="http://purl.org/dc/dcmitype/StillImage"/>
    <dc:date>2024-01-21T21:48:24.443824</dc:date>
    <dc:format>image/svg+xml</dc:format>
    <dc:creator>
     <cc:Agent>
      <dc:title>Matplotlib v3.8.2, https://matplotlib.org/</dc:title>
     </cc:Agent>
    </dc:creator>
   </cc:Work>
  </rdf:RDF>
 </metadata>
 <defs>
  <style type="text/css">*{stroke-linejoin: round; stroke-linecap: butt}</style>
 </defs>
 <g id="figure_1">
  <g id="patch_1">
   <path d="M 0 138.341562 
L 180.037969 138.341562 
L 180.037969 0 
L 0 0 
z
" style="fill: #ffffff"/>
  </g>
  <g id="axes_1">
   <g id="patch_2">
    <path d="M 7.633125 110.88 
L 175.033125 110.88 
L 175.033125 -0 
L 7.633125 -0 
z
" style="fill: #ffffff"/>
   </g>
   <g id="patch_3">
    <path d="M -20.914648 110.88 
L -18.698485 110.88 
L -18.698485 110.736691 
L -20.914648 110.736691 
z
" clip-path="url(#pafbd220e85)" style="fill: #1f77b4; fill-opacity: 0.75; stroke: #000000; stroke-width: 0.152182; stroke-linejoin: miter"/>
   </g>
   <g id="patch_4">
    <path d="M -18.698485 110.88 
L -16.482322 110.88 
L -16.482322 110.88 
L -18.698485 110.88 
z
" clip-path="url(#pafbd220e85)" style="fill: #1f77b4; fill-opacity: 0.75; stroke: #000000; stroke-width: 0.152182; stroke-linejoin: miter"/>
   </g>
   <g id="patch_5">
    <path d="M -16.482322 110.88 
L -14.266158 110.88 
L -14.266158 110.88 
L -16.482322 110.88 
z
" clip-path="url(#pafbd220e85)" style="fill: #1f77b4; fill-opacity: 0.75; stroke: #000000; stroke-width: 0.152182; stroke-linejoin: miter"/>
   </g>
   <g id="patch_6">
    <path d="M -14.266158 110.88 
L -12.049995 110.88 
L -12.049995 110.736691 
L -14.266158 110.736691 
z
" clip-path="url(#pafbd220e85)" style="fill: #1f77b4; fill-opacity: 0.75; stroke: #000000; stroke-width: 0.152182; stroke-linejoin: miter"/>
   </g>
   <g id="patch_7">
    <path d="M -12.049995 110.88 
L -9.833832 110.88 
L -9.833832 110.593381 
L -12.049995 110.593381 
z
" clip-path="url(#pafbd220e85)" style="fill: #1f77b4; fill-opacity: 0.75; stroke: #000000; stroke-width: 0.152182; stroke-linejoin: miter"/>
   </g>
   <g id="patch_8">
    <path d="M -9.833832 110.88 
L -7.617668 110.88 
L -7.617668 110.88 
L -9.833832 110.88 
z
" clip-path="url(#pafbd220e85)" style="fill: #1f77b4; fill-opacity: 0.75; stroke: #000000; stroke-width: 0.152182; stroke-linejoin: miter"/>
   </g>
   <g id="patch_9">
    <path d="M -7.617668 110.88 
L -5.401505 110.88 
L -5.401505 110.88 
L -7.617668 110.88 
z
" clip-path="url(#pafbd220e85)" style="fill: #1f77b4; fill-opacity: 0.75; stroke: #000000; stroke-width: 0.152182; stroke-linejoin: miter"/>
   </g>
   <g id="patch_10">
    <path d="M -5.401505 110.88 
L -3.185342 110.88 
L -3.185342 110.88 
L -5.401505 110.88 
z
" clip-path="url(#pafbd220e85)" style="fill: #1f77b4; fill-opacity: 0.75; stroke: #000000; stroke-width: 0.152182; stroke-linejoin: miter"/>
   </g>
   <g id="patch_11">
    <path d="M -3.185342 110.88 
L -0.969178 110.88 
L -0.969178 110.88 
L -3.185342 110.88 
z
" clip-path="url(#pafbd220e85)" style="fill: #1f77b4; fill-opacity: 0.75; stroke: #000000; stroke-width: 0.152182; stroke-linejoin: miter"/>
   </g>
   <g id="patch_12">
    <path d="M -0.969178 110.88 
L 1.246985 110.88 
L 1.246985 110.88 
L -0.969178 110.88 
z
" clip-path="url(#pafbd220e85)" style="fill: #1f77b4; fill-opacity: 0.75; stroke: #000000; stroke-width: 0.152182; stroke-linejoin: miter"/>
   </g>
   <g id="patch_13">
    <path d="M 1.246985 110.88 
L 3.463148 110.88 
L 3.463148 110.88 
L 1.246985 110.88 
z
" clip-path="url(#pafbd220e85)" style="fill: #1f77b4; fill-opacity: 0.75; stroke: #000000; stroke-width: 0.152182; stroke-linejoin: miter"/>
   </g>
   <g id="patch_14">
    <path d="M 3.463148 110.88 
L 5.679312 110.88 
L 5.679312 110.88 
L 3.463148 110.88 
z
" clip-path="url(#pafbd220e85)" style="fill: #1f77b4; fill-opacity: 0.75; stroke: #000000; stroke-width: 0.152182; stroke-linejoin: miter"/>
   </g>
   <g id="patch_15">
    <path d="M 5.679312 110.88 
L 7.895475 110.88 
L 7.895475 110.593381 
L 5.679312 110.593381 
z
" clip-path="url(#pafbd220e85)" style="fill: #1f77b4; fill-opacity: 0.75; stroke: #000000; stroke-width: 0.152182; stroke-linejoin: miter"/>
   </g>
   <g id="patch_16">
    <path d="M 7.895475 110.88 
L 10.111638 110.88 
L 10.111638 110.736691 
L 7.895475 110.736691 
z
" clip-path="url(#pafbd220e85)" style="fill: #1f77b4; fill-opacity: 0.75; stroke: #000000; stroke-width: 0.152182; stroke-linejoin: miter"/>
   </g>
   <g id="patch_17">
    <path d="M 10.111638 110.88 
L 12.327801 110.88 
L 12.327801 110.736691 
L 10.111638 110.736691 
z
" clip-path="url(#pafbd220e85)" style="fill: #1f77b4; fill-opacity: 0.75; stroke: #000000; stroke-width: 0.152182; stroke-linejoin: miter"/>
   </g>
   <g id="patch_18">
    <path d="M 12.327801 110.88 
L 14.543965 110.88 
L 14.543965 110.593381 
L 12.327801 110.593381 
z
" clip-path="url(#pafbd220e85)" style="fill: #1f77b4; fill-opacity: 0.75; stroke: #000000; stroke-width: 0.152182; stroke-linejoin: miter"/>
   </g>
   <g id="patch_19">
    <path d="M 14.543965 110.88 
L 16.760128 110.88 
L 16.760128 110.593381 
L 14.543965 110.593381 
z
" clip-path="url(#pafbd220e85)" style="fill: #1f77b4; fill-opacity: 0.75; stroke: #000000; stroke-width: 0.152182; stroke-linejoin: miter"/>
   </g>
   <g id="patch_20">
    <path d="M 16.760128 110.88 
L 18.976291 110.88 
L 18.976291 110.306762 
L 16.760128 110.306762 
z
" clip-path="url(#pafbd220e85)" style="fill: #1f77b4; fill-opacity: 0.75; stroke: #000000; stroke-width: 0.152182; stroke-linejoin: miter"/>
   </g>
   <g id="patch_21">
    <path d="M 18.976291 110.88 
L 21.192455 110.88 
L 21.192455 109.303597 
L 18.976291 109.303597 
z
" clip-path="url(#pafbd220e85)" style="fill: #1f77b4; fill-opacity: 0.75; stroke: #000000; stroke-width: 0.152182; stroke-linejoin: miter"/>
   </g>
   <g id="patch_22">
    <path d="M 21.192455 110.88 
L 23.408618 110.88 
L 23.408618 109.446906 
L 21.192455 109.446906 
z
" clip-path="url(#pafbd220e85)" style="fill: #1f77b4; fill-opacity: 0.75; stroke: #000000; stroke-width: 0.152182; stroke-linejoin: miter"/>
   </g>
   <g id="patch_23">
    <path d="M 23.408618 110.88 
L 25.624781 110.88 
L 25.624781 109.733525 
L 23.408618 109.733525 
z
" clip-path="url(#pafbd220e85)" style="fill: #1f77b4; fill-opacity: 0.75; stroke: #000000; stroke-width: 0.152182; stroke-linejoin: miter"/>
   </g>
   <g id="patch_24">
    <path d="M 25.624781 110.88 
L 27.840945 110.88 
L 27.840945 110.020144 
L 25.624781 110.020144 
z
" clip-path="url(#pafbd220e85)" style="fill: #1f77b4; fill-opacity: 0.75; stroke: #000000; stroke-width: 0.152182; stroke-linejoin: miter"/>
   </g>
   <g id="patch_25">
    <path d="M 27.840945 110.88 
L 30.057108 110.88 
L 30.057108 108.730359 
L 27.840945 108.730359 
z
" clip-path="url(#pafbd220e85)" style="fill: #1f77b4; fill-opacity: 0.75; stroke: #000000; stroke-width: 0.152182; stroke-linejoin: miter"/>
   </g>
   <g id="patch_26">
    <path d="M 30.057108 110.88 
L 32.273271 110.88 
L 32.273271 105.434244 
L 30.057108 105.434244 
z
" clip-path="url(#pafbd220e85)" style="fill: #1f77b4; fill-opacity: 0.75; stroke: #000000; stroke-width: 0.152182; stroke-linejoin: miter"/>
   </g>
   <g id="patch_27">
    <path d="M 32.273271 110.88 
L 34.489435 110.88 
L 34.489435 103.714531 
L 32.273271 103.714531 
z
" clip-path="url(#pafbd220e85)" style="fill: #1f77b4; fill-opacity: 0.75; stroke: #000000; stroke-width: 0.152182; stroke-linejoin: miter"/>
   </g>
   <g id="patch_28">
    <path d="M 34.489435 110.88 
L 36.705598 110.88 
L 36.705598 98.698703 
L 34.489435 98.698703 
z
" clip-path="url(#pafbd220e85)" style="fill: #1f77b4; fill-opacity: 0.75; stroke: #000000; stroke-width: 0.152182; stroke-linejoin: miter"/>
   </g>
   <g id="patch_29">
    <path d="M 36.705598 110.88 
L 38.921761 110.88 
L 38.921761 93.826184 
L 36.705598 93.826184 
z
" clip-path="url(#pafbd220e85)" style="fill: #1f77b4; fill-opacity: 0.75; stroke: #000000; stroke-width: 0.152182; stroke-linejoin: miter"/>
   </g>
   <g id="patch_30">
    <path d="M 38.921761 110.88 
L 41.137925 110.88 
L 41.137925 98.842012 
L 38.921761 98.842012 
z
" clip-path="url(#pafbd220e85)" style="fill: #1f77b4; fill-opacity: 0.75; stroke: #000000; stroke-width: 0.152182; stroke-linejoin: miter"/>
   </g>
   <g id="patch_31">
    <path d="M 41.137925 110.88 
L 43.354088 110.88 
L 43.354088 104.00115 
L 41.137925 104.00115 
z
" clip-path="url(#pafbd220e85)" style="fill: #1f77b4; fill-opacity: 0.75; stroke: #000000; stroke-width: 0.152182; stroke-linejoin: miter"/>
   </g>
   <g id="patch_32">
    <path d="M 43.354088 110.88 
L 45.570251 110.88 
L 45.570251 108.873669 
L 43.354088 108.873669 
z
" clip-path="url(#pafbd220e85)" style="fill: #1f77b4; fill-opacity: 0.75; stroke: #000000; stroke-width: 0.152182; stroke-linejoin: miter"/>
   </g>
   <g id="patch_33">
    <path d="M 45.570251 110.88 
L 47.786415 110.88 
L 47.786415 110.163453 
L 45.570251 110.163453 
z
" clip-path="url(#pafbd220e85)" style="fill: #1f77b4; fill-opacity: 0.75; stroke: #000000; stroke-width: 0.152182; stroke-linejoin: miter"/>
   </g>
   <g id="patch_34">
    <path d="M 47.786415 110.88 
L 50.002578 110.88 
L 50.002578 110.88 
L 47.786415 110.88 
z
" clip-path="url(#pafbd220e85)" style="fill: #1f77b4; fill-opacity: 0.75; stroke: #000000; stroke-width: 0.152182; stroke-linejoin: miter"/>
   </g>
   <g id="patch_35">
    <path d="M 50.002578 110.88 
L 52.218741 110.88 
L 52.218741 110.020144 
L 50.002578 110.020144 
z
" clip-path="url(#pafbd220e85)" style="fill: #1f77b4; fill-opacity: 0.75; stroke: #000000; stroke-width: 0.152182; stroke-linejoin: miter"/>
   </g>
   <g id="patch_36">
    <path d="M 52.218741 110.88 
L 54.434904 110.88 
L 54.434904 110.450072 
L 52.218741 110.450072 
z
" clip-path="url(#pafbd220e85)" style="fill: #1f77b4; fill-opacity: 0.75; stroke: #000000; stroke-width: 0.152182; stroke-linejoin: miter"/>
   </g>
   <g id="patch_37">
    <path d="M 54.434904 110.88 
L 56.651068 110.88 
L 56.651068 110.163453 
L 54.434904 110.163453 
z
" clip-path="url(#pafbd220e85)" style="fill: #1f77b4; fill-opacity: 0.75; stroke: #000000; stroke-width: 0.152182; stroke-linejoin: miter"/>
   </g>
   <g id="patch_38">
    <path d="M 56.651068 110.88 
L 58.867231 110.88 
L 58.867231 107.153956 
L 56.651068 107.153956 
z
" clip-path="url(#pafbd220e85)" style="fill: #1f77b4; fill-opacity: 0.75; stroke: #000000; stroke-width: 0.152182; stroke-linejoin: miter"/>
   </g>
   <g id="patch_39">
    <path d="M 58.867231 110.88 
L 61.083394 110.88 
L 61.083394 101.134962 
L 58.867231 101.134962 
z
" clip-path="url(#pafbd220e85)" style="fill: #1f77b4; fill-opacity: 0.75; stroke: #000000; stroke-width: 0.152182; stroke-linejoin: miter"/>
   </g>
   <g id="patch_40">
    <path d="M 61.083394 110.88 
L 63.299558 110.88 
L 63.299558 80.498412 
L 61.083394 80.498412 
z
" clip-path="url(#pafbd220e85)" style="fill: #1f77b4; fill-opacity: 0.75; stroke: #000000; stroke-width: 0.152182; stroke-linejoin: miter"/>
   </g>
   <g id="patch_41">
    <path d="M 63.299558 110.88 
L 65.515721 110.88 
L 65.515721 63.731214 
L 63.299558 63.731214 
z
" clip-path="url(#pafbd220e85)" style="fill: #1f77b4; fill-opacity: 0.75; stroke: #000000; stroke-width: 0.152182; stroke-linejoin: miter"/>
   </g>
   <g id="patch_42">
    <path d="M 65.515721 110.88 
L 67.731884 110.88 
L 67.731884 65.594236 
L 65.515721 65.594236 
z
" clip-path="url(#pafbd220e85)" style="fill: #1f77b4; fill-opacity: 0.75; stroke: #000000; stroke-width: 0.152182; stroke-linejoin: miter"/>
   </g>
   <g id="patch_43">
    <path d="M 67.731884 110.88 
L 69.948048 110.88 
L 69.948048 97.695537 
L 67.731884 97.695537 
z
" clip-path="url(#pafbd220e85)" style="fill: #1f77b4; fill-opacity: 0.75; stroke: #000000; stroke-width: 0.152182; stroke-linejoin: miter"/>
   </g>
   <g id="patch_44">
    <path d="M 69.948048 110.88 
L 72.164211 110.88 
L 72.164211 108.873669 
L 69.948048 108.873669 
z
" clip-path="url(#pafbd220e85)" style="fill: #1f77b4; fill-opacity: 0.75; stroke: #000000; stroke-width: 0.152182; stroke-linejoin: miter"/>
   </g>
   <g id="patch_45">
    <path d="M 72.164211 110.88 
L 74.380374 110.88 
L 74.380374 110.593381 
L 72.164211 110.593381 
z
" clip-path="url(#pafbd220e85)" style="fill: #1f77b4; fill-opacity: 0.75; stroke: #000000; stroke-width: 0.152182; stroke-linejoin: miter"/>
   </g>
   <g id="patch_46">
    <path d="M 74.380374 110.88 
L 76.596538 110.88 
L 76.596538 110.306762 
L 74.380374 110.306762 
z
" clip-path="url(#pafbd220e85)" style="fill: #1f77b4; fill-opacity: 0.75; stroke: #000000; stroke-width: 0.152182; stroke-linejoin: miter"/>
   </g>
   <g id="patch_47">
    <path d="M 76.596538 110.88 
L 78.812701 110.88 
L 78.812701 110.88 
L 76.596538 110.88 
z
" clip-path="url(#pafbd220e85)" style="fill: #1f77b4; fill-opacity: 0.75; stroke: #000000; stroke-width: 0.152182; stroke-linejoin: miter"/>
   </g>
   <g id="patch_48">
    <path d="M 78.812701 110.88 
L 81.028864 110.88 
L 81.028864 110.736691 
L 78.812701 110.736691 
z
" clip-path="url(#pafbd220e85)" style="fill: #1f77b4; fill-opacity: 0.75; stroke: #000000; stroke-width: 0.152182; stroke-linejoin: miter"/>
   </g>
   <g id="patch_49">
    <path d="M 81.028864 110.88 
L 83.245028 110.88 
L 83.245028 110.736691 
L 81.028864 110.736691 
z
" clip-path="url(#pafbd220e85)" style="fill: #1f77b4; fill-opacity: 0.75; stroke: #000000; stroke-width: 0.152182; stroke-linejoin: miter"/>
   </g>
   <g id="patch_50">
    <path d="M 83.245028 110.88 
L 85.461191 110.88 
L 85.461191 109.733525 
L 83.245028 109.733525 
z
" clip-path="url(#pafbd220e85)" style="fill: #1f77b4; fill-opacity: 0.75; stroke: #000000; stroke-width: 0.152182; stroke-linejoin: miter"/>
   </g>
   <g id="patch_51">
    <path d="M 85.461191 110.88 
L 87.677354 110.88 
L 87.677354 99.27194 
L 85.461191 99.27194 
z
" clip-path="url(#pafbd220e85)" style="fill: #1f77b4; fill-opacity: 0.75; stroke: #000000; stroke-width: 0.152182; stroke-linejoin: miter"/>
   </g>
   <g id="patch_52">
    <path d="M 87.677354 110.88 
L 89.893518 110.88 
L 89.893518 55.132652 
L 87.677354 55.132652 
z
" clip-path="url(#pafbd220e85)" style="fill: #1f77b4; fill-opacity: 0.75; stroke: #000000; stroke-width: 0.152182; stroke-linejoin: miter"/>
   </g>
   <g id="patch_53">
    <path d="M 89.893518 110.88 
L 92.109681 110.88 
L 92.109681 13.716241 
L 89.893518 13.716241 
z
" clip-path="url(#pafbd220e85)" style="fill: #1f77b4; fill-opacity: 0.75; stroke: #000000; stroke-width: 0.152182; stroke-linejoin: miter"/>
   </g>
   <g id="patch_54">
    <path d="M 92.109681 110.88 
L 94.325844 110.88 
L 94.325844 45.244304 
L 92.109681 45.244304 
z
" clip-path="url(#pafbd220e85)" style="fill: #1f77b4; fill-opacity: 0.75; stroke: #000000; stroke-width: 0.152182; stroke-linejoin: miter"/>
   </g>
   <g id="patch_55">
    <path d="M 94.325844 110.88 
L 96.542007 110.88 
L 96.542007 93.539565 
L 94.325844 93.539565 
z
" clip-path="url(#pafbd220e85)" style="fill: #1f77b4; fill-opacity: 0.75; stroke: #000000; stroke-width: 0.152182; stroke-linejoin: miter"/>
   </g>
   <g id="patch_56">
    <path d="M 96.542007 110.88 
L 98.758171 110.88 
L 98.758171 107.727194 
L 96.542007 107.727194 
z
" clip-path="url(#pafbd220e85)" style="fill: #1f77b4; fill-opacity: 0.75; stroke: #000000; stroke-width: 0.152182; stroke-linejoin: miter"/>
   </g>
   <g id="patch_57">
    <path d="M 98.758171 110.88 
L 100.974334 110.88 
L 100.974334 110.736691 
L 98.758171 110.736691 
z
" clip-path="url(#pafbd220e85)" style="fill: #1f77b4; fill-opacity: 0.75; stroke: #000000; stroke-width: 0.152182; stroke-linejoin: miter"/>
   </g>
   <g id="patch_58">
    <path d="M 100.974334 110.88 
L 103.190497 110.88 
L 103.190497 110.88 
L 100.974334 110.88 
z
" clip-path="url(#pafbd220e85)" style="fill: #1f77b4; fill-opacity: 0.75; stroke: #000000; stroke-width: 0.152182; stroke-linejoin: miter"/>
   </g>
   <g id="patch_59">
    <path d="M 103.190497 110.88 
L 105.406661 110.88 
L 105.406661 110.88 
L 103.190497 110.88 
z
" clip-path="url(#pafbd220e85)" style="fill: #1f77b4; fill-opacity: 0.75; stroke: #000000; stroke-width: 0.152182; stroke-linejoin: miter"/>
   </g>
   <g id="patch_60">
    <path d="M 105.406661 110.88 
L 107.622824 110.88 
L 107.622824 110.88 
L 105.406661 110.88 
z
" clip-path="url(#pafbd220e85)" style="fill: #1f77b4; fill-opacity: 0.75; stroke: #000000; stroke-width: 0.152182; stroke-linejoin: miter"/>
   </g>
   <g id="patch_61">
    <path d="M 107.622824 110.88 
L 109.838987 110.88 
L 109.838987 110.593381 
L 107.622824 110.593381 
z
" clip-path="url(#pafbd220e85)" style="fill: #1f77b4; fill-opacity: 0.75; stroke: #000000; stroke-width: 0.152182; stroke-linejoin: miter"/>
   </g>
   <g id="patch_62">
    <path d="M 109.838987 110.88 
L 112.055151 110.88 
L 112.055151 109.303597 
L 109.838987 109.303597 
z
" clip-path="url(#pafbd220e85)" style="fill: #1f77b4; fill-opacity: 0.75; stroke: #000000; stroke-width: 0.152182; stroke-linejoin: miter"/>
   </g>
   <g id="patch_63">
    <path d="M 112.055151 110.88 
L 114.271314 110.88 
L 114.271314 96.405753 
L 112.055151 96.405753 
z
" clip-path="url(#pafbd220e85)" style="fill: #1f77b4; fill-opacity: 0.75; stroke: #000000; stroke-width: 0.152182; stroke-linejoin: miter"/>
   </g>
   <g id="patch_64">
    <path d="M 114.271314 110.88 
L 116.487477 110.88 
L 116.487477 72.616396 
L 114.271314 72.616396 
z
" clip-path="url(#pafbd220e85)" style="fill: #1f77b4; fill-opacity: 0.75; stroke: #000000; stroke-width: 0.152182; stroke-linejoin: miter"/>
   </g>
   <g id="patch_65">
    <path d="M 116.487477 110.88 
L 118.703641 110.88 
L 118.703641 54.989342 
L 116.487477 54.989342 
z
" clip-path="url(#pafbd220e85)" style="fill: #1f77b4; fill-opacity: 0.75; stroke: #000000; stroke-width: 0.152182; stroke-linejoin: miter"/>
   </g>
   <g id="patch_66">
    <path d="M 118.703641 110.88 
L 120.919804 110.88 
L 120.919804 71.899849 
L 118.703641 71.899849 
z
" clip-path="url(#pafbd220e85)" style="fill: #1f77b4; fill-opacity: 0.75; stroke: #000000; stroke-width: 0.152182; stroke-linejoin: miter"/>
   </g>
   <g id="patch_67">
    <path d="M 120.919804 110.88 
L 123.135967 110.88 
L 123.135967 99.988487 
L 120.919804 99.988487 
z
" clip-path="url(#pafbd220e85)" style="fill: #1f77b4; fill-opacity: 0.75; stroke: #000000; stroke-width: 0.152182; stroke-linejoin: miter"/>
   </g>
   <g id="patch_68">
    <path d="M 123.135967 110.88 
L 125.352131 110.88 
L 125.352131 108.58705 
L 123.135967 108.58705 
z
" clip-path="url(#pafbd220e85)" style="fill: #1f77b4; fill-opacity: 0.75; stroke: #000000; stroke-width: 0.152182; stroke-linejoin: miter"/>
   </g>
   <g id="patch_69">
    <path d="M 125.352131 110.88 
L 127.568294 110.88 
L 127.568294 109.876834 
L 125.352131 109.876834 
z
" clip-path="url(#pafbd220e85)" style="fill: #1f77b4; fill-opacity: 0.75; stroke: #000000; stroke-width: 0.152182; stroke-linejoin: miter"/>
   </g>
   <g id="patch_70">
    <path d="M 127.568294 110.88 
L 129.784457 110.88 
L 129.784457 110.163453 
L 127.568294 110.163453 
z
" clip-path="url(#pafbd220e85)" style="fill: #1f77b4; fill-opacity: 0.75; stroke: #000000; stroke-width: 0.152182; stroke-linejoin: miter"/>
   </g>
   <g id="patch_71">
    <path d="M 129.784457 110.88 
L 132.00062 110.88 
L 132.00062 110.306762 
L 129.784457 110.306762 
z
" clip-path="url(#pafbd220e85)" style="fill: #1f77b4; fill-opacity: 0.75; stroke: #000000; stroke-width: 0.152182; stroke-linejoin: miter"/>
   </g>
   <g id="patch_72">
    <path d="M 132.00062 110.88 
L 134.216784 110.88 
L 134.216784 110.736691 
L 132.00062 110.736691 
z
" clip-path="url(#pafbd220e85)" style="fill: #1f77b4; fill-opacity: 0.75; stroke: #000000; stroke-width: 0.152182; stroke-linejoin: miter"/>
   </g>
   <g id="patch_73">
    <path d="M 134.216784 110.88 
L 136.432947 110.88 
L 136.432947 109.446906 
L 134.216784 109.446906 
z
" clip-path="url(#pafbd220e85)" style="fill: #1f77b4; fill-opacity: 0.75; stroke: #000000; stroke-width: 0.152182; stroke-linejoin: miter"/>
   </g>
   <g id="patch_74">
    <path d="M 136.432947 110.88 
L 138.64911 110.88 
L 138.64911 107.010647 
L 136.432947 107.010647 
z
" clip-path="url(#pafbd220e85)" style="fill: #1f77b4; fill-opacity: 0.75; stroke: #000000; stroke-width: 0.152182; stroke-linejoin: miter"/>
   </g>
   <g id="patch_75">
    <path d="M 138.64911 110.88 
L 140.865274 110.88 
L 140.865274 103.85784 
L 138.64911 103.85784 
z
" clip-path="url(#pafbd220e85)" style="fill: #1f77b4; fill-opacity: 0.75; stroke: #000000; stroke-width: 0.152182; stroke-linejoin: miter"/>
   </g>
   <g id="patch_76">
    <path d="M 140.865274 110.88 
L 143.081437 110.88 
L 143.081437 98.842012 
L 140.865274 98.842012 
z
" clip-path="url(#pafbd220e85)" style="fill: #1f77b4; fill-opacity: 0.75; stroke: #000000; stroke-width: 0.152182; stroke-linejoin: miter"/>
   </g>
   <g id="patch_77">
    <path d="M 143.081437 110.88 
L 145.2976 110.88 
L 145.2976 94.112803 
L 143.081437 94.112803 
z
" clip-path="url(#pafbd220e85)" style="fill: #1f77b4; fill-opacity: 0.75; stroke: #000000; stroke-width: 0.152182; stroke-linejoin: miter"/>
   </g>
   <g id="patch_78">
    <path d="M 145.2976 110.88 
L 147.513764 110.88 
L 147.513764 99.27194 
L 145.2976 99.27194 
z
" clip-path="url(#pafbd220e85)" style="fill: #1f77b4; fill-opacity: 0.75; stroke: #000000; stroke-width: 0.152182; stroke-linejoin: miter"/>
   </g>
   <g id="patch_79">
    <path d="M 147.513764 110.88 
L 149.729927 110.88 
L 149.729927 106.724028 
L 147.513764 106.724028 
z
" clip-path="url(#pafbd220e85)" style="fill: #1f77b4; fill-opacity: 0.75; stroke: #000000; stroke-width: 0.152182; stroke-linejoin: miter"/>
   </g>
   <g id="patch_80">
    <path d="M 149.729927 110.88 
L 151.94609 110.88 
L 151.94609 107.153956 
L 149.729927 107.153956 
z
" clip-path="url(#pafbd220e85)" style="fill: #1f77b4; fill-opacity: 0.75; stroke: #000000; stroke-width: 0.152182; stroke-linejoin: miter"/>
   </g>
   <g id="patch_81">
    <path d="M 151.94609 110.88 
L 154.162254 110.88 
L 154.162254 108.58705 
L 151.94609 108.58705 
z
" clip-path="url(#pafbd220e85)" style="fill: #1f77b4; fill-opacity: 0.75; stroke: #000000; stroke-width: 0.152182; stroke-linejoin: miter"/>
   </g>
   <g id="patch_82">
    <path d="M 154.162254 110.88 
L 156.378417 110.88 
L 156.378417 109.160287 
L 154.162254 109.160287 
z
" clip-path="url(#pafbd220e85)" style="fill: #1f77b4; fill-opacity: 0.75; stroke: #000000; stroke-width: 0.152182; stroke-linejoin: miter"/>
   </g>
   <g id="patch_83">
    <path d="M 156.378417 110.88 
L 158.59458 110.88 
L 158.59458 109.446906 
L 156.378417 109.446906 
z
" clip-path="url(#pafbd220e85)" style="fill: #1f77b4; fill-opacity: 0.75; stroke: #000000; stroke-width: 0.152182; stroke-linejoin: miter"/>
   </g>
   <g id="patch_84">
    <path d="M 158.59458 110.88 
L 160.810744 110.88 
L 160.810744 109.446906 
L 158.59458 109.446906 
z
" clip-path="url(#pafbd220e85)" style="fill: #1f77b4; fill-opacity: 0.75; stroke: #000000; stroke-width: 0.152182; stroke-linejoin: miter"/>
   </g>
   <g id="patch_85">
    <path d="M 160.810744 110.88 
L 163.026907 110.88 
L 163.026907 109.876834 
L 160.810744 109.876834 
z
" clip-path="url(#pafbd220e85)" style="fill: #1f77b4; fill-opacity: 0.75; stroke: #000000; stroke-width: 0.152182; stroke-linejoin: miter"/>
   </g>
   <g id="patch_86">
    <path d="M 163.026907 110.88 
L 165.24307 110.88 
L 165.24307 110.306762 
L 163.026907 110.306762 
z
" clip-path="url(#pafbd220e85)" style="fill: #1f77b4; fill-opacity: 0.75; stroke: #000000; stroke-width: 0.152182; stroke-linejoin: miter"/>
   </g>
   <g id="patch_87">
    <path d="M 165.24307 110.88 
L 167.459234 110.88 
L 167.459234 110.306762 
L 165.24307 110.306762 
z
" clip-path="url(#pafbd220e85)" style="fill: #1f77b4; fill-opacity: 0.75; stroke: #000000; stroke-width: 0.152182; stroke-linejoin: miter"/>
   </g>
   <g id="patch_88">
    <path d="M 167.459234 110.88 
L 169.675397 110.88 
L 169.675397 110.593381 
L 167.459234 110.593381 
z
" clip-path="url(#pafbd220e85)" style="fill: #1f77b4; fill-opacity: 0.75; stroke: #000000; stroke-width: 0.152182; stroke-linejoin: miter"/>
   </g>
   <g id="patch_89">
    <path d="M 169.675397 110.88 
L 171.89156 110.88 
L 171.89156 110.593381 
L 169.675397 110.593381 
z
" clip-path="url(#pafbd220e85)" style="fill: #1f77b4; fill-opacity: 0.75; stroke: #000000; stroke-width: 0.152182; stroke-linejoin: miter"/>
   </g>
   <g id="patch_90">
    <path d="M 171.89156 110.88 
L 174.107723 110.88 
L 174.107723 110.450072 
L 171.89156 110.450072 
z
" clip-path="url(#pafbd220e85)" style="fill: #1f77b4; fill-opacity: 0.75; stroke: #000000; stroke-width: 0.152182; stroke-linejoin: miter"/>
   </g>
   <g id="patch_91">
    <path d="M 174.107723 110.88 
L 176.323887 110.88 
L 176.323887 110.736691 
L 174.107723 110.736691 
z
" clip-path="url(#pafbd220e85)" style="fill: #1f77b4; fill-opacity: 0.75; stroke: #000000; stroke-width: 0.152182; stroke-linejoin: miter"/>
   </g>
   <g id="patch_92">
    <path d="M 176.323887 110.88 
L 178.54005 110.88 
L 178.54005 110.593381 
L 176.323887 110.593381 
z
" clip-path="url(#pafbd220e85)" style="fill: #1f77b4; fill-opacity: 0.75; stroke: #000000; stroke-width: 0.152182; stroke-linejoin: miter"/>
   </g>
   <g id="patch_93">
    <path d="M 178.54005 110.88 
L 180.756213 110.88 
L 180.756213 110.736691 
L 178.54005 110.736691 
z
" clip-path="url(#pafbd220e85)" style="fill: #1f77b4; fill-opacity: 0.75; stroke: #000000; stroke-width: 0.152182; stroke-linejoin: miter"/>
   </g>
   <g id="patch_94">
    <path d="M 180.756213 110.88 
L 182.972377 110.88 
L 182.972377 110.736691 
L 180.756213 110.736691 
z
" clip-path="url(#pafbd220e85)" style="fill: #1f77b4; fill-opacity: 0.75; stroke: #000000; stroke-width: 0.152182; stroke-linejoin: miter"/>
   </g>
   <g id="patch_95">
    <path d="M 182.972377 110.88 
L 185.18854 110.88 
L 185.18854 110.88 
L 182.972377 110.88 
z
" clip-path="url(#pafbd220e85)" style="fill: #1f77b4; fill-opacity: 0.75; stroke: #000000; stroke-width: 0.152182; stroke-linejoin: miter"/>
   </g>
   <g id="patch_96">
    <path d="M 185.18854 110.88 
L 187.404703 110.88 
L 187.404703 110.88 
L 185.18854 110.88 
z
" clip-path="url(#pafbd220e85)" style="fill: #1f77b4; fill-opacity: 0.75; stroke: #000000; stroke-width: 0.152182; stroke-linejoin: miter"/>
   </g>
   <g id="patch_97">
    <path d="M 187.404703 110.88 
L 189.620867 110.88 
L 189.620867 110.593381 
L 187.404703 110.593381 
z
" clip-path="url(#pafbd220e85)" style="fill: #1f77b4; fill-opacity: 0.75; stroke: #000000; stroke-width: 0.152182; stroke-linejoin: miter"/>
   </g>
   <g id="patch_98">
    <path d="M 189.620867 110.88 
L 191.83703 110.88 
L 191.83703 110.88 
L 189.620867 110.88 
z
" clip-path="url(#pafbd220e85)" style="fill: #1f77b4; fill-opacity: 0.75; stroke: #000000; stroke-width: 0.152182; stroke-linejoin: miter"/>
   </g>
   <g id="patch_99">
    <path d="M 191.83703 110.88 
L 194.053193 110.88 
L 194.053193 110.88 
L 191.83703 110.88 
z
" clip-path="url(#pafbd220e85)" style="fill: #1f77b4; fill-opacity: 0.75; stroke: #000000; stroke-width: 0.152182; stroke-linejoin: miter"/>
   </g>
   <g id="patch_100">
    <path d="M 194.053193 110.88 
L 196.269357 110.88 
L 196.269357 110.736691 
L 194.053193 110.736691 
z
" clip-path="url(#pafbd220e85)" style="fill: #1f77b4; fill-opacity: 0.75; stroke: #000000; stroke-width: 0.152182; stroke-linejoin: miter"/>
   </g>
   <g id="patch_101">
    <path d="M 196.269357 110.88 
L 198.48552 110.88 
L 198.48552 110.88 
L 196.269357 110.88 
z
" clip-path="url(#pafbd220e85)" style="fill: #1f77b4; fill-opacity: 0.75; stroke: #000000; stroke-width: 0.152182; stroke-linejoin: miter"/>
   </g>
   <g id="patch_102">
    <path d="M 198.48552 110.88 
L 200.701683 110.88 
L 200.701683 110.736691 
L 198.48552 110.736691 
z
" clip-path="url(#pafbd220e85)" style="fill: #1f77b4; fill-opacity: 0.75; stroke: #000000; stroke-width: 0.152182; stroke-linejoin: miter"/>
   </g>
   <g id="matplotlib.axis_1">
    <g id="xtick_1">
     <g id="line2d_1">
      <defs>
       <path id="m4ebd1804a7" d="M 0 0 
L 0 3.5 
" style="stroke: #000000; stroke-width: 1.5"/>
      </defs>
      <g>
       <use xlink:href="#m4ebd1804a7" x="7.633125" y="110.88" style="stroke: #000000; stroke-width: 1.5"/>
      </g>
     </g>
     <g id="text_1">
      <text style="font: 9px 'Arial', sans-serif; text-anchor: middle" x="7.633125" y="124.322031" transform="rotate(-0 7.633125 124.322031)">−10</text>
     </g>
    </g>
    <g id="xtick_2">
     <g id="line2d_2">
      <g>
       <use xlink:href="#m4ebd1804a7" x="91.333125" y="110.88" style="stroke: #000000; stroke-width: 1.5"/>
      </g>
     </g>
     <g id="text_2">
      <text style="font: 9px 'Arial', sans-serif; text-anchor: middle" x="91.333125" y="124.322031" transform="rotate(-0 91.333125 124.322031)">0</text>
     </g>
    </g>
    <g id="xtick_3">
     <g id="line2d_3">
      <g>
       <use xlink:href="#m4ebd1804a7" x="175.033125" y="110.88" style="stroke: #000000; stroke-width: 1.5"/>
      </g>
     </g>
     <g id="text_3">
      <text style="font: 9px 'Arial', sans-serif; text-anchor: middle" x="175.033125" y="124.322031" transform="rotate(-0 175.033125 124.322031)">10</text>
     </g>
    </g>
    <g id="text_4">
     <!-- $\theta$ -->
     <g transform="translate(88.813125 136.552812)">
      <text>
       <tspan style="font: 9px 'Arial'" x="0" y="-0.453125">θ</tspan>
      </text>
     </g>
    </g>
   </g>
   <g id="line2d_4">
    <path d="M 7.633125 110.879859 
L 34.108805 110.770224 
L 40.141234 110.527385 
L 44.33042 110.145387 
L 47.68177 109.61677 
L 50.530417 108.93953 
L 53.043929 108.113345 
L 55.389881 107.105149 
L 57.568262 105.930418 
L 59.746635 104.499094 
L 61.925016 102.791976 
L 64.1034 100.800286 
L 66.44934 98.343298 
L 68.962856 95.383963 
L 72.14664 91.257907 
L 80.525013 80.155748 
L 82.70339 77.744564 
L 84.546633 76.021232 
L 86.222311 74.758949 
L 87.730418 73.902016 
L 89.070958 73.37963 
L 90.411502 73.092965 
L 91.752042 73.047505 
L 93.092581 73.244113 
L 94.433121 73.679031 
L 95.773661 74.34397 
L 97.281772 75.351229 
L 98.957447 76.764157 
L 100.800689 78.628985 
L 102.97907 81.169948 
L 105.827717 84.866391 
L 114.373662 96.203084 
L 117.054741 99.256722 
L 119.40069 101.60002 
L 121.579071 103.482027 
L 123.757448 105.081384 
L 125.935825 106.411294 
L 128.114202 107.494016 
L 130.460147 108.415696 
L 132.973663 109.164533 
L 135.822306 109.772715 
L 139.173663 110.242496 
L 143.195282 110.568272 
L 148.725009 110.773922 
L 158.276366 110.867254 
L 175.033125 110.879859 
L 175.033125 110.879859 
" clip-path="url(#pafbd220e85)" style="fill: none; stroke-dasharray: 5.55,2.4; stroke-dashoffset: 0; stroke: #000000; stroke-width: 1.5"/>
   </g>
   <g id="line2d_5">
    <path d="M 7.633125 110.726472 
L 8.806101 110.435777 
L 9.811498 109.938099 
L 12.660157 108.231174 
L 13.330419 108.286305 
L 14.000697 108.583474 
L 15.341236 109.520231 
L 16.514205 110.218494 
L 17.51961 110.571219 
L 18.860149 110.780658 
L 21.206102 110.865862 
L 30.254741 110.844023 
L 31.930428 110.691039 
L 32.768265 110.434567 
L 33.438535 110.009084 
L 33.941229 109.46789 
L 34.443936 108.644639 
L 34.946642 107.446415 
L 35.616912 105.129715 
L 36.287182 101.951648 
L 38.297992 91.485221 
L 38.63313 90.647632 
L 38.968261 90.310697 
L 39.135825 90.339474 
L 39.470964 90.786878 
L 39.806095 91.717172 
L 40.308801 93.845101 
L 41.649341 101.240938 
L 42.487174 105.157299 
L 43.157444 107.377398 
L 43.827714 108.842908 
L 44.497984 109.737357 
L 45.168254 110.252035 
L 46.006095 110.584024 
L 47.179067 110.771496 
L 49.525016 110.856647 
L 55.557453 110.81012 
L 57.065556 110.620764 
L 57.903395 110.29645 
L 58.573665 109.744825 
L 59.076366 109.012443 
L 59.57907 107.834156 
L 60.08177 105.988768 
L 60.584475 103.196443 
L 61.087175 99.146527 
L 61.757447 91.33087 
L 62.427717 80.603442 
L 64.43853 44.90336 
L 64.773669 41.96005 
L 65.1088 40.713588 
L 65.27637 40.762961 
L 65.443939 41.261757 
L 65.77907 43.554879 
L 66.281775 49.82011 
L 67.11961 64.952282 
L 68.292584 86.472209 
L 68.962856 95.563132 
L 69.633126 101.837742 
L 70.303396 105.787825 
L 70.8061 107.641301 
L 71.308801 108.843336 
L 71.811501 109.604952 
L 72.481771 110.19371 
L 73.31961 110.553698 
L 74.492581 110.751176 
L 76.838529 110.841576 
L 81.362851 110.779759 
L 82.70339 110.599393 
L 83.541232 110.28758 
L 84.211502 109.765762 
L 84.7142 109.073736 
L 85.216902 107.950951 
L 85.719605 106.161443 
L 86.222311 103.379871 
L 86.725014 99.195186 
L 87.227712 93.149893 
L 87.897982 81.511467 
L 88.568252 65.536788 
L 90.579069 11.855086 
L 90.914204 7.300833 
L 91.249339 5.280023 
L 91.416907 5.28 
L 91.584474 5.9583 
L 91.919609 9.279802 
L 92.422312 18.579319 
L 93.092581 36.41763 
L 94.600693 77.910904 
L 95.270962 90.646225 
L 95.941232 99.195153 
L 96.443931 103.379814 
L 96.946637 106.161407 
L 97.449336 107.950916 
L 97.952042 109.07372 
L 98.45474 109.765754 
L 99.12501 110.287576 
L 99.962852 110.599392 
L 101.135824 110.767597 
L 103.64934 110.844954 
L 108.006098 110.765547 
L 109.346638 110.553699 
L 110.184473 110.193714 
L 110.854743 109.604959 
L 111.357447 108.84334 
L 111.860148 107.641307 
L 112.362852 105.787833 
L 112.865553 103.016731 
L 113.368257 99.031178 
L 114.038527 91.380704 
L 114.708797 80.885338 
L 116.887176 43.55493 
L 117.222311 41.261757 
L 117.389876 40.762978 
L 117.557446 40.713577 
L 117.725011 41.115189 
L 118.060146 43.231216 
L 118.56285 49.311605 
L 119.233126 61.131944 
L 120.74123 88.911898 
L 121.411499 97.466414 
L 122.081773 103.196429 
L 122.584476 105.988754 
L 123.087178 107.83415 
L 123.58988 109.012435 
L 124.092583 109.744823 
L 124.762853 110.296449 
L 125.60069 110.620763 
L 126.773662 110.788619 
L 129.287178 110.860666 
L 135.152036 110.796819 
L 136.660151 110.584025 
L 137.497988 110.25204 
L 138.168258 109.737365 
L 138.670961 109.112153 
L 139.173663 108.194176 
L 139.676365 106.898839 
L 140.346635 104.471844 
L 141.184473 100.332239 
L 142.69258 92.340967 
L 143.195282 90.786886 
L 143.530425 90.339474 
L 143.697989 90.310697 
L 144.03312 90.647632 
L 144.368258 91.485221 
L 144.870965 93.529498 
L 145.876362 99.135416 
L 146.881774 104.412653 
L 147.552044 106.948675 
L 148.222314 108.644639 
L 148.892584 109.675169 
L 149.562854 110.255347 
L 150.400687 110.613508 
L 151.573664 110.799174 
L 153.919608 110.869824 
L 163.135823 110.824484 
L 164.811497 110.645398 
L 165.984474 110.292795 
L 166.989871 109.748393 
L 169.335823 108.286306 
L 170.006093 108.231174 
L 170.676363 108.439112 
L 171.514204 108.970958 
L 173.357442 110.219262 
L 174.362855 110.592326 
L 175.033125 110.726472 
L 175.033125 110.726472 
" clip-path="url(#pafbd220e85)" style="fill: none; stroke: #000000; stroke-width: 1.5; stroke-linecap: square"/>
   </g>
   <g id="patch_103">
    <path d="M 7.633125 110.88 
L 175.033125 110.88 
" style="fill: none; stroke: #000000; stroke-width: 1.5; stroke-linejoin: miter; stroke-linecap: square"/>
   </g>
   <g id="legend_1">
    <g id="line2d_6">
     <path d="M 15.733125 11.392031 
L 24.733125 11.392031 
L 33.733125 11.392031 
" style="fill: none; stroke-dasharray: 5.55,2.4; stroke-dashoffset: 0; stroke: #000000; stroke-width: 1.5"/>
    </g>
    <g id="text_5">
     <text style="font: 9px 'Arial', sans-serif; text-anchor: start" x="40.933125" y="14.542031" transform="rotate(-0 40.933125 14.542031)">Prior</text>
    </g>
    <g id="line2d_7">
     <path d="M 15.733125 24.122812 
L 24.733125 24.122812 
L 33.733125 24.122812 
" style="fill: none; stroke: #000000; stroke-width: 1.5; stroke-linecap: square"/>
    </g>
    <g id="text_6">
     <text style="font: 9px 'Arial', sans-serif; text-anchor: start" x="40.933125" y="27.272812" transform="rotate(-0 40.933125 27.272812)">Exact</text>
    </g>
    <g id="patch_104">
     <path d="M 15.733125 40.003594 
L 33.733125 40.003594 
L 33.733125 33.703594 
L 15.733125 33.703594 
z
" style="fill: #1f77b4; fill-opacity: 0.75; stroke: #000000; stroke-width: 0.152182; stroke-linejoin: miter"/>
    </g>
    <g id="text_7">
     <text style="font: 9px 'Arial', sans-serif; text-anchor: start" x="40.933125" y="40.003594" transform="rotate(-0 40.933125 40.003594)">Approx.</text>
    </g>
   </g>
  </g>
 </g>
 <defs>
  <clipPath id="pafbd220e85">
   <rect x="7.633125" y="-0" width="167.4" height="110.88"/>
  </clipPath>
 </defs>
</svg>
