<?xml version="1.0" encoding="utf-8" standalone="no"?>
<!DOCTYPE svg PUBLIC "-//W3C//DTD SVG 1.1//EN"
  "http://www.w3.org/Graphics/SVG/1.1/DTD/svg11.dtd">
<svg xmlns:xlink="http://www.w3.org/1999/xlink" width="180.037969pt" height="138.341562pt" viewBox="0 0 180.037969 138.341562" xmlns="http://www.w3.org/2000/svg" version="1.1">
 <metadata>
  <rdf:RDF xmlns:dc="http://purl.org/dc/elements/1.1/" xmlns:cc="http://creativecommons.org/ns#" xmlns:rdf="http://www.w3.org/1999/02/22-rdf-syntax-ns#">
   <cc:Work>
    <dc:type rdf:resource="http://purl.org/dc/dcmitype/StillImage"/>
    <dc:date>2024-01-21T21:31:10.474335</dc:date>
    <dc:format>image/svg+xml</dc:format>
    <dc:creator>
     <cc:Agent>
      <dc:title>Matplotlib v3.8.2, https://matplotlib.org/</dc:title>
     </cc:Agent>
    </dc:creator>
   </cc:Work>
  </rdf:RDF>
 </metadata>
 <defs>
  <style type="text/css">*{stroke-linejoin: round; stroke-linecap: butt}</style>
 </defs>
 <g id="figure_1">
  <g id="patch_1">
   <path d="M 0 138.341562 
L 180.037969 138.341562 
L 180.037969 0 
L 0 0 
z
" style="fill: #ffffff"/>
  </g>
  <g id="axes_1">
   <g id="patch_2">
    <path d="M 7.633125 110.88 
L 175.033125 110.88 
L 175.033125 -0 
L 7.633125 -0 
z
" style="fill: #ffffff"/>
   </g>
   <g id="patch_3">
    <path d="M -2.193046 110.88 
L -0.307569 110.88 
L -0.307569 110.601358 
L -2.193046 110.601358 
z
" clip-path="url(#pa33b224671)" style="fill: #1f77b4; fill-opacity: 0.75; stroke: #000000; stroke-width: 0.152182; stroke-linejoin: miter"/>
   </g>
   <g id="patch_4">
    <path d="M -0.307569 110.88 
L 1.577907 110.88 
L 1.577907 110.322716 
L -0.307569 110.322716 
z
" clip-path="url(#pa33b224671)" style="fill: #1f77b4; fill-opacity: 0.75; stroke: #000000; stroke-width: 0.152182; stroke-linejoin: miter"/>
   </g>
   <g id="patch_5">
    <path d="M 1.577907 110.88 
L 3.463384 110.88 
L 3.463384 110.044074 
L 1.577907 110.044074 
z
" clip-path="url(#pa33b224671)" style="fill: #1f77b4; fill-opacity: 0.75; stroke: #000000; stroke-width: 0.152182; stroke-linejoin: miter"/>
   </g>
   <g id="patch_6">
    <path d="M 3.463384 110.88 
L 5.34886 110.88 
L 5.34886 110.601358 
L 3.463384 110.601358 
z
" clip-path="url(#pa33b224671)" style="fill: #1f77b4; fill-opacity: 0.75; stroke: #000000; stroke-width: 0.152182; stroke-linejoin: miter"/>
   </g>
   <g id="patch_7">
    <path d="M 5.34886 110.88 
L 7.234337 110.88 
L 7.234337 110.322716 
L 5.34886 110.322716 
z
" clip-path="url(#pa33b224671)" style="fill: #1f77b4; fill-opacity: 0.75; stroke: #000000; stroke-width: 0.152182; stroke-linejoin: miter"/>
   </g>
   <g id="patch_8">
    <path d="M 7.234337 110.88 
L 9.119813 110.88 
L 9.119813 110.322716 
L 7.234337 110.322716 
z
" clip-path="url(#pa33b224671)" style="fill: #1f77b4; fill-opacity: 0.75; stroke: #000000; stroke-width: 0.152182; stroke-linejoin: miter"/>
   </g>
   <g id="patch_9">
    <path d="M 9.119813 110.88 
L 11.00529 110.88 
L 11.00529 110.601358 
L 9.119813 110.601358 
z
" clip-path="url(#pa33b224671)" style="fill: #1f77b4; fill-opacity: 0.75; stroke: #000000; stroke-width: 0.152182; stroke-linejoin: miter"/>
   </g>
   <g id="patch_10">
    <path d="M 11.00529 110.88 
L 12.890766 110.88 
L 12.890766 110.601358 
L 11.00529 110.601358 
z
" clip-path="url(#pa33b224671)" style="fill: #1f77b4; fill-opacity: 0.75; stroke: #000000; stroke-width: 0.152182; stroke-linejoin: miter"/>
   </g>
   <g id="patch_11">
    <path d="M 12.890766 110.88 
L 14.776243 110.88 
L 14.776243 110.601358 
L 12.890766 110.601358 
z
" clip-path="url(#pa33b224671)" style="fill: #1f77b4; fill-opacity: 0.75; stroke: #000000; stroke-width: 0.152182; stroke-linejoin: miter"/>
   </g>
   <g id="patch_12">
    <path d="M 14.776243 110.88 
L 16.661719 110.88 
L 16.661719 110.601358 
L 14.776243 110.601358 
z
" clip-path="url(#pa33b224671)" style="fill: #1f77b4; fill-opacity: 0.75; stroke: #000000; stroke-width: 0.152182; stroke-linejoin: miter"/>
   </g>
   <g id="patch_13">
    <path d="M 16.661719 110.88 
L 18.547196 110.88 
L 18.547196 109.765432 
L 16.661719 109.765432 
z
" clip-path="url(#pa33b224671)" style="fill: #1f77b4; fill-opacity: 0.75; stroke: #000000; stroke-width: 0.152182; stroke-linejoin: miter"/>
   </g>
   <g id="patch_14">
    <path d="M 18.547196 110.88 
L 20.432672 110.88 
L 20.432672 110.044074 
L 18.547196 110.044074 
z
" clip-path="url(#pa33b224671)" style="fill: #1f77b4; fill-opacity: 0.75; stroke: #000000; stroke-width: 0.152182; stroke-linejoin: miter"/>
   </g>
   <g id="patch_15">
    <path d="M 20.432672 110.88 
L 22.318149 110.88 
L 22.318149 109.208148 
L 20.432672 109.208148 
z
" clip-path="url(#pa33b224671)" style="fill: #1f77b4; fill-opacity: 0.75; stroke: #000000; stroke-width: 0.152182; stroke-linejoin: miter"/>
   </g>
   <g id="patch_16">
    <path d="M 22.318149 110.88 
L 24.203625 110.88 
L 24.203625 109.208148 
L 22.318149 109.208148 
z
" clip-path="url(#pa33b224671)" style="fill: #1f77b4; fill-opacity: 0.75; stroke: #000000; stroke-width: 0.152182; stroke-linejoin: miter"/>
   </g>
   <g id="patch_17">
    <path d="M 24.203625 110.88 
L 26.089102 110.88 
L 26.089102 108.372222 
L 24.203625 108.372222 
z
" clip-path="url(#pa33b224671)" style="fill: #1f77b4; fill-opacity: 0.75; stroke: #000000; stroke-width: 0.152182; stroke-linejoin: miter"/>
   </g>
   <g id="patch_18">
    <path d="M 26.089102 110.88 
L 27.974578 110.88 
L 27.974578 106.421728 
L 26.089102 106.421728 
z
" clip-path="url(#pa33b224671)" style="fill: #1f77b4; fill-opacity: 0.75; stroke: #000000; stroke-width: 0.152182; stroke-linejoin: miter"/>
   </g>
   <g id="patch_19">
    <path d="M 27.974578 110.88 
L 29.860055 110.88 
L 29.860055 108.09358 
L 27.974578 108.09358 
z
" clip-path="url(#pa33b224671)" style="fill: #1f77b4; fill-opacity: 0.75; stroke: #000000; stroke-width: 0.152182; stroke-linejoin: miter"/>
   </g>
   <g id="patch_20">
    <path d="M 29.860055 110.88 
L 31.745531 110.88 
L 31.745531 106.70037 
L 29.860055 106.70037 
z
" clip-path="url(#pa33b224671)" style="fill: #1f77b4; fill-opacity: 0.75; stroke: #000000; stroke-width: 0.152182; stroke-linejoin: miter"/>
   </g>
   <g id="patch_21">
    <path d="M 31.745531 110.88 
L 33.631008 110.88 
L 33.631008 105.585801 
L 31.745531 105.585801 
z
" clip-path="url(#pa33b224671)" style="fill: #1f77b4; fill-opacity: 0.75; stroke: #000000; stroke-width: 0.152182; stroke-linejoin: miter"/>
   </g>
   <g id="patch_22">
    <path d="M 33.631008 110.88 
L 35.516484 110.88 
L 35.516484 105.585801 
L 33.631008 105.585801 
z
" clip-path="url(#pa33b224671)" style="fill: #1f77b4; fill-opacity: 0.75; stroke: #000000; stroke-width: 0.152182; stroke-linejoin: miter"/>
   </g>
   <g id="patch_23">
    <path d="M 35.516484 110.88 
L 37.401961 110.88 
L 37.401961 103.635307 
L 35.516484 103.635307 
z
" clip-path="url(#pa33b224671)" style="fill: #1f77b4; fill-opacity: 0.75; stroke: #000000; stroke-width: 0.152182; stroke-linejoin: miter"/>
   </g>
   <g id="patch_24">
    <path d="M 37.401961 110.88 
L 39.287437 110.88 
L 39.287437 100.848887 
L 37.401961 100.848887 
z
" clip-path="url(#pa33b224671)" style="fill: #1f77b4; fill-opacity: 0.75; stroke: #000000; stroke-width: 0.152182; stroke-linejoin: miter"/>
   </g>
   <g id="patch_25">
    <path d="M 39.287437 110.88 
L 41.172914 110.88 
L 41.172914 97.505183 
L 39.287437 97.505183 
z
" clip-path="url(#pa33b224671)" style="fill: #1f77b4; fill-opacity: 0.75; stroke: #000000; stroke-width: 0.152182; stroke-linejoin: miter"/>
   </g>
   <g id="patch_26">
    <path d="M 41.172914 110.88 
L 43.05839 110.88 
L 43.05839 100.012961 
L 41.172914 100.012961 
z
" clip-path="url(#pa33b224671)" style="fill: #1f77b4; fill-opacity: 0.75; stroke: #000000; stroke-width: 0.152182; stroke-linejoin: miter"/>
   </g>
   <g id="patch_27">
    <path d="M 43.05839 110.88 
L 44.943867 110.88 
L 44.943867 95.833331 
L 43.05839 95.833331 
z
" clip-path="url(#pa33b224671)" style="fill: #1f77b4; fill-opacity: 0.75; stroke: #000000; stroke-width: 0.152182; stroke-linejoin: miter"/>
   </g>
   <g id="patch_28">
    <path d="M 44.943867 110.88 
L 46.829343 110.88 
L 46.829343 94.44012 
L 44.943867 94.44012 
z
" clip-path="url(#pa33b224671)" style="fill: #1f77b4; fill-opacity: 0.75; stroke: #000000; stroke-width: 0.152182; stroke-linejoin: miter"/>
   </g>
   <g id="patch_29">
    <path d="M 46.829343 110.88 
L 48.71482 110.88 
L 48.71482 93.604194 
L 46.829343 93.604194 
z
" clip-path="url(#pa33b224671)" style="fill: #1f77b4; fill-opacity: 0.75; stroke: #000000; stroke-width: 0.152182; stroke-linejoin: miter"/>
   </g>
   <g id="patch_30">
    <path d="M 48.71482 110.88 
L 50.600296 110.88 
L 50.600296 93.04691 
L 48.71482 93.04691 
z
" clip-path="url(#pa33b224671)" style="fill: #1f77b4; fill-opacity: 0.75; stroke: #000000; stroke-width: 0.152182; stroke-linejoin: miter"/>
   </g>
   <g id="patch_31">
    <path d="M 50.600296 110.88 
L 52.485773 110.88 
L 52.485773 88.86728 
L 50.600296 88.86728 
z
" clip-path="url(#pa33b224671)" style="fill: #1f77b4; fill-opacity: 0.75; stroke: #000000; stroke-width: 0.152182; stroke-linejoin: miter"/>
   </g>
   <g id="patch_32">
    <path d="M 52.485773 110.88 
L 54.371249 110.88 
L 54.371249 87.47407 
L 52.485773 87.47407 
z
" clip-path="url(#pa33b224671)" style="fill: #1f77b4; fill-opacity: 0.75; stroke: #000000; stroke-width: 0.152182; stroke-linejoin: miter"/>
   </g>
   <g id="patch_33">
    <path d="M 54.371249 110.88 
L 56.256726 110.88 
L 56.256726 81.622587 
L 54.371249 81.622587 
z
" clip-path="url(#pa33b224671)" style="fill: #1f77b4; fill-opacity: 0.75; stroke: #000000; stroke-width: 0.152182; stroke-linejoin: miter"/>
   </g>
   <g id="patch_34">
    <path d="M 56.256726 110.88 
L 58.142202 110.88 
L 58.142202 75.771105 
L 56.256726 75.771105 
z
" clip-path="url(#pa33b224671)" style="fill: #1f77b4; fill-opacity: 0.75; stroke: #000000; stroke-width: 0.152182; stroke-linejoin: miter"/>
   </g>
   <g id="patch_35">
    <path d="M 58.142202 110.88 
L 60.027679 110.88 
L 60.027679 70.476906 
L 58.142202 70.476906 
z
" clip-path="url(#pa33b224671)" style="fill: #1f77b4; fill-opacity: 0.75; stroke: #000000; stroke-width: 0.152182; stroke-linejoin: miter"/>
   </g>
   <g id="patch_36">
    <path d="M 60.027679 110.88 
L 61.913155 110.88 
L 61.913155 62.396287 
L 60.027679 62.396287 
z
" clip-path="url(#pa33b224671)" style="fill: #1f77b4; fill-opacity: 0.75; stroke: #000000; stroke-width: 0.152182; stroke-linejoin: miter"/>
   </g>
   <g id="patch_37">
    <path d="M 61.913155 110.88 
L 63.798631 110.88 
L 63.798631 69.083696 
L 61.913155 69.083696 
z
" clip-path="url(#pa33b224671)" style="fill: #1f77b4; fill-opacity: 0.75; stroke: #000000; stroke-width: 0.152182; stroke-linejoin: miter"/>
   </g>
   <g id="patch_38">
    <path d="M 63.798631 110.88 
L 65.684108 110.88 
L 65.684108 56.544805 
L 63.798631 56.544805 
z
" clip-path="url(#pa33b224671)" style="fill: #1f77b4; fill-opacity: 0.75; stroke: #000000; stroke-width: 0.152182; stroke-linejoin: miter"/>
   </g>
   <g id="patch_39">
    <path d="M 65.684108 110.88 
L 67.569584 110.88 
L 67.569584 49.02147 
L 65.684108 49.02147 
z
" clip-path="url(#pa33b224671)" style="fill: #1f77b4; fill-opacity: 0.75; stroke: #000000; stroke-width: 0.152182; stroke-linejoin: miter"/>
   </g>
   <g id="patch_40">
    <path d="M 67.569584 110.88 
L 69.455061 110.88 
L 69.455061 42.891345 
L 67.569584 42.891345 
z
" clip-path="url(#pa33b224671)" style="fill: #1f77b4; fill-opacity: 0.75; stroke: #000000; stroke-width: 0.152182; stroke-linejoin: miter"/>
   </g>
   <g id="patch_41">
    <path d="M 69.455061 110.88 
L 71.340537 110.88 
L 71.340537 49.02147 
L 69.455061 49.02147 
z
" clip-path="url(#pa33b224671)" style="fill: #1f77b4; fill-opacity: 0.75; stroke: #000000; stroke-width: 0.152182; stroke-linejoin: miter"/>
   </g>
   <g id="patch_42">
    <path d="M 71.340537 110.88 
L 73.226014 110.88 
L 73.226014 49.857396 
L 71.340537 49.857396 
z
" clip-path="url(#pa33b224671)" style="fill: #1f77b4; fill-opacity: 0.75; stroke: #000000; stroke-width: 0.152182; stroke-linejoin: miter"/>
   </g>
   <g id="patch_43">
    <path d="M 73.226014 110.88 
L 75.11149 110.88 
L 75.11149 52.922458 
L 73.226014 52.922458 
z
" clip-path="url(#pa33b224671)" style="fill: #1f77b4; fill-opacity: 0.75; stroke: #000000; stroke-width: 0.152182; stroke-linejoin: miter"/>
   </g>
   <g id="patch_44">
    <path d="M 75.11149 110.88 
L 76.996967 110.88 
L 76.996967 52.365174 
L 75.11149 52.365174 
z
" clip-path="url(#pa33b224671)" style="fill: #1f77b4; fill-opacity: 0.75; stroke: #000000; stroke-width: 0.152182; stroke-linejoin: miter"/>
   </g>
   <g id="patch_45">
    <path d="M 76.996967 110.88 
L 78.882443 110.88 
L 78.882443 53.758384 
L 76.996967 53.758384 
z
" clip-path="url(#pa33b224671)" style="fill: #1f77b4; fill-opacity: 0.75; stroke: #000000; stroke-width: 0.152182; stroke-linejoin: miter"/>
   </g>
   <g id="patch_46">
    <path d="M 78.882443 110.88 
L 80.76792 110.88 
L 80.76792 47.906902 
L 78.882443 47.906902 
z
" clip-path="url(#pa33b224671)" style="fill: #1f77b4; fill-opacity: 0.75; stroke: #000000; stroke-width: 0.152182; stroke-linejoin: miter"/>
   </g>
   <g id="patch_47">
    <path d="M 80.76792 110.88 
L 82.653396 110.88 
L 82.653396 43.169987 
L 80.76792 43.169987 
z
" clip-path="url(#pa33b224671)" style="fill: #1f77b4; fill-opacity: 0.75; stroke: #000000; stroke-width: 0.152182; stroke-linejoin: miter"/>
   </g>
   <g id="patch_48">
    <path d="M 82.653396 110.88 
L 84.538873 110.88 
L 84.538873 32.860232 
L 82.653396 32.860232 
z
" clip-path="url(#pa33b224671)" style="fill: #1f77b4; fill-opacity: 0.75; stroke: #000000; stroke-width: 0.152182; stroke-linejoin: miter"/>
   </g>
   <g id="patch_49">
    <path d="M 84.538873 110.88 
L 86.424349 110.88 
L 86.424349 22.829119 
L 84.538873 22.829119 
z
" clip-path="url(#pa33b224671)" style="fill: #1f77b4; fill-opacity: 0.75; stroke: #000000; stroke-width: 0.152182; stroke-linejoin: miter"/>
   </g>
   <g id="patch_50">
    <path d="M 86.424349 110.88 
L 88.309826 110.88 
L 88.309826 11.96208 
L 86.424349 11.96208 
z
" clip-path="url(#pa33b224671)" style="fill: #1f77b4; fill-opacity: 0.75; stroke: #000000; stroke-width: 0.152182; stroke-linejoin: miter"/>
   </g>
   <g id="patch_51">
    <path d="M 88.309826 110.88 
L 90.195302 110.88 
L 90.195302 14.7485 
L 88.309826 14.7485 
z
" clip-path="url(#pa33b224671)" style="fill: #1f77b4; fill-opacity: 0.75; stroke: #000000; stroke-width: 0.152182; stroke-linejoin: miter"/>
   </g>
   <g id="patch_52">
    <path d="M 90.195302 110.88 
L 92.080779 110.88 
L 92.080779 14.469858 
L 90.195302 14.469858 
z
" clip-path="url(#pa33b224671)" style="fill: #1f77b4; fill-opacity: 0.75; stroke: #000000; stroke-width: 0.152182; stroke-linejoin: miter"/>
   </g>
   <g id="patch_53">
    <path d="M 92.080779 110.88 
L 93.966255 110.88 
L 93.966255 6.667882 
L 92.080779 6.667882 
z
" clip-path="url(#pa33b224671)" style="fill: #1f77b4; fill-opacity: 0.75; stroke: #000000; stroke-width: 0.152182; stroke-linejoin: miter"/>
   </g>
   <g id="patch_54">
    <path d="M 93.966255 110.88 
L 95.851732 110.88 
L 95.851732 16.420353 
L 93.966255 16.420353 
z
" clip-path="url(#pa33b224671)" style="fill: #1f77b4; fill-opacity: 0.75; stroke: #000000; stroke-width: 0.152182; stroke-linejoin: miter"/>
   </g>
   <g id="patch_55">
    <path d="M 95.851732 110.88 
L 97.737208 110.88 
L 97.737208 31.467022 
L 95.851732 31.467022 
z
" clip-path="url(#pa33b224671)" style="fill: #1f77b4; fill-opacity: 0.75; stroke: #000000; stroke-width: 0.152182; stroke-linejoin: miter"/>
   </g>
   <g id="patch_56">
    <path d="M 97.737208 110.88 
L 99.622685 110.88 
L 99.622685 29.237886 
L 97.737208 29.237886 
z
" clip-path="url(#pa33b224671)" style="fill: #1f77b4; fill-opacity: 0.75; stroke: #000000; stroke-width: 0.152182; stroke-linejoin: miter"/>
   </g>
   <g id="patch_57">
    <path d="M 99.622685 110.88 
L 101.508161 110.88 
L 101.508161 41.498135 
L 99.622685 41.498135 
z
" clip-path="url(#pa33b224671)" style="fill: #1f77b4; fill-opacity: 0.75; stroke: #000000; stroke-width: 0.152182; stroke-linejoin: miter"/>
   </g>
   <g id="patch_58">
    <path d="M 101.508161 110.88 
L 103.393638 110.88 
L 103.393638 44.005913 
L 101.508161 44.005913 
z
" clip-path="url(#pa33b224671)" style="fill: #1f77b4; fill-opacity: 0.75; stroke: #000000; stroke-width: 0.152182; stroke-linejoin: miter"/>
   </g>
   <g id="patch_59">
    <path d="M 103.393638 110.88 
L 105.279114 110.88 
L 105.279114 52.643816 
L 103.393638 52.643816 
z
" clip-path="url(#pa33b224671)" style="fill: #1f77b4; fill-opacity: 0.75; stroke: #000000; stroke-width: 0.152182; stroke-linejoin: miter"/>
   </g>
   <g id="patch_60">
    <path d="M 105.279114 110.88 
L 107.164591 110.88 
L 107.164591 56.266163 
L 105.279114 56.266163 
z
" clip-path="url(#pa33b224671)" style="fill: #1f77b4; fill-opacity: 0.75; stroke: #000000; stroke-width: 0.152182; stroke-linejoin: miter"/>
   </g>
   <g id="patch_61">
    <path d="M 107.164591 110.88 
L 109.050067 110.88 
L 109.050067 51.80789 
L 107.164591 51.80789 
z
" clip-path="url(#pa33b224671)" style="fill: #1f77b4; fill-opacity: 0.75; stroke: #000000; stroke-width: 0.152182; stroke-linejoin: miter"/>
   </g>
   <g id="patch_62">
    <path d="M 109.050067 110.88 
L 110.935544 110.88 
L 110.935544 43.169987 
L 109.050067 43.169987 
z
" clip-path="url(#pa33b224671)" style="fill: #1f77b4; fill-opacity: 0.75; stroke: #000000; stroke-width: 0.152182; stroke-linejoin: miter"/>
   </g>
   <g id="patch_63">
    <path d="M 110.935544 110.88 
L 112.82102 110.88 
L 112.82102 43.169987 
L 110.935544 43.169987 
z
" clip-path="url(#pa33b224671)" style="fill: #1f77b4; fill-opacity: 0.75; stroke: #000000; stroke-width: 0.152182; stroke-linejoin: miter"/>
   </g>
   <g id="patch_64">
    <path d="M 112.82102 110.88 
L 114.706497 110.88 
L 114.706497 55.708879 
L 112.82102 55.708879 
z
" clip-path="url(#pa33b224671)" style="fill: #1f77b4; fill-opacity: 0.75; stroke: #000000; stroke-width: 0.152182; stroke-linejoin: miter"/>
   </g>
   <g id="patch_65">
    <path d="M 114.706497 110.88 
L 116.591973 110.88 
L 116.591973 56.266163 
L 114.706497 56.266163 
z
" clip-path="url(#pa33b224671)" style="fill: #1f77b4; fill-opacity: 0.75; stroke: #000000; stroke-width: 0.152182; stroke-linejoin: miter"/>
   </g>
   <g id="patch_66">
    <path d="M 116.591973 110.88 
L 118.47745 110.88 
L 118.47745 56.823447 
L 116.591973 56.823447 
z
" clip-path="url(#pa33b224671)" style="fill: #1f77b4; fill-opacity: 0.75; stroke: #000000; stroke-width: 0.152182; stroke-linejoin: miter"/>
   </g>
   <g id="patch_67">
    <path d="M 118.47745 110.88 
L 120.362926 110.88 
L 120.362926 67.969128 
L 118.47745 67.969128 
z
" clip-path="url(#pa33b224671)" style="fill: #1f77b4; fill-opacity: 0.75; stroke: #000000; stroke-width: 0.152182; stroke-linejoin: miter"/>
   </g>
   <g id="patch_68">
    <path d="M 120.362926 110.88 
L 122.248403 110.88 
L 122.248403 70.476906 
L 120.362926 70.476906 
z
" clip-path="url(#pa33b224671)" style="fill: #1f77b4; fill-opacity: 0.75; stroke: #000000; stroke-width: 0.152182; stroke-linejoin: miter"/>
   </g>
   <g id="patch_69">
    <path d="M 122.248403 110.88 
L 124.133879 110.88 
L 124.133879 72.706042 
L 122.248403 72.706042 
z
" clip-path="url(#pa33b224671)" style="fill: #1f77b4; fill-opacity: 0.75; stroke: #000000; stroke-width: 0.152182; stroke-linejoin: miter"/>
   </g>
   <g id="patch_70">
    <path d="M 124.133879 110.88 
L 126.019356 110.88 
L 126.019356 76.607031 
L 124.133879 76.607031 
z
" clip-path="url(#pa33b224671)" style="fill: #1f77b4; fill-opacity: 0.75; stroke: #000000; stroke-width: 0.152182; stroke-linejoin: miter"/>
   </g>
   <g id="patch_71">
    <path d="M 126.019356 110.88 
L 127.904832 110.88 
L 127.904832 81.622587 
L 126.019356 81.622587 
z
" clip-path="url(#pa33b224671)" style="fill: #1f77b4; fill-opacity: 0.75; stroke: #000000; stroke-width: 0.152182; stroke-linejoin: miter"/>
   </g>
   <g id="patch_72">
    <path d="M 127.904832 110.88 
L 129.790309 110.88 
L 129.790309 87.47407 
L 127.904832 87.47407 
z
" clip-path="url(#pa33b224671)" style="fill: #1f77b4; fill-opacity: 0.75; stroke: #000000; stroke-width: 0.152182; stroke-linejoin: miter"/>
   </g>
   <g id="patch_73">
    <path d="M 129.790309 110.88 
L 131.675785 110.88 
L 131.675785 92.210984 
L 129.790309 92.210984 
z
" clip-path="url(#pa33b224671)" style="fill: #1f77b4; fill-opacity: 0.75; stroke: #000000; stroke-width: 0.152182; stroke-linejoin: miter"/>
   </g>
   <g id="patch_74">
    <path d="M 131.675785 110.88 
L 133.561262 110.88 
L 133.561262 95.554688 
L 131.675785 95.554688 
z
" clip-path="url(#pa33b224671)" style="fill: #1f77b4; fill-opacity: 0.75; stroke: #000000; stroke-width: 0.152182; stroke-linejoin: miter"/>
   </g>
   <g id="patch_75">
    <path d="M 133.561262 110.88 
L 135.446738 110.88 
L 135.446738 93.04691 
L 133.561262 93.04691 
z
" clip-path="url(#pa33b224671)" style="fill: #1f77b4; fill-opacity: 0.75; stroke: #000000; stroke-width: 0.152182; stroke-linejoin: miter"/>
   </g>
   <g id="patch_76">
    <path d="M 135.446738 110.88 
L 137.332215 110.88 
L 137.332215 95.833331 
L 135.446738 95.833331 
z
" clip-path="url(#pa33b224671)" style="fill: #1f77b4; fill-opacity: 0.75; stroke: #000000; stroke-width: 0.152182; stroke-linejoin: miter"/>
   </g>
   <g id="patch_77">
    <path d="M 137.332215 110.88 
L 139.217691 110.88 
L 139.217691 96.111973 
L 137.332215 96.111973 
z
" clip-path="url(#pa33b224671)" style="fill: #1f77b4; fill-opacity: 0.75; stroke: #000000; stroke-width: 0.152182; stroke-linejoin: miter"/>
   </g>
   <g id="patch_78">
    <path d="M 139.217691 110.88 
L 141.103168 110.88 
L 141.103168 91.6537 
L 139.217691 91.6537 
z
" clip-path="url(#pa33b224671)" style="fill: #1f77b4; fill-opacity: 0.75; stroke: #000000; stroke-width: 0.152182; stroke-linejoin: miter"/>
   </g>
   <g id="patch_79">
    <path d="M 141.103168 110.88 
L 142.988644 110.88 
L 142.988644 100.570245 
L 141.103168 100.570245 
z
" clip-path="url(#pa33b224671)" style="fill: #1f77b4; fill-opacity: 0.75; stroke: #000000; stroke-width: 0.152182; stroke-linejoin: miter"/>
   </g>
   <g id="patch_80">
    <path d="M 142.988644 110.88 
L 144.874121 110.88 
L 144.874121 103.635307 
L 142.988644 103.635307 
z
" clip-path="url(#pa33b224671)" style="fill: #1f77b4; fill-opacity: 0.75; stroke: #000000; stroke-width: 0.152182; stroke-linejoin: miter"/>
   </g>
   <g id="patch_81">
    <path d="M 144.874121 110.88 
L 146.759597 110.88 
L 146.759597 104.749875 
L 144.874121 104.749875 
z
" clip-path="url(#pa33b224671)" style="fill: #1f77b4; fill-opacity: 0.75; stroke: #000000; stroke-width: 0.152182; stroke-linejoin: miter"/>
   </g>
   <g id="patch_82">
    <path d="M 146.759597 110.88 
L 148.645074 110.88 
L 148.645074 104.471233 
L 146.759597 104.471233 
z
" clip-path="url(#pa33b224671)" style="fill: #1f77b4; fill-opacity: 0.75; stroke: #000000; stroke-width: 0.152182; stroke-linejoin: miter"/>
   </g>
   <g id="patch_83">
    <path d="M 148.645074 110.88 
L 150.53055 110.88 
L 150.53055 105.585801 
L 148.645074 105.585801 
z
" clip-path="url(#pa33b224671)" style="fill: #1f77b4; fill-opacity: 0.75; stroke: #000000; stroke-width: 0.152182; stroke-linejoin: miter"/>
   </g>
   <g id="patch_84">
    <path d="M 150.53055 110.88 
L 152.416027 110.88 
L 152.416027 105.307159 
L 150.53055 105.307159 
z
" clip-path="url(#pa33b224671)" style="fill: #1f77b4; fill-opacity: 0.75; stroke: #000000; stroke-width: 0.152182; stroke-linejoin: miter"/>
   </g>
   <g id="patch_85">
    <path d="M 152.416027 110.88 
L 154.301503 110.88 
L 154.301503 108.372222 
L 152.416027 108.372222 
z
" clip-path="url(#pa33b224671)" style="fill: #1f77b4; fill-opacity: 0.75; stroke: #000000; stroke-width: 0.152182; stroke-linejoin: miter"/>
   </g>
   <g id="patch_86">
    <path d="M 154.301503 110.88 
L 156.186979 110.88 
L 156.186979 108.650864 
L 154.301503 108.650864 
z
" clip-path="url(#pa33b224671)" style="fill: #1f77b4; fill-opacity: 0.75; stroke: #000000; stroke-width: 0.152182; stroke-linejoin: miter"/>
   </g>
   <g id="patch_87">
    <path d="M 156.186979 110.88 
L 158.072456 110.88 
L 158.072456 107.536296 
L 156.186979 107.536296 
z
" clip-path="url(#pa33b224671)" style="fill: #1f77b4; fill-opacity: 0.75; stroke: #000000; stroke-width: 0.152182; stroke-linejoin: miter"/>
   </g>
   <g id="patch_88">
    <path d="M 158.072456 110.88 
L 159.957932 110.88 
L 159.957932 108.09358 
L 158.072456 108.09358 
z
" clip-path="url(#pa33b224671)" style="fill: #1f77b4; fill-opacity: 0.75; stroke: #000000; stroke-width: 0.152182; stroke-linejoin: miter"/>
   </g>
   <g id="patch_89">
    <path d="M 159.957932 110.88 
L 161.843409 110.88 
L 161.843409 109.48679 
L 159.957932 109.48679 
z
" clip-path="url(#pa33b224671)" style="fill: #1f77b4; fill-opacity: 0.75; stroke: #000000; stroke-width: 0.152182; stroke-linejoin: miter"/>
   </g>
   <g id="patch_90">
    <path d="M 161.843409 110.88 
L 163.728885 110.88 
L 163.728885 110.322716 
L 161.843409 110.322716 
z
" clip-path="url(#pa33b224671)" style="fill: #1f77b4; fill-opacity: 0.75; stroke: #000000; stroke-width: 0.152182; stroke-linejoin: miter"/>
   </g>
   <g id="patch_91">
    <path d="M 163.728885 110.88 
L 165.614362 110.88 
L 165.614362 110.322716 
L 163.728885 110.322716 
z
" clip-path="url(#pa33b224671)" style="fill: #1f77b4; fill-opacity: 0.75; stroke: #000000; stroke-width: 0.152182; stroke-linejoin: miter"/>
   </g>
   <g id="patch_92">
    <path d="M 165.614362 110.88 
L 167.499838 110.88 
L 167.499838 110.322716 
L 165.614362 110.322716 
z
" clip-path="url(#pa33b224671)" style="fill: #1f77b4; fill-opacity: 0.75; stroke: #000000; stroke-width: 0.152182; stroke-linejoin: miter"/>
   </g>
   <g id="patch_93">
    <path d="M 167.499838 110.88 
L 169.385315 110.88 
L 169.385315 110.601358 
L 167.499838 110.601358 
z
" clip-path="url(#pa33b224671)" style="fill: #1f77b4; fill-opacity: 0.75; stroke: #000000; stroke-width: 0.152182; stroke-linejoin: miter"/>
   </g>
   <g id="patch_94">
    <path d="M 169.385315 110.88 
L 171.270791 110.88 
L 171.270791 110.322716 
L 169.385315 110.322716 
z
" clip-path="url(#pa33b224671)" style="fill: #1f77b4; fill-opacity: 0.75; stroke: #000000; stroke-width: 0.152182; stroke-linejoin: miter"/>
   </g>
   <g id="patch_95">
    <path d="M 171.270791 110.88 
L 173.156268 110.88 
L 173.156268 110.044074 
L 171.270791 110.044074 
z
" clip-path="url(#pa33b224671)" style="fill: #1f77b4; fill-opacity: 0.75; stroke: #000000; stroke-width: 0.152182; stroke-linejoin: miter"/>
   </g>
   <g id="patch_96">
    <path d="M 173.156268 110.88 
L 175.041744 110.88 
L 175.041744 110.601358 
L 173.156268 110.601358 
z
" clip-path="url(#pa33b224671)" style="fill: #1f77b4; fill-opacity: 0.75; stroke: #000000; stroke-width: 0.152182; stroke-linejoin: miter"/>
   </g>
   <g id="patch_97">
    <path d="M 175.041744 110.88 
L 176.927221 110.88 
L 176.927221 110.601358 
L 175.041744 110.601358 
z
" clip-path="url(#pa33b224671)" style="fill: #1f77b4; fill-opacity: 0.75; stroke: #000000; stroke-width: 0.152182; stroke-linejoin: miter"/>
   </g>
   <g id="patch_98">
    <path d="M 176.927221 110.88 
L 178.812697 110.88 
L 178.812697 110.322716 
L 176.927221 110.322716 
z
" clip-path="url(#pa33b224671)" style="fill: #1f77b4; fill-opacity: 0.75; stroke: #000000; stroke-width: 0.152182; stroke-linejoin: miter"/>
   </g>
   <g id="patch_99">
    <path d="M 178.812697 110.88 
L 180.698174 110.88 
L 180.698174 110.601358 
L 178.812697 110.601358 
z
" clip-path="url(#pa33b224671)" style="fill: #1f77b4; fill-opacity: 0.75; stroke: #000000; stroke-width: 0.152182; stroke-linejoin: miter"/>
   </g>
   <g id="patch_100">
    <path d="M 180.698174 110.88 
L 182.58365 110.88 
L 182.58365 110.601358 
L 180.698174 110.601358 
z
" clip-path="url(#pa33b224671)" style="fill: #1f77b4; fill-opacity: 0.75; stroke: #000000; stroke-width: 0.152182; stroke-linejoin: miter"/>
   </g>
   <g id="patch_101">
    <path d="M 182.58365 110.88 
L 184.469127 110.88 
L 184.469127 110.88 
L 182.58365 110.88 
z
" clip-path="url(#pa33b224671)" style="fill: #1f77b4; fill-opacity: 0.75; stroke: #000000; stroke-width: 0.152182; stroke-linejoin: miter"/>
   </g>
   <g id="patch_102">
    <path d="M 184.469127 110.88 
L 186.354603 110.88 
L 186.354603 110.601358 
L 184.469127 110.601358 
z
" clip-path="url(#pa33b224671)" style="fill: #1f77b4; fill-opacity: 0.75; stroke: #000000; stroke-width: 0.152182; stroke-linejoin: miter"/>
   </g>
   <g id="matplotlib.axis_1">
    <g id="xtick_1">
     <g id="line2d_1">
      <defs>
       <path id="m570db0a703" d="M 0 0 
L 0 3.5 
" style="stroke: #000000; stroke-width: 1.5"/>
      </defs>
      <g>
       <use xlink:href="#m570db0a703" x="7.633125" y="110.88" style="stroke: #000000; stroke-width: 1.5"/>
      </g>
     </g>
     <g id="text_1">
      <text style="font: 9px 'Arial', sans-serif; text-anchor: middle" x="7.633125" y="124.322031" transform="rotate(-0 7.633125 124.322031)">−10</text>
     </g>
    </g>
    <g id="xtick_2">
     <g id="line2d_2">
      <g>
       <use xlink:href="#m570db0a703" x="91.333125" y="110.88" style="stroke: #000000; stroke-width: 1.5"/>
      </g>
     </g>
     <g id="text_2">
      <text style="font: 9px 'Arial', sans-serif; text-anchor: middle" x="91.333125" y="124.322031" transform="rotate(-0 91.333125 124.322031)">0</text>
     </g>
    </g>
    <g id="xtick_3">
     <g id="line2d_3">
      <g>
       <use xlink:href="#m570db0a703" x="175.033125" y="110.88" style="stroke: #000000; stroke-width: 1.5"/>
      </g>
     </g>
     <g id="text_3">
      <text style="font: 9px 'Arial', sans-serif; text-anchor: middle" x="175.033125" y="124.322031" transform="rotate(-0 175.033125 124.322031)">10</text>
     </g>
    </g>
    <g id="text_4">
     <!-- $\theta$ -->
     <g transform="translate(88.813125 136.552812)">
      <text>
       <tspan style="font: 9px 'Arial'" x="0" y="-0.453125">θ</tspan>
      </text>
     </g>
    </g>
   </g>
   <g id="line2d_4">
    <path d="M 7.633125 110.527893 
L 13.330419 110.037019 
L 25.730423 108.769401 
L 27.741237 108.202171 
L 29.416904 107.503567 
L 30.925011 106.647912 
L 32.433126 105.544558 
L 34.108805 104.027001 
L 36.287182 101.718201 
L 39.135825 98.72159 
L 40.643932 97.459075 
L 41.984476 96.623782 
L 43.325016 96.051602 
L 45.00069 95.604836 
L 48.184476 94.840241 
L 49.357444 94.32181 
L 50.530417 93.548011 
L 51.535825 92.621555 
L 52.541226 91.399654 
L 53.546635 89.832807 
L 54.55204 87.873529 
L 55.725016 85.037107 
L 56.897992 81.568157 
L 58.23853 76.834527 
L 59.914205 69.952806 
L 63.600695 54.32447 
L 64.6061 51.025739 
L 65.443939 48.886694 
L 66.281775 47.377023 
L 66.952044 46.63996 
L 67.454749 46.357099 
L 67.957449 46.294203 
L 68.460152 46.435381 
L 69.130422 46.905208 
L 69.968261 47.86234 
L 71.141231 49.66176 
L 73.822311 54.021837 
L 74.827719 55.183253 
L 75.665557 55.787 
L 76.335827 55.98752 
L 77.006097 55.909233 
L 77.676366 55.530904 
L 78.346636 54.83476 
L 79.016906 53.806492 
L 79.854743 52.038008 
L 80.692581 49.722009 
L 81.697986 46.222996 
L 82.870962 41.200181 
L 84.211502 34.412825 
L 88.568252 11.291379 
L 89.406097 8.290969 
L 90.076367 6.579811 
L 90.579069 5.748111 
L 91.081772 5.327019 
L 91.416907 5.28 
L 91.752042 5.420888 
L 92.254744 5.980511 
L 92.757446 6.945028 
L 93.427716 8.819044 
L 94.265558 11.991581 
L 95.270962 16.75027 
L 96.946637 25.970439 
L 99.292582 38.769296 
L 100.633121 44.887138 
L 101.806094 49.192891 
L 102.811507 52.038008 
L 103.64934 53.806492 
L 104.487177 55.039409 
L 105.157447 55.654624 
L 105.827717 55.956186 
L 106.497987 55.962626 
L 107.168257 55.696161 
L 107.838527 55.183253 
L 108.676368 54.24378 
L 109.849338 52.508313 
L 113.033122 47.437165 
L 113.870957 46.632945 
L 114.541227 46.319545 
L 115.043932 46.312376 
L 115.546636 46.520444 
L 116.049336 46.956254 
L 116.719606 47.902807 
L 117.389876 49.265734 
L 118.227716 51.523771 
L 119.233126 54.940433 
L 120.573666 60.364348 
L 124.93042 78.701667 
L 126.27096 83.133476 
L 127.443932 86.328435 
L 128.616905 88.904998 
L 129.789877 90.918092 
L 130.795282 92.249529 
L 131.800686 93.268936 
L 132.973663 94.130238 
L 134.146631 94.713522 
L 135.654742 95.183677 
L 140.0115 96.307652 
L 141.35204 97.00658 
L 142.69258 97.980446 
L 144.200695 99.375607 
L 146.714199 102.087009 
L 149.060148 104.51217 
L 150.735826 105.940822 
L 152.243933 106.959508 
L 153.919608 107.811938 
L 155.595287 108.419718 
L 157.606096 108.908515 
L 160.119608 109.278416 
L 164.308791 109.626294 
L 171.849339 110.273455 
L 175.033125 110.527893 
L 175.033125 110.527893 
" clip-path="url(#pa33b224671)" style="fill: none; stroke: #000000; stroke-width: 1.5; stroke-linecap: square"/>
   </g>
   <g id="patch_103">
    <path d="M 7.633125 110.88 
L 175.033125 110.88 
" style="fill: none; stroke: #000000; stroke-width: 1.5; stroke-linejoin: miter; stroke-linecap: square"/>
   </g>
   <g id="legend_1">
    <g id="line2d_5">
     <path d="M 15.733125 11.392031 
L 24.733125 11.392031 
L 33.733125 11.392031 
" style="fill: none; stroke: #000000; stroke-width: 1.5; stroke-linecap: square"/>
    </g>
    <g id="text_5">
     <text style="font: 9px 'Arial', sans-serif; text-anchor: start" x="40.933125" y="14.542031" transform="rotate(-0 40.933125 14.542031)">exact</text>
    </g>
    <g id="patch_104">
     <path d="M 15.733125 27.272812 
L 33.733125 27.272812 
L 33.733125 20.972812 
L 15.733125 20.972812 
z
" style="fill: #1f77b4; fill-opacity: 0.75; stroke: #000000; stroke-width: 0.152182; stroke-linejoin: miter"/>
    </g>
    <g id="text_6">
     <text style="font: 9px 'Arial', sans-serif; text-anchor: start" x="40.933125" y="27.272812" transform="rotate(-0 40.933125 27.272812)">approx.</text>
    </g>
   </g>
  </g>
 </g>
 <defs>
  <clipPath id="pa33b224671">
   <rect x="7.633125" y="-0" width="167.4" height="110.88"/>
  </clipPath>
 </defs>
</svg>
